<svg id="visual" viewBox="0 0 675 900" width="675" height="900" xmlns="http://www.w3.org/2000/svg" xmlns:xlink="http://www.w3.org/1999/xlink" version="1.1"><g stroke-width="1" stroke-linejoin="bevel"><path d="M344.3 447L329.5 466.7L358.3 450Z" fill="#7986cd" stroke="#adadad"></path><path d="M329.5 466.7L333.3 494.3L358.3 450Z" fill="#51272e" stroke="#adadad"></path><path d="M333.3 494.3L389.3 449.7L358.3 450Z" fill="#411f1f" stroke="#adadad"></path><path d="M358.3 450L363 415.7L344.3 447Z" fill="#7986cd" stroke="#adadad"></path><path d="M389.3 449.7L363 415.7L358.3 450Z" fill="#805582" stroke="#adadad"></path><path d="M277.3 423L271.3 476.3L329.5 466.7Z" fill="#6e3b54" stroke="#adadad"></path><path d="M329.5 466.7L307.5 506.3L333.3 494.3Z" fill="#6999e3" stroke="#adadad"></path><path d="M307.5 506.3L313 513.7L333.3 494.3Z" fill="#4facf7" stroke="#adadad"></path><path d="M333.3 494.3L414 473.3L389.3 449.7Z" fill="#7986cd" stroke="#adadad"></path><path d="M313 513.7L351.5 530L333.3 494.3Z" fill="#411f1f" stroke="#adadad"></path><path d="M351.5 530L414 473.3L333.3 494.3Z" fill="#83649b" stroke="#adadad"></path><path d="M383.5 382.3L350.5 396.3L363 415.7Z" fill="#51272e" stroke="#adadad"></path><path d="M350.8 379L350.5 396.3L377 376.3Z" fill="#6999e3" stroke="#adadad"></path><path d="M363 415.7L350.5 396.3L344.3 447Z" fill="#78476a" stroke="#adadad"></path><path d="M271.3 476.3L293 510L307.5 506.3Z" fill="#8175b4" stroke="#adadad"></path><path d="M427.5 537.3L417.3 473.3L414 473.3Z" fill="#78476a" stroke="#adadad"></path><path d="M414 473.3L417.3 473.3L389.3 449.7Z" fill="#4facf7" stroke="#adadad"></path><path d="M271.3 476.3L307.5 506.3L329.5 466.7Z" fill="#83649b" stroke="#adadad"></path><path d="M307.5 506.3L293 510L313 513.7Z" fill="#6999e3" stroke="#adadad"></path><path d="M339.8 546L349.5 537.7L351.5 530Z" fill="#6999e3" stroke="#adadad"></path><path d="M315.8 532.3L351.5 530L313 513.7Z" fill="#603140" stroke="#adadad"></path><path d="M351.5 530L402 548L414 473.3Z" fill="#411f1f" stroke="#adadad"></path><path d="M286.8 525.7L315.8 532.3L313 513.7Z" fill="#83649b" stroke="#adadad"></path><path d="M277.3 423L329.5 466.7L344.3 447Z" fill="#8175b4" stroke="#adadad"></path><path d="M315.8 532.3L339.8 546L351.5 530Z" fill="#78476a" stroke="#adadad"></path><path d="M325.8 385.3L277.3 423L344.3 447Z" fill="#6e3b54" stroke="#adadad"></path><path d="M350.5 396.3L325.8 385.3L344.3 447Z" fill="#8175b4" stroke="#adadad"></path><path d="M383.5 382.3L363 415.7L389.8 383.3Z" fill="#4facf7" stroke="#adadad"></path><path d="M350.5 396.3L350.8 379L325.8 385.3Z" fill="#78476a" stroke="#adadad"></path><path d="M277.3 517L286.8 525.7L293 510Z" fill="#7986cd" stroke="#adadad"></path><path d="M293 510L286.8 525.7L313 513.7Z" fill="#603140" stroke="#adadad"></path><path d="M315.8 532.3L312.5 571L339.8 546Z" fill="#805582" stroke="#adadad"></path><path d="M271.3 476.3L277.3 517L293 510Z" fill="#411f1f" stroke="#adadad"></path><path d="M259.3 458.7L259.8 469.7L271.3 476.3Z" fill="#805582" stroke="#adadad"></path><path d="M271.3 476.3L236 486.3L277.3 517Z" fill="#7986cd" stroke="#adadad"></path><path d="M277.3 423L259.3 458.7L271.3 476.3Z" fill="#7986cd" stroke="#adadad"></path><path d="M389.8 383.3L363 415.7L422.5 399Z" fill="#7986cd" stroke="#adadad"></path><path d="M318 358.7L308 384L325.8 385.3Z" fill="#603140" stroke="#adadad"></path><path d="M325.8 385.3L308 384L277.3 423Z" fill="#78476a" stroke="#adadad"></path><path d="M422.5 399L363 415.7L389.3 449.7Z" fill="#8175b4" stroke="#adadad"></path><path d="M389.8 383.3L377 376.3L383.5 382.3Z" fill="#6e3b54" stroke="#adadad"></path><path d="M383.5 382.3L377 376.3L350.5 396.3Z" fill="#4facf7" stroke="#adadad"></path><path d="M377 376.3L364.3 370.7L350.8 379Z" fill="#7986cd" stroke="#adadad"></path><path d="M350.8 379L337.5 361L325.8 385.3Z" fill="#7986cd" stroke="#adadad"></path><path d="M391 595.7L402 548L349.5 537.7Z" fill="#411f1f" stroke="#adadad"></path><path d="M349.5 537.7L402 548L351.5 530Z" fill="#51272e" stroke="#adadad"></path><path d="M417.3 473.3L422.5 399L389.3 449.7Z" fill="#411f1f" stroke="#adadad"></path><path d="M389.8 383.3L410.8 353L377 376.3Z" fill="#805582" stroke="#adadad"></path><path d="M364.3 370.7L337.5 361L350.8 379Z" fill="#7986cd" stroke="#adadad"></path><path d="M443 526.3L452.8 486.3L417.3 473.3Z" fill="#411f1f" stroke="#adadad"></path><path d="M417.3 473.3L462.3 396.3L422.5 399Z" fill="#78476a" stroke="#adadad"></path><path d="M402 548L427.5 537.3L414 473.3Z" fill="#83649b" stroke="#adadad"></path><path d="M318 358.7L298 369.3L308 384Z" fill="#411f1f" stroke="#adadad"></path><path d="M308 384L298 369.3L277.3 423Z" fill="#6e3b54" stroke="#adadad"></path><path d="M219.8 440.7L236 486.3L259.3 458.7Z" fill="#6e3b54" stroke="#adadad"></path><path d="M337.5 361L318 358.7L325.8 385.3Z" fill="#7986cd" stroke="#adadad"></path><path d="M301 573.7L315.8 532.3L286.8 525.7Z" fill="#411f1f" stroke="#adadad"></path><path d="M301 573.7L312.5 571L315.8 532.3Z" fill="#83649b" stroke="#adadad"></path><path d="M339.8 546L391 595.7L349.5 537.7Z" fill="#6e3b54" stroke="#adadad"></path><path d="M427.5 537.3L443 526.3L417.3 473.3Z" fill="#805582" stroke="#adadad"></path><path d="M259.3 458.7L236 486.3L259.8 469.7Z" fill="#6e3b54" stroke="#adadad"></path><path d="M259.8 469.7L236 486.3L271.3 476.3Z" fill="#805582" stroke="#adadad"></path><path d="M247.3 533.7L301 573.7L286.8 525.7Z" fill="#6999e3" stroke="#adadad"></path><path d="M227 433.3L259.3 458.7L277.3 423Z" fill="#411f1f" stroke="#adadad"></path><path d="M429 369L413.8 368.7L422.5 399Z" fill="#805582" stroke="#adadad"></path><path d="M422.5 399L413.8 368.7L389.8 383.3Z" fill="#6999e3" stroke="#adadad"></path><path d="M387.3 334.3L358 347.7L364.3 370.7Z" fill="#6e3b54" stroke="#adadad"></path><path d="M364.3 370.7L358 347.7L337.5 361Z" fill="#805582" stroke="#adadad"></path><path d="M337.5 361L328.5 329.7L318 358.7Z" fill="#4facf7" stroke="#adadad"></path><path d="M387.3 334.3L364.3 370.7L377 376.3Z" fill="#8175b4" stroke="#adadad"></path><path d="M247.3 533.7L286.8 525.7L277.3 517Z" fill="#805582" stroke="#adadad"></path><path d="M443 526.3L458.8 513.7L452.8 486.3Z" fill="#83649b" stroke="#adadad"></path><path d="M402 548L426.8 557L427.5 537.3Z" fill="#51272e" stroke="#adadad"></path><path d="M427.5 537.3L435.5 559L443 526.3Z" fill="#603140" stroke="#adadad"></path><path d="M443 526.3L473.8 551L458.8 513.7Z" fill="#805582" stroke="#adadad"></path><path d="M418.3 588.7L426.8 557L402 548Z" fill="#83649b" stroke="#adadad"></path><path d="M391 595.7L339.8 546L380 614Z" fill="#805582" stroke="#adadad"></path><path d="M236 486.3L247.3 533.7L277.3 517Z" fill="#8175b4" stroke="#adadad"></path><path d="M270.3 633.3L308 583L301 573.7Z" fill="#78476a" stroke="#adadad"></path><path d="M301 573.7L308 583L312.5 571Z" fill="#6e3b54" stroke="#adadad"></path><path d="M221.5 409.7L227 433.3L277.3 423Z" fill="#6e3b54" stroke="#adadad"></path><path d="M462.3 396.3L417.3 473.3L452.8 486.3Z" fill="#8175b4" stroke="#adadad"></path><path d="M462.3 396.3L429 369L422.5 399Z" fill="#51272e" stroke="#adadad"></path><path d="M413.8 368.7L410.8 353L389.8 383.3Z" fill="#7986cd" stroke="#adadad"></path><path d="M318 358.7L295.8 347.7L298 369.3Z" fill="#51272e" stroke="#adadad"></path><path d="M266.3 348.7L221.5 409.7L277.3 423Z" fill="#805582" stroke="#adadad"></path><path d="M328.5 329.7L295.8 347.7L318 358.7Z" fill="#78476a" stroke="#adadad"></path><path d="M429 369L410.8 353L413.8 368.7Z" fill="#805582" stroke="#adadad"></path><path d="M441.5 575.7L435.5 559L426.8 557Z" fill="#7986cd" stroke="#adadad"></path><path d="M426.8 557L435.5 559L427.5 537.3Z" fill="#603140" stroke="#adadad"></path><path d="M209.8 410L219.8 440.7L227 433.3Z" fill="#4facf7" stroke="#adadad"></path><path d="M227 433.3L219.8 440.7L259.3 458.7Z" fill="#6e3b54" stroke="#adadad"></path><path d="M236 486.3L233.5 539L247.3 533.7Z" fill="#83649b" stroke="#adadad"></path><path d="M494.3 400.7L462.3 396.3L509 417.7Z" fill="#4facf7" stroke="#adadad"></path><path d="M405.8 299L397.8 333.3L410.8 353Z" fill="#603140" stroke="#adadad"></path><path d="M212.8 552.3L233.5 539L201.3 535.3Z" fill="#6999e3" stroke="#adadad"></path><path d="M247.3 533.7L222.3 604L301 573.7Z" fill="#6e3b54" stroke="#adadad"></path><path d="M410.8 353L387.3 334.3L377 376.3Z" fill="#4facf7" stroke="#adadad"></path><path d="M358 347.7L328.5 329.7L337.5 361Z" fill="#411f1f" stroke="#adadad"></path><path d="M361 292L328.5 329.7L358 347.7Z" fill="#411f1f" stroke="#adadad"></path><path d="M380 614L339.8 546L312.5 571Z" fill="#7986cd" stroke="#adadad"></path><path d="M266.3 348.7L277.3 423L298 369.3Z" fill="#4facf7" stroke="#adadad"></path><path d="M410.8 353L397.8 333.3L387.3 334.3Z" fill="#4facf7" stroke="#adadad"></path><path d="M361 292L314.5 305L328.5 329.7Z" fill="#4facf7" stroke="#adadad"></path><path d="M478.3 333.3L410.8 353L429 369Z" fill="#411f1f" stroke="#adadad"></path><path d="M257.8 330.3L266.3 348.7L295.8 347.7Z" fill="#83649b" stroke="#adadad"></path><path d="M295.8 347.7L266.3 348.7L298 369.3Z" fill="#411f1f" stroke="#adadad"></path><path d="M391 595.7L418.3 588.7L402 548Z" fill="#83649b" stroke="#adadad"></path><path d="M418.3 588.7L441.5 575.7L426.8 557Z" fill="#4facf7" stroke="#adadad"></path><path d="M435.5 559L473.8 551L443 526.3Z" fill="#603140" stroke="#adadad"></path><path d="M193.3 351L209.8 410L221.5 409.7Z" fill="#805582" stroke="#adadad"></path><path d="M221.5 409.7L209.8 410L227 433.3Z" fill="#411f1f" stroke="#adadad"></path><path d="M219.8 440.7L192.5 448.7L236 486.3Z" fill="#4facf7" stroke="#adadad"></path><path d="M473.8 551L491.3 505.3L458.8 513.7Z" fill="#6999e3" stroke="#adadad"></path><path d="M458.8 513.7L491.3 505.3L452.8 486.3Z" fill="#4facf7" stroke="#adadad"></path><path d="M348.8 628L380 614L312.5 571Z" fill="#6999e3" stroke="#adadad"></path><path d="M391 595.7L429.8 604.3L418.3 588.7Z" fill="#6999e3" stroke="#adadad"></path><path d="M418.3 588.7L429.8 604.3L441.5 575.7Z" fill="#51272e" stroke="#adadad"></path><path d="M441.5 575.7L473.8 551L435.5 559Z" fill="#6e3b54" stroke="#adadad"></path><path d="M209.8 410L192.5 448.7L219.8 440.7Z" fill="#83649b" stroke="#adadad"></path><path d="M509 417.7L462.3 396.3L452.8 486.3Z" fill="#4facf7" stroke="#adadad"></path><path d="M462.3 396.3L482.5 360.3L429 369Z" fill="#7986cd" stroke="#adadad"></path><path d="M201.3 535.3L233.5 539L236 486.3Z" fill="#7986cd" stroke="#adadad"></path><path d="M222.3 604L270.3 633.3L301 573.7Z" fill="#83649b" stroke="#adadad"></path><path d="M308 583L348.8 628L312.5 571Z" fill="#603140" stroke="#adadad"></path><path d="M380 614L429.8 604.3L391 595.7Z" fill="#51272e" stroke="#adadad"></path><path d="M441.5 575.7L468.8 615.7L473.8 551Z" fill="#7986cd" stroke="#adadad"></path><path d="M275.3 304.3L257.8 330.3L295.8 347.7Z" fill="#805582" stroke="#adadad"></path><path d="M266.3 348.7L234.5 348L221.5 409.7Z" fill="#83649b" stroke="#adadad"></path><path d="M192.5 448.7L201.3 535.3L236 486.3Z" fill="#411f1f" stroke="#adadad"></path><path d="M257.8 330.3L234.5 348L266.3 348.7Z" fill="#603140" stroke="#adadad"></path><path d="M209.8 410L172 416.7L192.5 448.7Z" fill="#6e3b54" stroke="#adadad"></path><path d="M287.8 654.3L348.8 628L308 583Z" fill="#603140" stroke="#adadad"></path><path d="M380 614L391.3 640.7L429.8 604.3Z" fill="#83649b" stroke="#adadad"></path><path d="M361 292L358 347.7L387.3 334.3Z" fill="#7986cd" stroke="#adadad"></path><path d="M328.5 329.7L314.5 305L295.8 347.7Z" fill="#6e3b54" stroke="#adadad"></path><path d="M348.8 628L354.5 630.3L380 614Z" fill="#83649b" stroke="#adadad"></path><path d="M521.5 482L513 481.7L491.3 505.3Z" fill="#78476a" stroke="#adadad"></path><path d="M491.3 505.3L513 481.7L452.8 486.3Z" fill="#51272e" stroke="#adadad"></path><path d="M354.5 630.3L366.5 631.7L380 614Z" fill="#805582" stroke="#adadad"></path><path d="M517.3 440L509 417.7L452.8 486.3Z" fill="#6e3b54" stroke="#adadad"></path><path d="M516.5 400.3L482.5 360.3L494.3 400.7Z" fill="#411f1f" stroke="#adadad"></path><path d="M494.3 400.7L482.5 360.3L462.3 396.3Z" fill="#4facf7" stroke="#adadad"></path><path d="M372.5 292.7L361 292L387.3 334.3Z" fill="#603140" stroke="#adadad"></path><path d="M513 481.7L517.3 440L452.8 486.3Z" fill="#8175b4" stroke="#adadad"></path><path d="M517.3 440L517.5 435.7L509 417.7Z" fill="#411f1f" stroke="#adadad"></path><path d="M509 417.7L516.5 400.3L494.3 400.7Z" fill="#6999e3" stroke="#adadad"></path><path d="M357.3 643L372 636.3L366.5 631.7Z" fill="#6999e3" stroke="#adadad"></path><path d="M366.5 631.7L372 636.3L380 614Z" fill="#7986cd" stroke="#adadad"></path><path d="M372.5 292.7L387.3 334.3L405.8 299Z" fill="#83649b" stroke="#adadad"></path><path d="M405.8 299L387.3 334.3L397.8 333.3Z" fill="#78476a" stroke="#adadad"></path><path d="M544.3 488L521.5 482L547.8 514Z" fill="#805582" stroke="#adadad"></path><path d="M513 481.7L521.5 482L517.3 440Z" fill="#8175b4" stroke="#adadad"></path><path d="M517.3 440L546 455L517.5 435.7Z" fill="#51272e" stroke="#adadad"></path><path d="M478.3 333.3L405.8 299L410.8 353Z" fill="#7986cd" stroke="#adadad"></path><path d="M270 289.7L275.3 304.3L299.8 278Z" fill="#8175b4" stroke="#adadad"></path><path d="M314.5 305L275.3 304.3L295.8 347.7Z" fill="#6e3b54" stroke="#adadad"></path><path d="M231.5 296.3L203.5 336L234.5 348Z" fill="#83649b" stroke="#adadad"></path><path d="M348.8 628L357.3 643L354.5 630.3Z" fill="#83649b" stroke="#adadad"></path><path d="M354.5 630.3L357.3 643L366.5 631.7Z" fill="#411f1f" stroke="#adadad"></path><path d="M287.8 654.3L357.3 643L348.8 628Z" fill="#4facf7" stroke="#adadad"></path><path d="M150 514.7L184 538.3L201.3 535.3Z" fill="#603140" stroke="#adadad"></path><path d="M201.3 535.3L184 538.3L212.8 552.3Z" fill="#6999e3" stroke="#adadad"></path><path d="M222.3 604L247.3 533.7L233.5 539Z" fill="#83649b" stroke="#adadad"></path><path d="M557.3 437.7L516.5 400.3L517.5 435.7Z" fill="#4facf7" stroke="#adadad"></path><path d="M517.5 435.7L516.5 400.3L509 417.7Z" fill="#6999e3" stroke="#adadad"></path><path d="M388.8 655.7L391.3 640.7L372 636.3Z" fill="#805582" stroke="#adadad"></path><path d="M372 636.3L391.3 640.7L380 614Z" fill="#51272e" stroke="#adadad"></path><path d="M193.3 351L172 416.7L209.8 410Z" fill="#4facf7" stroke="#adadad"></path><path d="M192.5 448.7L150 514.7L201.3 535.3Z" fill="#6999e3" stroke="#adadad"></path><path d="M372.5 292.7L354 281.7L361 292Z" fill="#7986cd" stroke="#adadad"></path><path d="M361 292L354 281.7L314.5 305Z" fill="#7986cd" stroke="#adadad"></path><path d="M389.3 269.7L354 281.7L372.5 292.7Z" fill="#6999e3" stroke="#adadad"></path><path d="M222.3 604L233.5 539L212.8 552.3Z" fill="#7986cd" stroke="#adadad"></path><path d="M535.8 337.3L478.3 333.3L482.5 360.3Z" fill="#4facf7" stroke="#adadad"></path><path d="M482.5 360.3L478.3 333.3L429 369Z" fill="#83649b" stroke="#adadad"></path><path d="M186.5 572.3L222.3 604L212.8 552.3Z" fill="#6e3b54" stroke="#adadad"></path><path d="M172 416.7L162 430L192.5 448.7Z" fill="#7986cd" stroke="#adadad"></path><path d="M252 635.3L274.3 639.7L270.3 633.3Z" fill="#78476a" stroke="#adadad"></path><path d="M270.3 633.3L274.3 639.7L308 583Z" fill="#603140" stroke="#adadad"></path><path d="M299.8 278L275.3 304.3L314.5 305Z" fill="#603140" stroke="#adadad"></path><path d="M275.3 304.3L231.5 296.3L257.8 330.3Z" fill="#8175b4" stroke="#adadad"></path><path d="M234.5 348L193.3 351L221.5 409.7Z" fill="#78476a" stroke="#adadad"></path><path d="M203.5 336L193.3 351L234.5 348Z" fill="#6999e3" stroke="#adadad"></path><path d="M145.3 399.7L139.8 441.3L162 430Z" fill="#4facf7" stroke="#adadad"></path><path d="M330.5 268.3L299.8 278L314.5 305Z" fill="#83649b" stroke="#adadad"></path><path d="M429.8 604.3L468.8 615.7L441.5 575.7Z" fill="#603140" stroke="#adadad"></path><path d="M545.3 521.7L521.5 482L491.3 505.3Z" fill="#4facf7" stroke="#adadad"></path><path d="M455.3 657.3L468.8 615.7L429.8 604.3Z" fill="#8175b4" stroke="#adadad"></path><path d="M231.5 296.3L234.5 348L257.8 330.3Z" fill="#7986cd" stroke="#adadad"></path><path d="M179.8 564L212.8 552.3L184 538.3Z" fill="#51272e" stroke="#adadad"></path><path d="M179.8 564L186.5 572.3L212.8 552.3Z" fill="#7986cd" stroke="#adadad"></path><path d="M479.5 314.7L416.3 283L405.8 299Z" fill="#805582" stroke="#adadad"></path><path d="M405.8 299L389.3 269.7L372.5 292.7Z" fill="#83649b" stroke="#adadad"></path><path d="M354 281.7L330.5 268.3L314.5 305Z" fill="#6e3b54" stroke="#adadad"></path><path d="M162.5 554.7L179.8 564L184 538.3Z" fill="#7986cd" stroke="#adadad"></path><path d="M370.3 666.3L388.8 655.7L372 636.3Z" fill="#8175b4" stroke="#adadad"></path><path d="M391.3 640.7L455.3 657.3L429.8 604.3Z" fill="#6e3b54" stroke="#adadad"></path><path d="M370.3 666.3L372 636.3L357.3 643Z" fill="#51272e" stroke="#adadad"></path><path d="M139 456.3L153.5 444.3L139.8 441.3Z" fill="#6999e3" stroke="#adadad"></path><path d="M162 430L153.5 444.3L192.5 448.7Z" fill="#78476a" stroke="#adadad"></path><path d="M222.3 604L252 635.3L270.3 633.3Z" fill="#51272e" stroke="#adadad"></path><path d="M228.5 622L252 635.3L222.3 604Z" fill="#83649b" stroke="#adadad"></path><path d="M353.8 235L337.8 268.7L354 281.7Z" fill="#4facf7" stroke="#adadad"></path><path d="M173 597L228.5 622L222.3 604Z" fill="#78476a" stroke="#adadad"></path><path d="M337.8 268.7L330.5 268.3L354 281.7Z" fill="#4facf7" stroke="#adadad"></path><path d="M545.3 521.7L491.3 505.3L473.8 551Z" fill="#83649b" stroke="#adadad"></path><path d="M521.5 482L546 455L517.3 440Z" fill="#6e3b54" stroke="#adadad"></path><path d="M544.3 488L546 455L521.5 482Z" fill="#6999e3" stroke="#adadad"></path><path d="M252 635.3L287.8 654.3L274.3 639.7Z" fill="#51272e" stroke="#adadad"></path><path d="M274.3 639.7L287.8 654.3L308 583Z" fill="#6e3b54" stroke="#adadad"></path><path d="M463.5 275.7L417.8 278.7L416.3 283Z" fill="#8175b4" stroke="#adadad"></path><path d="M416.3 283L389.3 269.7L405.8 299Z" fill="#8175b4" stroke="#adadad"></path><path d="M417.8 278.7L389.3 269.7L416.3 283Z" fill="#6999e3" stroke="#adadad"></path><path d="M337.8 268.7L353.8 235L330.5 268.3Z" fill="#7986cd" stroke="#adadad"></path><path d="M522 308.3L479.5 314.7L478.3 333.3Z" fill="#6999e3" stroke="#adadad"></path><path d="M478.3 333.3L479.5 314.7L405.8 299Z" fill="#805582" stroke="#adadad"></path><path d="M542 353L482.5 360.3L516.5 400.3Z" fill="#4facf7" stroke="#adadad"></path><path d="M332.8 692L370.3 666.3L357.3 643Z" fill="#51272e" stroke="#adadad"></path><path d="M388.8 655.7L422.5 675L391.3 640.7Z" fill="#411f1f" stroke="#adadad"></path><path d="M139 456.3L150 514.7L192.5 448.7Z" fill="#603140" stroke="#adadad"></path><path d="M240 261L231.5 296.3L270 289.7Z" fill="#83649b" stroke="#adadad"></path><path d="M270 289.7L231.5 296.3L275.3 304.3Z" fill="#8175b4" stroke="#adadad"></path><path d="M240 261L270 289.7L267.3 237.7Z" fill="#805582" stroke="#adadad"></path><path d="M555.5 550.3L545.3 521.7L473.8 551Z" fill="#6e3b54" stroke="#adadad"></path><path d="M563.5 451.7L557.3 437.7L546 455Z" fill="#603140" stroke="#adadad"></path><path d="M179.8 564L173 597L186.5 572.3Z" fill="#805582" stroke="#adadad"></path><path d="M186.5 572.3L173 597L222.3 604Z" fill="#805582" stroke="#adadad"></path><path d="M150 514.7L162.5 554.7L184 538.3Z" fill="#4facf7" stroke="#adadad"></path><path d="M545.3 521.7L547.8 514L521.5 482Z" fill="#411f1f" stroke="#adadad"></path><path d="M139.8 441.3L153.5 444.3L162 430Z" fill="#6e3b54" stroke="#adadad"></path><path d="M153.5 444.3L139 456.3L192.5 448.7Z" fill="#805582" stroke="#adadad"></path><path d="M145.3 399.7L162 430L172 416.7Z" fill="#78476a" stroke="#adadad"></path><path d="M203.5 336L188.8 326.3L193.3 351Z" fill="#83649b" stroke="#adadad"></path><path d="M193.3 351L145.3 399.7L172 416.7Z" fill="#6999e3" stroke="#adadad"></path><path d="M231.5 296.3L188.8 326.3L203.5 336Z" fill="#7986cd" stroke="#adadad"></path><path d="M563.5 451.7L546 455L544.3 488Z" fill="#7986cd" stroke="#adadad"></path><path d="M546 455L557.3 437.7L517.5 435.7Z" fill="#7986cd" stroke="#adadad"></path><path d="M149.3 347.3L145.3 399.7L193.3 351Z" fill="#51272e" stroke="#adadad"></path><path d="M609.8 482.7L563.5 451.7L544.3 488Z" fill="#4facf7" stroke="#adadad"></path><path d="M398.3 707L402 676.7L370.3 666.3Z" fill="#83649b" stroke="#adadad"></path><path d="M370.3 666.3L402 676.7L388.8 655.7Z" fill="#7986cd" stroke="#adadad"></path><path d="M112.5 489.3L138 528L150 514.7Z" fill="#8175b4" stroke="#adadad"></path><path d="M150 514.7L138 528L162.5 554.7Z" fill="#7986cd" stroke="#adadad"></path><path d="M121.8 568.7L173 597L162.5 554.7Z" fill="#78476a" stroke="#adadad"></path><path d="M162.5 554.7L173 597L179.8 564Z" fill="#411f1f" stroke="#adadad"></path><path d="M228.5 622L222.3 675L252 635.3Z" fill="#4facf7" stroke="#adadad"></path><path d="M301.5 731.3L326.8 690.7L286 734Z" fill="#805582" stroke="#adadad"></path><path d="M422.5 675L455.3 657.3L391.3 640.7Z" fill="#51272e" stroke="#adadad"></path><path d="M468.8 615.7L499.3 625L473.8 551Z" fill="#51272e" stroke="#adadad"></path><path d="M488.5 651.3L499.3 625L468.8 615.7Z" fill="#8175b4" stroke="#adadad"></path><path d="M488.5 262L463.5 275.7L479.5 314.7Z" fill="#51272e" stroke="#adadad"></path><path d="M479.5 314.7L463.5 275.7L416.3 283Z" fill="#603140" stroke="#adadad"></path><path d="M373.3 236L354 281.7L389.3 269.7Z" fill="#411f1f" stroke="#adadad"></path><path d="M138 528L141.8 550L162.5 554.7Z" fill="#4facf7" stroke="#adadad"></path><path d="M402 676.7L422.5 675L388.8 655.7Z" fill="#8175b4" stroke="#adadad"></path><path d="M582 382.3L516.5 400.3L557.3 437.7Z" fill="#805582" stroke="#adadad"></path><path d="M582 382.3L542 353L516.5 400.3Z" fill="#6999e3" stroke="#adadad"></path><path d="M545 615.7L555.5 550.3L473.8 551Z" fill="#805582" stroke="#adadad"></path><path d="M545.3 521.7L568 523.3L547.8 514Z" fill="#603140" stroke="#adadad"></path><path d="M547.8 514L568 523.3L544.3 488Z" fill="#603140" stroke="#adadad"></path><path d="M222.3 675L287.8 654.3L252 635.3Z" fill="#51272e" stroke="#adadad"></path><path d="M287.8 654.3L326.8 690.7L357.3 643Z" fill="#4facf7" stroke="#adadad"></path><path d="M398.3 707L427.8 678L422.5 675Z" fill="#78476a" stroke="#adadad"></path><path d="M542 353L535.8 337.3L482.5 360.3Z" fill="#805582" stroke="#adadad"></path><path d="M326.8 690.7L332.8 692L357.3 643Z" fill="#603140" stroke="#adadad"></path><path d="M398.3 707L422.5 675L402 676.7Z" fill="#805582" stroke="#adadad"></path><path d="M422.5 675L427.8 678L455.3 657.3Z" fill="#805582" stroke="#adadad"></path><path d="M455.3 657.3L488.5 651.3L468.8 615.7Z" fill="#411f1f" stroke="#adadad"></path><path d="M567.5 540.7L568 523.3L545.3 521.7Z" fill="#411f1f" stroke="#adadad"></path><path d="M179.5 294.7L176 312.3L188.8 326.3Z" fill="#805582" stroke="#adadad"></path><path d="M188.8 326.3L149.3 347.3L193.3 351Z" fill="#805582" stroke="#adadad"></path><path d="M373.3 236L389.3 269.7L395 239.3Z" fill="#51272e" stroke="#adadad"></path><path d="M373.3 236L353.8 235L354 281.7Z" fill="#8175b4" stroke="#adadad"></path><path d="M311.8 219.3L267.3 237.7L299.8 278Z" fill="#8175b4" stroke="#adadad"></path><path d="M231.5 296.3L179.5 294.7L188.8 326.3Z" fill="#7986cd" stroke="#adadad"></path><path d="M395 239.3L389.3 269.7L417.8 278.7Z" fill="#6999e3" stroke="#adadad"></path><path d="M455.3 226.7L395 239.3L417.8 278.7Z" fill="#805582" stroke="#adadad"></path><path d="M267.3 237.7L270 289.7L299.8 278Z" fill="#6999e3" stroke="#adadad"></path><path d="M176 312.3L149.3 347.3L188.8 326.3Z" fill="#805582" stroke="#adadad"></path><path d="M145.3 399.7L125.8 399.7L139.8 441.3Z" fill="#6999e3" stroke="#adadad"></path><path d="M118.5 378.3L125.8 399.7L145.3 399.7Z" fill="#8175b4" stroke="#adadad"></path><path d="M139.8 441.3L115.5 449.3L139 456.3Z" fill="#83649b" stroke="#adadad"></path><path d="M139 456.3L112.5 489.3L150 514.7Z" fill="#8175b4" stroke="#adadad"></path><path d="M588.8 555.7L567.5 540.7L555.5 550.3Z" fill="#83649b" stroke="#adadad"></path><path d="M555.5 550.3L567.5 540.7L545.3 521.7Z" fill="#7986cd" stroke="#adadad"></path><path d="M99.3 419.7L115.5 449.3L139.8 441.3Z" fill="#603140" stroke="#adadad"></path><path d="M138 528L121.8 568.7L141.8 550Z" fill="#603140" stroke="#adadad"></path><path d="M473.3 682.7L488.5 651.3L455.3 657.3Z" fill="#603140" stroke="#adadad"></path><path d="M499.3 625L545 615.7L473.8 551Z" fill="#4facf7" stroke="#adadad"></path><path d="M535.8 337.3L522 308.3L478.3 333.3Z" fill="#6999e3" stroke="#adadad"></path><path d="M115.5 449.3L112.5 489.3L139 456.3Z" fill="#6e3b54" stroke="#adadad"></path><path d="M177.8 257L179.5 294.7L231.5 296.3Z" fill="#603140" stroke="#adadad"></path><path d="M176 312.3L134.3 316.7L149.3 347.3Z" fill="#78476a" stroke="#adadad"></path><path d="M311.8 219.3L299.8 278L330.5 268.3Z" fill="#7986cd" stroke="#adadad"></path><path d="M240 261L177.8 257L231.5 296.3Z" fill="#6999e3" stroke="#adadad"></path><path d="M203.5 671L228.5 622L163.5 641.3Z" fill="#805582" stroke="#adadad"></path><path d="M203.5 671L222.3 675L228.5 622Z" fill="#83649b" stroke="#adadad"></path><path d="M326.8 690.7L301.5 731.3L332.8 692Z" fill="#8175b4" stroke="#adadad"></path><path d="M149.3 347.3L118.5 378.3L145.3 399.7Z" fill="#78476a" stroke="#adadad"></path><path d="M125.8 399.7L99.3 419.7L139.8 441.3Z" fill="#8175b4" stroke="#adadad"></path><path d="M115.5 449.3L96.3 478L112.5 489.3Z" fill="#51272e" stroke="#adadad"></path><path d="M101 344.7L118.5 378.3L149.3 347.3Z" fill="#78476a" stroke="#adadad"></path><path d="M522 308.3L488.5 262L479.5 314.7Z" fill="#7986cd" stroke="#adadad"></path><path d="M463.5 275.7L455.3 226.7L417.8 278.7Z" fill="#51272e" stroke="#adadad"></path><path d="M332.8 692L398.3 707L370.3 666.3Z" fill="#6e3b54" stroke="#adadad"></path><path d="M427.8 678L473.3 682.7L455.3 657.3Z" fill="#411f1f" stroke="#adadad"></path><path d="M385 734L398.3 707L332.8 692Z" fill="#6e3b54" stroke="#adadad"></path><path d="M535 636.3L545 615.7L499.3 625Z" fill="#6e3b54" stroke="#adadad"></path><path d="M342.5 198L311.8 219.3L353.8 235Z" fill="#6999e3" stroke="#adadad"></path><path d="M353.8 235L311.8 219.3L330.5 268.3Z" fill="#7986cd" stroke="#adadad"></path><path d="M342.5 198L353.8 235L373.3 236Z" fill="#51272e" stroke="#adadad"></path><path d="M598.8 385.3L582 382.3L557.3 437.7Z" fill="#411f1f" stroke="#adadad"></path><path d="M542 353L574.8 323.7L535.8 337.3Z" fill="#7986cd" stroke="#adadad"></path><path d="M535.8 337.3L574.8 323.7L522 308.3Z" fill="#78476a" stroke="#adadad"></path><path d="M522 308.3L523.3 255L488.5 262Z" fill="#6e3b54" stroke="#adadad"></path><path d="M598.8 385.3L557.3 437.7L622.5 416.3Z" fill="#6e3b54" stroke="#adadad"></path><path d="M609.8 482.7L544.3 488L568 523.3Z" fill="#7986cd" stroke="#adadad"></path><path d="M78.3 558.7L121.8 568.7L138 528Z" fill="#8175b4" stroke="#adadad"></path><path d="M141.8 550L121.8 568.7L162.5 554.7Z" fill="#51272e" stroke="#adadad"></path><path d="M474.3 722.7L473.3 682.7L427.8 678Z" fill="#51272e" stroke="#adadad"></path><path d="M522.3 651L535 636.3L499.3 625Z" fill="#411f1f" stroke="#adadad"></path><path d="M163.5 641.3L228.5 622L173 597Z" fill="#8175b4" stroke="#adadad"></path><path d="M91.5 473L96.3 478L115.5 449.3Z" fill="#6999e3" stroke="#adadad"></path><path d="M112.5 489.3L96.3 498.3L138 528Z" fill="#78476a" stroke="#adadad"></path><path d="M89.3 412.3L99.3 419.7L125.8 399.7Z" fill="#51272e" stroke="#adadad"></path><path d="M96.3 478L96.3 498.3L112.5 489.3Z" fill="#83649b" stroke="#adadad"></path><path d="M522.3 651L499.3 625L488.5 651.3Z" fill="#7986cd" stroke="#adadad"></path><path d="M144.3 625L163.5 641.3L173 597Z" fill="#83649b" stroke="#adadad"></path><path d="M519.5 691.7L522.3 651L488.5 651.3Z" fill="#78476a" stroke="#adadad"></path><path d="M84.8 461L91.5 473L115.5 449.3Z" fill="#83649b" stroke="#adadad"></path><path d="M96.3 478L91.5 473L96.3 498.3Z" fill="#8175b4" stroke="#adadad"></path><path d="M580 578.7L588.8 555.7L555.5 550.3Z" fill="#51272e" stroke="#adadad"></path><path d="M567.5 540.7L607.5 545L568 523.3Z" fill="#7986cd" stroke="#adadad"></path><path d="M580 578.7L555.5 550.3L545 615.7Z" fill="#78476a" stroke="#adadad"></path><path d="M189.5 690.3L227 693.7L203.5 671Z" fill="#51272e" stroke="#adadad"></path><path d="M203.5 671L227 693.7L222.3 675Z" fill="#83649b" stroke="#adadad"></path><path d="M222.3 675L238.3 702.3L287.8 654.3Z" fill="#8175b4" stroke="#adadad"></path><path d="M555 625L580 578.7L545 615.7Z" fill="#78476a" stroke="#adadad"></path><path d="M121.8 568.7L144.3 625L173 597Z" fill="#603140" stroke="#adadad"></path><path d="M124 293.7L134.3 316.7L179.5 294.7Z" fill="#7986cd" stroke="#adadad"></path><path d="M179.5 294.7L134.3 316.7L176 312.3Z" fill="#83649b" stroke="#adadad"></path><path d="M118.5 378.3L89.3 412.3L125.8 399.7Z" fill="#4facf7" stroke="#adadad"></path><path d="M240.3 167L228.5 233.3L267.3 237.7Z" fill="#805582" stroke="#adadad"></path><path d="M267.3 237.7L228.5 233.3L240 261Z" fill="#8175b4" stroke="#adadad"></path><path d="M227 693.7L238.3 702.3L222.3 675Z" fill="#4facf7" stroke="#adadad"></path><path d="M461.8 228.3L455.3 226.7L463.5 275.7Z" fill="#411f1f" stroke="#adadad"></path><path d="M361.3 184.3L342.5 198L373.3 236Z" fill="#83649b" stroke="#adadad"></path><path d="M576 686L555 625L535 636.3Z" fill="#8175b4" stroke="#adadad"></path><path d="M535 636.3L555 625L545 615.7Z" fill="#6999e3" stroke="#adadad"></path><path d="M607.5 545L609.8 482.7L568 523.3Z" fill="#6999e3" stroke="#adadad"></path><path d="M488.5 262L461.8 228.3L463.5 275.7Z" fill="#83649b" stroke="#adadad"></path><path d="M89.3 412.3L84.8 461L99.3 419.7Z" fill="#411f1f" stroke="#adadad"></path><path d="M99.3 419.7L84.8 461L115.5 449.3Z" fill="#411f1f" stroke="#adadad"></path><path d="M46.8 532.7L68.5 542.7L96.3 498.3Z" fill="#7986cd" stroke="#adadad"></path><path d="M620.8 436L557.3 437.7L563.5 451.7Z" fill="#8175b4" stroke="#adadad"></path><path d="M582 382.3L574.8 323.7L542 353Z" fill="#603140" stroke="#adadad"></path><path d="M488.5 262L490 206L461.8 228.3Z" fill="#603140" stroke="#adadad"></path><path d="M77.8 397.3L89.3 412.3L118.5 378.3Z" fill="#4facf7" stroke="#adadad"></path><path d="M580 578.7L596.8 559.3L588.8 555.7Z" fill="#78476a" stroke="#adadad"></path><path d="M588.8 555.7L607.5 545L567.5 540.7Z" fill="#7986cd" stroke="#adadad"></path><path d="M607.5 582.3L596.8 559.3L580 578.7Z" fill="#4facf7" stroke="#adadad"></path><path d="M461.8 228.3L447.5 218L455.3 226.7Z" fill="#83649b" stroke="#adadad"></path><path d="M455.3 226.7L447.5 218L395 239.3Z" fill="#51272e" stroke="#adadad"></path><path d="M361.3 184.3L373.3 236L395 239.3Z" fill="#6999e3" stroke="#adadad"></path><path d="M311.8 219.3L299 182.3L267.3 237.7Z" fill="#51272e" stroke="#adadad"></path><path d="M608.3 335L574.8 323.7L582 382.3Z" fill="#8175b4" stroke="#adadad"></path><path d="M447.5 218L429.5 209.3L395 239.3Z" fill="#51272e" stroke="#adadad"></path><path d="M228.5 233.3L177.8 257L240 261Z" fill="#51272e" stroke="#adadad"></path><path d="M286 734L326.8 690.7L287.8 654.3Z" fill="#83649b" stroke="#adadad"></path><path d="M340.3 759.7L385 734L332.8 692Z" fill="#83649b" stroke="#adadad"></path><path d="M419 749.3L474.3 722.7L427.8 678Z" fill="#603140" stroke="#adadad"></path><path d="M607.5 582.3L607.5 545L596.8 559.3Z" fill="#805582" stroke="#adadad"></path><path d="M596.8 559.3L607.5 545L588.8 555.7Z" fill="#6e3b54" stroke="#adadad"></path><path d="M559.8 281L523.3 255L522 308.3Z" fill="#8175b4" stroke="#adadad"></path><path d="M461.8 228.3L490 206L447.5 218Z" fill="#51272e" stroke="#adadad"></path><path d="M96.5 340L101 344.7L134.3 316.7Z" fill="#78476a" stroke="#adadad"></path><path d="M134.3 316.7L101 344.7L149.3 347.3Z" fill="#603140" stroke="#adadad"></path><path d="M626.3 467L620.8 436L609.8 482.7Z" fill="#603140" stroke="#adadad"></path><path d="M609.8 482.7L620.8 436L563.5 451.7Z" fill="#805582" stroke="#adadad"></path><path d="M596.5 306L578.5 306.7L574.8 323.7Z" fill="#411f1f" stroke="#adadad"></path><path d="M158.5 696.7L189.5 690.3L163.5 641.3Z" fill="#78476a" stroke="#adadad"></path><path d="M163.5 641.3L189.5 690.3L203.5 671Z" fill="#805582" stroke="#adadad"></path><path d="M227 693.7L229 729.3L238.3 702.3Z" fill="#8175b4" stroke="#adadad"></path><path d="M238.3 702.3L286 734L287.8 654.3Z" fill="#603140" stroke="#adadad"></path><path d="M244 747.7L286 734L238.3 702.3Z" fill="#411f1f" stroke="#adadad"></path><path d="M340.3 759.7L399.8 751L385 734Z" fill="#51272e" stroke="#adadad"></path><path d="M294.5 771.7L291.5 737L286 734Z" fill="#78476a" stroke="#adadad"></path><path d="M286 734L291.5 737L301.5 731.3Z" fill="#78476a" stroke="#adadad"></path><path d="M83.8 361L77.8 397.3L118.5 378.3Z" fill="#6e3b54" stroke="#adadad"></path><path d="M89.3 412.3L71.5 398L84.8 461Z" fill="#411f1f" stroke="#adadad"></path><path d="M675 462.3L626.3 467L680.3 474.7Z" fill="#6e3b54" stroke="#adadad"></path><path d="M121.8 568.7L115 618.7L144.3 625Z" fill="#51272e" stroke="#adadad"></path><path d="M144.3 625L122.8 653.7L163.5 641.3Z" fill="#805582" stroke="#adadad"></path><path d="M71.3 602.3L115 618.7L121.8 568.7Z" fill="#51272e" stroke="#adadad"></path><path d="M78.3 558.7L138 528L96.3 498.3Z" fill="#4facf7" stroke="#adadad"></path><path d="M635.3 385.3L622.5 416.3L650.5 413Z" fill="#6999e3" stroke="#adadad"></path><path d="M620.8 436L622.5 416.3L557.3 437.7Z" fill="#6999e3" stroke="#adadad"></path><path d="M574.8 323.7L578.5 306.7L522 308.3Z" fill="#7986cd" stroke="#adadad"></path><path d="M608.3 335L582 382.3L598.8 385.3Z" fill="#6999e3" stroke="#adadad"></path><path d="M83.8 309L96.5 340L134.3 316.7Z" fill="#411f1f" stroke="#adadad"></path><path d="M101 344.7L83.8 361L118.5 378.3Z" fill="#411f1f" stroke="#adadad"></path><path d="M578.5 306.7L559.8 281L522 308.3Z" fill="#6999e3" stroke="#adadad"></path><path d="M429.5 209.3L361.3 184.3L395 239.3Z" fill="#78476a" stroke="#adadad"></path><path d="M342.5 198L299 182.3L311.8 219.3Z" fill="#83649b" stroke="#adadad"></path><path d="M123 273L124 293.7L136 258.3Z" fill="#6999e3" stroke="#adadad"></path><path d="M96.5 340L83.8 361L101 344.7Z" fill="#8175b4" stroke="#adadad"></path><path d="M62.8 393.7L83.8 361L77.5 338.7Z" fill="#4facf7" stroke="#adadad"></path><path d="M70.3 393L71.5 398L77.8 397.3Z" fill="#411f1f" stroke="#adadad"></path><path d="M77.8 397.3L71.5 398L89.3 412.3Z" fill="#603140" stroke="#adadad"></path><path d="M68.5 542.7L78.3 558.7L96.3 498.3Z" fill="#51272e" stroke="#adadad"></path><path d="M474.3 722.7L519.5 691.7L473.3 682.7Z" fill="#78476a" stroke="#adadad"></path><path d="M473.3 682.7L519.5 691.7L488.5 651.3Z" fill="#8175b4" stroke="#adadad"></path><path d="M522.3 651L576 686L535 636.3Z" fill="#411f1f" stroke="#adadad"></path><path d="M612.5 593L607.5 582.3L580 578.7Z" fill="#411f1f" stroke="#adadad"></path><path d="M611.3 584.3L607.5 582.3L612.5 593Z" fill="#4facf7" stroke="#adadad"></path><path d="M675 501.3L626.3 467L609.8 482.7Z" fill="#78476a" stroke="#adadad"></path><path d="M96.3 498.3L91.5 473L42.5 496.7Z" fill="#78476a" stroke="#adadad"></path><path d="M83.8 361L70.3 393L77.8 397.3Z" fill="#6e3b54" stroke="#adadad"></path><path d="M42.5 496.7L91.5 473L84.8 461Z" fill="#8175b4" stroke="#adadad"></path><path d="M323.3 161.7L299 182.3L342.5 198Z" fill="#603140" stroke="#adadad"></path><path d="M228.5 233.3L196.3 220.3L177.8 257Z" fill="#6e3b54" stroke="#adadad"></path><path d="M419 749.3L427.8 678L398.3 707Z" fill="#411f1f" stroke="#adadad"></path><path d="M183.8 194L196.3 220.3L211.5 166.7Z" fill="#603140" stroke="#adadad"></path><path d="M136 258.3L124 293.7L179.5 294.7Z" fill="#78476a" stroke="#adadad"></path><path d="M612.5 593L580 578.7L608.8 611.3Z" fill="#6e3b54" stroke="#adadad"></path><path d="M607.5 582.3L611.3 584.3L607.5 545Z" fill="#603140" stroke="#adadad"></path><path d="M216.8 746.3L229 729.3L189.5 690.3Z" fill="#8175b4" stroke="#adadad"></path><path d="M189.5 690.3L229 729.3L227 693.7Z" fill="#411f1f" stroke="#adadad"></path><path d="M62.8 393.7L84.8 461L71.5 398Z" fill="#51272e" stroke="#adadad"></path><path d="M340.3 759.7L332.8 692L301.5 731.3Z" fill="#8175b4" stroke="#adadad"></path><path d="M385 734L419 749.3L398.3 707Z" fill="#6e3b54" stroke="#adadad"></path><path d="M340.3 759.7L301.5 731.3L294.5 771.7Z" fill="#78476a" stroke="#adadad"></path><path d="M642.5 350.7L608.3 335L598.8 385.3Z" fill="#83649b" stroke="#adadad"></path><path d="M578.5 306.7L567 266L559.8 281Z" fill="#6999e3" stroke="#adadad"></path><path d="M399.8 751L419 749.3L385 734Z" fill="#7986cd" stroke="#adadad"></path><path d="M100 657.3L122.8 653.7L115 618.7Z" fill="#8175b4" stroke="#adadad"></path><path d="M115 618.7L122.8 653.7L144.3 625Z" fill="#603140" stroke="#adadad"></path><path d="M71.3 602.3L121.8 568.7L78.3 558.7Z" fill="#411f1f" stroke="#adadad"></path><path d="M83.8 361L62.8 393.7L70.3 393Z" fill="#78476a" stroke="#adadad"></path><path d="M70.3 393L62.8 393.7L71.5 398Z" fill="#603140" stroke="#adadad"></path><path d="M77.5 338.7L83.8 361L96.5 340Z" fill="#6e3b54" stroke="#adadad"></path><path d="M608.8 611.3L580 578.7L555 625Z" fill="#8175b4" stroke="#adadad"></path><path d="M675 501.3L609.8 482.7L675 514.7Z" fill="#603140" stroke="#adadad"></path><path d="M294.5 771.7L301.5 731.3L291.5 737Z" fill="#7986cd" stroke="#adadad"></path><path d="M436.5 763.3L436 756L419 749.3Z" fill="#83649b" stroke="#adadad"></path><path d="M605.5 312.3L596.5 306L574.8 323.7Z" fill="#603140" stroke="#adadad"></path><path d="M519 220.7L488.5 262L523.3 255Z" fill="#83649b" stroke="#adadad"></path><path d="M122.8 653.7L130.8 665.3L163.5 641.3Z" fill="#83649b" stroke="#adadad"></path><path d="M519 220.7L490 206L488.5 262Z" fill="#411f1f" stroke="#adadad"></path><path d="M447.5 218L465.8 181.7L429.5 209.3Z" fill="#411f1f" stroke="#adadad"></path><path d="M429.5 209.3L367.5 160.7L361.3 184.3Z" fill="#6999e3" stroke="#adadad"></path><path d="M558 250.3L523.3 255L559.8 281Z" fill="#4facf7" stroke="#adadad"></path><path d="M136 258.3L179.5 294.7L177.8 257Z" fill="#6e3b54" stroke="#adadad"></path><path d="M83.8 309L77.5 338.7L96.5 340Z" fill="#6e3b54" stroke="#adadad"></path><path d="M146.8 230.3L136 258.3L177.8 257Z" fill="#7986cd" stroke="#adadad"></path><path d="M596.5 306L567 266L578.5 306.7Z" fill="#411f1f" stroke="#adadad"></path><path d="M83.8 309L134.3 316.7L124 293.7Z" fill="#8175b4" stroke="#adadad"></path><path d="M650.5 413L622.5 416.3L620.8 436Z" fill="#7986cd" stroke="#adadad"></path><path d="M622.5 416.3L635.3 385.3L598.8 385.3Z" fill="#51272e" stroke="#adadad"></path><path d="M608.3 335L605.5 312.3L574.8 323.7Z" fill="#78476a" stroke="#adadad"></path><path d="M650.5 413L620.8 436L675 427Z" fill="#51272e" stroke="#adadad"></path><path d="M538.8 216.7L519 220.7L523.3 255Z" fill="#51272e" stroke="#adadad"></path><path d="M136 258.3L127.8 262.7L123 273Z" fill="#7986cd" stroke="#adadad"></path><path d="M123 273L83.8 309L124 293.7Z" fill="#805582" stroke="#adadad"></path><path d="M100.3 244.3L127.8 262.7L136 258.3Z" fill="#603140" stroke="#adadad"></path><path d="M130.8 665.3L158.5 696.7L163.5 641.3Z" fill="#6e3b54" stroke="#adadad"></path><path d="M605.8 631.7L608.8 611.3L555 625Z" fill="#411f1f" stroke="#adadad"></path><path d="M650.3 338.7L605.5 312.3L608.3 335Z" fill="#83649b" stroke="#adadad"></path><path d="M596.5 306L611.8 277.7L567 266Z" fill="#4facf7" stroke="#adadad"></path><path d="M615.3 258.7L558 250.3L567 266Z" fill="#7986cd" stroke="#adadad"></path><path d="M567 266L558 250.3L559.8 281Z" fill="#4facf7" stroke="#adadad"></path><path d="M216.8 746.3L244 747.7L229 729.3Z" fill="#78476a" stroke="#adadad"></path><path d="M229 729.3L244 747.7L238.3 702.3Z" fill="#8175b4" stroke="#adadad"></path><path d="M130.8 665.3L131.3 678L158.5 696.7Z" fill="#83649b" stroke="#adadad"></path><path d="M113.5 677.7L131.3 678L130.8 665.3Z" fill="#4facf7" stroke="#adadad"></path><path d="M113.5 677.7L130.8 665.3L122.8 653.7Z" fill="#4facf7" stroke="#adadad"></path><path d="M436.5 763.3L419 749.3L413.3 780.3Z" fill="#78476a" stroke="#adadad"></path><path d="M419 749.3L436 756L474.3 722.7Z" fill="#603140" stroke="#adadad"></path><path d="M549.8 711.3L576 686L519.5 691.7Z" fill="#83649b" stroke="#adadad"></path><path d="M361.3 184.3L323.3 161.7L342.5 198Z" fill="#603140" stroke="#adadad"></path><path d="M211.5 166.7L196.3 220.3L228.5 233.3Z" fill="#603140" stroke="#adadad"></path><path d="M367.5 160.7L323.3 161.7L361.3 184.3Z" fill="#8175b4" stroke="#adadad"></path><path d="M429 151L367.5 160.7L429.5 209.3Z" fill="#51272e" stroke="#adadad"></path><path d="M55.3 315L83.8 309L79.5 250.7Z" fill="#603140" stroke="#adadad"></path><path d="M77.5 338.7L0 348.3L62.8 393.7Z" fill="#83649b" stroke="#adadad"></path><path d="M0 464.3L42.5 496.7L84.8 461Z" fill="#83649b" stroke="#adadad"></path><path d="M68.5 542.7L46.8 532.7L78.3 558.7Z" fill="#7986cd" stroke="#adadad"></path><path d="M473.8 178L465.8 181.7L490 206Z" fill="#8175b4" stroke="#adadad"></path><path d="M490 206L465.8 181.7L447.5 218Z" fill="#8175b4" stroke="#adadad"></path><path d="M534.3 200.3L495.3 195.7L519 220.7Z" fill="#51272e" stroke="#adadad"></path><path d="M519 220.7L495.3 195.7L490 206Z" fill="#78476a" stroke="#adadad"></path><path d="M594.8 674L605.8 631.7L555 625Z" fill="#805582" stroke="#adadad"></path><path d="M608.8 611.3L616.8 622L612.5 593Z" fill="#411f1f" stroke="#adadad"></path><path d="M576 686L522.3 651L519.5 691.7Z" fill="#805582" stroke="#adadad"></path><path d="M675 462.3L620.8 436L626.3 467Z" fill="#6999e3" stroke="#adadad"></path><path d="M635.3 385.3L642.5 350.7L598.8 385.3Z" fill="#83649b" stroke="#adadad"></path><path d="M607.5 545L675 514.7L609.8 482.7Z" fill="#78476a" stroke="#adadad"></path><path d="M141.8 717.7L165 713L158.5 696.7Z" fill="#51272e" stroke="#adadad"></path><path d="M158.5 696.7L165 713L189.5 690.3Z" fill="#51272e" stroke="#adadad"></path><path d="M42.5 496.7L46.8 532.7L96.3 498.3Z" fill="#6999e3" stroke="#adadad"></path><path d="M60.5 609L71.3 602.3L78.3 558.7Z" fill="#83649b" stroke="#adadad"></path><path d="M183.8 194L146.8 230.3L196.3 220.3Z" fill="#6e3b54" stroke="#adadad"></path><path d="M196.3 220.3L146.8 230.3L177.8 257Z" fill="#805582" stroke="#adadad"></path><path d="M79.5 250.7L83.8 309L123 273Z" fill="#805582" stroke="#adadad"></path><path d="M473.8 178L467.3 179.3L465.8 181.7Z" fill="#83649b" stroke="#adadad"></path><path d="M465.8 181.7L458.8 170.3L429.5 209.3Z" fill="#83649b" stroke="#adadad"></path><path d="M165 713L216.8 746.3L189.5 690.3Z" fill="#78476a" stroke="#adadad"></path><path d="M244 747.7L294.5 771.7L286 734Z" fill="#603140" stroke="#adadad"></path><path d="M300.8 781.3L294.5 771.7L292 780Z" fill="#7986cd" stroke="#adadad"></path><path d="M413.3 780.3L419 749.3L399.8 751Z" fill="#603140" stroke="#adadad"></path><path d="M413.3 780.3L399.8 751L389 790.7Z" fill="#78476a" stroke="#adadad"></path><path d="M459.8 771.3L482.5 760.7L474.3 722.7Z" fill="#411f1f" stroke="#adadad"></path><path d="M605.8 631.7L616.8 622L608.8 611.3Z" fill="#51272e" stroke="#adadad"></path><path d="M558 250.3L538.8 216.7L523.3 255Z" fill="#8175b4" stroke="#adadad"></path><path d="M495.3 195.7L473.8 178L490 206Z" fill="#78476a" stroke="#adadad"></path><path d="M579.5 196L538.8 216.7L558 250.3Z" fill="#6e3b54" stroke="#adadad"></path><path d="M461.5 163.3L473.8 178L477.3 165Z" fill="#4facf7" stroke="#adadad"></path><path d="M467.3 179.3L458.8 170.3L465.8 181.7Z" fill="#7986cd" stroke="#adadad"></path><path d="M70.5 626.3L100 657.3L115 618.7Z" fill="#6999e3" stroke="#adadad"></path><path d="M131.3 678L141.8 717.7L158.5 696.7Z" fill="#8175b4" stroke="#adadad"></path><path d="M461.5 163.3L458.8 170.3L467.3 179.3Z" fill="#411f1f" stroke="#adadad"></path><path d="M675 377.7L642.5 350.7L635.3 385.3Z" fill="#8175b4" stroke="#adadad"></path><path d="M605.5 312.3L611.8 277.7L596.5 306Z" fill="#805582" stroke="#adadad"></path><path d="M100 657.3L113.5 677.7L122.8 653.7Z" fill="#6999e3" stroke="#adadad"></path><path d="M240.3 167L267.3 237.7L299 182.3Z" fill="#7986cd" stroke="#adadad"></path><path d="M241 161L240.3 167L284.3 145.3Z" fill="#6e3b54" stroke="#adadad"></path><path d="M429 151L370 148.7L367.5 160.7Z" fill="#51272e" stroke="#adadad"></path><path d="M367.5 160.7L370 148.7L323.3 161.7Z" fill="#6999e3" stroke="#adadad"></path><path d="M323.3 161.7L297 142.7L299 182.3Z" fill="#78476a" stroke="#adadad"></path><path d="M549.8 711.3L519.5 691.7L544.8 732.7Z" fill="#51272e" stroke="#adadad"></path><path d="M605.8 631.7L622.3 646.3L616.8 622Z" fill="#4facf7" stroke="#adadad"></path><path d="M544.8 732.7L519.5 691.7L474.3 722.7Z" fill="#7986cd" stroke="#adadad"></path><path d="M292 780L294.5 771.7L244 747.7Z" fill="#51272e" stroke="#adadad"></path><path d="M294.5 771.7L300.8 781.3L340.3 759.7Z" fill="#78476a" stroke="#adadad"></path><path d="M256.8 802.7L292 780L244 747.7Z" fill="#4facf7" stroke="#adadad"></path><path d="M370 148.7L317.8 146.3L323.3 161.7Z" fill="#7986cd" stroke="#adadad"></path><path d="M71.3 602.3L70.5 626.3L115 618.7Z" fill="#805582" stroke="#adadad"></path><path d="M100 657.3L68.8 688.3L113.5 677.7Z" fill="#51272e" stroke="#adadad"></path><path d="M60.5 609L70.5 626.3L71.3 602.3Z" fill="#8175b4" stroke="#adadad"></path><path d="M46.8 532.7L60.5 609L78.3 558.7Z" fill="#83649b" stroke="#adadad"></path><path d="M389 790.7L399.8 751L340.3 759.7Z" fill="#805582" stroke="#adadad"></path><path d="M459.8 771.3L474.3 722.7L436 756Z" fill="#78476a" stroke="#adadad"></path><path d="M284.3 145.3L240.3 167L299 182.3Z" fill="#83649b" stroke="#adadad"></path><path d="M240.3 167L211.5 166.7L228.5 233.3Z" fill="#4facf7" stroke="#adadad"></path><path d="M473.8 178L461.5 163.3L467.3 179.3Z" fill="#8175b4" stroke="#adadad"></path><path d="M458.8 170.3L429 151L429.5 209.3Z" fill="#7986cd" stroke="#adadad"></path><path d="M477.3 165L473.8 178L502.5 168.7Z" fill="#805582" stroke="#adadad"></path><path d="M604.5 669.7L633.3 703.3L640.3 672Z" fill="#78476a" stroke="#adadad"></path><path d="M576 686L594.8 674L555 625Z" fill="#4facf7" stroke="#adadad"></path><path d="M675 302.3L611.8 277.7L605.5 312.3Z" fill="#6e3b54" stroke="#adadad"></path><path d="M579.5 196L534.3 200.3L538.8 216.7Z" fill="#8175b4" stroke="#adadad"></path><path d="M538.8 216.7L534.3 200.3L519 220.7Z" fill="#83649b" stroke="#adadad"></path><path d="M461.5 163.3L429 151L458.8 170.3Z" fill="#51272e" stroke="#adadad"></path><path d="M288.8 123.7L297 142.7L317.5 118.3Z" fill="#6999e3" stroke="#adadad"></path><path d="M459.8 771.3L436 756L436.5 763.3Z" fill="#83649b" stroke="#adadad"></path><path d="M297 142.7L284.3 145.3L299 182.3Z" fill="#603140" stroke="#adadad"></path><path d="M136.3 719.3L141.8 717.7L131.3 678Z" fill="#83649b" stroke="#adadad"></path><path d="M165 713L203.3 760.7L216.8 746.3Z" fill="#4facf7" stroke="#adadad"></path><path d="M216.8 746.3L203.3 760.7L244 747.7Z" fill="#78476a" stroke="#adadad"></path><path d="M136.3 719.3L131.3 678L113.5 677.7Z" fill="#603140" stroke="#adadad"></path><path d="M427.8 794.7L459.8 771.3L436.5 763.3Z" fill="#7986cd" stroke="#adadad"></path><path d="M297 142.7L317.8 146.3L317.5 118.3Z" fill="#7986cd" stroke="#adadad"></path><path d="M317.8 146.3L297 142.7L323.3 161.7Z" fill="#603140" stroke="#adadad"></path><path d="M502.5 168.7L473.8 178L495.3 195.7Z" fill="#4facf7" stroke="#adadad"></path><path d="M461.5 163.3L441.5 134L429 151Z" fill="#51272e" stroke="#adadad"></path><path d="M607.5 545L675 530.7L675 514.7Z" fill="#7986cd" stroke="#adadad"></path><path d="M675 377.7L650.3 338.7L642.5 350.7Z" fill="#411f1f" stroke="#adadad"></path><path d="M673.3 385L635.3 385.3L650.5 413Z" fill="#78476a" stroke="#adadad"></path><path d="M642.5 350.7L650.3 338.7L608.3 335Z" fill="#411f1f" stroke="#adadad"></path><path d="M200.5 162L211.5 166.7L203.5 145Z" fill="#805582" stroke="#adadad"></path><path d="M241 161L211.5 166.7L240.3 167Z" fill="#7986cd" stroke="#adadad"></path><path d="M100.3 244.3L136 258.3L146.8 230.3Z" fill="#805582" stroke="#adadad"></path><path d="M381.5 805.3L389 790.7L340.3 759.7Z" fill="#603140" stroke="#adadad"></path><path d="M413.3 780.3L427.8 794.7L436.5 763.3Z" fill="#78476a" stroke="#adadad"></path><path d="M604.5 669.7L594.8 674L633.3 703.3Z" fill="#7986cd" stroke="#adadad"></path><path d="M594.8 674L604.5 669.7L605.8 631.7Z" fill="#4facf7" stroke="#adadad"></path><path d="M607.5 545L675 545L675 530.7Z" fill="#6e3b54" stroke="#adadad"></path><path d="M100.3 244.3L146.8 230.3L134.3 195Z" fill="#603140" stroke="#adadad"></path><path d="M100.3 244.3L123 273L127.8 262.7Z" fill="#8175b4" stroke="#adadad"></path><path d="M83.8 309L55.3 315L77.5 338.7Z" fill="#8175b4" stroke="#adadad"></path><path d="M-8.2 485.7L4.8 515.3L42.5 496.7Z" fill="#805582" stroke="#adadad"></path><path d="M604.5 669.7L622.3 646.3L605.8 631.7Z" fill="#78476a" stroke="#adadad"></path><path d="M147.8 735L203.3 760.7L165 713Z" fill="#51272e" stroke="#adadad"></path><path d="M611.3 584.3L675 545L607.5 545Z" fill="#78476a" stroke="#adadad"></path><path d="M675 462.3L675 427L620.8 436Z" fill="#8175b4" stroke="#adadad"></path><path d="M114.5 745L136.3 719.3L87.5 727.7Z" fill="#6e3b54" stroke="#adadad"></path><path d="M141.8 717.7L147.8 735L165 713Z" fill="#78476a" stroke="#adadad"></path><path d="M611.3 584.3L612.5 593L675 581.3Z" fill="#6999e3" stroke="#adadad"></path><path d="M134.3 195L146.8 230.3L183.8 194Z" fill="#51272e" stroke="#adadad"></path><path d="M545.3 767.3L544.8 732.7L482.5 760.7Z" fill="#6999e3" stroke="#adadad"></path><path d="M482.5 760.7L544.8 732.7L474.3 722.7Z" fill="#4facf7" stroke="#adadad"></path><path d="M549.8 711.3L590 742.3L576 686Z" fill="#78476a" stroke="#adadad"></path><path d="M675 501.3L680.3 474.7L626.3 467Z" fill="#8175b4" stroke="#adadad"></path><path d="M675 462.3L680.3 474.7L675 427Z" fill="#411f1f" stroke="#adadad"></path><path d="M675 514.7L680.3 474.7L675 501.3Z" fill="#6e3b54" stroke="#adadad"></path><path d="M647.3 617.7L612.5 593L616.8 622Z" fill="#6e3b54" stroke="#adadad"></path><path d="M675 514.7L675 530.7L680.3 474.7Z" fill="#8175b4" stroke="#adadad"></path><path d="M534.3 200.3L502.5 168.7L495.3 195.7Z" fill="#411f1f" stroke="#adadad"></path><path d="M477.3 165L441.5 134L461.5 163.3Z" fill="#8175b4" stroke="#adadad"></path><path d="M675 377.7L673.3 385L675 427Z" fill="#603140" stroke="#adadad"></path><path d="M675 427L673.3 385L650.5 413Z" fill="#6e3b54" stroke="#adadad"></path><path d="M136.3 719.3L147.8 735L141.8 717.7Z" fill="#78476a" stroke="#adadad"></path><path d="M674.3 637L647.3 617.7L622.3 646.3Z" fill="#51272e" stroke="#adadad"></path><path d="M622.3 646.3L647.3 617.7L616.8 622Z" fill="#78476a" stroke="#adadad"></path><path d="M203.5 145L211.5 166.7L241 161Z" fill="#411f1f" stroke="#adadad"></path><path d="M211.5 166.7L200.5 162L183.8 194Z" fill="#78476a" stroke="#adadad"></path><path d="M243 134.3L241 161L284.3 145.3Z" fill="#51272e" stroke="#adadad"></path><path d="M675 581.3L675 545L611.3 584.3Z" fill="#6e3b54" stroke="#adadad"></path><path d="M675 530.7L675 545L680.3 474.7Z" fill="#4facf7" stroke="#adadad"></path><path d="M675 284.3L615.3 258.7L611.8 277.7Z" fill="#6999e3" stroke="#adadad"></path><path d="M611.8 277.7L615.3 258.7L567 266Z" fill="#78476a" stroke="#adadad"></path><path d="M534.8 159.3L516 155.7L502.5 168.7Z" fill="#51272e" stroke="#adadad"></path><path d="M675 302.3L605.5 312.3L650.3 338.7Z" fill="#78476a" stroke="#adadad"></path><path d="M389 790.7L409.3 798L413.3 780.3Z" fill="#4facf7" stroke="#adadad"></path><path d="M514.3 796L518 793.3L482.5 760.7Z" fill="#83649b" stroke="#adadad"></path><path d="M381.5 805.3L409.3 798L389 790.7Z" fill="#78476a" stroke="#adadad"></path><path d="M381.5 805.3L340.3 759.7L300.8 781.3Z" fill="#6999e3" stroke="#adadad"></path><path d="M680.3 474.7L675 377.7L675 427Z" fill="#6e3b54" stroke="#adadad"></path><path d="M673.3 385L675 377.7L635.3 385.3Z" fill="#6999e3" stroke="#adadad"></path><path d="M409.3 798L427.8 794.7L413.3 780.3Z" fill="#83649b" stroke="#adadad"></path><path d="M296.8 823.3L300.8 781.3L292 780Z" fill="#603140" stroke="#adadad"></path><path d="M342.5 849L381.5 805.3L300.8 781.3Z" fill="#8175b4" stroke="#adadad"></path><path d="M409.3 798L431.8 815.3L427.8 794.7Z" fill="#603140" stroke="#adadad"></path><path d="M60.5 233L79.5 250.7L100.3 244.3Z" fill="#603140" stroke="#adadad"></path><path d="M100.3 244.3L79.5 250.7L123 273Z" fill="#6e3b54" stroke="#adadad"></path><path d="M516 155.7L441.5 134L477.3 165Z" fill="#805582" stroke="#adadad"></path><path d="M429 151L397 117L370 148.7Z" fill="#603140" stroke="#adadad"></path><path d="M181 150L134.3 195L183.8 194Z" fill="#83649b" stroke="#adadad"></path><path d="M317.5 118.3L317.8 146.3L370 148.7Z" fill="#6999e3" stroke="#adadad"></path><path d="M297 142.7L288.8 123.7L284.3 145.3Z" fill="#805582" stroke="#adadad"></path><path d="M0 464.3L84.8 461L0 423.7Z" fill="#78476a" stroke="#adadad"></path><path d="M42.5 496.7L4.8 515.3L46.8 532.7Z" fill="#83649b" stroke="#adadad"></path><path d="M46.8 532.7L0 556.3L60.5 609Z" fill="#7986cd" stroke="#adadad"></path><path d="M0 628.3L60.8 664L70.5 626.3Z" fill="#51272e" stroke="#adadad"></path><path d="M288.8 123.7L243 134.3L284.3 145.3Z" fill="#78476a" stroke="#adadad"></path><path d="M200.5 162L181 150L183.8 194Z" fill="#6999e3" stroke="#adadad"></path><path d="M647.3 617.7L675 581.3L612.5 593Z" fill="#805582" stroke="#adadad"></path><path d="M675 545L675 581.3L680.3 474.7Z" fill="#8175b4" stroke="#adadad"></path><path d="M0 423.7L84.8 461L62.8 393.7Z" fill="#78476a" stroke="#adadad"></path><path d="M367 98.7L317.5 118.3L370 148.7Z" fill="#8175b4" stroke="#adadad"></path><path d="M0 628.3L70.5 626.3L60.5 609Z" fill="#6e3b54" stroke="#adadad"></path><path d="M70.5 626.3L60.8 664L100 657.3Z" fill="#8175b4" stroke="#adadad"></path><path d="M114.5 745L136.8 761L147.8 735Z" fill="#78476a" stroke="#adadad"></path><path d="M221.3 819L256.8 802.7L203.3 760.7Z" fill="#51272e" stroke="#adadad"></path><path d="M203.3 760.7L256.8 802.7L244 747.7Z" fill="#4facf7" stroke="#adadad"></path><path d="M0 392L0 423.7L62.8 393.7Z" fill="#6e3b54" stroke="#adadad"></path><path d="M0 392L62.8 393.7L0 377.7Z" fill="#411f1f" stroke="#adadad"></path><path d="M243 134.3L203.5 145L241 161Z" fill="#603140" stroke="#adadad"></path><path d="M441.5 134L397 117L429 151Z" fill="#6999e3" stroke="#adadad"></path><path d="M-8.2 485.7L0 517.7L4.8 515.3Z" fill="#51272e" stroke="#adadad"></path><path d="M4.8 515.3L0 527L46.8 532.7Z" fill="#603140" stroke="#adadad"></path><path d="M534.8 159.3L502.5 168.7L534.3 200.3Z" fill="#411f1f" stroke="#adadad"></path><path d="M502.5 168.7L516 155.7L477.3 165Z" fill="#7986cd" stroke="#adadad"></path><path d="M399 90.3L367 98.7L397 117Z" fill="#6999e3" stroke="#adadad"></path><path d="M0 517.7L0 527L4.8 515.3Z" fill="#4facf7" stroke="#adadad"></path><path d="M615.3 258.7L579.5 196L558 250.3Z" fill="#6999e3" stroke="#adadad"></path><path d="M22.8 320.3L77.5 338.7L55.3 315Z" fill="#6999e3" stroke="#adadad"></path><path d="M0 283.7L22.8 320.3L55.3 315Z" fill="#6999e3" stroke="#adadad"></path><path d="M201.3 136.7L181 150L203.5 145Z" fill="#603140" stroke="#adadad"></path><path d="M203.5 145L181 150L200.5 162Z" fill="#51272e" stroke="#adadad"></path><path d="M0 464.3L-8.2 485.7L42.5 496.7Z" fill="#6999e3" stroke="#adadad"></path><path d="M0 517.7L-8.2 485.7L0 527Z" fill="#411f1f" stroke="#adadad"></path><path d="M0 423.7L-8.2 485.7L0 464.3Z" fill="#603140" stroke="#adadad"></path><path d="M0 392L-8.2 485.7L0 423.7Z" fill="#8175b4" stroke="#adadad"></path><path d="M50.5 685.3L68.8 688.3L60.8 664Z" fill="#8175b4" stroke="#adadad"></path><path d="M60.8 664L68.8 688.3L100 657.3Z" fill="#8175b4" stroke="#adadad"></path><path d="M147.8 735L136.8 761L203.3 760.7Z" fill="#603140" stroke="#adadad"></path><path d="M-8.2 485.7L0 548L0 527Z" fill="#411f1f" stroke="#adadad"></path><path d="M0 527L0 548L46.8 532.7Z" fill="#51272e" stroke="#adadad"></path><path d="M575.8 186.3L534.8 159.3L534.3 200.3Z" fill="#7986cd" stroke="#adadad"></path><path d="M399 90.3L397 117L415.3 80Z" fill="#83649b" stroke="#adadad"></path><path d="M633.3 703.3L594.8 674L576 686Z" fill="#805582" stroke="#adadad"></path><path d="M604.5 669.7L640.3 672L622.3 646.3Z" fill="#603140" stroke="#adadad"></path><path d="M647.3 617.7L675 625L675 581.3Z" fill="#78476a" stroke="#adadad"></path><path d="M0 348.3L0 377.7L62.8 393.7Z" fill="#7986cd" stroke="#adadad"></path><path d="M0 392L0 377.7L-8.2 485.7Z" fill="#411f1f" stroke="#adadad"></path><path d="M228.5 117.7L203.5 145L243 134.3Z" fill="#7986cd" stroke="#adadad"></path><path d="M228.5 117.7L201.3 136.7L203.5 145Z" fill="#51272e" stroke="#adadad"></path><path d="M228.5 117.7L243 134.3L288.8 123.7Z" fill="#6e3b54" stroke="#adadad"></path><path d="M-8.2 485.7L0 556.3L0 548Z" fill="#8175b4" stroke="#adadad"></path><path d="M0 548L0 556.3L46.8 532.7Z" fill="#4facf7" stroke="#adadad"></path><path d="M676.3 302.3L675 315L675 377.7Z" fill="#51272e" stroke="#adadad"></path><path d="M675 377.7L675 315L650.3 338.7Z" fill="#805582" stroke="#adadad"></path><path d="M615.3 258.7L618.8 200L579.5 196Z" fill="#8175b4" stroke="#adadad"></path><path d="M618.8 200L575.8 186.3L579.5 196Z" fill="#603140" stroke="#adadad"></path><path d="M579.5 196L575.8 186.3L534.3 200.3Z" fill="#8175b4" stroke="#adadad"></path><path d="M398 828.7L409.3 798L381.5 805.3Z" fill="#51272e" stroke="#adadad"></path><path d="M398 828.7L431.8 815.3L409.3 798Z" fill="#603140" stroke="#adadad"></path><path d="M427.8 794.7L431.8 815.3L459.8 771.3Z" fill="#6999e3" stroke="#adadad"></path><path d="M544.8 732.7L590 742.3L549.8 711.3Z" fill="#7986cd" stroke="#adadad"></path><path d="M518 793.3L545.3 767.3L482.5 760.7Z" fill="#7986cd" stroke="#adadad"></path><path d="M256.8 802.7L296.8 823.3L292 780Z" fill="#411f1f" stroke="#adadad"></path><path d="M114.5 745L147.8 735L136.3 719.3Z" fill="#7986cd" stroke="#adadad"></path><path d="M270.3 852.3L303.8 839L296.8 823.3Z" fill="#6e3b54" stroke="#adadad"></path><path d="M674.3 637L675 625L647.3 617.7Z" fill="#78476a" stroke="#adadad"></path><path d="M675 581.3L675 625L680.3 474.7Z" fill="#6e3b54" stroke="#adadad"></path><path d="M87.5 727.7L136.3 719.3L113.5 677.7Z" fill="#603140" stroke="#adadad"></path><path d="M676.3 302.3L675 302.3L675 315Z" fill="#7986cd" stroke="#adadad"></path><path d="M675 315L675 302.3L650.3 338.7Z" fill="#78476a" stroke="#adadad"></path><path d="M680.3 474.7L676.3 302.3L675 377.7Z" fill="#83649b" stroke="#adadad"></path><path d="M675 302.3L675 284.3L611.8 277.7Z" fill="#603140" stroke="#adadad"></path><path d="M22.8 320.3L0 348.3L77.5 338.7Z" fill="#6e3b54" stroke="#adadad"></path><path d="M0 377.7L0 348.3L-8.2 485.7Z" fill="#51272e" stroke="#adadad"></path><path d="M397 117L441.5 134L415.3 80Z" fill="#4facf7" stroke="#adadad"></path><path d="M397 117L367 98.7L370 148.7Z" fill="#4facf7" stroke="#adadad"></path><path d="M296.8 70L228.5 117.7L288.8 123.7Z" fill="#4facf7" stroke="#adadad"></path><path d="M342.5 849L398 828.7L381.5 805.3Z" fill="#78476a" stroke="#adadad"></path><path d="M308 89L288.8 123.7L317.5 118.3Z" fill="#6e3b54" stroke="#adadad"></path><path d="M201.3 136.7L174.8 114.7L181 150Z" fill="#83649b" stroke="#adadad"></path><path d="M583.5 762L590 742.3L544.8 732.7Z" fill="#83649b" stroke="#adadad"></path><path d="M640.3 672L674.3 637L622.3 646.3Z" fill="#8175b4" stroke="#adadad"></path><path d="M675 688L674.3 637L640.3 672Z" fill="#603140" stroke="#adadad"></path><path d="M71.5 172.7L60.5 233L100.3 244.3Z" fill="#83649b" stroke="#adadad"></path><path d="M79.5 250.7L0 283.7L55.3 315Z" fill="#6e3b54" stroke="#adadad"></path><path d="M22.8 320.3L0 313L0 348.3Z" fill="#83649b" stroke="#adadad"></path><path d="M48.8 223.7L60.5 233L46.8 201Z" fill="#6e3b54" stroke="#adadad"></path><path d="M68.8 688.3L87.5 727.7L113.5 677.7Z" fill="#411f1f" stroke="#adadad"></path><path d="M181.5 813.3L180 803.7L157.5 807.7Z" fill="#4facf7" stroke="#adadad"></path><path d="M64.3 707.7L87.5 727.7L68.8 688.3Z" fill="#51272e" stroke="#adadad"></path><path d="M514.3 796L482.5 760.7L493.5 820.7Z" fill="#51272e" stroke="#adadad"></path><path d="M545.3 767.3L583.5 762L544.8 732.7Z" fill="#411f1f" stroke="#adadad"></path><path d="M482.5 760.7L459.8 771.3L493.5 820.7Z" fill="#51272e" stroke="#adadad"></path><path d="M0 678L50.5 685.3L60.8 664Z" fill="#603140" stroke="#adadad"></path><path d="M493.5 820.7L459.8 771.3L477.3 832.3Z" fill="#4facf7" stroke="#adadad"></path><path d="M571 821L583.5 762L545.3 767.3Z" fill="#4facf7" stroke="#adadad"></path><path d="M625.5 730L633.3 703.3L576 686Z" fill="#78476a" stroke="#adadad"></path><path d="M57.8 700.7L64.3 707.7L68.8 688.3Z" fill="#83649b" stroke="#adadad"></path><path d="M50.5 685.3L57.8 700.7L68.8 688.3Z" fill="#6999e3" stroke="#adadad"></path><path d="M676.3 302.3L675 284.3L675 302.3Z" fill="#4facf7" stroke="#adadad"></path><path d="M662.3 243L635.5 225.3L615.3 258.7Z" fill="#4facf7" stroke="#adadad"></path><path d="M575.8 186.3L589.5 145.3L534.8 159.3Z" fill="#6999e3" stroke="#adadad"></path><path d="M382.5 72.3L345.3 90.3L367 98.7Z" fill="#603140" stroke="#adadad"></path><path d="M367 98.7L345.3 90.3L317.5 118.3Z" fill="#7986cd" stroke="#adadad"></path><path d="M180 803.7L203.3 760.7L136.8 761Z" fill="#411f1f" stroke="#adadad"></path><path d="M180 803.7L221.3 819L203.3 760.7Z" fill="#4facf7" stroke="#adadad"></path><path d="M270.3 852.3L296.8 823.3L256.8 802.7Z" fill="#51272e" stroke="#adadad"></path><path d="M296.8 823.3L342.5 849L300.8 781.3Z" fill="#411f1f" stroke="#adadad"></path><path d="M228.5 117.7L198.3 119L201.3 136.7Z" fill="#78476a" stroke="#adadad"></path><path d="M181 150L144 135.7L134.3 195Z" fill="#411f1f" stroke="#adadad"></path><path d="M174.8 114.7L156.8 97.3L156.8 99Z" fill="#4facf7" stroke="#adadad"></path><path d="M345.3 90.3L331.5 88L317.5 118.3Z" fill="#6999e3" stroke="#adadad"></path><path d="M180 803.7L136.8 761L157.5 807.7Z" fill="#4facf7" stroke="#adadad"></path><path d="M331.5 88L308 89L317.5 118.3Z" fill="#603140" stroke="#adadad"></path><path d="M415.3 80L441.5 134L444.8 82.3Z" fill="#6999e3" stroke="#adadad"></path><path d="M344.3 66.7L320.8 71.3L331.5 88Z" fill="#51272e" stroke="#adadad"></path><path d="M662.3 201.3L618.8 200L635.5 225.3Z" fill="#8175b4" stroke="#adadad"></path><path d="M635.5 225.3L618.8 200L615.3 258.7Z" fill="#78476a" stroke="#adadad"></path><path d="M444.8 82.3L441.5 134L489.8 68Z" fill="#4facf7" stroke="#adadad"></path><path d="M538 802.7L545.3 767.3L518 793.3Z" fill="#83649b" stroke="#adadad"></path><path d="M590 742.3L625.5 730L576 686Z" fill="#411f1f" stroke="#adadad"></path><path d="M0 283.7L0 313L22.8 320.3Z" fill="#6999e3" stroke="#adadad"></path><path d="M0 348.3L0 313L-8.2 485.7Z" fill="#78476a" stroke="#adadad"></path><path d="M174.8 114.7L163.5 132.3L181 150Z" fill="#7986cd" stroke="#adadad"></path><path d="M622.3 785.3L625.5 730L590 742.3Z" fill="#51272e" stroke="#adadad"></path><path d="M633.3 703.3L675 688L640.3 672Z" fill="#8175b4" stroke="#adadad"></path><path d="M309 857.3L342.5 849L303.8 839Z" fill="#83649b" stroke="#adadad"></path><path d="M303.8 839L342.5 849L296.8 823.3Z" fill="#6e3b54" stroke="#adadad"></path><path d="M493.3 821.7L493.5 820.7L477.3 832.3Z" fill="#83649b" stroke="#adadad"></path><path d="M-2.2 635L0 628.3L0 556.3Z" fill="#8175b4" stroke="#adadad"></path><path d="M0 556.3L0 628.3L60.5 609Z" fill="#7986cd" stroke="#adadad"></path><path d="M50.5 685.3L0 704.3L57.8 700.7Z" fill="#78476a" stroke="#adadad"></path><path d="M71.5 172.7L100.3 244.3L134.3 195Z" fill="#8175b4" stroke="#adadad"></path><path d="M60.5 233L0 283.7L79.5 250.7Z" fill="#603140" stroke="#adadad"></path><path d="M402 846.3L431.8 815.3L398 828.7Z" fill="#78476a" stroke="#adadad"></path><path d="M514.3 796L538 802.7L518 793.3Z" fill="#805582" stroke="#adadad"></path><path d="M675 259.7L662.3 243L615.3 258.7Z" fill="#6e3b54" stroke="#adadad"></path><path d="M386.5 856.7L402 846.3L398 828.7Z" fill="#83649b" stroke="#adadad"></path><path d="M477.3 832.3L459.8 771.3L431.8 815.3Z" fill="#603140" stroke="#adadad"></path><path d="M543.8 824L538 802.7L512.5 840Z" fill="#78476a" stroke="#adadad"></path><path d="M180 803.7L181.5 813.3L221.3 819Z" fill="#805582" stroke="#adadad"></path><path d="M270.3 852.3L309 857.3L303.8 839Z" fill="#7986cd" stroke="#adadad"></path><path d="M157.5 807.7L136.8 761L101.3 805Z" fill="#7986cd" stroke="#adadad"></path><path d="M136.8 761L114.5 745L83 771.3Z" fill="#83649b" stroke="#adadad"></path><path d="M676.3 302.3L675 259.7L675 284.3Z" fill="#51272e" stroke="#adadad"></path><path d="M675 284.3L675 259.7L615.3 258.7Z" fill="#51272e" stroke="#adadad"></path><path d="M137.3 119.3L144 135.7L163.5 132.3Z" fill="#411f1f" stroke="#adadad"></path><path d="M163.5 132.3L144 135.7L181 150Z" fill="#8175b4" stroke="#adadad"></path><path d="M538 802.7L514.3 796L512.5 840Z" fill="#4facf7" stroke="#adadad"></path><path d="M622.3 785.3L640.5 729.3L625.5 730Z" fill="#8175b4" stroke="#adadad"></path><path d="M-7.2 647.3L-2.2 635L0 556.3Z" fill="#411f1f" stroke="#adadad"></path><path d="M0 628.3L-2.2 635L60.8 664Z" fill="#83649b" stroke="#adadad"></path><path d="M441.5 864.3L477.3 832.3L431.8 815.3Z" fill="#78476a" stroke="#adadad"></path><path d="M512.5 840L514.3 796L493.5 820.7Z" fill="#6e3b54" stroke="#adadad"></path><path d="M174.8 114.7L201.3 63.7L156.8 97.3Z" fill="#51272e" stroke="#adadad"></path><path d="M198.3 119L174.8 114.7L201.3 136.7Z" fill="#411f1f" stroke="#adadad"></path><path d="M441.5 134L516 155.7L489.8 68Z" fill="#7986cd" stroke="#adadad"></path><path d="M399 90.3L382.5 72.3L367 98.7Z" fill="#7986cd" stroke="#adadad"></path><path d="M331.5 88L320.8 71.3L308 89Z" fill="#603140" stroke="#adadad"></path><path d="M83 771.3L114.5 745L87.5 727.7Z" fill="#51272e" stroke="#adadad"></path><path d="M48.8 223.7L0 283.7L60.5 233Z" fill="#411f1f" stroke="#adadad"></path><path d="M0 313L-13.2 101.3L-8.2 485.7Z" fill="#6e3b54" stroke="#adadad"></path><path d="M342.5 849L386.5 856.7L398 828.7Z" fill="#6e3b54" stroke="#adadad"></path><path d="M402 846.3L441.5 864.3L431.8 815.3Z" fill="#6999e3" stroke="#adadad"></path><path d="M415.3 80L382.5 72.3L399 90.3Z" fill="#83649b" stroke="#adadad"></path><path d="M308 89L296.8 70L288.8 123.7Z" fill="#603140" stroke="#adadad"></path><path d="M270.3 852.3L221.3 819L214.3 883.7Z" fill="#83649b" stroke="#adadad"></path><path d="M270.3 852.3L256.8 802.7L221.3 819Z" fill="#805582" stroke="#adadad"></path><path d="M342.5 849L343.3 876.7L386.5 856.7Z" fill="#78476a" stroke="#adadad"></path><path d="M622.3 785.3L590 742.3L583.5 762Z" fill="#8175b4" stroke="#adadad"></path><path d="M625.5 730L640.5 729.3L633.3 703.3Z" fill="#6999e3" stroke="#adadad"></path><path d="M344.3 66.7L331.5 88L345.3 90.3Z" fill="#51272e" stroke="#adadad"></path><path d="M550.8 103.7L516 155.7L534.8 159.3Z" fill="#411f1f" stroke="#adadad"></path><path d="M399.8 14.7L389.3 16.3L382.5 72.3Z" fill="#7986cd" stroke="#adadad"></path><path d="M176.5 834L221.3 819L181.5 813.3Z" fill="#805582" stroke="#adadad"></path><path d="M137.3 119.3L119 142.3L144 135.7Z" fill="#6e3b54" stroke="#adadad"></path><path d="M144 135.7L119 142.3L134.3 195Z" fill="#7986cd" stroke="#adadad"></path><path d="M119 142.3L92.5 162.3L134.3 195Z" fill="#6999e3" stroke="#adadad"></path><path d="M48.8 223.7L0 217.7L0 283.7Z" fill="#805582" stroke="#adadad"></path><path d="M675 708.7L675 688L633.3 703.3Z" fill="#6e3b54" stroke="#adadad"></path><path d="M674.3 637L675 688L675 625Z" fill="#6e3b54" stroke="#adadad"></path><path d="M675 625L684.3 834L680.3 474.7Z" fill="#805582" stroke="#adadad"></path><path d="M314 41.7L296.8 70L320.8 71.3Z" fill="#4facf7" stroke="#adadad"></path><path d="M320.8 71.3L296.8 70L308 89Z" fill="#411f1f" stroke="#adadad"></path><path d="M382.5 72.3L344.3 66.7L345.3 90.3Z" fill="#51272e" stroke="#adadad"></path><path d="M52.5 753L87.5 727.7L64.3 707.7Z" fill="#411f1f" stroke="#adadad"></path><path d="M52.5 753L83 771.3L87.5 727.7Z" fill="#4facf7" stroke="#adadad"></path><path d="M-2.2 635L-7.2 647.3L60.8 664Z" fill="#78476a" stroke="#adadad"></path><path d="M-8.2 485.7L-7.2 647.3L0 556.3Z" fill="#6e3b54" stroke="#adadad"></path><path d="M71.5 172.7L46.8 201L60.5 233Z" fill="#603140" stroke="#adadad"></path><path d="M616.5 144.7L575.8 186.3L618.8 200Z" fill="#603140" stroke="#adadad"></path><path d="M616.5 144.7L589.5 145.3L575.8 186.3Z" fill="#6999e3" stroke="#adadad"></path><path d="M662.3 201.3L635.5 225.3L662.3 243Z" fill="#6e3b54" stroke="#adadad"></path><path d="M76.8 156.7L71.5 172.7L92.5 162.3Z" fill="#51272e" stroke="#adadad"></path><path d="M92.5 162.3L71.5 172.7L134.3 195Z" fill="#51272e" stroke="#adadad"></path><path d="M156.8 99L137.3 119.3L163.5 132.3Z" fill="#78476a" stroke="#adadad"></path><path d="M119 142.3L91 149L92.5 162.3Z" fill="#83649b" stroke="#adadad"></path><path d="M156.8 99L163.5 132.3L174.8 114.7Z" fill="#83649b" stroke="#adadad"></path><path d="M52.5 753L64.3 707.7L57.8 700.7Z" fill="#78476a" stroke="#adadad"></path><path d="M135.8 850.3L176.5 834L157.5 807.7Z" fill="#7986cd" stroke="#adadad"></path><path d="M157.5 807.7L176.5 834L181.5 813.3Z" fill="#805582" stroke="#adadad"></path><path d="M101.3 134.7L91 149L119 142.3Z" fill="#7986cd" stroke="#adadad"></path><path d="M71.5 172.7L55.5 181.3L46.8 201Z" fill="#83649b" stroke="#adadad"></path><path d="M76.8 156.7L55.5 181.3L71.5 172.7Z" fill="#78476a" stroke="#adadad"></path><path d="M0 215.3L0 217.7L48.8 223.7Z" fill="#805582" stroke="#adadad"></path><path d="M-7.2 647.3L0 678L60.8 664Z" fill="#6e3b54" stroke="#adadad"></path><path d="M674.3 714.7L633.3 703.3L640.5 729.3Z" fill="#4facf7" stroke="#adadad"></path><path d="M674.3 714.7L675 708.7L633.3 703.3Z" fill="#6999e3" stroke="#adadad"></path><path d="M675 688L684.3 834L675 625Z" fill="#6999e3" stroke="#adadad"></path><path d="M512.5 840L493.5 820.7L493.3 821.7Z" fill="#6999e3" stroke="#adadad"></path><path d="M538 802.7L571 821L545.3 767.3Z" fill="#603140" stroke="#adadad"></path><path d="M512.5 840L493.3 821.7L477.3 832.3Z" fill="#6e3b54" stroke="#adadad"></path><path d="M475.8 900L512.5 840L477.3 832.3Z" fill="#6e3b54" stroke="#adadad"></path><path d="M436.8 867.7L402 846.3L410.3 900Z" fill="#411f1f" stroke="#adadad"></path><path d="M436.8 867.7L441.5 864.3L402 846.3Z" fill="#4facf7" stroke="#adadad"></path><path d="M675 259.7L662.3 201.3L662.3 243Z" fill="#7986cd" stroke="#adadad"></path><path d="M93.3 104L76.8 156.7L91 149Z" fill="#7986cd" stroke="#adadad"></path><path d="M91 149L76.8 156.7L92.5 162.3Z" fill="#411f1f" stroke="#adadad"></path><path d="M675 722.3L674.3 714.7L640.5 729.3Z" fill="#6e3b54" stroke="#adadad"></path><path d="M325.5 900L343.3 876.7L309 857.3Z" fill="#8175b4" stroke="#adadad"></path><path d="M309 857.3L343.3 876.7L342.5 849Z" fill="#8175b4" stroke="#adadad"></path><path d="M297.8 896.7L309 857.3L270.3 852.3Z" fill="#6999e3" stroke="#adadad"></path><path d="M128.8 108.7L101.3 134.7L119 142.3Z" fill="#8175b4" stroke="#adadad"></path><path d="M410.3 900L402 846.3L386.5 856.7Z" fill="#7986cd" stroke="#adadad"></path><path d="M441.5 864.3L475.8 900L477.3 832.3Z" fill="#6e3b54" stroke="#adadad"></path><path d="M0 733.7L52.5 753L57.8 700.7Z" fill="#7986cd" stroke="#adadad"></path><path d="M83 771.3L98 801.3L136.8 761Z" fill="#8175b4" stroke="#adadad"></path><path d="M562 92.3L559 110.7L585.5 91Z" fill="#6e3b54" stroke="#adadad"></path><path d="M589.5 145.3L559 110.7L534.8 159.3Z" fill="#51272e" stroke="#adadad"></path><path d="M174.8 114.7L198.3 119L201.3 63.7Z" fill="#8175b4" stroke="#adadad"></path><path d="M137.3 119.3L128.8 108.7L119 142.3Z" fill="#411f1f" stroke="#adadad"></path><path d="M201.3 63.7L198.3 119L228.5 117.7Z" fill="#805582" stroke="#adadad"></path><path d="M156.8 99L128.8 108.7L137.3 119.3Z" fill="#51272e" stroke="#adadad"></path><path d="M559 110.7L550.8 103.7L534.8 159.3Z" fill="#78476a" stroke="#adadad"></path><path d="M675 750L675 722.3L640.5 729.3Z" fill="#805582" stroke="#adadad"></path><path d="M674.3 714.7L675 722.3L675 708.7Z" fill="#411f1f" stroke="#adadad"></path><path d="M675 708.7L684.3 834L675 688Z" fill="#603140" stroke="#adadad"></path><path d="M343.3 876.7L381.3 880.3L386.5 856.7Z" fill="#603140" stroke="#adadad"></path><path d="M662.3 187.7L616.5 144.7L618.8 200Z" fill="#7986cd" stroke="#adadad"></path><path d="M559 110.7L562 92.3L550.8 103.7Z" fill="#805582" stroke="#adadad"></path><path d="M156.8 97.3L128.8 108.7L156.8 99Z" fill="#7986cd" stroke="#adadad"></path><path d="M15.5 116.7L55.5 181.3L76.8 156.7Z" fill="#6e3b54" stroke="#adadad"></path><path d="M512.5 840L544 834.7L543.8 824Z" fill="#78476a" stroke="#adadad"></path><path d="M543.8 824L571 821L538 802.7Z" fill="#4facf7" stroke="#adadad"></path><path d="M570.8 834.7L544 834.7L575 900Z" fill="#78476a" stroke="#adadad"></path><path d="M67.5 792.3L98 801.3L83 771.3Z" fill="#805582" stroke="#adadad"></path><path d="M675 184L662.3 187.7L662.3 201.3Z" fill="#6999e3" stroke="#adadad"></path><path d="M662.3 201.3L662.3 187.7L618.8 200Z" fill="#8175b4" stroke="#adadad"></path><path d="M65.8 821.7L101.3 805L98 801.3Z" fill="#83649b" stroke="#adadad"></path><path d="M98 801.3L101.3 805L136.8 761Z" fill="#6e3b54" stroke="#adadad"></path><path d="M570.8 834.7L571 821L543.8 824Z" fill="#78476a" stroke="#adadad"></path><path d="M51.3 796.3L59.3 771.7L35.8 802.7Z" fill="#4facf7" stroke="#adadad"></path><path d="M52.5 753L59.3 771.7L83 771.3Z" fill="#78476a" stroke="#adadad"></path><path d="M528.3 83.3L489.8 68L516 155.7Z" fill="#805582" stroke="#adadad"></path><path d="M444.8 82.3L445.5 45.7L415.3 80Z" fill="#83649b" stroke="#adadad"></path><path d="M346.8 20.7L314 41.7L344.3 66.7Z" fill="#83649b" stroke="#adadad"></path><path d="M620.5 795.3L622.3 785.3L611.3 803.7Z" fill="#78476a" stroke="#adadad"></path><path d="M-7.2 647.3L0 704.3L0 678Z" fill="#6e3b54" stroke="#adadad"></path><path d="M0 678L0 704.3L50.5 685.3Z" fill="#51272e" stroke="#adadad"></path><path d="M562 92.3L528.3 83.3L550.8 103.7Z" fill="#83649b" stroke="#adadad"></path><path d="M550.8 103.7L528.3 83.3L516 155.7Z" fill="#805582" stroke="#adadad"></path><path d="M93.3 104L91 149L101.3 134.7Z" fill="#6e3b54" stroke="#adadad"></path><path d="M15.5 116.7L29.8 185.3L55.5 181.3Z" fill="#6999e3" stroke="#adadad"></path><path d="M55.5 181.3L29.8 185.3L46.8 201Z" fill="#6999e3" stroke="#adadad"></path><path d="M-7.2 647.3L0 708.7L0 704.3Z" fill="#7986cd" stroke="#adadad"></path><path d="M0 704.3L0 708.7L57.8 700.7Z" fill="#6e3b54" stroke="#adadad"></path><path d="M344.3 66.7L314 41.7L320.8 71.3Z" fill="#7986cd" stroke="#adadad"></path><path d="M215.3 42.3L201.3 63.7L228.5 117.7Z" fill="#4facf7" stroke="#adadad"></path><path d="M346.8 20.7L344.3 66.7L382.5 72.3Z" fill="#51272e" stroke="#adadad"></path><path d="M0 215.3L48.8 223.7L46.8 201Z" fill="#603140" stroke="#adadad"></path><path d="M0 283.7L-13.2 101.3L0 313Z" fill="#805582" stroke="#adadad"></path><path d="M215.3 42.3L228.5 117.7L296.8 70Z" fill="#805582" stroke="#adadad"></path><path d="M124 82.3L111.5 103L128.8 108.7Z" fill="#6e3b54" stroke="#adadad"></path><path d="M0 206L0 215.3L46.8 201Z" fill="#6e3b54" stroke="#adadad"></path><path d="M0 217.7L-13.2 101.3L0 283.7Z" fill="#78476a" stroke="#adadad"></path><path d="M611.3 803.7L622.3 785.3L583.5 762Z" fill="#7986cd" stroke="#adadad"></path><path d="M622.3 785.3L675 750L640.5 729.3Z" fill="#805582" stroke="#adadad"></path><path d="M620.5 795.3L626.5 790.7L622.3 785.3Z" fill="#4facf7" stroke="#adadad"></path><path d="M570.8 834.7L611.3 803.7L571 821Z" fill="#51272e" stroke="#adadad"></path><path d="M571 821L611.3 803.7L583.5 762Z" fill="#603140" stroke="#adadad"></path><path d="M675 799.7L675 787.3L626.5 790.7Z" fill="#8175b4" stroke="#adadad"></path><path d="M585.5 91L559 110.7L589.5 145.3Z" fill="#8175b4" stroke="#adadad"></path><path d="M528.3 83.3L531.3 74L489.8 68Z" fill="#8175b4" stroke="#adadad"></path><path d="M585.5 91L589.5 145.3L616.5 144.7Z" fill="#805582" stroke="#adadad"></path><path d="M459.3 24.7L445.5 45.7L489.8 68Z" fill="#6e3b54" stroke="#adadad"></path><path d="M489.8 68L445.5 45.7L444.8 82.3Z" fill="#51272e" stroke="#adadad"></path><path d="M51.3 796.3L67.5 792.3L59.3 771.7Z" fill="#4facf7" stroke="#adadad"></path><path d="M59.3 771.7L67.5 792.3L83 771.3Z" fill="#805582" stroke="#adadad"></path><path d="M297.8 896.7L270.3 852.3L268 917.7Z" fill="#51272e" stroke="#adadad"></path><path d="M675 259.7L675 184L662.3 201.3Z" fill="#78476a" stroke="#adadad"></path><path d="M662.3 187.7L675 165.7L616.5 144.7Z" fill="#603140" stroke="#adadad"></path><path d="M676.3 302.3L675 184L675 259.7Z" fill="#8175b4" stroke="#adadad"></path><path d="M675 165.7L675 184L676.3 302.3Z" fill="#7986cd" stroke="#adadad"></path><path d="M531.8 900L544 834.7L512.5 840Z" fill="#7986cd" stroke="#adadad"></path><path d="M544 834.7L570.8 834.7L543.8 824Z" fill="#8175b4" stroke="#adadad"></path><path d="M562 92.3L531.3 74L528.3 83.3Z" fill="#6999e3" stroke="#adadad"></path><path d="M124 82.3L128.8 108.7L156.8 97.3Z" fill="#7986cd" stroke="#adadad"></path><path d="M128.8 108.7L111.5 103L101.3 134.7Z" fill="#4facf7" stroke="#adadad"></path><path d="M0 122L0 206L29.8 185.3Z" fill="#603140" stroke="#adadad"></path><path d="M29.8 185.3L0 206L46.8 201Z" fill="#83649b" stroke="#adadad"></path><path d="M0 215.3L-13.2 101.3L0 217.7Z" fill="#4facf7" stroke="#adadad"></path><path d="M675 787.3L675 750L626.5 790.7Z" fill="#83649b" stroke="#adadad"></path><path d="M626.5 790.7L675 750L622.3 785.3Z" fill="#805582" stroke="#adadad"></path><path d="M675 722.3L684.3 834L675 708.7Z" fill="#603140" stroke="#adadad"></path><path d="M221.3 819L176.5 834L214.3 883.7Z" fill="#51272e" stroke="#adadad"></path><path d="M296.8 900L297.8 896.7L268 917.7Z" fill="#805582" stroke="#adadad"></path><path d="M343.3 876.7L383 900L381.3 880.3Z" fill="#78476a" stroke="#adadad"></path><path d="M324.5 0L299 32.3L314 41.7Z" fill="#603140" stroke="#adadad"></path><path d="M314 41.7L299 32.3L296.8 70Z" fill="#83649b" stroke="#adadad"></path><path d="M306 900L325.5 900L309 857.3Z" fill="#603140" stroke="#adadad"></path><path d="M381.3 880.3L410.3 900L386.5 856.7Z" fill="#6e3b54" stroke="#adadad"></path><path d="M436.8 867.7L475.8 900L441.5 864.3Z" fill="#51272e" stroke="#adadad"></path><path d="M325.5 900L383 900L343.3 876.7Z" fill="#6e3b54" stroke="#adadad"></path><path d="M297.8 896.7L306 900L309 857.3Z" fill="#411f1f" stroke="#adadad"></path><path d="M214.3 883.7L176.5 834L164.5 885.7Z" fill="#78476a" stroke="#adadad"></path><path d="M297.8 896.7L296.8 900L306 900Z" fill="#6999e3" stroke="#adadad"></path><path d="M-7.2 647.3L0 733.7L0 708.7Z" fill="#6e3b54" stroke="#adadad"></path><path d="M0 708.7L0 733.7L57.8 700.7Z" fill="#7986cd" stroke="#adadad"></path><path d="M135.8 850.3L157.5 807.7L101.3 805Z" fill="#7986cd" stroke="#adadad"></path><path d="M383 900L410.3 900L381.3 880.3Z" fill="#4facf7" stroke="#adadad"></path><path d="M103 844.7L135.8 850.3L101.3 805Z" fill="#6e3b54" stroke="#adadad"></path><path d="M135.8 850.3L138.8 852.7L176.5 834Z" fill="#7986cd" stroke="#adadad"></path><path d="M124 82.3L93.3 104L111.5 103Z" fill="#8175b4" stroke="#adadad"></path><path d="M111.5 103L93.3 104L101.3 134.7Z" fill="#78476a" stroke="#adadad"></path><path d="M299 32.3L215.3 42.3L296.8 70Z" fill="#83649b" stroke="#adadad"></path><path d="M125 75.7L124 82.3L156.8 97.3Z" fill="#8175b4" stroke="#adadad"></path><path d="M635.3 117.3L585.5 91L616.5 144.7Z" fill="#411f1f" stroke="#adadad"></path><path d="M562 92.3L547 50L531.3 74Z" fill="#51272e" stroke="#adadad"></path><path d="M399.8 14.7L415.3 80L445.5 45.7Z" fill="#805582" stroke="#adadad"></path><path d="M125 75.7L156.8 97.3L124.3 51.3Z" fill="#805582" stroke="#adadad"></path><path d="M680.3 474.7L675 165.7L676.3 302.3Z" fill="#4facf7" stroke="#adadad"></path><path d="M675 184L675 165.7L662.3 187.7Z" fill="#603140" stroke="#adadad"></path><path d="M389.3 16.3L346.8 20.7L382.5 72.3Z" fill="#6999e3" stroke="#adadad"></path><path d="M243 0L204.5 25.3L215.3 42.3Z" fill="#7986cd" stroke="#adadad"></path><path d="M35.8 802.7L59.3 771.7L52.5 753Z" fill="#78476a" stroke="#adadad"></path><path d="M94 845L103 844.7L101.3 805Z" fill="#6999e3" stroke="#adadad"></path><path d="M135.8 850.3L139.3 883.7L138.8 852.7Z" fill="#6e3b54" stroke="#adadad"></path><path d="M336.3 0L339.5 16.7L353 -4.7Z" fill="#4facf7" stroke="#adadad"></path><path d="M346.8 20.7L339.5 16.7L314 41.7Z" fill="#6999e3" stroke="#adadad"></path><path d="M124.3 51.3L156.8 97.3L139.3 29.7Z" fill="#78476a" stroke="#adadad"></path><path d="M124 82.3L102.5 52.3L93.3 104Z" fill="#8175b4" stroke="#adadad"></path><path d="M399.8 14.7L382.5 72.3L415.3 80Z" fill="#51272e" stroke="#adadad"></path><path d="M399.8 14.7L445.5 45.7L426.5 0Z" fill="#8175b4" stroke="#adadad"></path><path d="M675 165.7L635.3 117.3L616.5 144.7Z" fill="#411f1f" stroke="#adadad"></path><path d="M65.8 821.7L98 801.3L67.5 792.3Z" fill="#7986cd" stroke="#adadad"></path><path d="M138.8 852.7L164.5 885.7L176.5 834Z" fill="#51272e" stroke="#adadad"></path><path d="M459.3 24.7L489.8 68L497.5 13.3Z" fill="#411f1f" stroke="#adadad"></path><path d="M353 -4.7L339.5 16.7L346.8 20.7Z" fill="#8175b4" stroke="#adadad"></path><path d="M410.3 900L475.8 900L436.8 867.7Z" fill="#51272e" stroke="#adadad"></path><path d="M547 50L489.8 68L531.3 74Z" fill="#6999e3" stroke="#adadad"></path><path d="M55.8 818.3L67.5 792.3L51.3 796.3Z" fill="#51272e" stroke="#adadad"></path><path d="M55.8 818.3L65.8 821.7L67.5 792.3Z" fill="#83649b" stroke="#adadad"></path><path d="M65.8 821.7L94 845L101.3 805Z" fill="#6e3b54" stroke="#adadad"></path><path d="M139.3 883.7L164.5 885.7L138.8 852.7Z" fill="#6e3b54" stroke="#adadad"></path><path d="M35.8 802.7L55.8 818.3L51.3 796.3Z" fill="#805582" stroke="#adadad"></path><path d="M65.8 821.7L63.5 856.7L94 845Z" fill="#411f1f" stroke="#adadad"></path><path d="M139.3 883.7L135.8 850.3L103 844.7Z" fill="#7986cd" stroke="#adadad"></path><path d="M214.3 883.7L268 917.7L270.3 852.3Z" fill="#51272e" stroke="#adadad"></path><path d="M675 799.7L626.5 790.7L657.3 849.7Z" fill="#78476a" stroke="#adadad"></path><path d="M675 750L684.3 834L675 722.3Z" fill="#6999e3" stroke="#adadad"></path><path d="M626.5 790.7L620.5 795.3L657.3 849.7Z" fill="#6999e3" stroke="#adadad"></path><path d="M620.5 795.3L611.3 803.7L657.3 849.7Z" fill="#6999e3" stroke="#adadad"></path><path d="M185.3 900L268 917.7L214.3 883.7Z" fill="#7986cd" stroke="#adadad"></path><path d="M296.8 900L268 917.7L306 900Z" fill="#83649b" stroke="#adadad"></path><path d="M306 900L268 917.7L325.5 900Z" fill="#603140" stroke="#adadad"></path><path d="M325.5 900L268 917.7L383 900Z" fill="#411f1f" stroke="#adadad"></path><path d="M383 900L268 917.7L410.3 900Z" fill="#8175b4" stroke="#adadad"></path><path d="M410.3 900L613.5 917.7L475.8 900Z" fill="#78476a" stroke="#adadad"></path><path d="M0 733.7L35.8 802.7L52.5 753Z" fill="#4facf7" stroke="#adadad"></path><path d="M589.3 67L562 92.3L585.5 91Z" fill="#51272e" stroke="#adadad"></path><path d="M589.3 67L547 50L562 92.3Z" fill="#51272e" stroke="#adadad"></path><path d="M247.5 0L215.3 42.3L299 32.3Z" fill="#4facf7" stroke="#adadad"></path><path d="M215.3 42.3L204.5 25.3L201.3 63.7Z" fill="#78476a" stroke="#adadad"></path><path d="M613.5 917.7L509.3 900L475.8 900Z" fill="#805582" stroke="#adadad"></path><path d="M475.8 900L509.3 900L512.5 840Z" fill="#51272e" stroke="#adadad"></path><path d="M166 900L185.3 900L164.5 885.7Z" fill="#603140" stroke="#adadad"></path><path d="M164.5 885.7L185.3 900L214.3 883.7Z" fill="#83649b" stroke="#adadad"></path><path d="M353 -4.7L346.8 20.7L389.3 16.3Z" fill="#51272e" stroke="#adadad"></path><path d="M339.5 16.7L324.5 0L314 41.7Z" fill="#51272e" stroke="#adadad"></path><path d="M402 0L389.3 16.3L399.8 14.7Z" fill="#805582" stroke="#adadad"></path><path d="M616.8 70L589.3 67L585.5 91Z" fill="#6999e3" stroke="#adadad"></path><path d="M336.3 0L324.5 0L339.5 16.7Z" fill="#805582" stroke="#adadad"></path><path d="M613.5 917.7L514.5 900L509.3 900Z" fill="#83649b" stroke="#adadad"></path><path d="M509.3 900L514.5 900L512.5 840Z" fill="#78476a" stroke="#adadad"></path><path d="M77.3 900L139.3 883.7L103 844.7Z" fill="#83649b" stroke="#adadad"></path><path d="M153.5 900L139.3 883.7L140.8 900Z" fill="#6e3b54" stroke="#adadad"></path><path d="M624.8 859.3L611.3 803.7L570.8 834.7Z" fill="#6e3b54" stroke="#adadad"></path><path d="M675 787.3L684.3 834L675 750Z" fill="#6999e3" stroke="#adadad"></path><path d="M426.5 0L402 0L399.8 14.7Z" fill="#603140" stroke="#adadad"></path><path d="M426.5 0L445.5 45.7L427.8 0Z" fill="#411f1f" stroke="#adadad"></path><path d="M324.5 0L286.8 0L299 32.3Z" fill="#8175b4" stroke="#adadad"></path><path d="M402 0L353 -4.7L389.3 16.3Z" fill="#603140" stroke="#adadad"></path><path d="M336.3 0L353 -4.7L324.5 0Z" fill="#78476a" stroke="#adadad"></path><path d="M324.5 0L353 -4.7L286.8 0Z" fill="#51272e" stroke="#adadad"></path><path d="M139.3 29.7L156.8 97.3L201.3 63.7Z" fill="#51272e" stroke="#adadad"></path><path d="M125 75.7L102.5 52.3L124 82.3Z" fill="#6999e3" stroke="#adadad"></path><path d="M93.3 104L33.8 104L76.8 156.7Z" fill="#7986cd" stroke="#adadad"></path><path d="M153.5 900L166 900L164.5 885.7Z" fill="#603140" stroke="#adadad"></path><path d="M185.3 900L166 900L268 917.7Z" fill="#78476a" stroke="#adadad"></path><path d="M427.8 0L459.3 24.7L462.3 0Z" fill="#4facf7" stroke="#adadad"></path><path d="M427.8 0L445.5 45.7L459.3 24.7Z" fill="#4facf7" stroke="#adadad"></path><path d="M402 0L426.5 0L353 -4.7Z" fill="#51272e" stroke="#adadad"></path><path d="M497.5 13.3L489.8 68L547 50Z" fill="#4facf7" stroke="#adadad"></path><path d="M426.5 0L427.8 0L353 -4.7Z" fill="#6e3b54" stroke="#adadad"></path><path d="M613.5 917.7L531.8 900L514.5 900Z" fill="#78476a" stroke="#adadad"></path><path d="M514.5 900L531.8 900L512.5 840Z" fill="#8175b4" stroke="#adadad"></path><path d="M175.8 -9.7L247.5 0L286.8 0Z" fill="#83649b" stroke="#adadad"></path><path d="M286.8 0L247.5 0L299 32.3Z" fill="#411f1f" stroke="#adadad"></path><path d="M139.3 29.7L102.5 52.3L124.3 51.3Z" fill="#8175b4" stroke="#adadad"></path><path d="M524.8 4.3L497.5 13.3L547 50Z" fill="#51272e" stroke="#adadad"></path><path d="M140.8 900L139.3 883.7L77.3 900Z" fill="#8175b4" stroke="#adadad"></path><path d="M139.3 883.7L153.5 900L164.5 885.7Z" fill="#51272e" stroke="#adadad"></path><path d="M166 900L153.5 900L268 917.7Z" fill="#51272e" stroke="#adadad"></path><path d="M103 844.7L94 845L77.3 900Z" fill="#805582" stroke="#adadad"></path><path d="M175.8 -9.7L243 0L247.5 0Z" fill="#4facf7" stroke="#adadad"></path><path d="M247.5 0L243 0L215.3 42.3Z" fill="#411f1f" stroke="#adadad"></path><path d="M635.3 117.3L616.8 70L585.5 91Z" fill="#6999e3" stroke="#adadad"></path><path d="M578 10.3L551.8 0L547 50Z" fill="#603140" stroke="#adadad"></path><path d="M614.3 56.3L616.8 70L642.5 64.7Z" fill="#7986cd" stroke="#adadad"></path><path d="M102.5 52.3L33.8 104L93.3 104Z" fill="#411f1f" stroke="#adadad"></path><path d="M497.5 13.3L462.3 0L459.3 24.7Z" fill="#6e3b54" stroke="#adadad"></path><path d="M427.8 0L462.3 0L353 -4.7Z" fill="#805582" stroke="#adadad"></path><path d="M124.3 51.3L102.5 52.3L125 75.7Z" fill="#83649b" stroke="#adadad"></path><path d="M139.3 29.7L201.3 63.7L204.5 25.3Z" fill="#411f1f" stroke="#adadad"></path><path d="M22.8 104.7L15.5 116.7L33.8 104Z" fill="#6e3b54" stroke="#adadad"></path><path d="M33.8 104L15.5 116.7L76.8 156.7Z" fill="#411f1f" stroke="#adadad"></path><path d="M63.5 856.7L65.8 821.7L55.8 818.3Z" fill="#4facf7" stroke="#adadad"></path><path d="M153.5 900L140.8 900L268 917.7Z" fill="#805582" stroke="#adadad"></path><path d="M595.3 900L624.8 859.3L570.8 834.7Z" fill="#6999e3" stroke="#adadad"></path><path d="M184.3 0L139.3 29.7L204.5 25.3Z" fill="#8175b4" stroke="#adadad"></path><path d="M30.8 849L55.8 818.3L35.8 802.7Z" fill="#6999e3" stroke="#adadad"></path><path d="M30.8 849L63.5 856.7L55.8 818.3Z" fill="#8175b4" stroke="#adadad"></path><path d="M0 95.3L22.8 104.7L0 77.3Z" fill="#603140" stroke="#adadad"></path><path d="M642.5 64.7L616.8 70L635.3 117.3Z" fill="#6e3b54" stroke="#adadad"></path><path d="M616.8 70L614.3 56.3L589.3 67Z" fill="#51272e" stroke="#adadad"></path><path d="M497.5 13.3L524.8 4.3L462.3 0Z" fill="#8175b4" stroke="#adadad"></path><path d="M243 0L199.8 0L204.5 25.3Z" fill="#603140" stroke="#adadad"></path><path d="M175.8 -9.7L199.8 0L243 0Z" fill="#603140" stroke="#adadad"></path><path d="M0 95.3L0 122L15.5 116.7Z" fill="#603140" stroke="#adadad"></path><path d="M15.5 116.7L0 122L29.8 185.3Z" fill="#7986cd" stroke="#adadad"></path><path d="M0 206L-13.2 101.3L0 215.3Z" fill="#6999e3" stroke="#adadad"></path><path d="M613.5 917.7L575 900L531.8 900Z" fill="#78476a" stroke="#adadad"></path><path d="M531.8 900L575 900L544 834.7Z" fill="#6e3b54" stroke="#adadad"></path><path d="M175.8 -9.7L184.3 0L199.8 0Z" fill="#7986cd" stroke="#adadad"></path><path d="M199.8 0L184.3 0L204.5 25.3Z" fill="#603140" stroke="#adadad"></path><path d="M139.3 29.7L74.3 0L102.5 52.3Z" fill="#6e3b54" stroke="#adadad"></path><path d="M680.3 474.7L675 96.3L675 165.7Z" fill="#8175b4" stroke="#adadad"></path><path d="M675 165.7L675 96.3L635.3 117.3Z" fill="#4facf7" stroke="#adadad"></path><path d="M551.8 0L524.8 4.3L547 50Z" fill="#805582" stroke="#adadad"></path><path d="M624.8 859.3L657.3 849.7L611.3 803.7Z" fill="#78476a" stroke="#adadad"></path><path d="M675 900L657.3 849.7L624.8 859.3Z" fill="#603140" stroke="#adadad"></path><path d="M0 733.7L0 818L35.8 802.7Z" fill="#6999e3" stroke="#adadad"></path><path d="M-7.2 647.3L0 818L0 733.7Z" fill="#83649b" stroke="#adadad"></path><path d="M675 89L642.5 64.7L635.3 117.3Z" fill="#78476a" stroke="#adadad"></path><path d="M578 10.3L547 50L589.3 67Z" fill="#4facf7" stroke="#adadad"></path><path d="M0 818L30.8 849L35.8 802.7Z" fill="#6999e3" stroke="#adadad"></path><path d="M63.5 856.7L77.3 900L94 845Z" fill="#83649b" stroke="#adadad"></path><path d="M680.3 474.7L675 89L675 96.3Z" fill="#78476a" stroke="#adadad"></path><path d="M675 96.3L675 89L635.3 117.3Z" fill="#411f1f" stroke="#adadad"></path><path d="M675 900L684.3 834L657.3 849.7Z" fill="#8175b4" stroke="#adadad"></path><path d="M657.3 849.7L684.3 834L675 799.7Z" fill="#51272e" stroke="#adadad"></path><path d="M675 799.7L684.3 834L675 787.3Z" fill="#411f1f" stroke="#adadad"></path><path d="M613.5 917.7L595.3 900L575 900Z" fill="#78476a" stroke="#adadad"></path><path d="M575 900L595.3 900L570.8 834.7Z" fill="#7986cd" stroke="#adadad"></path><path d="M353 -4.7L175.8 -9.7L286.8 0Z" fill="#7986cd" stroke="#adadad"></path><path d="M184.3 0L141 0L139.3 29.7Z" fill="#7986cd" stroke="#adadad"></path><path d="M0 77.3L22.8 104.7L33.8 104Z" fill="#7986cd" stroke="#adadad"></path><path d="M675 41.7L633.5 46.3L642.5 64.7Z" fill="#603140" stroke="#adadad"></path><path d="M642.5 64.7L633.5 46.3L614.3 56.3Z" fill="#6e3b54" stroke="#adadad"></path><path d="M0 77.3L33.8 104L0 73.7Z" fill="#51272e" stroke="#adadad"></path><path d="M22.8 104.7L0 95.3L15.5 116.7Z" fill="#78476a" stroke="#adadad"></path><path d="M0 122L-13.2 101.3L0 206Z" fill="#6999e3" stroke="#adadad"></path><path d="M578 10.3L589.3 67L614.3 56.3Z" fill="#6e3b54" stroke="#adadad"></path><path d="M524.8 4.3L551.8 0L462.3 0Z" fill="#78476a" stroke="#adadad"></path><path d="M462.3 0L675 -13.7L353 -4.7Z" fill="#7986cd" stroke="#adadad"></path><path d="M353 -4.7L675 -13.7L175.8 -9.7Z" fill="#78476a" stroke="#adadad"></path><path d="M175.8 -9.7L141 0L184.3 0Z" fill="#8175b4" stroke="#adadad"></path><path d="M620.3 0L578 10.3L614.3 56.3Z" fill="#83649b" stroke="#adadad"></path><path d="M20.5 900L63.5 856.7L30.8 849Z" fill="#6999e3" stroke="#adadad"></path><path d="M20.5 900L77.3 900L63.5 856.7Z" fill="#78476a" stroke="#adadad"></path><path d="M140.8 900L0 909.7L268 917.7Z" fill="#8175b4" stroke="#adadad"></path><path d="M0 77.3L-13.2 101.3L0 95.3Z" fill="#78476a" stroke="#adadad"></path><path d="M0 95.3L-13.2 101.3L0 122Z" fill="#6999e3" stroke="#adadad"></path><path d="M-8.2 485.7L-13.2 101.3L-7.2 647.3Z" fill="#6999e3" stroke="#adadad"></path><path d="M613.5 917.7L618.5 900L595.3 900Z" fill="#51272e" stroke="#adadad"></path><path d="M595.3 900L618.5 900L624.8 859.3Z" fill="#805582" stroke="#adadad"></path><path d="M577.5 0L571 0L578 10.3Z" fill="#51272e" stroke="#adadad"></path><path d="M578 10.3L571 0L551.8 0Z" fill="#805582" stroke="#adadad"></path><path d="M551.8 0L675 -13.7L462.3 0Z" fill="#411f1f" stroke="#adadad"></path><path d="M620.3 0L577.5 0L578 10.3Z" fill="#83649b" stroke="#adadad"></path><path d="M571 0L675 -13.7L551.8 0Z" fill="#4facf7" stroke="#adadad"></path><path d="M0 73.7L33.8 104L-1.2 50.3Z" fill="#8175b4" stroke="#adadad"></path><path d="M-1.2 50.3L33.8 104L102.5 52.3Z" fill="#83649b" stroke="#adadad"></path><path d="M0 77.3L0 73.7L-13.2 101.3Z" fill="#6e3b54" stroke="#adadad"></path><path d="M268 917.7L613.5 917.7L410.3 900Z" fill="#411f1f" stroke="#adadad"></path><path d="M618.5 900L675 900L624.8 859.3Z" fill="#805582" stroke="#adadad"></path><path d="M-6.2 900L0 861.3L0 818Z" fill="#6e3b54" stroke="#adadad"></path><path d="M0 818L0 861.3L30.8 849Z" fill="#6999e3" stroke="#adadad"></path><path d="M675 89L675 41.7L642.5 64.7Z" fill="#411f1f" stroke="#adadad"></path><path d="M633.5 46.3L620.3 0L614.3 56.3Z" fill="#78476a" stroke="#adadad"></path><path d="M680.3 474.7L675 41.7L675 89Z" fill="#4facf7" stroke="#adadad"></path><path d="M662.3 20.7L620.3 0L633.5 46.3Z" fill="#6999e3" stroke="#adadad"></path><path d="M577.5 0L675 -13.7L571 0Z" fill="#8175b4" stroke="#adadad"></path><path d="M141 0L74.3 0L139.3 29.7Z" fill="#411f1f" stroke="#adadad"></path><path d="M175.8 -9.7L74.3 0L141 0Z" fill="#7986cd" stroke="#adadad"></path><path d="M175.8 -9.7L71.5 0L74.3 0Z" fill="#6999e3" stroke="#adadad"></path><path d="M74.3 0L71.5 0L102.5 52.3Z" fill="#7986cd" stroke="#adadad"></path><path d="M71.5 0L-1.2 50.3L102.5 52.3Z" fill="#83649b" stroke="#adadad"></path><path d="M0 73.7L-1.2 50.3L-13.2 101.3Z" fill="#6e3b54" stroke="#adadad"></path><path d="M0 861.3L20.5 900L30.8 849Z" fill="#51272e" stroke="#adadad"></path><path d="M77.3 900L0 909.7L140.8 900Z" fill="#51272e" stroke="#adadad"></path><path d="M675 41.7L662.3 20.7L633.5 46.3Z" fill="#51272e" stroke="#adadad"></path><path d="M675 916.7L675 900L618.5 900Z" fill="#6e3b54" stroke="#adadad"></path><path d="M-6.2 900L0 900L0 861.3Z" fill="#805582" stroke="#adadad"></path><path d="M0 861.3L0 900L20.5 900Z" fill="#603140" stroke="#adadad"></path><path d="M20.5 900L0 909.7L77.3 900Z" fill="#83649b" stroke="#adadad"></path><path d="M613.5 917.7L675 916.7L618.5 900Z" fill="#4facf7" stroke="#adadad"></path><path d="M675 900L675 916.7L684.3 834Z" fill="#6e3b54" stroke="#adadad"></path><path d="M-7.2 647.3L-6.2 900L0 818Z" fill="#8175b4" stroke="#adadad"></path><path d="M0 900L0 909.7L20.5 900Z" fill="#6e3b54" stroke="#adadad"></path><path d="M-13.2 101.3L-6.2 900L-7.2 647.3Z" fill="#8175b4" stroke="#adadad"></path><path d="M-6.2 900L0 909.7L0 900Z" fill="#411f1f" stroke="#adadad"></path><path d="M680.3 474.7L675 0L675 41.7Z" fill="#7986cd" stroke="#adadad"></path><path d="M675 41.7L675 0L662.3 20.7Z" fill="#603140" stroke="#adadad"></path><path d="M662.3 20.7L675 0L620.3 0Z" fill="#6e3b54" stroke="#adadad"></path><path d="M620.3 0L675 -13.7L577.5 0Z" fill="#603140" stroke="#adadad"></path><path d="M675 -13.7L675 0L680.3 474.7Z" fill="#51272e" stroke="#adadad"></path><path d="M684.3 834L675 -13.7L680.3 474.7Z" fill="#51272e" stroke="#adadad"></path><path d="M675 0L675 -13.7L620.3 0Z" fill="#51272e" stroke="#adadad"></path><path d="M-1.2 50.3L-10.2 0L-13.2 101.3Z" fill="#411f1f" stroke="#adadad"></path><path d="M71.5 0L0 0L-1.2 50.3Z" fill="#6e3b54" stroke="#adadad"></path><path d="M175.8 -9.7L0 0L71.5 0Z" fill="#8175b4" stroke="#adadad"></path><path d="M175.8 -9.7L-10.2 0L0 0Z" fill="#805582" stroke="#adadad"></path><path d="M0 0L-10.2 0L-1.2 50.3Z" fill="#7986cd" stroke="#adadad"></path></g></svg>