<svg id="visual" viewBox="0 0 675 900" width="675" height="900" xmlns="http://www.w3.org/2000/svg" xmlns:xlink="http://www.w3.org/1999/xlink" version="1.1"><g stroke-width="1" stroke-linejoin="bevel"><path d="M337.5 447.7L353.3 448L359 426Z" fill="#5b3262" stroke="#adadad"></path><path d="M359 426L347.8 411.7L337.5 447.7Z" fill="#7d4754" stroke="#adadad"></path><path d="M359 426L353.5 411L347.8 411.7Z" fill="#753e57" stroke="#adadad"></path><path d="M399.3 464.3L381 399.3L359 426Z" fill="#835b55" stroke="#adadad"></path><path d="M359 426L381 399.3L353.5 411Z" fill="#5b3262" stroke="#adadad"></path><path d="M353.5 411L345.8 363L347.8 411.7Z" fill="#86796b" stroke="#adadad"></path><path d="M288.5 434.3L324.8 481.3L337.5 447.7Z" fill="#5b3262" stroke="#adadad"></path><path d="M337.5 447.7L324.8 481.3L353.3 448Z" fill="#6b375c" stroke="#adadad"></path><path d="M289 423.7L288.5 434.3L337.5 447.7Z" fill="#5b3262" stroke="#adadad"></path><path d="M286.3 413L289 423.7L347.8 411.7Z" fill="#6b375c" stroke="#adadad"></path><path d="M347.8 411.7L289 423.7L337.5 447.7Z" fill="#856f61" stroke="#adadad"></path><path d="M290.5 511L332.3 491.3L324.8 481.3Z" fill="#835b55" stroke="#adadad"></path><path d="M324.8 481.3L332.3 491.3L353.3 448Z" fill="#5b3262" stroke="#adadad"></path><path d="M353.3 448L399.3 464.3L359 426Z" fill="#753e57" stroke="#adadad"></path><path d="M378.5 489.3L399.3 464.3L353.3 448Z" fill="#888277" stroke="#adadad"></path><path d="M286 393.7L286.3 413L347.8 411.7Z" fill="#5b3262" stroke="#adadad"></path><path d="M289 423.7L261.3 416.7L288.5 434.3Z" fill="#815153" stroke="#adadad"></path><path d="M332.3 491.3L378.5 489.3L353.3 448Z" fill="#85655a" stroke="#adadad"></path><path d="M403 368.3L382.3 378.7L381 399.3Z" fill="#463067" stroke="#adadad"></path><path d="M381 399.3L382.3 378.7L353.5 411Z" fill="#815153" stroke="#adadad"></path><path d="M365 361.7L345.8 363L353.5 411Z" fill="#85655a" stroke="#adadad"></path><path d="M378.5 489.3L402.8 478.3L399.3 464.3Z" fill="#5b3262" stroke="#adadad"></path><path d="M442.5 392.7L403 368.3L381 399.3Z" fill="#753e57" stroke="#adadad"></path><path d="M311.5 356.7L286 393.7L347.8 411.7Z" fill="#7d4754" stroke="#adadad"></path><path d="M402.8 478.3L406.3 475.7L399.3 464.3Z" fill="#463067" stroke="#adadad"></path><path d="M382.3 378.7L365 361.7L353.5 411Z" fill="#753e57" stroke="#adadad"></path><path d="M261.3 416.7L269.3 466L288.5 434.3Z" fill="#835b55" stroke="#adadad"></path><path d="M288.5 434.3L269.3 466L324.8 481.3Z" fill="#463067" stroke="#adadad"></path><path d="M261.3 416.7L289 423.7L286.3 413Z" fill="#86796b" stroke="#adadad"></path><path d="M319 322.3L311.5 356.7L345.8 363Z" fill="#7d4754" stroke="#adadad"></path><path d="M345.8 363L311.5 356.7L347.8 411.7Z" fill="#7d4754" stroke="#adadad"></path><path d="M252 400L261.3 416.7L286 393.7Z" fill="#85655a" stroke="#adadad"></path><path d="M286 393.7L261.3 416.7L286.3 413Z" fill="#86796b" stroke="#adadad"></path><path d="M442.5 392.7L381 399.3L399.3 464.3Z" fill="#86796b" stroke="#adadad"></path><path d="M382.3 378.7L403 368.3L365 361.7Z" fill="#888277" stroke="#adadad"></path><path d="M353.8 525L380 516.7L378.5 489.3Z" fill="#463067" stroke="#adadad"></path><path d="M378.5 489.3L380 516.7L402.8 478.3Z" fill="#85655a" stroke="#adadad"></path><path d="M402.8 478.3L428 508L406.3 475.7Z" fill="#835b55" stroke="#adadad"></path><path d="M353.8 525L378.5 489.3L332.3 491.3Z" fill="#85655a" stroke="#adadad"></path><path d="M269.3 466L286 502L324.8 481.3Z" fill="#86796b" stroke="#adadad"></path><path d="M349.3 533L353.8 525L332.3 491.3Z" fill="#7d4754" stroke="#adadad"></path><path d="M311.5 356.7L287.5 362.3L286 393.7Z" fill="#7d4754" stroke="#adadad"></path><path d="M286 502L290.5 511L324.8 481.3Z" fill="#815153" stroke="#adadad"></path><path d="M290.5 511L349.3 533L332.3 491.3Z" fill="#463067" stroke="#adadad"></path><path d="M353.8 525L386 532.3L380 516.7Z" fill="#888277" stroke="#adadad"></path><path d="M252.5 377L252 400L286 393.7Z" fill="#86796b" stroke="#adadad"></path><path d="M201.3 438.3L256 479.3L269.3 466Z" fill="#753e57" stroke="#adadad"></path><path d="M201.3 438.3L269.3 466L261.3 416.7Z" fill="#5b3262" stroke="#adadad"></path><path d="M269.3 466L264.8 493.7L286 502Z" fill="#7d4754" stroke="#adadad"></path><path d="M286 502L280.3 529.7L290.5 511Z" fill="#86796b" stroke="#adadad"></path><path d="M256 479.3L264.8 493.7L269.3 466Z" fill="#5b3262" stroke="#adadad"></path><path d="M311.5 356.7L286.8 349.3L287.5 362.3Z" fill="#835b55" stroke="#adadad"></path><path d="M287.5 362.3L252.5 377L286 393.7Z" fill="#815153" stroke="#adadad"></path><path d="M319 322.3L286.8 349.3L311.5 356.7Z" fill="#463067" stroke="#adadad"></path><path d="M457.3 440L442.5 392.7L399.3 464.3Z" fill="#753e57" stroke="#adadad"></path><path d="M349.3 533L386 532.3L353.8 525Z" fill="#815153" stroke="#adadad"></path><path d="M380 516.7L428 508L402.8 478.3Z" fill="#753e57" stroke="#adadad"></path><path d="M406.3 475.7L457.3 440L399.3 464.3Z" fill="#7d4754" stroke="#adadad"></path><path d="M273.8 348L252.5 377L287.5 362.3Z" fill="#888277" stroke="#adadad"></path><path d="M386 532.3L428 508L380 516.7Z" fill="#888277" stroke="#adadad"></path><path d="M447.8 493L457.3 440L406.3 475.7Z" fill="#85655a" stroke="#adadad"></path><path d="M286.8 349.3L273.8 348L287.5 362.3Z" fill="#815153" stroke="#adadad"></path><path d="M363 306.7L345.8 363L365 361.7Z" fill="#815153" stroke="#adadad"></path><path d="M363 306.7L319 322.3L345.8 363Z" fill="#7d4754" stroke="#adadad"></path><path d="M286.8 349.3L291 303L273.8 348Z" fill="#815153" stroke="#adadad"></path><path d="M264.8 493.7L280.3 529.7L286 502Z" fill="#7d4754" stroke="#adadad"></path><path d="M290.5 511L328.3 555L349.3 533Z" fill="#85655a" stroke="#adadad"></path><path d="M225 524.3L280.3 529.7L264.8 493.7Z" fill="#815153" stroke="#adadad"></path><path d="M428 508L447.8 493L406.3 475.7Z" fill="#5b3262" stroke="#adadad"></path><path d="M280.3 529.7L328.3 555L290.5 511Z" fill="#835b55" stroke="#adadad"></path><path d="M349.3 533L381.3 574.7L386 532.3Z" fill="#6b375c" stroke="#adadad"></path><path d="M328.3 555L336.8 556.7L349.3 533Z" fill="#815153" stroke="#adadad"></path><path d="M381.3 574.7L418.8 539.7L386 532.3Z" fill="#85655a" stroke="#adadad"></path><path d="M386 532.3L418.8 539.7L428 508Z" fill="#753e57" stroke="#adadad"></path><path d="M428 508L482.5 512L447.8 493Z" fill="#6b375c" stroke="#adadad"></path><path d="M419 310L365 361.7L403 368.3Z" fill="#856f61" stroke="#adadad"></path><path d="M419 310L363 306.7L365 361.7Z" fill="#7d4754" stroke="#adadad"></path><path d="M252.5 377L226.3 383.3L252 400Z" fill="#5b3262" stroke="#adadad"></path><path d="M252 400L219.5 394.3L261.3 416.7Z" fill="#5b3262" stroke="#adadad"></path><path d="M211.8 328.7L226.3 383.3L252.5 377Z" fill="#815153" stroke="#adadad"></path><path d="M363 306.7L323.3 305.3L319 322.3Z" fill="#815153" stroke="#adadad"></path><path d="M319 322.3L291 303L286.8 349.3Z" fill="#888277" stroke="#adadad"></path><path d="M273.8 348L211.8 328.7L252.5 377Z" fill="#5b3262" stroke="#adadad"></path><path d="M226.3 383.3L219.5 394.3L252 400Z" fill="#463067" stroke="#adadad"></path><path d="M482.5 512L474.8 469.7L447.8 493Z" fill="#5b3262" stroke="#adadad"></path><path d="M447.8 493L474.8 469.7L457.3 440Z" fill="#7d4754" stroke="#adadad"></path><path d="M477.5 381.3L461.8 361L442.5 392.7Z" fill="#85655a" stroke="#adadad"></path><path d="M477.5 381.3L442.5 392.7L457.3 440Z" fill="#6b375c" stroke="#adadad"></path><path d="M442.5 392.7L461.8 361L403 368.3Z" fill="#835b55" stroke="#adadad"></path><path d="M500.5 438.3L477.5 381.3L457.3 440Z" fill="#6b375c" stroke="#adadad"></path><path d="M310.5 289L291 303L323.3 305.3Z" fill="#463067" stroke="#adadad"></path><path d="M323.3 305.3L291 303L319 322.3Z" fill="#86796b" stroke="#adadad"></path><path d="M201.3 438.3L223.3 506.7L256 479.3Z" fill="#85655a" stroke="#adadad"></path><path d="M256 479.3L223.3 506.7L264.8 493.7Z" fill="#815153" stroke="#adadad"></path><path d="M311.8 582.3L343.5 580.7L328.3 555Z" fill="#7d4754" stroke="#adadad"></path><path d="M458.3 327.3L419 310L403 368.3Z" fill="#86796b" stroke="#adadad"></path><path d="M219.5 394.3L201.3 438.3L261.3 416.7Z" fill="#86796b" stroke="#adadad"></path><path d="M360 586.7L381.3 574.7L336.8 556.7Z" fill="#7d4754" stroke="#adadad"></path><path d="M336.8 556.7L381.3 574.7L349.3 533Z" fill="#753e57" stroke="#adadad"></path><path d="M311.8 582.3L328.3 555L280.3 529.7Z" fill="#888277" stroke="#adadad"></path><path d="M328.3 555L343.5 580.7L336.8 556.7Z" fill="#463067" stroke="#adadad"></path><path d="M330.5 283.7L323.3 305.3L344.3 282Z" fill="#753e57" stroke="#adadad"></path><path d="M330.5 283.7L310.5 289L323.3 305.3Z" fill="#6b375c" stroke="#adadad"></path><path d="M219.3 545.3L225 524.3L191.8 551.3Z" fill="#753e57" stroke="#adadad"></path><path d="M223.3 506.7L225 524.3L264.8 493.7Z" fill="#463067" stroke="#adadad"></path><path d="M344.3 282L323.3 305.3L363 306.7Z" fill="#888277" stroke="#adadad"></path><path d="M293 591L311.8 582.3L280.3 529.7Z" fill="#753e57" stroke="#adadad"></path><path d="M434.8 275L344.3 282L363 306.7Z" fill="#85655a" stroke="#adadad"></path><path d="M308.5 606L360 586.7L343.5 580.7Z" fill="#815153" stroke="#adadad"></path><path d="M343.5 580.7L360 586.7L336.8 556.7Z" fill="#753e57" stroke="#adadad"></path><path d="M503.3 448.7L500.5 438.3L474.8 469.7Z" fill="#86796b" stroke="#adadad"></path><path d="M474.8 469.7L500.5 438.3L457.3 440Z" fill="#7d4754" stroke="#adadad"></path><path d="M478.8 353.7L458.3 327.3L461.8 361Z" fill="#815153" stroke="#adadad"></path><path d="M461.8 361L458.3 327.3L403 368.3Z" fill="#7d4754" stroke="#adadad"></path><path d="M478.8 353.7L461.8 361L486.8 368.3Z" fill="#86796b" stroke="#adadad"></path><path d="M486.8 368.3L461.8 361L477.5 381.3Z" fill="#856f61" stroke="#adadad"></path><path d="M517.3 382.7L486.8 368.3L477.5 381.3Z" fill="#85655a" stroke="#adadad"></path><path d="M495.3 514.7L504.3 549L511 534.3Z" fill="#85655a" stroke="#adadad"></path><path d="M418.8 539.7L482.5 512L428 508Z" fill="#856f61" stroke="#adadad"></path><path d="M520 478.7L503.3 448.7L474.8 469.7Z" fill="#815153" stroke="#adadad"></path><path d="M517.3 382.7L489.5 358L486.8 368.3Z" fill="#463067" stroke="#adadad"></path><path d="M258.8 276.7L256.3 299L291 303Z" fill="#6b375c" stroke="#adadad"></path><path d="M291 303L256.3 299L273.8 348Z" fill="#6b375c" stroke="#adadad"></path><path d="M226.3 383.3L176.5 359.7L219.5 394.3Z" fill="#815153" stroke="#adadad"></path><path d="M219.5 394.3L158 411.7L201.3 438.3Z" fill="#7d4754" stroke="#adadad"></path><path d="M297 277.7L291 303L310.5 289Z" fill="#753e57" stroke="#adadad"></path><path d="M517.3 382.7L477.5 381.3L500.5 438.3Z" fill="#86796b" stroke="#adadad"></path><path d="M486.8 368.3L489.5 358L478.8 353.7Z" fill="#5b3262" stroke="#adadad"></path><path d="M478.8 353.7L476.8 313.7L458.3 327.3Z" fill="#7d4754" stroke="#adadad"></path><path d="M476.8 313.7L452.5 311L458.3 327.3Z" fill="#815153" stroke="#adadad"></path><path d="M458.3 327.3L452.5 311L419 310Z" fill="#5b3262" stroke="#adadad"></path><path d="M419 310L434.8 275L363 306.7Z" fill="#6b375c" stroke="#adadad"></path><path d="M232.3 562L255.8 571L280.3 529.7Z" fill="#835b55" stroke="#adadad"></path><path d="M301.8 267.3L310.5 289L330.5 283.7Z" fill="#463067" stroke="#adadad"></path><path d="M301.8 267.3L297 277.7L310.5 289Z" fill="#856f61" stroke="#adadad"></path><path d="M452.5 311L438.5 298.7L419 310Z" fill="#753e57" stroke="#adadad"></path><path d="M255.8 571L293 591L280.3 529.7Z" fill="#888277" stroke="#adadad"></path><path d="M311.8 582.3L308.5 606L343.5 580.7Z" fill="#856f61" stroke="#adadad"></path><path d="M182.5 498.3L225 524.3L223.3 506.7Z" fill="#463067" stroke="#adadad"></path><path d="M225 524.3L232.3 562L280.3 529.7Z" fill="#888277" stroke="#adadad"></path><path d="M495.3 514.7L497 509L482.5 512Z" fill="#6b375c" stroke="#adadad"></path><path d="M482.5 512L497 509L474.8 469.7Z" fill="#835b55" stroke="#adadad"></path><path d="M442.5 580.3L482.5 512L418.8 539.7Z" fill="#856f61" stroke="#adadad"></path><path d="M442.5 580.3L418.8 539.7L381.3 574.7Z" fill="#753e57" stroke="#adadad"></path><path d="M256.3 299L211.8 328.7L273.8 348Z" fill="#463067" stroke="#adadad"></path><path d="M219.3 545.3L232.3 562L225 524.3Z" fill="#86796b" stroke="#adadad"></path><path d="M287.5 632.3L300 603.7L293 591Z" fill="#463067" stroke="#adadad"></path><path d="M327.8 235L301.8 267.3L330.5 283.7Z" fill="#5b3262" stroke="#adadad"></path><path d="M297 277.7L258.8 276.7L291 303Z" fill="#888277" stroke="#adadad"></path><path d="M256.3 299L203.5 253L211.8 328.7Z" fill="#835b55" stroke="#adadad"></path><path d="M336.3 236.7L330.5 283.7L344.3 282Z" fill="#888277" stroke="#adadad"></path><path d="M441 603L442.5 580.3L381.3 574.7Z" fill="#85655a" stroke="#adadad"></path><path d="M167.5 477L182.5 498.3L201.3 438.3Z" fill="#5b3262" stroke="#adadad"></path><path d="M201.3 438.3L182.5 498.3L223.3 506.7Z" fill="#86796b" stroke="#adadad"></path><path d="M219.3 545.3L191.8 551.3L232.3 562Z" fill="#86796b" stroke="#adadad"></path><path d="M287.5 632.3L293 591L255.8 571Z" fill="#856f61" stroke="#adadad"></path><path d="M293 591L300 603.7L311.8 582.3Z" fill="#86796b" stroke="#adadad"></path><path d="M441 603L467.8 584.3L442.5 580.3Z" fill="#856f61" stroke="#adadad"></path><path d="M300 603.7L308.5 606L311.8 582.3Z" fill="#86796b" stroke="#adadad"></path><path d="M520 478.7L521.5 444.7L503.3 448.7Z" fill="#5b3262" stroke="#adadad"></path><path d="M503.3 448.7L521.5 444.7L500.5 438.3Z" fill="#753e57" stroke="#adadad"></path><path d="M520 478.7L474.8 469.7L497 509Z" fill="#835b55" stroke="#adadad"></path><path d="M521.5 444.7L522.3 438.3L500.5 438.3Z" fill="#815153" stroke="#adadad"></path><path d="M211.8 328.7L194.5 342.3L226.3 383.3Z" fill="#463067" stroke="#adadad"></path><path d="M498 336.7L476.8 313.7L478.8 353.7Z" fill="#815153" stroke="#adadad"></path><path d="M467.3 292.7L434.8 275L438.5 298.7Z" fill="#85655a" stroke="#adadad"></path><path d="M498 336.7L478.8 353.7L489.5 358Z" fill="#463067" stroke="#adadad"></path><path d="M522.3 438.3L517.3 382.7L500.5 438.3Z" fill="#86796b" stroke="#adadad"></path><path d="M511 534.3L520 478.7L497 509Z" fill="#6b375c" stroke="#adadad"></path><path d="M521.5 444.7L546.3 453L522.3 438.3Z" fill="#6b375c" stroke="#adadad"></path><path d="M301.8 267.3L258.8 276.7L297 277.7Z" fill="#835b55" stroke="#adadad"></path><path d="M134.3 317.7L176.5 359.7L194.5 342.3Z" fill="#6b375c" stroke="#adadad"></path><path d="M537.8 349.7L498 336.7L489.5 358Z" fill="#856f61" stroke="#adadad"></path><path d="M467.3 292.7L438.5 298.7L452.5 311Z" fill="#753e57" stroke="#adadad"></path><path d="M438.5 298.7L434.8 275L419 310Z" fill="#888277" stroke="#adadad"></path><path d="M155.5 461.7L167.5 477L201.3 438.3Z" fill="#835b55" stroke="#adadad"></path><path d="M135.8 364.3L176.5 359.7L134.3 317.7Z" fill="#856f61" stroke="#adadad"></path><path d="M194.5 342.3L176.5 359.7L226.3 383.3Z" fill="#5b3262" stroke="#adadad"></path><path d="M508 310.7L467.3 292.7L476.8 313.7Z" fill="#86796b" stroke="#adadad"></path><path d="M476.8 313.7L467.3 292.7L452.5 311Z" fill="#7d4754" stroke="#adadad"></path><path d="M176.5 359.7L158 411.7L219.5 394.3Z" fill="#815153" stroke="#adadad"></path><path d="M158 411.7L155.5 461.7L201.3 438.3Z" fill="#6b375c" stroke="#adadad"></path><path d="M165 510.3L191.8 551.3L182.5 498.3Z" fill="#5b3262" stroke="#adadad"></path><path d="M504.3 549L495.3 514.7L482.5 512Z" fill="#835b55" stroke="#adadad"></path><path d="M495.3 514.7L511 534.3L497 509Z" fill="#6b375c" stroke="#adadad"></path><path d="M165 510.3L182.5 498.3L167.5 477Z" fill="#815153" stroke="#adadad"></path><path d="M182.5 498.3L191.8 551.3L225 524.3Z" fill="#888277" stroke="#adadad"></path><path d="M281.8 648.7L287.5 632.3L253.3 649Z" fill="#856f61" stroke="#adadad"></path><path d="M441 603L429 627.7L435.8 620.3Z" fill="#753e57" stroke="#adadad"></path><path d="M442.5 580.3L467.8 584.3L482.5 512Z" fill="#86796b" stroke="#adadad"></path><path d="M441 603L381.3 574.7L429 627.7Z" fill="#7d4754" stroke="#adadad"></path><path d="M467.8 584.3L504.3 549L482.5 512Z" fill="#888277" stroke="#adadad"></path><path d="M137 498.7L165 510.3L167.5 477Z" fill="#6b375c" stroke="#adadad"></path><path d="M498 336.7L505 320L476.8 313.7Z" fill="#463067" stroke="#adadad"></path><path d="M507.3 317L505 320L527.8 324Z" fill="#463067" stroke="#adadad"></path><path d="M176.5 359.7L151.8 404.3L158 411.7Z" fill="#85655a" stroke="#adadad"></path><path d="M158 411.7L149.8 458L155.5 461.7Z" fill="#888277" stroke="#adadad"></path><path d="M129.3 419.7L149.8 458L158 411.7Z" fill="#888277" stroke="#adadad"></path><path d="M155.5 461.7L139 476L167.5 477Z" fill="#463067" stroke="#adadad"></path><path d="M379.5 215.7L336.3 236.7L344.3 282Z" fill="#86796b" stroke="#adadad"></path><path d="M301.8 267.3L256.3 251L258.8 276.7Z" fill="#7d4754" stroke="#adadad"></path><path d="M527.8 324L505 320L498 336.7Z" fill="#835b55" stroke="#adadad"></path><path d="M505 320L508 310.7L476.8 313.7Z" fill="#856f61" stroke="#adadad"></path><path d="M336.3 236.7L327.8 235L330.5 283.7Z" fill="#463067" stroke="#adadad"></path><path d="M557.8 467.3L546.3 453L520 478.7Z" fill="#835b55" stroke="#adadad"></path><path d="M520 478.7L546.3 453L521.5 444.7Z" fill="#835b55" stroke="#adadad"></path><path d="M522.3 438.3L551 398.3L517.3 382.7Z" fill="#85655a" stroke="#adadad"></path><path d="M527.8 324L508 310.7L507.3 317Z" fill="#7d4754" stroke="#adadad"></path><path d="M298 232.3L256.3 251L301.8 267.3Z" fill="#856f61" stroke="#adadad"></path><path d="M258.8 276.7L212.8 250L256.3 299Z" fill="#856f61" stroke="#adadad"></path><path d="M537.8 349.7L489.5 358L517.3 382.7Z" fill="#5b3262" stroke="#adadad"></path><path d="M507.3 317L508 310.7L505 320Z" fill="#7d4754" stroke="#adadad"></path><path d="M467.3 292.7L431.8 245.3L434.8 275Z" fill="#463067" stroke="#adadad"></path><path d="M287.5 632.3L255.8 571L253.3 649Z" fill="#85655a" stroke="#adadad"></path><path d="M300 603.7L287.5 632.3L308.5 606Z" fill="#7d4754" stroke="#adadad"></path><path d="M389.3 650.3L381.3 574.7L360 586.7Z" fill="#815153" stroke="#adadad"></path><path d="M429 627.7L381.3 574.7L389.3 650.3Z" fill="#856f61" stroke="#adadad"></path><path d="M496.5 610.7L500.3 596.3L467.8 584.3Z" fill="#815153" stroke="#adadad"></path><path d="M467.8 584.3L500.3 596.3L504.3 549Z" fill="#85655a" stroke="#adadad"></path><path d="M327.8 235L298 232.3L301.8 267.3Z" fill="#5b3262" stroke="#adadad"></path><path d="M437 207.3L431.8 245.3L472.5 202.3Z" fill="#753e57" stroke="#adadad"></path><path d="M434.8 275L431.8 245.3L344.3 282Z" fill="#856f61" stroke="#adadad"></path><path d="M336.3 236.7L338.3 221.3L327.8 235Z" fill="#6b375c" stroke="#adadad"></path><path d="M561.5 420.3L551 398.3L522.3 438.3Z" fill="#888277" stroke="#adadad"></path><path d="M551 398.3L537.8 349.7L517.3 382.7Z" fill="#753e57" stroke="#adadad"></path><path d="M389.3 650.3L360 586.7L357.5 673Z" fill="#85655a" stroke="#adadad"></path><path d="M496.5 610.7L467.8 584.3L487.8 620Z" fill="#888277" stroke="#adadad"></path><path d="M149.8 458L139 476L155.5 461.7Z" fill="#86796b" stroke="#adadad"></path><path d="M165 510.3L159.5 562.7L191.8 551.3Z" fill="#815153" stroke="#adadad"></path><path d="M127.8 478.7L139 476L149.8 458Z" fill="#5b3262" stroke="#adadad"></path><path d="M537.8 349.7L527.8 324L498 336.7Z" fill="#463067" stroke="#adadad"></path><path d="M472.5 202.3L431.8 245.3L519 228.3Z" fill="#753e57" stroke="#adadad"></path><path d="M379.5 215.7L338.3 221.3L336.3 236.7Z" fill="#835b55" stroke="#adadad"></path><path d="M306.5 204L292.5 211.3L298 232.3Z" fill="#888277" stroke="#adadad"></path><path d="M389.3 650.3L431.5 630.7L429 627.7Z" fill="#835b55" stroke="#adadad"></path><path d="M429 627.7L431.5 630.7L435.8 620.3Z" fill="#815153" stroke="#adadad"></path><path d="M574.8 496L557.8 467.3L520 478.7Z" fill="#5b3262" stroke="#adadad"></path><path d="M546.3 453L561.5 420.3L522.3 438.3Z" fill="#85655a" stroke="#adadad"></path><path d="M574.8 496L520 478.7L571.5 522Z" fill="#753e57" stroke="#adadad"></path><path d="M573.5 424.7L561.5 420.3L546.3 453Z" fill="#888277" stroke="#adadad"></path><path d="M551 398.3L570.5 351L537.8 349.7Z" fill="#753e57" stroke="#adadad"></path><path d="M126 405.3L129.3 419.7L151.8 404.3Z" fill="#856f61" stroke="#adadad"></path><path d="M151.8 404.3L129.3 419.7L158 411.7Z" fill="#815153" stroke="#adadad"></path><path d="M135.8 364.3L151.8 404.3L176.5 359.7Z" fill="#85655a" stroke="#adadad"></path><path d="M127.8 478.7L137 498.7L139 476Z" fill="#5b3262" stroke="#adadad"></path><path d="M139 476L137 498.7L167.5 477Z" fill="#7d4754" stroke="#adadad"></path><path d="M570.5 351L535 325.3L537.8 349.7Z" fill="#5b3262" stroke="#adadad"></path><path d="M537.8 349.7L535 325.3L527.8 324Z" fill="#5b3262" stroke="#adadad"></path><path d="M527.8 324L561.8 291.3L508 310.7Z" fill="#815153" stroke="#adadad"></path><path d="M357.5 673L360 586.7L308.5 606Z" fill="#86796b" stroke="#adadad"></path><path d="M431.8 245.3L379.5 215.7L344.3 282Z" fill="#5b3262" stroke="#adadad"></path><path d="M178 264.7L194.5 342.3L211.8 328.7Z" fill="#7d4754" stroke="#adadad"></path><path d="M126.8 369L126 405.3L151.8 404.3Z" fill="#7d4754" stroke="#adadad"></path><path d="M108.3 444L127.8 478.7L149.8 458Z" fill="#856f61" stroke="#adadad"></path><path d="M108.3 444L149.8 458L129.3 419.7Z" fill="#815153" stroke="#adadad"></path><path d="M222.3 635.3L255.8 571L232.3 562Z" fill="#856f61" stroke="#adadad"></path><path d="M287.5 632.3L313 666.3L308.5 606Z" fill="#835b55" stroke="#adadad"></path><path d="M195.8 612L232.3 562L191.8 551.3Z" fill="#753e57" stroke="#adadad"></path><path d="M467.8 584.3L441 603L487.8 620Z" fill="#6b375c" stroke="#adadad"></path><path d="M504.3 549L557.8 561.3L511 534.3Z" fill="#7d4754" stroke="#adadad"></path><path d="M129.3 562L165 510.3L137 498.7Z" fill="#86796b" stroke="#adadad"></path><path d="M129.3 562L159.5 562.7L165 510.3Z" fill="#835b55" stroke="#adadad"></path><path d="M248.5 224.7L212.8 250L256.3 251Z" fill="#6b375c" stroke="#adadad"></path><path d="M256.3 251L212.8 250L258.8 276.7Z" fill="#463067" stroke="#adadad"></path><path d="M248.5 224.7L256.3 251L298 232.3Z" fill="#888277" stroke="#adadad"></path><path d="M583 439L573.5 424.7L546.3 453Z" fill="#5b3262" stroke="#adadad"></path><path d="M561.5 420.3L573.5 424.7L551 398.3Z" fill="#463067" stroke="#adadad"></path><path d="M107 360L126.8 369L113.5 341Z" fill="#888277" stroke="#adadad"></path><path d="M135.8 364.3L126.8 369L151.8 404.3Z" fill="#753e57" stroke="#adadad"></path><path d="M500.3 596.3L519.3 583.3L504.3 549Z" fill="#7d4754" stroke="#adadad"></path><path d="M557.8 467.3L583 439L546.3 453Z" fill="#7d4754" stroke="#adadad"></path><path d="M306.5 204L327.8 235L338.3 221.3Z" fill="#856f61" stroke="#adadad"></path><path d="M306.5 204L298 232.3L327.8 235Z" fill="#6b375c" stroke="#adadad"></path><path d="M200.5 222L203.5 253L212.8 250Z" fill="#888277" stroke="#adadad"></path><path d="M212.8 250L203.5 253L256.3 299Z" fill="#888277" stroke="#adadad"></path><path d="M292.5 211.3L248.5 224.7L298 232.3Z" fill="#463067" stroke="#adadad"></path><path d="M487.8 620L441 603L470.5 634Z" fill="#7d4754" stroke="#adadad"></path><path d="M500.3 596.3L496.5 610.7L519.3 583.3Z" fill="#815153" stroke="#adadad"></path><path d="M441 603L435.8 620.3L470.5 634Z" fill="#815153" stroke="#adadad"></path><path d="M182.5 604L195.8 612L191.8 551.3Z" fill="#856f61" stroke="#adadad"></path><path d="M387.3 197L306.5 204L338.3 221.3Z" fill="#888277" stroke="#adadad"></path><path d="M292.5 211.3L247 219L248.5 224.7Z" fill="#753e57" stroke="#adadad"></path><path d="M222.3 635.3L253.3 649L255.8 571Z" fill="#463067" stroke="#adadad"></path><path d="M281.8 648.7L313 666.3L287.5 632.3Z" fill="#856f61" stroke="#adadad"></path><path d="M470.5 634L435.8 620.3L431.5 630.7Z" fill="#7d4754" stroke="#adadad"></path><path d="M431.8 245.3L386.3 203.7L379.5 215.7Z" fill="#835b55" stroke="#adadad"></path><path d="M379.5 215.7L387.3 197L338.3 221.3Z" fill="#815153" stroke="#adadad"></path><path d="M387.3 197L386.3 203.7L426.5 183.3Z" fill="#753e57" stroke="#adadad"></path><path d="M126.8 369L113.5 403.3L126 405.3Z" fill="#815153" stroke="#adadad"></path><path d="M126 405.3L111.3 422.3L129.3 419.7Z" fill="#753e57" stroke="#adadad"></path><path d="M285.3 686.7L313 666.3L281.8 648.7Z" fill="#835b55" stroke="#adadad"></path><path d="M113.5 403.3L111.3 422.3L126 405.3Z" fill="#6b375c" stroke="#adadad"></path><path d="M159.5 562.7L182.5 604L191.8 551.3Z" fill="#835b55" stroke="#adadad"></path><path d="M195.8 612L222.3 635.3L232.3 562Z" fill="#85655a" stroke="#adadad"></path><path d="M435.5 653L470.5 634L431.5 630.7Z" fill="#856f61" stroke="#adadad"></path><path d="M435.5 653L431.5 630.7L389.3 650.3Z" fill="#5b3262" stroke="#adadad"></path><path d="M174.5 658.3L222.3 635.3L195.8 612Z" fill="#835b55" stroke="#adadad"></path><path d="M402.3 682.7L435.5 653L389.3 650.3Z" fill="#7d4754" stroke="#adadad"></path><path d="M240.3 217.7L239.3 148.7L216.5 199.3Z" fill="#753e57" stroke="#adadad"></path><path d="M248.5 224.7L240.3 217.7L212.8 250Z" fill="#7d4754" stroke="#adadad"></path><path d="M571.5 522L520 478.7L511 534.3Z" fill="#753e57" stroke="#adadad"></path><path d="M606.3 484.3L583 439L557.8 467.3Z" fill="#6b375c" stroke="#adadad"></path><path d="M582.8 365L570.5 351L551 398.3Z" fill="#835b55" stroke="#adadad"></path><path d="M73.5 463.7L108.3 444L111.3 422.3Z" fill="#815153" stroke="#adadad"></path><path d="M111.3 422.3L108.3 444L129.3 419.7Z" fill="#463067" stroke="#adadad"></path><path d="M106.5 523L129.3 562L137 498.7Z" fill="#86796b" stroke="#adadad"></path><path d="M325.8 679.3L331.8 672L313 666.3Z" fill="#463067" stroke="#adadad"></path><path d="M313 666.3L331.8 672L308.5 606Z" fill="#753e57" stroke="#adadad"></path><path d="M163.8 244.7L178 264.7L203.5 253Z" fill="#753e57" stroke="#adadad"></path><path d="M203.5 253L178 264.7L211.8 328.7Z" fill="#463067" stroke="#adadad"></path><path d="M331.8 672L357.5 673L308.5 606Z" fill="#888277" stroke="#adadad"></path><path d="M582.8 365L551 398.3L573.5 424.7Z" fill="#856f61" stroke="#adadad"></path><path d="M437 207.3L386.3 203.7L431.8 245.3Z" fill="#753e57" stroke="#adadad"></path><path d="M357.5 673L382 671.3L389.3 650.3Z" fill="#835b55" stroke="#adadad"></path><path d="M467.3 292.7L519 228.3L431.8 245.3Z" fill="#463067" stroke="#adadad"></path><path d="M386.3 203.7L387.3 197L379.5 215.7Z" fill="#7d4754" stroke="#adadad"></path><path d="M240.3 217.7L247 219L239.3 148.7Z" fill="#835b55" stroke="#adadad"></path><path d="M247 219L240.3 217.7L248.5 224.7Z" fill="#888277" stroke="#adadad"></path><path d="M496.5 610.7L534 585L519.3 583.3Z" fill="#835b55" stroke="#adadad"></path><path d="M519.3 583.3L534 585L504.3 549Z" fill="#753e57" stroke="#adadad"></path><path d="M543.8 586.7L534 585L550.3 637.7Z" fill="#815153" stroke="#adadad"></path><path d="M495 631.7L496.5 610.7L487.8 620Z" fill="#463067" stroke="#adadad"></path><path d="M178 264.7L134.3 317.7L194.5 342.3Z" fill="#888277" stroke="#adadad"></path><path d="M126.8 369L100 379.3L113.5 403.3Z" fill="#835b55" stroke="#adadad"></path><path d="M557.8 561.3L571.5 522L511 534.3Z" fill="#835b55" stroke="#adadad"></path><path d="M574.8 496L606.3 484.3L557.8 467.3Z" fill="#86796b" stroke="#adadad"></path><path d="M357 684.3L376 675L357.5 673Z" fill="#5b3262" stroke="#adadad"></path><path d="M357.5 673L376 675L382 671.3Z" fill="#6b375c" stroke="#adadad"></path><path d="M465.5 659.3L468.8 653L435.5 653Z" fill="#6b375c" stroke="#adadad"></path><path d="M561.8 291.3L527.8 324L535 325.3Z" fill="#7d4754" stroke="#adadad"></path><path d="M327.5 682.3L325.8 679.3L285.3 686.7Z" fill="#7d4754" stroke="#adadad"></path><path d="M331.8 672L357 684.3L357.5 673Z" fill="#888277" stroke="#adadad"></path><path d="M627.5 409L582.8 365L573.5 424.7Z" fill="#463067" stroke="#adadad"></path><path d="M534 585L557.8 561.3L504.3 549Z" fill="#856f61" stroke="#adadad"></path><path d="M468.8 653L495 631.7L470.5 634Z" fill="#888277" stroke="#adadad"></path><path d="M470.5 634L495 631.7L487.8 620Z" fill="#815153" stroke="#adadad"></path><path d="M534 585L545.8 581.3L557.8 561.3Z" fill="#85655a" stroke="#adadad"></path><path d="M468.8 653L470.5 634L435.5 653Z" fill="#7d4754" stroke="#adadad"></path><path d="M543.8 586.7L545.8 581.3L534 585Z" fill="#753e57" stroke="#adadad"></path><path d="M285.3 686.7L325.8 679.3L313 666.3Z" fill="#86796b" stroke="#adadad"></path><path d="M325.8 679.3L327.5 682.3L331.8 672Z" fill="#6b375c" stroke="#adadad"></path><path d="M260 677.7L281.8 648.7L253.3 649Z" fill="#85655a" stroke="#adadad"></path><path d="M102.3 328.3L120.3 328.7L104 316Z" fill="#888277" stroke="#adadad"></path><path d="M134.3 317.7L120.3 328.7L135.8 364.3Z" fill="#463067" stroke="#adadad"></path><path d="M113.5 403.3L47.8 405.7L111.3 422.3Z" fill="#835b55" stroke="#adadad"></path><path d="M545.8 581.3L559.5 562.7L557.8 561.3Z" fill="#6b375c" stroke="#adadad"></path><path d="M557.8 561.3L582 556.7L571.5 522Z" fill="#888277" stroke="#adadad"></path><path d="M550.3 637.7L534 585L496.5 610.7Z" fill="#86796b" stroke="#adadad"></path><path d="M545.8 581.3L582 556.7L559.5 562.7Z" fill="#753e57" stroke="#adadad"></path><path d="M113.5 341L126.8 369L135.8 364.3Z" fill="#5b3262" stroke="#adadad"></path><path d="M120.3 328.7L113.5 341L135.8 364.3Z" fill="#835b55" stroke="#adadad"></path><path d="M327.5 682.3L357 684.3L331.8 672Z" fill="#5b3262" stroke="#adadad"></path><path d="M402.3 682.7L389.3 650.3L382 671.3Z" fill="#815153" stroke="#adadad"></path><path d="M402.3 682.7L382 671.3L376 675Z" fill="#753e57" stroke="#adadad"></path><path d="M106.5 523L137 498.7L127.8 478.7Z" fill="#5b3262" stroke="#adadad"></path><path d="M159.5 562.7L155 601L182.5 604Z" fill="#86796b" stroke="#adadad"></path><path d="M129.3 562L131.8 566.7L159.5 562.7Z" fill="#815153" stroke="#adadad"></path><path d="M182.5 604L159.8 612.3L195.8 612Z" fill="#815153" stroke="#adadad"></path><path d="M56.8 351L100 379.3L107 360Z" fill="#835b55" stroke="#adadad"></path><path d="M107 360L100 379.3L126.8 369Z" fill="#835b55" stroke="#adadad"></path><path d="M131.8 566.7L155 601L159.5 562.7Z" fill="#85655a" stroke="#adadad"></path><path d="M377 727.7L402.3 682.7L376 675Z" fill="#6b375c" stroke="#adadad"></path><path d="M462.8 685.7L465.5 659.3L435.5 653Z" fill="#86796b" stroke="#adadad"></path><path d="M468.8 653L485.3 685L495 631.7Z" fill="#7d4754" stroke="#adadad"></path><path d="M615.5 564.3L582 556.7L615.8 636Z" fill="#753e57" stroke="#adadad"></path><path d="M73.5 463.7L127.8 478.7L108.3 444Z" fill="#6b375c" stroke="#adadad"></path><path d="M73.5 463.7L106.5 523L127.8 478.7Z" fill="#815153" stroke="#adadad"></path><path d="M83.8 564.7L140 602.7L131.8 566.7Z" fill="#7d4754" stroke="#adadad"></path><path d="M240.3 217.7L200.5 222L212.8 250Z" fill="#85655a" stroke="#adadad"></path><path d="M178 264.7L128.3 265L134.3 317.7Z" fill="#463067" stroke="#adadad"></path><path d="M216.5 199.3L200.5 222L240.3 217.7Z" fill="#86796b" stroke="#adadad"></path><path d="M155 601L159.8 612.3L182.5 604Z" fill="#815153" stroke="#adadad"></path><path d="M203.3 688.3L260 677.7L253.3 649Z" fill="#86796b" stroke="#adadad"></path><path d="M140 602.7L159.8 612.3L155 601Z" fill="#7d4754" stroke="#adadad"></path><path d="M203.3 688.3L253.3 649L222.3 635.3Z" fill="#856f61" stroke="#adadad"></path><path d="M628.5 349.7L561.8 291.3L570.5 351Z" fill="#463067" stroke="#adadad"></path><path d="M570.5 351L561.8 291.3L535 325.3Z" fill="#86796b" stroke="#adadad"></path><path d="M260 677.7L285.3 686.7L281.8 648.7Z" fill="#856f61" stroke="#adadad"></path><path d="M327.5 682.3L347.5 707.7L357 684.3Z" fill="#6b375c" stroke="#adadad"></path><path d="M426.5 183.3L399.8 180L387.3 197Z" fill="#753e57" stroke="#adadad"></path><path d="M387.3 197L366 111L306.5 204Z" fill="#856f61" stroke="#adadad"></path><path d="M239.3 148.7L247 219L292.5 211.3Z" fill="#7d4754" stroke="#adadad"></path><path d="M426.5 183.3L386.3 203.7L437 207.3Z" fill="#7d4754" stroke="#adadad"></path><path d="M200.5 222L163.8 244.7L203.5 253Z" fill="#86796b" stroke="#adadad"></path><path d="M120.3 328.7L102.3 328.3L113.5 341Z" fill="#463067" stroke="#adadad"></path><path d="M432 177.7L426.5 183.3L437 207.3Z" fill="#6b375c" stroke="#adadad"></path><path d="M519 228.3L467.3 292.7L508 310.7Z" fill="#835b55" stroke="#adadad"></path><path d="M426.5 183.3L406.8 176.3L399.8 180Z" fill="#888277" stroke="#adadad"></path><path d="M366 111L268.8 140.3L306.5 204Z" fill="#86796b" stroke="#adadad"></path><path d="M597.3 525.3L574.8 496L571.5 522Z" fill="#86796b" stroke="#adadad"></path><path d="M605.8 509.7L606.3 484.3L574.8 496Z" fill="#5b3262" stroke="#adadad"></path><path d="M583 439L627.5 409L573.5 424.7Z" fill="#86796b" stroke="#adadad"></path><path d="M113.5 341L102.3 328.3L107 360Z" fill="#85655a" stroke="#adadad"></path><path d="M104 316L120.3 328.7L134.3 317.7Z" fill="#86796b" stroke="#adadad"></path><path d="M83.8 564.7L131.8 566.7L129.3 562Z" fill="#6b375c" stroke="#adadad"></path><path d="M131.8 566.7L140 602.7L155 601Z" fill="#86796b" stroke="#adadad"></path><path d="M170.5 656.7L174.5 658.3L163.5 651Z" fill="#835b55" stroke="#adadad"></path><path d="M543.8 586.7L582 556.7L545.8 581.3Z" fill="#86796b" stroke="#adadad"></path><path d="M559.5 562.7L582 556.7L557.8 561.3Z" fill="#7d4754" stroke="#adadad"></path><path d="M550.3 637.7L496.5 610.7L495 631.7Z" fill="#856f61" stroke="#adadad"></path><path d="M582 556.7L597.3 525.3L571.5 522Z" fill="#86796b" stroke="#adadad"></path><path d="M193.8 192L216.5 199.3L239.3 148.7Z" fill="#5b3262" stroke="#adadad"></path><path d="M200.5 222L193.3 202.3L163.8 244.7Z" fill="#888277" stroke="#adadad"></path><path d="M96 282.3L104 316L134.3 317.7Z" fill="#856f61" stroke="#adadad"></path><path d="M554.3 241.3L519 228.3L508 310.7Z" fill="#815153" stroke="#adadad"></path><path d="M426.5 183.3L420.5 170L406.8 176.3Z" fill="#6b375c" stroke="#adadad"></path><path d="M472.5 202.3L432 177.7L437 207.3Z" fill="#835b55" stroke="#adadad"></path><path d="M420.5 170L449 153L418.3 152.3Z" fill="#5b3262" stroke="#adadad"></path><path d="M597.3 525.3L605.8 509.7L574.8 496Z" fill="#85655a" stroke="#adadad"></path><path d="M636.3 475.7L605.8 509.7L651.3 541Z" fill="#5b3262" stroke="#adadad"></path><path d="M340.8 712.3L347.5 707.7L327.5 682.3Z" fill="#7d4754" stroke="#adadad"></path><path d="M357 684.3L377 727.7L376 675Z" fill="#835b55" stroke="#adadad"></path><path d="M402.3 682.7L462.8 685.7L435.5 653Z" fill="#85655a" stroke="#adadad"></path><path d="M77.5 327.7L107 360L102.3 328.3Z" fill="#7d4754" stroke="#adadad"></path><path d="M47.8 405.7L113.5 403.3L100 379.3Z" fill="#835b55" stroke="#adadad"></path><path d="M47.8 405.7L73.5 463.7L111.3 422.3Z" fill="#85655a" stroke="#adadad"></path><path d="M106.5 523L83.3 545L129.3 562Z" fill="#856f61" stroke="#adadad"></path><path d="M420.5 170L432 177.7L449 153Z" fill="#463067" stroke="#adadad"></path><path d="M432 177.7L420.5 170L426.5 183.3Z" fill="#463067" stroke="#adadad"></path><path d="M268.8 140.3L292.5 211.3L306.5 204Z" fill="#7d4754" stroke="#adadad"></path><path d="M163.8 244.7L128.3 265L178 264.7Z" fill="#753e57" stroke="#adadad"></path><path d="M130 228L128.3 265L163.8 244.7Z" fill="#86796b" stroke="#adadad"></path><path d="M420.8 766.3L462.8 685.7L402.3 682.7Z" fill="#815153" stroke="#adadad"></path><path d="M465.5 659.3L485.3 685L468.8 653Z" fill="#463067" stroke="#adadad"></path><path d="M193.8 192L193.3 202.3L216.5 199.3Z" fill="#6b375c" stroke="#adadad"></path><path d="M216.5 199.3L193.3 202.3L200.5 222Z" fill="#86796b" stroke="#adadad"></path><path d="M310 722L340.8 712.3L327.5 682.3Z" fill="#753e57" stroke="#adadad"></path><path d="M347.5 707.7L377 727.7L357 684.3Z" fill="#856f61" stroke="#adadad"></path><path d="M347.3 722L340.8 712.3L310 722Z" fill="#463067" stroke="#adadad"></path><path d="M174.5 658.3L195.8 612L163.5 651Z" fill="#6b375c" stroke="#adadad"></path><path d="M310 722L327.5 682.3L285.3 686.7Z" fill="#815153" stroke="#adadad"></path><path d="M636.3 475.7L627.5 409L583 439Z" fill="#85655a" stroke="#adadad"></path><path d="M582.8 365L628.5 349.7L570.5 351Z" fill="#856f61" stroke="#adadad"></path><path d="M636.3 475.7L583 439L606.3 484.3Z" fill="#463067" stroke="#adadad"></path><path d="M163.5 651L195.8 612L159.8 612.3Z" fill="#856f61" stroke="#adadad"></path><path d="M123 633.3L163.5 651L159.8 612.3Z" fill="#856f61" stroke="#adadad"></path><path d="M561.8 291.3L554.3 241.3L508 310.7Z" fill="#753e57" stroke="#adadad"></path><path d="M449 153L432 177.7L472.5 202.3Z" fill="#5b3262" stroke="#adadad"></path><path d="M581 235L554.3 241.3L561.8 291.3Z" fill="#5b3262" stroke="#adadad"></path><path d="M68.5 520.3L83.3 545L106.5 523Z" fill="#6b375c" stroke="#adadad"></path><path d="M164 668L166.8 662L163.5 651Z" fill="#7d4754" stroke="#adadad"></path><path d="M418.3 152.3L399.8 180L406.8 176.3Z" fill="#753e57" stroke="#adadad"></path><path d="M154.8 202.3L130 228L163.8 244.7Z" fill="#835b55" stroke="#adadad"></path><path d="M518 696L485.3 685L492.5 720.7Z" fill="#463067" stroke="#adadad"></path><path d="M462.8 685.7L485.3 685L465.5 659.3Z" fill="#86796b" stroke="#adadad"></path><path d="M310 722L285.3 686.7L267 729.7Z" fill="#888277" stroke="#adadad"></path><path d="M340.8 712.3L347.3 722L347.5 707.7Z" fill="#463067" stroke="#adadad"></path><path d="M545 670.3L550.3 637.7L495 631.7Z" fill="#856f61" stroke="#adadad"></path><path d="M651.3 541L605.8 509.7L597.3 525.3Z" fill="#463067" stroke="#adadad"></path><path d="M62.8 317.3L77.5 327.7L104 316Z" fill="#888277" stroke="#adadad"></path><path d="M104 316L77.5 327.7L102.3 328.3Z" fill="#835b55" stroke="#adadad"></path><path d="M170.5 656.7L166.8 662L174.5 658.3Z" fill="#815153" stroke="#adadad"></path><path d="M174.5 658.3L203.3 688.3L222.3 635.3Z" fill="#7d4754" stroke="#adadad"></path><path d="M163.5 651L166.8 662L170.5 656.7Z" fill="#815153" stroke="#adadad"></path><path d="M164 668L163.5 651L123 633.3Z" fill="#835b55" stroke="#adadad"></path><path d="M267 729.7L285.3 686.7L260 677.7Z" fill="#856f61" stroke="#adadad"></path><path d="M73.5 463.7L68.5 520.3L106.5 523Z" fill="#815153" stroke="#adadad"></path><path d="M57.8 543L68.5 520.3L10.8 479.7Z" fill="#753e57" stroke="#adadad"></path><path d="M449 153L483.3 137.7L479.8 136.7Z" fill="#753e57" stroke="#adadad"></path><path d="M420.5 170L418.3 152.3L406.8 176.3Z" fill="#85655a" stroke="#adadad"></path><path d="M189.5 696.3L203.3 688.3L174.5 658.3Z" fill="#815153" stroke="#adadad"></path><path d="M75.3 226.3L96 282.3L128.3 265Z" fill="#815153" stroke="#adadad"></path><path d="M128.3 265L96 282.3L134.3 317.7Z" fill="#856f61" stroke="#adadad"></path><path d="M68.8 559L83.8 564.7L83.3 545Z" fill="#5b3262" stroke="#adadad"></path><path d="M83.3 545L83.8 564.7L129.3 562Z" fill="#85655a" stroke="#adadad"></path><path d="M615.5 564.3L597.3 525.3L582 556.7Z" fill="#85655a" stroke="#adadad"></path><path d="M605.8 509.7L636.3 475.7L606.3 484.3Z" fill="#815153" stroke="#adadad"></path><path d="M376.5 743.7L377 727.7L347.3 722Z" fill="#6b375c" stroke="#adadad"></path><path d="M347.3 722L377 727.7L347.5 707.7Z" fill="#6b375c" stroke="#adadad"></path><path d="M637.5 365.3L582.8 365L627.5 409Z" fill="#86796b" stroke="#adadad"></path><path d="M637.5 365.3L628.5 349.7L582.8 365Z" fill="#888277" stroke="#adadad"></path><path d="M123 633.3L159.8 612.3L140 602.7Z" fill="#7d4754" stroke="#adadad"></path><path d="M166.8 662L164 668L174.5 658.3Z" fill="#86796b" stroke="#adadad"></path><path d="M154.8 202.3L163.8 244.7L193.3 202.3Z" fill="#856f61" stroke="#adadad"></path><path d="M73.8 607.3L123 633.3L140 602.7Z" fill="#5b3262" stroke="#adadad"></path><path d="M39.5 380L47.8 405.7L100 379.3Z" fill="#5b3262" stroke="#adadad"></path><path d="M615.8 636L582 556.7L543.8 586.7Z" fill="#815153" stroke="#adadad"></path><path d="M521.5 189.7L472.5 202.3L519 228.3Z" fill="#7d4754" stroke="#adadad"></path><path d="M660.3 391.7L637.5 365.3L627.5 409Z" fill="#835b55" stroke="#adadad"></path><path d="M193.8 192L154.8 202.3L193.3 202.3Z" fill="#5b3262" stroke="#adadad"></path><path d="M62.8 317.3L56.8 351L77.5 327.7Z" fill="#7d4754" stroke="#adadad"></path><path d="M77.5 327.7L56.8 351L107 360Z" fill="#815153" stroke="#adadad"></path><path d="M553.8 215.3L519 228.3L554.3 241.3Z" fill="#888277" stroke="#adadad"></path><path d="M553.8 215.3L521.5 189.7L519 228.3Z" fill="#888277" stroke="#adadad"></path><path d="M581 235L561.8 291.3L618.8 257.7Z" fill="#7d4754" stroke="#adadad"></path><path d="M581 235L553.8 215.3L554.3 241.3Z" fill="#753e57" stroke="#adadad"></path><path d="M57.8 543L83.3 545L68.5 520.3Z" fill="#86796b" stroke="#adadad"></path><path d="M57.8 543L68.8 559L83.3 545Z" fill="#463067" stroke="#adadad"></path><path d="M83.8 564.7L73.8 607.3L140 602.7Z" fill="#5b3262" stroke="#adadad"></path><path d="M251 142L268.8 140.3L260.8 118.7Z" fill="#86796b" stroke="#adadad"></path><path d="M366 111L387.3 197L399.8 180Z" fill="#85655a" stroke="#adadad"></path><path d="M193.8 192L150 190.7L154.8 202.3Z" fill="#6b375c" stroke="#adadad"></path><path d="M268.8 140.3L239.3 148.7L292.5 211.3Z" fill="#85655a" stroke="#adadad"></path><path d="M68.8 559L72.5 569.7L83.8 564.7Z" fill="#888277" stroke="#adadad"></path><path d="M195.8 708.7L189.5 696.3L176 701.7Z" fill="#6b375c" stroke="#adadad"></path><path d="M164 668L189.5 696.3L174.5 658.3Z" fill="#835b55" stroke="#adadad"></path><path d="M205.5 715.7L267 729.7L260 677.7Z" fill="#85655a" stroke="#adadad"></path><path d="M205.5 715.7L260 677.7L203.3 688.3Z" fill="#86796b" stroke="#adadad"></path><path d="M323.3 757.3L376.5 743.7L347.3 722Z" fill="#835b55" stroke="#adadad"></path><path d="M96 282.3L62.8 317.3L104 316Z" fill="#85655a" stroke="#adadad"></path><path d="M57.8 271.3L62.8 317.3L96 282.3Z" fill="#463067" stroke="#adadad"></path><path d="M268.8 140.3L251 142L239.3 148.7Z" fill="#753e57" stroke="#adadad"></path><path d="M10.8 479.7L68.5 520.3L73.5 463.7Z" fill="#463067" stroke="#adadad"></path><path d="M68.8 559L59.8 566.3L72.5 569.7Z" fill="#888277" stroke="#adadad"></path><path d="M618.8 257.7L561.8 291.3L628.5 349.7Z" fill="#86796b" stroke="#adadad"></path><path d="M567 179.3L527.3 168L521.5 189.7Z" fill="#753e57" stroke="#adadad"></path><path d="M518 696L545 670.3L495 631.7Z" fill="#85655a" stroke="#adadad"></path><path d="M652.5 582L658.3 555.7L615.5 564.3Z" fill="#463067" stroke="#adadad"></path><path d="M518 696L495 631.7L485.3 685Z" fill="#463067" stroke="#adadad"></path><path d="M56.8 351L39.5 380L100 379.3Z" fill="#835b55" stroke="#adadad"></path><path d="M0 546.3L51.3 556.3L57.8 543Z" fill="#7d4754" stroke="#adadad"></path><path d="M29.8 387.3L39.5 380L33.5 341.3Z" fill="#856f61" stroke="#adadad"></path><path d="M323.3 757.3L347.3 722L310 722Z" fill="#753e57" stroke="#adadad"></path><path d="M468.5 754.3L481.8 743.7L462.8 685.7Z" fill="#888277" stroke="#adadad"></path><path d="M154.8 202.3L134.8 201.7L130 228Z" fill="#888277" stroke="#adadad"></path><path d="M75.3 226.3L57.8 271.3L96 282.3Z" fill="#6b375c" stroke="#adadad"></path><path d="M148.3 180L150 190.7L193.8 192Z" fill="#888277" stroke="#adadad"></path><path d="M148.3 180L193.8 192L164.8 133.3Z" fill="#753e57" stroke="#adadad"></path><path d="M189.5 696.3L195.8 708.7L203.3 688.3Z" fill="#6b375c" stroke="#adadad"></path><path d="M176 701.7L189.5 696.3L164 668Z" fill="#856f61" stroke="#adadad"></path><path d="M492.5 720.7L485.3 685L462.8 685.7Z" fill="#888277" stroke="#adadad"></path><path d="M260.8 118.7L246.5 136.7L251 142Z" fill="#815153" stroke="#adadad"></path><path d="M251 142L246.5 136.7L239.3 148.7Z" fill="#815153" stroke="#adadad"></path><path d="M374.5 112.3L399.8 180L418.3 152.3Z" fill="#86796b" stroke="#adadad"></path><path d="M150 190.7L134.8 201.7L154.8 202.3Z" fill="#753e57" stroke="#adadad"></path><path d="M195.8 708.7L205.5 715.7L203.3 688.3Z" fill="#6b375c" stroke="#adadad"></path><path d="M51.3 556.3L68.8 559L57.8 543Z" fill="#856f61" stroke="#adadad"></path><path d="M51.3 556.3L59.8 566.3L68.8 559Z" fill="#815153" stroke="#adadad"></path><path d="M72.5 569.7L73.8 607.3L83.8 564.7Z" fill="#5b3262" stroke="#adadad"></path><path d="M98.5 649L164 668L123 633.3Z" fill="#463067" stroke="#adadad"></path><path d="M134 715.7L176 701.7L164 668Z" fill="#6b375c" stroke="#adadad"></path><path d="M176 757L220.3 754L205.5 715.7Z" fill="#888277" stroke="#adadad"></path><path d="M675 405.3L660.3 391.7L627.5 409Z" fill="#753e57" stroke="#adadad"></path><path d="M637.5 365.3L650.3 334.3L628.5 349.7Z" fill="#5b3262" stroke="#adadad"></path><path d="M675 446.7L627.5 409L636.3 475.7Z" fill="#5b3262" stroke="#adadad"></path><path d="M10.8 479.7L73.5 463.7L0 450Z" fill="#5b3262" stroke="#adadad"></path><path d="M33.5 341.3L39.5 380L56.8 351Z" fill="#856f61" stroke="#adadad"></path><path d="M39.5 380L29.8 387.3L47.8 405.7Z" fill="#6b375c" stroke="#adadad"></path><path d="M479.8 136.7L437.5 128L449 153Z" fill="#86796b" stroke="#adadad"></path><path d="M449 153L437.5 128L418.3 152.3Z" fill="#463067" stroke="#adadad"></path><path d="M675 355.3L650.3 334.3L637.5 365.3Z" fill="#463067" stroke="#adadad"></path><path d="M481.8 743.7L492.5 720.7L462.8 685.7Z" fill="#7d4754" stroke="#adadad"></path><path d="M613.5 642.7L550.3 637.7L577.8 688.7Z" fill="#856f61" stroke="#adadad"></path><path d="M189.3 122.3L193.8 192L239.3 148.7Z" fill="#7d4754" stroke="#adadad"></path><path d="M150 190.7L148.3 180L134.8 201.7Z" fill="#815153" stroke="#adadad"></path><path d="M660.3 391.7L663.3 380L637.5 365.3Z" fill="#856f61" stroke="#adadad"></path><path d="M526.8 158.3L527.3 168L567 179.3Z" fill="#7d4754" stroke="#adadad"></path><path d="M483.3 137.7L449 153L472.5 202.3Z" fill="#86796b" stroke="#adadad"></path><path d="M68.3 610.7L73.8 607.3L59.8 566.3Z" fill="#463067" stroke="#adadad"></path><path d="M59.8 566.3L73.8 607.3L72.5 569.7Z" fill="#856f61" stroke="#adadad"></path><path d="M381.5 102.7L374.5 112.3L425 106.7Z" fill="#5b3262" stroke="#adadad"></path><path d="M658.3 555.7L651.3 541L615.5 564.3Z" fill="#85655a" stroke="#adadad"></path><path d="M615.5 564.3L651.3 541L597.3 525.3Z" fill="#753e57" stroke="#adadad"></path><path d="M660.3 391.7L675 377L663.3 380Z" fill="#815153" stroke="#adadad"></path><path d="M313.8 758.7L310 722L267 729.7Z" fill="#753e57" stroke="#adadad"></path><path d="M313.8 758.7L323.3 757.3L310 722Z" fill="#835b55" stroke="#adadad"></path><path d="M420.8 766.3L402.3 682.7L377 727.7Z" fill="#856f61" stroke="#adadad"></path><path d="M374.5 112.3L366 111L399.8 180Z" fill="#888277" stroke="#adadad"></path><path d="M650.3 334.3L618.8 257.7L628.5 349.7Z" fill="#6b375c" stroke="#adadad"></path><path d="M567 179.3L521.5 189.7L553.8 215.3Z" fill="#815153" stroke="#adadad"></path><path d="M254 750.3L267 729.7L205.5 715.7Z" fill="#86796b" stroke="#adadad"></path><path d="M254 750.3L262.8 749L267 729.7Z" fill="#86796b" stroke="#adadad"></path><path d="M21.5 302.7L33.5 341.3L62.8 317.3Z" fill="#815153" stroke="#adadad"></path><path d="M62.8 317.3L33.5 341.3L56.8 351Z" fill="#856f61" stroke="#adadad"></path><path d="M128.3 265L130 228L75.3 226.3Z" fill="#7d4754" stroke="#adadad"></path><path d="M262.8 749L313.8 758.7L267 729.7Z" fill="#856f61" stroke="#adadad"></path><path d="M483.3 137.7L472.5 202.3L515 149.7Z" fill="#5b3262" stroke="#adadad"></path><path d="M425 106.7L374.5 112.3L418.3 152.3Z" fill="#5b3262" stroke="#adadad"></path><path d="M261 106.3L260.8 118.7L314.8 79Z" fill="#86796b" stroke="#adadad"></path><path d="M246.5 136.7L244 121.7L239.3 148.7Z" fill="#856f61" stroke="#adadad"></path><path d="M515 149.7L472.5 202.3L521.5 189.7Z" fill="#888277" stroke="#adadad"></path><path d="M73.8 607.3L98.5 649L123 633.3Z" fill="#888277" stroke="#adadad"></path><path d="M260.8 118.7L244 121.7L246.5 136.7Z" fill="#7d4754" stroke="#adadad"></path><path d="M48.5 640.7L68.3 610.7L0 574Z" fill="#5b3262" stroke="#adadad"></path><path d="M73.8 607.3L86.3 649.3L98.5 649Z" fill="#6b375c" stroke="#adadad"></path><path d="M256 753L254 750.3L220.3 754Z" fill="#86796b" stroke="#adadad"></path><path d="M262.8 749L262.3 793.7L313.8 758.7Z" fill="#835b55" stroke="#adadad"></path><path d="M675 537.3L675 446.7L636.3 475.7Z" fill="#5b3262" stroke="#adadad"></path><path d="M567 179.3L553.8 215.3L581 235Z" fill="#815153" stroke="#adadad"></path><path d="M527.3 168L515 149.7L521.5 189.7Z" fill="#85655a" stroke="#adadad"></path><path d="M675 446.7L675 405.3L627.5 409Z" fill="#753e57" stroke="#adadad"></path><path d="M663.3 380L675 355.3L637.5 365.3Z" fill="#6b375c" stroke="#adadad"></path><path d="M109.5 191.3L130 228L134.8 201.7Z" fill="#835b55" stroke="#adadad"></path><path d="M220.3 754L254 750.3L205.5 715.7Z" fill="#7d4754" stroke="#adadad"></path><path d="M254 750.3L256 753L262.8 749Z" fill="#86796b" stroke="#adadad"></path><path d="M526.8 158.3L515 149.7L527.3 168Z" fill="#7d4754" stroke="#adadad"></path><path d="M374.5 112.3L381.5 102.7L366 111Z" fill="#85655a" stroke="#adadad"></path><path d="M314.8 79L260.8 118.7L268.8 140.3Z" fill="#6b375c" stroke="#adadad"></path><path d="M425 106.7L418.3 152.3L437.5 128Z" fill="#86796b" stroke="#adadad"></path><path d="M425 106.7L437.5 128L460.5 97.7Z" fill="#463067" stroke="#adadad"></path><path d="M675 405.3L675 377L660.3 391.7Z" fill="#835b55" stroke="#adadad"></path><path d="M619.3 234L612.5 229.3L618.8 257.7Z" fill="#86796b" stroke="#adadad"></path><path d="M675 377L675 376.7L663.3 380Z" fill="#7d4754" stroke="#adadad"></path><path d="M615.8 636L543.8 586.7L550.3 637.7Z" fill="#85655a" stroke="#adadad"></path><path d="M651.3 541L675 537.3L636.3 475.7Z" fill="#856f61" stroke="#adadad"></path><path d="M635.3 256.3L618.8 257.7L660.3 271.7Z" fill="#753e57" stroke="#adadad"></path><path d="M618.8 257.7L612.5 229.3L581 235Z" fill="#815153" stroke="#adadad"></path><path d="M68.3 610.7L86.3 649.3L73.8 607.3Z" fill="#5b3262" stroke="#adadad"></path><path d="M98.5 649L134 715.7L164 668Z" fill="#835b55" stroke="#adadad"></path><path d="M176 757L205.5 715.7L195.8 708.7Z" fill="#85655a" stroke="#adadad"></path><path d="M460.5 97.7L479.8 136.7L483.3 137.7Z" fill="#856f61" stroke="#adadad"></path><path d="M460.5 97.7L437.5 128L479.8 136.7Z" fill="#815153" stroke="#adadad"></path><path d="M540.3 710.3L545 670.3L518 696Z" fill="#5b3262" stroke="#adadad"></path><path d="M613.5 642.7L615.8 636L550.3 637.7Z" fill="#753e57" stroke="#adadad"></path><path d="M613.5 181.3L567 179.3L581 235Z" fill="#5b3262" stroke="#adadad"></path><path d="M526.8 158.3L540 108.7L515 149.7Z" fill="#5b3262" stroke="#adadad"></path><path d="M562.8 744L540.3 710.3L550.8 770.7Z" fill="#888277" stroke="#adadad"></path><path d="M492.5 720.7L540.3 710.3L518 696Z" fill="#835b55" stroke="#adadad"></path><path d="M0 444.7L47.8 405.7L0 401.3Z" fill="#7d4754" stroke="#adadad"></path><path d="M0 444.7L73.5 463.7L47.8 405.7Z" fill="#85655a" stroke="#adadad"></path><path d="M0 574L68.3 610.7L59.8 566.3Z" fill="#86796b" stroke="#adadad"></path><path d="M420.8 766.3L377 727.7L376.5 743.7Z" fill="#5b3262" stroke="#adadad"></path><path d="M420.8 766.3L406.3 830.7L432.5 792Z" fill="#85655a" stroke="#adadad"></path><path d="M675 376.7L675 355.3L663.3 380Z" fill="#888277" stroke="#adadad"></path><path d="M327.8 83.7L268.8 140.3L366 111Z" fill="#463067" stroke="#adadad"></path><path d="M260.8 118.7L261 106.3L244 121.7Z" fill="#85655a" stroke="#adadad"></path><path d="M101.5 169.7L109.5 191.3L148.3 180Z" fill="#6b375c" stroke="#adadad"></path><path d="M189.3 122.3L239.3 148.7L244 121.7Z" fill="#86796b" stroke="#adadad"></path><path d="M148.3 180L109.5 191.3L134.8 201.7Z" fill="#888277" stroke="#adadad"></path><path d="M635.3 256.3L619.3 234L618.8 257.7Z" fill="#86796b" stroke="#adadad"></path><path d="M612.5 229.3L613.5 181.3L581 235Z" fill="#6b375c" stroke="#adadad"></path><path d="M577.8 688.7L550.3 637.7L545 670.3Z" fill="#86796b" stroke="#adadad"></path><path d="M637.5 614.3L652.5 582L615.5 564.3Z" fill="#5b3262" stroke="#adadad"></path><path d="M660.3 271.7L618.8 257.7L650.3 334.3Z" fill="#7d4754" stroke="#adadad"></path><path d="M420.8 766.3L376.5 743.7L347.3 812.7Z" fill="#6b375c" stroke="#adadad"></path><path d="M637.5 614.3L615.5 564.3L615.8 636Z" fill="#815153" stroke="#adadad"></path><path d="M109.5 191.3L75.3 226.3L130 228Z" fill="#6b375c" stroke="#adadad"></path><path d="M420.8 766.3L468.5 754.3L462.8 685.7Z" fill="#6b375c" stroke="#adadad"></path><path d="M550.8 770.7L540.3 710.3L492.5 720.7Z" fill="#86796b" stroke="#adadad"></path><path d="M665.3 628.3L637.5 614.3L656.5 653Z" fill="#888277" stroke="#adadad"></path><path d="M176 757L195.8 708.7L176 701.7Z" fill="#856f61" stroke="#adadad"></path><path d="M256 753L262.3 793.7L262.8 749Z" fill="#815153" stroke="#adadad"></path><path d="M347.3 812.7L376.5 743.7L323.3 757.3Z" fill="#85655a" stroke="#adadad"></path><path d="M575.8 694.3L577.8 688.7L545 670.3Z" fill="#856f61" stroke="#adadad"></path><path d="M665.3 628.3L675 602.7L637.5 614.3Z" fill="#463067" stroke="#adadad"></path><path d="M575.8 694.3L545 670.3L540.3 710.3Z" fill="#753e57" stroke="#adadad"></path><path d="M675 550L658.3 555.7L685.3 582Z" fill="#7d4754" stroke="#adadad"></path><path d="M675 550L651.3 541L658.3 555.7Z" fill="#888277" stroke="#adadad"></path><path d="M675 550L675 537.3L651.3 541Z" fill="#7d4754" stroke="#adadad"></path><path d="M0 401.3L47.8 405.7L29.8 387.3Z" fill="#86796b" stroke="#adadad"></path><path d="M0 444.7L0 450L73.5 463.7Z" fill="#7d4754" stroke="#adadad"></path><path d="M378.3 74L369 88.3L381.5 102.7Z" fill="#856f61" stroke="#adadad"></path><path d="M381.5 102.7L369 88.3L366 111Z" fill="#7d4754" stroke="#adadad"></path><path d="M0 450L0 465L10.8 479.7Z" fill="#7d4754" stroke="#adadad"></path><path d="M0 574L59.8 566.3L51.3 556.3Z" fill="#5b3262" stroke="#adadad"></path><path d="M48.5 640.7L80.3 662.7L86.3 649.3Z" fill="#815153" stroke="#adadad"></path><path d="M0 320.7L0 401.3L33.5 341.3Z" fill="#5b3262" stroke="#adadad"></path><path d="M33.5 341.3L0 401.3L29.8 387.3Z" fill="#835b55" stroke="#adadad"></path><path d="M21.5 302.7L62.8 317.3L57.8 271.3Z" fill="#7d4754" stroke="#adadad"></path><path d="M597.3 694L575.8 694.3L602.3 733.7Z" fill="#6b375c" stroke="#adadad"></path><path d="M577.8 688.7L605.3 686.3L613.5 642.7Z" fill="#463067" stroke="#adadad"></path><path d="M215.3 101.7L189.3 122.3L244 121.7Z" fill="#856f61" stroke="#adadad"></path><path d="M685.3 582L658.3 555.7L652.5 582Z" fill="#463067" stroke="#adadad"></path><path d="M34.8 254L21.5 302.7L57.8 271.3Z" fill="#86796b" stroke="#adadad"></path><path d="M78.5 672.3L80.3 662.7L48.5 640.7Z" fill="#835b55" stroke="#adadad"></path><path d="M86.3 649.3L80.3 662.7L98.5 649Z" fill="#7d4754" stroke="#adadad"></path><path d="M343.5 81.3L327.8 83.7L366 111Z" fill="#835b55" stroke="#adadad"></path><path d="M240.5 90.3L215.3 101.7L244 121.7Z" fill="#85655a" stroke="#adadad"></path><path d="M189.3 122.3L164.8 133.3L193.8 192Z" fill="#5b3262" stroke="#adadad"></path><path d="M24.8 219.7L34.8 254L75.3 226.3Z" fill="#5b3262" stroke="#adadad"></path><path d="M93.5 701L134 715.7L98.5 649Z" fill="#835b55" stroke="#adadad"></path><path d="M369 88.3L343.5 81.3L366 111Z" fill="#815153" stroke="#adadad"></path><path d="M635.3 256.3L627.5 221.7L619.3 234Z" fill="#856f61" stroke="#adadad"></path><path d="M619.3 234L627.5 221.7L612.5 229.3Z" fill="#815153" stroke="#adadad"></path><path d="M653.3 258L627.5 221.7L635.3 256.3Z" fill="#463067" stroke="#adadad"></path><path d="M675 286L660.3 271.7L650.3 334.3Z" fill="#7d4754" stroke="#adadad"></path><path d="M660.3 271.7L653.3 258L635.3 256.3Z" fill="#753e57" stroke="#adadad"></path><path d="M462.8 87L460.5 97.7L524.3 84.3Z" fill="#856f61" stroke="#adadad"></path><path d="M425 106.7L378.3 74L381.5 102.7Z" fill="#5b3262" stroke="#adadad"></path><path d="M369 88.3L378.3 74L343.5 81.3Z" fill="#753e57" stroke="#adadad"></path><path d="M460.5 97.7L483.3 137.7L524.3 84.3Z" fill="#7d4754" stroke="#adadad"></path><path d="M483.3 137.7L515 149.7L540 108.7Z" fill="#888277" stroke="#adadad"></path><path d="M313 59.7L314.8 79L327.8 83.7Z" fill="#888277" stroke="#adadad"></path><path d="M327.8 83.7L314.8 79L268.8 140.3Z" fill="#86796b" stroke="#adadad"></path><path d="M240.5 90.3L244 121.7L261 106.3Z" fill="#86796b" stroke="#adadad"></path><path d="M189.3 122.3L178.5 112.7L164.8 133.3Z" fill="#753e57" stroke="#adadad"></path><path d="M48.5 640.7L86.3 649.3L68.3 610.7Z" fill="#7d4754" stroke="#adadad"></path><path d="M80.3 662.7L78.5 672.3L98.5 649Z" fill="#856f61" stroke="#adadad"></path><path d="M101.5 169.7L75.3 226.3L109.5 191.3Z" fill="#835b55" stroke="#adadad"></path><path d="M75.3 226.3L34.8 254L57.8 271.3Z" fill="#815153" stroke="#adadad"></path><path d="M296.8 73.3L240.5 90.3L261 106.3Z" fill="#856f61" stroke="#adadad"></path><path d="M139.3 116.7L148.3 180L164.8 133.3Z" fill="#86796b" stroke="#adadad"></path><path d="M139.3 116.7L101.5 169.7L148.3 180Z" fill="#7d4754" stroke="#adadad"></path><path d="M675 355.3L675 286L650.3 334.3Z" fill="#5b3262" stroke="#adadad"></path><path d="M660.3 271.7L675 249.7L653.3 258Z" fill="#86796b" stroke="#adadad"></path><path d="M653.3 258L649.5 208L627.5 221.7Z" fill="#753e57" stroke="#adadad"></path><path d="M562.8 744L575.8 694.3L540.3 710.3Z" fill="#856f61" stroke="#adadad"></path><path d="M575.8 694.3L597.3 694L577.8 688.7Z" fill="#86796b" stroke="#adadad"></path><path d="M637.5 614.3L675 602.7L652.5 582Z" fill="#856f61" stroke="#adadad"></path><path d="M378.3 48.3L378.3 74L394.8 37.3Z" fill="#888277" stroke="#adadad"></path><path d="M297.5 66L296.8 73.3L314.8 79Z" fill="#888277" stroke="#adadad"></path><path d="M0 546.3L57.8 543L10.8 479.7Z" fill="#7d4754" stroke="#adadad"></path><path d="M597.3 694L605.3 686.3L577.8 688.7Z" fill="#7d4754" stroke="#adadad"></path><path d="M216.3 95L178.5 112.7L215.3 101.7Z" fill="#463067" stroke="#adadad"></path><path d="M215.3 101.7L178.5 112.7L189.3 122.3Z" fill="#7d4754" stroke="#adadad"></path><path d="M240.5 90.3L216.3 95L215.3 101.7Z" fill="#86796b" stroke="#adadad"></path><path d="M0 465L0 546.3L10.8 479.7Z" fill="#7d4754" stroke="#adadad"></path><path d="M0 546.3L0 547.7L51.3 556.3Z" fill="#835b55" stroke="#adadad"></path><path d="M0 305L0 320.7L21.5 302.7Z" fill="#86796b" stroke="#adadad"></path><path d="M21.5 302.7L0 320.7L33.5 341.3Z" fill="#835b55" stroke="#adadad"></path><path d="M297.5 66L314.8 79L313 59.7Z" fill="#85655a" stroke="#adadad"></path><path d="M314.8 79L296.8 73.3L261 106.3Z" fill="#835b55" stroke="#adadad"></path><path d="M240.5 90.3L207.8 50.3L216.3 95Z" fill="#463067" stroke="#adadad"></path><path d="M134 715.7L176 757L176 701.7Z" fill="#815153" stroke="#adadad"></path><path d="M347.3 812.7L323.3 757.3L313.8 758.7Z" fill="#753e57" stroke="#adadad"></path><path d="M134.3 751L176 757L134 715.7Z" fill="#86796b" stroke="#adadad"></path><path d="M540 108.7L526.8 158.3L555.8 107.7Z" fill="#815153" stroke="#adadad"></path><path d="M460.5 97.7L462.8 87L425 106.7Z" fill="#888277" stroke="#adadad"></path><path d="M95.3 726L93.5 701L80.3 726.3Z" fill="#6b375c" stroke="#adadad"></path><path d="M78.5 672.3L93.5 701L98.5 649Z" fill="#7d4754" stroke="#adadad"></path><path d="M675 286L675 270.3L660.3 271.7Z" fill="#835b55" stroke="#adadad"></path><path d="M420.8 766.3L432.5 792L468.5 754.3Z" fill="#85655a" stroke="#adadad"></path><path d="M550.8 770.7L492.5 720.7L481.8 743.7Z" fill="#753e57" stroke="#adadad"></path><path d="M262.3 793.7L256 753L212.3 785.3Z" fill="#86796b" stroke="#adadad"></path><path d="M649.5 208L613.5 181.3L627.5 221.7Z" fill="#815153" stroke="#adadad"></path><path d="M627.5 221.7L613.5 181.3L612.5 229.3Z" fill="#753e57" stroke="#adadad"></path><path d="M212.3 785.3L256 753L220.3 754Z" fill="#6b375c" stroke="#adadad"></path><path d="M0 286.3L0 305L21.5 302.7Z" fill="#6b375c" stroke="#adadad"></path><path d="M637.5 614.3L615.8 636L656.5 653Z" fill="#6b375c" stroke="#adadad"></path><path d="M675 602.7L685.3 582L652.5 582Z" fill="#5b3262" stroke="#adadad"></path><path d="M675 550L685.3 582L675 537.3Z" fill="#815153" stroke="#adadad"></path><path d="M675 537.3L685.3 582L675 446.7Z" fill="#7d4754" stroke="#adadad"></path><path d="M675 446.7L685.3 582L675 405.3Z" fill="#463067" stroke="#adadad"></path><path d="M675 405.3L685.3 582L675 377Z" fill="#7d4754" stroke="#adadad"></path><path d="M675 377L685.3 582L675 376.7Z" fill="#86796b" stroke="#adadad"></path><path d="M675 376.7L685.3 582L675 355.3Z" fill="#856f61" stroke="#adadad"></path><path d="M675 355.3L685.3 582L675 286Z" fill="#7d4754" stroke="#adadad"></path><path d="M675 286L680.3 131L675 270.3Z" fill="#85655a" stroke="#adadad"></path><path d="M313 59.7L327.8 83.7L343.5 81.3Z" fill="#5b3262" stroke="#adadad"></path><path d="M296.8 73.3L297.5 66L240.5 90.3Z" fill="#85655a" stroke="#adadad"></path><path d="M0 547.7L0 574L51.3 556.3Z" fill="#5b3262" stroke="#adadad"></path><path d="M656.5 653L615.8 636L613.5 642.7Z" fill="#463067" stroke="#adadad"></path><path d="M675 602.7L675 630.3L685.3 582Z" fill="#856f61" stroke="#adadad"></path><path d="M95.3 726L103 719.3L93.5 701Z" fill="#888277" stroke="#adadad"></path><path d="M93.5 701L103 719.3L134 715.7Z" fill="#835b55" stroke="#adadad"></path><path d="M93.5 701L78.5 672.3L80.3 726.3Z" fill="#7d4754" stroke="#adadad"></path><path d="M181.8 789.7L212.3 785.3L176 757Z" fill="#85655a" stroke="#adadad"></path><path d="M176 757L212.3 785.3L220.3 754Z" fill="#815153" stroke="#adadad"></path><path d="M34.8 254L0 286.3L21.5 302.7Z" fill="#463067" stroke="#adadad"></path><path d="M0 265.3L0 286.3L34.8 254Z" fill="#856f61" stroke="#adadad"></path><path d="M358 51.3L313 59.7L343.5 81.3Z" fill="#815153" stroke="#adadad"></path><path d="M136.8 93L178.5 112.7L175.8 57.7Z" fill="#815153" stroke="#adadad"></path><path d="M358 51.3L343.5 81.3L378.3 74Z" fill="#835b55" stroke="#adadad"></path><path d="M680.3 131L675 249.7L675 270.3Z" fill="#85655a" stroke="#adadad"></path><path d="M675 270.3L675 249.7L660.3 271.7Z" fill="#856f61" stroke="#adadad"></path><path d="M610.8 159L606.8 160.7L613.5 181.3Z" fill="#463067" stroke="#adadad"></path><path d="M613.5 181.3L606.8 160.7L567 179.3Z" fill="#835b55" stroke="#adadad"></path><path d="M550.8 770.7L481.8 743.7L512 800Z" fill="#888277" stroke="#adadad"></path><path d="M675 684.7L662.3 665.7L675 703.3Z" fill="#856f61" stroke="#adadad"></path><path d="M605.3 686.3L656.5 653L613.5 642.7Z" fill="#7d4754" stroke="#adadad"></path><path d="M303.5 823L313.8 758.7L262.3 793.7Z" fill="#815153" stroke="#adadad"></path><path d="M310 823.7L347.3 812.7L313.8 758.7Z" fill="#835b55" stroke="#adadad"></path><path d="M178.5 112.7L139.3 116.7L164.8 133.3Z" fill="#463067" stroke="#adadad"></path><path d="M101.5 169.7L39.8 173L75.3 226.3Z" fill="#6b375c" stroke="#adadad"></path><path d="M135.3 98L139.3 116.7L178.5 112.7Z" fill="#463067" stroke="#adadad"></path><path d="M135.3 98L178.5 112.7L136.8 93Z" fill="#815153" stroke="#adadad"></path><path d="M675 249.7L649.5 208L653.3 258Z" fill="#6b375c" stroke="#adadad"></path><path d="M555.8 107.7L526.8 158.3L567 179.3Z" fill="#7d4754" stroke="#adadad"></path><path d="M662.3 665.7L656.5 653L605.3 686.3Z" fill="#85655a" stroke="#adadad"></path><path d="M665.3 628.3L675 630.3L675 602.7Z" fill="#7d4754" stroke="#adadad"></path><path d="M122.8 753.3L134.3 751L134 715.7Z" fill="#888277" stroke="#adadad"></path><path d="M646.3 136.7L610.8 159L613.5 181.3Z" fill="#463067" stroke="#adadad"></path><path d="M601.5 116.7L555.8 107.7L567 179.3Z" fill="#463067" stroke="#adadad"></path><path d="M139.3 116.7L87.3 152.7L101.5 169.7Z" fill="#85655a" stroke="#adadad"></path><path d="M378.3 74L425 106.7L394.8 37.3Z" fill="#856f61" stroke="#adadad"></path><path d="M378.3 48.3L358 51.3L378.3 74Z" fill="#6b375c" stroke="#adadad"></path><path d="M675 635L675 630.3L665.3 628.3Z" fill="#815153" stroke="#adadad"></path><path d="M80.3 726.3L78.5 672.3L38.8 725Z" fill="#7d4754" stroke="#adadad"></path><path d="M103 719.3L122.8 753.3L134 715.7Z" fill="#463067" stroke="#adadad"></path><path d="M0 248L0 265.3L34.8 254Z" fill="#85655a" stroke="#adadad"></path><path d="M656.5 653L675 635L665.3 628.3Z" fill="#463067" stroke="#adadad"></path><path d="M675 630.3L675 635L685.3 582Z" fill="#753e57" stroke="#adadad"></path><path d="M39.8 173L24.8 219.7L75.3 226.3Z" fill="#7d4754" stroke="#adadad"></path><path d="M122.8 753.3L145.3 764.7L134.3 751Z" fill="#815153" stroke="#adadad"></path><path d="M134.3 751L145.3 764.7L176 757Z" fill="#463067" stroke="#adadad"></path><path d="M550.8 770.7L573 747.3L562.8 744Z" fill="#7d4754" stroke="#adadad"></path><path d="M562.8 744L573 747.3L575.8 694.3Z" fill="#753e57" stroke="#adadad"></path><path d="M656.5 653L662.3 665.7L675 635Z" fill="#85655a" stroke="#adadad"></path><path d="M394.8 37.3L425 106.7L462.8 87Z" fill="#5b3262" stroke="#adadad"></path><path d="M555.8 107.7L540.3 98.3L540 108.7Z" fill="#6b375c" stroke="#adadad"></path><path d="M540 108.7L524.3 84.3L483.3 137.7Z" fill="#85655a" stroke="#adadad"></path><path d="M559.5 103.7L555.8 107.7L592.8 109Z" fill="#85655a" stroke="#adadad"></path><path d="M95.3 726L122.8 753.3L103 719.3Z" fill="#6b375c" stroke="#adadad"></path><path d="M283.3 827.7L262.3 793.7L266 861.3Z" fill="#6b375c" stroke="#adadad"></path><path d="M283.3 827.7L303.5 823L262.3 793.7Z" fill="#85655a" stroke="#adadad"></path><path d="M303.5 823L310 823.7L313.8 758.7Z" fill="#7d4754" stroke="#adadad"></path><path d="M431 837.7L449 816.3L432.5 792Z" fill="#815153" stroke="#adadad"></path><path d="M182.8 808L181.8 789.7L164.8 808.3Z" fill="#856f61" stroke="#adadad"></path><path d="M145.3 764.7L181.8 789.7L176 757Z" fill="#835b55" stroke="#adadad"></path><path d="M602.3 733.7L605.3 686.3L597.3 694Z" fill="#6b375c" stroke="#adadad"></path><path d="M24.8 219.7L0 248L34.8 254Z" fill="#753e57" stroke="#adadad"></path><path d="M538.3 71.7L524.3 84.3L540.3 98.3Z" fill="#835b55" stroke="#adadad"></path><path d="M540.3 98.3L524.3 84.3L540 108.7Z" fill="#835b55" stroke="#adadad"></path><path d="M601.5 116.7L567 179.3L606.8 160.7Z" fill="#6b375c" stroke="#adadad"></path><path d="M555.8 107.7L559.5 103.7L540.3 98.3Z" fill="#753e57" stroke="#adadad"></path><path d="M512 800L481.8 743.7L468.5 754.3Z" fill="#835b55" stroke="#adadad"></path><path d="M573 747.3L602.3 733.7L575.8 694.3Z" fill="#815153" stroke="#adadad"></path><path d="M470.3 812.7L468.5 754.3L432.5 792Z" fill="#6b375c" stroke="#adadad"></path><path d="M653.5 748.3L602.3 733.7L615.5 798.7Z" fill="#7d4754" stroke="#adadad"></path><path d="M95.3 726L76.5 747.3L122.8 753.3Z" fill="#7d4754" stroke="#adadad"></path><path d="M38.8 725L78.5 672.3L17.8 711.7Z" fill="#856f61" stroke="#adadad"></path><path d="M406.3 830.7L420.8 766.3L347.3 812.7Z" fill="#856f61" stroke="#adadad"></path><path d="M82.3 101.3L73.5 115L87.3 152.7Z" fill="#86796b" stroke="#adadad"></path><path d="M87.3 152.7L39.8 173L101.5 169.7Z" fill="#463067" stroke="#adadad"></path><path d="M178.5 112.7L216.3 95L175.8 57.7Z" fill="#815153" stroke="#adadad"></path><path d="M324.5 858.7L327.3 831.3L310 823.7Z" fill="#835b55" stroke="#adadad"></path><path d="M310 823.7L327.3 831.3L347.3 812.7Z" fill="#86796b" stroke="#adadad"></path><path d="M324.5 858.7L310 823.7L303.5 823Z" fill="#753e57" stroke="#adadad"></path><path d="M204.5 838.7L262.3 793.7L212.3 785.3Z" fill="#856f61" stroke="#adadad"></path><path d="M449 816.3L470.3 812.7L432.5 792Z" fill="#85655a" stroke="#adadad"></path><path d="M395.3 31.7L394.8 37.3L456.5 0Z" fill="#463067" stroke="#adadad"></path><path d="M378.3 48.3L387.8 19.7L358 51.3Z" fill="#463067" stroke="#adadad"></path><path d="M301 0L297.5 66L313 59.7Z" fill="#463067" stroke="#adadad"></path><path d="M207.8 50.3L240.5 90.3L238 38.3Z" fill="#815153" stroke="#adadad"></path><path d="M240.5 90.3L297.5 66L238 38.3Z" fill="#5b3262" stroke="#adadad"></path><path d="M73.5 115L67.8 141.3L87.3 152.7Z" fill="#856f61" stroke="#adadad"></path><path d="M363.3 835L406.3 830.7L347.3 812.7Z" fill="#888277" stroke="#adadad"></path><path d="M454.8 834L487.3 821L470.3 812.7Z" fill="#815153" stroke="#adadad"></path><path d="M402 849L363.3 835L392.8 863.3Z" fill="#753e57" stroke="#adadad"></path><path d="M327.3 831.3L363.3 835L347.3 812.7Z" fill="#86796b" stroke="#adadad"></path><path d="M470.3 812.7L512 800L468.5 754.3Z" fill="#5b3262" stroke="#adadad"></path><path d="M615.5 798.7L602.3 733.7L573 747.3Z" fill="#5b3262" stroke="#adadad"></path><path d="M67.8 141.3L39.8 173L87.3 152.7Z" fill="#86796b" stroke="#adadad"></path><path d="M24.8 219.7L0 224.7L0 248Z" fill="#835b55" stroke="#adadad"></path><path d="M87.3 152.7L139.3 116.7L82.3 101.3Z" fill="#856f61" stroke="#adadad"></path><path d="M0 206.7L0 224.7L24.8 219.7Z" fill="#888277" stroke="#adadad"></path><path d="M0 574L0 644.3L48.5 640.7Z" fill="#888277" stroke="#adadad"></path><path d="M456.5 0L394.8 37.3L462.8 87Z" fill="#6b375c" stroke="#adadad"></path><path d="M394.8 37.3L395.3 31.7L378.3 48.3Z" fill="#7d4754" stroke="#adadad"></path><path d="M141 793.3L181.8 789.7L145.3 764.7Z" fill="#835b55" stroke="#adadad"></path><path d="M181.8 789.7L182.8 808L212.3 785.3Z" fill="#835b55" stroke="#adadad"></path><path d="M141 793.3L145.3 764.7L122.8 753.3Z" fill="#753e57" stroke="#adadad"></path><path d="M646.3 136.7L601.5 116.7L610.8 159Z" fill="#5b3262" stroke="#adadad"></path><path d="M610.8 159L601.5 116.7L606.8 160.7Z" fill="#856f61" stroke="#adadad"></path><path d="M559.5 103.7L556 82L540.3 98.3Z" fill="#6b375c" stroke="#adadad"></path><path d="M646.3 136.7L613.5 181.3L675 161.3Z" fill="#856f61" stroke="#adadad"></path><path d="M238 38.3L297.5 66L282.8 0Z" fill="#753e57" stroke="#adadad"></path><path d="M601.5 116.7L592.8 109L555.8 107.7Z" fill="#7d4754" stroke="#adadad"></path><path d="M524.3 84.3L493.5 27.3L462.8 87Z" fill="#5b3262" stroke="#adadad"></path><path d="M0 644.3L0 652.7L48.5 640.7Z" fill="#888277" stroke="#adadad"></path><path d="M591.3 77.3L556 82L559.5 103.7Z" fill="#856f61" stroke="#adadad"></path><path d="M321.5 0L313 59.7L358 51.3Z" fill="#815153" stroke="#adadad"></path><path d="M556 82L538.3 71.7L540.3 98.3Z" fill="#86796b" stroke="#adadad"></path><path d="M454.8 834L470.3 812.7L449 816.3Z" fill="#7d4754" stroke="#adadad"></path><path d="M470.3 812.7L500 816.3L512 800Z" fill="#888277" stroke="#adadad"></path><path d="M512 800L530 816.7L550.8 770.7Z" fill="#835b55" stroke="#adadad"></path><path d="M487.3 821L500 816.3L470.3 812.7Z" fill="#835b55" stroke="#adadad"></path><path d="M406.3 830.7L431 837.7L432.5 792Z" fill="#835b55" stroke="#adadad"></path><path d="M402 849L431 837.7L406.3 830.7Z" fill="#7d4754" stroke="#adadad"></path><path d="M45.5 734.7L76.5 747.3L80.3 726.3Z" fill="#753e57" stroke="#adadad"></path><path d="M80.3 726.3L76.5 747.3L95.3 726Z" fill="#85655a" stroke="#adadad"></path><path d="M183.5 53L216.3 95L207.8 50.3Z" fill="#463067" stroke="#adadad"></path><path d="M183.5 53L175.8 57.7L216.3 95Z" fill="#753e57" stroke="#adadad"></path><path d="M136.8 93L123 82.3L135.3 98Z" fill="#463067" stroke="#adadad"></path><path d="M56.5 783L141 793.3L122.8 753.3Z" fill="#6b375c" stroke="#adadad"></path><path d="M675 703.3L605.3 686.3L675 708Z" fill="#5b3262" stroke="#adadad"></path><path d="M675 703.3L662.3 665.7L605.3 686.3Z" fill="#85655a" stroke="#adadad"></path><path d="M662.3 665.7L675 684.7L675 635Z" fill="#7d4754" stroke="#adadad"></path><path d="M675 635L675 684.7L685.3 582Z" fill="#6b375c" stroke="#adadad"></path><path d="M1.8 172.7L0 206.7L39.8 173Z" fill="#815153" stroke="#adadad"></path><path d="M39.8 173L0 206.7L24.8 219.7Z" fill="#7d4754" stroke="#adadad"></path><path d="M170.5 32.3L183.5 53L204.3 13.3Z" fill="#5b3262" stroke="#adadad"></path><path d="M431 837.7L454.8 834L449 816.3Z" fill="#856f61" stroke="#adadad"></path><path d="M509.3 850.3L530 816.7L500 816.3Z" fill="#835b55" stroke="#adadad"></path><path d="M141 793.3L164.8 808.3L181.8 789.7Z" fill="#86796b" stroke="#adadad"></path><path d="M182.8 808L204.5 838.7L212.3 785.3Z" fill="#86796b" stroke="#adadad"></path><path d="M134 55.7L123 82.3L136.8 93Z" fill="#856f61" stroke="#adadad"></path><path d="M67.8 141.3L25.5 161L39.8 173Z" fill="#815153" stroke="#adadad"></path><path d="M112 72L123 82.3L134 55.7Z" fill="#5b3262" stroke="#adadad"></path><path d="M396.3 0L387.8 19.7L395.3 31.7Z" fill="#753e57" stroke="#adadad"></path><path d="M395.3 31.7L387.8 19.7L378.3 48.3Z" fill="#5b3262" stroke="#adadad"></path><path d="M324.5 858.7L363.3 835L327.3 831.3Z" fill="#7d4754" stroke="#adadad"></path><path d="M363.3 835L402 849L406.3 830.7Z" fill="#5b3262" stroke="#adadad"></path><path d="M460.5 857.3L469.8 854.7L454.8 834Z" fill="#888277" stroke="#adadad"></path><path d="M324.5 858.7L303.5 823L283.3 827.7Z" fill="#85655a" stroke="#adadad"></path><path d="M82.3 101.3L139.3 116.7L135.3 98Z" fill="#815153" stroke="#adadad"></path><path d="M141 793.3L164.5 814L164.8 808.3Z" fill="#888277" stroke="#adadad"></path><path d="M164.8 808.3L164.5 814L182.8 808Z" fill="#5b3262" stroke="#adadad"></path><path d="M121.8 831.7L164.5 814L141 793.3Z" fill="#86796b" stroke="#adadad"></path><path d="M23.8 123L25.5 161L67.8 141.3Z" fill="#856f61" stroke="#adadad"></path><path d="M17.8 711.7L78.5 672.3L48.5 640.7Z" fill="#5b3262" stroke="#adadad"></path><path d="M76.5 747.3L56.5 783L122.8 753.3Z" fill="#86796b" stroke="#adadad"></path><path d="M675 161.3L613.5 181.3L649.5 208Z" fill="#463067" stroke="#adadad"></path><path d="M621.3 84.3L591.3 77.3L592.8 109Z" fill="#856f61" stroke="#adadad"></path><path d="M593.3 69.7L547.3 58L556 82Z" fill="#815153" stroke="#adadad"></path><path d="M509.3 850.3L500 816.3L487.3 821Z" fill="#463067" stroke="#adadad"></path><path d="M500 816.3L530 816.7L512 800Z" fill="#835b55" stroke="#adadad"></path><path d="M469.8 854.7L487.3 821L454.8 834Z" fill="#6b375c" stroke="#adadad"></path><path d="M123 82.3L82.3 101.3L135.3 98Z" fill="#815153" stroke="#adadad"></path><path d="M0 150L1.8 172.7L25.5 161Z" fill="#888277" stroke="#adadad"></path><path d="M112 72L82.3 101.3L123 82.3Z" fill="#86796b" stroke="#adadad"></path><path d="M38.8 725L45.5 734.7L80.3 726.3Z" fill="#815153" stroke="#adadad"></path><path d="M315.8 875.7L324.5 858.7L283.3 827.7Z" fill="#7d4754" stroke="#adadad"></path><path d="M675 708L605.3 686.3L602.3 733.7Z" fill="#835b55" stroke="#adadad"></path><path d="M675 684.7L675 703.3L685.3 582Z" fill="#85655a" stroke="#adadad"></path><path d="M556 82L547.3 58L538.3 71.7Z" fill="#7d4754" stroke="#adadad"></path><path d="M538.3 71.7L493.5 27.3L524.3 84.3Z" fill="#86796b" stroke="#adadad"></path><path d="M591.3 77.3L559.5 103.7L592.8 109Z" fill="#888277" stroke="#adadad"></path><path d="M675 249.7L675 161.3L649.5 208Z" fill="#856f61" stroke="#adadad"></path><path d="M680.3 131L675 161.3L675 249.7Z" fill="#6b375c" stroke="#adadad"></path><path d="M680.3 131L675 161L675 161.3Z" fill="#856f61" stroke="#adadad"></path><path d="M675 161.3L675 161L646.3 136.7Z" fill="#753e57" stroke="#adadad"></path><path d="M675 725.7L675 708L653.5 748.3Z" fill="#5b3262" stroke="#adadad"></path><path d="M675 703.3L675 708L685.3 582Z" fill="#463067" stroke="#adadad"></path><path d="M164.5 814L204.5 838.7L182.8 808Z" fill="#7d4754" stroke="#adadad"></path><path d="M0 652.7L17.8 711.7L48.5 640.7Z" fill="#86796b" stroke="#adadad"></path><path d="M38.8 725L0 794.7L45.5 734.7Z" fill="#7d4754" stroke="#adadad"></path><path d="M134 55.7L136.8 93L175.8 57.7Z" fill="#463067" stroke="#adadad"></path><path d="M134 55.7L175.8 57.7L170.5 32.3Z" fill="#6b375c" stroke="#adadad"></path><path d="M353.5 874.3L392.8 863.3L363.3 835Z" fill="#463067" stroke="#adadad"></path><path d="M419.3 900L460.5 857.3L431 837.7Z" fill="#815153" stroke="#adadad"></path><path d="M0 150L25.5 161L23.8 123Z" fill="#835b55" stroke="#adadad"></path><path d="M25.5 161L1.8 172.7L39.8 173Z" fill="#6b375c" stroke="#adadad"></path><path d="M67.8 141.3L73.5 115L23.8 123Z" fill="#463067" stroke="#adadad"></path><path d="M547.3 58L493.5 27.3L538.3 71.7Z" fill="#815153" stroke="#adadad"></path><path d="M593.3 69.7L591.3 77.3L621.3 84.3Z" fill="#463067" stroke="#adadad"></path><path d="M547.3 58L556 38.3L493.5 27.3Z" fill="#85655a" stroke="#adadad"></path><path d="M592.8 109L601.5 116.7L621.3 84.3Z" fill="#888277" stroke="#adadad"></path><path d="M170.5 32.3L175.8 57.7L183.5 53Z" fill="#6b375c" stroke="#adadad"></path><path d="M204.5 838.7L266 861.3L262.3 793.7Z" fill="#85655a" stroke="#adadad"></path><path d="M324.5 858.7L353.5 874.3L363.3 835Z" fill="#6b375c" stroke="#adadad"></path><path d="M396.3 0L359 0L387.8 19.7Z" fill="#85655a" stroke="#adadad"></path><path d="M387.8 19.7L359 0L358 51.3Z" fill="#815153" stroke="#adadad"></path><path d="M204.3 13.3L183.5 53L207.8 50.3Z" fill="#856f61" stroke="#adadad"></path><path d="M359 0L321.5 0L358 51.3Z" fill="#463067" stroke="#adadad"></path><path d="M321.5 0L301 0L313 59.7Z" fill="#85655a" stroke="#adadad"></path><path d="M456.5 0L396.3 0L395.3 31.7Z" fill="#85655a" stroke="#adadad"></path><path d="M460.5 857.3L454.8 834L431 837.7Z" fill="#85655a" stroke="#adadad"></path><path d="M419.3 900L431 837.7L402 849Z" fill="#5b3262" stroke="#adadad"></path><path d="M204.3 13.3L207.8 50.3L238 38.3Z" fill="#85655a" stroke="#adadad"></path><path d="M301 0L282.8 0L297.5 66Z" fill="#815153" stroke="#adadad"></path><path d="M0 652.7L0 706L17.8 711.7Z" fill="#856f61" stroke="#adadad"></path><path d="M0 794.7L47.8 775.3L45.5 734.7Z" fill="#85655a" stroke="#adadad"></path><path d="M45.5 734.7L47.8 775.3L76.5 747.3Z" fill="#888277" stroke="#adadad"></path><path d="M653.5 748.3L675 708L602.3 733.7Z" fill="#753e57" stroke="#adadad"></path><path d="M675 708L675 725.7L685.3 582Z" fill="#835b55" stroke="#adadad"></path><path d="M573 747.3L550.8 770.7L615.5 798.7Z" fill="#835b55" stroke="#adadad"></path><path d="M615.5 798.7L550.8 770.7L530 816.7Z" fill="#7d4754" stroke="#adadad"></path><path d="M0 706L0 706.3L17.8 711.7Z" fill="#835b55" stroke="#adadad"></path><path d="M315.8 875.7L353.5 874.3L324.5 858.7Z" fill="#856f61" stroke="#adadad"></path><path d="M392.8 863.3L419.3 900L402 849Z" fill="#753e57" stroke="#adadad"></path><path d="M134 55.7L103.5 66.3L112 72Z" fill="#86796b" stroke="#adadad"></path><path d="M112 72L103.5 66.3L82.3 101.3Z" fill="#753e57" stroke="#adadad"></path><path d="M99.3 33.3L103.5 66.3L134 55.7Z" fill="#86796b" stroke="#adadad"></path><path d="M621.3 84.3L601.5 116.7L646.3 136.7Z" fill="#835b55" stroke="#adadad"></path><path d="M591.3 77.3L593.3 69.7L556 82Z" fill="#6b375c" stroke="#adadad"></path><path d="M282.8 0L266.3 0L238 38.3Z" fill="#753e57" stroke="#adadad"></path><path d="M266 861.3L315.8 875.7L283.3 827.7Z" fill="#86796b" stroke="#adadad"></path><path d="M248.5 0L204.3 13.3L238 38.3Z" fill="#463067" stroke="#adadad"></path><path d="M170.5 32.3L158 9.3L134 55.7Z" fill="#463067" stroke="#adadad"></path><path d="M266.3 0L248.5 0L238 38.3Z" fill="#835b55" stroke="#adadad"></path><path d="M675 119.7L621.3 84.3L646.3 136.7Z" fill="#7d4754" stroke="#adadad"></path><path d="M491 900L509.3 850.3L469.8 854.7Z" fill="#86796b" stroke="#adadad"></path><path d="M469.8 854.7L509.3 850.3L487.3 821Z" fill="#815153" stroke="#adadad"></path><path d="M525.3 850.7L509.3 850.3L504.5 900Z" fill="#5b3262" stroke="#adadad"></path><path d="M23.8 123L73.5 115L18.5 104.3Z" fill="#7d4754" stroke="#adadad"></path><path d="M1.8 172.7L0 150L0 206.7Z" fill="#888277" stroke="#adadad"></path><path d="M18.5 104.3L73.5 115L82.3 101.3Z" fill="#86796b" stroke="#adadad"></path><path d="M484.8 0L456.5 0L493.5 27.3Z" fill="#753e57" stroke="#adadad"></path><path d="M493.5 27.3L456.5 0L462.8 87Z" fill="#463067" stroke="#adadad"></path><path d="M564.8 23.3L556 38.3L593.3 69.7Z" fill="#7d4754" stroke="#adadad"></path><path d="M593.3 69.7L556 38.3L547.3 58Z" fill="#888277" stroke="#adadad"></path><path d="M259.8 900L269.8 879.3L266 861.3Z" fill="#7d4754" stroke="#adadad"></path><path d="M266 861.3L269.8 879.3L315.8 875.7Z" fill="#5b3262" stroke="#adadad"></path><path d="M321 900L360.5 900L353.5 874.3Z" fill="#5b3262" stroke="#adadad"></path><path d="M259.8 900L266 861.3L215.3 900Z" fill="#835b55" stroke="#adadad"></path><path d="M675 161L680.3 131L646.3 136.7Z" fill="#85655a" stroke="#adadad"></path><path d="M685.3 582L680.3 131L675 286Z" fill="#5b3262" stroke="#adadad"></path><path d="M24.8 808L47.8 775.3L0 794.7Z" fill="#835b55" stroke="#adadad"></path><path d="M164.5 814L169.5 860.3L204.5 838.7Z" fill="#856f61" stroke="#adadad"></path><path d="M47.8 775.3L56.5 783L76.5 747.3Z" fill="#463067" stroke="#adadad"></path><path d="M545.8 850L615.5 798.7L530 816.7Z" fill="#753e57" stroke="#adadad"></path><path d="M653.5 748.3L675 776L675 725.7Z" fill="#5b3262" stroke="#adadad"></path><path d="M545.8 850L525.3 850.7L547.8 852.7Z" fill="#85655a" stroke="#adadad"></path><path d="M509.3 850.3L525.3 850.7L530 816.7Z" fill="#7d4754" stroke="#adadad"></path><path d="M680.3 131L675 120L646.3 136.7Z" fill="#85655a" stroke="#adadad"></path><path d="M619.5 51L564.8 23.3L593.3 69.7Z" fill="#7d4754" stroke="#adadad"></path><path d="M680.3 131L675 119.7L675 120Z" fill="#856f61" stroke="#adadad"></path><path d="M675 120L675 119.7L646.3 136.7Z" fill="#856f61" stroke="#adadad"></path><path d="M536 0L484.8 0L493.5 27.3Z" fill="#753e57" stroke="#adadad"></path><path d="M104.5 832.3L121.8 831.7L141 793.3Z" fill="#463067" stroke="#adadad"></path><path d="M150 855.7L169.5 860.3L164.5 814Z" fill="#7d4754" stroke="#adadad"></path><path d="M547.8 852.7L551.8 900L567 864.7Z" fill="#6b375c" stroke="#adadad"></path><path d="M525.3 850.7L545.8 850L530 816.7Z" fill="#753e57" stroke="#adadad"></path><path d="M145.8 0L158 9.3L204.3 13.3Z" fill="#5b3262" stroke="#adadad"></path><path d="M204.3 13.3L158 9.3L170.5 32.3Z" fill="#86796b" stroke="#adadad"></path><path d="M23.5 38.7L18.5 104.3L82.3 101.3Z" fill="#856f61" stroke="#adadad"></path><path d="M121.8 831.7L150 855.7L164.5 814Z" fill="#856f61" stroke="#adadad"></path><path d="M101 900L150 855.7L121.8 831.7Z" fill="#815153" stroke="#adadad"></path><path d="M23.5 38.7L82.3 101.3L103.5 66.3Z" fill="#815153" stroke="#adadad"></path><path d="M23.8 123L0 114.7L0 150Z" fill="#7d4754" stroke="#adadad"></path><path d="M468.5 892.7L469.8 854.7L460.5 857.3Z" fill="#753e57" stroke="#adadad"></path><path d="M545.8 850L619.8 818.3L615.5 798.7Z" fill="#753e57" stroke="#adadad"></path><path d="M26.8 812.7L104.5 832.3L56.5 783Z" fill="#7d4754" stroke="#adadad"></path><path d="M56.5 783L104.5 832.3L141 793.3Z" fill="#815153" stroke="#adadad"></path><path d="M619.5 51L593.3 69.7L621.3 84.3Z" fill="#7d4754" stroke="#adadad"></path><path d="M556 38.3L536 0L493.5 27.3Z" fill="#7d4754" stroke="#adadad"></path><path d="M321 900L353.5 874.3L315.8 875.7Z" fill="#86796b" stroke="#adadad"></path><path d="M353.5 874.3L360.5 900L392.8 863.3Z" fill="#753e57" stroke="#adadad"></path><path d="M321 900L315.8 875.7L269.8 879.3Z" fill="#7d4754" stroke="#adadad"></path><path d="M266 861.3L204.5 838.7L215.3 900Z" fill="#5b3262" stroke="#adadad"></path><path d="M259.8 900L321 900L269.8 879.3Z" fill="#815153" stroke="#adadad"></path><path d="M360.5 900L406 900L392.8 863.3Z" fill="#753e57" stroke="#adadad"></path><path d="M675 80.7L628.5 59.3L621.3 84.3Z" fill="#463067" stroke="#adadad"></path><path d="M406 900L410.8 900L392.8 863.3Z" fill="#6b375c" stroke="#adadad"></path><path d="M145.8 0L99.3 33.3L134 55.7Z" fill="#5b3262" stroke="#adadad"></path><path d="M9.8 97.7L0 114.7L18.5 104.3Z" fill="#835b55" stroke="#adadad"></path><path d="M18.5 104.3L0 114.7L23.8 123Z" fill="#888277" stroke="#adadad"></path><path d="M628.5 59.3L619.5 51L621.3 84.3Z" fill="#463067" stroke="#adadad"></path><path d="M410.8 900L419.3 900L392.8 863.3Z" fill="#7d4754" stroke="#adadad"></path><path d="M567 864.7L619.8 818.3L545.8 850Z" fill="#7d4754" stroke="#adadad"></path><path d="M644.5 803.3L675 776L653.5 748.3Z" fill="#815153" stroke="#adadad"></path><path d="M215.3 900L204.5 838.7L186.8 900Z" fill="#5b3262" stroke="#adadad"></path><path d="M536.3 0L556 38.3L564.8 23.3Z" fill="#753e57" stroke="#adadad"></path><path d="M536.3 0L536 0L556 38.3Z" fill="#835b55" stroke="#adadad"></path><path d="M594.3 0L536.3 0L564.8 23.3Z" fill="#463067" stroke="#adadad"></path><path d="M455.3 900L468.5 892.7L460.5 857.3Z" fill="#6b375c" stroke="#adadad"></path><path d="M547.8 852.7L567 864.7L545.8 850Z" fill="#463067" stroke="#adadad"></path><path d="M644.5 803.3L653.5 748.3L615.5 798.7Z" fill="#85655a" stroke="#adadad"></path><path d="M675 725.7L675 776L685.3 582Z" fill="#835b55" stroke="#adadad"></path><path d="M619.8 818.3L644.5 803.3L615.5 798.7Z" fill="#835b55" stroke="#adadad"></path><path d="M23.5 38.7L9.8 97.7L18.5 104.3Z" fill="#753e57" stroke="#adadad"></path><path d="M248.5 0L145.8 0L204.3 13.3Z" fill="#463067" stroke="#adadad"></path><path d="M158 9.3L145.8 0L134 55.7Z" fill="#463067" stroke="#adadad"></path><path d="M419.3 900L455.3 900L460.5 857.3Z" fill="#86796b" stroke="#adadad"></path><path d="M551.8 900L547.8 852.7L525.3 850.7Z" fill="#85655a" stroke="#adadad"></path><path d="M23.5 38.7L103.5 66.3L99.3 33.3Z" fill="#856f61" stroke="#adadad"></path><path d="M23.5 38.7L0 100.3L9.8 97.7Z" fill="#835b55" stroke="#adadad"></path><path d="M9.8 97.7L0 100.3L0 114.7Z" fill="#856f61" stroke="#adadad"></path><path d="M680.3 131L675 80.7L675 119.7Z" fill="#815153" stroke="#adadad"></path><path d="M675 119.7L675 80.7L621.3 84.3Z" fill="#835b55" stroke="#adadad"></path><path d="M616.8 0L594.3 0L619.5 51Z" fill="#6b375c" stroke="#adadad"></path><path d="M619.5 51L594.3 0L564.8 23.3Z" fill="#835b55" stroke="#adadad"></path><path d="M186.8 900L169.5 860.3L162.5 900Z" fill="#5b3262" stroke="#adadad"></path><path d="M186.8 900L204.5 838.7L169.5 860.3Z" fill="#815153" stroke="#adadad"></path><path d="M491 900L469.8 854.7L468.5 892.7Z" fill="#815153" stroke="#adadad"></path><path d="M619.8 818.3L637.3 841L644.5 803.3Z" fill="#753e57" stroke="#adadad"></path><path d="M455.3 900L491 900L468.5 892.7Z" fill="#815153" stroke="#adadad"></path><path d="M491 900L504.5 900L509.3 850.3Z" fill="#86796b" stroke="#adadad"></path><path d="M162.5 900L169.5 860.3L150 855.7Z" fill="#835b55" stroke="#adadad"></path><path d="M637.3 841L615.5 846L616.3 900Z" fill="#463067" stroke="#adadad"></path><path d="M567 864.7L615.5 846L619.8 818.3Z" fill="#815153" stroke="#adadad"></path><path d="M644.5 803.3L675 867.3L675 776Z" fill="#835b55" stroke="#adadad"></path><path d="M47.8 775.3L24.8 808L56.5 783Z" fill="#753e57" stroke="#adadad"></path><path d="M101 900L162.5 900L150 855.7Z" fill="#753e57" stroke="#adadad"></path><path d="M0 794.7L38.8 725L17.8 711.7Z" fill="#86796b" stroke="#adadad"></path><path d="M24.8 808L26.8 812.7L56.5 783Z" fill="#7d4754" stroke="#adadad"></path><path d="M145.8 0L101 0L99.3 33.3Z" fill="#7d4754" stroke="#adadad"></path><path d="M0 706.3L0 794.7L17.8 711.7Z" fill="#835b55" stroke="#adadad"></path><path d="M24.8 808L0 806L26.8 812.7Z" fill="#815153" stroke="#adadad"></path><path d="M616.8 0L619.5 51L655.5 0Z" fill="#815153" stroke="#adadad"></path><path d="M594.5 900L615.5 846L567 864.7Z" fill="#888277" stroke="#adadad"></path><path d="M615.5 846L637.3 841L619.8 818.3Z" fill="#5b3262" stroke="#adadad"></path><path d="M101 900L121.8 831.7L104.5 832.3Z" fill="#835b55" stroke="#adadad"></path><path d="M0 794.7L0 806L24.8 808Z" fill="#86796b" stroke="#adadad"></path><path d="M26.8 812.7L32.8 846.3L104.5 832.3Z" fill="#815153" stroke="#adadad"></path><path d="M504.5 900L551.8 900L525.3 850.7Z" fill="#835b55" stroke="#adadad"></path><path d="M70.3 0L23.5 38.7L99.3 33.3Z" fill="#85655a" stroke="#adadad"></path><path d="M675 35.3L619.5 51L628.5 59.3Z" fill="#463067" stroke="#adadad"></path><path d="M101 0L70.5 0L99.3 33.3Z" fill="#856f61" stroke="#adadad"></path><path d="M70.5 0L70.3 0L99.3 33.3Z" fill="#835b55" stroke="#adadad"></path><path d="M680.3 131L675 35.3L675 80.7Z" fill="#6b375c" stroke="#adadad"></path><path d="M675 80.7L675 35.3L628.5 59.3Z" fill="#856f61" stroke="#adadad"></path><path d="M0 835.7L32.8 846.3L26.8 812.7Z" fill="#888277" stroke="#adadad"></path><path d="M504.5 900L560.5 908.7L551.8 900Z" fill="#888277" stroke="#adadad"></path><path d="M551.8 900L560.5 908.7L567 864.7Z" fill="#6b375c" stroke="#adadad"></path><path d="M491 900L560.5 908.7L504.5 900Z" fill="#86796b" stroke="#adadad"></path><path d="M455.3 900L560.5 908.7L491 900Z" fill="#7d4754" stroke="#adadad"></path><path d="M419.3 900L560.5 908.7L455.3 900Z" fill="#6b375c" stroke="#adadad"></path><path d="M410.8 900L560.5 908.7L419.3 900Z" fill="#5b3262" stroke="#adadad"></path><path d="M406 900L560.5 908.7L410.8 900Z" fill="#86796b" stroke="#adadad"></path><path d="M360.5 900L560.5 908.7L406 900Z" fill="#86796b" stroke="#adadad"></path><path d="M111.3 915.7L560.5 908.7L360.5 900Z" fill="#835b55" stroke="#adadad"></path><path d="M111.3 915.7L360.5 900L321 900Z" fill="#835b55" stroke="#adadad"></path><path d="M111.3 915.7L321 900L259.8 900Z" fill="#815153" stroke="#adadad"></path><path d="M111.3 915.7L259.8 900L215.3 900Z" fill="#463067" stroke="#adadad"></path><path d="M111.3 915.7L215.3 900L186.8 900Z" fill="#753e57" stroke="#adadad"></path><path d="M32.8 846.3L68.8 877.7L104.5 832.3Z" fill="#6b375c" stroke="#adadad"></path><path d="M68.8 877.7L101 900L104.5 832.3Z" fill="#835b55" stroke="#adadad"></path><path d="M162.5 900L111.3 915.7L186.8 900Z" fill="#5b3262" stroke="#adadad"></path><path d="M560.5 908.7L594.5 900L567 864.7Z" fill="#86796b" stroke="#adadad"></path><path d="M32.8 846.3L49.3 876.3L68.8 877.7Z" fill="#5b3262" stroke="#adadad"></path><path d="M68.8 877.7L77.5 900L101 900Z" fill="#888277" stroke="#adadad"></path><path d="M0 806L0 835.7L26.8 812.7Z" fill="#463067" stroke="#adadad"></path><path d="M19.5 867.7L49.3 876.3L32.8 846.3Z" fill="#7d4754" stroke="#adadad"></path><path d="M675 35.3L655.5 0L619.5 51Z" fill="#85655a" stroke="#adadad"></path><path d="M77.5 900L111.3 915.7L101 900Z" fill="#7d4754" stroke="#adadad"></path><path d="M101 900L111.3 915.7L162.5 900Z" fill="#7d4754" stroke="#adadad"></path><path d="M0 835.7L0 844.3L32.8 846.3Z" fill="#7d4754" stroke="#adadad"></path><path d="M61.3 900L68.8 877.7L49.3 876.3Z" fill="#463067" stroke="#adadad"></path><path d="M61.3 900L77.5 900L68.8 877.7Z" fill="#815153" stroke="#adadad"></path><path d="M560.5 908.7L616.3 900L594.5 900Z" fill="#856f61" stroke="#adadad"></path><path d="M594.5 900L616.3 900L615.5 846Z" fill="#6b375c" stroke="#adadad"></path><path d="M637.3 841L675 867.3L644.5 803.3Z" fill="#86796b" stroke="#adadad"></path><path d="M0 0L0 18.3L23.5 38.7Z" fill="#463067" stroke="#adadad"></path><path d="M23.5 38.7L0 18.3L0 100.3Z" fill="#856f61" stroke="#adadad"></path><path d="M0 844.3L19.5 867.7L32.8 846.3Z" fill="#815153" stroke="#adadad"></path><path d="M675 869.7L675 867.3L637.3 841Z" fill="#815153" stroke="#adadad"></path><path d="M675 776L676.3 877.3L685.3 582Z" fill="#888277" stroke="#adadad"></path><path d="M675 35.3L675 0L655.5 0Z" fill="#856f61" stroke="#adadad"></path><path d="M680.3 131L675 0L675 35.3Z" fill="#753e57" stroke="#adadad"></path><path d="M0 900L61.3 900L49.3 876.3Z" fill="#5b3262" stroke="#adadad"></path><path d="M77.5 900L61.3 900L111.3 915.7Z" fill="#463067" stroke="#adadad"></path><path d="M616.3 900L675 869.7L637.3 841Z" fill="#5b3262" stroke="#adadad"></path><path d="M675 867.3L676.3 877.3L675 776Z" fill="#5b3262" stroke="#adadad"></path><path d="M657.3 907.7L676.3 877.3L675 869.7Z" fill="#835b55" stroke="#adadad"></path><path d="M675 869.7L676.3 877.3L675 867.3Z" fill="#815153" stroke="#adadad"></path><path d="M70.3 0L0 0L23.5 38.7Z" fill="#888277" stroke="#adadad"></path><path d="M0 0L-17.2 0L0 18.3Z" fill="#753e57" stroke="#adadad"></path><path d="M0 18.3L-17.2 0L0 100.3Z" fill="#6b375c" stroke="#adadad"></path><path d="M0 100.3L-17.2 0L0 114.7Z" fill="#463067" stroke="#adadad"></path><path d="M0 114.7L-17.2 0L0 150Z" fill="#835b55" stroke="#adadad"></path><path d="M0 150L-17.2 0L0 206.7Z" fill="#6b375c" stroke="#adadad"></path><path d="M0 206.7L-17.2 0L0 224.7Z" fill="#815153" stroke="#adadad"></path><path d="M0 224.7L-17.2 0L0 248Z" fill="#7d4754" stroke="#adadad"></path><path d="M0 248L-17.2 0L0 265.3Z" fill="#7d4754" stroke="#adadad"></path><path d="M0 265.3L-17.2 0L0 286.3Z" fill="#835b55" stroke="#adadad"></path><path d="M0 286.3L-17.2 0L0 305Z" fill="#5b3262" stroke="#adadad"></path><path d="M0 305L-17.2 0L0 320.7Z" fill="#753e57" stroke="#adadad"></path><path d="M0 320.7L-17.2 0L0 401.3Z" fill="#7d4754" stroke="#adadad"></path><path d="M0 401.3L-17.2 0L0 444.7Z" fill="#753e57" stroke="#adadad"></path><path d="M0 444.7L-17.2 0L0 450Z" fill="#85655a" stroke="#adadad"></path><path d="M0 450L-17.2 0L0 465Z" fill="#463067" stroke="#adadad"></path><path d="M0 465L-14.2 900L0 546.3Z" fill="#753e57" stroke="#adadad"></path><path d="M0 546.3L-14.2 900L0 547.7Z" fill="#463067" stroke="#adadad"></path><path d="M0 547.7L-14.2 900L0 574Z" fill="#815153" stroke="#adadad"></path><path d="M0 574L-14.2 900L0 644.3Z" fill="#86796b" stroke="#adadad"></path><path d="M0 644.3L-14.2 900L0 652.7Z" fill="#753e57" stroke="#adadad"></path><path d="M0 652.7L-14.2 900L0 706Z" fill="#856f61" stroke="#adadad"></path><path d="M0 706L-14.2 900L0 706.3Z" fill="#6b375c" stroke="#adadad"></path><path d="M0 706.3L-14.2 900L0 794.7Z" fill="#815153" stroke="#adadad"></path><path d="M0 794.7L-14.2 900L0 806Z" fill="#888277" stroke="#adadad"></path><path d="M0 806L-14.2 900L0 835.7Z" fill="#835b55" stroke="#adadad"></path><path d="M0 835.7L-14.2 900L0 844.3Z" fill="#7d4754" stroke="#adadad"></path><path d="M70.3 0L3.8 -17.7L0 0Z" fill="#7d4754" stroke="#adadad"></path><path d="M0 0L3.8 -17.7L-17.2 0Z" fill="#86796b" stroke="#adadad"></path><path d="M70.5 0L3.8 -17.7L70.3 0Z" fill="#888277" stroke="#adadad"></path><path d="M101 0L3.8 -17.7L70.5 0Z" fill="#86796b" stroke="#adadad"></path><path d="M145.8 0L3.8 -17.7L101 0Z" fill="#753e57" stroke="#adadad"></path><path d="M248.5 0L3.8 -17.7L145.8 0Z" fill="#7d4754" stroke="#adadad"></path><path d="M266.3 0L3.8 -17.7L248.5 0Z" fill="#85655a" stroke="#adadad"></path><path d="M282.8 0L3.8 -17.7L266.3 0Z" fill="#753e57" stroke="#adadad"></path><path d="M301 0L3.8 -17.7L282.8 0Z" fill="#86796b" stroke="#adadad"></path><path d="M321.5 0L3.8 -17.7L301 0Z" fill="#5b3262" stroke="#adadad"></path><path d="M359 0L3.8 -17.7L321.5 0Z" fill="#463067" stroke="#adadad"></path><path d="M396.3 0L3.8 -17.7L359 0Z" fill="#835b55" stroke="#adadad"></path><path d="M456.5 0L3.8 -17.7L396.3 0Z" fill="#5b3262" stroke="#adadad"></path><path d="M484.8 0L3.8 -17.7L456.5 0Z" fill="#85655a" stroke="#adadad"></path><path d="M536 0L3.8 -17.7L484.8 0Z" fill="#463067" stroke="#adadad"></path><path d="M536.3 0L3.8 -17.7L536 0Z" fill="#5b3262" stroke="#adadad"></path><path d="M594.3 0L3.8 -17.7L536.3 0Z" fill="#835b55" stroke="#adadad"></path><path d="M616.8 0L3.8 -17.7L594.3 0Z" fill="#86796b" stroke="#adadad"></path><path d="M655.5 0L3.8 -17.7L616.8 0Z" fill="#463067" stroke="#adadad"></path><path d="M675 0L3.8 -17.7L655.5 0Z" fill="#815153" stroke="#adadad"></path><path d="M560.5 908.7L657.3 907.7L616.3 900Z" fill="#86796b" stroke="#adadad"></path><path d="M616.3 900L657.3 907.7L675 869.7Z" fill="#753e57" stroke="#adadad"></path><path d="M111.3 915.7L657.3 907.7L560.5 908.7Z" fill="#6b375c" stroke="#adadad"></path><path d="M657.3 907.7L675 900L676.3 877.3Z" fill="#85655a" stroke="#adadad"></path><path d="M-14.2 900L0 900L19.5 867.7Z" fill="#835b55" stroke="#adadad"></path><path d="M19.5 867.7L0 900L49.3 876.3Z" fill="#888277" stroke="#adadad"></path><path d="M61.3 900L0 900L111.3 915.7Z" fill="#753e57" stroke="#adadad"></path><path d="M-14.2 900L19.5 867.7L0 844.3Z" fill="#7d4754" stroke="#adadad"></path><path d="M-17.2 0L-14.2 900L0 465Z" fill="#753e57" stroke="#adadad"></path><path d="M0 900L-14.2 900L111.3 915.7Z" fill="#85655a" stroke="#adadad"></path></g></svg>