<svg id="visual" viewBox="0 0 675 900" width="675" height="900" xmlns="http://www.w3.org/2000/svg" xmlns:xlink="http://www.w3.org/1999/xlink" version="1.1"><g stroke-width="1" stroke-linejoin="bevel"><path d="M323.5 442L298.8 438.3L306.8 476Z" fill="#cccccc" stroke="#adadad"></path><path d="M306.8 476L322.3 478.3L323.5 442Z" fill="#5c49a3" stroke="#adadad"></path><path d="M298.8 438.3L272 492.3L306.8 476Z" fill="#cccccc" stroke="#adadad"></path><path d="M306.8 476L322.3 530.3L322.3 478.3Z" fill="#cccccc" stroke="#adadad"></path><path d="M371.5 453.3L357 430L323.5 442Z" fill="#8978b3" stroke="#adadad"></path><path d="M323.5 442L349.3 395.7L298.8 438.3Z" fill="#cccccc" stroke="#adadad"></path><path d="M258 416.7L254.8 442.7L298.8 438.3Z" fill="#a499bd" stroke="#adadad"></path><path d="M298.8 438.3L254.8 442.7L272 492.3Z" fill="#8978b3" stroke="#adadad"></path><path d="M322.3 478.3L371.5 453.3L323.5 442Z" fill="#cccccc" stroke="#adadad"></path><path d="M327.3 529.7L358 495L322.3 478.3Z" fill="#382a97" stroke="#adadad"></path><path d="M322.3 478.3L358 495L371.5 453.3Z" fill="#a499bd" stroke="#adadad"></path><path d="M264 394.3L258 416.7L298.8 438.3Z" fill="#6c58a8" stroke="#adadad"></path><path d="M251.5 516.7L269.3 508L272 492.3Z" fill="#382a97" stroke="#adadad"></path><path d="M272 492.3L269.3 508L306.8 476Z" fill="#7b68ae" stroke="#adadad"></path><path d="M235 460L243.3 456.7L224 427Z" fill="#b2aac2" stroke="#adadad"></path><path d="M254.8 442.7L243.3 456.7L272 492.3Z" fill="#6c58a8" stroke="#adadad"></path><path d="M371.5 453.3L375.3 433L357 430Z" fill="#4c399d" stroke="#adadad"></path><path d="M377.5 418.7L349.3 395.7L357 430Z" fill="#b2aac2" stroke="#adadad"></path><path d="M357 430L349.3 395.7L323.5 442Z" fill="#bfbbc7" stroke="#adadad"></path><path d="M224 427L243.3 456.7L254.8 442.7Z" fill="#8978b3" stroke="#adadad"></path><path d="M243.3 456.7L228.5 473L272 492.3Z" fill="#6c58a8" stroke="#adadad"></path><path d="M269.3 508L322.3 530.3L306.8 476Z" fill="#b2aac2" stroke="#adadad"></path><path d="M322.3 530.3L327.3 529.7L322.3 478.3Z" fill="#382a97" stroke="#adadad"></path><path d="M332.5 375.7L264 394.3L298.8 438.3Z" fill="#9788b8" stroke="#adadad"></path><path d="M258 416.7L224 427L254.8 442.7Z" fill="#7b68ae" stroke="#adadad"></path><path d="M375.3 433L377.5 418.7L357 430Z" fill="#4c399d" stroke="#adadad"></path><path d="M264 394.3L252.8 398L258 416.7Z" fill="#a499bd" stroke="#adadad"></path><path d="M384.3 516.7L386.5 481.3L358 495Z" fill="#bfbbc7" stroke="#adadad"></path><path d="M358 495L386.5 481.3L371.5 453.3Z" fill="#5c49a3" stroke="#adadad"></path><path d="M371.5 453.3L408.8 447.7L375.3 433Z" fill="#4c399d" stroke="#adadad"></path><path d="M375.3 433L408.8 447.7L377.5 418.7Z" fill="#cccccc" stroke="#adadad"></path><path d="M349.8 535.3L342.5 530.7L320.5 550Z" fill="#7b68ae" stroke="#adadad"></path><path d="M327.3 529.7L342.5 530.7L358 495Z" fill="#5c49a3" stroke="#adadad"></path><path d="M207.5 481.3L228.5 473L235 460Z" fill="#4c399d" stroke="#adadad"></path><path d="M235 460L228.5 473L243.3 456.7Z" fill="#bfbbc7" stroke="#adadad"></path><path d="M228.5 473L251.5 516.7L272 492.3Z" fill="#9788b8" stroke="#adadad"></path><path d="M269.3 508L320.5 550L322.3 530.3Z" fill="#4c399d" stroke="#adadad"></path><path d="M366.5 367.3L332.5 375.7L349.3 395.7Z" fill="#4c399d" stroke="#adadad"></path><path d="M349.3 395.7L332.5 375.7L298.8 438.3Z" fill="#7b68ae" stroke="#adadad"></path><path d="M252.8 398L238.3 405.3L258 416.7Z" fill="#a499bd" stroke="#adadad"></path><path d="M320.5 550L342.5 530.7L327.3 529.7Z" fill="#b2aac2" stroke="#adadad"></path><path d="M342.5 530.7L349.8 535.3L358 495Z" fill="#9788b8" stroke="#adadad"></path><path d="M238.3 405.3L224 427L258 416.7Z" fill="#5c49a3" stroke="#adadad"></path><path d="M251.5 516.7L320.5 550L269.3 508Z" fill="#b2aac2" stroke="#adadad"></path><path d="M322.3 530.3L320.5 550L327.3 529.7Z" fill="#4c399d" stroke="#adadad"></path><path d="M349.8 535.3L384.3 516.7L358 495Z" fill="#5c49a3" stroke="#adadad"></path><path d="M384.3 516.7L406 464.3L386.5 481.3Z" fill="#b2aac2" stroke="#adadad"></path><path d="M386.5 481.3L406 464.3L371.5 453.3Z" fill="#382a97" stroke="#adadad"></path><path d="M406 464.3L408.8 447.7L371.5 453.3Z" fill="#cccccc" stroke="#adadad"></path><path d="M377.5 418.7L366.5 367.3L349.3 395.7Z" fill="#7b68ae" stroke="#adadad"></path><path d="M225 386.7L223.5 403L238.3 405.3Z" fill="#cccccc" stroke="#adadad"></path><path d="M238.3 405.3L223.5 403L224 427Z" fill="#382a97" stroke="#adadad"></path><path d="M225 386.7L238.3 405.3L252.8 398Z" fill="#8978b3" stroke="#adadad"></path><path d="M225 386.7L252.8 398L227.5 370.7Z" fill="#4c399d" stroke="#adadad"></path><path d="M224 427L207.5 481.3L235 460Z" fill="#4c399d" stroke="#adadad"></path><path d="M228.5 473L207.5 481.3L251.5 516.7Z" fill="#cccccc" stroke="#adadad"></path><path d="M176 461.3L207.5 481.3L224 427Z" fill="#5c49a3" stroke="#adadad"></path><path d="M374 356.7L366.5 367.3L422.8 371.7Z" fill="#5c49a3" stroke="#adadad"></path><path d="M366.5 367.3L349.8 355.7L332.5 375.7Z" fill="#6c58a8" stroke="#adadad"></path><path d="M332.5 375.7L294.5 344L264 394.3Z" fill="#382a97" stroke="#adadad"></path><path d="M227.5 370.7L252.8 398L264 394.3Z" fill="#bfbbc7" stroke="#adadad"></path><path d="M186.5 390.3L176 461.3L224 427Z" fill="#8978b3" stroke="#adadad"></path><path d="M349.8 355.7L294.5 344L332.5 375.7Z" fill="#9788b8" stroke="#adadad"></path><path d="M227.5 370.7L219.8 384.3L225 386.7Z" fill="#4c399d" stroke="#adadad"></path><path d="M225 386.7L219.8 384.3L223.5 403Z" fill="#cccccc" stroke="#adadad"></path><path d="M431.5 455L425 442.7L408.8 447.7Z" fill="#5c49a3" stroke="#adadad"></path><path d="M408.8 447.7L425 442.7L377.5 418.7Z" fill="#9788b8" stroke="#adadad"></path><path d="M431.5 455L408.8 447.7L406 464.3Z" fill="#5c49a3" stroke="#adadad"></path><path d="M249.5 336L227.5 370.7L264 394.3Z" fill="#8978b3" stroke="#adadad"></path><path d="M366.5 367.3L374 356.7L349.8 355.7Z" fill="#5c49a3" stroke="#adadad"></path><path d="M349.8 355.7L353.8 321.3L294.5 344Z" fill="#a499bd" stroke="#adadad"></path><path d="M422.8 371.7L366.5 367.3L377.5 418.7Z" fill="#bfbbc7" stroke="#adadad"></path><path d="M349.8 535.3L387.3 548L384.3 516.7Z" fill="#9788b8" stroke="#adadad"></path><path d="M470.5 508.7L431.5 455L406 464.3Z" fill="#5c49a3" stroke="#adadad"></path><path d="M354.8 606.7L387.3 548L349.8 535.3Z" fill="#bfbbc7" stroke="#adadad"></path><path d="M207.5 481.3L215.3 533.3L251.5 516.7Z" fill="#382a97" stroke="#adadad"></path><path d="M251.5 516.7L271.3 592.3L320.5 550Z" fill="#b2aac2" stroke="#adadad"></path><path d="M437 544.3L406 464.3L384.3 516.7Z" fill="#9788b8" stroke="#adadad"></path><path d="M215.3 533.3L234.5 561L251.5 516.7Z" fill="#5c49a3" stroke="#adadad"></path><path d="M320.5 550L318.5 585L349.8 535.3Z" fill="#8978b3" stroke="#adadad"></path><path d="M271.3 592.3L318.5 585L320.5 550Z" fill="#a499bd" stroke="#adadad"></path><path d="M207.5 481.3L190.8 516L215.3 533.3Z" fill="#8978b3" stroke="#adadad"></path><path d="M197.3 582.7L210.3 588L234.5 561Z" fill="#a499bd" stroke="#adadad"></path><path d="M176 461.3L190.8 516L207.5 481.3Z" fill="#bfbbc7" stroke="#adadad"></path><path d="M186.5 390.3L223.5 403L219.8 384.3Z" fill="#cccccc" stroke="#adadad"></path><path d="M186.5 390.3L224 427L223.5 403Z" fill="#cccccc" stroke="#adadad"></path><path d="M285.8 312.7L249.5 336L294.5 344Z" fill="#a499bd" stroke="#adadad"></path><path d="M294.5 344L249.5 336L264 394.3Z" fill="#4c399d" stroke="#adadad"></path><path d="M197.5 338.3L204.3 367.7L227.5 370.7Z" fill="#bfbbc7" stroke="#adadad"></path><path d="M227.5 370.7L204.3 367.7L219.8 384.3Z" fill="#382a97" stroke="#adadad"></path><path d="M210.3 588L241 576.7L234.5 561Z" fill="#4c399d" stroke="#adadad"></path><path d="M234.5 561L271.3 592.3L251.5 516.7Z" fill="#6c58a8" stroke="#adadad"></path><path d="M204.3 367.7L186.5 390.3L219.8 384.3Z" fill="#6c58a8" stroke="#adadad"></path><path d="M241 576.7L271.3 592.3L234.5 561Z" fill="#8978b3" stroke="#adadad"></path><path d="M405.3 576L415.8 548.7L387.3 548Z" fill="#cccccc" stroke="#adadad"></path><path d="M387.3 548L415.8 548.7L384.3 516.7Z" fill="#5c49a3" stroke="#adadad"></path><path d="M453.5 433.3L422.8 371.7L425 442.7Z" fill="#7b68ae" stroke="#adadad"></path><path d="M425 442.7L422.8 371.7L377.5 418.7Z" fill="#7b68ae" stroke="#adadad"></path><path d="M409.8 314.3L353.8 321.3L374 356.7Z" fill="#bfbbc7" stroke="#adadad"></path><path d="M374 356.7L353.8 321.3L349.8 355.7Z" fill="#bfbbc7" stroke="#adadad"></path><path d="M176 461.3L180.5 519.7L190.8 516Z" fill="#9788b8" stroke="#adadad"></path><path d="M190.8 516L180.5 519.7L215.3 533.3Z" fill="#b2aac2" stroke="#adadad"></path><path d="M353.8 321.3L285.8 312.7L294.5 344Z" fill="#8978b3" stroke="#adadad"></path><path d="M459.8 459L453.5 433.3L431.5 455Z" fill="#8978b3" stroke="#adadad"></path><path d="M431.5 455L453.5 433.3L425 442.7Z" fill="#bfbbc7" stroke="#adadad"></path><path d="M216.8 600L252 591L241 576.7Z" fill="#6c58a8" stroke="#adadad"></path><path d="M241 576.7L252 591L271.3 592.3Z" fill="#b2aac2" stroke="#adadad"></path><path d="M470.5 508.7L459.8 459L431.5 455Z" fill="#8978b3" stroke="#adadad"></path><path d="M456.5 376.3L428.5 362L422.8 371.7Z" fill="#b2aac2" stroke="#adadad"></path><path d="M422.8 371.7L428.5 362L374 356.7Z" fill="#382a97" stroke="#adadad"></path><path d="M197.5 338.3L185.3 365L204.3 367.7Z" fill="#cccccc" stroke="#adadad"></path><path d="M204.3 367.7L185.3 365L186.5 390.3Z" fill="#9788b8" stroke="#adadad"></path><path d="M186.5 390.3L146.3 429.3L176 461.3Z" fill="#b2aac2" stroke="#adadad"></path><path d="M197.5 338.3L227.5 370.7L249.5 336Z" fill="#8978b3" stroke="#adadad"></path><path d="M354.8 606.7L405.3 576L387.3 548Z" fill="#5c49a3" stroke="#adadad"></path><path d="M415.8 548.7L437 544.3L384.3 516.7Z" fill="#382a97" stroke="#adadad"></path><path d="M354.8 606.7L349.8 535.3L318.5 585Z" fill="#5c49a3" stroke="#adadad"></path><path d="M427.8 558L437 544.3L415.8 548.7Z" fill="#8978b3" stroke="#adadad"></path><path d="M322.3 261L276 303L285.8 312.7Z" fill="#9788b8" stroke="#adadad"></path><path d="M285.8 312.7L276 303L249.5 336Z" fill="#a499bd" stroke="#adadad"></path><path d="M405.3 576L427.8 558L415.8 548.7Z" fill="#6c58a8" stroke="#adadad"></path><path d="M314.8 622.3L318.5 585L271.3 592.3Z" fill="#9788b8" stroke="#adadad"></path><path d="M314.8 622.3L354.8 606.7L318.5 585Z" fill="#8978b3" stroke="#adadad"></path><path d="M185.3 365L166.8 385.7L186.5 390.3Z" fill="#6c58a8" stroke="#adadad"></path><path d="M176 461.3L142 484.3L180.5 519.7Z" fill="#7b68ae" stroke="#adadad"></path><path d="M276 303L235 313.7L249.5 336Z" fill="#382a97" stroke="#adadad"></path><path d="M235 313.7L197.5 338.3L249.5 336Z" fill="#7b68ae" stroke="#adadad"></path><path d="M185.3 365L169 344.3L166.8 385.7Z" fill="#bfbbc7" stroke="#adadad"></path><path d="M166.8 385.7L146.3 429.3L186.5 390.3Z" fill="#6c58a8" stroke="#adadad"></path><path d="M197.3 582.7L234.5 561L215.3 533.3Z" fill="#5c49a3" stroke="#adadad"></path><path d="M272 618.7L314.8 622.3L271.3 592.3Z" fill="#b2aac2" stroke="#adadad"></path><path d="M272 618.7L271.3 592.3L252 591Z" fill="#bfbbc7" stroke="#adadad"></path><path d="M216.8 600L272 618.7L252 591Z" fill="#a499bd" stroke="#adadad"></path><path d="M477.3 402.3L456.5 376.3L453.5 433.3Z" fill="#5c49a3" stroke="#adadad"></path><path d="M453.5 433.3L456.5 376.3L422.8 371.7Z" fill="#b2aac2" stroke="#adadad"></path><path d="M428.5 362L431.8 340L374 356.7Z" fill="#382a97" stroke="#adadad"></path><path d="M146.3 429.3L141.3 475L176 461.3Z" fill="#8978b3" stroke="#adadad"></path><path d="M180.8 582.7L197.3 582.7L215.3 533.3Z" fill="#bfbbc7" stroke="#adadad"></path><path d="M180.8 582.7L215.3 533.3L180.5 519.7Z" fill="#4c399d" stroke="#adadad"></path><path d="M210.3 588L216.8 600L241 576.7Z" fill="#b2aac2" stroke="#adadad"></path><path d="M456.5 376.3L431.8 340L428.5 362Z" fill="#a499bd" stroke="#adadad"></path><path d="M141.3 475L142 484.3L176 461.3Z" fill="#b2aac2" stroke="#adadad"></path><path d="M458.3 558L470.5 508.7L437 544.3Z" fill="#bfbbc7" stroke="#adadad"></path><path d="M437 544.3L470.5 508.7L406 464.3Z" fill="#6c58a8" stroke="#adadad"></path><path d="M459.8 459L482.8 435.3L453.5 433.3Z" fill="#382a97" stroke="#adadad"></path><path d="M197.3 582.7L216.8 600L210.3 588Z" fill="#a499bd" stroke="#adadad"></path><path d="M276 303L242.3 296.3L235 313.7Z" fill="#9788b8" stroke="#adadad"></path><path d="M235 313.7L194.3 313L197.5 338.3Z" fill="#9788b8" stroke="#adadad"></path><path d="M311.5 644.3L320.8 629L314.8 622.3Z" fill="#cccccc" stroke="#adadad"></path><path d="M314.8 622.3L320.8 629L354.8 606.7Z" fill="#7b68ae" stroke="#adadad"></path><path d="M441 605L427.8 558L405.3 576Z" fill="#8978b3" stroke="#adadad"></path><path d="M431.8 340L409.8 314.3L374 356.7Z" fill="#6c58a8" stroke="#adadad"></path><path d="M353.8 321.3L339.5 269.7L285.8 312.7Z" fill="#382a97" stroke="#adadad"></path><path d="M257.3 240.3L231 285.3L242.3 296.3Z" fill="#b2aac2" stroke="#adadad"></path><path d="M490 473.7L482.8 435.3L459.8 459Z" fill="#6c58a8" stroke="#adadad"></path><path d="M127 482L142 484.3L141.3 475Z" fill="#7b68ae" stroke="#adadad"></path><path d="M127 482L135.8 489.3L142 484.3Z" fill="#a499bd" stroke="#adadad"></path><path d="M142 484.3L135.8 489.3L180.5 519.7Z" fill="#7b68ae" stroke="#adadad"></path><path d="M481.8 414L477.3 402.3L453.5 433.3Z" fill="#4c399d" stroke="#adadad"></path><path d="M456.5 376.3L433 328.3L431.8 340Z" fill="#a499bd" stroke="#adadad"></path><path d="M433 328.3L415.3 313.3L409.8 314.3Z" fill="#4c399d" stroke="#adadad"></path><path d="M409.8 314.3L395 297L353.8 321.3Z" fill="#6c58a8" stroke="#adadad"></path><path d="M433 328.3L409.8 314.3L431.8 340Z" fill="#b2aac2" stroke="#adadad"></path><path d="M482.8 435.3L481.8 414L453.5 433.3Z" fill="#a499bd" stroke="#adadad"></path><path d="M450 289.7L433 328.3L519.5 327.7Z" fill="#9788b8" stroke="#adadad"></path><path d="M197.5 338.3L169 344.3L185.3 365Z" fill="#7b68ae" stroke="#adadad"></path><path d="M121 376.7L126.8 429L146.3 429.3Z" fill="#9788b8" stroke="#adadad"></path><path d="M194.3 313L169 344.3L197.5 338.3Z" fill="#b2aac2" stroke="#adadad"></path><path d="M140.3 535.3L180.8 582.7L180.5 519.7Z" fill="#bfbbc7" stroke="#adadad"></path><path d="M197.3 582.7L170.8 591.3L216.8 600Z" fill="#8978b3" stroke="#adadad"></path><path d="M415.3 313.3L395 297L409.8 314.3Z" fill="#8978b3" stroke="#adadad"></path><path d="M441 605L458.3 558L427.8 558Z" fill="#7b68ae" stroke="#adadad"></path><path d="M427.8 558L458.3 558L437 544.3Z" fill="#a499bd" stroke="#adadad"></path><path d="M430 610.7L405.3 576L404.8 642.7Z" fill="#4c399d" stroke="#adadad"></path><path d="M284.8 654L286 636.3L272 618.7Z" fill="#b2aac2" stroke="#adadad"></path><path d="M272 618.7L286 636.3L314.8 622.3Z" fill="#cccccc" stroke="#adadad"></path><path d="M284.8 654L272 618.7L208.3 663Z" fill="#bfbbc7" stroke="#adadad"></path><path d="M504.3 516.7L490 473.7L470.5 508.7Z" fill="#9788b8" stroke="#adadad"></path><path d="M470.5 508.7L490 473.7L459.8 459Z" fill="#bfbbc7" stroke="#adadad"></path><path d="M482.8 435.3L524 395L481.8 414Z" fill="#b2aac2" stroke="#adadad"></path><path d="M227.5 284.3L194.3 313L235 313.7Z" fill="#9788b8" stroke="#adadad"></path><path d="M126.8 429L141.3 475L146.3 429.3Z" fill="#9788b8" stroke="#adadad"></path><path d="M116.3 429.7L127 482L141.3 475Z" fill="#a499bd" stroke="#adadad"></path><path d="M135.8 489.3L140.3 535.3L180.5 519.7Z" fill="#4c399d" stroke="#adadad"></path><path d="M137.3 370L146.3 429.3L166.8 385.7Z" fill="#6c58a8" stroke="#adadad"></path><path d="M120.8 517.7L140.3 535.3L135.8 489.3Z" fill="#cccccc" stroke="#adadad"></path><path d="M257.3 240.3L242.3 296.3L276 303Z" fill="#382a97" stroke="#adadad"></path><path d="M242.3 296.3L231 285.3L235 313.7Z" fill="#382a97" stroke="#adadad"></path><path d="M286 636.3L311.5 644.3L314.8 622.3Z" fill="#8978b3" stroke="#adadad"></path><path d="M320.8 629L356.3 642.3L354.8 606.7Z" fill="#b2aac2" stroke="#adadad"></path><path d="M395 297L339.5 269.7L353.8 321.3Z" fill="#4c399d" stroke="#adadad"></path><path d="M218.8 278.3L227.5 284.3L231 285.3Z" fill="#7b68ae" stroke="#adadad"></path><path d="M231 285.3L227.5 284.3L235 313.7Z" fill="#5c49a3" stroke="#adadad"></path><path d="M121 376.7L137.3 370L123 367Z" fill="#b2aac2" stroke="#adadad"></path><path d="M169 344.3L137.3 370L166.8 385.7Z" fill="#6c58a8" stroke="#adadad"></path><path d="M311.5 644.3L356.3 642.3L320.8 629Z" fill="#382a97" stroke="#adadad"></path><path d="M140.3 535.3L170.8 591.3L180.8 582.7Z" fill="#4c399d" stroke="#adadad"></path><path d="M180.8 582.7L170.8 591.3L197.3 582.7Z" fill="#b2aac2" stroke="#adadad"></path><path d="M121 376.7L116.3 429.7L126.8 429Z" fill="#b2aac2" stroke="#adadad"></path><path d="M126.8 429L116.3 429.7L141.3 475Z" fill="#382a97" stroke="#adadad"></path><path d="M334.5 217.7L322.3 261L353.3 220.3Z" fill="#8978b3" stroke="#adadad"></path><path d="M339.5 269.7L322.3 261L285.8 312.7Z" fill="#6c58a8" stroke="#adadad"></path><path d="M482.5 555.3L482.8 547.3L458.3 558Z" fill="#b2aac2" stroke="#adadad"></path><path d="M458.3 558L482.8 547.3L470.5 508.7Z" fill="#5c49a3" stroke="#adadad"></path><path d="M404.8 642.7L405.3 576L354.8 606.7Z" fill="#bfbbc7" stroke="#adadad"></path><path d="M111 484.7L135.8 489.3L127 482Z" fill="#4c399d" stroke="#adadad"></path><path d="M111 484.7L120.8 517.7L135.8 489.3Z" fill="#6c58a8" stroke="#adadad"></path><path d="M140.3 535.3L121 544.7L170.8 591.3Z" fill="#4c399d" stroke="#adadad"></path><path d="M237 238.3L218.8 278.3L231 285.3Z" fill="#cccccc" stroke="#adadad"></path><path d="M227.5 284.3L218.8 278.3L194.3 313Z" fill="#382a97" stroke="#adadad"></path><path d="M123 367L137.3 370L169 344.3Z" fill="#bfbbc7" stroke="#adadad"></path><path d="M430 610.7L441 605L405.3 576Z" fill="#382a97" stroke="#adadad"></path><path d="M202.5 652.3L272 618.7L216.8 600Z" fill="#a499bd" stroke="#adadad"></path><path d="M286 636.3L284.8 654L311.5 644.3Z" fill="#cccccc" stroke="#adadad"></path><path d="M311.5 644.3L354 660L356.3 642.3Z" fill="#b2aac2" stroke="#adadad"></path><path d="M116.3 429.7L111 484.7L127 482Z" fill="#382a97" stroke="#adadad"></path><path d="M482.5 573L482.5 555.3L458.3 558Z" fill="#7b68ae" stroke="#adadad"></path><path d="M482.8 547.3L498.3 525L470.5 508.7Z" fill="#bfbbc7" stroke="#adadad"></path><path d="M506.3 522.7L498.3 525L515.3 550.3Z" fill="#8978b3" stroke="#adadad"></path><path d="M490 473.7L528.8 471.3L482.8 435.3Z" fill="#cccccc" stroke="#adadad"></path><path d="M123 367L169 344.3L125 297.7Z" fill="#a499bd" stroke="#adadad"></path><path d="M137.3 370L121 376.7L146.3 429.3Z" fill="#8978b3" stroke="#adadad"></path><path d="M76.8 464L90.5 504L111 484.7Z" fill="#b2aac2" stroke="#adadad"></path><path d="M506.3 522.7L504.3 516.7L498.3 525Z" fill="#7b68ae" stroke="#adadad"></path><path d="M498.3 525L504.3 516.7L470.5 508.7Z" fill="#a499bd" stroke="#adadad"></path><path d="M148.8 294.3L169 344.3L194.3 313Z" fill="#7b68ae" stroke="#adadad"></path><path d="M90.5 504L121 544.7L120.8 517.7Z" fill="#6c58a8" stroke="#adadad"></path><path d="M120.8 517.7L121 544.7L140.3 535.3Z" fill="#8978b3" stroke="#adadad"></path><path d="M322.3 261L295.8 248L276 303Z" fill="#4c399d" stroke="#adadad"></path><path d="M515.3 550.3L498.3 525L482.8 547.3Z" fill="#a499bd" stroke="#adadad"></path><path d="M504.3 516.7L528.8 471.3L490 473.7Z" fill="#4c399d" stroke="#adadad"></path><path d="M320.3 667L354 660L311.5 644.3Z" fill="#bfbbc7" stroke="#adadad"></path><path d="M356.3 642.3L404.8 642.7L354.8 606.7Z" fill="#b2aac2" stroke="#adadad"></path><path d="M430 610.7L462.5 625.3L441 605Z" fill="#5c49a3" stroke="#adadad"></path><path d="M441 605L482.5 573L458.3 558Z" fill="#5c49a3" stroke="#adadad"></path><path d="M482.5 555.3L515.3 550.3L482.8 547.3Z" fill="#7b68ae" stroke="#adadad"></path><path d="M377.5 672L404.8 642.7L356.3 642.3Z" fill="#b2aac2" stroke="#adadad"></path><path d="M441 605L462.5 625.3L482.5 573Z" fill="#5c49a3" stroke="#adadad"></path><path d="M284.8 654L320.3 667L311.5 644.3Z" fill="#5c49a3" stroke="#adadad"></path><path d="M415.3 313.3L417.3 272.7L395 297Z" fill="#bfbbc7" stroke="#adadad"></path><path d="M395 297L384 233L339.5 269.7Z" fill="#a499bd" stroke="#adadad"></path><path d="M278.3 221.7L283.8 235.3L301.5 219.3Z" fill="#bfbbc7" stroke="#adadad"></path><path d="M450 289.7L417.3 272.7L415.3 313.3Z" fill="#8978b3" stroke="#adadad"></path><path d="M450 289.7L415.3 313.3L433 328.3Z" fill="#a499bd" stroke="#adadad"></path><path d="M237 238.3L202.8 267.7L218.8 278.3Z" fill="#bfbbc7" stroke="#adadad"></path><path d="M218.8 278.3L202.8 267.7L194.3 313Z" fill="#9788b8" stroke="#adadad"></path><path d="M527.8 357L456.5 376.3L477.3 402.3Z" fill="#382a97" stroke="#adadad"></path><path d="M519.5 327.7L433 328.3L456.5 376.3Z" fill="#7b68ae" stroke="#adadad"></path><path d="M413.3 655.7L411 649.7L377.5 672Z" fill="#cccccc" stroke="#adadad"></path><path d="M404.8 642.7L411 649.7L430 610.7Z" fill="#5c49a3" stroke="#adadad"></path><path d="M411 649.7L404.8 642.7L377.5 672Z" fill="#4c399d" stroke="#adadad"></path><path d="M545 520.3L528.8 471.3L504.3 516.7Z" fill="#4c399d" stroke="#adadad"></path><path d="M481.8 414L524 395L477.3 402.3Z" fill="#bfbbc7" stroke="#adadad"></path><path d="M295.8 248L257.3 240.3L276 303Z" fill="#a499bd" stroke="#adadad"></path><path d="M301.5 219.3L295.8 248L322.3 261Z" fill="#b2aac2" stroke="#adadad"></path><path d="M295.8 248L283.8 235.3L257.3 240.3Z" fill="#5c49a3" stroke="#adadad"></path><path d="M195.5 665.7L202.5 652.3L139 634Z" fill="#5c49a3" stroke="#adadad"></path><path d="M170.8 591.3L202.5 652.3L216.8 600Z" fill="#7b68ae" stroke="#adadad"></path><path d="M284.8 654L307.8 695.3L320.3 667Z" fill="#bfbbc7" stroke="#adadad"></path><path d="M76.8 464L111 484.7L116.3 429.7Z" fill="#382a97" stroke="#adadad"></path><path d="M111 484.7L90.5 504L120.8 517.7Z" fill="#cccccc" stroke="#adadad"></path><path d="M76.8 464L116.3 429.7L46.5 432Z" fill="#4c399d" stroke="#adadad"></path><path d="M528.8 471.3L524 395L482.8 435.3Z" fill="#8978b3" stroke="#adadad"></path><path d="M307.8 695.3L346.8 676.7L320.3 667Z" fill="#5c49a3" stroke="#adadad"></path><path d="M320.3 667L346.8 676.7L354 660Z" fill="#4c399d" stroke="#adadad"></path><path d="M237 238.3L197.8 260L202.8 267.7Z" fill="#5c49a3" stroke="#adadad"></path><path d="M162 274.3L148.8 294.3L194.3 313Z" fill="#4c399d" stroke="#adadad"></path><path d="M377.5 672L356.3 642.3L354 660Z" fill="#cccccc" stroke="#adadad"></path><path d="M443.5 658L462.5 625.3L430 610.7Z" fill="#382a97" stroke="#adadad"></path><path d="M363.5 683.3L377.5 672L354 660Z" fill="#8978b3" stroke="#adadad"></path><path d="M519.5 560.7L515.3 550.3L482.5 555.3Z" fill="#5c49a3" stroke="#adadad"></path><path d="M506.3 522.7L545 520.3L504.3 516.7Z" fill="#382a97" stroke="#adadad"></path><path d="M519.5 560.7L482.5 555.3L482.5 573Z" fill="#cccccc" stroke="#adadad"></path><path d="M162 274.3L194.3 313L202.8 267.7Z" fill="#5c49a3" stroke="#adadad"></path><path d="M541 394.3L528 393.7L524 395Z" fill="#6c58a8" stroke="#adadad"></path><path d="M524 395L527.8 357L477.3 402.3Z" fill="#bfbbc7" stroke="#adadad"></path><path d="M422.8 657L430 610.7L411 649.7Z" fill="#9788b8" stroke="#adadad"></path><path d="M238.5 232L237 238.3L257.3 240.3Z" fill="#4c399d" stroke="#adadad"></path><path d="M257.3 240.3L237 238.3L231 285.3Z" fill="#b2aac2" stroke="#adadad"></path><path d="M195.5 665.7L208.3 663L202.5 652.3Z" fill="#5c49a3" stroke="#adadad"></path><path d="M202.5 652.3L208.3 663L272 618.7Z" fill="#cccccc" stroke="#adadad"></path><path d="M202.5 652.3L170.8 591.3L139 631.7Z" fill="#a499bd" stroke="#adadad"></path><path d="M162 274.3L147 292L148.8 294.3Z" fill="#9788b8" stroke="#adadad"></path><path d="M148.8 294.3L125 297.7L169 344.3Z" fill="#6c58a8" stroke="#adadad"></path><path d="M422 680.3L422.8 657L413.3 655.7Z" fill="#cccccc" stroke="#adadad"></path><path d="M413.3 655.7L422.8 657L411 649.7Z" fill="#9788b8" stroke="#adadad"></path><path d="M69.5 393.3L121 376.7L65.3 366.7Z" fill="#4c399d" stroke="#adadad"></path><path d="M69.5 393.3L116.3 429.7L121 376.7Z" fill="#b2aac2" stroke="#adadad"></path><path d="M197.8 260L162 274.3L202.8 267.7Z" fill="#a499bd" stroke="#adadad"></path><path d="M188.5 251.7L162 274.3L197.8 260Z" fill="#9788b8" stroke="#adadad"></path><path d="M346.8 676.7L363.5 683.3L354 660Z" fill="#6c58a8" stroke="#adadad"></path><path d="M377.5 672L387.5 681.7L413.3 655.7Z" fill="#6c58a8" stroke="#adadad"></path><path d="M334.3 739.7L363.5 683.3L346.8 676.7Z" fill="#a499bd" stroke="#adadad"></path><path d="M242 206.7L238.5 232L257.3 240.3Z" fill="#b2aac2" stroke="#adadad"></path><path d="M237 238.3L188.5 251.7L197.8 260Z" fill="#8978b3" stroke="#adadad"></path><path d="M425 244.3L384 233L417.3 272.7Z" fill="#cccccc" stroke="#adadad"></path><path d="M417.3 272.7L384 233L395 297Z" fill="#8978b3" stroke="#adadad"></path><path d="M283.8 235.3L278.3 221.7L257.3 240.3Z" fill="#4c399d" stroke="#adadad"></path><path d="M523.8 569.3L519.5 560.7L482.5 573Z" fill="#bfbbc7" stroke="#adadad"></path><path d="M515.3 550.3L545 520.3L506.3 522.7Z" fill="#382a97" stroke="#adadad"></path><path d="M301.5 219.3L283.8 235.3L295.8 248Z" fill="#7b68ae" stroke="#adadad"></path><path d="M334.5 217.7L301.5 219.3L322.3 261Z" fill="#382a97" stroke="#adadad"></path><path d="M238.5 232L188.5 251.7L237 238.3Z" fill="#5c49a3" stroke="#adadad"></path><path d="M117.3 609L170.8 591.3L121 544.7Z" fill="#4c399d" stroke="#adadad"></path><path d="M268.3 695.7L307.8 695.3L284.8 654Z" fill="#cccccc" stroke="#adadad"></path><path d="M363.5 683.3L387.5 681.7L377.5 672Z" fill="#cccccc" stroke="#adadad"></path><path d="M268.3 695.7L284.8 654L208.3 663Z" fill="#5c49a3" stroke="#adadad"></path><path d="M363.5 683.3L393.3 702.3L387.5 681.7Z" fill="#7b68ae" stroke="#adadad"></path><path d="M353.3 220.3L322.3 261L339.5 269.7Z" fill="#cccccc" stroke="#adadad"></path><path d="M384 233L353.3 220.3L339.5 269.7Z" fill="#4c399d" stroke="#adadad"></path><path d="M528.8 471.3L541 394.3L524 395Z" fill="#b2aac2" stroke="#adadad"></path><path d="M528 393.7L527.8 357L524 395Z" fill="#5c49a3" stroke="#adadad"></path><path d="M546.3 394.7L541 394.3L528.8 471.3Z" fill="#7b68ae" stroke="#adadad"></path><path d="M541 394.3L527.8 357L528 393.7Z" fill="#5c49a3" stroke="#adadad"></path><path d="M68.8 548.7L121 544.7L90.5 504Z" fill="#cccccc" stroke="#adadad"></path><path d="M68.8 548.7L98.3 572.7L121 544.7Z" fill="#cccccc" stroke="#adadad"></path><path d="M454.5 255.7L417.3 272.7L450 289.7Z" fill="#382a97" stroke="#adadad"></path><path d="M454.5 255.7L425 244.3L417.3 272.7Z" fill="#6c58a8" stroke="#adadad"></path><path d="M384 233L386.5 218L353.3 220.3Z" fill="#382a97" stroke="#adadad"></path><path d="M85.3 311.3L125 297.7L110.5 274Z" fill="#a499bd" stroke="#adadad"></path><path d="M110.5 274L125 297.7L147 292Z" fill="#5c49a3" stroke="#adadad"></path><path d="M147 292L125 297.7L148.8 294.3Z" fill="#4c399d" stroke="#adadad"></path><path d="M422 680.3L443.5 658L422.8 657Z" fill="#bfbbc7" stroke="#adadad"></path><path d="M422.8 657L443.5 658L430 610.7Z" fill="#9788b8" stroke="#adadad"></path><path d="M496 625.7L523.8 569.3L482.5 573Z" fill="#9788b8" stroke="#adadad"></path><path d="M496 625.7L482.5 573L462.5 625.3Z" fill="#5c49a3" stroke="#adadad"></path><path d="M543.8 550L545 520.3L515.3 550.3Z" fill="#b2aac2" stroke="#adadad"></path><path d="M246.5 704.3L268.3 695.7L208.3 663Z" fill="#9788b8" stroke="#adadad"></path><path d="M117.3 609L139 631.7L170.8 591.3Z" fill="#6c58a8" stroke="#adadad"></path><path d="M543.8 550L515.3 550.3L519.5 560.7Z" fill="#8978b3" stroke="#adadad"></path><path d="M580.5 445.7L546.3 394.7L528.8 471.3Z" fill="#b2aac2" stroke="#adadad"></path><path d="M541 394.3L540.3 350.3L527.8 357Z" fill="#6c58a8" stroke="#adadad"></path><path d="M98.3 572.7L117.3 609L121 544.7Z" fill="#bfbbc7" stroke="#adadad"></path><path d="M482.8 280.7L469.3 270L450 289.7Z" fill="#6c58a8" stroke="#adadad"></path><path d="M112.3 640.3L139 634L139 631.7Z" fill="#4c399d" stroke="#adadad"></path><path d="M139 631.7L139 634L202.5 652.3Z" fill="#382a97" stroke="#adadad"></path><path d="M537.3 349L519.5 327.7L527.8 357Z" fill="#b2aac2" stroke="#adadad"></path><path d="M527.8 357L519.5 327.7L456.5 376.3Z" fill="#7b68ae" stroke="#adadad"></path><path d="M519.5 327.7L482.8 280.7L450 289.7Z" fill="#9788b8" stroke="#adadad"></path><path d="M65.3 366.7L121 376.7L123 367Z" fill="#9788b8" stroke="#adadad"></path><path d="M469.3 270L454.5 255.7L450 289.7Z" fill="#a499bd" stroke="#adadad"></path><path d="M425 244.3L454.5 255.7L466.3 208Z" fill="#bfbbc7" stroke="#adadad"></path><path d="M443.5 658L469.8 645.3L462.5 625.3Z" fill="#4c399d" stroke="#adadad"></path><path d="M125 297.7L95.3 327L123 367Z" fill="#b2aac2" stroke="#adadad"></path><path d="M36.5 495.7L65.5 512.3L76.8 464Z" fill="#bfbbc7" stroke="#adadad"></path><path d="M76.8 464L65.5 512.3L90.5 504Z" fill="#a499bd" stroke="#adadad"></path><path d="M85.5 616L112.3 640.3L117.3 609Z" fill="#8978b3" stroke="#adadad"></path><path d="M398.8 218L384 233L425 244.3Z" fill="#7b68ae" stroke="#adadad"></path><path d="M398.8 218L386.5 218L384 233Z" fill="#4c399d" stroke="#adadad"></path><path d="M353.3 220.3L345.3 183L334.5 217.7Z" fill="#5c49a3" stroke="#adadad"></path><path d="M387.5 681.7L422 680.3L413.3 655.7Z" fill="#8978b3" stroke="#adadad"></path><path d="M443.5 658L496 717.7L469.8 645.3Z" fill="#5c49a3" stroke="#adadad"></path><path d="M393.3 702.3L422 680.3L387.5 681.7Z" fill="#a499bd" stroke="#adadad"></path><path d="M540.3 350.3L537.3 349L527.8 357Z" fill="#4c399d" stroke="#adadad"></path><path d="M519.5 327.7L525.8 299.3L482.8 280.7Z" fill="#9788b8" stroke="#adadad"></path><path d="M493 641.3L496 625.7L462.5 625.3Z" fill="#6c58a8" stroke="#adadad"></path><path d="M537 568.7L519.5 560.7L523.8 569.3Z" fill="#6c58a8" stroke="#adadad"></path><path d="M537 568.7L543.8 550L519.5 560.7Z" fill="#4c399d" stroke="#adadad"></path><path d="M421.8 189.3L398.8 218L447 198.7Z" fill="#5c49a3" stroke="#adadad"></path><path d="M315.8 168L301.5 219.3L334.5 217.7Z" fill="#9788b8" stroke="#adadad"></path><path d="M85.3 311.3L86.5 332.3L95.3 327Z" fill="#7b68ae" stroke="#adadad"></path><path d="M95.3 327L86.5 332.3L123 367Z" fill="#9788b8" stroke="#adadad"></path><path d="M546.3 394.7L540.3 350.3L541 394.3Z" fill="#6c58a8" stroke="#adadad"></path><path d="M551 301.3L525.8 299.3L519.5 327.7Z" fill="#5c49a3" stroke="#adadad"></path><path d="M544.8 602L537 568.7L523.8 569.3Z" fill="#cccccc" stroke="#adadad"></path><path d="M244 723.3L246.5 704.3L182.5 734Z" fill="#4c399d" stroke="#adadad"></path><path d="M195.5 665.7L246.5 704.3L208.3 663Z" fill="#a499bd" stroke="#adadad"></path><path d="M300 741L334.3 739.7L307.8 695.3Z" fill="#b2aac2" stroke="#adadad"></path><path d="M334.3 739.7L393.3 702.3L363.5 683.3Z" fill="#cccccc" stroke="#adadad"></path><path d="M65.5 512.3L68.8 548.7L90.5 504Z" fill="#4c399d" stroke="#adadad"></path><path d="M278.3 221.7L242 206.7L257.3 240.3Z" fill="#8978b3" stroke="#adadad"></path><path d="M238.5 232L198.8 183L188.5 251.7Z" fill="#bfbbc7" stroke="#adadad"></path><path d="M110.5 274L147 292L162 274.3Z" fill="#5c49a3" stroke="#adadad"></path><path d="M263.3 176L242 206.7L278.3 221.7Z" fill="#cccccc" stroke="#adadad"></path><path d="M263.3 176L278.3 221.7L301.5 219.3Z" fill="#8978b3" stroke="#adadad"></path><path d="M345.3 183L353.3 220.3L376 178.3Z" fill="#cccccc" stroke="#adadad"></path><path d="M86.5 332.3L65.3 366.7L123 367Z" fill="#8978b3" stroke="#adadad"></path><path d="M69.5 393.3L46.5 432L116.3 429.7Z" fill="#9788b8" stroke="#adadad"></path><path d="M334.3 739.7L346.8 676.7L307.8 695.3Z" fill="#382a97" stroke="#adadad"></path><path d="M533.3 661.7L493 641.3L519.3 703Z" fill="#a499bd" stroke="#adadad"></path><path d="M469.8 645.3L493 641.3L462.5 625.3Z" fill="#8978b3" stroke="#adadad"></path><path d="M496 625.7L513 627L523.8 569.3Z" fill="#7b68ae" stroke="#adadad"></path><path d="M427.5 704.7L443.5 658L422 680.3Z" fill="#cccccc" stroke="#adadad"></path><path d="M32.5 387.7L46.5 432L69.5 393.3Z" fill="#8978b3" stroke="#adadad"></path><path d="M65.5 512.3L0 531.3L68.8 548.7Z" fill="#5c49a3" stroke="#adadad"></path><path d="M544.8 602L555.5 550.7L537 568.7Z" fill="#cccccc" stroke="#adadad"></path><path d="M537 568.7L555.5 550.7L543.8 550Z" fill="#7b68ae" stroke="#adadad"></path><path d="M543.8 550L555.5 550.7L545 520.3Z" fill="#cccccc" stroke="#adadad"></path><path d="M584.5 488.3L586 469L528.8 471.3Z" fill="#8978b3" stroke="#adadad"></path><path d="M555.5 550.7L565.8 523.7L545 520.3Z" fill="#382a97" stroke="#adadad"></path><path d="M546.3 394.7L574.8 355.7L540.3 350.3Z" fill="#8978b3" stroke="#adadad"></path><path d="M125 297.7L85.3 311.3L95.3 327Z" fill="#7b68ae" stroke="#adadad"></path><path d="M86.5 332.3L50.8 296.3L65.3 366.7Z" fill="#b2aac2" stroke="#adadad"></path><path d="M110.5 274L162 274.3L109 249Z" fill="#7b68ae" stroke="#adadad"></path><path d="M493 641.3L513 627L496 625.7Z" fill="#6c58a8" stroke="#adadad"></path><path d="M551 301.3L519.5 327.7L537.3 349Z" fill="#5c49a3" stroke="#adadad"></path><path d="M482.8 280.7L511.3 234.7L469.3 270Z" fill="#cccccc" stroke="#adadad"></path><path d="M421.8 189.3L376 178.3L398.8 218Z" fill="#bfbbc7" stroke="#adadad"></path><path d="M109 249L162 274.3L188.5 251.7Z" fill="#bfbbc7" stroke="#adadad"></path><path d="M117.3 609L112.3 640.3L139 631.7Z" fill="#bfbbc7" stroke="#adadad"></path><path d="M139 634L140.3 681L195.5 665.7Z" fill="#a499bd" stroke="#adadad"></path><path d="M85.5 616L117.3 609L98.3 572.7Z" fill="#7b68ae" stroke="#adadad"></path><path d="M525.8 299.3L514.5 280L482.8 280.7Z" fill="#4c399d" stroke="#adadad"></path><path d="M586 469L580.5 445.7L528.8 471.3Z" fill="#7b68ae" stroke="#adadad"></path><path d="M540.3 350.3L551 301.3L537.3 349Z" fill="#8978b3" stroke="#adadad"></path><path d="M62.5 596.7L85.5 616L98.3 572.7Z" fill="#6c58a8" stroke="#adadad"></path><path d="M46.5 432L36.5 495.7L76.8 464Z" fill="#7b68ae" stroke="#adadad"></path><path d="M68.8 548.7L62.5 596.7L98.3 572.7Z" fill="#4c399d" stroke="#adadad"></path><path d="M182.5 734L246.5 704.3L195.5 665.7Z" fill="#b2aac2" stroke="#adadad"></path><path d="M246.5 704.3L244 723.3L268.3 695.7Z" fill="#4c399d" stroke="#adadad"></path><path d="M376 178.3L386.5 218L398.8 218Z" fill="#4c399d" stroke="#adadad"></path><path d="M376 178.3L353.3 220.3L386.5 218Z" fill="#7b68ae" stroke="#adadad"></path><path d="M431.5 734.3L427.5 704.7L393.3 702.3Z" fill="#6c58a8" stroke="#adadad"></path><path d="M393.3 702.3L427.5 704.7L422 680.3Z" fill="#bfbbc7" stroke="#adadad"></path><path d="M493 641.3L533.3 661.7L513 627Z" fill="#bfbbc7" stroke="#adadad"></path><path d="M555.5 550.7L576.5 525L565.8 523.7Z" fill="#8978b3" stroke="#adadad"></path><path d="M584.5 488.3L528.8 471.3L545 520.3Z" fill="#5c49a3" stroke="#adadad"></path><path d="M642.3 557.7L576.5 525L555.5 550.7Z" fill="#382a97" stroke="#adadad"></path><path d="M584.5 488.3L545 520.3L565.8 523.7Z" fill="#382a97" stroke="#adadad"></path><path d="M538.8 655.7L544.8 602L513 627Z" fill="#4c399d" stroke="#adadad"></path><path d="M513 627L544.8 602L523.8 569.3Z" fill="#4c399d" stroke="#adadad"></path><path d="M576.5 525L584.5 488.3L565.8 523.7Z" fill="#b2aac2" stroke="#adadad"></path><path d="M584.5 488.3L587.8 479.7L586 469Z" fill="#cccccc" stroke="#adadad"></path><path d="M630.3 492.3L587.8 479.7L584.5 488.3Z" fill="#cccccc" stroke="#adadad"></path><path d="M118.8 671.7L139 634L112.3 640.3Z" fill="#6c58a8" stroke="#adadad"></path><path d="M118.8 671.7L140.3 681L139 634Z" fill="#4c399d" stroke="#adadad"></path><path d="M315.8 168L263.3 176L301.5 219.3Z" fill="#8978b3" stroke="#adadad"></path><path d="M143 172.3L109 249L188.5 251.7Z" fill="#4c399d" stroke="#adadad"></path><path d="M0 557L62.5 596.7L68.8 548.7Z" fill="#4c399d" stroke="#adadad"></path><path d="M73.3 646.7L118.8 671.7L112.3 640.3Z" fill="#8978b3" stroke="#adadad"></path><path d="M612.5 399L580.5 445.7L620.3 415.7Z" fill="#5c49a3" stroke="#adadad"></path><path d="M612.5 399L546.3 394.7L580.5 445.7Z" fill="#382a97" stroke="#adadad"></path><path d="M612.5 399L574.8 355.7L546.3 394.7Z" fill="#cccccc" stroke="#adadad"></path><path d="M525.8 299.3L535 266L514.5 280Z" fill="#5c49a3" stroke="#adadad"></path><path d="M0 347.7L32.5 387.7L65.3 366.7Z" fill="#6c58a8" stroke="#adadad"></path><path d="M65.3 366.7L32.5 387.7L69.5 393.3Z" fill="#8978b3" stroke="#adadad"></path><path d="M46.5 432L0 449L36.5 495.7Z" fill="#8978b3" stroke="#adadad"></path><path d="M50.8 296.3L86.5 332.3L85.3 311.3Z" fill="#cccccc" stroke="#adadad"></path><path d="M300 741L307.8 695.3L268.3 695.7Z" fill="#a499bd" stroke="#adadad"></path><path d="M244 723.3L300 741L268.3 695.7Z" fill="#8978b3" stroke="#adadad"></path><path d="M398.8 218L425 244.3L447 198.7Z" fill="#b2aac2" stroke="#adadad"></path><path d="M345.3 183L315.8 168L334.5 217.7Z" fill="#7b68ae" stroke="#adadad"></path><path d="M574.8 355.7L551 301.3L540.3 350.3Z" fill="#6c58a8" stroke="#adadad"></path><path d="M447 198.7L425 244.3L466.3 208Z" fill="#7b68ae" stroke="#adadad"></path><path d="M376 178.3L345.3 170.7L345.3 183Z" fill="#7b68ae" stroke="#adadad"></path><path d="M118 680.3L118.8 671.7L73.3 646.7Z" fill="#5c49a3" stroke="#adadad"></path><path d="M198.8 183L238.5 232L242 206.7Z" fill="#4c399d" stroke="#adadad"></path><path d="M110.5 274L81.5 259.3L85.3 311.3Z" fill="#6c58a8" stroke="#adadad"></path><path d="M345.3 170.7L315.8 168L345.3 183Z" fill="#bfbbc7" stroke="#adadad"></path><path d="M454.5 255.7L477.5 209.3L466.3 208Z" fill="#6c58a8" stroke="#adadad"></path><path d="M298.5 154.3L328.8 83L279.8 115.7Z" fill="#a499bd" stroke="#adadad"></path><path d="M21.8 414.3L21.8 417.7L46.5 432Z" fill="#5c49a3" stroke="#adadad"></path><path d="M32.5 387.7L21.8 414.3L46.5 432Z" fill="#8978b3" stroke="#adadad"></path><path d="M454.5 255.7L499.5 216L477.5 209.3Z" fill="#a499bd" stroke="#adadad"></path><path d="M328.8 83L282.3 104.3L279.8 115.7Z" fill="#6c58a8" stroke="#adadad"></path><path d="M345.3 170.7L315 163L315.8 168Z" fill="#a499bd" stroke="#adadad"></path><path d="M315.8 168L298.5 154.3L263.3 176Z" fill="#6c58a8" stroke="#adadad"></path><path d="M454.5 255.7L469.3 270L511.3 234.7Z" fill="#a499bd" stroke="#adadad"></path><path d="M204.5 174.3L242 206.7L238.3 150Z" fill="#4c399d" stroke="#adadad"></path><path d="M204.5 174.3L198.8 183L242 206.7Z" fill="#b2aac2" stroke="#adadad"></path><path d="M73.3 646.7L112.3 640.3L85.5 616Z" fill="#7b68ae" stroke="#adadad"></path><path d="M118.8 671.7L118 680.3L140.3 681Z" fill="#6c58a8" stroke="#adadad"></path><path d="M140.3 681L148.8 710L195.5 665.7Z" fill="#bfbbc7" stroke="#adadad"></path><path d="M477.5 209.3L463.3 204.3L466.3 208Z" fill="#7b68ae" stroke="#adadad"></path><path d="M466.3 208L463.3 204.3L447 198.7Z" fill="#9788b8" stroke="#adadad"></path><path d="M447 198.7L431.8 168.7L421.8 189.3Z" fill="#cccccc" stroke="#adadad"></path><path d="M547 273.7L535 266L525.8 299.3Z" fill="#7b68ae" stroke="#adadad"></path><path d="M511.3 234.7L482.8 280.7L514.5 280Z" fill="#5c49a3" stroke="#adadad"></path><path d="M463.3 204.3L431.8 168.7L447 198.7Z" fill="#6c58a8" stroke="#adadad"></path><path d="M535 266L511.3 234.7L514.5 280Z" fill="#9788b8" stroke="#adadad"></path><path d="M551 301.3L547 273.7L525.8 299.3Z" fill="#9788b8" stroke="#adadad"></path><path d="M535 266L543.8 259.7L511.3 234.7Z" fill="#6c58a8" stroke="#adadad"></path><path d="M573.8 298L547 273.7L551 301.3Z" fill="#4c399d" stroke="#adadad"></path><path d="M238.3 150L242 206.7L263.3 176Z" fill="#cccccc" stroke="#adadad"></path><path d="M143 172.3L94.3 223.7L109 249Z" fill="#4c399d" stroke="#adadad"></path><path d="M118 680.3L148.8 710L140.3 681Z" fill="#b2aac2" stroke="#adadad"></path><path d="M311.5 771.7L328.5 759L300 741Z" fill="#b2aac2" stroke="#adadad"></path><path d="M94.3 223.7L81.5 259.3L109 249Z" fill="#9788b8" stroke="#adadad"></path><path d="M109 249L81.5 259.3L110.5 274Z" fill="#9788b8" stroke="#adadad"></path><path d="M0 432.3L21.8 417.7L0 429Z" fill="#bfbbc7" stroke="#adadad"></path><path d="M393.3 124.3L345.3 170.7L376 178.3Z" fill="#b2aac2" stroke="#adadad"></path><path d="M315 163L298.5 154.3L315.8 168Z" fill="#5c49a3" stroke="#adadad"></path><path d="M61.8 633L85.5 616L62.5 596.7Z" fill="#382a97" stroke="#adadad"></path><path d="M61.8 633L73.3 646.7L85.5 616Z" fill="#9788b8" stroke="#adadad"></path><path d="M142.8 735.7L152 721.7L148.8 710Z" fill="#8978b3" stroke="#adadad"></path><path d="M81.5 259.3L50.8 296.3L85.3 311.3Z" fill="#9788b8" stroke="#adadad"></path><path d="M311.5 771.7L300 741L273.8 770.7Z" fill="#382a97" stroke="#adadad"></path><path d="M300 741L328.5 759L334.3 739.7Z" fill="#7b68ae" stroke="#adadad"></path><path d="M405 777.3L431.5 734.3L393.3 702.3Z" fill="#382a97" stroke="#adadad"></path><path d="M26.5 644.7L61.8 633L62.5 596.7Z" fill="#4c399d" stroke="#adadad"></path><path d="M0 531.3L65.5 512.3L36.5 495.7Z" fill="#5c49a3" stroke="#adadad"></path><path d="M405 777.3L393.3 702.3L334.3 739.7Z" fill="#7b68ae" stroke="#adadad"></path><path d="M496 717.7L493 641.3L469.8 645.3Z" fill="#5c49a3" stroke="#adadad"></path><path d="M496 717.7L443.5 658L427.5 704.7Z" fill="#7b68ae" stroke="#adadad"></path><path d="M642.3 557.7L630.3 492.3L576.5 525Z" fill="#6c58a8" stroke="#adadad"></path><path d="M533.3 661.7L538.8 655.7L513 627Z" fill="#8978b3" stroke="#adadad"></path><path d="M148.8 710L182.5 734L195.5 665.7Z" fill="#4c399d" stroke="#adadad"></path><path d="M560.5 231.7L543.8 259.7L547 273.7Z" fill="#8978b3" stroke="#adadad"></path><path d="M547 273.7L543.8 259.7L535 266Z" fill="#cccccc" stroke="#adadad"></path><path d="M501.3 207.7L499.5 216L511.3 234.7Z" fill="#b2aac2" stroke="#adadad"></path><path d="M511.3 234.7L499.5 216L454.5 255.7Z" fill="#5c49a3" stroke="#adadad"></path><path d="M506.5 138.7L431.8 168.7L463.3 204.3Z" fill="#6c58a8" stroke="#adadad"></path><path d="M0 432.3L0.8 443L21.8 417.7Z" fill="#9788b8" stroke="#adadad"></path><path d="M21.8 417.7L0.8 443L46.5 432Z" fill="#4c399d" stroke="#adadad"></path><path d="M21.8 417.7L0 418.7L0 429Z" fill="#7b68ae" stroke="#adadad"></path><path d="M607.5 338L573.8 298L574.8 355.7Z" fill="#b2aac2" stroke="#adadad"></path><path d="M574.8 355.7L573.8 298L551 301.3Z" fill="#a499bd" stroke="#adadad"></path><path d="M142.8 735.7L148.8 710L98 715Z" fill="#b2aac2" stroke="#adadad"></path><path d="M148.8 710L152 721.7L182.5 734Z" fill="#a499bd" stroke="#adadad"></path><path d="M0.8 443L0 449L46.5 432Z" fill="#4c399d" stroke="#adadad"></path><path d="M620.3 415.7L586 469L638.5 423.3Z" fill="#5c49a3" stroke="#adadad"></path><path d="M620.3 415.7L580.5 445.7L586 469Z" fill="#a499bd" stroke="#adadad"></path><path d="M21.8 417.7L21.8 414.3L0 418.7Z" fill="#bfbbc7" stroke="#adadad"></path><path d="M0.8 443L0 432.3L0 449Z" fill="#cccccc" stroke="#adadad"></path><path d="M0 418.7L21.8 414.3L32.5 387.7Z" fill="#9788b8" stroke="#adadad"></path><path d="M0 347.7L0 418.7L32.5 387.7Z" fill="#9788b8" stroke="#adadad"></path><path d="M173 756L197.3 746.7L182.5 734Z" fill="#5c49a3" stroke="#adadad"></path><path d="M182.5 734L197.3 746.7L244 723.3Z" fill="#9788b8" stroke="#adadad"></path><path d="M152 721.7L173 736.3L182.5 734Z" fill="#8978b3" stroke="#adadad"></path><path d="M544.8 672L543.3 661.3L533.3 661.7Z" fill="#6c58a8" stroke="#adadad"></path><path d="M533.3 661.7L543.3 661.3L538.8 655.7Z" fill="#a499bd" stroke="#adadad"></path><path d="M538.8 655.7L569 651L544.8 602Z" fill="#a499bd" stroke="#adadad"></path><path d="M630.3 492.3L586 469L587.8 479.7Z" fill="#cccccc" stroke="#adadad"></path><path d="M506.5 138.7L463.3 204.3L477.5 209.3Z" fill="#382a97" stroke="#adadad"></path><path d="M421.8 189.3L431.8 168.7L376 178.3Z" fill="#6c58a8" stroke="#adadad"></path><path d="M-13.2 542.3L0 432.3L0 429Z" fill="#6c58a8" stroke="#adadad"></path><path d="M-13.2 542.3L0 449L0 432.3Z" fill="#a499bd" stroke="#adadad"></path><path d="M-13.2 542.3L-0.2 503.7L0 449Z" fill="#cccccc" stroke="#adadad"></path><path d="M0 449L-0.2 503.7L36.5 495.7Z" fill="#b2aac2" stroke="#adadad"></path><path d="M298.5 154.3L238.3 150L263.3 176Z" fill="#5c49a3" stroke="#adadad"></path><path d="M143 172.3L188.5 251.7L198.8 183Z" fill="#5c49a3" stroke="#adadad"></path><path d="M152 721.7L165.8 735.3L173 736.3Z" fill="#5c49a3" stroke="#adadad"></path><path d="M173 736.3L173 756L182.5 734Z" fill="#7b68ae" stroke="#adadad"></path><path d="M142.8 735.7L165.8 735.3L152 721.7Z" fill="#9788b8" stroke="#adadad"></path><path d="M630.3 492.3L584.5 488.3L576.5 525Z" fill="#cccccc" stroke="#adadad"></path><path d="M612.5 399L607.5 338L574.8 355.7Z" fill="#cccccc" stroke="#adadad"></path><path d="M499.5 216L501.3 207.7L477.5 209.3Z" fill="#5c49a3" stroke="#adadad"></path><path d="M544 214L501.3 207.7L511.3 234.7Z" fill="#cccccc" stroke="#adadad"></path><path d="M273.8 770.7L300 741L244 723.3Z" fill="#8978b3" stroke="#adadad"></path><path d="M395.8 784.3L405 777.3L334.3 739.7Z" fill="#b2aac2" stroke="#adadad"></path><path d="M143 172.3L198.8 183L157.8 136.7Z" fill="#5c49a3" stroke="#adadad"></path><path d="M81.5 259.3L49.3 267.3L50.8 296.3Z" fill="#bfbbc7" stroke="#adadad"></path><path d="M242.5 120L233.3 148.7L238.3 150Z" fill="#cccccc" stroke="#adadad"></path><path d="M238.3 150L233.3 148.7L204.5 174.3Z" fill="#bfbbc7" stroke="#adadad"></path><path d="M247 782L273.8 770.7L244 723.3Z" fill="#bfbbc7" stroke="#adadad"></path><path d="M-0.2 503.7L0 531.3L36.5 495.7Z" fill="#4c399d" stroke="#adadad"></path><path d="M519.3 703L544.8 672L533.3 661.7Z" fill="#4c399d" stroke="#adadad"></path><path d="M605.8 613.3L555.5 550.7L544.8 602Z" fill="#5c49a3" stroke="#adadad"></path><path d="M54.3 231L49.3 267.3L81.5 259.3Z" fill="#9788b8" stroke="#adadad"></path><path d="M0 337.3L0 347.7L65.3 366.7Z" fill="#8978b3" stroke="#adadad"></path><path d="M637.5 377.3L607.5 338L612.5 399Z" fill="#382a97" stroke="#adadad"></path><path d="M573.8 298L560.5 231.7L547 273.7Z" fill="#9788b8" stroke="#adadad"></path><path d="M495.5 741.7L496 717.7L431.5 734.3Z" fill="#4c399d" stroke="#adadad"></path><path d="M431.5 734.3L496 717.7L427.5 704.7Z" fill="#a499bd" stroke="#adadad"></path><path d="M569 651L538.8 655.7L543.3 661.3Z" fill="#a499bd" stroke="#adadad"></path><path d="M496 717.7L519.3 703L493 641.3Z" fill="#cccccc" stroke="#adadad"></path><path d="M-13.2 542.3L0 557L0 531.3Z" fill="#382a97" stroke="#adadad"></path><path d="M0 531.3L0 557L68.8 548.7Z" fill="#8978b3" stroke="#adadad"></path><path d="M609.3 657.7L569 651L606.5 682.3Z" fill="#bfbbc7" stroke="#adadad"></path><path d="M544.8 672L569 651L543.3 661.3Z" fill="#4c399d" stroke="#adadad"></path><path d="M98 715L118 680.3L50.5 689Z" fill="#cccccc" stroke="#adadad"></path><path d="M98 715L148.8 710L118 680.3Z" fill="#382a97" stroke="#adadad"></path><path d="M165.8 735.3L173 756L173 736.3Z" fill="#cccccc" stroke="#adadad"></path><path d="M197.3 746.7L247 782L244 723.3Z" fill="#5c49a3" stroke="#adadad"></path><path d="M118 680.3L73.3 646.7L50.5 689Z" fill="#8978b3" stroke="#adadad"></path><path d="M0 337.3L65.3 366.7L0 337Z" fill="#a499bd" stroke="#adadad"></path><path d="M0 418.7L-13.2 542.3L0 429Z" fill="#bfbbc7" stroke="#adadad"></path><path d="M157.8 136.7L198.8 183L204.5 174.3Z" fill="#6c58a8" stroke="#adadad"></path><path d="M94.3 223.7L54.3 231L81.5 259.3Z" fill="#4c399d" stroke="#adadad"></path><path d="M142.8 735.7L173 756L165.8 735.3Z" fill="#5c49a3" stroke="#adadad"></path><path d="M0 337L65.3 366.7L50.8 296.3Z" fill="#8978b3" stroke="#adadad"></path><path d="M-7.2 323L-13.2 542.3L0 418.7Z" fill="#4c399d" stroke="#adadad"></path><path d="M-7.2 323L0 337L0 301.7Z" fill="#382a97" stroke="#adadad"></path><path d="M-7.2 323L0 418.7L0 347.7Z" fill="#a499bd" stroke="#adadad"></path><path d="M647.3 433.3L638.5 423.3L586 469Z" fill="#5c49a3" stroke="#adadad"></path><path d="M620.3 415.7L636.3 398L612.5 399Z" fill="#cccccc" stroke="#adadad"></path><path d="M201.3 776.3L247 782L197.3 746.7Z" fill="#bfbbc7" stroke="#adadad"></path><path d="M273.8 770.7L283 788.7L311.5 771.7Z" fill="#8978b3" stroke="#adadad"></path><path d="M638.5 423.3L636.3 398L620.3 415.7Z" fill="#8978b3" stroke="#adadad"></path><path d="M253.5 791.7L279.8 787.3L273.8 770.7Z" fill="#b2aac2" stroke="#adadad"></path><path d="M395.8 784.3L334.3 739.7L385.3 791Z" fill="#4c399d" stroke="#adadad"></path><path d="M173 756L194.5 769L197.3 746.7Z" fill="#cccccc" stroke="#adadad"></path><path d="M-0.2 503.7L-13.2 542.3L0 531.3Z" fill="#5c49a3" stroke="#adadad"></path><path d="M31.8 656.7L73.3 646.7L61.8 633Z" fill="#a499bd" stroke="#adadad"></path><path d="M-7.2 323L0 347.7L0 337.3Z" fill="#4c399d" stroke="#adadad"></path><path d="M280 812.3L283 788.7L279.8 787.3Z" fill="#cccccc" stroke="#adadad"></path><path d="M279.8 787.3L283 788.7L273.8 770.7Z" fill="#9788b8" stroke="#adadad"></path><path d="M0 596.7L62.5 596.7L0 557Z" fill="#a499bd" stroke="#adadad"></path><path d="M183.5 817.7L194.5 769L173 756Z" fill="#9788b8" stroke="#adadad"></path><path d="M183.5 817.7L201.3 776.3L194.5 769Z" fill="#8978b3" stroke="#adadad"></path><path d="M334.3 739.7L328.5 759L385.3 791Z" fill="#382a97" stroke="#adadad"></path><path d="M496 717.7L519 742.3L519.3 703Z" fill="#5c49a3" stroke="#adadad"></path><path d="M609.3 657.7L605.8 613.3L569 651Z" fill="#7b68ae" stroke="#adadad"></path><path d="M569 651L605.8 613.3L544.8 602Z" fill="#4c399d" stroke="#adadad"></path><path d="M615.3 243.7L560.5 231.7L573.8 298Z" fill="#4c399d" stroke="#adadad"></path><path d="M543.8 259.7L544 214L511.3 234.7Z" fill="#a499bd" stroke="#adadad"></path><path d="M451 107L418.8 110.3L431.8 168.7Z" fill="#382a97" stroke="#adadad"></path><path d="M557 204.3L560.5 231.7L585.8 189.3Z" fill="#6c58a8" stroke="#adadad"></path><path d="M560.5 231.7L544 214L543.8 259.7Z" fill="#a499bd" stroke="#adadad"></path><path d="M675 385L637.5 377.3L636.3 398Z" fill="#6c58a8" stroke="#adadad"></path><path d="M636.3 398L637.5 377.3L612.5 399Z" fill="#7b68ae" stroke="#adadad"></path><path d="M214.3 793L183.5 817.7L219.3 816.7Z" fill="#a499bd" stroke="#adadad"></path><path d="M194.5 769L201.3 776.3L197.3 746.7Z" fill="#a499bd" stroke="#adadad"></path><path d="M247 782L253.5 791.7L273.8 770.7Z" fill="#cccccc" stroke="#adadad"></path><path d="M675 474.3L647.3 433.3L630.3 492.3Z" fill="#9788b8" stroke="#adadad"></path><path d="M630.3 492.3L647.3 433.3L586 469Z" fill="#4c399d" stroke="#adadad"></path><path d="M638.5 423.3L657.5 416.7L636.3 398Z" fill="#8978b3" stroke="#adadad"></path><path d="M-13.2 542.3L0 596.7L0 557Z" fill="#bfbbc7" stroke="#adadad"></path><path d="M0 607.3L26.5 644.7L62.5 596.7Z" fill="#5c49a3" stroke="#adadad"></path><path d="M38.8 190.3L54.3 231L94.3 223.7Z" fill="#a499bd" stroke="#adadad"></path><path d="M49.3 267.3L29.5 259.7L50.8 296.3Z" fill="#7b68ae" stroke="#adadad"></path><path d="M385.3 791L328.5 759L344.3 827.7Z" fill="#4c399d" stroke="#adadad"></path><path d="M484.3 763L495.5 741.7L431.5 734.3Z" fill="#382a97" stroke="#adadad"></path><path d="M214.3 793L253.5 791.7L247 782Z" fill="#8978b3" stroke="#adadad"></path><path d="M344.3 827.7L328.5 759L311.5 771.7Z" fill="#bfbbc7" stroke="#adadad"></path><path d="M54.3 231L29.5 259.7L49.3 267.3Z" fill="#4c399d" stroke="#adadad"></path><path d="M484.3 763L431.5 734.3L466.3 782.3Z" fill="#b2aac2" stroke="#adadad"></path><path d="M519.3 703L536.3 736.7L544.8 672Z" fill="#8978b3" stroke="#adadad"></path><path d="M298.5 154.3L279.8 115.7L238.3 150Z" fill="#5c49a3" stroke="#adadad"></path><path d="M233.3 148.7L157.8 136.7L204.5 174.3Z" fill="#4c399d" stroke="#adadad"></path><path d="M328.8 83L315 163L345.3 170.7Z" fill="#9788b8" stroke="#adadad"></path><path d="M418.8 110.3L393.3 124.3L431.8 168.7Z" fill="#b2aac2" stroke="#adadad"></path><path d="M431.8 168.7L393.3 124.3L376 178.3Z" fill="#b2aac2" stroke="#adadad"></path><path d="M20.5 659.3L31.8 656.7L26.5 644.7Z" fill="#b2aac2" stroke="#adadad"></path><path d="M26.5 644.7L31.8 656.7L61.8 633Z" fill="#a499bd" stroke="#adadad"></path><path d="M279.8 115.7L242.5 120L238.3 150Z" fill="#382a97" stroke="#adadad"></path><path d="M0 301.7L0 337L50.8 296.3Z" fill="#8978b3" stroke="#adadad"></path><path d="M0 337L-7.2 323L0 337.3Z" fill="#b2aac2" stroke="#adadad"></path><path d="M280 812.3L311.5 771.7L283 788.7Z" fill="#6c58a8" stroke="#adadad"></path><path d="M436 794L431.5 734.3L405 777.3Z" fill="#8978b3" stroke="#adadad"></path><path d="M0 596.7L0 607.3L62.5 596.7Z" fill="#6c58a8" stroke="#adadad"></path><path d="M-5.2 625.3L0 607.3L0 596.7Z" fill="#b2aac2" stroke="#adadad"></path><path d="M29.5 259.7L0 301.7L50.8 296.3Z" fill="#bfbbc7" stroke="#adadad"></path><path d="M20.5 659.3L50.5 689L31.8 656.7Z" fill="#6c58a8" stroke="#adadad"></path><path d="M31.8 656.7L50.5 689L73.3 646.7Z" fill="#382a97" stroke="#adadad"></path><path d="M214.3 793L201.3 776.3L183.5 817.7Z" fill="#b2aac2" stroke="#adadad"></path><path d="M605.8 613.3L642.3 557.7L555.5 550.7Z" fill="#4c399d" stroke="#adadad"></path><path d="M-5.2 625.3L0 619.7L0 607.3Z" fill="#6c58a8" stroke="#adadad"></path><path d="M0 607.3L0 619.7L26.5 644.7Z" fill="#9788b8" stroke="#adadad"></path><path d="M173 756L142.8 735.7L132.3 798.7Z" fill="#8978b3" stroke="#adadad"></path><path d="M201.3 776.3L214.3 793L247 782Z" fill="#382a97" stroke="#adadad"></path><path d="M253.5 791.7L280 812.3L279.8 787.3Z" fill="#6c58a8" stroke="#adadad"></path><path d="M675 416.7L657.5 416.7L647.3 433.3Z" fill="#8978b3" stroke="#adadad"></path><path d="M647.3 433.3L657.5 416.7L638.5 423.3Z" fill="#bfbbc7" stroke="#adadad"></path><path d="M328.8 83L298.5 154.3L315 163Z" fill="#b2aac2" stroke="#adadad"></path><path d="M279.8 115.7L243 103.3L242.5 120Z" fill="#a499bd" stroke="#adadad"></path><path d="M0 654L20.5 659.3L26.5 644.7Z" fill="#8978b3" stroke="#adadad"></path><path d="M150 134.7L157.8 136.7L160.8 96.3Z" fill="#cccccc" stroke="#adadad"></path><path d="M180 85L157.8 136.7L233.3 148.7Z" fill="#7b68ae" stroke="#adadad"></path><path d="M143 172.3L97.5 152.7L94.3 223.7Z" fill="#4c399d" stroke="#adadad"></path><path d="M157.8 136.7L155.5 137.7L143 172.3Z" fill="#b2aac2" stroke="#adadad"></path><path d="M560.5 231.7L557 204.3L544 214Z" fill="#8978b3" stroke="#adadad"></path><path d="M544 214L523.5 148.3L501.3 207.7Z" fill="#5c49a3" stroke="#adadad"></path><path d="M632.3 292.3L573.8 298L607.5 338Z" fill="#8978b3" stroke="#adadad"></path><path d="M632.3 292.3L607.5 338L675 354.3Z" fill="#4c399d" stroke="#adadad"></path><path d="M135.3 148L127.3 152.7L143 172.3Z" fill="#382a97" stroke="#adadad"></path><path d="M155.5 137.7L135.3 148L143 172.3Z" fill="#7b68ae" stroke="#adadad"></path><path d="M436 794L405 777.3L402.8 807.7Z" fill="#5c49a3" stroke="#adadad"></path><path d="M495.5 741.7L519 742.3L496 717.7Z" fill="#382a97" stroke="#adadad"></path><path d="M484.3 763L519 742.3L495.5 741.7Z" fill="#4c399d" stroke="#adadad"></path><path d="M-13.2 542.3L-5.2 625.3L0 596.7Z" fill="#9788b8" stroke="#adadad"></path><path d="M0 619.7L-5.2 625.3L26.5 644.7Z" fill="#7b68ae" stroke="#adadad"></path><path d="M271 838.7L280 812.3L253.5 791.7Z" fill="#cccccc" stroke="#adadad"></path><path d="M157.8 136.7L150 134.7L155.5 137.7Z" fill="#6c58a8" stroke="#adadad"></path><path d="M155.5 137.7L150 134.7L135.3 148Z" fill="#5c49a3" stroke="#adadad"></path><path d="M121.3 133.3L97.5 152.7L127.3 152.7Z" fill="#8978b3" stroke="#adadad"></path><path d="M160.8 96.3L157.8 136.7L180 85Z" fill="#b2aac2" stroke="#adadad"></path><path d="M282.3 104.3L243 103.3L279.8 115.7Z" fill="#8978b3" stroke="#adadad"></path><path d="M662.3 622L645.5 581L605.8 613.3Z" fill="#6c58a8" stroke="#adadad"></path><path d="M605.8 613.3L645.5 581L642.3 557.7Z" fill="#9788b8" stroke="#adadad"></path><path d="M675 498.3L675 474.3L630.3 492.3Z" fill="#a499bd" stroke="#adadad"></path><path d="M402.8 807.7L395.8 784.3L385.3 791Z" fill="#9788b8" stroke="#adadad"></path><path d="M402.8 807.7L405 777.3L395.8 784.3Z" fill="#8978b3" stroke="#adadad"></path><path d="M561 783.3L536.3 736.7L519 742.3Z" fill="#7b68ae" stroke="#adadad"></path><path d="M561 783.3L519 742.3L512.5 817.3Z" fill="#8978b3" stroke="#adadad"></path><path d="M519 742.3L536.3 736.7L519.3 703Z" fill="#8978b3" stroke="#adadad"></path><path d="M606.5 682.3L569 651L544.8 672Z" fill="#382a97" stroke="#adadad"></path><path d="M436 794L466.3 782.3L431.5 734.3Z" fill="#cccccc" stroke="#adadad"></path><path d="M675 354.3L607.5 338L637.5 377.3Z" fill="#a499bd" stroke="#adadad"></path><path d="M506.5 138.7L477.5 209.3L501.3 207.7Z" fill="#9788b8" stroke="#adadad"></path><path d="M299.5 62L273.8 88.3L282.3 104.3Z" fill="#a499bd" stroke="#adadad"></path><path d="M377.3 831.3L402.8 807.7L385.3 791Z" fill="#bfbbc7" stroke="#adadad"></path><path d="M436 794L466.8 813L466.3 782.3Z" fill="#4c399d" stroke="#adadad"></path><path d="M675 498.3L630.3 492.3L675 534Z" fill="#a499bd" stroke="#adadad"></path><path d="M657.5 416.7L675 385L636.3 398Z" fill="#6c58a8" stroke="#adadad"></path><path d="M-5.2 625.3L0 654L26.5 644.7Z" fill="#b2aac2" stroke="#adadad"></path><path d="M20.5 659.3L0 682.3L50.5 689Z" fill="#7b68ae" stroke="#adadad"></path><path d="M675 474.3L675 416.7L647.3 433.3Z" fill="#4c399d" stroke="#adadad"></path><path d="M675 534L630.3 492.3L642.3 557.7Z" fill="#6c58a8" stroke="#adadad"></path><path d="M328.8 83L345.3 170.7L393.3 124.3Z" fill="#a499bd" stroke="#adadad"></path><path d="M282.3 104.3L273.8 88.3L243 103.3Z" fill="#7b68ae" stroke="#adadad"></path><path d="M160.8 96.3L121.3 133.3L150 134.7Z" fill="#9788b8" stroke="#adadad"></path><path d="M675 416.7L675 406.7L657.5 416.7Z" fill="#a499bd" stroke="#adadad"></path><path d="M121.3 133.3L135.3 148L150 134.7Z" fill="#bfbbc7" stroke="#adadad"></path><path d="M121.3 133.3L127.3 152.7L135.3 148Z" fill="#b2aac2" stroke="#adadad"></path><path d="M127.3 152.7L97.5 152.7L143 172.3Z" fill="#a499bd" stroke="#adadad"></path><path d="M54.3 231L18.5 226L29.5 259.7Z" fill="#4c399d" stroke="#adadad"></path><path d="M29.5 259.7L-15.2 240.7L0 301.7Z" fill="#7b68ae" stroke="#adadad"></path><path d="M38.8 190.3L18.5 226L54.3 231Z" fill="#8978b3" stroke="#adadad"></path><path d="M0 301.7L-15.2 240.7L-7.2 323Z" fill="#9788b8" stroke="#adadad"></path><path d="M214.3 793L219.3 816.7L253.5 791.7Z" fill="#7b68ae" stroke="#adadad"></path><path d="M280 812.3L344.3 827.7L311.5 771.7Z" fill="#5c49a3" stroke="#adadad"></path><path d="M222.5 822.3L219.3 816.7L198.8 850Z" fill="#5c49a3" stroke="#adadad"></path><path d="M142.8 735.7L98 715L107.3 778.3Z" fill="#a499bd" stroke="#adadad"></path><path d="M621.5 251L615.3 243.7L573.8 298Z" fill="#382a97" stroke="#adadad"></path><path d="M523.5 148.3L506.5 138.7L501.3 207.7Z" fill="#bfbbc7" stroke="#adadad"></path><path d="M621.5 251L573.8 298L632.3 292.3Z" fill="#4c399d" stroke="#adadad"></path><path d="M675 406.7L675 385L657.5 416.7Z" fill="#382a97" stroke="#adadad"></path><path d="M233.3 148.7L242.5 120L180 85Z" fill="#4c399d" stroke="#adadad"></path><path d="M343.3 73.7L328.8 83L393.3 124.3Z" fill="#382a97" stroke="#adadad"></path><path d="M332.5 847.7L344.3 827.7L280 812.3Z" fill="#a499bd" stroke="#adadad"></path><path d="M523.5 148.3L544 214L557 204.3Z" fill="#cccccc" stroke="#adadad"></path><path d="M623.8 222L621.5 251L655.5 265.3Z" fill="#382a97" stroke="#adadad"></path><path d="M585.8 727.3L606.5 682.3L544.8 672Z" fill="#382a97" stroke="#adadad"></path><path d="M640.5 662.7L662.3 622L605.8 613.3Z" fill="#7b68ae" stroke="#adadad"></path><path d="M675 539.7L675 534L642.3 557.7Z" fill="#b2aac2" stroke="#adadad"></path><path d="M675 539.7L642.3 557.7L675 552Z" fill="#8978b3" stroke="#adadad"></path><path d="M581.8 178.7L523.5 148.3L557 204.3Z" fill="#cccccc" stroke="#adadad"></path><path d="M675 498.3L683.3 479L675 474.3Z" fill="#b2aac2" stroke="#adadad"></path><path d="M675 474.3L683.3 479L675 416.7Z" fill="#4c399d" stroke="#adadad"></path><path d="M675 416.7L687.3 339.7L675 406.7Z" fill="#bfbbc7" stroke="#adadad"></path><path d="M675 406.7L687.3 339.7L675 385Z" fill="#a499bd" stroke="#adadad"></path><path d="M675 534L683.3 479L675 498.3Z" fill="#8978b3" stroke="#adadad"></path><path d="M434 74.7L390.8 89.7L418.8 110.3Z" fill="#8978b3" stroke="#adadad"></path><path d="M418.8 110.3L390.8 89.7L393.3 124.3Z" fill="#cccccc" stroke="#adadad"></path><path d="M675 552L642.3 557.7L645.5 581Z" fill="#a499bd" stroke="#adadad"></path><path d="M675 534L675 539.7L683.3 479Z" fill="#7b68ae" stroke="#adadad"></path><path d="M72.8 751L98 715L50.5 689Z" fill="#7b68ae" stroke="#adadad"></path><path d="M219.3 816.7L222.5 822.3L253.5 791.7Z" fill="#cccccc" stroke="#adadad"></path><path d="M469.5 113L431.8 168.7L486.8 121Z" fill="#cccccc" stroke="#adadad"></path><path d="M469.5 113L451 107L431.8 168.7Z" fill="#8978b3" stroke="#adadad"></path><path d="M48.8 750L72.8 751L50.5 689Z" fill="#6c58a8" stroke="#adadad"></path><path d="M662.3 622L675 552L645.5 581Z" fill="#b2aac2" stroke="#adadad"></path><path d="M675 539.7L675 552L683.3 479Z" fill="#a499bd" stroke="#adadad"></path><path d="M486.8 121L431.8 168.7L506.5 138.7Z" fill="#382a97" stroke="#adadad"></path><path d="M64.5 137L38.8 190.3L97.5 152.7Z" fill="#cccccc" stroke="#adadad"></path><path d="M97.5 152.7L38.8 190.3L94.3 223.7Z" fill="#5c49a3" stroke="#adadad"></path><path d="M533 114.7L486.8 121L506.5 138.7Z" fill="#382a97" stroke="#adadad"></path><path d="M687.3 339.7L675 354.3L675 385Z" fill="#9788b8" stroke="#adadad"></path><path d="M675 385L675 354.3L637.5 377.3Z" fill="#4c399d" stroke="#adadad"></path><path d="M72.8 751L107.3 778.3L98 715Z" fill="#5c49a3" stroke="#adadad"></path><path d="M0 183L0 233.3L18.5 226Z" fill="#9788b8" stroke="#adadad"></path><path d="M18.5 226L0 233.3L29.5 259.7Z" fill="#4c399d" stroke="#adadad"></path><path d="M344.3 827.7L377.3 831.3L385.3 791Z" fill="#5c49a3" stroke="#adadad"></path><path d="M427 824.3L447 816.7L436 794Z" fill="#6c58a8" stroke="#adadad"></path><path d="M349.8 851L377.3 831.3L344.3 827.7Z" fill="#a499bd" stroke="#adadad"></path><path d="M132.3 798.7L183.5 817.7L173 756Z" fill="#7b68ae" stroke="#adadad"></path><path d="M-5.2 625.3L0 682.3L0 654Z" fill="#8978b3" stroke="#adadad"></path><path d="M0 654L0 682.3L20.5 659.3Z" fill="#382a97" stroke="#adadad"></path><path d="M0 780L0 682.3L-5.2 625.3Z" fill="#b2aac2" stroke="#adadad"></path><path d="M390.8 89.7L343.3 73.7L393.3 124.3Z" fill="#7b68ae" stroke="#adadad"></path><path d="M328.8 83L299.5 62L282.3 104.3Z" fill="#7b68ae" stroke="#adadad"></path><path d="M319.3 63L343.3 73.7L330.8 56.3Z" fill="#6c58a8" stroke="#adadad"></path><path d="M623.8 222L560.5 231.7L615.3 243.7Z" fill="#382a97" stroke="#adadad"></path><path d="M623.8 222L585.8 189.3L560.5 231.7Z" fill="#8978b3" stroke="#adadad"></path><path d="M523.5 148.3L533 114.7L506.5 138.7Z" fill="#9788b8" stroke="#adadad"></path><path d="M287.3 862.3L271 838.7L260.8 900Z" fill="#b2aac2" stroke="#adadad"></path><path d="M222.5 822.3L271 838.7L253.5 791.7Z" fill="#382a97" stroke="#adadad"></path><path d="M107.3 778.3L132.3 798.7L142.8 735.7Z" fill="#9788b8" stroke="#adadad"></path><path d="M111.3 820.3L132.3 798.7L107.3 778.3Z" fill="#4c399d" stroke="#adadad"></path><path d="M427 824.3L436 794L402.8 807.7Z" fill="#a499bd" stroke="#adadad"></path><path d="M466.3 782.3L512.5 817.3L484.3 763Z" fill="#6c58a8" stroke="#adadad"></path><path d="M536.3 736.7L585.8 727.3L544.8 672Z" fill="#bfbbc7" stroke="#adadad"></path><path d="M377.3 831.3L427 824.3L402.8 807.7Z" fill="#cccccc" stroke="#adadad"></path><path d="M561 783.3L585.8 727.3L536.3 736.7Z" fill="#cccccc" stroke="#adadad"></path><path d="M640.5 662.7L605.8 613.3L609.3 657.7Z" fill="#9788b8" stroke="#adadad"></path><path d="M242.5 120L243 103.3L194.5 77.3Z" fill="#382a97" stroke="#adadad"></path><path d="M180 85L242.5 120L194.5 77.3Z" fill="#bfbbc7" stroke="#adadad"></path><path d="M121.3 133.3L64.5 137L97.5 152.7Z" fill="#9788b8" stroke="#adadad"></path><path d="M0 183L-15.2 240.7L0 233.3Z" fill="#4c399d" stroke="#adadad"></path><path d="M0 233.3L-15.2 240.7L29.5 259.7Z" fill="#a499bd" stroke="#adadad"></path><path d="M-7.2 323L-15.2 240.7L-13.2 542.3Z" fill="#5c49a3" stroke="#adadad"></path><path d="M603.3 149.7L581.8 178.7L585.8 189.3Z" fill="#382a97" stroke="#adadad"></path><path d="M585.8 189.3L581.8 178.7L557 204.3Z" fill="#cccccc" stroke="#adadad"></path><path d="M477.3 841.7L466.8 813L447 816.7Z" fill="#bfbbc7" stroke="#adadad"></path><path d="M447 816.7L466.8 813L436 794Z" fill="#4c399d" stroke="#adadad"></path><path d="M640.5 662.7L609.3 657.7L606.5 682.3Z" fill="#b2aac2" stroke="#adadad"></path><path d="M610.5 722L640.5 662.7L606.5 682.3Z" fill="#7b68ae" stroke="#adadad"></path><path d="M621.5 251L623.8 222L615.3 243.7Z" fill="#8978b3" stroke="#adadad"></path><path d="M655.5 265.3L621.5 251L632.3 292.3Z" fill="#cccccc" stroke="#adadad"></path><path d="M287.3 862.3L332.5 847.7L280 812.3Z" fill="#b2aac2" stroke="#adadad"></path><path d="M377.3 831.3L393.8 868.3L427 824.3Z" fill="#cccccc" stroke="#adadad"></path><path d="M0 682.3L48.8 750L50.5 689Z" fill="#bfbbc7" stroke="#adadad"></path><path d="M90 820.7L111.3 820.3L107.3 778.3Z" fill="#6c58a8" stroke="#adadad"></path><path d="M255 65.3L243 103.3L273.8 88.3Z" fill="#7b68ae" stroke="#adadad"></path><path d="M364 65.3L343.3 73.7L390.8 89.7Z" fill="#5c49a3" stroke="#adadad"></path><path d="M343.3 73.7L319.3 63L328.8 83Z" fill="#cccccc" stroke="#adadad"></path><path d="M364 65.3L390.8 89.7L369.3 41.3Z" fill="#9788b8" stroke="#adadad"></path><path d="M319.3 63L299.5 62L328.8 83Z" fill="#5c49a3" stroke="#adadad"></path><path d="M299.5 62L255 65.3L273.8 88.3Z" fill="#b2aac2" stroke="#adadad"></path><path d="M434 74.7L418.8 110.3L451 107Z" fill="#7b68ae" stroke="#adadad"></path><path d="M225.3 68.3L194.5 77.3L243 103.3Z" fill="#382a97" stroke="#adadad"></path><path d="M675 301L655.5 265.3L632.3 292.3Z" fill="#a499bd" stroke="#adadad"></path><path d="M683.3 479L687.3 339.7L675 416.7Z" fill="#b2aac2" stroke="#adadad"></path><path d="M675 354.3L675 301L632.3 292.3Z" fill="#bfbbc7" stroke="#adadad"></path><path d="M182.8 73L162.5 87.7L180 85Z" fill="#bfbbc7" stroke="#adadad"></path><path d="M180 85L162.5 87.7L160.8 96.3Z" fill="#8978b3" stroke="#adadad"></path><path d="M160.8 96.3L109.5 94.7L121.3 133.3Z" fill="#4c399d" stroke="#adadad"></path><path d="M255 65.3L225.3 68.3L243 103.3Z" fill="#382a97" stroke="#adadad"></path><path d="M342.8 860.7L349.8 851L332.5 847.7Z" fill="#7b68ae" stroke="#adadad"></path><path d="M332.5 847.7L349.8 851L344.3 827.7Z" fill="#a499bd" stroke="#adadad"></path><path d="M502.5 839L512.5 817.3L466.8 813Z" fill="#9788b8" stroke="#adadad"></path><path d="M687.3 339.7L675 301L675 354.3Z" fill="#a499bd" stroke="#adadad"></path><path d="M319.3 63L317.5 50.7L299.5 62Z" fill="#382a97" stroke="#adadad"></path><path d="M299.5 62L256 17.7L255 65.3Z" fill="#a499bd" stroke="#adadad"></path><path d="M219 52L205.8 62.7L225.3 68.3Z" fill="#cccccc" stroke="#adadad"></path><path d="M349.8 51.7L330.8 56.3L343.3 73.7Z" fill="#bfbbc7" stroke="#adadad"></path><path d="M473.3 44.7L434 74.7L451 107Z" fill="#4c399d" stroke="#adadad"></path><path d="M349.8 51.7L317.5 50.7L330.8 56.3Z" fill="#bfbbc7" stroke="#adadad"></path><path d="M473.3 44.7L451 107L469.5 113Z" fill="#5c49a3" stroke="#adadad"></path><path d="M506 65.3L469.5 113L486.8 121Z" fill="#8978b3" stroke="#adadad"></path><path d="M109.5 94.7L64.5 137L121.3 133.3Z" fill="#b2aac2" stroke="#adadad"></path><path d="M38.8 190.3L0 183L18.5 226Z" fill="#5c49a3" stroke="#adadad"></path><path d="M604.5 763L610.5 722L585.8 727.3Z" fill="#cccccc" stroke="#adadad"></path><path d="M585.8 727.3L610.5 722L606.5 682.3Z" fill="#382a97" stroke="#adadad"></path><path d="M640.5 662.7L675 638.7L662.3 622Z" fill="#9788b8" stroke="#adadad"></path><path d="M194.5 77.3L182.8 73L180 85Z" fill="#8978b3" stroke="#adadad"></path><path d="M162.5 87.7L109.5 94.7L160.8 96.3Z" fill="#7b68ae" stroke="#adadad"></path><path d="M189.8 56.3L182.8 73L194.5 77.3Z" fill="#5c49a3" stroke="#adadad"></path><path d="M205.8 62.7L194.5 77.3L225.3 68.3Z" fill="#9788b8" stroke="#adadad"></path><path d="M349.8 51.7L343.3 73.7L364 65.3Z" fill="#4c399d" stroke="#adadad"></path><path d="M330.8 56.3L317.5 50.7L319.3 63Z" fill="#9788b8" stroke="#adadad"></path><path d="M312.5 883.3L342.8 860.7L332.5 847.7Z" fill="#4c399d" stroke="#adadad"></path><path d="M349.8 851L393.8 868.3L377.3 831.3Z" fill="#bfbbc7" stroke="#adadad"></path><path d="M287.3 862.3L280 812.3L271 838.7Z" fill="#4c399d" stroke="#adadad"></path><path d="M369.3 41.3L349.8 51.7L364 65.3Z" fill="#6c58a8" stroke="#adadad"></path><path d="M219 52L225.3 68.3L255 65.3Z" fill="#b2aac2" stroke="#adadad"></path><path d="M198.8 850L219.3 816.7L183.5 817.7Z" fill="#382a97" stroke="#adadad"></path><path d="M218.8 879.3L271 838.7L222.5 822.3Z" fill="#9788b8" stroke="#adadad"></path><path d="M560 130.7L523.5 148.3L581.8 178.7Z" fill="#cccccc" stroke="#adadad"></path><path d="M560 130.7L533 114.7L523.5 148.3Z" fill="#382a97" stroke="#adadad"></path><path d="M177 846.3L183.5 817.7L132.3 798.7Z" fill="#9788b8" stroke="#adadad"></path><path d="M177 846.3L198.8 850L183.5 817.7Z" fill="#8978b3" stroke="#adadad"></path><path d="M675 647.3L675 638.7L640.5 662.7Z" fill="#6c58a8" stroke="#adadad"></path><path d="M662.3 622L686.3 646.3L675 552Z" fill="#9788b8" stroke="#adadad"></path><path d="M675 552L686.3 646.3L683.3 479Z" fill="#9788b8" stroke="#adadad"></path><path d="M561 119.3L588.5 109.7L579.5 105Z" fill="#6c58a8" stroke="#adadad"></path><path d="M560 130.7L581.8 178.7L603.3 149.7Z" fill="#382a97" stroke="#adadad"></path><path d="M24.8 151L0 183L38.8 190.3Z" fill="#4c399d" stroke="#adadad"></path><path d="M111.3 820.3L177 846.3L132.3 798.7Z" fill="#5c49a3" stroke="#adadad"></path><path d="M121 53.7L162.5 87.7L182.8 73Z" fill="#9788b8" stroke="#adadad"></path><path d="M104.3 77.3L109.5 94.7L121 53.7Z" fill="#8978b3" stroke="#adadad"></path><path d="M64.5 137L40.5 137.3L38.8 190.3Z" fill="#a499bd" stroke="#adadad"></path><path d="M686.3 646.3L675 647.3L675 679Z" fill="#a499bd" stroke="#adadad"></path><path d="M675 638.7L686.3 646.3L662.3 622Z" fill="#bfbbc7" stroke="#adadad"></path><path d="M512.5 817.3L466.3 782.3L466.8 813Z" fill="#7b68ae" stroke="#adadad"></path><path d="M512.5 817.3L519 742.3L484.3 763Z" fill="#4c399d" stroke="#adadad"></path><path d="M675 679L675 647.3L640.5 662.7Z" fill="#7b68ae" stroke="#adadad"></path><path d="M256 17.7L219 52L255 65.3Z" fill="#a499bd" stroke="#adadad"></path><path d="M205.8 62.7L189.8 56.3L194.5 77.3Z" fill="#b2aac2" stroke="#adadad"></path><path d="M90 820.7L107.3 778.3L57.5 802Z" fill="#9788b8" stroke="#adadad"></path><path d="M477.3 841.7L447 816.7L451.8 866.7Z" fill="#8978b3" stroke="#adadad"></path><path d="M9.8 98.3L40.5 137.3L64.5 137Z" fill="#b2aac2" stroke="#adadad"></path><path d="M40.5 137.3L24.8 151L38.8 190.3Z" fill="#8978b3" stroke="#adadad"></path><path d="M219 52L189.8 56.3L205.8 62.7Z" fill="#a499bd" stroke="#adadad"></path><path d="M0 682.3L23.8 762.3L48.8 750Z" fill="#7b68ae" stroke="#adadad"></path><path d="M48.8 750L57.5 802L72.8 751Z" fill="#382a97" stroke="#adadad"></path><path d="M371.5 0L369.3 41.3L414.3 0Z" fill="#b2aac2" stroke="#adadad"></path><path d="M434 74.7L369.3 41.3L390.8 89.7Z" fill="#a499bd" stroke="#adadad"></path><path d="M349.8 51.7L311.5 8.3L317.5 50.7Z" fill="#b2aac2" stroke="#adadad"></path><path d="M311.5 8.3L256 17.7L299.5 62Z" fill="#8978b3" stroke="#adadad"></path><path d="M512.5 817.3L560.8 791.7L561 783.3Z" fill="#5c49a3" stroke="#adadad"></path><path d="M561 783.3L576.5 784.3L585.8 727.3Z" fill="#cccccc" stroke="#adadad"></path><path d="M560 130.7L561 119.3L533 114.7Z" fill="#5c49a3" stroke="#adadad"></path><path d="M533 114.7L531.3 92.3L486.8 121Z" fill="#a499bd" stroke="#adadad"></path><path d="M603.3 149.7L585.8 189.3L619.5 152.3Z" fill="#382a97" stroke="#adadad"></path><path d="M561 119.3L541.8 105.3L533 114.7Z" fill="#4c399d" stroke="#adadad"></path><path d="M451.8 866.7L447 816.7L427 824.3Z" fill="#8978b3" stroke="#adadad"></path><path d="M512.5 817.3L559.5 798.7L560.8 791.7Z" fill="#a499bd" stroke="#adadad"></path><path d="M369 882.7L349.8 851L342.8 860.7Z" fill="#b2aac2" stroke="#adadad"></path><path d="M369 882.7L393.8 868.3L349.8 851Z" fill="#9788b8" stroke="#adadad"></path><path d="M23.8 762.3L26.5 770.3L48.8 750Z" fill="#9788b8" stroke="#adadad"></path><path d="M675 679L640.5 662.7L610.5 722Z" fill="#cccccc" stroke="#adadad"></path><path d="M675 647.3L686.3 646.3L675 638.7Z" fill="#a499bd" stroke="#adadad"></path><path d="M683.3 479L692.3 266.3L687.3 339.7Z" fill="#5c49a3" stroke="#adadad"></path><path d="M675 301L690.3 272L655.5 265.3Z" fill="#8978b3" stroke="#adadad"></path><path d="M655.5 265.3L675 224.7L623.8 222Z" fill="#5c49a3" stroke="#adadad"></path><path d="M687.3 339.7L690.3 272L675 301Z" fill="#a499bd" stroke="#adadad"></path><path d="M692.3 266.3L690.3 272L687.3 339.7Z" fill="#bfbbc7" stroke="#adadad"></path><path d="M559.5 798.7L576.5 784.3L560.8 791.7Z" fill="#4c399d" stroke="#adadad"></path><path d="M560.8 791.7L576.5 784.3L561 783.3Z" fill="#a499bd" stroke="#adadad"></path><path d="M552.8 828.7L559.5 798.7L512.5 817.3Z" fill="#5c49a3" stroke="#adadad"></path><path d="M619.5 152.3L585.8 189.3L635.5 158.7Z" fill="#4c399d" stroke="#adadad"></path><path d="M561.8 83L531.3 92.3L541.8 105.3Z" fill="#5c49a3" stroke="#adadad"></path><path d="M57.5 802L107.3 778.3L72.8 751Z" fill="#bfbbc7" stroke="#adadad"></path><path d="M111.3 820.3L96.3 859.7L177 846.3Z" fill="#a499bd" stroke="#adadad"></path><path d="M563.8 88.7L541.8 105.3L561 119.3Z" fill="#b2aac2" stroke="#adadad"></path><path d="M541.8 105.3L531.3 92.3L533 114.7Z" fill="#a499bd" stroke="#adadad"></path><path d="M623.5 758.3L604.5 763L631.3 806Z" fill="#4c399d" stroke="#adadad"></path><path d="M576.5 784.3L604.5 763L585.8 727.3Z" fill="#5c49a3" stroke="#adadad"></path><path d="M289 900L312.5 883.3L287.3 862.3Z" fill="#6c58a8" stroke="#adadad"></path><path d="M287.3 862.3L312.5 883.3L332.5 847.7Z" fill="#cccccc" stroke="#adadad"></path><path d="M218.8 879.3L222.5 822.3L198.8 850Z" fill="#8978b3" stroke="#adadad"></path><path d="M26.5 770.3L57.5 802L48.8 750Z" fill="#b2aac2" stroke="#adadad"></path><path d="M686.3 646.3L692.3 266.3L683.3 479Z" fill="#a499bd" stroke="#adadad"></path><path d="M690.3 272L692.3 266.3L655.5 265.3Z" fill="#9788b8" stroke="#adadad"></path><path d="M675 751.3L675 679L610.5 722Z" fill="#4c399d" stroke="#adadad"></path><path d="M477.3 841.7L502.5 839L466.8 813Z" fill="#5c49a3" stroke="#adadad"></path><path d="M506.5 875.7L502.5 839L477.3 841.7Z" fill="#9788b8" stroke="#adadad"></path><path d="M121 53.7L109.5 94.7L162.5 87.7Z" fill="#6c58a8" stroke="#adadad"></path><path d="M109.5 94.7L104.3 77.3L64.5 137Z" fill="#a499bd" stroke="#adadad"></path><path d="M40.5 137.3L5.8 144.7L24.8 151Z" fill="#9788b8" stroke="#adadad"></path><path d="M90 820.7L100.3 833L111.3 820.3Z" fill="#382a97" stroke="#adadad"></path><path d="M176 900L218.8 879.3L198.8 850Z" fill="#b2aac2" stroke="#adadad"></path><path d="M96.3 859.7L100.3 833L90 820.7Z" fill="#b2aac2" stroke="#adadad"></path><path d="M350.3 900L369 882.7L342.8 860.7Z" fill="#5c49a3" stroke="#adadad"></path><path d="M393.8 868.3L451.8 866.7L427 824.3Z" fill="#7b68ae" stroke="#adadad"></path><path d="M502.5 839L521.8 832L512.5 817.3Z" fill="#6c58a8" stroke="#adadad"></path><path d="M631.3 806L604.5 763L576.5 784.3Z" fill="#4c399d" stroke="#adadad"></path><path d="M176 900L198.8 850L177 846.3Z" fill="#5c49a3" stroke="#adadad"></path><path d="M692.3 266.3L675 224.7L655.5 265.3Z" fill="#bfbbc7" stroke="#adadad"></path><path d="M675 224.7L660.3 202L623.8 222Z" fill="#5c49a3" stroke="#adadad"></path><path d="M692.3 266.3L675 222.3L675 224.7Z" fill="#6c58a8" stroke="#adadad"></path><path d="M675 224.7L675 222.3L660.3 202Z" fill="#cccccc" stroke="#adadad"></path><path d="M635.5 158.7L585.8 189.3L623.8 222Z" fill="#b2aac2" stroke="#adadad"></path><path d="M588.5 109.7L561 119.3L560 130.7Z" fill="#cccccc" stroke="#adadad"></path><path d="M0 125.7L5.8 144.7L40.5 137.3Z" fill="#8978b3" stroke="#adadad"></path><path d="M24.8 151L5.8 144.7L0 183Z" fill="#b2aac2" stroke="#adadad"></path><path d="M0 183L-12.2 102.7L-15.2 240.7Z" fill="#bfbbc7" stroke="#adadad"></path><path d="M438 900L451.8 866.7L393.8 868.3Z" fill="#7b68ae" stroke="#adadad"></path><path d="M562 836L552.8 828.7L561.8 857.3Z" fill="#b2aac2" stroke="#adadad"></path><path d="M692.3 266.3L675 220L675 222.3Z" fill="#382a97" stroke="#adadad"></path><path d="M675 222.3L675 220L660.3 202Z" fill="#6c58a8" stroke="#adadad"></path><path d="M599.5 824.7L576.5 784.3L559.5 798.7Z" fill="#6c58a8" stroke="#adadad"></path><path d="M604.5 763L623.5 758.3L610.5 722Z" fill="#8978b3" stroke="#adadad"></path><path d="M524.8 62.3L506 65.3L531.3 92.3Z" fill="#6c58a8" stroke="#adadad"></path><path d="M531.3 92.3L506 65.3L486.8 121Z" fill="#bfbbc7" stroke="#adadad"></path><path d="M26.5 770.3L46.5 807.7L57.5 802Z" fill="#4c399d" stroke="#adadad"></path><path d="M57.5 802L48.5 819.7L90 820.7Z" fill="#b2aac2" stroke="#adadad"></path><path d="M311.5 8.3L299.5 62L317.5 50.7Z" fill="#9788b8" stroke="#adadad"></path><path d="M219 52L202.3 18.7L189.8 56.3Z" fill="#5c49a3" stroke="#adadad"></path><path d="M189.8 56.3L121 53.7L182.8 73Z" fill="#b2aac2" stroke="#adadad"></path><path d="M311.5 8.3L349.8 51.7L365 0Z" fill="#a499bd" stroke="#adadad"></path><path d="M660.3 202L635.5 158.7L623.8 222Z" fill="#a499bd" stroke="#adadad"></path><path d="M588.5 109.7L560 130.7L603.3 149.7Z" fill="#9788b8" stroke="#adadad"></path><path d="M619.5 152.3L635.5 158.7L670.3 116.3Z" fill="#a499bd" stroke="#adadad"></path><path d="M506 65.3L473.3 44.7L469.5 113Z" fill="#bfbbc7" stroke="#adadad"></path><path d="M588.5 109.7L603.3 149.7L619.5 152.3Z" fill="#5c49a3" stroke="#adadad"></path><path d="M506 65.3L494.3 48.3L473.3 44.7Z" fill="#b2aac2" stroke="#adadad"></path><path d="M150.5 0L121 53.7L189.8 56.3Z" fill="#9788b8" stroke="#adadad"></path><path d="M0 108.7L0 125.7L9.8 98.3Z" fill="#4c399d" stroke="#adadad"></path><path d="M6.8 799.7L47.5 815.3L46.5 807.7Z" fill="#7b68ae" stroke="#adadad"></path><path d="M46.5 807.7L47.5 815.3L57.5 802Z" fill="#9788b8" stroke="#adadad"></path><path d="M247.3 900L271 838.7L218.8 879.3Z" fill="#bfbbc7" stroke="#adadad"></path><path d="M260.8 900L289 900L287.3 862.3Z" fill="#5c49a3" stroke="#adadad"></path><path d="M312.5 883.3L350.3 900L342.8 860.7Z" fill="#a499bd" stroke="#adadad"></path><path d="M369 882.7L374.5 900L393.8 868.3Z" fill="#9788b8" stroke="#adadad"></path><path d="M621.3 76.3L588.5 109.7L619.5 152.3Z" fill="#9788b8" stroke="#adadad"></path><path d="M579.5 105L563.8 88.7L561 119.3Z" fill="#9788b8" stroke="#adadad"></path><path d="M506.5 875.7L521.8 832L502.5 839Z" fill="#bfbbc7" stroke="#adadad"></path><path d="M521.8 832L552.8 828.7L512.5 817.3Z" fill="#b2aac2" stroke="#adadad"></path><path d="M289 900L350.3 900L312.5 883.3Z" fill="#bfbbc7" stroke="#adadad"></path><path d="M247.3 900L260.8 900L271 838.7Z" fill="#5c49a3" stroke="#adadad"></path><path d="M247.3 900L218.8 879.3L176 900Z" fill="#4c399d" stroke="#adadad"></path><path d="M561.8 83L563.8 88.7L590 74Z" fill="#7b68ae" stroke="#adadad"></path><path d="M6.8 799.7L48.5 819.7L47.5 815.3Z" fill="#382a97" stroke="#adadad"></path><path d="M47.5 815.3L48.5 819.7L57.5 802Z" fill="#a499bd" stroke="#adadad"></path><path d="M503.3 48L496.5 49.7L506 65.3Z" fill="#4c399d" stroke="#adadad"></path><path d="M349.8 51.7L369.3 41.3L365 0Z" fill="#b2aac2" stroke="#adadad"></path><path d="M305.8 0L311.5 8.3L365 0Z" fill="#5c49a3" stroke="#adadad"></path><path d="M23.8 762.3L0 780L26.5 770.3Z" fill="#9788b8" stroke="#adadad"></path><path d="M26.5 770.3L6.8 799.7L46.5 807.7Z" fill="#8978b3" stroke="#adadad"></path><path d="M0 682.3L0 780L23.8 762.3Z" fill="#5c49a3" stroke="#adadad"></path><path d="M-13.2 542.3L0 780L-5.2 625.3Z" fill="#4c399d" stroke="#adadad"></path><path d="M503.3 48L494.3 48.3L496.5 49.7Z" fill="#cccccc" stroke="#adadad"></path><path d="M496.5 49.7L494.3 48.3L506 65.3Z" fill="#4c399d" stroke="#adadad"></path><path d="M96.3 859.7L111.3 820.3L100.3 833Z" fill="#8978b3" stroke="#adadad"></path><path d="M561.8 83L524.8 62.3L531.3 92.3Z" fill="#b2aac2" stroke="#adadad"></path><path d="M350.3 900L374.5 900L369 882.7Z" fill="#7b68ae" stroke="#adadad"></path><path d="M451.8 866.7L470.3 878.3L477.3 841.7Z" fill="#7b68ae" stroke="#adadad"></path><path d="M227 0L219 52L256 17.7Z" fill="#4c399d" stroke="#adadad"></path><path d="M227 0L202.3 18.7L219 52Z" fill="#7b68ae" stroke="#adadad"></path><path d="M590 74L563.8 88.7L579.5 105Z" fill="#9788b8" stroke="#adadad"></path><path d="M563.8 88.7L561.8 83L541.8 105.3Z" fill="#4c399d" stroke="#adadad"></path><path d="M494.3 48.3L503.3 48L485.3 0Z" fill="#a499bd" stroke="#adadad"></path><path d="M524.8 62.3L503.3 48L506 65.3Z" fill="#bfbbc7" stroke="#adadad"></path><path d="M478.5 0L443.8 0L473.3 44.7Z" fill="#8978b3" stroke="#adadad"></path><path d="M0 125.7L40.5 137.3L9.8 98.3Z" fill="#5c49a3" stroke="#adadad"></path><path d="M5.8 144.7L0 125.7L0 183Z" fill="#8978b3" stroke="#adadad"></path><path d="M438 900L470.3 878.3L451.8 866.7Z" fill="#6c58a8" stroke="#adadad"></path><path d="M0 780L0 787.7L26.5 770.3Z" fill="#9788b8" stroke="#adadad"></path><path d="M-13.2 542.3L0 787.7L0 780Z" fill="#4c399d" stroke="#adadad"></path><path d="M365 0L369.3 41.3L371.5 0Z" fill="#8978b3" stroke="#adadad"></path><path d="M311.5 8.3L305.8 0L256 17.7Z" fill="#4c399d" stroke="#adadad"></path><path d="M124.8 906.7L96.3 859.7L105.5 900Z" fill="#7b68ae" stroke="#adadad"></path><path d="M48.5 819.7L96.3 859.7L90 820.7Z" fill="#5c49a3" stroke="#adadad"></path><path d="M561.8 857.3L552.8 828.7L521.8 832Z" fill="#a499bd" stroke="#adadad"></path><path d="M552.8 828.7L562 836L559.5 798.7Z" fill="#9788b8" stroke="#adadad"></path><path d="M-13.2 542.3L0 793.3L0 787.7Z" fill="#b2aac2" stroke="#adadad"></path><path d="M0 787.7L6.8 799.7L26.5 770.3Z" fill="#a499bd" stroke="#adadad"></path><path d="M0 793.3L6.8 799.7L0 787.7Z" fill="#a499bd" stroke="#adadad"></path><path d="M369.3 41.3L434 74.7L414.3 0Z" fill="#bfbbc7" stroke="#adadad"></path><path d="M414.3 0L434 74.7L443.8 0Z" fill="#b2aac2" stroke="#adadad"></path><path d="M374.5 900L438 900L393.8 868.3Z" fill="#4c399d" stroke="#adadad"></path><path d="M470.3 878.3L506.5 875.7L477.3 841.7Z" fill="#7b68ae" stroke="#adadad"></path><path d="M305.8 0L227 0L256 17.7Z" fill="#7b68ae" stroke="#adadad"></path><path d="M202.3 18.7L163.8 0L189.8 56.3Z" fill="#4c399d" stroke="#adadad"></path><path d="M157.8 900L176 900L177 846.3Z" fill="#9788b8" stroke="#adadad"></path><path d="M485.8 900L506.5 875.7L470.3 878.3Z" fill="#4c399d" stroke="#adadad"></path><path d="M9.8 98.3L64.5 137L25.8 62.3Z" fill="#6c58a8" stroke="#adadad"></path><path d="M0 125.7L-12.2 102.7L0 183Z" fill="#a499bd" stroke="#adadad"></path><path d="M64.5 137L104.3 77.3L25.8 62.3Z" fill="#382a97" stroke="#adadad"></path><path d="M78.3 37.7L104.3 77.3L121 53.7Z" fill="#382a97" stroke="#adadad"></path><path d="M443.8 0L434 74.7L473.3 44.7Z" fill="#8978b3" stroke="#adadad"></path><path d="M151.5 900L157.8 900L177 846.3Z" fill="#8978b3" stroke="#adadad"></path><path d="M562 836L599.5 824.7L559.5 798.7Z" fill="#5c49a3" stroke="#adadad"></path><path d="M623.5 758.3L675 751.3L610.5 722Z" fill="#6c58a8" stroke="#adadad"></path><path d="M561.8 857.3L599.5 824.7L562 836Z" fill="#382a97" stroke="#adadad"></path><path d="M675 755.7L675 751.3L664.3 769.3Z" fill="#4c399d" stroke="#adadad"></path><path d="M675 679L691.3 749L686.3 646.3Z" fill="#5c49a3" stroke="#adadad"></path><path d="M124.8 906.7L151.5 900L96.3 859.7Z" fill="#6c58a8" stroke="#adadad"></path><path d="M96.3 859.7L151.5 900L177 846.3Z" fill="#5c49a3" stroke="#adadad"></path><path d="M227 0L185.3 0L202.3 18.7Z" fill="#cccccc" stroke="#adadad"></path><path d="M664.3 769.3L675 751.3L623.5 758.3Z" fill="#382a97" stroke="#adadad"></path><path d="M675 751.3L691.3 749L675 679Z" fill="#8978b3" stroke="#adadad"></path><path d="M631.3 806L664.3 769.3L623.5 758.3Z" fill="#5c49a3" stroke="#adadad"></path><path d="M561.8 83L570 0L524.8 62.3Z" fill="#a499bd" stroke="#adadad"></path><path d="M478.5 0L473.3 44.7L485.3 0Z" fill="#9788b8" stroke="#adadad"></path><path d="M588.5 109.7L590 74L579.5 105Z" fill="#4c399d" stroke="#adadad"></path><path d="M621.3 76.3L590 74L588.5 109.7Z" fill="#7b68ae" stroke="#adadad"></path><path d="M621.3 76.3L619.5 152.3L670.3 116.3Z" fill="#382a97" stroke="#adadad"></path><path d="M542 900L561.8 857.3L506.5 875.7Z" fill="#6c58a8" stroke="#adadad"></path><path d="M506.5 875.7L561.8 857.3L521.8 832Z" fill="#b2aac2" stroke="#adadad"></path><path d="M599.5 824.7L631.3 806L576.5 784.3Z" fill="#bfbbc7" stroke="#adadad"></path><path d="M473.3 44.7L494.3 48.3L485.3 0Z" fill="#b2aac2" stroke="#adadad"></path><path d="M438 900L479.5 900L470.3 878.3Z" fill="#382a97" stroke="#adadad"></path><path d="M626.3 815.7L631.3 806L599.5 824.7Z" fill="#b2aac2" stroke="#adadad"></path><path d="M0 89L0 108.7L9.8 98.3Z" fill="#7b68ae" stroke="#adadad"></path><path d="M0 89L-12.2 102.7L0 108.7Z" fill="#5c49a3" stroke="#adadad"></path><path d="M0 108.7L-12.2 102.7L0 125.7Z" fill="#7b68ae" stroke="#adadad"></path><path d="M94.3 0L78.3 37.7L121 53.7Z" fill="#a499bd" stroke="#adadad"></path><path d="M479.5 900L485.8 900L470.3 878.3Z" fill="#4c399d" stroke="#adadad"></path><path d="M185.3 0L163.8 0L202.3 18.7Z" fill="#a499bd" stroke="#adadad"></path><path d="M0 81.3L0 89L9.8 98.3Z" fill="#bfbbc7" stroke="#adadad"></path><path d="M617.3 826.3L626.3 815.7L599.5 824.7Z" fill="#382a97" stroke="#adadad"></path><path d="M631.3 806L675 801.3L664.3 769.3Z" fill="#a499bd" stroke="#adadad"></path><path d="M675 801.3L675 755.7L664.3 769.3Z" fill="#7b68ae" stroke="#adadad"></path><path d="M675 801.3L691.3 749L675 755.7Z" fill="#8978b3" stroke="#adadad"></path><path d="M675 755.7L691.3 749L675 751.3Z" fill="#6c58a8" stroke="#adadad"></path><path d="M686.3 646.3L691.3 749L692.3 266.3Z" fill="#cccccc" stroke="#adadad"></path><path d="M604.3 900L617.3 826.3L599.5 824.7Z" fill="#7b68ae" stroke="#adadad"></path><path d="M675 827L675 801.3L631.3 806Z" fill="#a499bd" stroke="#adadad"></path><path d="M604.3 900L599.5 824.7L561.8 857.3Z" fill="#8978b3" stroke="#adadad"></path><path d="M163.8 0L150.5 0L189.8 56.3Z" fill="#b2aac2" stroke="#adadad"></path><path d="M78.3 37.7L25.8 62.3L104.3 77.3Z" fill="#6c58a8" stroke="#adadad"></path><path d="M0 38.3L25.8 62.3L32.5 2.3Z" fill="#6c58a8" stroke="#adadad"></path><path d="M25.8 62.3L0 81.3L9.8 98.3Z" fill="#6c58a8" stroke="#adadad"></path><path d="M0 89L0 81.3L-12.2 102.7Z" fill="#382a97" stroke="#adadad"></path><path d="M485.3 0L503.3 48L534.8 0Z" fill="#7b68ae" stroke="#adadad"></path><path d="M105.5 900L96.3 859.7L102.3 900Z" fill="#8978b3" stroke="#adadad"></path><path d="M151.5 900L124.8 906.7L157.8 900Z" fill="#6c58a8" stroke="#adadad"></path><path d="M157.8 900L124.8 906.7L176 900Z" fill="#382a97" stroke="#adadad"></path><path d="M176 900L124.8 906.7L247.3 900Z" fill="#7b68ae" stroke="#adadad"></path><path d="M247.3 900L124.8 906.7L260.8 900Z" fill="#6c58a8" stroke="#adadad"></path><path d="M260.8 900L124.8 906.7L289 900Z" fill="#b2aac2" stroke="#adadad"></path><path d="M289 900L543 914.7L350.3 900Z" fill="#5c49a3" stroke="#adadad"></path><path d="M350.3 900L543 914.7L374.5 900Z" fill="#5c49a3" stroke="#adadad"></path><path d="M374.5 900L543 914.7L438 900Z" fill="#5c49a3" stroke="#adadad"></path><path d="M438 900L543 914.7L479.5 900Z" fill="#cccccc" stroke="#adadad"></path><path d="M479.5 900L543 914.7L485.8 900Z" fill="#cccccc" stroke="#adadad"></path><path d="M102.3 900L96.3 859.7L72.8 900Z" fill="#8978b3" stroke="#adadad"></path><path d="M96.3 859.7L48.5 819.7L33.8 861.3Z" fill="#7b68ae" stroke="#adadad"></path><path d="M534.8 0L503.3 48L524.8 62.3Z" fill="#8978b3" stroke="#adadad"></path><path d="M465.8 -12.7L443.8 0L478.5 0Z" fill="#9788b8" stroke="#adadad"></path><path d="M465.8 -12.7L436.5 -16.7L443.8 0Z" fill="#5c49a3" stroke="#adadad"></path><path d="M443.8 0L436.5 -16.7L414.3 0Z" fill="#7b68ae" stroke="#adadad"></path><path d="M414.3 0L436.5 -16.7L371.5 0Z" fill="#8978b3" stroke="#adadad"></path><path d="M371.5 0L436.5 -16.7L365 0Z" fill="#5c49a3" stroke="#adadad"></path><path d="M365 0L436.5 -16.7L305.8 0Z" fill="#bfbbc7" stroke="#adadad"></path><path d="M305.8 0L436.5 -16.7L227 0Z" fill="#6c58a8" stroke="#adadad"></path><path d="M227 0L127 -5.7L185.3 0Z" fill="#7b68ae" stroke="#adadad"></path><path d="M185.3 0L127 -5.7L163.8 0Z" fill="#4c399d" stroke="#adadad"></path><path d="M163.8 0L127 -5.7L150.5 0Z" fill="#b2aac2" stroke="#adadad"></path><path d="M33.8 861.3L48.5 819.7L6.8 799.7Z" fill="#b2aac2" stroke="#adadad"></path><path d="M105.5 900L102.3 900L124.8 906.7Z" fill="#a499bd" stroke="#adadad"></path><path d="M0 876.7L33.8 861.3L6.8 799.7Z" fill="#4c399d" stroke="#adadad"></path><path d="M127 -5.7L126 0L150.5 0Z" fill="#bfbbc7" stroke="#adadad"></path><path d="M150.5 0L126 0L121 53.7Z" fill="#9788b8" stroke="#adadad"></path><path d="M675 125.7L635.5 158.7L660.3 202Z" fill="#cccccc" stroke="#adadad"></path><path d="M570 0L534.8 0L524.8 62.3Z" fill="#7b68ae" stroke="#adadad"></path><path d="M675 220L675 125.7L660.3 202Z" fill="#bfbbc7" stroke="#adadad"></path><path d="M692.3 266.3L675 125.7L675 220Z" fill="#382a97" stroke="#adadad"></path><path d="M543 914.7L523.8 900L485.8 900Z" fill="#9788b8" stroke="#adadad"></path><path d="M485.8 900L523.8 900L506.5 875.7Z" fill="#9788b8" stroke="#adadad"></path><path d="M485.3 0L465.8 -12.7L478.5 0Z" fill="#a499bd" stroke="#adadad"></path><path d="M534.8 0L465.8 -12.7L485.3 0Z" fill="#cccccc" stroke="#adadad"></path><path d="M0 38.3L-1.2 70L25.8 62.3Z" fill="#8978b3" stroke="#adadad"></path><path d="M25.8 62.3L-1.2 70L0 81.3Z" fill="#9788b8" stroke="#adadad"></path><path d="M0 81.3L-1.2 70L-12.2 102.7Z" fill="#9788b8" stroke="#adadad"></path><path d="M33.8 861.3L58.8 883.7L96.3 859.7Z" fill="#cccccc" stroke="#adadad"></path><path d="M675 125.7L670.3 116.3L635.5 158.7Z" fill="#7b68ae" stroke="#adadad"></path><path d="M436.5 -16.7L127 -5.7L227 0Z" fill="#4c399d" stroke="#adadad"></path><path d="M126 0L94.3 0L121 53.7Z" fill="#cccccc" stroke="#adadad"></path><path d="M543 914.7L542 900L523.8 900Z" fill="#4c399d" stroke="#adadad"></path><path d="M523.8 900L542 900L506.5 875.7Z" fill="#bfbbc7" stroke="#adadad"></path><path d="M102.3 900L72.8 900L124.8 906.7Z" fill="#b2aac2" stroke="#adadad"></path><path d="M58.8 883.7L72.8 900L96.3 859.7Z" fill="#382a97" stroke="#adadad"></path><path d="M0 900L72.8 900L58.8 883.7Z" fill="#382a97" stroke="#adadad"></path><path d="M675 827L626.3 815.7L617.3 826.3Z" fill="#5c49a3" stroke="#adadad"></path><path d="M675 827L631.3 806L626.3 815.7Z" fill="#382a97" stroke="#adadad"></path><path d="M127 -5.7L94.3 0L126 0Z" fill="#bfbbc7" stroke="#adadad"></path><path d="M543 914.7L550.3 900L542 900Z" fill="#382a97" stroke="#adadad"></path><path d="M542 900L550.3 900L561.8 857.3Z" fill="#8978b3" stroke="#adadad"></path><path d="M570 0L590 74L608.5 -1.7Z" fill="#5c49a3" stroke="#adadad"></path><path d="M570 0L561.8 83L590 74Z" fill="#6c58a8" stroke="#adadad"></path><path d="M124.8 906.7L543 914.7L289 900Z" fill="#8978b3" stroke="#adadad"></path><path d="M685.3 853.7L675 827L617.3 826.3Z" fill="#382a97" stroke="#adadad"></path><path d="M675 125.7L675 93.3L670.3 116.3Z" fill="#cccccc" stroke="#adadad"></path><path d="M670.3 116.3L675 93.3L621.3 76.3Z" fill="#382a97" stroke="#adadad"></path><path d="M686.3 80.7L675 93.3L675 125.7Z" fill="#382a97" stroke="#adadad"></path><path d="M32.5 2.3L25.8 62.3L78.3 37.7Z" fill="#382a97" stroke="#adadad"></path><path d="M-1.2 70L0 38.3L-12.2 102.7Z" fill="#9788b8" stroke="#adadad"></path><path d="M686.3 80.7L675 85.7L675 93.3Z" fill="#8978b3" stroke="#adadad"></path><path d="M675 93.3L673.3 81L621.3 76.3Z" fill="#8978b3" stroke="#adadad"></path><path d="M604.3 900L561.8 857.3L550.3 900Z" fill="#7b68ae" stroke="#adadad"></path><path d="M675 801.3L685.3 853.7L691.3 749Z" fill="#7b68ae" stroke="#adadad"></path><path d="M0 793.3L0 876.7L6.8 799.7Z" fill="#cccccc" stroke="#adadad"></path><path d="M33.8 861.3L0 900L58.8 883.7Z" fill="#4c399d" stroke="#adadad"></path><path d="M-13.2 542.3L0 876.7L0 793.3Z" fill="#9788b8" stroke="#adadad"></path><path d="M675 85.7L673.3 81L675 93.3Z" fill="#4c399d" stroke="#adadad"></path><path d="M608.5 -1.7L590 74L621.3 76.3Z" fill="#5c49a3" stroke="#adadad"></path><path d="M534.8 0L570 0L465.8 -12.7Z" fill="#cccccc" stroke="#adadad"></path><path d="M465.8 -12.7L608.5 -1.7L436.5 -16.7Z" fill="#5c49a3" stroke="#adadad"></path><path d="M94.3 0L45.8 0L78.3 37.7Z" fill="#8978b3" stroke="#adadad"></path><path d="M127 -5.7L45.8 0L94.3 0Z" fill="#7b68ae" stroke="#adadad"></path><path d="M127 -5.7L42.5 0L45.8 0Z" fill="#9788b8" stroke="#adadad"></path><path d="M45.8 0L32.5 2.3L78.3 37.7Z" fill="#382a97" stroke="#adadad"></path><path d="M42.5 0L32.5 2.3L45.8 0Z" fill="#b2aac2" stroke="#adadad"></path><path d="M675 85.7L686.3 80.7L673.3 81Z" fill="#b2aac2" stroke="#adadad"></path><path d="M673.3 81L675 60.3L621.3 76.3Z" fill="#6c58a8" stroke="#adadad"></path><path d="M692.3 266.3L686.3 80.7L675 125.7Z" fill="#382a97" stroke="#adadad"></path><path d="M543 914.7L604.3 900L550.3 900Z" fill="#6c58a8" stroke="#adadad"></path><path d="M686.3 80.7L675 60.3L673.3 81Z" fill="#9788b8" stroke="#adadad"></path><path d="M543 914.7L614.5 900L604.3 900Z" fill="#6c58a8" stroke="#adadad"></path><path d="M604.3 900L614.5 900L617.3 826.3Z" fill="#6c58a8" stroke="#adadad"></path><path d="M-13.2 542.3L0 900L0 876.7Z" fill="#4c399d" stroke="#adadad"></path><path d="M0 876.7L0 900L33.8 861.3Z" fill="#bfbbc7" stroke="#adadad"></path><path d="M72.8 900L0 900L124.8 906.7Z" fill="#5c49a3" stroke="#adadad"></path><path d="M686.3 80.7L675 51L675 60.3Z" fill="#9788b8" stroke="#adadad"></path><path d="M675 60.3L675 51L621.3 76.3Z" fill="#9788b8" stroke="#adadad"></path><path d="M640.5 0L608.5 -1.7L621.3 76.3Z" fill="#cccccc" stroke="#adadad"></path><path d="M570 0L608.5 -1.7L465.8 -12.7Z" fill="#cccccc" stroke="#adadad"></path><path d="M614.5 900L685.3 853.7L617.3 826.3Z" fill="#b2aac2" stroke="#adadad"></path><path d="M675 827L685.3 853.7L675 801.3Z" fill="#9788b8" stroke="#adadad"></path><path d="M127 -5.7L0 0L42.5 0Z" fill="#8978b3" stroke="#adadad"></path><path d="M42.5 0L0 0L32.5 2.3Z" fill="#cccccc" stroke="#adadad"></path><path d="M32.5 2.3L0 0L0 38.3Z" fill="#bfbbc7" stroke="#adadad"></path><path d="M0 38.3L0 0L-12.2 102.7Z" fill="#8978b3" stroke="#adadad"></path><path d="M675 51L640.5 0L621.3 76.3Z" fill="#6c58a8" stroke="#adadad"></path><path d="M608.5 -1.7L675 0L436.5 -16.7Z" fill="#382a97" stroke="#adadad"></path><path d="M614.5 900L675 900L685.3 853.7Z" fill="#a499bd" stroke="#adadad"></path><path d="M675 900.7L675 900L614.5 900Z" fill="#6c58a8" stroke="#adadad"></path><path d="M543 914.7L675 900.7L614.5 900Z" fill="#8978b3" stroke="#adadad"></path><path d="M675 900L675 900.7L685.3 853.7Z" fill="#b2aac2" stroke="#adadad"></path><path d="M675 51L664.3 0L640.5 0Z" fill="#7b68ae" stroke="#adadad"></path><path d="M640.5 0L664.3 0L608.5 -1.7Z" fill="#9788b8" stroke="#adadad"></path><path d="M675 0L664.3 0L675 51Z" fill="#382a97" stroke="#adadad"></path><path d="M686.3 80.7L675 0L675 51Z" fill="#a499bd" stroke="#adadad"></path><path d="M664.3 0L675 0L608.5 -1.7Z" fill="#cccccc" stroke="#adadad"></path></g></svg>