<svg id="visual" viewBox="0 0 675 900" width="675" height="900" xmlns="http://www.w3.org/2000/svg" xmlns:xlink="http://www.w3.org/1999/xlink" version="1.1"><g stroke-width="1" stroke-linejoin="bevel"><path d="M366.3 450L389.3 448.3L366.3 414.7Z" fill="#291867" stroke="#adadad"></path><path d="M389.3 448.3L395.3 418.7L366.3 414.7Z" fill="#1b1338" stroke="#adadad"></path><path d="M395.3 418.7L382.5 407L366.3 414.7Z" fill="#4d17cb" stroke="#adadad"></path><path d="M395.3 418.7L383 401.7L382.5 407Z" fill="#1b1338" stroke="#adadad"></path><path d="M382.5 407L383 401.7L366.3 414.7Z" fill="#431ab1" stroke="#adadad"></path><path d="M383 401.7L351.5 398.7L366.3 414.7Z" fill="#5910e5" stroke="#adadad"></path><path d="M366.3 414.7L296.5 424.7L366.3 450Z" fill="#5910e5" stroke="#adadad"></path><path d="M389.3 448.3L423.5 423L395.3 418.7Z" fill="#1b1338" stroke="#adadad"></path><path d="M395.3 418.7L394.3 377.3L383 401.7Z" fill="#22164f" stroke="#adadad"></path><path d="M383 401.7L352.8 389.3L351.5 398.7Z" fill="#22164f" stroke="#adadad"></path><path d="M366.3 450L386 489L389.3 448.3Z" fill="#07050b" stroke="#adadad"></path><path d="M389.3 448.3L438 473.7L423.5 423Z" fill="#5910e5" stroke="#adadad"></path><path d="M432.8 403.3L394.3 377.3L395.3 418.7Z" fill="#391b98" stroke="#adadad"></path><path d="M383 401.7L394.3 377.3L352.8 389.3Z" fill="#22164f" stroke="#adadad"></path><path d="M315.8 480.7L342.5 482.3L366.3 450Z" fill="#431ab1" stroke="#adadad"></path><path d="M366.3 450L342.5 482.3L386 489Z" fill="#4d17cb" stroke="#adadad"></path><path d="M453 448.3L434 413L423.5 423Z" fill="#6600ff" stroke="#adadad"></path><path d="M423.5 423L432.8 403.3L395.3 418.7Z" fill="#5910e5" stroke="#adadad"></path><path d="M434 413L432.8 403.3L423.5 423Z" fill="#291867" stroke="#adadad"></path><path d="M386 489L438 473.7L389.3 448.3Z" fill="#5910e5" stroke="#adadad"></path><path d="M352.8 389.3L319.8 384.7L351.5 398.7Z" fill="#431ab1" stroke="#adadad"></path><path d="M296.5 424.7L315.8 480.7L366.3 450Z" fill="#431ab1" stroke="#adadad"></path><path d="M364.3 350L319.8 384.7L352.8 389.3Z" fill="#22164f" stroke="#adadad"></path><path d="M296.5 424.7L366.3 414.7L351.5 398.7Z" fill="#1b1338" stroke="#adadad"></path><path d="M374.5 527L412.8 502L386 489Z" fill="#07050b" stroke="#adadad"></path><path d="M438 473.7L453 448.3L423.5 423Z" fill="#391b98" stroke="#adadad"></path><path d="M434 413L483.3 440L432.8 403.3Z" fill="#391b98" stroke="#adadad"></path><path d="M374.5 527L386 489L342.5 482.3Z" fill="#5910e5" stroke="#adadad"></path><path d="M386 489L412.8 502L438 473.7Z" fill="#22164f" stroke="#adadad"></path><path d="M443 501.3L449.8 464.7L438 473.7Z" fill="#22164f" stroke="#adadad"></path><path d="M438 473.7L449.8 464.7L453 448.3Z" fill="#4d17cb" stroke="#adadad"></path><path d="M319.8 384.7L296.5 424.7L351.5 398.7Z" fill="#391b98" stroke="#adadad"></path><path d="M389.8 327.3L364.3 350L394.3 377.3Z" fill="#291867" stroke="#adadad"></path><path d="M394.3 377.3L364.3 350L352.8 389.3Z" fill="#391b98" stroke="#adadad"></path><path d="M493.5 370.7L435.8 371L432.8 403.3Z" fill="#291867" stroke="#adadad"></path><path d="M432.8 403.3L435.8 371L394.3 377.3Z" fill="#291867" stroke="#adadad"></path><path d="M412.8 502L438.5 497.7L438 473.7Z" fill="#22164f" stroke="#adadad"></path><path d="M363.5 540.7L374.5 527L342.5 482.3Z" fill="#5910e5" stroke="#adadad"></path><path d="M412.8 502L443 501.3L438.5 497.7Z" fill="#431ab1" stroke="#adadad"></path><path d="M427.5 540L443 501.3L412.8 502Z" fill="#391b98" stroke="#adadad"></path><path d="M438.5 497.7L443 501.3L438 473.7Z" fill="#391b98" stroke="#adadad"></path><path d="M449.8 464.7L483.3 440L453 448.3Z" fill="#391b98" stroke="#adadad"></path><path d="M422.8 335.7L389.8 327.3L394.3 377.3Z" fill="#4d17cb" stroke="#adadad"></path><path d="M284 332.7L276.8 390L319.8 384.7Z" fill="#431ab1" stroke="#adadad"></path><path d="M374.5 527L400.3 535.7L412.8 502Z" fill="#1b1338" stroke="#adadad"></path><path d="M496.3 455.3L483.3 440L449.8 464.7Z" fill="#07050b" stroke="#adadad"></path><path d="M453 448.3L483.3 440L434 413Z" fill="#4d17cb" stroke="#adadad"></path><path d="M448.5 351L422.8 335.7L435.8 371Z" fill="#391b98" stroke="#adadad"></path><path d="M435.8 371L422.8 335.7L394.3 377.3Z" fill="#311a7f" stroke="#adadad"></path><path d="M319.5 314.3L319.8 384.7L364.3 350Z" fill="#07050b" stroke="#adadad"></path><path d="M319.8 384.7L276.8 390L296.5 424.7Z" fill="#22164f" stroke="#adadad"></path><path d="M259.8 465L283 501L315.8 480.7Z" fill="#5910e5" stroke="#adadad"></path><path d="M493.5 370.7L448.5 351L435.8 371Z" fill="#6600ff" stroke="#adadad"></path><path d="M309.8 527.3L363.5 540.7L342.5 482.3Z" fill="#150e22" stroke="#adadad"></path><path d="M374.5 527L363.5 540.7L400.3 535.7Z" fill="#150e22" stroke="#adadad"></path><path d="M377 301.3L373.5 317.7L389.8 327.3Z" fill="#4d17cb" stroke="#adadad"></path><path d="M389.8 327.3L373.5 317.7L364.3 350Z" fill="#1b1338" stroke="#adadad"></path><path d="M259.8 465L315.8 480.7L296.5 424.7Z" fill="#22164f" stroke="#adadad"></path><path d="M315.8 480.7L309.8 527.3L342.5 482.3Z" fill="#5910e5" stroke="#adadad"></path><path d="M296.8 520.7L309.8 527.3L315.8 480.7Z" fill="#5910e5" stroke="#adadad"></path><path d="M283 501L296.8 520.7L315.8 480.7Z" fill="#4d17cb" stroke="#adadad"></path><path d="M445.8 560L427.5 540L413 584.3Z" fill="#5910e5" stroke="#adadad"></path><path d="M400.3 535.7L427.5 540L412.8 502Z" fill="#431ab1" stroke="#adadad"></path><path d="M486.3 506.7L496.3 455.3L449.8 464.7Z" fill="#22164f" stroke="#adadad"></path><path d="M252 447.7L259.8 465L296.5 424.7Z" fill="#6600ff" stroke="#adadad"></path><path d="M486.3 506.7L449.8 464.7L443 501.3Z" fill="#150e22" stroke="#adadad"></path><path d="M483.3 440L493.5 370.7L432.8 403.3Z" fill="#291867" stroke="#adadad"></path><path d="M373.5 317.7L352.8 312.3L364.3 350Z" fill="#5910e5" stroke="#adadad"></path><path d="M259.8 465L275.3 503.3L283 501Z" fill="#311a7f" stroke="#adadad"></path><path d="M283 501L275.3 503.3L296.8 520.7Z" fill="#22164f" stroke="#adadad"></path><path d="M245.3 436.7L252 447.7L296.5 424.7Z" fill="#07050b" stroke="#adadad"></path><path d="M259.8 465L242 477.3L275.3 503.3Z" fill="#4d17cb" stroke="#adadad"></path><path d="M377 301.3L345.3 310L352.8 312.3Z" fill="#291867" stroke="#adadad"></path><path d="M352.8 312.3L345.3 310L364.3 350Z" fill="#6600ff" stroke="#adadad"></path><path d="M248 450L249.5 449.7L252 447.7Z" fill="#291867" stroke="#adadad"></path><path d="M252 447.7L249.5 449.7L259.8 465Z" fill="#311a7f" stroke="#adadad"></path><path d="M245.3 436.7L248 450L252 447.7Z" fill="#22164f" stroke="#adadad"></path><path d="M249.5 449.7L248 450L259.8 465Z" fill="#22164f" stroke="#adadad"></path><path d="M432 301L377 301.3L389.8 327.3Z" fill="#5910e5" stroke="#adadad"></path><path d="M373.5 317.7L377 301.3L352.8 312.3Z" fill="#431ab1" stroke="#adadad"></path><path d="M432 301L389.8 327.3L422.8 335.7Z" fill="#5910e5" stroke="#adadad"></path><path d="M325.8 290L319.5 314.3L345.3 310Z" fill="#291867" stroke="#adadad"></path><path d="M345.3 310L319.5 314.3L364.3 350Z" fill="#150e22" stroke="#adadad"></path><path d="M240.5 412.3L245.3 436.7L296.5 424.7Z" fill="#150e22" stroke="#adadad"></path><path d="M240.5 412.3L296.5 424.7L276.8 390Z" fill="#431ab1" stroke="#adadad"></path><path d="M334.3 567.3L364 563.7L363.5 540.7Z" fill="#391b98" stroke="#adadad"></path><path d="M363.5 540.7L364 563.7L400.3 535.7Z" fill="#22164f" stroke="#adadad"></path><path d="M334.3 567.3L363.5 540.7L309.8 527.3Z" fill="#1b1338" stroke="#adadad"></path><path d="M509.5 391.3L493.5 370.7L483.3 440Z" fill="#311a7f" stroke="#adadad"></path><path d="M448.5 351L467.5 334.3L422.8 335.7Z" fill="#431ab1" stroke="#adadad"></path><path d="M478.8 537.7L486.3 506.7L443 501.3Z" fill="#5910e5" stroke="#adadad"></path><path d="M493.5 370.7L467.5 334.3L448.5 351Z" fill="#22164f" stroke="#adadad"></path><path d="M304 316L284 332.7L319.8 384.7Z" fill="#150e22" stroke="#adadad"></path><path d="M319.5 314.3L304 316L319.8 384.7Z" fill="#22164f" stroke="#adadad"></path><path d="M325.8 290L304 316L319.5 314.3Z" fill="#07050b" stroke="#adadad"></path><path d="M238.3 393.3L240.5 412.3L276.8 390Z" fill="#4d17cb" stroke="#adadad"></path><path d="M578 394.3L509.5 391.3L496.3 455.3Z" fill="#431ab1" stroke="#adadad"></path><path d="M496.3 455.3L509.5 391.3L483.3 440Z" fill="#150e22" stroke="#adadad"></path><path d="M493.5 370.7L497 340L467.5 334.3Z" fill="#150e22" stroke="#adadad"></path><path d="M304 316L285 325.3L284 332.7Z" fill="#6600ff" stroke="#adadad"></path><path d="M237.5 377.3L238.3 393.3L276.8 390Z" fill="#6600ff" stroke="#adadad"></path><path d="M318.5 589L309.8 527.3L273.3 587.7Z" fill="#150e22" stroke="#adadad"></path><path d="M318.5 589L334.3 567.3L309.8 527.3Z" fill="#4d17cb" stroke="#adadad"></path><path d="M229.5 476L248 450L209.8 459.7Z" fill="#6600ff" stroke="#adadad"></path><path d="M229.5 476L242 477.3L248 450Z" fill="#22164f" stroke="#adadad"></path><path d="M248 450L242 477.3L259.8 465Z" fill="#391b98" stroke="#adadad"></path><path d="M275.3 503.3L273.3 587.7L296.8 520.7Z" fill="#5910e5" stroke="#adadad"></path><path d="M467.5 334.3L432 301L422.8 335.7Z" fill="#1b1338" stroke="#adadad"></path><path d="M237.5 377.3L276.8 390L284 332.7Z" fill="#291867" stroke="#adadad"></path><path d="M209.8 459.7L248 450L245.3 436.7Z" fill="#291867" stroke="#adadad"></path><path d="M413 584.3L427.5 540L400.3 535.7Z" fill="#22164f" stroke="#adadad"></path><path d="M427.5 540L478.8 537.7L443 501.3Z" fill="#07050b" stroke="#adadad"></path><path d="M384.3 580L400.3 535.7L364 563.7Z" fill="#150e22" stroke="#adadad"></path><path d="M469.8 554.3L478.8 537.7L427.5 540Z" fill="#311a7f" stroke="#adadad"></path><path d="M346.5 584.3L384.3 580L364 563.7Z" fill="#431ab1" stroke="#adadad"></path><path d="M504.3 513.3L507 503.7L486.3 506.7Z" fill="#22164f" stroke="#adadad"></path><path d="M486.3 506.7L507 503.7L496.3 455.3Z" fill="#431ab1" stroke="#adadad"></path><path d="M231.5 374L237.5 377.3L231.3 355.3Z" fill="#1b1338" stroke="#adadad"></path><path d="M209.8 459.7L245.3 436.7L240.5 412.3Z" fill="#311a7f" stroke="#adadad"></path><path d="M328.8 258.3L325.8 290L377 301.3Z" fill="#22164f" stroke="#adadad"></path><path d="M377 301.3L325.8 290L345.3 310Z" fill="#4d17cb" stroke="#adadad"></path><path d="M304 316L279.3 311L285 325.3Z" fill="#150e22" stroke="#adadad"></path><path d="M478.8 537.7L504.3 513.3L486.3 506.7Z" fill="#150e22" stroke="#adadad"></path><path d="M504.3 334.3L497 340L534.3 350.7Z" fill="#4d17cb" stroke="#adadad"></path><path d="M467.5 334.3L448 293.7L432 301Z" fill="#5910e5" stroke="#adadad"></path><path d="M448.5 594.7L452.5 564L445.8 560Z" fill="#6600ff" stroke="#adadad"></path><path d="M445.8 560L469.8 554.3L427.5 540Z" fill="#07050b" stroke="#adadad"></path><path d="M478.8 537.7L513.3 547L504.3 513.3Z" fill="#431ab1" stroke="#adadad"></path><path d="M209.8 459.7L240.5 412.3L197.8 390.7Z" fill="#5910e5" stroke="#adadad"></path><path d="M242 477.3L232.5 492.3L275.3 503.3Z" fill="#6600ff" stroke="#adadad"></path><path d="M452.5 564L469.8 554.3L445.8 560Z" fill="#311a7f" stroke="#adadad"></path><path d="M469.8 554.3L478.5 548.3L478.8 537.7Z" fill="#1b1338" stroke="#adadad"></path><path d="M344.8 592L346.5 584.3L318.5 589Z" fill="#4d17cb" stroke="#adadad"></path><path d="M334.3 567.3L346.5 584.3L364 563.7Z" fill="#391b98" stroke="#adadad"></path><path d="M291.5 291L279.3 311L304 316Z" fill="#1b1338" stroke="#adadad"></path><path d="M285 325.3L279.3 311L284 332.7Z" fill="#07050b" stroke="#adadad"></path><path d="M473.3 308.7L448 293.7L467.5 334.3Z" fill="#6600ff" stroke="#adadad"></path><path d="M432 301L393.3 260.3L377 301.3Z" fill="#311a7f" stroke="#adadad"></path><path d="M229.5 476L232.5 492.3L242 477.3Z" fill="#391b98" stroke="#adadad"></path><path d="M403 605L413 584.3L384.3 580Z" fill="#5910e5" stroke="#adadad"></path><path d="M384.3 580L413 584.3L400.3 535.7Z" fill="#1b1338" stroke="#adadad"></path><path d="M231.3 355.3L237.5 377.3L284 332.7Z" fill="#22164f" stroke="#adadad"></path><path d="M237.5 377.3L231.5 374L238.3 393.3Z" fill="#1b1338" stroke="#adadad"></path><path d="M497 340L473.3 308.7L467.5 334.3Z" fill="#431ab1" stroke="#adadad"></path><path d="M534.3 350.7L497 340L493.5 370.7Z" fill="#311a7f" stroke="#adadad"></path><path d="M497 340L504.3 334.3L473.3 308.7Z" fill="#311a7f" stroke="#adadad"></path><path d="M318.5 589L346.5 584.3L334.3 567.3Z" fill="#07050b" stroke="#adadad"></path><path d="M346.5 584.3L344.8 592L384.3 580Z" fill="#6600ff" stroke="#adadad"></path><path d="M229.5 476L225 493.3L232.5 492.3Z" fill="#1b1338" stroke="#adadad"></path><path d="M237 590.7L273.3 587.7L275.3 503.3Z" fill="#1b1338" stroke="#adadad"></path><path d="M191.8 489L225 493.3L229.5 476Z" fill="#6600ff" stroke="#adadad"></path><path d="M234.3 329.7L231.3 355.3L284 332.7Z" fill="#6600ff" stroke="#adadad"></path><path d="M197.8 390.7L240.5 412.3L238.3 393.3Z" fill="#5910e5" stroke="#adadad"></path><path d="M325.8 290L291.5 291L304 316Z" fill="#1b1338" stroke="#adadad"></path><path d="M279.3 311L234.3 329.7L284 332.7Z" fill="#391b98" stroke="#adadad"></path><path d="M273.3 587.7L309.8 527.3L296.8 520.7Z" fill="#5910e5" stroke="#adadad"></path><path d="M211.5 380.7L238.3 393.3L231.5 374Z" fill="#391b98" stroke="#adadad"></path><path d="M469.8 554.3L486.3 561.7L478.5 548.3Z" fill="#07050b" stroke="#adadad"></path><path d="M478.5 548.3L513.3 547L478.8 537.7Z" fill="#291867" stroke="#adadad"></path><path d="M452.5 564L486.3 561.7L469.8 554.3Z" fill="#431ab1" stroke="#adadad"></path><path d="M448.5 594.7L486.3 561.7L452.5 564Z" fill="#5910e5" stroke="#adadad"></path><path d="M446.8 256L432 301L448 293.7Z" fill="#291867" stroke="#adadad"></path><path d="M446.8 256L393.3 260.3L432 301Z" fill="#291867" stroke="#adadad"></path><path d="M291 267.3L289 268.7L291.5 291Z" fill="#391b98" stroke="#adadad"></path><path d="M205.8 365.3L211.5 380.7L231.5 374Z" fill="#291867" stroke="#adadad"></path><path d="M342.8 620.3L403 605L384.3 580Z" fill="#291867" stroke="#adadad"></path><path d="M413 584.3L448.5 594.7L445.8 560Z" fill="#6600ff" stroke="#adadad"></path><path d="M342.8 620.3L384.3 580L344.8 592Z" fill="#431ab1" stroke="#adadad"></path><path d="M235.5 285.7L234.3 329.7L279.3 311Z" fill="#5910e5" stroke="#adadad"></path><path d="M205.8 365.3L204.3 376L211.5 380.7Z" fill="#07050b" stroke="#adadad"></path><path d="M403 605L448.5 594.7L413 584.3Z" fill="#311a7f" stroke="#adadad"></path><path d="M571.5 363L534.3 350.7L509.5 391.3Z" fill="#07050b" stroke="#adadad"></path><path d="M509.5 391.3L534.3 350.7L493.5 370.7Z" fill="#391b98" stroke="#adadad"></path><path d="M504.3 334.3L497.3 282.3L473.3 308.7Z" fill="#22164f" stroke="#adadad"></path><path d="M503.3 570L513.3 547L486.3 561.7Z" fill="#311a7f" stroke="#adadad"></path><path d="M486.3 561.7L513.3 547L478.5 548.3Z" fill="#5910e5" stroke="#adadad"></path><path d="M559 522.7L559 499L507 503.7Z" fill="#6600ff" stroke="#adadad"></path><path d="M507 503.7L559 499L496.3 455.3Z" fill="#6600ff" stroke="#adadad"></path><path d="M393.3 260.3L328.8 258.3L377 301.3Z" fill="#311a7f" stroke="#adadad"></path><path d="M291.5 291L235.5 285.7L279.3 311Z" fill="#311a7f" stroke="#adadad"></path><path d="M205.8 365.3L231.5 374L231.3 355.3Z" fill="#311a7f" stroke="#adadad"></path><path d="M211.5 380.7L197.8 390.7L238.3 393.3Z" fill="#431ab1" stroke="#adadad"></path><path d="M534.3 350.7L531.3 335L504.3 334.3Z" fill="#07050b" stroke="#adadad"></path><path d="M472.5 256.7L446.8 256L448 293.7Z" fill="#291867" stroke="#adadad"></path><path d="M234.3 329.7L205.8 365.3L231.3 355.3Z" fill="#22164f" stroke="#adadad"></path><path d="M167 347.3L197.8 390.7L204.3 376Z" fill="#311a7f" stroke="#adadad"></path><path d="M204.3 376L197.8 390.7L211.5 380.7Z" fill="#431ab1" stroke="#adadad"></path><path d="M291 267.3L291.5 291L325.8 290Z" fill="#4d17cb" stroke="#adadad"></path><path d="M328.8 258.3L291 267.3L325.8 290Z" fill="#291867" stroke="#adadad"></path><path d="M201.3 538L275.3 503.3L232.5 492.3Z" fill="#07050b" stroke="#adadad"></path><path d="M318.5 589L342.8 620.3L344.8 592Z" fill="#07050b" stroke="#adadad"></path><path d="M470.3 623.3L503.3 570L486.3 561.7Z" fill="#1b1338" stroke="#adadad"></path><path d="M497.3 282.3L448 293.7L473.3 308.7Z" fill="#07050b" stroke="#adadad"></path><path d="M324.8 241L322.8 247.7L328.8 258.3Z" fill="#291867" stroke="#adadad"></path><path d="M303 647.3L342.8 620.3L318.5 589Z" fill="#4d17cb" stroke="#adadad"></path><path d="M403 605L440 624.7L448.5 594.7Z" fill="#391b98" stroke="#adadad"></path><path d="M324.8 241L328.8 258.3L354.5 227Z" fill="#07050b" stroke="#adadad"></path><path d="M328.8 258.3L322.8 247.7L291 267.3Z" fill="#4d17cb" stroke="#adadad"></path><path d="M521.8 284.3L497.3 282.3L504.3 334.3Z" fill="#431ab1" stroke="#adadad"></path><path d="M209.8 459.7L191.8 489L229.5 476Z" fill="#1b1338" stroke="#adadad"></path><path d="M225 493.3L201.3 538L232.5 492.3Z" fill="#22164f" stroke="#adadad"></path><path d="M136 476.3L191.8 489L209.8 459.7Z" fill="#150e22" stroke="#adadad"></path><path d="M559 522.7L504.3 513.3L513.3 547Z" fill="#22164f" stroke="#adadad"></path><path d="M559 522.7L507 503.7L504.3 513.3Z" fill="#07050b" stroke="#adadad"></path><path d="M354.5 227L328.8 258.3L393.3 260.3Z" fill="#291867" stroke="#adadad"></path><path d="M322.8 247.7L272.3 246.3L291 267.3Z" fill="#4d17cb" stroke="#adadad"></path><path d="M272.3 246.3L235.5 285.7L289 268.7Z" fill="#150e22" stroke="#adadad"></path><path d="M454.5 239.3L422.8 237.7L446.8 256Z" fill="#311a7f" stroke="#adadad"></path><path d="M446.8 256L422.8 237.7L393.3 260.3Z" fill="#311a7f" stroke="#adadad"></path><path d="M497.3 282.3L472.5 256.7L448 293.7Z" fill="#291867" stroke="#adadad"></path><path d="M408.3 666.7L440 624.7L403 605Z" fill="#291867" stroke="#adadad"></path><path d="M448.5 594.7L470.3 623.3L486.3 561.7Z" fill="#6600ff" stroke="#adadad"></path><path d="M272.3 246.3L289 268.7L291 267.3Z" fill="#1b1338" stroke="#adadad"></path><path d="M289 268.7L235.5 285.7L291.5 291Z" fill="#6600ff" stroke="#adadad"></path><path d="M234.3 329.7L167 347.3L205.8 365.3Z" fill="#150e22" stroke="#adadad"></path><path d="M540 573.3L559 522.7L513.3 547Z" fill="#07050b" stroke="#adadad"></path><path d="M540 573.3L513.3 547L503.3 570Z" fill="#07050b" stroke="#adadad"></path><path d="M191.8 489L201.3 538L225 493.3Z" fill="#6600ff" stroke="#adadad"></path><path d="M581.5 388.3L578 394.3L582 389.7Z" fill="#4d17cb" stroke="#adadad"></path><path d="M597.5 418.7L578 394.3L599.8 434.3Z" fill="#431ab1" stroke="#adadad"></path><path d="M534.3 350.7L584 341.3L531.3 335Z" fill="#431ab1" stroke="#adadad"></path><path d="M531.3 335L521.8 284.3L504.3 334.3Z" fill="#22164f" stroke="#adadad"></path><path d="M387.3 216.7L354.5 227L393.3 260.3Z" fill="#07050b" stroke="#adadad"></path><path d="M578 394.3L571.5 363L509.5 391.3Z" fill="#07050b" stroke="#adadad"></path><path d="M588.8 296L521.8 284.3L531.3 335Z" fill="#5910e5" stroke="#adadad"></path><path d="M497.3 282.3L497 242.3L472.5 256.7Z" fill="#07050b" stroke="#adadad"></path><path d="M497 242.3L454.5 239.3L472.5 256.7Z" fill="#6600ff" stroke="#adadad"></path><path d="M472.5 256.7L454.5 239.3L446.8 256Z" fill="#311a7f" stroke="#adadad"></path><path d="M422.8 237.7L387.3 216.7L393.3 260.3Z" fill="#22164f" stroke="#adadad"></path><path d="M582 389.7L578 394.3L598.8 401Z" fill="#291867" stroke="#adadad"></path><path d="M578 394.3L581.5 388.3L571.5 363Z" fill="#22164f" stroke="#adadad"></path><path d="M578 394.3L496.3 455.3L599.8 434.3Z" fill="#4d17cb" stroke="#adadad"></path><path d="M201.3 538L237 590.7L275.3 503.3Z" fill="#391b98" stroke="#adadad"></path><path d="M273.3 587.7L277 620L318.5 589Z" fill="#311a7f" stroke="#adadad"></path><path d="M440 624.7L463.8 625.3L448.5 594.7Z" fill="#1b1338" stroke="#adadad"></path><path d="M237 590.7L277 620L273.3 587.7Z" fill="#6600ff" stroke="#adadad"></path><path d="M342.8 620.3L366 654L403 605Z" fill="#311a7f" stroke="#adadad"></path><path d="M320.5 207.3L335.3 223.7L356 184.3Z" fill="#22164f" stroke="#adadad"></path><path d="M354.5 227L335.3 223.7L324.8 241Z" fill="#431ab1" stroke="#adadad"></path><path d="M324.8 241L272.3 246.3L322.8 247.7Z" fill="#431ab1" stroke="#adadad"></path><path d="M463.8 625.3L470.3 623.3L448.5 594.7Z" fill="#5910e5" stroke="#adadad"></path><path d="M287.3 200.7L272.3 246.3L324.8 241Z" fill="#22164f" stroke="#adadad"></path><path d="M201.3 538L229.5 589.7L237 590.7Z" fill="#5910e5" stroke="#adadad"></path><path d="M241.3 650.3L260.3 647.7L277 620Z" fill="#07050b" stroke="#adadad"></path><path d="M518 626.3L540 573.3L503.3 570Z" fill="#291867" stroke="#adadad"></path><path d="M398.8 212.7L387.3 216.7L422.8 237.7Z" fill="#07050b" stroke="#adadad"></path><path d="M413.8 210.3L398.8 212.7L422.8 237.7Z" fill="#311a7f" stroke="#adadad"></path><path d="M356 184.3L335.3 223.7L354.5 227Z" fill="#150e22" stroke="#adadad"></path><path d="M598.8 401L589 372L582 389.7Z" fill="#431ab1" stroke="#adadad"></path><path d="M582 389.7L589 372L581.5 388.3Z" fill="#5910e5" stroke="#adadad"></path><path d="M581.5 388.3L589 372L571.5 363Z" fill="#6600ff" stroke="#adadad"></path><path d="M571.5 363L584 341.3L534.3 350.7Z" fill="#291867" stroke="#adadad"></path><path d="M599.8 434.3L496.3 455.3L559 499Z" fill="#22164f" stroke="#adadad"></path><path d="M336.5 665L366 654L342.8 620.3Z" fill="#22164f" stroke="#adadad"></path><path d="M440 624.7L411.3 672.3L463.8 625.3Z" fill="#22164f" stroke="#adadad"></path><path d="M136 476.3L173 522.3L191.8 489Z" fill="#311a7f" stroke="#adadad"></path><path d="M191.8 489L173 522.3L201.3 538Z" fill="#1b1338" stroke="#adadad"></path><path d="M201.3 538L187.8 594.7L229.5 589.7Z" fill="#291867" stroke="#adadad"></path><path d="M607.3 440.3L599.8 434.3L607.3 488Z" fill="#391b98" stroke="#adadad"></path><path d="M594.8 519L559 499L559 522.7Z" fill="#311a7f" stroke="#adadad"></path><path d="M597.5 418.7L598.8 401L578 394.3Z" fill="#291867" stroke="#adadad"></path><path d="M608.8 437.7L598.8 401L597.5 418.7Z" fill="#5910e5" stroke="#adadad"></path><path d="M173 522.3L178 537L201.3 538Z" fill="#431ab1" stroke="#adadad"></path><path d="M521.8 284.3L497 242.3L497.3 282.3Z" fill="#150e22" stroke="#adadad"></path><path d="M447 192L413.8 210.3L422.8 237.7Z" fill="#4d17cb" stroke="#adadad"></path><path d="M528.8 218.3L497 242.3L521.8 284.3Z" fill="#1b1338" stroke="#adadad"></path><path d="M447 192L422.8 237.7L454.5 239.3Z" fill="#22164f" stroke="#adadad"></path><path d="M205.8 365.3L167 347.3L204.3 376Z" fill="#291867" stroke="#adadad"></path><path d="M197.8 390.7L144.3 408.3L209.8 459.7Z" fill="#07050b" stroke="#adadad"></path><path d="M178 282.7L167 347.3L234.3 329.7Z" fill="#391b98" stroke="#adadad"></path><path d="M178 282.7L234.3 329.7L235.5 285.7Z" fill="#22164f" stroke="#adadad"></path><path d="M593.8 367.7L571.5 363L589 372Z" fill="#291867" stroke="#adadad"></path><path d="M593.8 367.7L584 341.3L571.5 363Z" fill="#311a7f" stroke="#adadad"></path><path d="M598.8 401L593.8 367.7L589 372Z" fill="#5910e5" stroke="#adadad"></path><path d="M301.8 647.7L303 647.3L277 620Z" fill="#1b1338" stroke="#adadad"></path><path d="M277 620L303 647.3L318.5 589Z" fill="#150e22" stroke="#adadad"></path><path d="M260.3 647.7L301.8 647.7L277 620Z" fill="#5910e5" stroke="#adadad"></path><path d="M303 647.3L336.5 665L342.8 620.3Z" fill="#291867" stroke="#adadad"></path><path d="M540 573.3L582.5 532.3L559 522.7Z" fill="#22164f" stroke="#adadad"></path><path d="M607.3 488L599.8 434.3L559 499Z" fill="#150e22" stroke="#adadad"></path><path d="M599.8 434.3L608.8 437.7L597.5 418.7Z" fill="#6600ff" stroke="#adadad"></path><path d="M631.3 364L594.5 329.3L593.8 367.7Z" fill="#311a7f" stroke="#adadad"></path><path d="M356 184.3L354.5 227L387.3 216.7Z" fill="#6600ff" stroke="#adadad"></path><path d="M335.3 223.7L320.5 207.3L324.8 241Z" fill="#431ab1" stroke="#adadad"></path><path d="M356 184.3L387.3 216.7L398.8 212.7Z" fill="#6600ff" stroke="#adadad"></path><path d="M675 473.7L608.8 437.7L607.3 440.3Z" fill="#431ab1" stroke="#adadad"></path><path d="M607.3 440.3L608.8 437.7L599.8 434.3Z" fill="#291867" stroke="#adadad"></path><path d="M167 347.3L144.3 408.3L197.8 390.7Z" fill="#6600ff" stroke="#adadad"></path><path d="M582.5 532.3L594.8 519L559 522.7Z" fill="#150e22" stroke="#adadad"></path><path d="M301.8 647.7L336.5 665L303 647.3Z" fill="#5910e5" stroke="#adadad"></path><path d="M366 654L408.3 666.7L403 605Z" fill="#4d17cb" stroke="#adadad"></path><path d="M515.3 642.7L518 626.3L470.3 623.3Z" fill="#4d17cb" stroke="#adadad"></path><path d="M411.3 672.3L408.3 666.7L392.3 692Z" fill="#311a7f" stroke="#adadad"></path><path d="M560.5 615.7L558 584L540 573.3Z" fill="#5910e5" stroke="#adadad"></path><path d="M540 573.3L558 584L582.5 532.3Z" fill="#431ab1" stroke="#adadad"></path><path d="M582.5 532.3L601.3 529.3L594.8 519Z" fill="#4d17cb" stroke="#adadad"></path><path d="M518 626.3L503.3 570L470.3 623.3Z" fill="#311a7f" stroke="#adadad"></path><path d="M594.8 519L607.3 488L559 499Z" fill="#07050b" stroke="#adadad"></path><path d="M167 347.3L140 407L144.3 408.3Z" fill="#5910e5" stroke="#adadad"></path><path d="M127.8 446L136 476.3L209.8 459.7Z" fill="#391b98" stroke="#adadad"></path><path d="M515.3 642.7L470.3 623.3L498 661.7Z" fill="#1b1338" stroke="#adadad"></path><path d="M593.8 367.7L594.5 329.3L584 341.3Z" fill="#1b1338" stroke="#adadad"></path><path d="M584 341.3L588.8 296L531.3 335Z" fill="#07050b" stroke="#adadad"></path><path d="M631.3 364L593.8 367.7L598.8 401Z" fill="#22164f" stroke="#adadad"></path><path d="M287.3 200.7L243.5 230.3L272.3 246.3Z" fill="#22164f" stroke="#adadad"></path><path d="M272.3 246.3L224 244L235.5 285.7Z" fill="#431ab1" stroke="#adadad"></path><path d="M243.5 230.3L224 244L272.3 246.3Z" fill="#150e22" stroke="#adadad"></path><path d="M366.5 683.7L408.3 666.7L366 654Z" fill="#4d17cb" stroke="#adadad"></path><path d="M408.3 666.7L411.3 672.3L440 624.7Z" fill="#391b98" stroke="#adadad"></path><path d="M127.8 446L209.8 459.7L144.3 408.3Z" fill="#22164f" stroke="#adadad"></path><path d="M149.8 544.3L170.8 569L178 537Z" fill="#391b98" stroke="#adadad"></path><path d="M241.3 650.3L277 620L237 590.7Z" fill="#1b1338" stroke="#adadad"></path><path d="M301.8 647.7L287.8 700L336.5 665Z" fill="#311a7f" stroke="#adadad"></path><path d="M241.3 650.3L237 590.7L205.8 632.7Z" fill="#6600ff" stroke="#adadad"></path><path d="M601.5 541L601.3 529.3L582.5 532.3Z" fill="#22164f" stroke="#adadad"></path><path d="M594.8 519L616.8 488.3L607.3 488Z" fill="#4d17cb" stroke="#adadad"></path><path d="M632.3 515.7L616.8 488.3L594.8 519Z" fill="#311a7f" stroke="#adadad"></path><path d="M607.3 488L616.8 488.3L607.3 440.3Z" fill="#431ab1" stroke="#adadad"></path><path d="M654.5 385.7L631.3 364L598.8 401Z" fill="#291867" stroke="#adadad"></path><path d="M149.8 544.3L178 537L173 522.3Z" fill="#431ab1" stroke="#adadad"></path><path d="M178 537L170.8 569L201.3 538Z" fill="#07050b" stroke="#adadad"></path><path d="M326.3 173L287.3 200.7L320.5 207.3Z" fill="#5910e5" stroke="#adadad"></path><path d="M320.5 207.3L287.3 200.7L324.8 241Z" fill="#391b98" stroke="#adadad"></path><path d="M224 244L178 282.7L235.5 285.7Z" fill="#22164f" stroke="#adadad"></path><path d="M92.5 392.7L117.8 431.3L140 407Z" fill="#07050b" stroke="#adadad"></path><path d="M411 161.7L398.8 212.7L413.8 210.3Z" fill="#07050b" stroke="#adadad"></path><path d="M402 155.3L356 184.3L398.8 212.7Z" fill="#391b98" stroke="#adadad"></path><path d="M170.8 569L187.8 594.7L201.3 538Z" fill="#07050b" stroke="#adadad"></path><path d="M117.8 431.3L127.8 446L144.3 408.3Z" fill="#150e22" stroke="#adadad"></path><path d="M117.8 431.3L144.3 408.3L140 407Z" fill="#291867" stroke="#adadad"></path><path d="M558 584L601.5 541L582.5 532.3Z" fill="#291867" stroke="#adadad"></path><path d="M601.3 529.3L632.3 515.7L594.8 519Z" fill="#5910e5" stroke="#adadad"></path><path d="M616.8 570.7L601.5 541L558 584Z" fill="#150e22" stroke="#adadad"></path><path d="M478.3 198.7L454.5 239.3L497 242.3Z" fill="#4d17cb" stroke="#adadad"></path><path d="M478.3 198.7L447 192L454.5 239.3Z" fill="#150e22" stroke="#adadad"></path><path d="M218.3 236.7L217.8 237.3L224 244Z" fill="#311a7f" stroke="#adadad"></path><path d="M224 244L213.8 238.7L178 282.7Z" fill="#1b1338" stroke="#adadad"></path><path d="M218.3 236.7L224 244L243.5 230.3Z" fill="#1b1338" stroke="#adadad"></path><path d="M356.5 683.3L366 654L336.5 665Z" fill="#431ab1" stroke="#adadad"></path><path d="M356.5 683.3L366.5 683.7L366 654Z" fill="#431ab1" stroke="#adadad"></path><path d="M248.3 201L218.3 236.7L243.5 230.3Z" fill="#6600ff" stroke="#adadad"></path><path d="M217.8 237.3L213.8 238.7L224 244Z" fill="#6600ff" stroke="#adadad"></path><path d="M313.8 715.7L356.5 683.3L336.5 665Z" fill="#391b98" stroke="#adadad"></path><path d="M498 661.7L470.3 623.3L463.8 625.3Z" fill="#291867" stroke="#adadad"></path><path d="M518 626.3L560.5 615.7L540 573.3Z" fill="#311a7f" stroke="#adadad"></path><path d="M594.5 329.3L588.8 296L584 341.3Z" fill="#4d17cb" stroke="#adadad"></path><path d="M131 510.7L149.8 544.3L173 522.3Z" fill="#6600ff" stroke="#adadad"></path><path d="M160.5 613L205.8 632.7L187.8 594.7Z" fill="#22164f" stroke="#adadad"></path><path d="M131 510.7L173 522.3L136 476.3Z" fill="#391b98" stroke="#adadad"></path><path d="M181.8 169L213.8 238.7L218.3 236.7Z" fill="#291867" stroke="#adadad"></path><path d="M218.3 236.7L213.8 238.7L217.8 237.3Z" fill="#291867" stroke="#adadad"></path><path d="M594.5 329.3L589.8 295.7L588.8 296Z" fill="#150e22" stroke="#adadad"></path><path d="M548 218.7L528.8 218.3L521.8 284.3Z" fill="#291867" stroke="#adadad"></path><path d="M498 661.7L517.5 644.3L515.3 642.7Z" fill="#6600ff" stroke="#adadad"></path><path d="M515.3 642.7L517.5 644.3L518 626.3Z" fill="#391b98" stroke="#adadad"></path><path d="M519.5 196L478.3 198.7L497 242.3Z" fill="#150e22" stroke="#adadad"></path><path d="M205.8 632.7L237 590.7L229.5 589.7Z" fill="#291867" stroke="#adadad"></path><path d="M260.3 647.7L287.8 700L301.8 647.7Z" fill="#150e22" stroke="#adadad"></path><path d="M95.3 472.7L131 510.7L136 476.3Z" fill="#07050b" stroke="#adadad"></path><path d="M205.8 632.7L240 651.7L241.3 650.3Z" fill="#150e22" stroke="#adadad"></path><path d="M241.3 650.3L240 651.7L260.3 647.7Z" fill="#1b1338" stroke="#adadad"></path><path d="M116.3 350L140 407L167 347.3Z" fill="#1b1338" stroke="#adadad"></path><path d="M127.8 446L95.3 472.7L136 476.3Z" fill="#22164f" stroke="#adadad"></path><path d="M411.3 672.3L498 661.7L463.8 625.3Z" fill="#22164f" stroke="#adadad"></path><path d="M459.8 723.3L498 661.7L411.3 672.3Z" fill="#291867" stroke="#adadad"></path><path d="M563.8 620L518 626.3L517.5 644.3Z" fill="#5910e5" stroke="#adadad"></path><path d="M563.8 620L560.5 615.7L518 626.3Z" fill="#1b1338" stroke="#adadad"></path><path d="M400.8 704L392.3 692L391.3 734.7Z" fill="#1b1338" stroke="#adadad"></path><path d="M366.5 683.7L392.3 692L408.3 666.7Z" fill="#391b98" stroke="#adadad"></path><path d="M138 310L140 320.7L178 282.7Z" fill="#291867" stroke="#adadad"></path><path d="M178 282.7L140 320.7L167 347.3Z" fill="#150e22" stroke="#adadad"></path><path d="M392.3 692L400.8 693.7L411.3 672.3Z" fill="#22164f" stroke="#adadad"></path><path d="M548 218.7L521.8 284.3L588.8 296Z" fill="#1b1338" stroke="#adadad"></path><path d="M187.8 594.7L205.8 632.7L229.5 589.7Z" fill="#291867" stroke="#adadad"></path><path d="M164 601.3L187.8 594.7L170.8 569Z" fill="#07050b" stroke="#adadad"></path><path d="M654.5 385.7L598.8 401L608.8 437.7Z" fill="#150e22" stroke="#adadad"></path><path d="M594.5 329.3L641.5 310L589.8 295.7Z" fill="#291867" stroke="#adadad"></path><path d="M331.5 130.7L326.3 173L356 184.3Z" fill="#07050b" stroke="#adadad"></path><path d="M356 184.3L326.3 173L320.5 207.3Z" fill="#150e22" stroke="#adadad"></path><path d="M287.3 200.7L248.3 201L243.5 230.3Z" fill="#391b98" stroke="#adadad"></path><path d="M248 197.7L248.3 201L287.3 200.7Z" fill="#291867" stroke="#adadad"></path><path d="M588.8 623.3L608.8 656L592.3 624.7Z" fill="#291867" stroke="#adadad"></path><path d="M560.5 615.7L588.8 623.3L558 584Z" fill="#5910e5" stroke="#adadad"></path><path d="M272.3 164.3L248 197.7L287.3 200.7Z" fill="#1b1338" stroke="#adadad"></path><path d="M248.3 201L232.5 179L218.3 236.7Z" fill="#22164f" stroke="#adadad"></path><path d="M131.8 309L138 310L122.3 277.3Z" fill="#311a7f" stroke="#adadad"></path><path d="M179.5 249L178 282.7L213.8 238.7Z" fill="#150e22" stroke="#adadad"></path><path d="M140 320.7L121.3 336.7L167 347.3Z" fill="#5910e5" stroke="#adadad"></path><path d="M616.8 570.7L632.3 515.7L601.5 541Z" fill="#150e22" stroke="#adadad"></path><path d="M601.5 541L632.3 515.7L601.3 529.3Z" fill="#6600ff" stroke="#adadad"></path><path d="M675 414L654.5 385.7L608.8 437.7Z" fill="#311a7f" stroke="#adadad"></path><path d="M181.8 169L179.5 249L213.8 238.7Z" fill="#07050b" stroke="#adadad"></path><path d="M160.5 613L164 601.3L138 608Z" fill="#311a7f" stroke="#adadad"></path><path d="M123.3 572.7L164 601.3L170.8 569Z" fill="#311a7f" stroke="#adadad"></path><path d="M131.8 309L121.3 336.7L140 320.7Z" fill="#311a7f" stroke="#adadad"></path><path d="M391.3 734.7L392.3 692L366.5 683.7Z" fill="#431ab1" stroke="#adadad"></path><path d="M392.3 692L400.8 704L400.8 693.7Z" fill="#431ab1" stroke="#adadad"></path><path d="M400.8 693.7L422.3 722.3L411.3 672.3Z" fill="#391b98" stroke="#adadad"></path><path d="M391.3 734.7L366.5 683.7L356.5 683.3Z" fill="#431ab1" stroke="#adadad"></path><path d="M438.8 161L411 161.7L447 192Z" fill="#311a7f" stroke="#adadad"></path><path d="M447 192L411 161.7L413.8 210.3Z" fill="#311a7f" stroke="#adadad"></path><path d="M438.8 161L447 192L478.3 198.7Z" fill="#4d17cb" stroke="#adadad"></path><path d="M121.3 336.7L116.3 350L167 347.3Z" fill="#5910e5" stroke="#adadad"></path><path d="M548 218.7L588.8 296L577.5 218.3Z" fill="#1b1338" stroke="#adadad"></path><path d="M566.8 213L548 218.7L577.5 218.3Z" fill="#1b1338" stroke="#adadad"></path><path d="M528.8 218.3L519.5 196L497 242.3Z" fill="#1b1338" stroke="#adadad"></path><path d="M122.3 277.3L138 310L178 282.7Z" fill="#5910e5" stroke="#adadad"></path><path d="M138 310L131.8 309L140 320.7Z" fill="#07050b" stroke="#adadad"></path><path d="M548 218.7L519.5 196L528.8 218.3Z" fill="#431ab1" stroke="#adadad"></path><path d="M613.5 610L616.8 570.7L558 584Z" fill="#1b1338" stroke="#adadad"></path><path d="M426 140L402 155.3L411 161.7Z" fill="#431ab1" stroke="#adadad"></path><path d="M411 161.7L402 155.3L398.8 212.7Z" fill="#391b98" stroke="#adadad"></path><path d="M497.5 180.7L438.8 161L478.3 198.7Z" fill="#4d17cb" stroke="#adadad"></path><path d="M506.3 182.3L497.5 180.7L478.3 198.7Z" fill="#291867" stroke="#adadad"></path><path d="M123.3 572.7L170.8 569L149.8 544.3Z" fill="#391b98" stroke="#adadad"></path><path d="M164 601.3L160.5 613L187.8 594.7Z" fill="#431ab1" stroke="#adadad"></path><path d="M219.5 688.3L287.8 700L240 651.7Z" fill="#431ab1" stroke="#adadad"></path><path d="M524.3 176L506.3 182.3L519.5 196Z" fill="#391b98" stroke="#adadad"></path><path d="M519.5 196L506.3 182.3L478.3 198.7Z" fill="#291867" stroke="#adadad"></path><path d="M444.5 124.3L426 140L438.8 161Z" fill="#1b1338" stroke="#adadad"></path><path d="M675 414L608.8 437.7L687.3 445.7Z" fill="#5910e5" stroke="#adadad"></path><path d="M631.3 364L641.5 310L594.5 329.3Z" fill="#07050b" stroke="#adadad"></path><path d="M188.3 648L240 651.7L205.8 632.7Z" fill="#311a7f" stroke="#adadad"></path><path d="M240 651.7L287.8 700L260.3 647.7Z" fill="#311a7f" stroke="#adadad"></path><path d="M654.5 385.7L653.3 369.3L631.3 364Z" fill="#07050b" stroke="#adadad"></path><path d="M84.8 449L127.8 446L117.8 431.3Z" fill="#1b1338" stroke="#adadad"></path><path d="M84.8 449L95.3 472.7L127.8 446Z" fill="#391b98" stroke="#adadad"></path><path d="M131 510.7L123.3 572.7L149.8 544.3Z" fill="#311a7f" stroke="#adadad"></path><path d="M588.8 623.3L563.8 620L608.8 656Z" fill="#6600ff" stroke="#adadad"></path><path d="M563.8 620L588.8 623.3L560.5 615.7Z" fill="#431ab1" stroke="#adadad"></path><path d="M563.8 620L517.5 644.3L522.8 681.7Z" fill="#291867" stroke="#adadad"></path><path d="M160.5 613L188.3 648L205.8 632.7Z" fill="#07050b" stroke="#adadad"></path><path d="M82.3 360.3L92.5 392.7L116.3 350Z" fill="#6600ff" stroke="#adadad"></path><path d="M116.3 350L92.5 392.7L140 407Z" fill="#6600ff" stroke="#adadad"></path><path d="M82.3 360.3L116.3 350L81.3 324Z" fill="#311a7f" stroke="#adadad"></path><path d="M326.3 173L272.3 164.3L287.3 200.7Z" fill="#5910e5" stroke="#adadad"></path><path d="M248 197.7L232.5 179L248.3 201Z" fill="#391b98" stroke="#adadad"></path><path d="M269.3 151L272.3 164.3L310.8 132.7Z" fill="#5910e5" stroke="#adadad"></path><path d="M522.8 681.7L517.5 644.3L498 661.7Z" fill="#5910e5" stroke="#adadad"></path><path d="M588.8 623.3L613.5 610L558 584Z" fill="#150e22" stroke="#adadad"></path><path d="M506.5 701.7L522.8 681.7L498 661.7Z" fill="#391b98" stroke="#adadad"></path><path d="M104.5 590.3L123.3 572.7L56.3 563.3Z" fill="#150e22" stroke="#adadad"></path><path d="M160.5 613L154.5 643.3L188.3 648Z" fill="#4d17cb" stroke="#adadad"></path><path d="M313.8 748.3L313.8 715.7L291.5 752.3Z" fill="#431ab1" stroke="#adadad"></path><path d="M287.8 700L313.8 715.7L336.5 665Z" fill="#6600ff" stroke="#adadad"></path><path d="M577.5 218.3L588.8 296L589.8 295.7Z" fill="#5910e5" stroke="#adadad"></path><path d="M548 218.7L562.8 207.7L519.5 196Z" fill="#5910e5" stroke="#adadad"></path><path d="M272.3 164.3L232.5 179L248 197.7Z" fill="#311a7f" stroke="#adadad"></path><path d="M179.5 249L122.3 277.3L178 282.7Z" fill="#4d17cb" stroke="#adadad"></path><path d="M566.8 213L562.8 207.7L548 218.7Z" fill="#150e22" stroke="#adadad"></path><path d="M656.3 327.7L641.5 310L631.3 364Z" fill="#4d17cb" stroke="#adadad"></path><path d="M566.8 213L577.5 218.3L562.8 207.7Z" fill="#1b1338" stroke="#adadad"></path><path d="M75.5 412.3L84.8 449L117.8 431.3Z" fill="#431ab1" stroke="#adadad"></path><path d="M104.5 590.3L118 585.7L123.3 572.7Z" fill="#291867" stroke="#adadad"></path><path d="M598.3 215L577.5 218.3L589.8 295.7Z" fill="#22164f" stroke="#adadad"></path><path d="M391.3 734.7L422.3 722.3L400.8 704Z" fill="#311a7f" stroke="#adadad"></path><path d="M400.8 704L422.3 722.3L400.8 693.7Z" fill="#391b98" stroke="#adadad"></path><path d="M562.8 207.7L524.3 176L519.5 196Z" fill="#5910e5" stroke="#adadad"></path><path d="M506.3 182.3L524.3 176L497.5 180.7Z" fill="#391b98" stroke="#adadad"></path><path d="M557 169L524.3 176L562.8 207.7Z" fill="#311a7f" stroke="#adadad"></path><path d="M619.5 607.3L613.5 610L608.8 656Z" fill="#391b98" stroke="#adadad"></path><path d="M592.3 624.7L613.5 610L588.8 623.3Z" fill="#150e22" stroke="#adadad"></path><path d="M675 547.7L675 509.3L632.3 515.7Z" fill="#1b1338" stroke="#adadad"></path><path d="M123.3 572.7L138 608L164 601.3Z" fill="#6600ff" stroke="#adadad"></path><path d="M444.5 124.3L438.8 161L457.5 124Z" fill="#6600ff" stroke="#adadad"></path><path d="M438.8 161L426 140L411 161.7Z" fill="#1b1338" stroke="#adadad"></path><path d="M310.8 132.7L272.3 164.3L326.3 173Z" fill="#291867" stroke="#adadad"></path><path d="M117.5 236L122.3 277.3L179.5 249Z" fill="#150e22" stroke="#adadad"></path><path d="M131.8 309L81.3 324L121.3 336.7Z" fill="#291867" stroke="#adadad"></path><path d="M653.3 369.3L656.3 327.7L631.3 364Z" fill="#391b98" stroke="#adadad"></path><path d="M647.5 217.7L598.3 215L589.8 295.7Z" fill="#22164f" stroke="#adadad"></path><path d="M675 328.3L656.3 327.7L653.3 369.3Z" fill="#291867" stroke="#adadad"></path><path d="M675 473.7L616.8 488.3L675 477Z" fill="#22164f" stroke="#adadad"></path><path d="M675 473.7L607.3 440.3L616.8 488.3Z" fill="#07050b" stroke="#adadad"></path><path d="M654.5 385.7L675 407.7L653.3 369.3Z" fill="#4d17cb" stroke="#adadad"></path><path d="M466.3 723L506.5 701.7L498 661.7Z" fill="#4d17cb" stroke="#adadad"></path><path d="M522.8 681.7L608.8 656L563.8 620Z" fill="#1b1338" stroke="#adadad"></path><path d="M675 414L675 411.3L654.5 385.7Z" fill="#6600ff" stroke="#adadad"></path><path d="M634.3 600.3L619.5 607.3L656.5 641.7Z" fill="#391b98" stroke="#adadad"></path><path d="M613.5 610L619.5 607.3L616.8 570.7Z" fill="#291867" stroke="#adadad"></path><path d="M675 411.3L675 407.7L654.5 385.7Z" fill="#5910e5" stroke="#adadad"></path><path d="M217.5 694L219.5 688.3L188.3 648Z" fill="#150e22" stroke="#adadad"></path><path d="M188.3 648L219.5 688.3L240 651.7Z" fill="#311a7f" stroke="#adadad"></path><path d="M123.3 572.7L118 585.7L138 608Z" fill="#150e22" stroke="#adadad"></path><path d="M123.3 572.7L131 510.7L61.8 523.3Z" fill="#431ab1" stroke="#adadad"></path><path d="M619.5 607.3L625.3 602L616.8 570.7Z" fill="#431ab1" stroke="#adadad"></path><path d="M331.5 130.7L356 184.3L388.5 120.3Z" fill="#311a7f" stroke="#adadad"></path><path d="M272.3 164.3L264 150L232.5 179Z" fill="#391b98" stroke="#adadad"></path><path d="M675 477L616.8 488.3L632.3 515.7Z" fill="#431ab1" stroke="#adadad"></path><path d="M82.3 360.3L75.5 412.3L92.5 392.7Z" fill="#150e22" stroke="#adadad"></path><path d="M92.5 392.7L75.5 412.3L117.8 431.3Z" fill="#391b98" stroke="#adadad"></path><path d="M61.8 523.3L131 510.7L95.3 472.7Z" fill="#311a7f" stroke="#adadad"></path><path d="M675 509.3L675 477L632.3 515.7Z" fill="#391b98" stroke="#adadad"></path><path d="M422.3 722.3L459.8 723.3L411.3 672.3Z" fill="#22164f" stroke="#adadad"></path><path d="M313.8 715.7L391.3 734.7L356.5 683.3Z" fill="#291867" stroke="#adadad"></path><path d="M422.3 722.3L457.8 756L459.8 723.3Z" fill="#391b98" stroke="#adadad"></path><path d="M81.3 324L116.3 350L121.3 336.7Z" fill="#1b1338" stroke="#adadad"></path><path d="M258.8 146L264 150L269.3 151Z" fill="#311a7f" stroke="#adadad"></path><path d="M269.3 151L264 150L272.3 164.3Z" fill="#07050b" stroke="#adadad"></path><path d="M181.8 169L117.5 236L179.5 249Z" fill="#291867" stroke="#adadad"></path><path d="M457.8 756L466.3 723L459.8 723.3Z" fill="#311a7f" stroke="#adadad"></path><path d="M459.8 723.3L466.3 723L498 661.7Z" fill="#391b98" stroke="#adadad"></path><path d="M388.5 120.3L356 184.3L402 155.3Z" fill="#1b1338" stroke="#adadad"></path><path d="M27.5 410L71.5 415.7L75.5 412.3Z" fill="#291867" stroke="#adadad"></path><path d="M75.5 412.3L71.5 415.7L84.8 449Z" fill="#431ab1" stroke="#adadad"></path><path d="M187.8 716L217.5 694L188.3 648Z" fill="#391b98" stroke="#adadad"></path><path d="M219.5 688.3L217.5 694L287.8 700Z" fill="#1b1338" stroke="#adadad"></path><path d="M313.8 715.7L313.8 748.3L391.3 734.7Z" fill="#291867" stroke="#adadad"></path><path d="M138 608L154.5 643.3L160.5 613Z" fill="#150e22" stroke="#adadad"></path><path d="M132.8 647.3L154.5 643.3L138 608Z" fill="#22164f" stroke="#adadad"></path><path d="M331.5 130.7L310.8 132.7L326.3 173Z" fill="#291867" stroke="#adadad"></path><path d="M619.5 607.3L634.3 600.3L625.3 602Z" fill="#150e22" stroke="#adadad"></path><path d="M625.3 602L634.3 600.3L616.8 570.7Z" fill="#22164f" stroke="#adadad"></path><path d="M608.8 656L613.5 610L592.3 624.7Z" fill="#311a7f" stroke="#adadad"></path><path d="M675 547.7L632.3 515.7L616.8 570.7Z" fill="#291867" stroke="#adadad"></path><path d="M251 99.3L258.8 146L269.3 151Z" fill="#431ab1" stroke="#adadad"></path><path d="M264 150L258.8 146L232.5 179Z" fill="#6600ff" stroke="#adadad"></path><path d="M675 262.7L589.8 295.7L641.5 310Z" fill="#311a7f" stroke="#adadad"></path><path d="M577.5 218.3L598.3 215L562.8 207.7Z" fill="#291867" stroke="#adadad"></path><path d="M466.3 723L512.5 712L506.5 701.7Z" fill="#4d17cb" stroke="#adadad"></path><path d="M506.5 701.7L512.5 712L522.8 681.7Z" fill="#6600ff" stroke="#adadad"></path><path d="M675 414L687.3 445.7L675 411.3Z" fill="#6600ff" stroke="#adadad"></path><path d="M675 411.3L687.3 445.7L675 407.7Z" fill="#391b98" stroke="#adadad"></path><path d="M675 407.7L675 328.3L653.3 369.3Z" fill="#4d17cb" stroke="#adadad"></path><path d="M675 473.7L687.3 445.7L608.8 437.7Z" fill="#4d17cb" stroke="#adadad"></path><path d="M675 477L687.3 445.7L675 473.7Z" fill="#07050b" stroke="#adadad"></path><path d="M675 509.3L687.3 445.7L675 477Z" fill="#311a7f" stroke="#adadad"></path><path d="M444.5 124.3L388.5 120.3L426 140Z" fill="#311a7f" stroke="#adadad"></path><path d="M426 140L388.5 120.3L402 155.3Z" fill="#5910e5" stroke="#adadad"></path><path d="M331.5 130.7L316.8 96.7L310.8 132.7Z" fill="#291867" stroke="#adadad"></path><path d="M79.5 298.3L81.3 324L131.8 309Z" fill="#391b98" stroke="#adadad"></path><path d="M27.5 410L54.3 450L71.5 415.7Z" fill="#22164f" stroke="#adadad"></path><path d="M58.8 476.3L95.3 472.7L84.8 449Z" fill="#22164f" stroke="#adadad"></path><path d="M118 585.7L118 618.7L138 608Z" fill="#311a7f" stroke="#adadad"></path><path d="M457.5 124L497.5 180.7L500 117.3Z" fill="#431ab1" stroke="#adadad"></path><path d="M457.5 124L438.8 161L497.5 180.7Z" fill="#5910e5" stroke="#adadad"></path><path d="M687.3 445.7L675 328.3L675 407.7Z" fill="#4d17cb" stroke="#adadad"></path><path d="M656.3 327.7L675 282L641.5 310Z" fill="#291867" stroke="#adadad"></path><path d="M104.5 590.3L118 618.7L118 585.7Z" fill="#07050b" stroke="#adadad"></path><path d="M157.5 717.7L187.8 716L188.3 648Z" fill="#391b98" stroke="#adadad"></path><path d="M500 117.3L497.5 180.7L521 125.7Z" fill="#4d17cb" stroke="#adadad"></path><path d="M370 82.7L331.5 130.7L388.5 120.3Z" fill="#07050b" stroke="#adadad"></path><path d="M595.5 166.7L557 169L562.8 207.7Z" fill="#5910e5" stroke="#adadad"></path><path d="M675 575L675 547.7L616.8 570.7Z" fill="#311a7f" stroke="#adadad"></path><path d="M675 509.3L675 547.7L687.3 445.7Z" fill="#1b1338" stroke="#adadad"></path><path d="M54.3 450L84.8 449L71.5 415.7Z" fill="#291867" stroke="#adadad"></path><path d="M54.3 450L58.8 476.3L84.8 449Z" fill="#291867" stroke="#adadad"></path><path d="M251 99.3L228.5 147L258.8 146Z" fill="#1b1338" stroke="#adadad"></path><path d="M258.8 146L228.5 147L232.5 179Z" fill="#5910e5" stroke="#adadad"></path><path d="M81.5 291L79.5 298.3L131.8 309Z" fill="#22164f" stroke="#adadad"></path><path d="M291.5 752.3L313.8 715.7L287.8 700Z" fill="#5910e5" stroke="#adadad"></path><path d="M506.5 756.3L512.5 712L466.3 723Z" fill="#4d17cb" stroke="#adadad"></path><path d="M616.5 682L608.8 656L583.8 714.7Z" fill="#391b98" stroke="#adadad"></path><path d="M634.3 600.3L675 575L616.8 570.7Z" fill="#431ab1" stroke="#adadad"></path><path d="M57.8 350L75.5 412.3L82.3 360.3Z" fill="#311a7f" stroke="#adadad"></path><path d="M506.5 756.3L533.3 716.3L512.5 712Z" fill="#311a7f" stroke="#adadad"></path><path d="M512.5 712L533.3 716.3L522.8 681.7Z" fill="#6600ff" stroke="#adadad"></path><path d="M457.8 756L422.3 722.3L409.3 773Z" fill="#391b98" stroke="#adadad"></path><path d="M181.8 169L218.3 236.7L232.5 179Z" fill="#391b98" stroke="#adadad"></path><path d="M118 618.7L132.8 647.3L138 608Z" fill="#5910e5" stroke="#adadad"></path><path d="M269.3 750L291.5 752.3L287.8 700Z" fill="#6600ff" stroke="#adadad"></path><path d="M81.5 291L131.8 309L122.3 277.3Z" fill="#291867" stroke="#adadad"></path><path d="M81.3 324L57.8 350L82.3 360.3Z" fill="#5910e5" stroke="#adadad"></path><path d="M188.5 149.7L175.5 134.3L174 140.7Z" fill="#391b98" stroke="#adadad"></path><path d="M228.5 147L214.8 148.7L232.5 179Z" fill="#5910e5" stroke="#adadad"></path><path d="M117.5 236L81.5 291L122.3 277.3Z" fill="#22164f" stroke="#adadad"></path><path d="M214.8 148.7L181.8 169L232.5 179Z" fill="#431ab1" stroke="#adadad"></path><path d="M56.3 563.3L15.5 537L49.5 574.3Z" fill="#07050b" stroke="#adadad"></path><path d="M58.8 476.3L61.8 523.3L95.3 472.7Z" fill="#5910e5" stroke="#adadad"></path><path d="M104.5 590.3L86.5 608.7L118 618.7Z" fill="#391b98" stroke="#adadad"></path><path d="M118 618.7L104.5 648L132.8 647.3Z" fill="#150e22" stroke="#adadad"></path><path d="M60.8 298L81.3 324L79.5 298.3Z" fill="#4d17cb" stroke="#adadad"></path><path d="M33.8 328.3L57.8 350L81.3 324Z" fill="#5910e5" stroke="#adadad"></path><path d="M675 584.3L675 575L634.3 600.3Z" fill="#311a7f" stroke="#adadad"></path><path d="M675 547.7L675 575L687.3 445.7Z" fill="#291867" stroke="#adadad"></path><path d="M269.3 750L287.8 700L246 747Z" fill="#5910e5" stroke="#adadad"></path><path d="M409.3 773L422.3 722.3L391.3 734.7Z" fill="#1b1338" stroke="#adadad"></path><path d="M409.3 773L391.3 734.7L357 783.3Z" fill="#150e22" stroke="#adadad"></path><path d="M691.3 272.3L675 282L675 328.3Z" fill="#431ab1" stroke="#adadad"></path><path d="M675 328.3L675 282L656.3 327.7Z" fill="#150e22" stroke="#adadad"></path><path d="M598.3 215L595.5 166.7L562.8 207.7Z" fill="#5910e5" stroke="#adadad"></path><path d="M656.5 641.7L675 584.3L634.3 600.3Z" fill="#311a7f" stroke="#adadad"></path><path d="M675 575L675 584.3L687.3 445.7Z" fill="#22164f" stroke="#adadad"></path><path d="M246 747L287.8 700L217.5 694Z" fill="#311a7f" stroke="#adadad"></path><path d="M521 125.7L497.5 180.7L524.3 176Z" fill="#150e22" stroke="#adadad"></path><path d="M379.3 81L388.5 120.3L415.8 64Z" fill="#291867" stroke="#adadad"></path><path d="M607.8 140.3L521 125.7L557 169Z" fill="#22164f" stroke="#adadad"></path><path d="M557 169L521 125.7L524.3 176Z" fill="#1b1338" stroke="#adadad"></path><path d="M59.3 580L86.5 608.7L104.5 590.3Z" fill="#391b98" stroke="#adadad"></path><path d="M188.5 149.7L214.8 148.7L175.5 134.3Z" fill="#07050b" stroke="#adadad"></path><path d="M214.8 148.7L188.5 149.7L181.8 169Z" fill="#291867" stroke="#adadad"></path><path d="M119 172L100 215.3L117.5 236Z" fill="#1b1338" stroke="#adadad"></path><path d="M251 99.3L269.3 151L310.8 132.7Z" fill="#4d17cb" stroke="#adadad"></path><path d="M236 754.7L246 747L217.5 694Z" fill="#311a7f" stroke="#adadad"></path><path d="M188.3 648L154.5 643.3L157.5 717.7Z" fill="#6600ff" stroke="#adadad"></path><path d="M157.5 717.7L154.5 643.3L113.5 678.7Z" fill="#431ab1" stroke="#adadad"></path><path d="M370 82.7L388.5 120.3L379.3 81Z" fill="#4d17cb" stroke="#adadad"></path><path d="M329.3 85.3L316.8 96.7L331.5 130.7Z" fill="#311a7f" stroke="#adadad"></path><path d="M306.5 768.7L291.5 752.3L269.3 787.7Z" fill="#311a7f" stroke="#adadad"></path><path d="M306.5 768.7L313.8 748.3L291.5 752.3Z" fill="#391b98" stroke="#adadad"></path><path d="M357 783.3L391.3 734.7L313.8 748.3Z" fill="#311a7f" stroke="#adadad"></path><path d="M81.5 291L60.8 298L79.5 298.3Z" fill="#07050b" stroke="#adadad"></path><path d="M66.3 279.7L60.8 298L81.5 291Z" fill="#22164f" stroke="#adadad"></path><path d="M66.3 279.7L81.5 291L117.5 236Z" fill="#6600ff" stroke="#adadad"></path><path d="M691.3 272.3L675 262.7L675 282Z" fill="#5910e5" stroke="#adadad"></path><path d="M675 282L675 262.7L641.5 310Z" fill="#150e22" stroke="#adadad"></path><path d="M269.3 787.7L291.5 752.3L269.3 750Z" fill="#311a7f" stroke="#adadad"></path><path d="M647.5 217.7L595.5 166.7L598.3 215Z" fill="#431ab1" stroke="#adadad"></path><path d="M674.3 254L647.5 217.7L589.8 295.7Z" fill="#291867" stroke="#adadad"></path><path d="M85.5 218.7L66.3 279.7L117.5 236Z" fill="#431ab1" stroke="#adadad"></path><path d="M11.8 504.7L61.8 523.3L58.8 476.3Z" fill="#6600ff" stroke="#adadad"></path><path d="M61.8 523.3L56.3 563.3L123.3 572.7Z" fill="#07050b" stroke="#adadad"></path><path d="M583.8 714.7L608.8 656L522.8 681.7Z" fill="#391b98" stroke="#adadad"></path><path d="M608.8 656L656.5 641.7L619.5 607.3Z" fill="#431ab1" stroke="#adadad"></path><path d="M583.8 714.7L522.8 681.7L533.3 716.3Z" fill="#6600ff" stroke="#adadad"></path><path d="M675 262.7L674.3 254L589.8 295.7Z" fill="#4d17cb" stroke="#adadad"></path><path d="M82.3 634.3L118 618.7L86.5 608.7Z" fill="#431ab1" stroke="#adadad"></path><path d="M82.3 634.3L104.5 648L118 618.7Z" fill="#431ab1" stroke="#adadad"></path><path d="M506.5 756.3L466.3 723L457.8 756Z" fill="#311a7f" stroke="#adadad"></path><path d="M521 761.7L557 730L533.3 716.3Z" fill="#6600ff" stroke="#adadad"></path><path d="M470.3 797L506.5 756.3L457.8 756Z" fill="#1b1338" stroke="#adadad"></path><path d="M616.5 682L656.5 641.7L608.8 656Z" fill="#22164f" stroke="#adadad"></path><path d="M388.5 120.3L444.5 124.3L415.8 64Z" fill="#07050b" stroke="#adadad"></path><path d="M7.8 362.7L27.5 410L57.8 350Z" fill="#6600ff" stroke="#adadad"></path><path d="M57.8 350L27.5 410L75.5 412.3Z" fill="#22164f" stroke="#adadad"></path><path d="M0 481.3L11.8 504.7L58.8 476.3Z" fill="#4d17cb" stroke="#adadad"></path><path d="M49.5 574.3L59.3 580L56.3 563.3Z" fill="#6600ff" stroke="#adadad"></path><path d="M56.3 563.3L59.3 580L104.5 590.3Z" fill="#6600ff" stroke="#adadad"></path><path d="M370 82.7L329.3 85.3L331.5 130.7Z" fill="#311a7f" stroke="#adadad"></path><path d="M231.5 93.7L214.8 148.7L228.5 147Z" fill="#391b98" stroke="#adadad"></path><path d="M557 730L583.8 714.7L533.3 716.3Z" fill="#4d17cb" stroke="#adadad"></path><path d="M475.8 87.3L444.5 124.3L457.5 124Z" fill="#1b1338" stroke="#adadad"></path><path d="M370 82.7L372.5 57L329.3 85.3Z" fill="#431ab1" stroke="#adadad"></path><path d="M119 172L117.5 236L181.8 169Z" fill="#150e22" stroke="#adadad"></path><path d="M306.5 768.7L357 783.3L313.8 748.3Z" fill="#22164f" stroke="#adadad"></path><path d="M409.3 773L428 782.7L457.8 756Z" fill="#150e22" stroke="#adadad"></path><path d="M187.8 716L236 754.7L217.5 694Z" fill="#1b1338" stroke="#adadad"></path><path d="M246 747L254 773.3L269.3 750Z" fill="#150e22" stroke="#adadad"></path><path d="M306.5 768.7L353 807L357 783.3Z" fill="#1b1338" stroke="#adadad"></path><path d="M687.3 445.7L691.3 272.3L675 328.3Z" fill="#5910e5" stroke="#adadad"></path><path d="M675 262.7L691.3 272.3L674.3 254Z" fill="#6600ff" stroke="#adadad"></path><path d="M674.3 254L675 218L647.5 217.7Z" fill="#5910e5" stroke="#adadad"></path><path d="M434.8 796.3L428 782.7L385.5 821.3Z" fill="#1b1338" stroke="#adadad"></path><path d="M251 99.3L310.8 132.7L316.8 96.7Z" fill="#150e22" stroke="#adadad"></path><path d="M188.5 149.7L174 140.7L181.8 169Z" fill="#391b98" stroke="#adadad"></path><path d="M254.8 88.3L251 99.3L278.3 74.7Z" fill="#6600ff" stroke="#adadad"></path><path d="M15.5 537L56.3 563.3L61.8 523.3Z" fill="#311a7f" stroke="#adadad"></path><path d="M18.5 610L82.3 634.3L86.5 608.7Z" fill="#431ab1" stroke="#adadad"></path><path d="M63.3 661.7L82.3 634.3L26.8 644.3Z" fill="#431ab1" stroke="#adadad"></path><path d="M113.5 678.7L154.5 643.3L132.8 647.3Z" fill="#1b1338" stroke="#adadad"></path><path d="M187.8 716L176.8 751.3L236 754.7Z" fill="#1b1338" stroke="#adadad"></path><path d="M174 140.7L149.8 156.3L181.8 169Z" fill="#291867" stroke="#adadad"></path><path d="M46.5 284.3L33.8 328.3L60.8 298Z" fill="#1b1338" stroke="#adadad"></path><path d="M60.8 298L33.8 328.3L81.3 324Z" fill="#6600ff" stroke="#adadad"></path><path d="M46.5 284.3L60.8 298L66.3 279.7Z" fill="#6600ff" stroke="#adadad"></path><path d="M530.3 89L475.8 87.3L500 117.3Z" fill="#1b1338" stroke="#adadad"></path><path d="M500 117.3L475.8 87.3L457.5 124Z" fill="#4d17cb" stroke="#adadad"></path><path d="M530.3 89L500 117.3L521 125.7Z" fill="#1b1338" stroke="#adadad"></path><path d="M231.5 93.7L175.5 134.3L214.8 148.7Z" fill="#5910e5" stroke="#adadad"></path><path d="M174 140.7L175.5 134.3L149.8 156.3Z" fill="#311a7f" stroke="#adadad"></path><path d="M506.5 756.3L521 761.7L533.3 716.3Z" fill="#311a7f" stroke="#adadad"></path><path d="M557 730L595.8 728.3L583.8 714.7Z" fill="#431ab1" stroke="#adadad"></path><path d="M489 819L521 761.7L506.5 756.3Z" fill="#431ab1" stroke="#adadad"></path><path d="M113.5 678.7L132.8 647.3L104.5 648Z" fill="#391b98" stroke="#adadad"></path><path d="M63.3 661.7L113.5 678.7L104.5 648Z" fill="#311a7f" stroke="#adadad"></path><path d="M98.3 170.3L85.5 218.7L100 215.3Z" fill="#6600ff" stroke="#adadad"></path><path d="M100 215.3L85.5 218.7L117.5 236Z" fill="#291867" stroke="#adadad"></path><path d="M85.5 218.7L46.5 284.3L66.3 279.7Z" fill="#431ab1" stroke="#adadad"></path><path d="M217.5 786L254 773.3L236 754.7Z" fill="#291867" stroke="#adadad"></path><path d="M236 754.7L254 773.3L246 747Z" fill="#22164f" stroke="#adadad"></path><path d="M434.8 796.3L457.8 786.7L428 782.7Z" fill="#22164f" stroke="#adadad"></path><path d="M428 782.7L457.8 786.7L457.8 756Z" fill="#1b1338" stroke="#adadad"></path><path d="M148 101.3L137.3 157.7L149.8 156.3Z" fill="#431ab1" stroke="#adadad"></path><path d="M149.8 156.3L119 172L181.8 169Z" fill="#391b98" stroke="#adadad"></path><path d="M278.3 74.7L251 99.3L316.8 96.7Z" fill="#311a7f" stroke="#adadad"></path><path d="M251 99.3L231.5 93.7L228.5 147Z" fill="#391b98" stroke="#adadad"></path><path d="M278.3 74.7L316.8 96.7L329.3 85.3Z" fill="#4d17cb" stroke="#adadad"></path><path d="M137.3 157.7L119 172L149.8 156.3Z" fill="#5910e5" stroke="#adadad"></path><path d="M615.5 138L607.8 140.3L595.5 166.7Z" fill="#391b98" stroke="#adadad"></path><path d="M595.5 166.7L607.8 140.3L557 169Z" fill="#291867" stroke="#adadad"></path><path d="M686.3 224.7L675 218L674.3 254Z" fill="#22164f" stroke="#adadad"></path><path d="M542 768.3L595.8 728.3L557 730Z" fill="#5910e5" stroke="#adadad"></path><path d="M583.8 714.7L618.3 716L616.5 682Z" fill="#22164f" stroke="#adadad"></path><path d="M616.5 682L675 663.7L656.5 641.7Z" fill="#291867" stroke="#adadad"></path><path d="M254.8 88.3L231.5 93.7L251 99.3Z" fill="#150e22" stroke="#adadad"></path><path d="M76.3 137L98.3 170.3L76.5 136.3Z" fill="#22164f" stroke="#adadad"></path><path d="M385.5 821.3L428 782.7L409.3 773Z" fill="#6600ff" stroke="#adadad"></path><path d="M457.8 786.7L470.3 797L457.8 756Z" fill="#4d17cb" stroke="#adadad"></path><path d="M385.5 821.3L409.3 773L357 783.3Z" fill="#391b98" stroke="#adadad"></path><path d="M434.8 796.3L459.5 791.7L457.8 786.7Z" fill="#150e22" stroke="#adadad"></path><path d="M521 761.7L542 768.3L557 730Z" fill="#6600ff" stroke="#adadad"></path><path d="M595.8 728.3L602.3 724.7L583.8 714.7Z" fill="#07050b" stroke="#adadad"></path><path d="M475.8 87.3L415.8 64L444.5 124.3Z" fill="#391b98" stroke="#adadad"></path><path d="M379.3 81L372.5 57L370 82.7Z" fill="#291867" stroke="#adadad"></path><path d="M302.5 42.7L278.3 74.7L329.3 85.3Z" fill="#22164f" stroke="#adadad"></path><path d="M254.8 88.3L232 63.7L231.5 93.7Z" fill="#291867" stroke="#adadad"></path><path d="M223 802L269.3 787.7L254 773.3Z" fill="#150e22" stroke="#adadad"></path><path d="M254 773.3L269.3 787.7L269.3 750Z" fill="#1b1338" stroke="#adadad"></path><path d="M0 481.3L58.8 476.3L54.3 450Z" fill="#391b98" stroke="#adadad"></path><path d="M0 449.7L54.3 450L27.5 410Z" fill="#150e22" stroke="#adadad"></path><path d="M615.5 138L595.5 166.7L639.5 149Z" fill="#6600ff" stroke="#adadad"></path><path d="M619.5 753.3L618.3 716L602.3 724.7Z" fill="#07050b" stroke="#adadad"></path><path d="M602.3 724.7L618.3 716L583.8 714.7Z" fill="#391b98" stroke="#adadad"></path><path d="M691.3 272.3L686.3 224.7L674.3 254Z" fill="#22164f" stroke="#adadad"></path><path d="M639.5 149L595.5 166.7L647.5 217.7Z" fill="#4d17cb" stroke="#adadad"></path><path d="M538 790.3L542 768.3L521 761.7Z" fill="#6600ff" stroke="#adadad"></path><path d="M595.8 728.3L619.5 753.3L602.3 724.7Z" fill="#1b1338" stroke="#adadad"></path><path d="M0 360.3L7.8 362.7L33.8 328.3Z" fill="#07050b" stroke="#adadad"></path><path d="M33.8 328.3L7.8 362.7L57.8 350Z" fill="#431ab1" stroke="#adadad"></path><path d="M399.3 44.7L372.5 57L379.3 81Z" fill="#6600ff" stroke="#adadad"></path><path d="M338.8 838.3L353 807L310.5 840Z" fill="#22164f" stroke="#adadad"></path><path d="M11.8 504.7L15.5 537L61.8 523.3Z" fill="#431ab1" stroke="#adadad"></path><path d="M18.5 610L86.5 608.7L59.3 580Z" fill="#22164f" stroke="#adadad"></path><path d="M607.8 140.3L530.3 89L521 125.7Z" fill="#311a7f" stroke="#adadad"></path><path d="M435.8 45.7L399.3 44.7L415.8 64Z" fill="#431ab1" stroke="#adadad"></path><path d="M151 743L176.8 751.3L157.5 717.7Z" fill="#07050b" stroke="#adadad"></path><path d="M157.5 717.7L176.8 751.3L187.8 716Z" fill="#4d17cb" stroke="#adadad"></path><path d="M470.3 804.3L470.3 797L459.5 791.7Z" fill="#5910e5" stroke="#adadad"></path><path d="M459.5 791.7L470.3 797L457.8 786.7Z" fill="#07050b" stroke="#adadad"></path><path d="M470.3 804.3L459.5 791.7L434.8 796.3Z" fill="#1b1338" stroke="#adadad"></path><path d="M0 389.7L0 449.7L27.5 410Z" fill="#150e22" stroke="#adadad"></path><path d="M11.8 504.7L0 523.7L15.5 537Z" fill="#5910e5" stroke="#adadad"></path><path d="M675 714.7L675 663.7L616.5 682Z" fill="#391b98" stroke="#adadad"></path><path d="M656.5 641.7L675 663.7L675 584.3Z" fill="#291867" stroke="#adadad"></path><path d="M675 584.3L691.3 764.3L687.3 445.7Z" fill="#150e22" stroke="#adadad"></path><path d="M7.8 362.7L0 389.7L27.5 410Z" fill="#4d17cb" stroke="#adadad"></path><path d="M675 196.7L647.5 217.7L675 218Z" fill="#5910e5" stroke="#adadad"></path><path d="M607.8 140.3L612.3 131.7L530.3 89Z" fill="#431ab1" stroke="#adadad"></path><path d="M0 449.7L0 481.3L54.3 450Z" fill="#291867" stroke="#adadad"></path><path d="M686.3 224.7L675 196.7L675 218Z" fill="#431ab1" stroke="#adadad"></path><path d="M0 360.3L0 372L7.8 362.7Z" fill="#07050b" stroke="#adadad"></path><path d="M7.8 362.7L0 372L0 389.7Z" fill="#150e22" stroke="#adadad"></path><path d="M615.5 138L612.3 131.7L607.8 140.3Z" fill="#4d17cb" stroke="#adadad"></path><path d="M620.8 113L612.3 131.7L615.5 138Z" fill="#391b98" stroke="#adadad"></path><path d="M148 101.3L149.8 156.3L175.5 134.3Z" fill="#07050b" stroke="#adadad"></path><path d="M137.3 157.7L98.3 170.3L119 172Z" fill="#5910e5" stroke="#adadad"></path><path d="M119 172L98.3 170.3L100 215.3Z" fill="#311a7f" stroke="#adadad"></path><path d="M0 309.7L2.8 310.7L0 271.3Z" fill="#391b98" stroke="#adadad"></path><path d="M2.8 310.7L0 360.3L33.8 328.3Z" fill="#291867" stroke="#adadad"></path><path d="M2.8 310.7L33.8 328.3L46.5 284.3Z" fill="#07050b" stroke="#adadad"></path><path d="M424 831.3L470.3 804.3L434.8 796.3Z" fill="#150e22" stroke="#adadad"></path><path d="M489 819L538 790.3L521 761.7Z" fill="#291867" stroke="#adadad"></path><path d="M128 765L151 743L113.5 678.7Z" fill="#150e22" stroke="#adadad"></path><path d="M113.5 678.7L151 743L157.5 717.7Z" fill="#5910e5" stroke="#adadad"></path><path d="M176.8 751.3L201.3 776.3L236 754.7Z" fill="#07050b" stroke="#adadad"></path><path d="M63.3 661.7L104.5 648L82.3 634.3Z" fill="#431ab1" stroke="#adadad"></path><path d="M167.5 791.7L201.3 776.3L176.8 751.3Z" fill="#431ab1" stroke="#adadad"></path><path d="M363.3 837.7L385.5 821.3L353 807Z" fill="#5910e5" stroke="#adadad"></path><path d="M686.3 224.7L675 187.3L675 196.7Z" fill="#431ab1" stroke="#adadad"></path><path d="M675 196.7L675 187.3L647.5 217.7Z" fill="#22164f" stroke="#adadad"></path><path d="M675 187.3L639.5 149L647.5 217.7Z" fill="#6600ff" stroke="#adadad"></path><path d="M0 481.3L0 523.7L11.8 504.7Z" fill="#311a7f" stroke="#adadad"></path><path d="M18.5 610L59.3 580L49.5 574.3Z" fill="#1b1338" stroke="#adadad"></path><path d="M201.3 776.3L217.5 786L236 754.7Z" fill="#07050b" stroke="#adadad"></path><path d="M0 549L49.5 574.3L15.5 537Z" fill="#291867" stroke="#adadad"></path><path d="M435.8 45.7L415.8 64L475.8 87.3Z" fill="#431ab1" stroke="#adadad"></path><path d="M415.8 64L399.3 44.7L379.3 81Z" fill="#4d17cb" stroke="#adadad"></path><path d="M270.3 15.3L232 63.7L278.3 74.7Z" fill="#6600ff" stroke="#adadad"></path><path d="M363.3 837.7L353 807L338.8 838.3Z" fill="#291867" stroke="#adadad"></path><path d="M353 807L385.5 821.3L357 783.3Z" fill="#4d17cb" stroke="#adadad"></path><path d="M497.5 49.7L435.8 45.7L475.8 87.3Z" fill="#391b98" stroke="#adadad"></path><path d="M0 523.7L0 539.3L15.5 537Z" fill="#6600ff" stroke="#adadad"></path><path d="M489 819L506.5 756.3L470.3 797Z" fill="#311a7f" stroke="#adadad"></path><path d="M542 768.3L619.5 753.3L595.8 728.3Z" fill="#150e22" stroke="#adadad"></path><path d="M618.3 716L675 714.7L616.5 682Z" fill="#6600ff" stroke="#adadad"></path><path d="M2.8 310.7L46.5 284.3L0 271.3Z" fill="#291867" stroke="#adadad"></path><path d="M0 539.3L0 549L15.5 537Z" fill="#07050b" stroke="#adadad"></path><path d="M278.3 74.7L232 63.7L254.8 88.3Z" fill="#391b98" stroke="#adadad"></path><path d="M231.5 93.7L213.5 70.3L175.5 134.3Z" fill="#07050b" stroke="#adadad"></path><path d="M302.5 42.7L329.3 85.3L372.5 57Z" fill="#4d17cb" stroke="#adadad"></path><path d="M0 271.3L46.5 284.3L0 270Z" fill="#1b1338" stroke="#adadad"></path><path d="M2.8 310.7L0 309.7L0 360.3Z" fill="#5910e5" stroke="#adadad"></path><path d="M330.8 11.3L302.5 42.7L372.5 57Z" fill="#6600ff" stroke="#adadad"></path><path d="M232 63.7L213.5 70.3L231.5 93.7Z" fill="#291867" stroke="#adadad"></path><path d="M675 187.3L652.5 146.3L639.5 149Z" fill="#07050b" stroke="#adadad"></path><path d="M639.5 149L620.8 113L615.5 138Z" fill="#391b98" stroke="#adadad"></path><path d="M509.3 49.7L497.5 49.7L530.3 89Z" fill="#1b1338" stroke="#adadad"></path><path d="M539.8 838L542.3 793.7L538 790.3Z" fill="#431ab1" stroke="#adadad"></path><path d="M538 790.3L542.3 793.7L542 768.3Z" fill="#22164f" stroke="#adadad"></path><path d="M489 819L470.3 797L470.3 804.3Z" fill="#4d17cb" stroke="#adadad"></path><path d="M370 0L382.3 34.3L420.8 0Z" fill="#1b1338" stroke="#adadad"></path><path d="M399.3 44.7L382.3 34.3L372.5 57Z" fill="#291867" stroke="#adadad"></path><path d="M-10.2 585.7L18.5 610L49.5 574.3Z" fill="#1b1338" stroke="#adadad"></path><path d="M201.3 776.3L223 802L217.5 786Z" fill="#6600ff" stroke="#adadad"></path><path d="M217.5 786L223 802L254 773.3Z" fill="#4d17cb" stroke="#adadad"></path><path d="M167.5 791.7L223 802L201.3 776.3Z" fill="#150e22" stroke="#adadad"></path><path d="M530.3 89L497.5 49.7L475.8 87.3Z" fill="#5910e5" stroke="#adadad"></path><path d="M435.8 45.7L420.8 0L399.3 44.7Z" fill="#6600ff" stroke="#adadad"></path><path d="M576 67L530.3 89L612.3 131.7Z" fill="#391b98" stroke="#adadad"></path><path d="M388.8 848.7L424 831.3L385.5 821.3Z" fill="#1b1338" stroke="#adadad"></path><path d="M385.5 821.3L424 831.3L434.8 796.3Z" fill="#431ab1" stroke="#adadad"></path><path d="M652.5 146.3L620.8 113L639.5 149Z" fill="#5910e5" stroke="#adadad"></path><path d="M213.5 70.3L148 101.3L175.5 134.3Z" fill="#431ab1" stroke="#adadad"></path><path d="M582.5 812.7L619.5 753.3L542 768.3Z" fill="#22164f" stroke="#adadad"></path><path d="M436.5 854.7L489 819L470.3 804.3Z" fill="#4d17cb" stroke="#adadad"></path><path d="M561.5 44.3L509.3 49.7L530.3 89Z" fill="#22164f" stroke="#adadad"></path><path d="M497.5 49.7L459.8 20.3L435.8 45.7Z" fill="#431ab1" stroke="#adadad"></path><path d="M353 807L306.5 768.7L310.5 840Z" fill="#6600ff" stroke="#adadad"></path><path d="M310.5 840L306.5 768.7L269.3 787.7Z" fill="#5910e5" stroke="#adadad"></path><path d="M0 624L26.8 644.3L18.5 610Z" fill="#22164f" stroke="#adadad"></path><path d="M18.5 610L26.8 644.3L82.3 634.3Z" fill="#1b1338" stroke="#adadad"></path><path d="M128 765L156.8 778.7L151 743Z" fill="#22164f" stroke="#adadad"></path><path d="M151 743L156.8 778.7L176.8 751.3Z" fill="#4d17cb" stroke="#adadad"></path><path d="M0 270L46.5 284.3L44.5 188.7Z" fill="#291867" stroke="#adadad"></path><path d="M46.5 284.3L85.5 218.7L44.5 188.7Z" fill="#07050b" stroke="#adadad"></path><path d="M44.5 188.7L85.5 218.7L98.3 170.3Z" fill="#431ab1" stroke="#adadad"></path><path d="M52.3 684L113.5 678.7L63.3 661.7Z" fill="#07050b" stroke="#adadad"></path><path d="M26.8 644.3L52.3 684L63.3 661.7Z" fill="#22164f" stroke="#adadad"></path><path d="M675 722L675 714.7L618.3 716Z" fill="#431ab1" stroke="#adadad"></path><path d="M675 663.7L691.3 764.3L675 584.3Z" fill="#391b98" stroke="#adadad"></path><path d="M0 539.3L-15.2 557L0 549Z" fill="#5910e5" stroke="#adadad"></path><path d="M0 549L-10.2 585.7L49.5 574.3Z" fill="#07050b" stroke="#adadad"></path><path d="M0 523.7L-15.2 557L0 539.3Z" fill="#150e22" stroke="#adadad"></path><path d="M0 481.3L-15.2 557L0 523.7Z" fill="#5910e5" stroke="#adadad"></path><path d="M0 449.7L-15.2 557L0 481.3Z" fill="#4d17cb" stroke="#adadad"></path><path d="M0 389.7L-15.2 557L0 449.7Z" fill="#4d17cb" stroke="#adadad"></path><path d="M-16.2 202.3L-15.2 557L0 389.7Z" fill="#07050b" stroke="#adadad"></path><path d="M-16.2 202.3L0 389.7L0 372Z" fill="#1b1338" stroke="#adadad"></path><path d="M-16.2 202.3L0 372L0 360.3Z" fill="#431ab1" stroke="#adadad"></path><path d="M-16.2 202.3L0 360.3L0 309.7Z" fill="#291867" stroke="#adadad"></path><path d="M-16.2 202.3L0 309.7L0 271.3Z" fill="#07050b" stroke="#adadad"></path><path d="M58.3 158L44.5 188.7L98.3 170.3Z" fill="#291867" stroke="#adadad"></path><path d="M282.3 839L310.5 840L269.3 787.7Z" fill="#22164f" stroke="#adadad"></path><path d="M366.3 860.3L388.8 848.7L363.3 837.7Z" fill="#1b1338" stroke="#adadad"></path><path d="M282.3 839L269.3 787.7L223 802Z" fill="#311a7f" stroke="#adadad"></path><path d="M511 28.3L505 39.7L509.3 49.7Z" fill="#291867" stroke="#adadad"></path><path d="M509.3 49.7L505 39.7L497.5 49.7Z" fill="#431ab1" stroke="#adadad"></path><path d="M74.8 765.3L128 765L113.5 678.7Z" fill="#431ab1" stroke="#adadad"></path><path d="M133.8 817.3L167.5 791.7L156.8 778.7Z" fill="#311a7f" stroke="#adadad"></path><path d="M156.8 778.7L167.5 791.7L176.8 751.3Z" fill="#391b98" stroke="#adadad"></path><path d="M675 732.3L675 722L618.3 716Z" fill="#311a7f" stroke="#adadad"></path><path d="M675 714.7L691.3 764.3L675 663.7Z" fill="#391b98" stroke="#adadad"></path><path d="M-15.2 557L-10.2 585.7L0 549Z" fill="#431ab1" stroke="#adadad"></path><path d="M620.8 113L576 67L612.3 131.7Z" fill="#311a7f" stroke="#adadad"></path><path d="M366.3 860.3L363.3 837.7L338.8 838.3Z" fill="#6600ff" stroke="#adadad"></path><path d="M363.3 837.7L388.8 848.7L385.5 821.3Z" fill="#150e22" stroke="#adadad"></path><path d="M476.3 874.7L500.5 836L489 819Z" fill="#22164f" stroke="#adadad"></path><path d="M241 852.7L282.3 839L223 802Z" fill="#150e22" stroke="#adadad"></path><path d="M310.5 840L340.5 880.7L338.8 838.3Z" fill="#07050b" stroke="#adadad"></path><path d="M26.8 705.7L50.3 693.3L52.3 684Z" fill="#311a7f" stroke="#adadad"></path><path d="M52.3 684L50.3 693.3L113.5 678.7Z" fill="#291867" stroke="#adadad"></path><path d="M0 656.3L52.3 684L26.8 644.3Z" fill="#311a7f" stroke="#adadad"></path><path d="M76.3 137L58.3 158L98.3 170.3Z" fill="#22164f" stroke="#adadad"></path><path d="M44.5 188.7L-8.2 215L0 270Z" fill="#431ab1" stroke="#adadad"></path><path d="M499.3 0L459.8 20.3L505 39.7Z" fill="#291867" stroke="#adadad"></path><path d="M505 39.7L459.8 20.3L497.5 49.7Z" fill="#431ab1" stroke="#adadad"></path><path d="M382.3 34.3L330.8 11.3L372.5 57Z" fill="#311a7f" stroke="#adadad"></path><path d="M76.5 136.3L98.3 170.3L137.3 157.7Z" fill="#6600ff" stroke="#adadad"></path><path d="M104 87L76.5 136.3L137.3 157.7Z" fill="#150e22" stroke="#adadad"></path><path d="M29.8 140.7L36.8 163.3L58.3 158Z" fill="#07050b" stroke="#adadad"></path><path d="M436.5 854.7L470.3 804.3L424 831.3Z" fill="#4d17cb" stroke="#adadad"></path><path d="M489 819L500.5 836L538 790.3Z" fill="#291867" stroke="#adadad"></path><path d="M542.3 793.7L582.5 812.7L542 768.3Z" fill="#07050b" stroke="#adadad"></path><path d="M619.5 753.3L675 732.3L618.3 716Z" fill="#4d17cb" stroke="#adadad"></path><path d="M-10.2 585.7L0 624L18.5 610Z" fill="#6600ff" stroke="#adadad"></path><path d="M675 187.3L675 132.3L652.5 146.3Z" fill="#22164f" stroke="#adadad"></path><path d="M652.5 146.3L663.3 104.3L620.8 113Z" fill="#291867" stroke="#adadad"></path><path d="M620.8 113L621.3 73L576 67Z" fill="#07050b" stroke="#adadad"></path><path d="M686.3 224.7L675 132.3L675 187.3Z" fill="#5910e5" stroke="#adadad"></path><path d="M691.3 764.3L675 732.3L619.5 753.3Z" fill="#22164f" stroke="#adadad"></path><path d="M675 722L691.3 764.3L675 714.7Z" fill="#1b1338" stroke="#adadad"></path><path d="M362.3 0L330.8 11.3L382.3 34.3Z" fill="#1b1338" stroke="#adadad"></path><path d="M302.5 42.7L270.3 15.3L278.3 74.7Z" fill="#291867" stroke="#adadad"></path><path d="M222 30.3L173 59.7L213.5 70.3Z" fill="#391b98" stroke="#adadad"></path><path d="M213.5 70.3L173 59.7L148 101.3Z" fill="#311a7f" stroke="#adadad"></path><path d="M148 101.3L104 87L137.3 157.7Z" fill="#311a7f" stroke="#adadad"></path><path d="M222 30.3L213.5 70.3L232 63.7Z" fill="#22164f" stroke="#adadad"></path><path d="M275.3 879.7L300.8 851L282.3 839Z" fill="#1b1338" stroke="#adadad"></path><path d="M282.3 839L300.8 851L310.5 840Z" fill="#5910e5" stroke="#adadad"></path><path d="M561.5 44.3L511 28.3L509.3 49.7Z" fill="#5910e5" stroke="#adadad"></path><path d="M416 857.7L436.5 854.7L424 831.3Z" fill="#391b98" stroke="#adadad"></path><path d="M416 857.7L424 831.3L388.8 848.7Z" fill="#311a7f" stroke="#adadad"></path><path d="M395 900L416 857.7L388.8 848.7Z" fill="#291867" stroke="#adadad"></path><path d="M128 765L126 779.3L156.8 778.7Z" fill="#311a7f" stroke="#adadad"></path><path d="M178.5 857.7L241 852.7L223 802Z" fill="#22164f" stroke="#adadad"></path><path d="M115 778.7L126 779.3L128 765Z" fill="#1b1338" stroke="#adadad"></path><path d="M340.5 880.7L366.3 860.3L338.8 838.3Z" fill="#4d17cb" stroke="#adadad"></path><path d="M594.3 8.3L561.5 44.3L576 67Z" fill="#6600ff" stroke="#adadad"></path><path d="M576 67L561.5 44.3L530.3 89Z" fill="#6600ff" stroke="#adadad"></path><path d="M0 624L0 639.7L26.8 644.3Z" fill="#22164f" stroke="#adadad"></path><path d="M74.8 765.3L115 778.7L128 765Z" fill="#07050b" stroke="#adadad"></path><path d="M-10.2 585.7L0 639.7L0 624Z" fill="#291867" stroke="#adadad"></path><path d="M285.3 0L270.3 15.3L302.5 42.7Z" fill="#4d17cb" stroke="#adadad"></path><path d="M270.3 15.3L222 30.3L232 63.7Z" fill="#431ab1" stroke="#adadad"></path><path d="M420.8 0L435.8 45.7L448.5 0Z" fill="#07050b" stroke="#adadad"></path><path d="M420.8 0L382.3 34.3L399.3 44.7Z" fill="#4d17cb" stroke="#adadad"></path><path d="M330.8 11.3L314 0L302.5 42.7Z" fill="#150e22" stroke="#adadad"></path><path d="M539.8 838L538 790.3L500.5 836Z" fill="#1b1338" stroke="#adadad"></path><path d="M556.5 835.3L582.5 812.7L542.3 793.7Z" fill="#431ab1" stroke="#adadad"></path><path d="M370 0L362.3 0L382.3 34.3Z" fill="#07050b" stroke="#adadad"></path><path d="M29.8 140.7L58.3 158L76.3 137Z" fill="#311a7f" stroke="#adadad"></path><path d="M58.3 158L36.8 163.3L44.5 188.7Z" fill="#1b1338" stroke="#adadad"></path><path d="M29.8 140.7L76.3 137L76.5 136.3Z" fill="#391b98" stroke="#adadad"></path><path d="M111.3 786.7L115 778.7L74.8 765.3Z" fill="#391b98" stroke="#adadad"></path><path d="M126 779.3L122 800.3L156.8 778.7Z" fill="#391b98" stroke="#adadad"></path><path d="M448.5 0L435.8 45.7L459.8 20.3Z" fill="#4d17cb" stroke="#adadad"></path><path d="M362.3 0L331.8 0L330.8 11.3Z" fill="#431ab1" stroke="#adadad"></path><path d="M657.3 88.7L621.3 73L620.8 113Z" fill="#07050b" stroke="#adadad"></path><path d="M675 132.3L663.3 104.3L652.5 146.3Z" fill="#311a7f" stroke="#adadad"></path><path d="M331.8 0L320.5 0L330.8 11.3Z" fill="#291867" stroke="#adadad"></path><path d="M320.5 0L314 0L330.8 11.3Z" fill="#311a7f" stroke="#adadad"></path><path d="M270.3 15.3L246.5 0L222 30.3Z" fill="#07050b" stroke="#adadad"></path><path d="M522.8 853.7L539.8 838L500.5 836Z" fill="#5910e5" stroke="#adadad"></path><path d="M-10.2 687L0 656.3L0 639.7Z" fill="#4d17cb" stroke="#adadad"></path><path d="M0 639.7L0 656.3L26.8 644.3Z" fill="#22164f" stroke="#adadad"></path><path d="M0 698L0 656.3L-10.2 687Z" fill="#150e22" stroke="#adadad"></path><path d="M499.3 0L505 39.7L511 28.3Z" fill="#150e22" stroke="#adadad"></path><path d="M499.3 0L448.5 0L459.8 20.3Z" fill="#391b98" stroke="#adadad"></path><path d="M148.8 48L148 101.3L173 59.7Z" fill="#22164f" stroke="#adadad"></path><path d="M148.8 48L104 87L148 101.3Z" fill="#431ab1" stroke="#adadad"></path><path d="M559 847.7L556.5 835.3L539.8 838Z" fill="#07050b" stroke="#adadad"></path><path d="M539.8 838L556.5 835.3L542.3 793.7Z" fill="#6600ff" stroke="#adadad"></path><path d="M582.5 812.7L624.5 799L619.5 753.3Z" fill="#150e22" stroke="#adadad"></path><path d="M178.5 857.7L223 802L167.5 791.7Z" fill="#07050b" stroke="#adadad"></path><path d="M300.8 851L340.5 880.7L310.5 840Z" fill="#391b98" stroke="#adadad"></path><path d="M621.3 73L619.8 63.7L576 67Z" fill="#1b1338" stroke="#adadad"></path><path d="M507.5 -6.7L433 -8.7L448.5 0Z" fill="#1b1338" stroke="#adadad"></path><path d="M657.3 88.7L619.8 63.7L621.3 73Z" fill="#22164f" stroke="#adadad"></path><path d="M314 0L285.3 0L302.5 42.7Z" fill="#1b1338" stroke="#adadad"></path><path d="M-16.2 202.3L-8.2 215L44.5 188.7Z" fill="#431ab1" stroke="#adadad"></path><path d="M0 270L-16.2 202.3L0 271.3Z" fill="#1b1338" stroke="#adadad"></path><path d="M74.8 765.3L113.5 678.7L50.3 693.3Z" fill="#431ab1" stroke="#adadad"></path><path d="M115 778.7L111.3 786.7L126 779.3Z" fill="#6600ff" stroke="#adadad"></path><path d="M608.3 827.3L624.5 799L582.5 812.7Z" fill="#07050b" stroke="#adadad"></path><path d="M675 101L657.3 88.7L663.3 104.3Z" fill="#4d17cb" stroke="#adadad"></path><path d="M663.3 104.3L657.3 88.7L620.8 113Z" fill="#4d17cb" stroke="#adadad"></path><path d="M0 656.3L26.8 705.7L52.3 684Z" fill="#1b1338" stroke="#adadad"></path><path d="M370 0L338.5 -10.7L362.3 0Z" fill="#6600ff" stroke="#adadad"></path><path d="M362.3 0L338.5 -10.7L331.8 0Z" fill="#6600ff" stroke="#adadad"></path><path d="M331.8 0L338.5 -10.7L320.5 0Z" fill="#5910e5" stroke="#adadad"></path><path d="M320.5 0L338.5 -10.7L314 0Z" fill="#07050b" stroke="#adadad"></path><path d="M314 0L338.5 -10.7L285.3 0Z" fill="#391b98" stroke="#adadad"></path><path d="M420.8 0L433 -8.7L370 0Z" fill="#07050b" stroke="#adadad"></path><path d="M448.5 0L433 -8.7L420.8 0Z" fill="#22164f" stroke="#adadad"></path><path d="M525.3 11.3L511 28.3L561.5 44.3Z" fill="#07050b" stroke="#adadad"></path><path d="M433 -8.7L338.5 -10.7L370 0Z" fill="#4d17cb" stroke="#adadad"></path><path d="M686.3 224.7L675 101L675 132.3Z" fill="#291867" stroke="#adadad"></path><path d="M675 132.3L675 101L663.3 104.3Z" fill="#391b98" stroke="#adadad"></path><path d="M675 72.7L675 101L686.3 224.7Z" fill="#311a7f" stroke="#adadad"></path><path d="M476.3 874.7L489 819L436.5 854.7Z" fill="#1b1338" stroke="#adadad"></path><path d="M476.3 874.7L522.8 853.7L500.5 836Z" fill="#311a7f" stroke="#adadad"></path><path d="M556.5 835.3L559 847.7L582.5 812.7Z" fill="#5910e5" stroke="#adadad"></path><path d="M451.5 873.3L436.5 854.7L416 857.7Z" fill="#4d17cb" stroke="#adadad"></path><path d="M557.5 14.7L525.3 11.3L561.5 44.3Z" fill="#5910e5" stroke="#adadad"></path><path d="M141.3 25.3L148.8 48L173.8 0Z" fill="#5910e5" stroke="#adadad"></path><path d="M132.8 32.7L148.8 48L141.3 25.3Z" fill="#22164f" stroke="#adadad"></path><path d="M427.8 900L451.5 873.3L416 857.7Z" fill="#4d17cb" stroke="#adadad"></path><path d="M395 900L388.8 848.7L366.3 860.3Z" fill="#1b1338" stroke="#adadad"></path><path d="M133.8 817.3L122 800.3L87.3 821.3Z" fill="#1b1338" stroke="#adadad"></path><path d="M111.3 786.7L122 800.3L126 779.3Z" fill="#391b98" stroke="#adadad"></path><path d="M26.8 705.7L74.8 765.3L50.3 693.3Z" fill="#391b98" stroke="#adadad"></path><path d="M525.3 11.3L499.3 0L511 28.3Z" fill="#6600ff" stroke="#adadad"></path><path d="M20.8 69L67.5 106L60.5 26.7Z" fill="#07050b" stroke="#adadad"></path><path d="M104 87L67.5 106L76.5 136.3Z" fill="#4d17cb" stroke="#adadad"></path><path d="M0 157.3L-16.2 202.3L44.5 188.7Z" fill="#6600ff" stroke="#adadad"></path><path d="M335.8 900L340.5 880.7L319.3 900Z" fill="#5910e5" stroke="#adadad"></path><path d="M209.8 -8.7L246.5 0L285.3 0Z" fill="#291867" stroke="#adadad"></path><path d="M285.3 0L246.5 0L270.3 15.3Z" fill="#1b1338" stroke="#adadad"></path><path d="M67.5 106L29.8 140.7L76.5 136.3Z" fill="#431ab1" stroke="#adadad"></path><path d="M249 869.3L252.3 868.3L241 852.7Z" fill="#391b98" stroke="#adadad"></path><path d="M241 852.7L252.3 868.3L282.3 839Z" fill="#07050b" stroke="#adadad"></path><path d="M464.3 900L476.3 874.7L451.5 873.3Z" fill="#431ab1" stroke="#adadad"></path><path d="M451.5 873.3L476.3 874.7L436.5 854.7Z" fill="#311a7f" stroke="#adadad"></path><path d="M560.5 900L559 847.7L522.8 853.7Z" fill="#431ab1" stroke="#adadad"></path><path d="M522.8 853.7L559 847.7L539.8 838Z" fill="#431ab1" stroke="#adadad"></path><path d="M136.8 830L133.8 817.3L134 838.7Z" fill="#431ab1" stroke="#adadad"></path><path d="M122 800.3L133.8 817.3L156.8 778.7Z" fill="#4d17cb" stroke="#adadad"></path><path d="M0 157.3L44.5 188.7L36.8 163.3Z" fill="#22164f" stroke="#adadad"></path><path d="M-8.2 215L-16.2 202.3L0 270Z" fill="#291867" stroke="#adadad"></path><path d="M547.8 -9.7L557.5 14.7L594.3 8.3Z" fill="#431ab1" stroke="#adadad"></path><path d="M594.3 8.3L557.5 14.7L561.5 44.3Z" fill="#22164f" stroke="#adadad"></path><path d="M525.3 11.3L522.8 0L499.3 0Z" fill="#311a7f" stroke="#adadad"></path><path d="M675 72.7L619.8 63.7L657.3 88.7Z" fill="#6600ff" stroke="#adadad"></path><path d="M198.8 875.7L249 869.3L241 852.7Z" fill="#5910e5" stroke="#adadad"></path><path d="M252.3 868.3L275.3 879.7L282.3 839Z" fill="#22164f" stroke="#adadad"></path><path d="M530 0L522.8 0L525.3 11.3Z" fill="#6600ff" stroke="#adadad"></path><path d="M499.3 0L507.5 -6.7L448.5 0Z" fill="#6600ff" stroke="#adadad"></path><path d="M675 804.3L691.3 764.3L619.5 753.3Z" fill="#1b1338" stroke="#adadad"></path><path d="M675 732.3L691.3 764.3L675 722Z" fill="#150e22" stroke="#adadad"></path><path d="M687.3 445.7L691.3 764.3L691.3 272.3Z" fill="#311a7f" stroke="#adadad"></path><path d="M675 804.3L619.5 753.3L624.5 799Z" fill="#22164f" stroke="#adadad"></path><path d="M559 847.7L608.3 827.3L582.5 812.7Z" fill="#291867" stroke="#adadad"></path><path d="M547.8 -9.7L507.5 -6.7L522.8 0Z" fill="#07050b" stroke="#adadad"></path><path d="M522.8 0L507.5 -6.7L499.3 0Z" fill="#391b98" stroke="#adadad"></path><path d="M252.5 877.3L275.3 879.7L252.3 868.3Z" fill="#22164f" stroke="#adadad"></path><path d="M557.5 14.7L530 0L525.3 11.3Z" fill="#07050b" stroke="#adadad"></path><path d="M0 656.3L0 698L26.8 705.7Z" fill="#5910e5" stroke="#adadad"></path><path d="M26.8 705.7L27.5 762.3L74.8 765.3Z" fill="#6600ff" stroke="#adadad"></path><path d="M-10.2 687L0 639.7L-10.2 585.7Z" fill="#6600ff" stroke="#adadad"></path><path d="M215.8 900L252.5 877.3L249 869.3Z" fill="#22164f" stroke="#adadad"></path><path d="M249 869.3L252.5 877.3L252.3 868.3Z" fill="#1b1338" stroke="#adadad"></path><path d="M-15.2 557L-10.2 687L-10.2 585.7Z" fill="#22164f" stroke="#adadad"></path><path d="M134 838.7L133.8 817.3L100.5 847Z" fill="#391b98" stroke="#adadad"></path><path d="M133.8 817.3L136.8 830L167.5 791.7Z" fill="#22164f" stroke="#adadad"></path><path d="M122 800.3L111.3 786.7L87.3 821.3Z" fill="#4d17cb" stroke="#adadad"></path><path d="M148.8 48L122.3 41.7L104 87Z" fill="#6600ff" stroke="#adadad"></path><path d="M0 149L0 157.3L29.8 140.7Z" fill="#391b98" stroke="#adadad"></path><path d="M132.8 32.7L122.3 41.7L148.8 48Z" fill="#431ab1" stroke="#adadad"></path><path d="M0 149L29.8 140.7L0 142Z" fill="#391b98" stroke="#adadad"></path><path d="M29.8 140.7L0 157.3L36.8 163.3Z" fill="#22164f" stroke="#adadad"></path><path d="M675 47.3L675 72.7L686.3 224.7Z" fill="#6600ff" stroke="#adadad"></path><path d="M675 101L675 72.7L657.3 88.7Z" fill="#1b1338" stroke="#adadad"></path><path d="M557.5 14.7L547.8 -9.7L530 0Z" fill="#22164f" stroke="#adadad"></path><path d="M340.5 880.7L300.8 851L319.3 900Z" fill="#311a7f" stroke="#adadad"></path><path d="M335.8 900L369.5 900L340.5 880.7Z" fill="#5910e5" stroke="#adadad"></path><path d="M340.5 880.7L369.5 900L366.3 860.3Z" fill="#22164f" stroke="#adadad"></path><path d="M369.5 900L395 900L366.3 860.3Z" fill="#291867" stroke="#adadad"></path><path d="M148.8 48L173 59.7L173.8 0Z" fill="#1b1338" stroke="#adadad"></path><path d="M136.8 830L178.5 857.7L167.5 791.7Z" fill="#4d17cb" stroke="#adadad"></path><path d="M319.3 900L275.3 879.7L284 900Z" fill="#4d17cb" stroke="#adadad"></path><path d="M319.3 900L300.8 851L275.3 879.7Z" fill="#311a7f" stroke="#adadad"></path><path d="M183 0L173 59.7L222 30.3Z" fill="#431ab1" stroke="#adadad"></path><path d="M2.8 104.7L67.5 106L20.8 69Z" fill="#431ab1" stroke="#adadad"></path><path d="M395 900L427.8 900L416 857.7Z" fill="#22164f" stroke="#adadad"></path><path d="M476.3 874.7L491.5 900L522.8 853.7Z" fill="#4d17cb" stroke="#adadad"></path><path d="M284 900L275.3 879.7L255.8 896.7Z" fill="#22164f" stroke="#adadad"></path><path d="M0 142L29.8 140.7L0 131.7Z" fill="#311a7f" stroke="#adadad"></path><path d="M0 157.3L0 149L-16.2 202.3Z" fill="#150e22" stroke="#adadad"></path><path d="M338.5 -10.7L209.8 -8.7L285.3 0Z" fill="#07050b" stroke="#adadad"></path><path d="M246.5 0L209.8 -8.7L222 30.3Z" fill="#431ab1" stroke="#adadad"></path><path d="M87.3 821.3L111.3 786.7L74.8 765.3Z" fill="#311a7f" stroke="#adadad"></path><path d="M136.8 830L134 838.7L178.5 857.7Z" fill="#291867" stroke="#adadad"></path><path d="M209.8 -8.7L183 0L222 30.3Z" fill="#391b98" stroke="#adadad"></path><path d="M594.3 8.3L576 67L619.8 63.7Z" fill="#5910e5" stroke="#adadad"></path><path d="M530 0L547.8 -9.7L522.8 0Z" fill="#391b98" stroke="#adadad"></path><path d="M507.5 -6.7L547.8 -9.7L433 -8.7Z" fill="#6600ff" stroke="#adadad"></path><path d="M433 -8.7L547.8 -9.7L338.5 -10.7Z" fill="#1b1338" stroke="#adadad"></path><path d="M0 131.7L29.8 140.7L2.8 104.7Z" fill="#4d17cb" stroke="#adadad"></path><path d="M0 149L0 142L-16.2 202.3Z" fill="#431ab1" stroke="#adadad"></path><path d="M29.8 140.7L67.5 106L2.8 104.7Z" fill="#1b1338" stroke="#adadad"></path><path d="M427.8 900L464.3 900L451.5 873.3Z" fill="#291867" stroke="#adadad"></path><path d="M559 847.7L609.8 856.3L608.3 827.3Z" fill="#150e22" stroke="#adadad"></path><path d="M614.5 0L594.3 8.3L619.8 63.7Z" fill="#22164f" stroke="#adadad"></path><path d="M255.8 896.7L275.3 879.7L252.5 877.3Z" fill="#4d17cb" stroke="#adadad"></path><path d="M675 823L675 804.3L624.5 799Z" fill="#311a7f" stroke="#adadad"></path><path d="M675 823L652.3 845.7L675 827.7Z" fill="#311a7f" stroke="#adadad"></path><path d="M209.8 -8.7L173.8 0L183 0Z" fill="#07050b" stroke="#adadad"></path><path d="M183 0L173.8 0L173 59.7Z" fill="#22164f" stroke="#adadad"></path><path d="M209.3 900L198.8 875.7L186.5 900Z" fill="#431ab1" stroke="#adadad"></path><path d="M178.5 857.7L198.8 875.7L241 852.7Z" fill="#1b1338" stroke="#adadad"></path><path d="M-10.2 687L0 727.7L0 698Z" fill="#5910e5" stroke="#adadad"></path><path d="M0 698L0 727.7L26.8 705.7Z" fill="#291867" stroke="#adadad"></path><path d="M215.8 900L255.8 896.7L252.5 877.3Z" fill="#291867" stroke="#adadad"></path><path d="M0 727.7L27.5 762.3L26.8 705.7Z" fill="#22164f" stroke="#adadad"></path><path d="M464.3 900L491.5 900L476.3 874.7Z" fill="#5910e5" stroke="#adadad"></path><path d="M104 87L60.5 26.7L67.5 106Z" fill="#4d17cb" stroke="#adadad"></path><path d="M0 142L0 131.7L-16.2 202.3Z" fill="#431ab1" stroke="#adadad"></path><path d="M122.3 41.7L60.5 26.7L104 87Z" fill="#07050b" stroke="#adadad"></path><path d="M587.8 900L609.8 856.3L559 847.7Z" fill="#6600ff" stroke="#adadad"></path><path d="M48.5 807.7L87.3 821.3L74.8 765.3Z" fill="#5910e5" stroke="#adadad"></path><path d="M209.3 900L215.8 900L198.8 875.7Z" fill="#4d17cb" stroke="#adadad"></path><path d="M675 72.7L675 47.3L619.8 63.7Z" fill="#6600ff" stroke="#adadad"></path><path d="M675 0L675 47.3L686.3 224.7Z" fill="#291867" stroke="#adadad"></path><path d="M587.8 900L618.5 857.7L609.8 856.3Z" fill="#07050b" stroke="#adadad"></path><path d="M609.8 856.3L618.5 857.7L608.3 827.3Z" fill="#07050b" stroke="#adadad"></path><path d="M675 823L624.5 799L652.3 845.7Z" fill="#150e22" stroke="#adadad"></path><path d="M675 804.3L675 823L691.3 764.3Z" fill="#150e22" stroke="#adadad"></path><path d="M-10.2 687L0 750.3L0 727.7Z" fill="#1b1338" stroke="#adadad"></path><path d="M0 727.7L0 750.3L27.5 762.3Z" fill="#150e22" stroke="#adadad"></path><path d="M48.5 807.7L79.3 832L87.3 821.3Z" fill="#5910e5" stroke="#adadad"></path><path d="M-10.2 687L0 751L0 750.3Z" fill="#6600ff" stroke="#adadad"></path><path d="M0 750.3L0 751L27.5 762.3Z" fill="#431ab1" stroke="#adadad"></path><path d="M624.3 0L614.5 0L619.8 63.7Z" fill="#22164f" stroke="#adadad"></path><path d="M594.3 8.3L614.5 0L547.8 -9.7Z" fill="#6600ff" stroke="#adadad"></path><path d="M198.8 875.7L178.5 857.7L186.5 900Z" fill="#311a7f" stroke="#adadad"></path><path d="M198.8 875.7L215.8 900L249 869.3Z" fill="#1b1338" stroke="#adadad"></path><path d="M255.8 896.7L215.8 900L284 900Z" fill="#150e22" stroke="#adadad"></path><path d="M652.3 845.7L624.5 799L608.3 827.3Z" fill="#22164f" stroke="#adadad"></path><path d="M675 823L675 827.7L691.3 764.3Z" fill="#431ab1" stroke="#adadad"></path><path d="M186.5 900L178.5 857.7L159 900Z" fill="#6600ff" stroke="#adadad"></path><path d="M618.5 857.7L652.3 845.7L608.3 827.3Z" fill="#291867" stroke="#adadad"></path><path d="M122.3 41.7L132.8 32.7L98.5 0Z" fill="#1b1338" stroke="#adadad"></path><path d="M0 131.7L0 57.7L-16.2 202.3Z" fill="#1b1338" stroke="#adadad"></path><path d="M48.5 807.7L74.8 765.3L27.5 762.3Z" fill="#4d17cb" stroke="#adadad"></path><path d="M87.3 821.3L100.5 847L133.8 817.3Z" fill="#431ab1" stroke="#adadad"></path><path d="M79.3 832L100.5 847L87.3 821.3Z" fill="#431ab1" stroke="#adadad"></path><path d="M675 47.3L624.3 0L619.8 63.7Z" fill="#5910e5" stroke="#adadad"></path><path d="M614.5 0L624.3 0L547.8 -9.7Z" fill="#22164f" stroke="#adadad"></path><path d="M26.8 809.3L48.5 807.7L27.5 762.3Z" fill="#5910e5" stroke="#adadad"></path><path d="M657.3 900L652.3 845.7L618.5 857.7Z" fill="#07050b" stroke="#adadad"></path><path d="M657.3 900L658.3 846L652.3 845.7Z" fill="#431ab1" stroke="#adadad"></path><path d="M652.3 845.7L658.3 846L675 827.7Z" fill="#5910e5" stroke="#adadad"></path><path d="M491.5 900L560.5 900L522.8 853.7Z" fill="#1b1338" stroke="#adadad"></path><path d="M560.5 900L562 900L559 847.7Z" fill="#291867" stroke="#adadad"></path><path d="M159 900L178.5 857.7L134 838.7Z" fill="#5910e5" stroke="#adadad"></path><path d="M98.5 0L132.8 32.7L141.3 25.3Z" fill="#391b98" stroke="#adadad"></path><path d="M0 57.7L18.5 69.3L20.8 69Z" fill="#291867" stroke="#adadad"></path><path d="M20.8 69L18.5 69.3L2.8 104.7Z" fill="#291867" stroke="#adadad"></path><path d="M562 900L587.8 900L559 847.7Z" fill="#291867" stroke="#adadad"></path><path d="M173.8 0L98.5 0L141.3 25.3Z" fill="#4d17cb" stroke="#adadad"></path><path d="M209.8 -8.7L98.5 0L173.8 0Z" fill="#6600ff" stroke="#adadad"></path><path d="M89 0.3L60.5 26.7L122.3 41.7Z" fill="#22164f" stroke="#adadad"></path><path d="M79.3 832L62.5 840.3L100.5 847Z" fill="#22164f" stroke="#adadad"></path><path d="M106.3 872.7L159 900L134 838.7Z" fill="#1b1338" stroke="#adadad"></path><path d="M48.5 807.7L62.5 840.3L79.3 832Z" fill="#4d17cb" stroke="#adadad"></path><path d="M-0.2 791.7L26.8 809.3L27.5 762.3Z" fill="#1b1338" stroke="#adadad"></path><path d="M27.8 833L62.5 840.3L48.5 807.7Z" fill="#5910e5" stroke="#adadad"></path><path d="M106.3 872.7L134 838.7L100.5 847Z" fill="#391b98" stroke="#adadad"></path><path d="M209.8 -8.7L94.3 0L98.5 0Z" fill="#150e22" stroke="#adadad"></path><path d="M98.5 0L94.3 0L122.3 41.7Z" fill="#4d17cb" stroke="#adadad"></path><path d="M62.5 840.3L106.3 872.7L100.5 847Z" fill="#291867" stroke="#adadad"></path><path d="M21.8 0L89 0.3L94.3 0Z" fill="#391b98" stroke="#adadad"></path><path d="M94.3 0L89 0.3L122.3 41.7Z" fill="#6600ff" stroke="#adadad"></path><path d="M26.8 809.3L23.5 818.7L48.5 807.7Z" fill="#311a7f" stroke="#adadad"></path><path d="M0 751L-0.2 791.7L27.5 762.3Z" fill="#5910e5" stroke="#adadad"></path><path d="M-10.2 687L-0.2 791.7L0 751Z" fill="#291867" stroke="#adadad"></path><path d="M18.8 814.7L23.5 818.7L26.8 809.3Z" fill="#07050b" stroke="#adadad"></path><path d="M60.5 900L118.3 900L106.3 872.7Z" fill="#07050b" stroke="#adadad"></path><path d="M0 798.3L18.8 814.7L26.8 809.3Z" fill="#22164f" stroke="#adadad"></path><path d="M-10.2 687L0 798.3L-0.2 791.7Z" fill="#6600ff" stroke="#adadad"></path><path d="M-0.2 791.7L0 798.3L26.8 809.3Z" fill="#4d17cb" stroke="#adadad"></path><path d="M691.3 272.3L675 0L686.3 224.7Z" fill="#5910e5" stroke="#adadad"></path><path d="M675 47.3L675 0L624.3 0Z" fill="#291867" stroke="#adadad"></path><path d="M624.3 0L675 0L547.8 -9.7Z" fill="#07050b" stroke="#adadad"></path><path d="M41.8 18.3L20.8 69L60.5 26.7Z" fill="#4d17cb" stroke="#adadad"></path><path d="M0 37.3L0 57.7L20.8 69Z" fill="#291867" stroke="#adadad"></path><path d="M18.5 69.3L0 57.7L2.8 104.7Z" fill="#291867" stroke="#adadad"></path><path d="M2.8 104.7L0 57.7L0 131.7Z" fill="#6600ff" stroke="#adadad"></path><path d="M0 874.7L27.8 833L18.8 814.7Z" fill="#07050b" stroke="#adadad"></path><path d="M18.8 814.7L27.8 833L23.5 818.7Z" fill="#150e22" stroke="#adadad"></path><path d="M23.5 818.7L27.8 833L48.5 807.7Z" fill="#150e22" stroke="#adadad"></path><path d="M106.3 872.7L118.3 900L159 900Z" fill="#4d17cb" stroke="#adadad"></path><path d="M89 0.3L41.8 18.3L60.5 26.7Z" fill="#4d17cb" stroke="#adadad"></path><path d="M60.5 900L106.3 872.7L62.5 840.3Z" fill="#4d17cb" stroke="#adadad"></path><path d="M587.8 900L657.3 900L618.5 857.7Z" fill="#311a7f" stroke="#adadad"></path><path d="M658.3 846L675 900L675 827.7Z" fill="#150e22" stroke="#adadad"></path><path d="M675 827.7L675 900L691.3 764.3Z" fill="#22164f" stroke="#adadad"></path><path d="M41.8 18.3L0 37.3L20.8 69Z" fill="#07050b" stroke="#adadad"></path><path d="M0 57.7L0 37.3L-16.2 202.3Z" fill="#5910e5" stroke="#adadad"></path><path d="M657.3 900L675 900L658.3 846Z" fill="#1b1338" stroke="#adadad"></path><path d="M89 0.3L21.8 0L41.8 18.3Z" fill="#22164f" stroke="#adadad"></path><path d="M41.8 18.3L21.8 0L0 37.3Z" fill="#391b98" stroke="#adadad"></path><path d="M209.8 -8.7L21.8 0L94.3 0Z" fill="#5910e5" stroke="#adadad"></path><path d="M25.8 900L62.5 840.3L27.8 833Z" fill="#07050b" stroke="#adadad"></path><path d="M25.8 900L60.5 900L62.5 840.3Z" fill="#431ab1" stroke="#adadad"></path><path d="M209.8 -8.7L0 0L21.8 0Z" fill="#5910e5" stroke="#adadad"></path><path d="M21.8 0L0 0L0 37.3Z" fill="#5910e5" stroke="#adadad"></path><path d="M0 37.3L0 0L-16.2 202.3Z" fill="#22164f" stroke="#adadad"></path><path d="M-10.2 687L0 874.7L0 798.3Z" fill="#291867" stroke="#adadad"></path><path d="M0 798.3L0 874.7L18.8 814.7Z" fill="#1b1338" stroke="#adadad"></path><path d="M0 874.7L25.8 900L27.8 833Z" fill="#150e22" stroke="#adadad"></path><path d="M-10.2 687L0 900L0 874.7Z" fill="#22164f" stroke="#adadad"></path><path d="M0 874.7L0 900L25.8 900Z" fill="#6600ff" stroke="#adadad"></path></g></svg>