<svg id="visual" viewBox="0 0 675 900" width="675" height="900" xmlns="http://www.w3.org/2000/svg" xmlns:xlink="http://www.w3.org/1999/xlink" version="1.1"><g stroke-width="1" stroke-linejoin="bevel"><path d="M347.8 453.3L392 423L326.8 429Z" fill="#462a4d" stroke="#adadad"></path><path d="M392 423L370.3 391L326.8 429Z" fill="#a6345e" stroke="#adadad"></path><path d="M392 423L373.5 391.3L370.3 391Z" fill="#dc4848" stroke="#adadad"></path><path d="M347.8 453.3L388.8 444L392 423Z" fill="#462a4d" stroke="#adadad"></path><path d="M373.5 391.3L361.3 385.3L370.3 391Z" fill="#ed5d34" stroke="#adadad"></path><path d="M370.3 391L361.3 385.3L326.8 429Z" fill="#642f59" stroke="#adadad"></path><path d="M321.5 388.7L312.5 417.7L326.8 429Z" fill="#f7770f" stroke="#adadad"></path><path d="M326.8 429L333.5 492L347.8 453.3Z" fill="#2c233c" stroke="#adadad"></path><path d="M361.3 385.3L321.5 388.7L326.8 429Z" fill="#0d0e11" stroke="#adadad"></path><path d="M347.8 453.3L398.8 463.3L388.8 444Z" fill="#1a1a27" stroke="#adadad"></path><path d="M388.8 444L421 437.7L392 423Z" fill="#85315f" stroke="#adadad"></path><path d="M306 381.3L296 416.7L312.5 417.7Z" fill="#c33a56" stroke="#adadad"></path><path d="M312.5 417.7L296 416.7L326.8 429Z" fill="#a6345e" stroke="#adadad"></path><path d="M398.8 463.3L421 437.7L388.8 444Z" fill="#f7770f" stroke="#adadad"></path><path d="M392 423L421.5 362.3L373.5 391.3Z" fill="#462a4d" stroke="#adadad"></path><path d="M308.5 360L306 381.3L321.5 388.7Z" fill="#462a4d" stroke="#adadad"></path><path d="M321.5 388.7L306 381.3L312.5 417.7Z" fill="#2c233c" stroke="#adadad"></path><path d="M284.3 490.3L333.5 492L326.8 429Z" fill="#2c233c" stroke="#adadad"></path><path d="M347.8 453.3L333.5 492L398.8 463.3Z" fill="#462a4d" stroke="#adadad"></path><path d="M481.3 414.7L434 423.3L482.5 459Z" fill="#1a1a27" stroke="#adadad"></path><path d="M421 437.7L434 423.3L392 423Z" fill="#462a4d" stroke="#adadad"></path><path d="M421.5 362.3L384.3 349L373.5 391.3Z" fill="#1a1a27" stroke="#adadad"></path><path d="M373.5 391.3L384.3 349L361.3 385.3Z" fill="#ed5d34" stroke="#adadad"></path><path d="M361.3 385.3L308.5 360L321.5 388.7Z" fill="#a6345e" stroke="#adadad"></path><path d="M354 322.7L308.5 360L361.3 385.3Z" fill="#462a4d" stroke="#adadad"></path><path d="M306 381.3L290.5 371.3L296 416.7Z" fill="#2c233c" stroke="#adadad"></path><path d="M349.5 524.3L415.3 484L398.8 463.3Z" fill="#642f59" stroke="#adadad"></path><path d="M398.8 463.3L415.3 484L421 437.7Z" fill="#0d0e11" stroke="#adadad"></path><path d="M308.5 360L290.5 371.3L306 381.3Z" fill="#0d0e11" stroke="#adadad"></path><path d="M434 423.3L421.5 362.3L392 423Z" fill="#dc4848" stroke="#adadad"></path><path d="M452.8 394.7L424.8 362.3L421.5 362.3Z" fill="#dc4848" stroke="#adadad"></path><path d="M421.5 362.3L422.3 356.7L384.3 349Z" fill="#ed5d34" stroke="#adadad"></path><path d="M424.8 362.3L422.3 356.7L421.5 362.3Z" fill="#dc4848" stroke="#adadad"></path><path d="M314.8 510L336.3 510.7L333.5 492Z" fill="#462a4d" stroke="#adadad"></path><path d="M333.5 492L349.5 524.3L398.8 463.3Z" fill="#462a4d" stroke="#adadad"></path><path d="M259.8 425.7L270.3 456.3L296 416.7Z" fill="#642f59" stroke="#adadad"></path><path d="M296 416.7L270.3 456.3L326.8 429Z" fill="#642f59" stroke="#adadad"></path><path d="M425.8 326L380 327.3L384.3 349Z" fill="#85315f" stroke="#adadad"></path><path d="M384.3 349L354 322.7L361.3 385.3Z" fill="#85315f" stroke="#adadad"></path><path d="M481.3 414.7L452.8 394.7L434 423.3Z" fill="#f7770f" stroke="#adadad"></path><path d="M434 423.3L452.8 394.7L421.5 362.3Z" fill="#dc4848" stroke="#adadad"></path><path d="M424.8 362.3L425.8 326L422.3 356.7Z" fill="#ed5d34" stroke="#adadad"></path><path d="M284.3 490.3L314.8 510L333.5 492Z" fill="#ed5d34" stroke="#adadad"></path><path d="M267.3 367.3L259.8 425.7L296 416.7Z" fill="#0d0e11" stroke="#adadad"></path><path d="M380 327.3L354 322.7L384.3 349Z" fill="#ed5d34" stroke="#adadad"></path><path d="M268.8 338.7L267.3 367.3L290.5 371.3Z" fill="#1a1a27" stroke="#adadad"></path><path d="M270.3 456.3L284.3 490.3L326.8 429Z" fill="#462a4d" stroke="#adadad"></path><path d="M316 535L349.5 524.3L336.3 510.7Z" fill="#1a1a27" stroke="#adadad"></path><path d="M336.3 510.7L349.5 524.3L333.5 492Z" fill="#0d0e11" stroke="#adadad"></path><path d="M268.8 338.7L290.5 371.3L308.5 360Z" fill="#85315f" stroke="#adadad"></path><path d="M290.5 371.3L267.3 367.3L296 416.7Z" fill="#0d0e11" stroke="#adadad"></path><path d="M425.8 326L368 314.7L380 327.3Z" fill="#1a1a27" stroke="#adadad"></path><path d="M380 327.3L368 314.7L354 322.7Z" fill="#1a1a27" stroke="#adadad"></path><path d="M271.3 330L268.8 338.7L308.5 360Z" fill="#85315f" stroke="#adadad"></path><path d="M482.5 401.7L461.5 382L452.8 394.7Z" fill="#a6345e" stroke="#adadad"></path><path d="M452.8 394.7L461.5 382L424.8 362.3Z" fill="#462a4d" stroke="#adadad"></path><path d="M422.3 356.7L425.8 326L384.3 349Z" fill="#c33a56" stroke="#adadad"></path><path d="M270.3 456.3L263 479.7L284.3 490.3Z" fill="#85315f" stroke="#adadad"></path><path d="M284.3 490.3L304.8 528.3L314.8 510Z" fill="#f7770f" stroke="#adadad"></path><path d="M246.5 467.7L263 479.7L270.3 456.3Z" fill="#a6345e" stroke="#adadad"></path><path d="M461.5 382L425.8 326L424.8 362.3Z" fill="#85315f" stroke="#adadad"></path><path d="M283.3 534.7L304.8 528.3L284.3 490.3Z" fill="#dc4848" stroke="#adadad"></path><path d="M314.8 510L316 535L336.3 510.7Z" fill="#dc4848" stroke="#adadad"></path><path d="M425.8 326L363.3 302.3L368 314.7Z" fill="#462a4d" stroke="#adadad"></path><path d="M368 314.7L363.3 302.3L354 322.7Z" fill="#a6345e" stroke="#adadad"></path><path d="M304.8 528.3L316 535L314.8 510Z" fill="#ed5d34" stroke="#adadad"></path><path d="M380.5 561L420 527L349.5 524.3Z" fill="#a6345e" stroke="#adadad"></path><path d="M349.5 524.3L420 527L415.3 484Z" fill="#642f59" stroke="#adadad"></path><path d="M482.5 459L434 423.3L421 437.7Z" fill="#f7770f" stroke="#adadad"></path><path d="M236.5 467L246.5 467.7L259.8 425.7Z" fill="#2c233c" stroke="#adadad"></path><path d="M259.8 425.7L246.5 467.7L270.3 456.3Z" fill="#0d0e11" stroke="#adadad"></path><path d="M263 479.7L249 483.3L284.3 490.3Z" fill="#a6345e" stroke="#adadad"></path><path d="M482.5 459L421 437.7L415.3 484Z" fill="#f7770f" stroke="#adadad"></path><path d="M271.3 330L308.5 360L287 312.3Z" fill="#c33a56" stroke="#adadad"></path><path d="M232 386L232.3 415.7L259.8 425.7Z" fill="#2c233c" stroke="#adadad"></path><path d="M481.3 414.7L482.5 401.7L452.8 394.7Z" fill="#1a1a27" stroke="#adadad"></path><path d="M490.3 320.3L445.5 295L425.8 326Z" fill="#f7770f" stroke="#adadad"></path><path d="M362 271L356.5 297L363.3 302.3Z" fill="#ed5d34" stroke="#adadad"></path><path d="M363.3 302.3L356.5 297L354 322.7Z" fill="#462a4d" stroke="#adadad"></path><path d="M246.5 467.7L249 483.3L263 479.7Z" fill="#0d0e11" stroke="#adadad"></path><path d="M232 386L259.8 425.7L267.3 367.3Z" fill="#a6345e" stroke="#adadad"></path><path d="M246.5 467.7L240.5 473.3L249 483.3Z" fill="#dc4848" stroke="#adadad"></path><path d="M287 312.3L308.5 360L354 322.7Z" fill="#f7770f" stroke="#adadad"></path><path d="M268.8 338.7L252.8 348.3L267.3 367.3Z" fill="#462a4d" stroke="#adadad"></path><path d="M444.8 517.7L451.8 510L415.3 484Z" fill="#462a4d" stroke="#adadad"></path><path d="M420 527L444.8 517.7L415.3 484Z" fill="#f7770f" stroke="#adadad"></path><path d="M465.5 497.3L482.5 459L415.3 484Z" fill="#462a4d" stroke="#adadad"></path><path d="M481.3 414.7L509.3 399.3L482.5 401.7Z" fill="#a6345e" stroke="#adadad"></path><path d="M236.5 467L240.5 473.3L246.5 467.7Z" fill="#dc4848" stroke="#adadad"></path><path d="M271.3 330L252.8 348.3L268.8 338.7Z" fill="#dc4848" stroke="#adadad"></path><path d="M483.8 516.3L465.5 497.3L451.8 510Z" fill="#0d0e11" stroke="#adadad"></path><path d="M451.8 510L465.5 497.3L415.3 484Z" fill="#1a1a27" stroke="#adadad"></path><path d="M232.3 415.7L236.5 467L259.8 425.7Z" fill="#2c233c" stroke="#adadad"></path><path d="M307.8 280L287 312.3L354 322.7Z" fill="#462a4d" stroke="#adadad"></path><path d="M217.8 269.3L233.5 355.3L252.8 348.3Z" fill="#1a1a27" stroke="#adadad"></path><path d="M233.5 355.3L232 386L267.3 367.3Z" fill="#ed5d34" stroke="#adadad"></path><path d="M232 386L225.5 407L232.3 415.7Z" fill="#0d0e11" stroke="#adadad"></path><path d="M232.3 415.7L209.3 439.7L236.5 467Z" fill="#642f59" stroke="#adadad"></path><path d="M203.3 551L283.3 534.7L249 483.3Z" fill="#642f59" stroke="#adadad"></path><path d="M249 483.3L283.3 534.7L284.3 490.3Z" fill="#642f59" stroke="#adadad"></path><path d="M304.8 528.3L283.3 534.7L316 535Z" fill="#0d0e11" stroke="#adadad"></path><path d="M339.5 572.7L349.5 524.3L316 535Z" fill="#2c233c" stroke="#adadad"></path><path d="M339.5 572.7L373.3 559.3L349.5 524.3Z" fill="#85315f" stroke="#adadad"></path><path d="M420 527L452 533.3L444.8 517.7Z" fill="#dc4848" stroke="#adadad"></path><path d="M373.3 559.3L380.5 561L349.5 524.3Z" fill="#f7770f" stroke="#adadad"></path><path d="M217.8 269.3L252.8 348.3L271.3 330Z" fill="#a6345e" stroke="#adadad"></path><path d="M252.8 348.3L233.5 355.3L267.3 367.3Z" fill="#c33a56" stroke="#adadad"></path><path d="M167 402L210.3 431L225.5 407Z" fill="#c33a56" stroke="#adadad"></path><path d="M451.8 580.7L452 533.3L420 527Z" fill="#dc4848" stroke="#adadad"></path><path d="M444.8 517.7L452 533.3L451.8 510Z" fill="#1a1a27" stroke="#adadad"></path><path d="M465.5 497.3L498.5 482.3L482.5 459Z" fill="#f7770f" stroke="#adadad"></path><path d="M167 402L225.5 407L232 386Z" fill="#ed5d34" stroke="#adadad"></path><path d="M225.5 407L210.3 431L232.3 415.7Z" fill="#0d0e11" stroke="#adadad"></path><path d="M236.5 467L196.8 496L240.5 473.3Z" fill="#642f59" stroke="#adadad"></path><path d="M240.5 473.3L196.8 496L249 483.3Z" fill="#2c233c" stroke="#adadad"></path><path d="M210.3 431L209.3 439.7L232.3 415.7Z" fill="#0d0e11" stroke="#adadad"></path><path d="M356.5 297L307.8 280L354 322.7Z" fill="#85315f" stroke="#adadad"></path><path d="M287 312.3L249.5 261L271.3 330Z" fill="#462a4d" stroke="#adadad"></path><path d="M439.8 263.7L362 271L363.3 302.3Z" fill="#0d0e11" stroke="#adadad"></path><path d="M356.5 297L360.3 269.7L307.8 280Z" fill="#0d0e11" stroke="#adadad"></path><path d="M331.3 576L339.5 572.7L316 535Z" fill="#f7770f" stroke="#adadad"></path><path d="M373.3 559.3L387 584L380.5 561Z" fill="#85315f" stroke="#adadad"></path><path d="M483.8 516.3L498.5 482.3L465.5 497.3Z" fill="#ed5d34" stroke="#adadad"></path><path d="M530 420.3L509.3 399.3L481.3 414.7Z" fill="#f7770f" stroke="#adadad"></path><path d="M508.5 455.7L481.3 414.7L482.5 459Z" fill="#ed5d34" stroke="#adadad"></path><path d="M482.5 401.7L509.3 399.3L461.5 382Z" fill="#0d0e11" stroke="#adadad"></path><path d="M362 271L360.3 269.7L356.5 297Z" fill="#642f59" stroke="#adadad"></path><path d="M498.5 482.3L508.5 455.7L482.5 459Z" fill="#2c233c" stroke="#adadad"></path><path d="M490.3 320.3L425.8 326L461.5 382Z" fill="#0d0e11" stroke="#adadad"></path><path d="M425.8 326L445.5 295L363.3 302.3Z" fill="#0d0e11" stroke="#adadad"></path><path d="M362 271L394.3 226.3L360.3 269.7Z" fill="#462a4d" stroke="#adadad"></path><path d="M314 575L331.3 576L316 535Z" fill="#0d0e11" stroke="#adadad"></path><path d="M339.5 572.7L387 584L373.3 559.3Z" fill="#0d0e11" stroke="#adadad"></path><path d="M452 533.3L483.8 516.3L451.8 510Z" fill="#dc4848" stroke="#adadad"></path><path d="M319.8 600.7L253 613.3L316.5 612.3Z" fill="#c33a56" stroke="#adadad"></path><path d="M283.3 534.7L314 575L316 535Z" fill="#2c233c" stroke="#adadad"></path><path d="M319.5 256.7L284 276.7L307.8 280Z" fill="#ed5d34" stroke="#adadad"></path><path d="M307.8 280L284 276.7L287 312.3Z" fill="#f7770f" stroke="#adadad"></path><path d="M363.3 611.7L387 584L339.5 572.7Z" fill="#462a4d" stroke="#adadad"></path><path d="M380.5 561L387 584L420 527Z" fill="#ed5d34" stroke="#adadad"></path><path d="M452 533.3L503 554L483.8 516.3Z" fill="#ed5d34" stroke="#adadad"></path><path d="M329.3 602.3L339.5 572.7L331.3 576Z" fill="#f7770f" stroke="#adadad"></path><path d="M509.3 399.3L490.3 320.3L461.5 382Z" fill="#0d0e11" stroke="#adadad"></path><path d="M512 528.7L515.3 483.3L498.5 482.3Z" fill="#f7770f" stroke="#adadad"></path><path d="M498.5 482.3L515.3 483.3L508.5 455.7Z" fill="#0d0e11" stroke="#adadad"></path><path d="M530 420.3L529.3 408.7L509.3 399.3Z" fill="#462a4d" stroke="#adadad"></path><path d="M490.3 320.3L468.3 294L445.5 295Z" fill="#1a1a27" stroke="#adadad"></path><path d="M445.5 295L439.8 263.7L363.3 302.3Z" fill="#462a4d" stroke="#adadad"></path><path d="M318.8 232.7L319.5 256.7L319.5 231Z" fill="#f7770f" stroke="#adadad"></path><path d="M360.3 269.7L319.5 256.7L307.8 280Z" fill="#1a1a27" stroke="#adadad"></path><path d="M530 420.3L481.3 414.7L508.5 455.7Z" fill="#2c233c" stroke="#adadad"></path><path d="M509.3 399.3L549.8 324L490.3 320.3Z" fill="#c33a56" stroke="#adadad"></path><path d="M537.3 443L530 420.3L508.5 455.7Z" fill="#642f59" stroke="#adadad"></path><path d="M515.3 483.3L532.3 459L508.5 455.7Z" fill="#642f59" stroke="#adadad"></path><path d="M468.3 294L439.8 263.7L445.5 295Z" fill="#ed5d34" stroke="#adadad"></path><path d="M185 490L196.8 496L209.3 439.7Z" fill="#462a4d" stroke="#adadad"></path><path d="M209.3 439.7L196.8 496L236.5 467Z" fill="#a6345e" stroke="#adadad"></path><path d="M532.3 459L537.3 443L508.5 455.7Z" fill="#462a4d" stroke="#adadad"></path><path d="M530 420.3L557.8 425.3L529.3 408.7Z" fill="#0d0e11" stroke="#adadad"></path><path d="M490.3 320.3L495.5 305.7L468.3 294Z" fill="#c33a56" stroke="#adadad"></path><path d="M468.3 294L480.8 277.3L439.8 263.7Z" fill="#ed5d34" stroke="#adadad"></path><path d="M549.8 324L495.5 305.7L490.3 320.3Z" fill="#a6345e" stroke="#adadad"></path><path d="M319.8 600.7L331.3 576L314 575Z" fill="#c33a56" stroke="#adadad"></path><path d="M319.8 600.7L329.3 602.3L331.3 576Z" fill="#1a1a27" stroke="#adadad"></path><path d="M319.8 600.7L314 575L253 613.3Z" fill="#a6345e" stroke="#adadad"></path><path d="M450 605.7L451.8 580.7L387 584Z" fill="#dc4848" stroke="#adadad"></path><path d="M387 584L451.8 580.7L420 527Z" fill="#a6345e" stroke="#adadad"></path><path d="M483.8 516.3L512 528.7L498.5 482.3Z" fill="#0d0e11" stroke="#adadad"></path><path d="M545.8 463L545 450.7L532.3 459Z" fill="#462a4d" stroke="#adadad"></path><path d="M319.8 600.7L320 601.7L329.3 602.3Z" fill="#85315f" stroke="#adadad"></path><path d="M316.5 612.3L320 601.7L319.8 600.7Z" fill="#a6345e" stroke="#adadad"></path><path d="M451.8 580.7L459.5 577.7L452 533.3Z" fill="#2c233c" stroke="#adadad"></path><path d="M503 554L512 528.7L483.8 516.3Z" fill="#85315f" stroke="#adadad"></path><path d="M532.3 459L545 450.7L537.3 443Z" fill="#462a4d" stroke="#adadad"></path><path d="M172.5 482.3L185 490L209.3 439.7Z" fill="#f7770f" stroke="#adadad"></path><path d="M234.5 583.3L314 575L283.3 534.7Z" fill="#85315f" stroke="#adadad"></path><path d="M167 402L209.3 439.7L210.3 431Z" fill="#0d0e11" stroke="#adadad"></path><path d="M545.8 463L532.3 459L515.3 483.3Z" fill="#c33a56" stroke="#adadad"></path><path d="M537.3 443L557.8 425.3L530 420.3Z" fill="#a6345e" stroke="#adadad"></path><path d="M558 329.3L549.8 324L509.3 399.3Z" fill="#a6345e" stroke="#adadad"></path><path d="M495.5 305.7L480.8 277.3L468.3 294Z" fill="#642f59" stroke="#adadad"></path><path d="M346.8 633L363.3 611.7L329.3 602.3Z" fill="#ed5d34" stroke="#adadad"></path><path d="M329.3 602.3L363.3 611.7L339.5 572.7Z" fill="#c33a56" stroke="#adadad"></path><path d="M547 512L545.8 463L515.3 483.3Z" fill="#c33a56" stroke="#adadad"></path><path d="M461.5 242L410.3 238L439.8 263.7Z" fill="#a6345e" stroke="#adadad"></path><path d="M439.8 263.7L410.3 238L362 271Z" fill="#462a4d" stroke="#adadad"></path><path d="M182.5 335.7L232 386L233.5 355.3Z" fill="#1a1a27" stroke="#adadad"></path><path d="M161.8 354L167 402L232 386Z" fill="#f7770f" stroke="#adadad"></path><path d="M319.5 231L319.5 256.7L360.3 269.7Z" fill="#85315f" stroke="#adadad"></path><path d="M290.8 238L270 250L284 276.7Z" fill="#dc4848" stroke="#adadad"></path><path d="M284 276.7L249.5 261L287 312.3Z" fill="#85315f" stroke="#adadad"></path><path d="M290.8 238L284 276.7L319.5 256.7Z" fill="#85315f" stroke="#adadad"></path><path d="M459.5 577.7L482.8 572L452 533.3Z" fill="#462a4d" stroke="#adadad"></path><path d="M497.3 592L482.8 572L459.5 577.7Z" fill="#ed5d34" stroke="#adadad"></path><path d="M450 605.7L459.5 577.7L451.8 580.7Z" fill="#2c233c" stroke="#adadad"></path><path d="M203.3 551L249 483.3L196.8 496Z" fill="#85315f" stroke="#adadad"></path><path d="M320 601.7L316.5 612.3L329.3 602.3Z" fill="#c33a56" stroke="#adadad"></path><path d="M270 250L249.5 261L284 276.7Z" fill="#0d0e11" stroke="#adadad"></path><path d="M482.8 572L503 554L452 533.3Z" fill="#c33a56" stroke="#adadad"></path><path d="M512 528.7L536 521.3L515.3 483.3Z" fill="#ed5d34" stroke="#adadad"></path><path d="M362.5 214.7L319.5 231L360.3 269.7Z" fill="#c33a56" stroke="#adadad"></path><path d="M318.8 232.7L290.8 238L319.5 256.7Z" fill="#a6345e" stroke="#adadad"></path><path d="M134 431.3L172.5 482.3L209.3 439.7Z" fill="#1a1a27" stroke="#adadad"></path><path d="M188.5 558L203.3 551L171.8 555Z" fill="#f7770f" stroke="#adadad"></path><path d="M317 229.3L290.8 238L318.8 232.7Z" fill="#2c233c" stroke="#adadad"></path><path d="M270 250L258.3 246L249.5 261Z" fill="#f7770f" stroke="#adadad"></path><path d="M217.8 269.3L182.5 335.7L233.5 355.3Z" fill="#2c233c" stroke="#adadad"></path><path d="M325.5 212.3L317 229.3L319.5 231Z" fill="#642f59" stroke="#adadad"></path><path d="M319.5 231L317 229.3L318.8 232.7Z" fill="#2c233c" stroke="#adadad"></path><path d="M586.8 427L557.8 425.3L589 441Z" fill="#85315f" stroke="#adadad"></path><path d="M545 450.7L557.8 425.3L537.3 443Z" fill="#ed5d34" stroke="#adadad"></path><path d="M428 209.3L394.3 226.3L410.3 238Z" fill="#642f59" stroke="#adadad"></path><path d="M410.3 238L394.3 226.3L362 271Z" fill="#c33a56" stroke="#adadad"></path><path d="M203.3 551L196.8 496L171.8 555Z" fill="#c33a56" stroke="#adadad"></path><path d="M503 554L536 521.3L512 528.7Z" fill="#1a1a27" stroke="#adadad"></path><path d="M589 441L557.8 425.3L545 450.7Z" fill="#dc4848" stroke="#adadad"></path><path d="M290.8 238L258.3 246L270 250Z" fill="#85315f" stroke="#adadad"></path><path d="M249.5 261L217.8 269.3L271.3 330Z" fill="#85315f" stroke="#adadad"></path><path d="M246 233L258.3 246L290.8 238Z" fill="#f7770f" stroke="#adadad"></path><path d="M203.3 551L234.5 583.3L283.3 534.7Z" fill="#2c233c" stroke="#adadad"></path><path d="M447.8 645.7L450 605.7L387 584Z" fill="#a6345e" stroke="#adadad"></path><path d="M482.8 572L497.3 592L503 554Z" fill="#462a4d" stroke="#adadad"></path><path d="M480.8 277.3L461.5 242L439.8 263.7Z" fill="#85315f" stroke="#adadad"></path><path d="M380.3 182.7L362.5 214.7L394.3 226.3Z" fill="#0d0e11" stroke="#adadad"></path><path d="M394.3 226.3L362.5 214.7L360.3 269.7Z" fill="#dc4848" stroke="#adadad"></path><path d="M317 229.3L325.5 212.3L290.8 238Z" fill="#a6345e" stroke="#adadad"></path><path d="M569.5 509L547 512L536 521.3Z" fill="#0d0e11" stroke="#adadad"></path><path d="M536 521.3L547 512L515.3 483.3Z" fill="#2c233c" stroke="#adadad"></path><path d="M567.8 591.7L536 521.3L503 554Z" fill="#ed5d34" stroke="#adadad"></path><path d="M246 233L217.8 269.3L249.5 261Z" fill="#f7770f" stroke="#adadad"></path><path d="M136.8 313L165.8 343.7L182.5 335.7Z" fill="#85315f" stroke="#adadad"></path><path d="M182.5 335.7L161.8 354L232 386Z" fill="#642f59" stroke="#adadad"></path><path d="M165.8 343.7L161.8 354L182.5 335.7Z" fill="#1a1a27" stroke="#adadad"></path><path d="M167 402L134 431.3L209.3 439.7Z" fill="#a6345e" stroke="#adadad"></path><path d="M307 640.7L346.8 633L316.5 612.3Z" fill="#462a4d" stroke="#adadad"></path><path d="M316.5 612.3L346.8 633L329.3 602.3Z" fill="#0d0e11" stroke="#adadad"></path><path d="M363.3 611.7L371 648L387 584Z" fill="#2c233c" stroke="#adadad"></path><path d="M338.8 209.3L325.5 212.3L319.5 231Z" fill="#dc4848" stroke="#adadad"></path><path d="M362.5 214.7L338.8 209.3L319.5 231Z" fill="#0d0e11" stroke="#adadad"></path><path d="M570.5 380.7L509.3 399.3L529.3 408.7Z" fill="#1a1a27" stroke="#adadad"></path><path d="M495.5 305.7L526.3 278.7L480.8 277.3Z" fill="#c33a56" stroke="#adadad"></path><path d="M480.8 277.3L493 229.3L461.5 242Z" fill="#1a1a27" stroke="#adadad"></path><path d="M579.8 374.3L570.5 380.7L586.8 427Z" fill="#a6345e" stroke="#adadad"></path><path d="M557.8 425.3L570.5 380.7L529.3 408.7Z" fill="#1a1a27" stroke="#adadad"></path><path d="M135.8 407.3L144.3 395.7L108.3 391.3Z" fill="#642f59" stroke="#adadad"></path><path d="M161.8 354L144.3 395.7L167 402Z" fill="#2c233c" stroke="#adadad"></path><path d="M195.5 236.7L203.5 271.3L217.8 269.3Z" fill="#a6345e" stroke="#adadad"></path><path d="M217.8 269.3L203.5 271.3L182.5 335.7Z" fill="#85315f" stroke="#adadad"></path><path d="M246 233L249.5 261L258.3 246Z" fill="#a6345e" stroke="#adadad"></path><path d="M181.5 561.7L188.5 558L171.8 555Z" fill="#dc4848" stroke="#adadad"></path><path d="M202.3 582.3L222.3 598L234.5 583.3Z" fill="#a6345e" stroke="#adadad"></path><path d="M196.8 496L185 490L171.8 555Z" fill="#1a1a27" stroke="#adadad"></path><path d="M222.3 598L253 613.3L234.5 583.3Z" fill="#85315f" stroke="#adadad"></path><path d="M234.5 583.3L253 613.3L314 575Z" fill="#0d0e11" stroke="#adadad"></path><path d="M450 605.7L497.3 592L459.5 577.7Z" fill="#f7770f" stroke="#adadad"></path><path d="M570.5 380.7L558 329.3L509.3 399.3Z" fill="#c33a56" stroke="#adadad"></path><path d="M549.8 324L526.3 278.7L495.5 305.7Z" fill="#85315f" stroke="#adadad"></path><path d="M560.8 294.7L526.3 278.7L549.8 324Z" fill="#0d0e11" stroke="#adadad"></path><path d="M252.3 198.3L246 233L290.8 238Z" fill="#dc4848" stroke="#adadad"></path><path d="M338.8 209.3L328.8 203.7L325.5 212.3Z" fill="#1a1a27" stroke="#adadad"></path><path d="M325.5 212.3L252.3 198.3L290.8 238Z" fill="#2c233c" stroke="#adadad"></path><path d="M338.3 181.3L328.8 203.7L338.8 209.3Z" fill="#a6345e" stroke="#adadad"></path><path d="M338.3 181.3L338.8 209.3L362.5 214.7Z" fill="#f7770f" stroke="#adadad"></path><path d="M202.3 582.3L234.5 583.3L203.3 551Z" fill="#0d0e11" stroke="#adadad"></path><path d="M130.3 361.3L144.3 395.7L161.8 354Z" fill="#462a4d" stroke="#adadad"></path><path d="M144.3 395.7L135.8 407.3L167 402Z" fill="#1a1a27" stroke="#adadad"></path><path d="M465.5 200.3L428 209.3L461.5 242Z" fill="#f7770f" stroke="#adadad"></path><path d="M461.5 242L428 209.3L410.3 238Z" fill="#462a4d" stroke="#adadad"></path><path d="M188.5 558L202.3 582.3L203.3 551Z" fill="#f7770f" stroke="#adadad"></path><path d="M253 613.3L307 640.7L316.5 612.3Z" fill="#dc4848" stroke="#adadad"></path><path d="M308.8 663.3L307 640.7L296 669Z" fill="#1a1a27" stroke="#adadad"></path><path d="M135.8 407.3L134 431.3L167 402Z" fill="#642f59" stroke="#adadad"></path><path d="M171.8 555L185 490L135.8 502.7Z" fill="#462a4d" stroke="#adadad"></path><path d="M188.5 558L181.5 561.7L202.3 582.3Z" fill="#0d0e11" stroke="#adadad"></path><path d="M586.8 427L570.5 380.7L557.8 425.3Z" fill="#1a1a27" stroke="#adadad"></path><path d="M570.5 380.7L576 353.7L558 329.3Z" fill="#dc4848" stroke="#adadad"></path><path d="M350.3 676L371 648L346.8 633Z" fill="#c33a56" stroke="#adadad"></path><path d="M346.8 633L371 648L363.3 611.7Z" fill="#642f59" stroke="#adadad"></path><path d="M450 605.7L496.5 615.3L497.3 592Z" fill="#462a4d" stroke="#adadad"></path><path d="M579.8 374.3L576 353.7L570.5 380.7Z" fill="#0d0e11" stroke="#adadad"></path><path d="M558 329.3L560.8 294.7L549.8 324Z" fill="#a6345e" stroke="#adadad"></path><path d="M567.8 591.7L569.5 509L536 521.3Z" fill="#f7770f" stroke="#adadad"></path><path d="M547 512L569.5 509L545.8 463Z" fill="#ed5d34" stroke="#adadad"></path><path d="M589 441L545 450.7L592.8 449.7Z" fill="#1a1a27" stroke="#adadad"></path><path d="M135.8 502.7L185 490L172.5 482.3Z" fill="#dc4848" stroke="#adadad"></path><path d="M181.5 561.7L192.8 588.7L202.3 582.3Z" fill="#85315f" stroke="#adadad"></path><path d="M592.8 449.7L545 450.7L545.8 463Z" fill="#642f59" stroke="#adadad"></path><path d="M627.3 391.7L610.5 339.3L579.8 374.3Z" fill="#f7770f" stroke="#adadad"></path><path d="M195.5 236.7L175.8 281.3L203.5 271.3Z" fill="#a6345e" stroke="#adadad"></path><path d="M203.5 271.3L175.8 281.3L182.5 335.7Z" fill="#1a1a27" stroke="#adadad"></path><path d="M127 358.3L130.3 361.3L128 333Z" fill="#a6345e" stroke="#adadad"></path><path d="M589 441L590.5 432.7L586.8 427Z" fill="#a6345e" stroke="#adadad"></path><path d="M560.8 294.7L558 329.3L592.8 317.7Z" fill="#dc4848" stroke="#adadad"></path><path d="M526.3 278.7L493 229.3L480.8 277.3Z" fill="#1a1a27" stroke="#adadad"></path><path d="M202.3 582.3L192.8 588.7L222.3 598Z" fill="#a6345e" stroke="#adadad"></path><path d="M296 669L307 640.7L253 613.3Z" fill="#462a4d" stroke="#adadad"></path><path d="M143.8 592.3L192.8 588.7L181.5 561.7Z" fill="#2c233c" stroke="#adadad"></path><path d="M569.5 509L592.8 449.7L545.8 463Z" fill="#dc4848" stroke="#adadad"></path><path d="M589 441L592.8 449.7L590.5 432.7Z" fill="#c33a56" stroke="#adadad"></path><path d="M130.3 361.3L161.8 354L128 333Z" fill="#0d0e11" stroke="#adadad"></path><path d="M135.8 407.3L120.3 431L134 431.3Z" fill="#462a4d" stroke="#adadad"></path><path d="M453.8 648.3L496.5 615.3L450 605.7Z" fill="#ed5d34" stroke="#adadad"></path><path d="M497.3 592L520.5 608L503 554Z" fill="#ed5d34" stroke="#adadad"></path><path d="M114.5 474.3L172.5 482.3L134 431.3Z" fill="#c33a56" stroke="#adadad"></path><path d="M114.5 474.3L135.8 502.7L172.5 482.3Z" fill="#85315f" stroke="#adadad"></path><path d="M171.8 555L143.8 592.3L181.5 561.7Z" fill="#ed5d34" stroke="#adadad"></path><path d="M571.5 283.3L560.8 294.7L583.5 283Z" fill="#a6345e" stroke="#adadad"></path><path d="M526.3 278.7L537.3 244L493 229.3Z" fill="#1a1a27" stroke="#adadad"></path><path d="M108.3 391.3L120.3 431L135.8 407.3Z" fill="#0d0e11" stroke="#adadad"></path><path d="M371 648L447.8 645.7L387 584Z" fill="#0d0e11" stroke="#adadad"></path><path d="M429 143.7L380.3 182.7L428 209.3Z" fill="#a6345e" stroke="#adadad"></path><path d="M428 209.3L380.3 182.7L394.3 226.3Z" fill="#85315f" stroke="#adadad"></path><path d="M328.8 203.7L252.3 198.3L325.5 212.3Z" fill="#0d0e11" stroke="#adadad"></path><path d="M128 333L161.8 354L165.8 343.7Z" fill="#f7770f" stroke="#adadad"></path><path d="M130.3 361.3L108.3 391.3L144.3 395.7Z" fill="#0d0e11" stroke="#adadad"></path><path d="M380.3 182.7L338.3 181.3L362.5 214.7Z" fill="#0d0e11" stroke="#adadad"></path><path d="M438 658.7L453.8 648.3L447.8 645.7Z" fill="#462a4d" stroke="#adadad"></path><path d="M447.8 645.7L453.8 648.3L450 605.7Z" fill="#642f59" stroke="#adadad"></path><path d="M521.3 613.7L520.5 608L520.3 616.7Z" fill="#ed5d34" stroke="#adadad"></path><path d="M496.5 615.3L520.5 608L497.3 592Z" fill="#ed5d34" stroke="#adadad"></path><path d="M296 669L273.3 705.7L301.5 696Z" fill="#0d0e11" stroke="#adadad"></path><path d="M307 640.7L333.3 670.7L346.8 633Z" fill="#ed5d34" stroke="#adadad"></path><path d="M371 648L438 658.7L447.8 645.7Z" fill="#462a4d" stroke="#adadad"></path><path d="M471.5 165.7L465.5 200.3L534.3 188.3Z" fill="#ed5d34" stroke="#adadad"></path><path d="M493 229.3L465.5 200.3L461.5 242Z" fill="#1a1a27" stroke="#adadad"></path><path d="M213.3 216.7L195.5 236.7L246 233Z" fill="#a6345e" stroke="#adadad"></path><path d="M246 233L195.5 236.7L217.8 269.3Z" fill="#1a1a27" stroke="#adadad"></path><path d="M136.8 313L128 333L165.8 343.7Z" fill="#ed5d34" stroke="#adadad"></path><path d="M136.8 313L182.5 335.7L175.8 281.3Z" fill="#642f59" stroke="#adadad"></path><path d="M90 436.7L111.5 441L120.3 431Z" fill="#a6345e" stroke="#adadad"></path><path d="M160 269.3L136.8 313L175.8 281.3Z" fill="#f7770f" stroke="#adadad"></path><path d="M250 164.3L252.3 198.3L294.8 135.3Z" fill="#642f59" stroke="#adadad"></path><path d="M108.3 391.3L130.3 361.3L127 358.3Z" fill="#462a4d" stroke="#adadad"></path><path d="M120.3 431L111.5 441L134 431.3Z" fill="#a6345e" stroke="#adadad"></path><path d="M428 672.3L438 658.7L371 648Z" fill="#c33a56" stroke="#adadad"></path><path d="M520.3 616.7L520.5 608L496.5 615.3Z" fill="#f7770f" stroke="#adadad"></path><path d="M308.8 663.3L333.3 670.7L307 640.7Z" fill="#c33a56" stroke="#adadad"></path><path d="M111.5 441L114.5 474.3L134 431.3Z" fill="#ed5d34" stroke="#adadad"></path><path d="M135.8 502.7L128.3 536.3L171.8 555Z" fill="#642f59" stroke="#adadad"></path><path d="M571.5 283.3L568 284L560.8 294.7Z" fill="#1a1a27" stroke="#adadad"></path><path d="M560.8 294.7L568 284L526.3 278.7Z" fill="#ed5d34" stroke="#adadad"></path><path d="M558 329.3L576 353.7L592.8 317.7Z" fill="#642f59" stroke="#adadad"></path><path d="M308.8 663.3L332.5 671.7L333.3 670.7Z" fill="#642f59" stroke="#adadad"></path><path d="M333.3 670.7L350.3 676L346.8 633Z" fill="#2c233c" stroke="#adadad"></path><path d="M520.3 616.7L496.5 615.3L518 638.3Z" fill="#85315f" stroke="#adadad"></path><path d="M520.5 608L567.8 591.7L503 554Z" fill="#f7770f" stroke="#adadad"></path><path d="M195.5 236.7L160 269.3L175.8 281.3Z" fill="#85315f" stroke="#adadad"></path><path d="M252.3 198.3L213.3 216.7L246 233Z" fill="#ed5d34" stroke="#adadad"></path><path d="M195.5 236.7L177 230L160 269.3Z" fill="#642f59" stroke="#adadad"></path><path d="M545 247L537.3 244L526.3 278.7Z" fill="#f7770f" stroke="#adadad"></path><path d="M518 638.3L496.5 615.3L453.8 648.3Z" fill="#0d0e11" stroke="#adadad"></path><path d="M557.8 620.7L567.8 591.7L520.5 608Z" fill="#dc4848" stroke="#adadad"></path><path d="M84.8 382.7L108.3 391.3L127 358.3Z" fill="#c33a56" stroke="#adadad"></path><path d="M332.5 671.7L350.3 676L333.3 670.7Z" fill="#a6345e" stroke="#adadad"></path><path d="M592.8 317.7L576 353.7L610.5 339.3Z" fill="#1a1a27" stroke="#adadad"></path><path d="M568 284L545 247L526.3 278.7Z" fill="#85315f" stroke="#adadad"></path><path d="M576 353.7L579.8 374.3L610.5 339.3Z" fill="#ed5d34" stroke="#adadad"></path><path d="M296 669L253 613.3L243.5 688Z" fill="#462a4d" stroke="#adadad"></path><path d="M308.8 663.3L301.5 696L332.5 671.7Z" fill="#c33a56" stroke="#adadad"></path><path d="M332.5 671.7L321.8 702.7L350.3 676Z" fill="#462a4d" stroke="#adadad"></path><path d="M571.5 283.3L545 247L568 284Z" fill="#ed5d34" stroke="#adadad"></path><path d="M471.5 165.7L451.8 163L465.5 200.3Z" fill="#1a1a27" stroke="#adadad"></path><path d="M579.8 374.3L586.8 427L627.3 391.7Z" fill="#0d0e11" stroke="#adadad"></path><path d="M360 152L362.5 165.3L401.8 134.7Z" fill="#462a4d" stroke="#adadad"></path><path d="M380.3 182.7L362.5 165.3L338.3 181.3Z" fill="#c33a56" stroke="#adadad"></path><path d="M294.8 135.3L252.3 198.3L328.8 203.7Z" fill="#f7770f" stroke="#adadad"></path><path d="M95 511.3L128.3 536.3L135.8 502.7Z" fill="#642f59" stroke="#adadad"></path><path d="M189.5 185.7L199.3 219.7L213.3 216.7Z" fill="#f7770f" stroke="#adadad"></path><path d="M213.3 216.7L199.3 219.7L195.5 236.7Z" fill="#1a1a27" stroke="#adadad"></path><path d="M388 688.3L428 672.3L371 648Z" fill="#f7770f" stroke="#adadad"></path><path d="M438 658.7L449.5 688.7L453.8 648.3Z" fill="#f7770f" stroke="#adadad"></path><path d="M592.8 317.7L583.5 283L560.8 294.7Z" fill="#a6345e" stroke="#adadad"></path><path d="M571.5 283.3L568 229.7L545 247Z" fill="#c33a56" stroke="#adadad"></path><path d="M627.3 391.7L586.8 427L590.5 432.7Z" fill="#85315f" stroke="#adadad"></path><path d="M592.8 317.7L643.3 281.3L583.5 283Z" fill="#a6345e" stroke="#adadad"></path><path d="M199.3 219.7L177 230L195.5 236.7Z" fill="#ed5d34" stroke="#adadad"></path><path d="M120.3 269.3L106 330.7L136.8 313Z" fill="#a6345e" stroke="#adadad"></path><path d="M382.5 714.7L388 688.3L352.3 717.3Z" fill="#1a1a27" stroke="#adadad"></path><path d="M350.3 676L388 688.3L371 648Z" fill="#a6345e" stroke="#adadad"></path><path d="M449.5 688.7L438 658.7L428 672.3Z" fill="#dc4848" stroke="#adadad"></path><path d="M506.5 693L518 638.3L453.8 648.3Z" fill="#2c233c" stroke="#adadad"></path><path d="M557.8 620.7L520.5 608L521.3 613.7Z" fill="#0d0e11" stroke="#adadad"></path><path d="M557.8 620.7L521.3 613.7L520.3 616.7Z" fill="#2c233c" stroke="#adadad"></path><path d="M569.5 509L614.5 520.3L592.8 449.7Z" fill="#85315f" stroke="#adadad"></path><path d="M136.8 313L106 330.7L128 333Z" fill="#2c233c" stroke="#adadad"></path><path d="M128 333L106 330.7L127 358.3Z" fill="#f7770f" stroke="#adadad"></path><path d="M120.3 269.3L136.8 313L160 269.3Z" fill="#f7770f" stroke="#adadad"></path><path d="M108.3 391.3L90 436.7L120.3 431Z" fill="#1a1a27" stroke="#adadad"></path><path d="M111.5 441L90 436.7L114.5 474.3Z" fill="#a6345e" stroke="#adadad"></path><path d="M114.5 474.3L95 511.3L135.8 502.7Z" fill="#85315f" stroke="#adadad"></path><path d="M62.8 408L90 436.7L108.3 391.3Z" fill="#0d0e11" stroke="#adadad"></path><path d="M646.5 400.3L590.5 432.7L658.5 442Z" fill="#2c233c" stroke="#adadad"></path><path d="M646.5 400.3L627.3 391.7L590.5 432.7Z" fill="#ed5d34" stroke="#adadad"></path><path d="M401.8 134.7L362.5 165.3L380.3 182.7Z" fill="#a6345e" stroke="#adadad"></path><path d="M362.5 165.3L360 152L338.3 181.3Z" fill="#a6345e" stroke="#adadad"></path><path d="M207.8 164.3L189.5 185.7L213.3 216.7Z" fill="#642f59" stroke="#adadad"></path><path d="M614.8 545.3L614.5 520.3L569.5 509Z" fill="#a6345e" stroke="#adadad"></path><path d="M116.8 566.3L171.8 555L128.3 536.3Z" fill="#2c233c" stroke="#adadad"></path><path d="M116.8 566.3L143.8 592.3L171.8 555Z" fill="#dc4848" stroke="#adadad"></path><path d="M182 660.7L253 613.3L222.3 598Z" fill="#462a4d" stroke="#adadad"></path><path d="M465.5 200.3L493 229.3L534.3 188.3Z" fill="#a6345e" stroke="#adadad"></path><path d="M465.5 200.3L451.8 163L428 209.3Z" fill="#2c233c" stroke="#adadad"></path><path d="M106 330.7L84.8 382.7L127 358.3Z" fill="#a6345e" stroke="#adadad"></path><path d="M92 525.7L95 511.3L83.8 524Z" fill="#a6345e" stroke="#adadad"></path><path d="M58.3 504L95 511.3L114.5 474.3Z" fill="#642f59" stroke="#adadad"></path><path d="M243.5 688L253 613.3L182 660.7Z" fill="#0d0e11" stroke="#adadad"></path><path d="M296 669L301.5 696L308.8 663.3Z" fill="#1a1a27" stroke="#adadad"></path><path d="M294.8 135.3L328.8 203.7L338.3 181.3Z" fill="#ed5d34" stroke="#adadad"></path><path d="M184.5 185L148.8 224.7L177 230Z" fill="#1a1a27" stroke="#adadad"></path><path d="M559.8 213.7L537.3 244L545 247Z" fill="#85315f" stroke="#adadad"></path><path d="M534.3 188.3L493 229.3L537.3 244Z" fill="#85315f" stroke="#adadad"></path><path d="M518 638.3L557.8 620.7L520.3 616.7Z" fill="#c33a56" stroke="#adadad"></path><path d="M567.8 591.7L614.8 545.3L569.5 509Z" fill="#642f59" stroke="#adadad"></path><path d="M419.8 738.7L428 672.3L388 688.3Z" fill="#1a1a27" stroke="#adadad"></path><path d="M419.8 738.7L449.5 688.7L428 672.3Z" fill="#c33a56" stroke="#adadad"></path><path d="M518 638.3L543.3 679.3L557.8 620.7Z" fill="#462a4d" stroke="#adadad"></path><path d="M401.8 134.7L354 141L360 152Z" fill="#0d0e11" stroke="#adadad"></path><path d="M360 152L354 141L338.3 181.3Z" fill="#c33a56" stroke="#adadad"></path><path d="M429 143.7L428 209.3L451.8 163Z" fill="#ed5d34" stroke="#adadad"></path><path d="M92 525.7L116.8 566.3L128.3 536.3Z" fill="#642f59" stroke="#adadad"></path><path d="M301.5 696L321.8 702.7L332.5 671.7Z" fill="#dc4848" stroke="#adadad"></path><path d="M148.8 224.7L160 269.3L177 230Z" fill="#f7770f" stroke="#adadad"></path><path d="M148.8 224.7L120.3 269.3L160 269.3Z" fill="#dc4848" stroke="#adadad"></path><path d="M46.5 346.7L62.8 408L84.8 382.7Z" fill="#2c233c" stroke="#adadad"></path><path d="M583.8 602L614.8 545.3L567.8 591.7Z" fill="#a6345e" stroke="#adadad"></path><path d="M658.5 442L590.5 432.7L592.8 449.7Z" fill="#f7770f" stroke="#adadad"></path><path d="M585.8 223.3L568 229.7L583.5 283Z" fill="#0d0e11" stroke="#adadad"></path><path d="M583.5 283L568 229.7L571.5 283.3Z" fill="#642f59" stroke="#adadad"></path><path d="M83.8 524L95 511.3L58.3 504Z" fill="#1a1a27" stroke="#adadad"></path><path d="M95 511.3L92 525.7L128.3 536.3Z" fill="#0d0e11" stroke="#adadad"></path><path d="M438.8 145L429 143.7L451.8 163Z" fill="#a6345e" stroke="#adadad"></path><path d="M557.8 620.7L583.8 602L567.8 591.7Z" fill="#85315f" stroke="#adadad"></path><path d="M658.5 442L592.8 449.7L670.3 494.7Z" fill="#c33a56" stroke="#adadad"></path><path d="M627.3 391.7L675 352L610.5 339.3Z" fill="#c33a56" stroke="#adadad"></path><path d="M640.5 263.7L585.8 223.3L583.5 283Z" fill="#1a1a27" stroke="#adadad"></path><path d="M460.8 125.3L438.8 145L451.8 163Z" fill="#dc4848" stroke="#adadad"></path><path d="M184.5 185L177 230L199.3 219.7Z" fill="#2c233c" stroke="#adadad"></path><path d="M568 229.7L559.8 213.7L545 247Z" fill="#ed5d34" stroke="#adadad"></path><path d="M471.5 165.7L460.8 125.3L451.8 163Z" fill="#c33a56" stroke="#adadad"></path><path d="M182 660.7L222.3 598L192.8 588.7Z" fill="#f7770f" stroke="#adadad"></path><path d="M341.8 728.3L352.3 717.3L321.8 702.7Z" fill="#f7770f" stroke="#adadad"></path><path d="M632.3 567.7L627.3 532.3L614.8 545.3Z" fill="#a6345e" stroke="#adadad"></path><path d="M614.8 545.3L627.3 532.3L614.5 520.3Z" fill="#462a4d" stroke="#adadad"></path><path d="M398 104.3L401.8 134.7L429 143.7Z" fill="#2c233c" stroke="#adadad"></path><path d="M429 143.7L401.8 134.7L380.3 182.7Z" fill="#a6345e" stroke="#adadad"></path><path d="M559.8 213.7L553.3 205.7L537.3 244Z" fill="#c33a56" stroke="#adadad"></path><path d="M207.8 164.3L213.3 216.7L252.3 198.3Z" fill="#85315f" stroke="#adadad"></path><path d="M553.3 205.7L534.3 188.3L537.3 244Z" fill="#1a1a27" stroke="#adadad"></path><path d="M352.3 717.3L350.3 676L321.8 702.7Z" fill="#1a1a27" stroke="#adadad"></path><path d="M352.3 717.3L388 688.3L350.3 676Z" fill="#2c233c" stroke="#adadad"></path><path d="M58.3 504L114.5 474.3L90 436.7Z" fill="#dc4848" stroke="#adadad"></path><path d="M92 525.7L68.5 534.7L116.8 566.3Z" fill="#2c233c" stroke="#adadad"></path><path d="M301 114.7L294.8 135.3L354 141Z" fill="#a6345e" stroke="#adadad"></path><path d="M354 141L294.8 135.3L338.3 181.3Z" fill="#a6345e" stroke="#adadad"></path><path d="M207.8 164.3L184.5 185L189.5 185.7Z" fill="#a6345e" stroke="#adadad"></path><path d="M207.8 164.3L252.3 198.3L250 164.3Z" fill="#f7770f" stroke="#adadad"></path><path d="M189.5 185.7L184.5 185L199.3 219.7Z" fill="#f7770f" stroke="#adadad"></path><path d="M304.8 720L321.8 702.7L301.5 696Z" fill="#0d0e11" stroke="#adadad"></path><path d="M217.8 699.3L242.3 694.3L243.5 688Z" fill="#642f59" stroke="#adadad"></path><path d="M243.5 688L273.3 705.7L296 669Z" fill="#1a1a27" stroke="#adadad"></path><path d="M182 660.7L192.8 588.7L143.8 592.3Z" fill="#ed5d34" stroke="#adadad"></path><path d="M242.3 694.3L273.3 705.7L243.5 688Z" fill="#2c233c" stroke="#adadad"></path><path d="M74.8 327L84.8 382.7L106 330.7Z" fill="#f7770f" stroke="#adadad"></path><path d="M84.8 382.7L62.8 408L108.3 391.3Z" fill="#dc4848" stroke="#adadad"></path><path d="M111.3 602.3L143.8 592.3L116.8 566.3Z" fill="#ed5d34" stroke="#adadad"></path><path d="M130 633.3L182 660.7L143.8 592.3Z" fill="#0d0e11" stroke="#adadad"></path><path d="M251.8 142L235.5 151.3L250 164.3Z" fill="#462a4d" stroke="#adadad"></path><path d="M235.5 151.3L207.8 164.3L250 164.3Z" fill="#462a4d" stroke="#adadad"></path><path d="M148.8 224.7L138.8 220L120.3 269.3Z" fill="#85315f" stroke="#adadad"></path><path d="M120.3 269.3L74.8 327L106 330.7Z" fill="#1a1a27" stroke="#adadad"></path><path d="M184.5 185L138.8 220L148.8 224.7Z" fill="#f7770f" stroke="#adadad"></path><path d="M98.3 213.7L138.8 220L113.3 183.3Z" fill="#642f59" stroke="#adadad"></path><path d="M65.5 327.3L74.8 327L62.5 258.3Z" fill="#0d0e11" stroke="#adadad"></path><path d="M675 456L658.5 442L670.3 494.7Z" fill="#1a1a27" stroke="#adadad"></path><path d="M294.8 135.3L251.8 142L250 164.3Z" fill="#dc4848" stroke="#adadad"></path><path d="M235.5 151.3L230.3 123L207.8 164.3Z" fill="#642f59" stroke="#adadad"></path><path d="M559.8 213.7L576.8 199L553.3 205.7Z" fill="#1a1a27" stroke="#adadad"></path><path d="M553.3 205.7L576.8 199L534.3 188.3Z" fill="#ed5d34" stroke="#adadad"></path><path d="M568 229.7L585.8 223.3L559.8 213.7Z" fill="#dc4848" stroke="#adadad"></path><path d="M643.3 281.3L592.8 317.7L610.5 339.3Z" fill="#0d0e11" stroke="#adadad"></path><path d="M275 765.3L304.8 720L273.3 705.7Z" fill="#dc4848" stroke="#adadad"></path><path d="M273.3 705.7L304.8 720L301.5 696Z" fill="#462a4d" stroke="#adadad"></path><path d="M182 660.7L211.5 690.7L243.5 688Z" fill="#642f59" stroke="#adadad"></path><path d="M242.3 694.3L240.3 720L273.3 705.7Z" fill="#2c233c" stroke="#adadad"></path><path d="M91.3 604.7L111.3 602.3L116.8 566.3Z" fill="#0d0e11" stroke="#adadad"></path><path d="M197.8 722.7L217.8 699.3L211.5 690.7Z" fill="#642f59" stroke="#adadad"></path><path d="M304.8 720L341.8 728.3L321.8 702.7Z" fill="#642f59" stroke="#adadad"></path><path d="M352.3 717.3L382 750.7L382.5 714.7Z" fill="#2c233c" stroke="#adadad"></path><path d="M419.8 738.7L468.3 710L449.5 688.7Z" fill="#1a1a27" stroke="#adadad"></path><path d="M449.5 688.7L506.5 693L453.8 648.3Z" fill="#ed5d34" stroke="#adadad"></path><path d="M578.5 654.7L611.8 607.3L583.8 602Z" fill="#2c233c" stroke="#adadad"></path><path d="M419.8 738.7L388 688.3L382.5 714.7Z" fill="#462a4d" stroke="#adadad"></path><path d="M497 701.7L506.5 693L449.5 688.7Z" fill="#f7770f" stroke="#adadad"></path><path d="M86.3 258L74.8 327L120.3 269.3Z" fill="#85315f" stroke="#adadad"></path><path d="M74.8 327L46.5 346.7L84.8 382.7Z" fill="#0d0e11" stroke="#adadad"></path><path d="M6.8 430.3L50.3 439.7L62.8 408Z" fill="#85315f" stroke="#adadad"></path><path d="M62.8 408L50.3 439.7L90 436.7Z" fill="#0d0e11" stroke="#adadad"></path><path d="M83.8 524L68.5 534.7L92 525.7Z" fill="#dc4848" stroke="#adadad"></path><path d="M583.8 602L632.3 567.7L614.8 545.3Z" fill="#2c233c" stroke="#adadad"></path><path d="M675 456L675 441.3L658.5 442Z" fill="#f7770f" stroke="#adadad"></path><path d="M611.8 607.3L632.3 567.7L583.8 602Z" fill="#dc4848" stroke="#adadad"></path><path d="M111.3 602.3L120 621L143.8 592.3Z" fill="#ed5d34" stroke="#adadad"></path><path d="M157.8 675.7L211.5 690.7L182 660.7Z" fill="#0d0e11" stroke="#adadad"></path><path d="M211.5 690.7L217.8 699.3L243.5 688Z" fill="#dc4848" stroke="#adadad"></path><path d="M120 621L130 633.3L143.8 592.3Z" fill="#c33a56" stroke="#adadad"></path><path d="M55.5 520L68.5 534.7L83.8 524Z" fill="#c33a56" stroke="#adadad"></path><path d="M111.3 602.3L108.5 610.3L120 621Z" fill="#f7770f" stroke="#adadad"></path><path d="M468.3 710L497 701.7L449.5 688.7Z" fill="#462a4d" stroke="#adadad"></path><path d="M50.3 439.7L58.3 504L90 436.7Z" fill="#c33a56" stroke="#adadad"></path><path d="M585.8 223.3L576.8 199L559.8 213.7Z" fill="#dc4848" stroke="#adadad"></path><path d="M495 125.3L460.8 125.3L471.5 165.7Z" fill="#85315f" stroke="#adadad"></path><path d="M342.5 83L301 114.7L354 141Z" fill="#2c233c" stroke="#adadad"></path><path d="M294.8 135.3L275.3 108.3L251.8 142Z" fill="#ed5d34" stroke="#adadad"></path><path d="M251.8 142L230.3 123L235.5 151.3Z" fill="#462a4d" stroke="#adadad"></path><path d="M543.3 679.3L518 638.3L506.5 693Z" fill="#1a1a27" stroke="#adadad"></path><path d="M578.5 654.7L583.8 602L557.8 620.7Z" fill="#a6345e" stroke="#adadad"></path><path d="M103.5 616L108.5 610.3L91.3 604.7Z" fill="#a6345e" stroke="#adadad"></path><path d="M120 621L83.3 633.7L130 633.3Z" fill="#a6345e" stroke="#adadad"></path><path d="M658.5 442L672.3 424.3L646.5 400.3Z" fill="#0d0e11" stroke="#adadad"></path><path d="M675 337.7L643.3 281.3L610.5 339.3Z" fill="#a6345e" stroke="#adadad"></path><path d="M585.8 223.3L646.5 195.7L576.8 199Z" fill="#0d0e11" stroke="#adadad"></path><path d="M675 441.3L672.3 424.3L658.5 442Z" fill="#642f59" stroke="#adadad"></path><path d="M438.8 145L460.8 125.3L429 143.7Z" fill="#642f59" stroke="#adadad"></path><path d="M401.8 134.7L398 104.3L354 141Z" fill="#462a4d" stroke="#adadad"></path><path d="M516.5 143.3L471.5 165.7L534.3 188.3Z" fill="#f7770f" stroke="#adadad"></path><path d="M525.3 722.3L543.3 679.3L506.5 693Z" fill="#462a4d" stroke="#adadad"></path><path d="M672.3 424.3L675.3 409L646.5 400.3Z" fill="#0d0e11" stroke="#adadad"></path><path d="M592.8 449.7L614.5 520.3L670.3 494.7Z" fill="#ed5d34" stroke="#adadad"></path><path d="M672.3 424.3L675 441.3L675.3 409Z" fill="#0d0e11" stroke="#adadad"></path><path d="M675 352L627.3 391.7L646.5 400.3Z" fill="#c33a56" stroke="#adadad"></path><path d="M468.3 710L491 711.3L497 701.7Z" fill="#2c233c" stroke="#adadad"></path><path d="M497 701.7L525.3 722.3L506.5 693Z" fill="#642f59" stroke="#adadad"></path><path d="M463.8 745L491 711.3L468.3 710Z" fill="#c33a56" stroke="#adadad"></path><path d="M670.3 494.7L614.5 520.3L627.3 532.3Z" fill="#f7770f" stroke="#adadad"></path><path d="M675 441.3L682.3 456L675.3 409Z" fill="#ed5d34" stroke="#adadad"></path><path d="M98.3 213.7L120.3 269.3L138.8 220Z" fill="#2c233c" stroke="#adadad"></path><path d="M98.3 213.7L86.3 258L120.3 269.3Z" fill="#c33a56" stroke="#adadad"></path><path d="M58.3 504L55.5 520L83.8 524Z" fill="#f7770f" stroke="#adadad"></path><path d="M91.3 604.7L108.5 610.3L111.3 602.3Z" fill="#642f59" stroke="#adadad"></path><path d="M42.5 504.3L55.5 520L58.3 504Z" fill="#a6345e" stroke="#adadad"></path><path d="M675 514.7L670.3 494.7L627.3 532.3Z" fill="#a6345e" stroke="#adadad"></path><path d="M675 514.7L627.3 532.3L675 566.3Z" fill="#1a1a27" stroke="#adadad"></path><path d="M543.3 679.3L578.5 654.7L557.8 620.7Z" fill="#c33a56" stroke="#adadad"></path><path d="M576.8 199L516.5 143.3L534.3 188.3Z" fill="#462a4d" stroke="#adadad"></path><path d="M450.5 91L429 143.7L460.8 125.3Z" fill="#1a1a27" stroke="#adadad"></path><path d="M450.5 91L398 104.3L429 143.7Z" fill="#c33a56" stroke="#adadad"></path><path d="M197.8 722.7L240.3 720L217.8 699.3Z" fill="#0d0e11" stroke="#adadad"></path><path d="M217.8 699.3L240.3 720L242.3 694.3Z" fill="#462a4d" stroke="#adadad"></path><path d="M386.8 759.3L382 750.7L381.3 772.7Z" fill="#2c233c" stroke="#adadad"></path><path d="M108.5 610.3L103.5 616L120 621Z" fill="#0d0e11" stroke="#adadad"></path><path d="M130 633.3L157.8 675.7L182 660.7Z" fill="#1a1a27" stroke="#adadad"></path><path d="M91.3 604.7L116.8 566.3L68.5 534.7Z" fill="#a6345e" stroke="#adadad"></path><path d="M18.8 299.3L46.5 346.7L65.5 327.3Z" fill="#0d0e11" stroke="#adadad"></path><path d="M65.5 327.3L46.5 346.7L74.8 327Z" fill="#c33a56" stroke="#adadad"></path><path d="M382 750.7L352.3 717.3L341.8 728.3Z" fill="#0d0e11" stroke="#adadad"></path><path d="M382 750.7L419.8 738.7L382.5 714.7Z" fill="#f7770f" stroke="#adadad"></path><path d="M646.3 250.3L640.5 263.7L675 257.7Z" fill="#c33a56" stroke="#adadad"></path><path d="M643.3 281.3L640.5 263.7L583.5 283Z" fill="#2c233c" stroke="#adadad"></path><path d="M143 685L157.8 675.7L130 633.3Z" fill="#462a4d" stroke="#adadad"></path><path d="M675.3 409L675 352L646.5 400.3Z" fill="#f7770f" stroke="#adadad"></path><path d="M83.3 633.7L91.3 604.7L79.3 638Z" fill="#ed5d34" stroke="#adadad"></path><path d="M69.8 653.3L143 685L130 633.3Z" fill="#85315f" stroke="#adadad"></path><path d="M670.3 494.7L682.3 456L675 456Z" fill="#642f59" stroke="#adadad"></path><path d="M675 456L682.3 456L675 441.3Z" fill="#642f59" stroke="#adadad"></path><path d="M675.3 409L689.3 293L675 352Z" fill="#f7770f" stroke="#adadad"></path><path d="M292 38.3L275.3 108.3L301 114.7Z" fill="#c33a56" stroke="#adadad"></path><path d="M301 114.7L275.3 108.3L294.8 135.3Z" fill="#85315f" stroke="#adadad"></path><path d="M135.8 159.7L138.8 220L184.5 185Z" fill="#85315f" stroke="#adadad"></path><path d="M264 106L230.3 123L251.8 142Z" fill="#c33a56" stroke="#adadad"></path><path d="M516.5 143.3L495 125.3L471.5 165.7Z" fill="#642f59" stroke="#adadad"></path><path d="M32.5 467.7L42.5 504.3L58.3 504Z" fill="#462a4d" stroke="#adadad"></path><path d="M23.8 559.3L91.3 604.7L68.5 534.7Z" fill="#642f59" stroke="#adadad"></path><path d="M32.5 467.7L58.3 504L50.3 439.7Z" fill="#ed5d34" stroke="#adadad"></path><path d="M689.3 293L675 337.7L675 352Z" fill="#c33a56" stroke="#adadad"></path><path d="M675 352L675 337.7L610.5 339.3Z" fill="#dc4848" stroke="#adadad"></path><path d="M382 750.7L353.5 784.3L381.3 772.7Z" fill="#dc4848" stroke="#adadad"></path><path d="M670.3 494.7L675 514.7L682.3 456Z" fill="#0d0e11" stroke="#adadad"></path><path d="M675 566.3L627.3 532.3L632.3 567.7Z" fill="#642f59" stroke="#adadad"></path><path d="M11.8 481.7L32.5 467.7L0 473Z" fill="#dc4848" stroke="#adadad"></path><path d="M245.5 68L264 106L275.3 108.3Z" fill="#c33a56" stroke="#adadad"></path><path d="M275.3 108.3L264 106L251.8 142Z" fill="#2c233c" stroke="#adadad"></path><path d="M491.3 115L494 119.7L503.3 96.3Z" fill="#f7770f" stroke="#adadad"></path><path d="M516.5 143.3L494 119.7L495 125.3Z" fill="#642f59" stroke="#adadad"></path><path d="M495 125.3L491.3 115L460.8 125.3Z" fill="#a6345e" stroke="#adadad"></path><path d="M113.3 183.3L138.8 220L135.8 159.7Z" fill="#a6345e" stroke="#adadad"></path><path d="M86.3 258L62.5 258.3L74.8 327Z" fill="#a6345e" stroke="#adadad"></path><path d="M482.3 90.7L491.3 115L503.3 96.3Z" fill="#c33a56" stroke="#adadad"></path><path d="M494 119.7L491.3 115L495 125.3Z" fill="#1a1a27" stroke="#adadad"></path><path d="M675 257.7L640.5 263.7L643.3 281.3Z" fill="#dc4848" stroke="#adadad"></path><path d="M640.5 263.7L646.3 250.3L585.8 223.3Z" fill="#f7770f" stroke="#adadad"></path><path d="M503.3 96.3L494 119.7L516.5 143.3Z" fill="#c33a56" stroke="#adadad"></path><path d="M641.5 610.3L649.5 590.7L611.8 607.3Z" fill="#0d0e11" stroke="#adadad"></path><path d="M611.8 607.3L649.5 590.7L632.3 567.7Z" fill="#85315f" stroke="#adadad"></path><path d="M329.8 792.3L341.8 728.3L304.8 720Z" fill="#f7770f" stroke="#adadad"></path><path d="M382 750.7L386.8 759.3L419.8 738.7Z" fill="#642f59" stroke="#adadad"></path><path d="M419.8 738.7L463.8 745L468.3 710Z" fill="#dc4848" stroke="#adadad"></path><path d="M59.3 249.7L62.5 258.3L86.3 258Z" fill="#ed5d34" stroke="#adadad"></path><path d="M410.8 771L463.8 745L419.8 738.7Z" fill="#ed5d34" stroke="#adadad"></path><path d="M525.3 722.3L576.8 685L543.3 679.3Z" fill="#a6345e" stroke="#adadad"></path><path d="M543.3 679.3L576.8 685L578.5 654.7Z" fill="#a6345e" stroke="#adadad"></path><path d="M635.5 638L641.5 610.3L611.8 607.3Z" fill="#2c233c" stroke="#adadad"></path><path d="M635.5 638L611.8 607.3L578.5 654.7Z" fill="#1a1a27" stroke="#adadad"></path><path d="M343.5 79.3L342.5 83L371.3 79Z" fill="#462a4d" stroke="#adadad"></path><path d="M371.3 79L342.5 83L354 141Z" fill="#f7770f" stroke="#adadad"></path><path d="M83.3 633.7L120 621L103.5 616Z" fill="#462a4d" stroke="#adadad"></path><path d="M157.8 675.7L197.8 722.7L211.5 690.7Z" fill="#0d0e11" stroke="#adadad"></path><path d="M143 685L197.8 722.7L157.8 675.7Z" fill="#f7770f" stroke="#adadad"></path><path d="M240.3 720L247.3 747.7L273.3 705.7Z" fill="#c33a56" stroke="#adadad"></path><path d="M525.3 722.3L497 701.7L491 711.3Z" fill="#1a1a27" stroke="#adadad"></path><path d="M675 337.7L675 291.3L643.3 281.3Z" fill="#f7770f" stroke="#adadad"></path><path d="M689.3 293L675 291.3L675 337.7Z" fill="#c33a56" stroke="#adadad"></path><path d="M175 133L184.5 185L207.8 164.3Z" fill="#642f59" stroke="#adadad"></path><path d="M98.3 213.7L84 216.7L86.3 258Z" fill="#f7770f" stroke="#adadad"></path><path d="M230.3 123L175 133L207.8 164.3Z" fill="#462a4d" stroke="#adadad"></path><path d="M198.8 102.7L175 133L230.3 123Z" fill="#dc4848" stroke="#adadad"></path><path d="M511.5 749.7L525.3 722.3L491 711.3Z" fill="#1a1a27" stroke="#adadad"></path><path d="M371.3 79L354 141L398 104.3Z" fill="#f7770f" stroke="#adadad"></path><path d="M342.5 83L292 38.3L301 114.7Z" fill="#0d0e11" stroke="#adadad"></path><path d="M168 73.3L164 133.7L175 133Z" fill="#c33a56" stroke="#adadad"></path><path d="M71.3 176L84 216.7L98.3 213.7Z" fill="#642f59" stroke="#adadad"></path><path d="M434 67.7L371.3 79L398 104.3Z" fill="#ed5d34" stroke="#adadad"></path><path d="M482.3 90.7L450.5 91L460.8 125.3Z" fill="#c33a56" stroke="#adadad"></path><path d="M227.5 744.3L247.3 747.7L240.3 720Z" fill="#dc4848" stroke="#adadad"></path><path d="M164 133.7L135.8 159.7L184.5 185Z" fill="#f7770f" stroke="#adadad"></path><path d="M675 246L649.3 235.7L646.3 250.3Z" fill="#2c233c" stroke="#adadad"></path><path d="M646.3 250.3L649.3 235.7L585.8 223.3Z" fill="#c33a56" stroke="#adadad"></path><path d="M84 216.7L59.3 249.7L86.3 258Z" fill="#85315f" stroke="#adadad"></path><path d="M24.5 278L18.8 299.3L65.5 327.3Z" fill="#462a4d" stroke="#adadad"></path><path d="M672.3 575L632.3 567.7L649.5 590.7Z" fill="#2c233c" stroke="#adadad"></path><path d="M672.3 575L675 566.3L632.3 567.7Z" fill="#c33a56" stroke="#adadad"></path><path d="M675 514.7L675 566.3L682.3 456Z" fill="#a6345e" stroke="#adadad"></path><path d="M24.8 526.7L68.5 534.7L55.5 520Z" fill="#c33a56" stroke="#adadad"></path><path d="M91.3 604.7L83.3 633.7L103.5 616Z" fill="#f7770f" stroke="#adadad"></path><path d="M626.3 699L596.5 676L576.8 685Z" fill="#0d0e11" stroke="#adadad"></path><path d="M576.8 685L596.5 676L578.5 654.7Z" fill="#ed5d34" stroke="#adadad"></path><path d="M675 580.7L672.3 575L675 582.3Z" fill="#a6345e" stroke="#adadad"></path><path d="M212.8 772L227.5 744.3L197.8 722.7Z" fill="#ed5d34" stroke="#adadad"></path><path d="M197.8 722.7L227.5 744.3L240.3 720Z" fill="#dc4848" stroke="#adadad"></path><path d="M198.8 102.7L230.3 123L209.8 75.3Z" fill="#ed5d34" stroke="#adadad"></path><path d="M175 133L164 133.7L184.5 185Z" fill="#c33a56" stroke="#adadad"></path><path d="M672.3 575L649.5 590.7L675 582.3Z" fill="#dc4848" stroke="#adadad"></path><path d="M0 490.3L24.8 526.7L42.5 504.3Z" fill="#1a1a27" stroke="#adadad"></path><path d="M42.5 504.3L24.8 526.7L55.5 520Z" fill="#85315f" stroke="#adadad"></path><path d="M11.8 481.7L42.5 504.3L32.5 467.7Z" fill="#0d0e11" stroke="#adadad"></path><path d="M596.5 676L635.5 638L578.5 654.7Z" fill="#a6345e" stroke="#adadad"></path><path d="M353.5 784.3L382 750.7L341.8 728.3Z" fill="#ed5d34" stroke="#adadad"></path><path d="M386.8 759.3L410.8 771L419.8 738.7Z" fill="#1a1a27" stroke="#adadad"></path><path d="M275 765.3L273.3 705.7L247.3 747.7Z" fill="#0d0e11" stroke="#adadad"></path><path d="M6.8 430.3L62.8 408L0 395.7Z" fill="#ed5d34" stroke="#adadad"></path><path d="M6.8 430.3L32.5 467.7L50.3 439.7Z" fill="#c33a56" stroke="#adadad"></path><path d="M0 395.7L62.8 408L0 383.3Z" fill="#a6345e" stroke="#adadad"></path><path d="M381.3 772.7L410.8 771L386.8 759.3Z" fill="#a6345e" stroke="#adadad"></path><path d="M463.8 745L511.5 749.7L491 711.3Z" fill="#85315f" stroke="#adadad"></path><path d="M281.8 782L275 765.3L258 789.7Z" fill="#c33a56" stroke="#adadad"></path><path d="M23.8 559.3L79.3 638L91.3 604.7Z" fill="#642f59" stroke="#adadad"></path><path d="M83.3 633.7L79.3 638L130 633.3Z" fill="#1a1a27" stroke="#adadad"></path><path d="M675 582.3L649.5 590.7L675 638Z" fill="#c33a56" stroke="#adadad"></path><path d="M672.3 575L675 580.7L675 566.3Z" fill="#462a4d" stroke="#adadad"></path><path d="M675 566.3L675 580.7L682.3 456Z" fill="#1a1a27" stroke="#adadad"></path><path d="M491.3 115L482.3 90.7L460.8 125.3Z" fill="#c33a56" stroke="#adadad"></path><path d="M396.3 5.3L357 65.3L371.3 79Z" fill="#0d0e11" stroke="#adadad"></path><path d="M503.3 96.3L516.5 143.3L539.8 89.7Z" fill="#dc4848" stroke="#adadad"></path><path d="M675 638L649.5 590.7L641.5 610.3Z" fill="#0d0e11" stroke="#adadad"></path><path d="M675 580.7L675 582.3L682.3 456Z" fill="#642f59" stroke="#adadad"></path><path d="M53.5 214.7L46.8 254.3L59.3 249.7Z" fill="#ed5d34" stroke="#adadad"></path><path d="M59.3 249.7L46.8 254.3L62.5 258.3Z" fill="#85315f" stroke="#adadad"></path><path d="M53.5 214.7L59.3 249.7L84 216.7Z" fill="#1a1a27" stroke="#adadad"></path><path d="M675 291.3L675 257.7L643.3 281.3Z" fill="#a6345e" stroke="#adadad"></path><path d="M682.3 456L689.3 293L675.3 409Z" fill="#462a4d" stroke="#adadad"></path><path d="M689.3 293L675 257.7L675 291.3Z" fill="#dc4848" stroke="#adadad"></path><path d="M615.8 127.3L516.5 143.3L576.8 199Z" fill="#85315f" stroke="#adadad"></path><path d="M649.3 215L585.8 223.3L649.3 235.7Z" fill="#1a1a27" stroke="#adadad"></path><path d="M675 209.7L649.3 215L649.3 235.7Z" fill="#642f59" stroke="#adadad"></path><path d="M434 67.7L398 104.3L450.5 91Z" fill="#dc4848" stroke="#adadad"></path><path d="M371.3 79L357 65.3L343.5 79.3Z" fill="#c33a56" stroke="#adadad"></path><path d="M292 38.3L245.5 68L275.3 108.3Z" fill="#dc4848" stroke="#adadad"></path><path d="M245.5 68L230.3 123L264 106Z" fill="#462a4d" stroke="#adadad"></path><path d="M135.8 159.7L110.5 165L113.3 183.3Z" fill="#642f59" stroke="#adadad"></path><path d="M113.3 183.3L71.3 176L98.3 213.7Z" fill="#642f59" stroke="#adadad"></path><path d="M107.3 136L110.5 165L135.8 159.7Z" fill="#a6345e" stroke="#adadad"></path><path d="M107.3 136L135.8 159.7L164 133.7Z" fill="#0d0e11" stroke="#adadad"></path><path d="M689.3 293L675 254.3L675 257.7Z" fill="#a6345e" stroke="#adadad"></path><path d="M675 257.7L675 254.3L646.3 250.3Z" fill="#462a4d" stroke="#adadad"></path><path d="M689.3 293L675 252L675 254.3Z" fill="#462a4d" stroke="#adadad"></path><path d="M675 254.3L675 252L646.3 250.3Z" fill="#ed5d34" stroke="#adadad"></path><path d="M0 395.7L0 441.7L6.8 430.3Z" fill="#f7770f" stroke="#adadad"></path><path d="M6.8 430.3L0 441.7L32.5 467.7Z" fill="#85315f" stroke="#adadad"></path><path d="M0 557L23.8 559.3L24.8 526.7Z" fill="#462a4d" stroke="#adadad"></path><path d="M0 383.3L62.8 408L46.5 346.7Z" fill="#0d0e11" stroke="#adadad"></path><path d="M469.5 769.3L511.5 749.7L463.8 745Z" fill="#0d0e11" stroke="#adadad"></path><path d="M525.3 722.3L577 736.7L576.8 685Z" fill="#0d0e11" stroke="#adadad"></path><path d="M0 359L0 383.3L46.5 346.7Z" fill="#0d0e11" stroke="#adadad"></path><path d="M24.5 278L65.5 327.3L62.5 258.3Z" fill="#642f59" stroke="#adadad"></path><path d="M689.3 293L675 246L675 252Z" fill="#462a4d" stroke="#adadad"></path><path d="M675 252L675 246L646.3 250.3Z" fill="#0d0e11" stroke="#adadad"></path><path d="M329.8 792.3L353.5 784.3L341.8 728.3Z" fill="#dc4848" stroke="#adadad"></path><path d="M381.3 772.7L372.5 808L410.8 771Z" fill="#2c233c" stroke="#adadad"></path><path d="M410.8 771L469.5 769.3L463.8 745Z" fill="#642f59" stroke="#adadad"></path><path d="M0 490.3L42.5 504.3L11.8 481.7Z" fill="#85315f" stroke="#adadad"></path><path d="M24.8 526.7L23.8 559.3L68.5 534.7Z" fill="#ed5d34" stroke="#adadad"></path><path d="M477.8 56.3L450.5 91L482.3 90.7Z" fill="#f7770f" stroke="#adadad"></path><path d="M477.8 56.3L434 67.7L450.5 91Z" fill="#c33a56" stroke="#adadad"></path><path d="M0 441.7L0 473L32.5 467.7Z" fill="#462a4d" stroke="#adadad"></path><path d="M435.5 811L469.5 769.3L410.8 771Z" fill="#462a4d" stroke="#adadad"></path><path d="M46.8 254.3L24.5 278L62.5 258.3Z" fill="#0d0e11" stroke="#adadad"></path><path d="M0 283.3L24.5 278L3.8 253.7Z" fill="#462a4d" stroke="#adadad"></path><path d="M18.8 299.3L0 359L46.5 346.7Z" fill="#0d0e11" stroke="#adadad"></path><path d="M0 295L0 359L18.8 299.3Z" fill="#dc4848" stroke="#adadad"></path><path d="M0 473L0 490.3L11.8 481.7Z" fill="#0d0e11" stroke="#adadad"></path><path d="M675 209.7L646.5 195.7L649.3 215Z" fill="#2c233c" stroke="#adadad"></path><path d="M649.3 215L646.5 195.7L585.8 223.3Z" fill="#85315f" stroke="#adadad"></path><path d="M528.3 759.7L524 750L511.5 749.7Z" fill="#642f59" stroke="#adadad"></path><path d="M511.5 749.7L524 750L525.3 722.3Z" fill="#0d0e11" stroke="#adadad"></path><path d="M661.3 661.7L675 638L635.5 638Z" fill="#a6345e" stroke="#adadad"></path><path d="M258 789.7L275 765.3L247.3 747.7Z" fill="#c33a56" stroke="#adadad"></path><path d="M275 765.3L329.8 792.3L304.8 720Z" fill="#a6345e" stroke="#adadad"></path><path d="M71.3 176L53.5 214.7L84 216.7Z" fill="#85315f" stroke="#adadad"></path><path d="M0 643.3L69.8 653.3L79.3 638Z" fill="#c33a56" stroke="#adadad"></path><path d="M79.3 638L69.8 653.3L130 633.3Z" fill="#dc4848" stroke="#adadad"></path><path d="M143 685L129.8 714L197.8 722.7Z" fill="#0d0e11" stroke="#adadad"></path><path d="M227.5 744.3L212.8 772L247.3 747.7Z" fill="#a6345e" stroke="#adadad"></path><path d="M60.3 695.3L129.8 714L143 685Z" fill="#0d0e11" stroke="#adadad"></path><path d="M281.8 782L329.8 792.3L275 765.3Z" fill="#0d0e11" stroke="#adadad"></path><path d="M353.5 784.3L370 807L381.3 772.7Z" fill="#85315f" stroke="#adadad"></path><path d="M396.3 5.3L348.3 50.7L357 65.3Z" fill="#85315f" stroke="#adadad"></path><path d="M357 65.3L348.3 50.7L343.5 79.3Z" fill="#642f59" stroke="#adadad"></path><path d="M0 490.3L0 519.7L24.8 526.7Z" fill="#c33a56" stroke="#adadad"></path><path d="M23.8 559.3L0 643.3L79.3 638Z" fill="#dc4848" stroke="#adadad"></path><path d="M292 38.3L342.5 83L343.5 79.3Z" fill="#0d0e11" stroke="#adadad"></path><path d="M108 82.3L107.3 136L164 133.7Z" fill="#85315f" stroke="#adadad"></path><path d="M646.5 195.7L620.5 152L576.8 199Z" fill="#dc4848" stroke="#adadad"></path><path d="M469.5 769.3L528.3 759.7L511.5 749.7Z" fill="#dc4848" stroke="#adadad"></path><path d="M524 750L577 736.7L525.3 722.3Z" fill="#642f59" stroke="#adadad"></path><path d="M544.8 780.7L528.3 759.7L469.5 769.3Z" fill="#ed5d34" stroke="#adadad"></path><path d="M245.5 68L209.8 75.3L230.3 123Z" fill="#0d0e11" stroke="#adadad"></path><path d="M110.5 165L71.3 176L113.3 183.3Z" fill="#642f59" stroke="#adadad"></path><path d="M590.5 99.7L539.8 89.7L516.5 143.3Z" fill="#642f59" stroke="#adadad"></path><path d="M503.3 96.3L489 63.7L482.3 90.7Z" fill="#642f59" stroke="#adadad"></path><path d="M107.3 136L71.3 176L110.5 165Z" fill="#f7770f" stroke="#adadad"></path><path d="M172.5 762L212.8 772L197.8 722.7Z" fill="#2c233c" stroke="#adadad"></path><path d="M281.8 782L310.8 799.7L329.8 792.3Z" fill="#85315f" stroke="#adadad"></path><path d="M295 804.3L310.8 799.7L281.8 782Z" fill="#dc4848" stroke="#adadad"></path><path d="M329.8 792.3L370 807L353.5 784.3Z" fill="#ed5d34" stroke="#adadad"></path><path d="M646.5 195.7L649.3 137.3L620.5 152Z" fill="#2c233c" stroke="#adadad"></path><path d="M675 246L675 209.7L649.3 235.7Z" fill="#0d0e11" stroke="#adadad"></path><path d="M685.3 182.7L675 209.7L675 246Z" fill="#dc4848" stroke="#adadad"></path><path d="M243.3 793.3L258 789.7L247.3 747.7Z" fill="#85315f" stroke="#adadad"></path><path d="M0 283.3L18.8 299.3L24.5 278Z" fill="#f7770f" stroke="#adadad"></path><path d="M0 283.3L0 295L18.8 299.3Z" fill="#ed5d34" stroke="#adadad"></path><path d="M24.5 278L46.8 254.3L3.8 253.7Z" fill="#c33a56" stroke="#adadad"></path><path d="M168 73.3L175 133L198.8 102.7Z" fill="#642f59" stroke="#adadad"></path><path d="M512.3 71.3L489 63.7L503.3 96.3Z" fill="#2c233c" stroke="#adadad"></path><path d="M338.8 0L314 21.7L348.3 50.7Z" fill="#a6345e" stroke="#adadad"></path><path d="M528.3 759.7L577 736.7L524 750Z" fill="#c33a56" stroke="#adadad"></path><path d="M635.5 638L675 638L641.5 610.3Z" fill="#ed5d34" stroke="#adadad"></path><path d="M626.3 699L635.5 638L596.5 676Z" fill="#a6345e" stroke="#adadad"></path><path d="M675 582.3L684.3 748.3L682.3 456Z" fill="#2c233c" stroke="#adadad"></path><path d="M682.3 456L684.3 748.3L689.3 293Z" fill="#642f59" stroke="#adadad"></path><path d="M539.8 89.7L512.3 71.3L503.3 96.3Z" fill="#ed5d34" stroke="#adadad"></path><path d="M0 519.7L0 557L24.8 526.7Z" fill="#a6345e" stroke="#adadad"></path><path d="M577 736.7L626.3 699L576.8 685Z" fill="#f7770f" stroke="#adadad"></path><path d="M313 816L370 807L329.8 792.3Z" fill="#462a4d" stroke="#adadad"></path><path d="M505.5 29.7L477.8 56.3L489 63.7Z" fill="#0d0e11" stroke="#adadad"></path><path d="M489 63.7L477.8 56.3L482.3 90.7Z" fill="#a6345e" stroke="#adadad"></path><path d="M3.8 253.7L46.8 254.3L0 234.3Z" fill="#a6345e" stroke="#adadad"></path><path d="M626.3 699L661.3 661.7L635.5 638Z" fill="#0d0e11" stroke="#adadad"></path><path d="M368.3 839L372.5 808L370 807Z" fill="#dc4848" stroke="#adadad"></path><path d="M370 807L372.5 808L381.3 772.7Z" fill="#2c233c" stroke="#adadad"></path><path d="M527.8 59.3L518.5 61.3L512.3 71.3Z" fill="#ed5d34" stroke="#adadad"></path><path d="M512.3 71.3L518.5 61.3L489 63.7Z" fill="#462a4d" stroke="#adadad"></path><path d="M580.5 89.3L547.8 85L539.8 89.7Z" fill="#2c233c" stroke="#adadad"></path><path d="M258 789.7L295 804.3L281.8 782Z" fill="#85315f" stroke="#adadad"></path><path d="M310.8 799.7L313 816L329.8 792.3Z" fill="#ed5d34" stroke="#adadad"></path><path d="M284 847.7L295 804.3L258 789.7Z" fill="#0d0e11" stroke="#adadad"></path><path d="M219.8 57L205.5 66.7L209.8 75.3Z" fill="#a6345e" stroke="#adadad"></path><path d="M190.3 61.3L168 73.3L198.8 102.7Z" fill="#2c233c" stroke="#adadad"></path><path d="M219.8 57L209.8 75.3L245.5 68Z" fill="#c33a56" stroke="#adadad"></path><path d="M129.8 714L172.5 762L197.8 722.7Z" fill="#462a4d" stroke="#adadad"></path><path d="M212.8 772L243.3 793.3L247.3 747.7Z" fill="#0d0e11" stroke="#adadad"></path><path d="M135.3 756.7L172.5 762L129.8 714Z" fill="#a6345e" stroke="#adadad"></path><path d="M220.3 797L243.3 793.3L212.8 772Z" fill="#ed5d34" stroke="#adadad"></path><path d="M290.8 26.3L292 38.3L314 21.7Z" fill="#a6345e" stroke="#adadad"></path><path d="M348.3 50.7L292 38.3L343.5 79.3Z" fill="#85315f" stroke="#adadad"></path><path d="M229.3 30.7L219.8 57L245.5 68Z" fill="#1a1a27" stroke="#adadad"></path><path d="M649.3 137.3L615.8 127.3L620.5 152Z" fill="#f7770f" stroke="#adadad"></path><path d="M620.5 152L615.8 127.3L576.8 199Z" fill="#f7770f" stroke="#adadad"></path><path d="M675 693.7L675.3 655.3L661.3 661.7Z" fill="#462a4d" stroke="#adadad"></path><path d="M661.3 661.7L675.3 655.3L675 638Z" fill="#2c233c" stroke="#adadad"></path><path d="M675 638L684.3 748.3L675 582.3Z" fill="#1a1a27" stroke="#adadad"></path><path d="M0 234.3L46.8 254.3L53.5 214.7Z" fill="#ed5d34" stroke="#adadad"></path><path d="M527.8 59.3L539.8 89.7L547.8 85Z" fill="#0d0e11" stroke="#adadad"></path><path d="M527.8 59.3L512.3 71.3L539.8 89.7Z" fill="#85315f" stroke="#adadad"></path><path d="M571.5 774.7L583.5 748.3L577 736.7Z" fill="#85315f" stroke="#adadad"></path><path d="M577 736.7L598.8 754.3L626.3 699Z" fill="#ed5d34" stroke="#adadad"></path><path d="M626.3 699L675 693.7L661.3 661.7Z" fill="#462a4d" stroke="#adadad"></path><path d="M571.5 774.7L577 736.7L528.3 759.7Z" fill="#f7770f" stroke="#adadad"></path><path d="M449.5 822.7L435.5 811L417.3 840.3Z" fill="#f7770f" stroke="#adadad"></path><path d="M372.5 808L435.5 811L410.8 771Z" fill="#462a4d" stroke="#adadad"></path><path d="M284 847.7L313 816L295 804.3Z" fill="#85315f" stroke="#adadad"></path><path d="M295 804.3L313 816L310.8 799.7Z" fill="#f7770f" stroke="#adadad"></path><path d="M615.8 127.3L590.5 99.7L516.5 143.3Z" fill="#1a1a27" stroke="#adadad"></path><path d="M190.3 61.3L209.8 75.3L205.5 66.7Z" fill="#0d0e11" stroke="#adadad"></path><path d="M190.3 61.3L198.8 102.7L209.8 75.3Z" fill="#ed5d34" stroke="#adadad"></path><path d="M229.3 30.7L190.3 61.3L219.8 57Z" fill="#ed5d34" stroke="#adadad"></path><path d="M219.8 57L190.3 61.3L205.5 66.7Z" fill="#ed5d34" stroke="#adadad"></path><path d="M200.5 810.7L220.3 797L212.8 772Z" fill="#85315f" stroke="#adadad"></path><path d="M262.8 857.7L284 847.7L258 789.7Z" fill="#642f59" stroke="#adadad"></path><path d="M0 643.3L57.8 685L69.8 653.3Z" fill="#0d0e11" stroke="#adadad"></path><path d="M69.8 653.3L60.3 695.3L143 685Z" fill="#1a1a27" stroke="#adadad"></path><path d="M172.5 762L172 784.3L212.8 772Z" fill="#642f59" stroke="#adadad"></path><path d="M590.5 99.7L580.5 89.3L539.8 89.7Z" fill="#0d0e11" stroke="#adadad"></path><path d="M576 71.3L527.8 59.3L547.8 85Z" fill="#a6345e" stroke="#adadad"></path><path d="M505.5 29.7L461.8 30.7L477.8 56.3Z" fill="#ed5d34" stroke="#adadad"></path><path d="M314 21.7L292 38.3L348.3 50.7Z" fill="#85315f" stroke="#adadad"></path><path d="M371.3 79L434 67.7L396.3 5.3Z" fill="#a6345e" stroke="#adadad"></path><path d="M292 38.3L272.8 24.7L245.5 68Z" fill="#0d0e11" stroke="#adadad"></path><path d="M107.3 749L135.3 756.7L129.8 714Z" fill="#85315f" stroke="#adadad"></path><path d="M461.8 30.7L434 67.7L477.8 56.3Z" fill="#a6345e" stroke="#adadad"></path><path d="M548.3 829L544.8 780.7L469.5 769.3Z" fill="#f7770f" stroke="#adadad"></path><path d="M60.5 705.7L60.3 695.3L23.5 702Z" fill="#ed5d34" stroke="#adadad"></path><path d="M57.8 685L60.3 695.3L69.8 653.3Z" fill="#c33a56" stroke="#adadad"></path><path d="M675 209.7L685.3 182.7L646.5 195.7Z" fill="#2c233c" stroke="#adadad"></path><path d="M615.8 127.3L647.5 67L590.5 99.7Z" fill="#642f59" stroke="#adadad"></path><path d="M583 70L576 71.3L580.5 89.3Z" fill="#ed5d34" stroke="#adadad"></path><path d="M689.3 293L685.3 182.7L675 246Z" fill="#a6345e" stroke="#adadad"></path><path d="M505.5 29.7L489 63.7L518.5 61.3Z" fill="#462a4d" stroke="#adadad"></path><path d="M0 224.7L53.5 214.7L32.5 158.7Z" fill="#1a1a27" stroke="#adadad"></path><path d="M0 224.7L0 234.3L53.5 214.7Z" fill="#0d0e11" stroke="#adadad"></path><path d="M3.8 253.7L0 234.3L0 283.3Z" fill="#2c233c" stroke="#adadad"></path><path d="M53.5 214.7L71.3 176L32.5 158.7Z" fill="#c33a56" stroke="#adadad"></path><path d="M685.3 182.7L649.3 137.3L646.5 195.7Z" fill="#c33a56" stroke="#adadad"></path><path d="M276 0L272.8 24.7L290.8 26.3Z" fill="#85315f" stroke="#adadad"></path><path d="M290.8 26.3L272.8 24.7L292 38.3Z" fill="#1a1a27" stroke="#adadad"></path><path d="M135.3 756.7L172 784.3L172.5 762Z" fill="#462a4d" stroke="#adadad"></path><path d="M571.5 774.7L598.8 754.3L583.5 748.3Z" fill="#642f59" stroke="#adadad"></path><path d="M583.5 748.3L598.8 754.3L577 736.7Z" fill="#1a1a27" stroke="#adadad"></path><path d="M68.5 121L71.3 176L107.3 136Z" fill="#0d0e11" stroke="#adadad"></path><path d="M333.5 0L305.5 15.7L314 21.7Z" fill="#642f59" stroke="#adadad"></path><path d="M314 21.7L305.5 15.7L290.8 26.3Z" fill="#642f59" stroke="#adadad"></path><path d="M417.3 840.3L435.5 811L372.5 808Z" fill="#f7770f" stroke="#adadad"></path><path d="M435.5 811L449.5 822.7L469.5 769.3Z" fill="#ed5d34" stroke="#adadad"></path><path d="M601.3 778.7L571.5 774.7L575 804Z" fill="#1a1a27" stroke="#adadad"></path><path d="M544.8 780.7L571.5 774.7L528.3 759.7Z" fill="#1a1a27" stroke="#adadad"></path><path d="M60.3 695.3L65.3 711L129.8 714Z" fill="#c33a56" stroke="#adadad"></path><path d="M135.3 756.7L114 780.7L172 784.3Z" fill="#a6345e" stroke="#adadad"></path><path d="M23.5 702L60.3 695.3L57.8 685Z" fill="#a6345e" stroke="#adadad"></path><path d="M60.5 705.7L65.3 711L60.3 695.3Z" fill="#ed5d34" stroke="#adadad"></path><path d="M65.3 711L107.3 749L129.8 714Z" fill="#2c233c" stroke="#adadad"></path><path d="M101 67.7L108 82.3L168 73.3Z" fill="#c33a56" stroke="#adadad"></path><path d="M272.8 24.7L229.3 30.7L245.5 68Z" fill="#a6345e" stroke="#adadad"></path><path d="M229.3 0L229.3 30.7L272.8 24.7Z" fill="#a6345e" stroke="#adadad"></path><path d="M580.5 89.3L576 71.3L547.8 85Z" fill="#dc4848" stroke="#adadad"></path><path d="M527.8 59.3L505.5 29.7L518.5 61.3Z" fill="#dc4848" stroke="#adadad"></path><path d="M583 70L580.5 89.3L590.5 99.7Z" fill="#85315f" stroke="#adadad"></path><path d="M675 714L675 693.7L626.3 699Z" fill="#0d0e11" stroke="#adadad"></path><path d="M675.3 655.3L684.3 748.3L675 638Z" fill="#ed5d34" stroke="#adadad"></path><path d="M362 882.7L368.3 839L340.3 884.7Z" fill="#c33a56" stroke="#adadad"></path><path d="M313 816L368.3 839L370 807Z" fill="#0d0e11" stroke="#adadad"></path><path d="M203.5 823.7L243.3 793.3L220.3 797Z" fill="#c33a56" stroke="#adadad"></path><path d="M647.5 67L583 70L590.5 99.7Z" fill="#85315f" stroke="#adadad"></path><path d="M513.5 0L505.5 29.7L522.3 0Z" fill="#a6345e" stroke="#adadad"></path><path d="M108 82.3L164 133.7L168 73.3Z" fill="#85315f" stroke="#adadad"></path><path d="M108 82.3L68.5 121L107.3 136Z" fill="#1a1a27" stroke="#adadad"></path><path d="M395 0L396.3 5.3L422.3 0Z" fill="#642f59" stroke="#adadad"></path><path d="M422.3 0L396.3 5.3L434 67.7Z" fill="#462a4d" stroke="#adadad"></path><path d="M505.5 29.7L535.8 0L522.3 0Z" fill="#ed5d34" stroke="#adadad"></path><path d="M203.5 823.7L200.5 810.7L169.8 835.7Z" fill="#2c233c" stroke="#adadad"></path><path d="M172 784.3L200.5 810.7L212.8 772Z" fill="#a6345e" stroke="#adadad"></path><path d="M53.8 121.3L32.5 158.7L71.3 176Z" fill="#1a1a27" stroke="#adadad"></path><path d="M0 557L0 643.3L23.8 559.3Z" fill="#a6345e" stroke="#adadad"></path><path d="M73.5 786.7L107.3 749L65.3 711Z" fill="#85315f" stroke="#adadad"></path><path d="M368.3 839L417.3 840.3L372.5 808Z" fill="#f7770f" stroke="#adadad"></path><path d="M575 804L571.5 774.7L544.8 780.7Z" fill="#642f59" stroke="#adadad"></path><path d="M101 67.7L168 73.3L145.3 15.3Z" fill="#462a4d" stroke="#adadad"></path><path d="M396.3 5.3L338.8 0L348.3 50.7Z" fill="#c33a56" stroke="#adadad"></path><path d="M305.5 15.7L276 0L290.8 26.3Z" fill="#0d0e11" stroke="#adadad"></path><path d="M338.8 0L333.5 0L314 21.7Z" fill="#0d0e11" stroke="#adadad"></path><path d="M422.3 0L434 67.7L461.8 30.7Z" fill="#642f59" stroke="#adadad"></path><path d="M396.3 5.3L395 0L338.8 0Z" fill="#c33a56" stroke="#adadad"></path><path d="M685.3 182.7L675 138L649.3 137.3Z" fill="#c33a56" stroke="#adadad"></path><path d="M649.3 137.3L675 95.3L615.8 127.3Z" fill="#f7770f" stroke="#adadad"></path><path d="M460.8 0L422.3 0L461.8 30.7Z" fill="#0d0e11" stroke="#adadad"></path><path d="M50.8 77L53.8 121.3L68.5 121Z" fill="#462a4d" stroke="#adadad"></path><path d="M68.5 121L53.8 121.3L71.3 176Z" fill="#462a4d" stroke="#adadad"></path><path d="M671.3 759L675 714L626.3 699Z" fill="#a6345e" stroke="#adadad"></path><path d="M675 693.7L684.3 748.3L675.3 655.3Z" fill="#1a1a27" stroke="#adadad"></path><path d="M671.3 759L626.3 699L598.8 754.3Z" fill="#1a1a27" stroke="#adadad"></path><path d="M156 813L200.5 810.7L172 784.3Z" fill="#0d0e11" stroke="#adadad"></path><path d="M200.5 810.7L203.5 823.7L220.3 797Z" fill="#1a1a27" stroke="#adadad"></path><path d="M333.5 0L276 0L305.5 15.7Z" fill="#462a4d" stroke="#adadad"></path><path d="M145.3 15.3L168 73.3L190.3 61.3Z" fill="#a6345e" stroke="#adadad"></path><path d="M575 804L544.8 780.7L548.3 829Z" fill="#642f59" stroke="#adadad"></path><path d="M571.5 774.7L601.3 778.7L598.8 754.3Z" fill="#ed5d34" stroke="#adadad"></path><path d="M262.8 857.7L258 789.7L243.3 793.3Z" fill="#dc4848" stroke="#adadad"></path><path d="M368.3 839L384 871.3L417.3 840.3Z" fill="#f7770f" stroke="#adadad"></path><path d="M73.5 786.7L114 780.7L107.3 749Z" fill="#dc4848" stroke="#adadad"></path><path d="M107.3 749L114 780.7L135.3 756.7Z" fill="#ed5d34" stroke="#adadad"></path><path d="M25.5 742.3L65.3 711L60.5 705.7Z" fill="#0d0e11" stroke="#adadad"></path><path d="M513.5 0L460.8 0L505.5 29.7Z" fill="#c33a56" stroke="#adadad"></path><path d="M505.5 29.7L460.8 0L461.8 30.7Z" fill="#85315f" stroke="#adadad"></path><path d="M0 557L-13.2 650L0 643.3Z" fill="#462a4d" stroke="#adadad"></path><path d="M0 674.7L23.5 702L57.8 685Z" fill="#1a1a27" stroke="#adadad"></path><path d="M0 519.7L-13.2 650L0 557Z" fill="#462a4d" stroke="#adadad"></path><path d="M0 490.3L-13.2 650L0 519.7Z" fill="#1a1a27" stroke="#adadad"></path><path d="M0 473L-13.2 650L0 490.3Z" fill="#f7770f" stroke="#adadad"></path><path d="M0 441.7L-13.2 650L0 473Z" fill="#a6345e" stroke="#adadad"></path><path d="M0 395.7L-13.2 650L0 441.7Z" fill="#1a1a27" stroke="#adadad"></path><path d="M-17.2 154L-13.2 650L0 395.7Z" fill="#642f59" stroke="#adadad"></path><path d="M-17.2 154L0 395.7L0 383.3Z" fill="#642f59" stroke="#adadad"></path><path d="M-17.2 154L0 383.3L0 359Z" fill="#462a4d" stroke="#adadad"></path><path d="M-17.2 154L0 359L0 295Z" fill="#dc4848" stroke="#adadad"></path><path d="M-17.2 154L0 295L0 283.3Z" fill="#1a1a27" stroke="#adadad"></path><path d="M-17.2 154L0 283.3L0 234.3Z" fill="#dc4848" stroke="#adadad"></path><path d="M0 674.7L57.8 685L0 643.3Z" fill="#dc4848" stroke="#adadad"></path><path d="M548.3 829L469.5 769.3L449.5 822.7Z" fill="#dc4848" stroke="#adadad"></path><path d="M601.3 778.7L671.3 759L598.8 754.3Z" fill="#f7770f" stroke="#adadad"></path><path d="M179.5 11.3L190.3 61.3L229.3 30.7Z" fill="#c33a56" stroke="#adadad"></path><path d="M108 82.3L50.8 77L68.5 121Z" fill="#0d0e11" stroke="#adadad"></path><path d="M-13.2 650L0 674.7L0 643.3Z" fill="#dc4848" stroke="#adadad"></path><path d="M114 780.7L156 813L172 784.3Z" fill="#a6345e" stroke="#adadad"></path><path d="M203.5 823.7L262.8 857.7L243.3 793.3Z" fill="#2c233c" stroke="#adadad"></path><path d="M276 0L229.3 0L272.8 24.7Z" fill="#ed5d34" stroke="#adadad"></path><path d="M229.3 0L219.5 0L229.3 30.7Z" fill="#ed5d34" stroke="#adadad"></path><path d="M32.5 158.7L0 159L0 224.7Z" fill="#c33a56" stroke="#adadad"></path><path d="M0 146.7L3.8 154.7L32.5 158.7Z" fill="#1a1a27" stroke="#adadad"></path><path d="M0 146.7L32.5 158.7L0 133.3Z" fill="#642f59" stroke="#adadad"></path><path d="M3.8 154.7L0 159L32.5 158.7Z" fill="#c33a56" stroke="#adadad"></path><path d="M0 224.7L-17.2 154L0 234.3Z" fill="#2c233c" stroke="#adadad"></path><path d="M213.3 864.7L262.8 857.7L203.5 823.7Z" fill="#462a4d" stroke="#adadad"></path><path d="M362 882.7L384 871.3L368.3 839Z" fill="#642f59" stroke="#adadad"></path><path d="M0 712L14.8 709.7L0 674.7Z" fill="#1a1a27" stroke="#adadad"></path><path d="M0 674.7L14.8 709.7L23.5 702Z" fill="#1a1a27" stroke="#adadad"></path><path d="M23.5 702L25.5 742.3L60.5 705.7Z" fill="#dc4848" stroke="#adadad"></path><path d="M146.8 827.3L169.8 835.7L156 813Z" fill="#85315f" stroke="#adadad"></path><path d="M468.3 860.3L548.3 829L449.5 822.7Z" fill="#a6345e" stroke="#adadad"></path><path d="M575 804L585.8 820L601.3 778.7Z" fill="#ed5d34" stroke="#adadad"></path><path d="M468.3 860.3L449.5 822.7L417.3 840.3Z" fill="#a6345e" stroke="#adadad"></path><path d="M219.5 0L179.5 11.3L229.3 30.7Z" fill="#dc4848" stroke="#adadad"></path><path d="M340.3 884.7L313 816L284 847.7Z" fill="#85315f" stroke="#adadad"></path><path d="M505.5 29.7L527.8 59.3L535.8 0Z" fill="#1a1a27" stroke="#adadad"></path><path d="M527.8 59.3L538 0L535.8 0Z" fill="#642f59" stroke="#adadad"></path><path d="M447.5 900L468.3 860.3L417.3 840.3Z" fill="#ed5d34" stroke="#adadad"></path><path d="M0 133.3L32.5 158.7L0 133Z" fill="#dc4848" stroke="#adadad"></path><path d="M3.8 154.7L0 146.7L0 159Z" fill="#642f59" stroke="#adadad"></path><path d="M0 159L-17.2 154L0 224.7Z" fill="#ed5d34" stroke="#adadad"></path><path d="M527.8 59.3L576 71.3L538 0Z" fill="#ed5d34" stroke="#adadad"></path><path d="M146.8 827.3L156 813L129 827.7Z" fill="#ed5d34" stroke="#adadad"></path><path d="M156 813L169.8 835.7L200.5 810.7Z" fill="#1a1a27" stroke="#adadad"></path><path d="M692.3 79.3L675 95.3L675 138Z" fill="#dc4848" stroke="#adadad"></path><path d="M675 138L675 95.3L649.3 137.3Z" fill="#c33a56" stroke="#adadad"></path><path d="M219.5 0L187.8 0L179.5 11.3Z" fill="#c33a56" stroke="#adadad"></path><path d="M179.5 11.3L145.3 15.3L190.3 61.3Z" fill="#ed5d34" stroke="#adadad"></path><path d="M279.3 900L286.5 873.3L255.8 900Z" fill="#2c233c" stroke="#adadad"></path><path d="M262.8 857.7L286.5 873.3L284 847.7Z" fill="#0d0e11" stroke="#adadad"></path><path d="M129 827.7L156 813L114 780.7Z" fill="#2c233c" stroke="#adadad"></path><path d="M675 95.3L647.5 67L615.8 127.3Z" fill="#c33a56" stroke="#adadad"></path><path d="M574 826.7L575 804L548.3 829Z" fill="#1a1a27" stroke="#adadad"></path><path d="M574 826.7L585.8 820L575 804Z" fill="#c33a56" stroke="#adadad"></path><path d="M538 0L576 71.3L597.3 0Z" fill="#2c233c" stroke="#adadad"></path><path d="M549 862.3L574 826.7L548.3 829Z" fill="#85315f" stroke="#adadad"></path><path d="M597.3 0L576 71.3L583 70Z" fill="#ed5d34" stroke="#adadad"></path><path d="M675 776L671.3 759L601.3 778.7Z" fill="#a6345e" stroke="#adadad"></path><path d="M362 882.7L395.8 880.3L384 871.3Z" fill="#462a4d" stroke="#adadad"></path><path d="M384 871.3L395.8 880.3L417.3 840.3Z" fill="#f7770f" stroke="#adadad"></path><path d="M136 0L145.3 15.3L179.5 11.3Z" fill="#ed5d34" stroke="#adadad"></path><path d="M0 133L32.5 158.7L53.8 121.3Z" fill="#ed5d34" stroke="#adadad"></path><path d="M340.3 884.7L368.3 839L313 816Z" fill="#0d0e11" stroke="#adadad"></path><path d="M671.3 759L684.3 748.3L675 714Z" fill="#ed5d34" stroke="#adadad"></path><path d="M675 714L684.3 748.3L675 693.7Z" fill="#642f59" stroke="#adadad"></path><path d="M0 133L53.8 121.3L19.5 94.3Z" fill="#2c233c" stroke="#adadad"></path><path d="M0 146.7L-17.2 154L0 159Z" fill="#0d0e11" stroke="#adadad"></path><path d="M50.8 77L108 82.3L101 67.7Z" fill="#85315f" stroke="#adadad"></path><path d="M0 133.3L-17.2 154L0 146.7Z" fill="#0d0e11" stroke="#adadad"></path><path d="M-13.2 650L0 712L0 674.7Z" fill="#0d0e11" stroke="#adadad"></path><path d="M14.8 709.7L25.5 742.3L23.5 702Z" fill="#f7770f" stroke="#adadad"></path><path d="M0 133L-17.2 154L0 133.3Z" fill="#642f59" stroke="#adadad"></path><path d="M0 712L25.5 742.3L14.8 709.7Z" fill="#0d0e11" stroke="#adadad"></path><path d="M189.8 900L201.5 857.3L186.5 900Z" fill="#1a1a27" stroke="#adadad"></path><path d="M169.8 835.7L201.5 857.3L203.5 823.7Z" fill="#85315f" stroke="#adadad"></path><path d="M286.5 873.3L340.3 884.7L284 847.7Z" fill="#a6345e" stroke="#adadad"></path><path d="M362 882.7L408.3 900L395.8 880.3Z" fill="#0d0e11" stroke="#adadad"></path><path d="M323.5 900L340.3 884.7L286.5 873.3Z" fill="#dc4848" stroke="#adadad"></path><path d="M25.5 742.3L73.5 786.7L65.3 711Z" fill="#642f59" stroke="#adadad"></path><path d="M55.5 63.7L50.8 77L101 67.7Z" fill="#f7770f" stroke="#adadad"></path><path d="M675 95.3L672.3 78L647.5 67Z" fill="#a6345e" stroke="#adadad"></path><path d="M647.5 67L597.3 0L583 70Z" fill="#a6345e" stroke="#adadad"></path><path d="M262.8 857.7L213.3 864.7L240 900Z" fill="#462a4d" stroke="#adadad"></path><path d="M201.5 857.3L213.3 864.7L203.5 823.7Z" fill="#85315f" stroke="#adadad"></path><path d="M201.5 857.3L157 900L186.5 900Z" fill="#f7770f" stroke="#adadad"></path><path d="M98 815.3L129 827.7L114 780.7Z" fill="#642f59" stroke="#adadad"></path><path d="M447.5 900L473.5 874.3L468.3 860.3Z" fill="#1a1a27" stroke="#adadad"></path><path d="M468.3 860.3L531.8 863.7L548.3 829Z" fill="#0d0e11" stroke="#adadad"></path><path d="M414 900L417.3 840.3L395.8 880.3Z" fill="#ed5d34" stroke="#adadad"></path><path d="M692.3 79.3L675 78.7L675 95.3Z" fill="#0d0e11" stroke="#adadad"></path><path d="M675 95.3L675 78.7L672.3 78Z" fill="#2c233c" stroke="#adadad"></path><path d="M672.3 78L659.3 50.7L647.5 67Z" fill="#dc4848" stroke="#adadad"></path><path d="M82.3 34.7L55.5 63.7L101 67.7Z" fill="#642f59" stroke="#adadad"></path><path d="M50.8 77L19.5 94.3L53.8 121.3Z" fill="#85315f" stroke="#adadad"></path><path d="M0 133L-12.2 71.3L-17.2 154Z" fill="#0d0e11" stroke="#adadad"></path><path d="M40.8 797.3L98 815.3L73.5 786.7Z" fill="#0d0e11" stroke="#adadad"></path><path d="M73.5 786.7L98 815.3L114 780.7Z" fill="#2c233c" stroke="#adadad"></path><path d="M255.8 900L262.8 857.7L240 900Z" fill="#a6345e" stroke="#adadad"></path><path d="M0 78.3L19.5 94.3L50.8 77Z" fill="#c33a56" stroke="#adadad"></path><path d="M586.5 851.3L614.5 819.7L585.8 820Z" fill="#462a4d" stroke="#adadad"></path><path d="M585.8 820L614.5 819.7L601.3 778.7Z" fill="#642f59" stroke="#adadad"></path><path d="M671.3 759L675 776L684.3 748.3Z" fill="#dc4848" stroke="#adadad"></path><path d="M586.5 851.3L585.8 820L574 826.7Z" fill="#ed5d34" stroke="#adadad"></path><path d="M473.5 874.3L531.8 863.7L468.3 860.3Z" fill="#f7770f" stroke="#adadad"></path><path d="M675 777.3L675 776L601.3 778.7Z" fill="#dc4848" stroke="#adadad"></path><path d="M652.5 815L675 777.3L601.3 778.7Z" fill="#ed5d34" stroke="#adadad"></path><path d="M675 776L675 777.3L684.3 748.3Z" fill="#dc4848" stroke="#adadad"></path><path d="M145.3 15.3L82.3 34.7L101 67.7Z" fill="#642f59" stroke="#adadad"></path><path d="M55.5 63.7L42.5 45.3L50.8 77Z" fill="#85315f" stroke="#adadad"></path><path d="M107.3 0L82.3 34.7L145.3 15.3Z" fill="#642f59" stroke="#adadad"></path><path d="M187.8 0L136 0L179.5 11.3Z" fill="#dc4848" stroke="#adadad"></path><path d="M675 78.7L659.3 50.7L672.3 78Z" fill="#c33a56" stroke="#adadad"></path><path d="M685.3 182.7L692.3 79.3L675 138Z" fill="#dc4848" stroke="#adadad"></path><path d="M675 78.7L675 37.3L659.3 50.7Z" fill="#a6345e" stroke="#adadad"></path><path d="M689.3 293L692.3 79.3L685.3 182.7Z" fill="#1a1a27" stroke="#adadad"></path><path d="M684.3 748.3L692.3 79.3L689.3 293Z" fill="#642f59" stroke="#adadad"></path><path d="M299.5 912.7L323.5 900L286.5 873.3Z" fill="#642f59" stroke="#adadad"></path><path d="M340.3 884.7L323.5 900L362 882.7Z" fill="#f7770f" stroke="#adadad"></path><path d="M531.8 863.7L549 862.3L548.3 829Z" fill="#a6345e" stroke="#adadad"></path><path d="M526.8 884.3L549 862.3L531.8 863.7Z" fill="#85315f" stroke="#adadad"></path><path d="M526.8 884.3L531.8 863.7L473.5 874.3Z" fill="#0d0e11" stroke="#adadad"></path><path d="M30.8 784.3L34.8 775.7L0 777Z" fill="#dc4848" stroke="#adadad"></path><path d="M25.5 742.3L34.8 775.7L73.5 786.7Z" fill="#2c233c" stroke="#adadad"></path><path d="M323.5 900L408.3 900L362 882.7Z" fill="#a6345e" stroke="#adadad"></path><path d="M408.3 900L414 900L395.8 880.3Z" fill="#0d0e11" stroke="#adadad"></path><path d="M255.8 900L286.5 873.3L262.8 857.7Z" fill="#c33a56" stroke="#adadad"></path><path d="M213.3 864.7L189.8 900L240 900Z" fill="#f7770f" stroke="#adadad"></path><path d="M640.5 0L597.3 0L647.5 67Z" fill="#f7770f" stroke="#adadad"></path><path d="M549 862.3L586.5 851.3L574 826.7Z" fill="#dc4848" stroke="#adadad"></path><path d="M614.5 819.7L652.5 815L601.3 778.7Z" fill="#f7770f" stroke="#adadad"></path><path d="M414 900L447.5 900L417.3 840.3Z" fill="#dc4848" stroke="#adadad"></path><path d="M549 862.3L597.3 900L586.5 851.3Z" fill="#f7770f" stroke="#adadad"></path><path d="M640.5 0L596.5 -1.7L597.3 0Z" fill="#f7770f" stroke="#adadad"></path><path d="M597.3 0L596.5 -1.7L538 0Z" fill="#0d0e11" stroke="#adadad"></path><path d="M538 0L596.5 -1.7L535.8 0Z" fill="#a6345e" stroke="#adadad"></path><path d="M535.8 0L596.5 -1.7L522.3 0Z" fill="#f7770f" stroke="#adadad"></path><path d="M522.3 0L596.5 -1.7L513.5 0Z" fill="#2c233c" stroke="#adadad"></path><path d="M513.5 0L596.5 -1.7L460.8 0Z" fill="#a6345e" stroke="#adadad"></path><path d="M460.8 0L596.5 -1.7L422.3 0Z" fill="#a6345e" stroke="#adadad"></path><path d="M422.3 0L596.5 -1.7L395 0Z" fill="#1a1a27" stroke="#adadad"></path><path d="M395 0L596.5 -1.7L338.8 0Z" fill="#2c233c" stroke="#adadad"></path><path d="M338.8 0L596.5 -1.7L333.5 0Z" fill="#dc4848" stroke="#adadad"></path><path d="M333.5 0L596.5 -1.7L276 0Z" fill="#ed5d34" stroke="#adadad"></path><path d="M276 0L596.5 -1.7L229.3 0Z" fill="#dc4848" stroke="#adadad"></path><path d="M229.3 0L596.5 -1.7L219.5 0Z" fill="#462a4d" stroke="#adadad"></path><path d="M219.5 0L596.5 -1.7L187.8 0Z" fill="#a6345e" stroke="#adadad"></path><path d="M187.8 0L596.5 -1.7L136 0Z" fill="#2c233c" stroke="#adadad"></path><path d="M447.5 900L457.8 900L473.5 874.3Z" fill="#0d0e11" stroke="#adadad"></path><path d="M34.8 775.7L40.8 797.3L73.5 786.7Z" fill="#c33a56" stroke="#adadad"></path><path d="M213.3 864.7L201.5 857.3L189.8 900Z" fill="#a6345e" stroke="#adadad"></path><path d="M0 757.3L34.8 775.7L25.5 742.3Z" fill="#dc4848" stroke="#adadad"></path><path d="M157 900L201.5 857.3L169.8 835.7Z" fill="#ed5d34" stroke="#adadad"></path><path d="M638.3 877.3L652.5 815L614.5 819.7Z" fill="#dc4848" stroke="#adadad"></path><path d="M0 712L0 757.3L25.5 742.3Z" fill="#85315f" stroke="#adadad"></path><path d="M-13.2 650L0 757.3L0 712Z" fill="#c33a56" stroke="#adadad"></path><path d="M675 777.3L675 798.7L684.3 748.3Z" fill="#a6345e" stroke="#adadad"></path><path d="M652.5 815L675 798.7L675 777.3Z" fill="#2c233c" stroke="#adadad"></path><path d="M506 900L526.8 884.3L473.5 874.3Z" fill="#a6345e" stroke="#adadad"></path><path d="M665.3 874.7L675 810.3L652.5 815Z" fill="#642f59" stroke="#adadad"></path><path d="M136 0L107.3 0L145.3 15.3Z" fill="#dc4848" stroke="#adadad"></path><path d="M82.3 34.7L42.5 45.3L55.5 63.7Z" fill="#85315f" stroke="#adadad"></path><path d="M596.5 -1.7L107.3 0L136 0Z" fill="#2c233c" stroke="#adadad"></path><path d="M0 788.7L40.8 797.3L30.8 784.3Z" fill="#2c233c" stroke="#adadad"></path><path d="M30.8 784.3L40.8 797.3L34.8 775.7Z" fill="#462a4d" stroke="#adadad"></path><path d="M143.3 900L157 900L169.8 835.7Z" fill="#f7770f" stroke="#adadad"></path><path d="M67.8 14.7L42.5 45.3L82.3 34.7Z" fill="#f7770f" stroke="#adadad"></path><path d="M19.5 94.3L0 80.7L0 133Z" fill="#ed5d34" stroke="#adadad"></path><path d="M240 900L299.5 912.7L255.8 900Z" fill="#85315f" stroke="#adadad"></path><path d="M255.8 900L299.5 912.7L279.3 900Z" fill="#dc4848" stroke="#adadad"></path><path d="M279.3 900L299.5 912.7L286.5 873.3Z" fill="#0d0e11" stroke="#adadad"></path><path d="M323.5 900L299.5 912.7L408.3 900Z" fill="#ed5d34" stroke="#adadad"></path><path d="M408.3 900L470.8 906.7L414 900Z" fill="#ed5d34" stroke="#adadad"></path><path d="M414 900L470.8 906.7L447.5 900Z" fill="#dc4848" stroke="#adadad"></path><path d="M447.5 900L470.8 906.7L457.8 900Z" fill="#f7770f" stroke="#adadad"></path><path d="M0 78.3L0 80.7L19.5 94.3Z" fill="#0d0e11" stroke="#adadad"></path><path d="M299.5 912.7L470.8 906.7L408.3 900Z" fill="#462a4d" stroke="#adadad"></path><path d="M457.8 900L470.8 906.7L473.5 874.3Z" fill="#462a4d" stroke="#adadad"></path><path d="M42.5 45.3L0 78.3L50.8 77Z" fill="#ed5d34" stroke="#adadad"></path><path d="M0 80.7L-12.2 71.3L0 133Z" fill="#ed5d34" stroke="#adadad"></path><path d="M692.3 79.3L675 37.3L675 78.7Z" fill="#1a1a27" stroke="#adadad"></path><path d="M659.3 50.7L640.5 0L647.5 67Z" fill="#c33a56" stroke="#adadad"></path><path d="M470.8 906.7L506 900L473.5 874.3Z" fill="#0d0e11" stroke="#adadad"></path><path d="M526.8 884.3L544.8 900L549 862.3Z" fill="#0d0e11" stroke="#adadad"></path><path d="M652.5 815L675 810.3L675 798.7Z" fill="#f7770f" stroke="#adadad"></path><path d="M675 798.7L675 810.3L684.3 748.3Z" fill="#dc4848" stroke="#adadad"></path><path d="M638.3 877.3L614.5 819.7L586.5 851.3Z" fill="#0d0e11" stroke="#adadad"></path><path d="M85.5 0L67.8 14.7L82.3 34.7Z" fill="#dc4848" stroke="#adadad"></path><path d="M42.5 45.3L-12.2 71.3L0 78.3Z" fill="#a6345e" stroke="#adadad"></path><path d="M470.8 906.7L511.3 900L506 900Z" fill="#0d0e11" stroke="#adadad"></path><path d="M506 900L511.3 900L526.8 884.3Z" fill="#0d0e11" stroke="#adadad"></path><path d="M511.3 900L519.3 897.7L526.8 884.3Z" fill="#642f59" stroke="#adadad"></path><path d="M596.5 -1.7L85.5 0L107.3 0Z" fill="#dc4848" stroke="#adadad"></path><path d="M107.3 0L85.5 0L82.3 34.7Z" fill="#a6345e" stroke="#adadad"></path><path d="M0 757.3L0 777L34.8 775.7Z" fill="#ed5d34" stroke="#adadad"></path><path d="M146.8 827.3L143.3 900L169.8 835.7Z" fill="#1a1a27" stroke="#adadad"></path><path d="M-13.2 650L0 777L0 757.3Z" fill="#462a4d" stroke="#adadad"></path><path d="M129 827.7L143.3 900L146.8 827.3Z" fill="#462a4d" stroke="#adadad"></path><path d="M240 900L189.8 900L299.5 912.7Z" fill="#1a1a27" stroke="#adadad"></path><path d="M596.5 -1.7L77.8 0L85.5 0Z" fill="#85315f" stroke="#adadad"></path><path d="M85.5 0L77.8 0L67.8 14.7Z" fill="#0d0e11" stroke="#adadad"></path><path d="M0 0L-12.2 71.3L42.5 45.3Z" fill="#1a1a27" stroke="#adadad"></path><path d="M675 37.3L640.5 0L659.3 50.7Z" fill="#dc4848" stroke="#adadad"></path><path d="M129 827.7L98.5 887.7L143.3 900Z" fill="#642f59" stroke="#adadad"></path><path d="M189.8 900L186.5 900L299.5 912.7Z" fill="#c33a56" stroke="#adadad"></path><path d="M0 0L42.5 45.3L67.8 14.7Z" fill="#c33a56" stroke="#adadad"></path><path d="M0 78.3L-12.2 71.3L0 80.7Z" fill="#dc4848" stroke="#adadad"></path><path d="M470.8 906.7L544.8 900L511.3 900Z" fill="#1a1a27" stroke="#adadad"></path><path d="M511.3 900L544.8 900L519.3 897.7Z" fill="#a6345e" stroke="#adadad"></path><path d="M519.3 897.7L544.8 900L526.8 884.3Z" fill="#0d0e11" stroke="#adadad"></path><path d="M-3.2 837L0 788.7L0 777Z" fill="#462a4d" stroke="#adadad"></path><path d="M0 777L0 788.7L30.8 784.3Z" fill="#c33a56" stroke="#adadad"></path><path d="M129 827.7L98 815.3L72.3 869.7Z" fill="#a6345e" stroke="#adadad"></path><path d="M186.5 900L157 900L299.5 912.7Z" fill="#a6345e" stroke="#adadad"></path><path d="M72.3 869.7L98 815.3L40.8 797.3Z" fill="#462a4d" stroke="#adadad"></path><path d="M157 900L20.8 914.7L299.5 912.7Z" fill="#f7770f" stroke="#adadad"></path><path d="M675 37.3L675 0L640.5 0Z" fill="#f7770f" stroke="#adadad"></path><path d="M640.5 0L675 0L596.5 -1.7Z" fill="#85315f" stroke="#adadad"></path><path d="M692.3 79.3L675 0L675 37.3Z" fill="#dc4848" stroke="#adadad"></path><path d="M67.3 875.3L72.3 869.7L23.5 851.3Z" fill="#642f59" stroke="#adadad"></path><path d="M72.3 869.7L98.5 887.7L129 827.7Z" fill="#a6345e" stroke="#adadad"></path><path d="M470.8 906.7L597.3 900L544.8 900Z" fill="#1a1a27" stroke="#adadad"></path><path d="M544.8 900L597.3 900L549 862.3Z" fill="#85315f" stroke="#adadad"></path><path d="M597.3 900L638.3 877.3L586.5 851.3Z" fill="#462a4d" stroke="#adadad"></path><path d="M23.5 851.3L72.3 869.7L40.8 797.3Z" fill="#dc4848" stroke="#adadad"></path><path d="M72.3 869.7L83.5 900L98.5 887.7Z" fill="#c33a56" stroke="#adadad"></path><path d="M-3.2 837L19.5 845L40.8 797.3Z" fill="#462a4d" stroke="#adadad"></path><path d="M19.5 845L23.5 851.3L40.8 797.3Z" fill="#462a4d" stroke="#adadad"></path><path d="M470.8 906.7L622.5 900L597.3 900Z" fill="#f7770f" stroke="#adadad"></path><path d="M597.3 900L622.5 900L638.3 877.3Z" fill="#85315f" stroke="#adadad"></path><path d="M675 888.7L665.3 874.7L638.3 877.3Z" fill="#85315f" stroke="#adadad"></path><path d="M638.3 877.3L665.3 874.7L652.5 815Z" fill="#2c233c" stroke="#adadad"></path><path d="M0 788.7L-3.2 837L40.8 797.3Z" fill="#462a4d" stroke="#adadad"></path><path d="M19.5 845L0 863.3L23.5 851.3Z" fill="#2c233c" stroke="#adadad"></path><path d="M20.8 914.7L83.5 900L67.3 875.3Z" fill="#2c233c" stroke="#adadad"></path><path d="M-13.2 650L-3.2 837L0 777Z" fill="#0d0e11" stroke="#adadad"></path><path d="M15.8 900L67.3 875.3L23.5 851.3Z" fill="#0d0e11" stroke="#adadad"></path><path d="M67.3 875.3L83.5 900L72.3 869.7Z" fill="#f7770f" stroke="#adadad"></path><path d="M98.5 887.7L83.5 900L143.3 900Z" fill="#f7770f" stroke="#adadad"></path><path d="M143.3 900L20.8 914.7L157 900Z" fill="#0d0e11" stroke="#adadad"></path><path d="M596.5 -1.7L0 0L77.8 0Z" fill="#f7770f" stroke="#adadad"></path><path d="M77.8 0L0 0L67.8 14.7Z" fill="#2c233c" stroke="#adadad"></path><path d="M675 900L675 888.7L638.3 877.3Z" fill="#1a1a27" stroke="#adadad"></path><path d="M665.3 874.7L675 888.7L675 810.3Z" fill="#c33a56" stroke="#adadad"></path><path d="M675 810.3L675 888.7L684.3 748.3Z" fill="#462a4d" stroke="#adadad"></path><path d="M-3.2 837L0 863.3L19.5 845Z" fill="#f7770f" stroke="#adadad"></path><path d="M470.8 906.7L675 900L622.5 900Z" fill="#0d0e11" stroke="#adadad"></path><path d="M622.5 900L675 900L638.3 877.3Z" fill="#642f59" stroke="#adadad"></path><path d="M675 888.7L675 900L684.3 748.3Z" fill="#f7770f" stroke="#adadad"></path><path d="M299.5 912.7L675 900L470.8 906.7Z" fill="#85315f" stroke="#adadad"></path><path d="M0 863.3L15.8 900L23.5 851.3Z" fill="#642f59" stroke="#adadad"></path><path d="M83.5 900L20.8 914.7L143.3 900Z" fill="#2c233c" stroke="#adadad"></path><path d="M-3.2 837L0 888.7L0 863.3Z" fill="#462a4d" stroke="#adadad"></path><path d="M0 863.3L0 888.7L15.8 900Z" fill="#f7770f" stroke="#adadad"></path><path d="M0 900L20.8 914.7L15.8 900Z" fill="#dc4848" stroke="#adadad"></path><path d="M15.8 900L20.8 914.7L67.3 875.3Z" fill="#642f59" stroke="#adadad"></path><path d="M-3.2 837L0 900L0 888.7Z" fill="#1a1a27" stroke="#adadad"></path><path d="M0 888.7L0 900L15.8 900Z" fill="#c33a56" stroke="#adadad"></path><path d="M-13.2 650L0 900L-3.2 837Z" fill="#1a1a27" stroke="#adadad"></path></g></svg>