<svg id="visual" viewBox="0 0 675 900" width="675" height="900" xmlns="http://www.w3.org/2000/svg" xmlns:xlink="http://www.w3.org/1999/xlink" version="1.1"><g stroke-width="1" stroke-linejoin="bevel"><path d="M342.8 436.7L353 436.3L352.8 402.7Z" fill="#36325a" stroke="#adadad"></path><path d="M353 436.3L370.5 433.7L352.8 402.7Z" fill="#36325a" stroke="#adadad"></path><path d="M352.8 402.7L319.8 428.3L342.8 436.7Z" fill="#395f88" stroke="#adadad"></path><path d="M358 375.7L352.5 386.7L369.5 369.3Z" fill="#384872" stroke="#adadad"></path><path d="M352.8 402.7L295.5 403.3L319.8 428.3Z" fill="#3c769b" stroke="#adadad"></path><path d="M369.5 369.3L352.5 386.7L352.8 402.7Z" fill="#34274e" stroke="#adadad"></path><path d="M352.5 386.7L295.5 403.3L352.8 402.7Z" fill="#4082a4" stroke="#adadad"></path><path d="M367.5 467L393.3 439L370.5 433.7Z" fill="#3a6b92" stroke="#adadad"></path><path d="M370.5 433.7L402.3 412.7L352.8 402.7Z" fill="#3a6b92" stroke="#adadad"></path><path d="M367.5 467L370.5 433.7L353 436.3Z" fill="#38547d" stroke="#adadad"></path><path d="M339.3 477.7L367.5 467L342.8 436.7Z" fill="#38547d" stroke="#adadad"></path><path d="M342.8 436.7L367.5 467L353 436.3Z" fill="#36325a" stroke="#adadad"></path><path d="M348.5 346L295.5 403.3L352.5 386.7Z" fill="#373d67" stroke="#adadad"></path><path d="M402.3 412.7L369.5 369.3L352.8 402.7Z" fill="#38547d" stroke="#adadad"></path><path d="M358 375.7L348.5 346L352.5 386.7Z" fill="#384872" stroke="#adadad"></path><path d="M393.3 439L402.3 412.7L370.5 433.7Z" fill="#4c9ab3" stroke="#adadad"></path><path d="M295.5 403.3L299.5 448L319.8 428.3Z" fill="#4c9ab3" stroke="#adadad"></path><path d="M319.8 428.3L299.5 448L342.8 436.7Z" fill="#4c9ab3" stroke="#adadad"></path><path d="M299.5 448L339.3 477.7L342.8 436.7Z" fill="#384872" stroke="#adadad"></path><path d="M422.3 438.3L407 429L393.3 439Z" fill="#384872" stroke="#adadad"></path><path d="M393.3 439L407 429L402.3 412.7Z" fill="#458eac" stroke="#adadad"></path><path d="M422.3 438.3L408.8 395.3L402.3 412.7Z" fill="#3c769b" stroke="#adadad"></path><path d="M402.3 412.7L408.8 395.3L369.5 369.3Z" fill="#4c9ab3" stroke="#adadad"></path><path d="M339.3 477.7L383.3 483L367.5 467Z" fill="#373d67" stroke="#adadad"></path><path d="M367.5 467L394 482.7L393.3 439Z" fill="#3a6b92" stroke="#adadad"></path><path d="M408.8 395.3L399.8 368L369.5 369.3Z" fill="#4082a4" stroke="#adadad"></path><path d="M392.8 355.7L348.5 346L369.5 369.3Z" fill="#384872" stroke="#adadad"></path><path d="M369.5 369.3L348.5 346L358 375.7Z" fill="#36325a" stroke="#adadad"></path><path d="M399.8 368L394 358.3L369.5 369.3Z" fill="#384872" stroke="#adadad"></path><path d="M420.5 472.3L422.3 438.3L393.3 439Z" fill="#34274e" stroke="#adadad"></path><path d="M407 429L422.3 438.3L402.3 412.7Z" fill="#4082a4" stroke="#adadad"></path><path d="M400.8 335.3L392.8 355.7L394 358.3Z" fill="#458eac" stroke="#adadad"></path><path d="M394 358.3L392.8 355.7L369.5 369.3Z" fill="#34274e" stroke="#adadad"></path><path d="M383.3 483L394 482.7L367.5 467Z" fill="#395f88" stroke="#adadad"></path><path d="M273.8 378L267 406.7L295.5 403.3Z" fill="#34274e" stroke="#adadad"></path><path d="M295.5 403.3L267 406.7L299.5 448Z" fill="#3c769b" stroke="#adadad"></path><path d="M279 352.3L273.8 378L295.5 403.3Z" fill="#3c769b" stroke="#adadad"></path><path d="M301 498.7L329.3 505.3L339.3 477.7Z" fill="#4082a4" stroke="#adadad"></path><path d="M339.3 477.7L368 517.7L383.3 483Z" fill="#384872" stroke="#adadad"></path><path d="M383.3 483L403.8 496L394 482.7Z" fill="#3c769b" stroke="#adadad"></path><path d="M301 498.7L339.3 477.7L299.5 448Z" fill="#34274e" stroke="#adadad"></path><path d="M354.5 306.7L333.3 332L348.5 346Z" fill="#395f88" stroke="#adadad"></path><path d="M348.5 346L279 352.3L295.5 403.3Z" fill="#458eac" stroke="#adadad"></path><path d="M394 482.7L420.5 472.3L393.3 439Z" fill="#36325a" stroke="#adadad"></path><path d="M284.3 495L301 498.7L299.5 448Z" fill="#34274e" stroke="#adadad"></path><path d="M368 517.7L403.8 496L383.3 483Z" fill="#4082a4" stroke="#adadad"></path><path d="M394 482.7L403.8 496L420.5 472.3Z" fill="#34274e" stroke="#adadad"></path><path d="M333.3 332L279 352.3L348.5 346Z" fill="#3a6b92" stroke="#adadad"></path><path d="M221.5 448.7L242 447.3L211.5 393Z" fill="#373d67" stroke="#adadad"></path><path d="M242 447.3L284.3 495L299.5 448Z" fill="#38547d" stroke="#adadad"></path><path d="M318.8 539.3L368 517.7L329.3 505.3Z" fill="#4c9ab3" stroke="#adadad"></path><path d="M333.3 332L312.8 326.3L279 352.3Z" fill="#4c9ab3" stroke="#adadad"></path><path d="M399.8 368L400.8 335.3L394 358.3Z" fill="#36325a" stroke="#adadad"></path><path d="M392.8 355.7L397.8 332L348.5 346Z" fill="#384872" stroke="#adadad"></path><path d="M333.3 332L354.5 306.7L312.8 326.3Z" fill="#38547d" stroke="#adadad"></path><path d="M448.5 366.3L400.8 335.3L399.8 368Z" fill="#395f88" stroke="#adadad"></path><path d="M448.5 366.3L399.8 368L408.8 395.3Z" fill="#458eac" stroke="#adadad"></path><path d="M318.8 539.3L329.3 505.3L301 498.7Z" fill="#395f88" stroke="#adadad"></path><path d="M329.3 505.3L368 517.7L339.3 477.7Z" fill="#458eac" stroke="#adadad"></path><path d="M400.8 335.3L397.8 332L392.8 355.7Z" fill="#3a6b92" stroke="#adadad"></path><path d="M230 461L242 447.3L221.5 448.7Z" fill="#384872" stroke="#adadad"></path><path d="M267 406.7L242 447.3L299.5 448Z" fill="#384872" stroke="#adadad"></path><path d="M230 461L278.8 507L284.3 495Z" fill="#3c769b" stroke="#adadad"></path><path d="M284.3 495L278.8 507L301 498.7Z" fill="#4082a4" stroke="#adadad"></path><path d="M384.3 309.7L354.5 306.7L348.5 346Z" fill="#384872" stroke="#adadad"></path><path d="M473.3 414.3L408.8 395.3L422.3 438.3Z" fill="#38547d" stroke="#adadad"></path><path d="M473.3 414.3L448.5 366.3L408.8 395.3Z" fill="#38547d" stroke="#adadad"></path><path d="M395.3 284.3L384.3 309.7L424.5 284.3Z" fill="#38547d" stroke="#adadad"></path><path d="M384.3 309.7L397.8 332L424.5 284.3Z" fill="#373d67" stroke="#adadad"></path><path d="M397.8 332L384.3 309.7L348.5 346Z" fill="#3a6b92" stroke="#adadad"></path><path d="M245 528.3L279.3 514.7L278.8 507Z" fill="#373d67" stroke="#adadad"></path><path d="M278.8 507L279.3 514.7L301 498.7Z" fill="#34274e" stroke="#adadad"></path><path d="M458.3 468L456.5 462.7L420.5 472.3Z" fill="#384872" stroke="#adadad"></path><path d="M420.5 472.3L456.5 462.7L422.3 438.3Z" fill="#3a6b92" stroke="#adadad"></path><path d="M427.8 510.7L458.3 468L420.5 472.3Z" fill="#395f88" stroke="#adadad"></path><path d="M456.5 462.7L473.3 414.3L422.3 438.3Z" fill="#34274e" stroke="#adadad"></path><path d="M427.8 510.7L420.5 472.3L403.8 496Z" fill="#458eac" stroke="#adadad"></path><path d="M425 524L427.8 510.7L403.8 496Z" fill="#384872" stroke="#adadad"></path><path d="M279.3 514.7L318.8 539.3L301 498.7Z" fill="#395f88" stroke="#adadad"></path><path d="M368 517.7L425 524L403.8 496Z" fill="#3c769b" stroke="#adadad"></path><path d="M242 447.3L267 406.7L211.5 393Z" fill="#4c9ab3" stroke="#adadad"></path><path d="M242 447.3L230 461L284.3 495Z" fill="#34274e" stroke="#adadad"></path><path d="M500.3 441.7L473.3 414.3L456.5 462.7Z" fill="#373d67" stroke="#adadad"></path><path d="M211.5 393L267 406.7L273.8 378Z" fill="#458eac" stroke="#adadad"></path><path d="M424.5 540.3L425 524L388.5 557.3Z" fill="#384872" stroke="#adadad"></path><path d="M427.8 510.7L456.5 523L458.3 468Z" fill="#36325a" stroke="#adadad"></path><path d="M224.3 355.7L273.8 378L279 352.3Z" fill="#36325a" stroke="#adadad"></path><path d="M224.3 355.7L211.5 393L273.8 378Z" fill="#458eac" stroke="#adadad"></path><path d="M262.8 307.7L279 352.3L312.8 326.3Z" fill="#373d67" stroke="#adadad"></path><path d="M226 349L224.3 355.7L279 352.3Z" fill="#34274e" stroke="#adadad"></path><path d="M269.8 288L262.8 307.7L312.8 326.3Z" fill="#38547d" stroke="#adadad"></path><path d="M262.8 307.7L226 349L279 352.3Z" fill="#4c9ab3" stroke="#adadad"></path><path d="M224.3 355.7L210.3 359L211.5 393Z" fill="#3a6b92" stroke="#adadad"></path><path d="M254 554.7L299.5 552L279.3 514.7Z" fill="#34274e" stroke="#adadad"></path><path d="M279.3 514.7L299.5 552L318.8 539.3Z" fill="#38547d" stroke="#adadad"></path><path d="M388.5 557.3L425 524L368 517.7Z" fill="#3c769b" stroke="#adadad"></path><path d="M388.5 557.3L368 517.7L318.8 539.3Z" fill="#458eac" stroke="#adadad"></path><path d="M425 524L456.5 523L427.8 510.7Z" fill="#3c769b" stroke="#adadad"></path><path d="M424.5 284.3L397.8 332L400.8 335.3Z" fill="#36325a" stroke="#adadad"></path><path d="M384.3 309.7L395.3 284.3L354.5 306.7Z" fill="#4c9ab3" stroke="#adadad"></path><path d="M354.5 306.7L316 271.7L312.8 326.3Z" fill="#384872" stroke="#adadad"></path><path d="M387.5 581.3L388.5 557.3L346.3 591.3Z" fill="#38547d" stroke="#adadad"></path><path d="M222.5 513.3L278.8 507L230 461Z" fill="#36325a" stroke="#adadad"></path><path d="M222.5 513.3L245 528.3L278.8 507Z" fill="#395f88" stroke="#adadad"></path><path d="M226 349L210.3 359L224.3 355.7Z" fill="#4082a4" stroke="#adadad"></path><path d="M209.8 329.3L210.3 359L226 349Z" fill="#36325a" stroke="#adadad"></path><path d="M424.5 540.3L456.5 523L425 524Z" fill="#384872" stroke="#adadad"></path><path d="M503.3 412.7L494 377.7L473.3 414.3Z" fill="#395f88" stroke="#adadad"></path><path d="M380.3 244L316 271.7L354.5 306.7Z" fill="#4c9ab3" stroke="#adadad"></path><path d="M500.3 441.7L456.5 462.7L458.3 468Z" fill="#395f88" stroke="#adadad"></path><path d="M473.3 414.3L494 377.7L448.5 366.3Z" fill="#3c769b" stroke="#adadad"></path><path d="M464.5 305L424.5 284.3L400.8 335.3Z" fill="#4082a4" stroke="#adadad"></path><path d="M316 271.7L269.8 288L312.8 326.3Z" fill="#3c769b" stroke="#adadad"></path><path d="M262.8 307.7L241.3 307.3L226 349Z" fill="#34274e" stroke="#adadad"></path><path d="M269.8 288L241.3 307.3L262.8 307.7Z" fill="#3a6b92" stroke="#adadad"></path><path d="M494 516L500.3 441.7L458.3 468Z" fill="#373d67" stroke="#adadad"></path><path d="M470.5 316.7L400.8 335.3L448.5 366.3Z" fill="#3a6b92" stroke="#adadad"></path><path d="M395.3 284.3L380.3 244L354.5 306.7Z" fill="#3a6b92" stroke="#adadad"></path><path d="M500.3 441.7L503.3 412.7L473.3 414.3Z" fill="#373d67" stroke="#adadad"></path><path d="M210.8 496.3L230 461L192.8 468.3Z" fill="#395f88" stroke="#adadad"></path><path d="M210.8 496.3L222.5 513.3L230 461Z" fill="#458eac" stroke="#adadad"></path><path d="M192.8 468.3L230 461L221.5 448.7Z" fill="#384872" stroke="#adadad"></path><path d="M187.3 435.7L221.5 448.7L211.5 393Z" fill="#458eac" stroke="#adadad"></path><path d="M181.8 365L188.3 405.3L211.5 393Z" fill="#3c769b" stroke="#adadad"></path><path d="M500.3 441.7L507.5 415L503.3 412.7Z" fill="#38547d" stroke="#adadad"></path><path d="M503.3 412.7L528.3 377.3L494 377.7Z" fill="#4082a4" stroke="#adadad"></path><path d="M494 377.7L470.5 316.7L448.5 366.3Z" fill="#36325a" stroke="#adadad"></path><path d="M187.3 435.7L191.5 458.3L221.5 448.7Z" fill="#458eac" stroke="#adadad"></path><path d="M188.3 405.3L187.3 435.7L211.5 393Z" fill="#384872" stroke="#adadad"></path><path d="M138.3 477L192.8 468.3L191.5 458.3Z" fill="#384872" stroke="#adadad"></path><path d="M191.5 458.3L192.8 468.3L221.5 448.7Z" fill="#4c9ab3" stroke="#adadad"></path><path d="M470.5 316.7L464.5 305L400.8 335.3Z" fill="#395f88" stroke="#adadad"></path><path d="M214.3 554.3L254 554.7L245 528.3Z" fill="#4082a4" stroke="#adadad"></path><path d="M245 528.3L254 554.7L279.3 514.7Z" fill="#4082a4" stroke="#adadad"></path><path d="M387.5 582.7L387.5 581.3L346.3 591.3Z" fill="#395f88" stroke="#adadad"></path><path d="M241.3 307.3L209.8 329.3L226 349Z" fill="#3c769b" stroke="#adadad"></path><path d="M210.3 359L181.8 365L211.5 393Z" fill="#34274e" stroke="#adadad"></path><path d="M388.5 557.3L318.8 539.3L346.3 591.3Z" fill="#34274e" stroke="#adadad"></path><path d="M388.5 557.3L433 571.3L424.5 540.3Z" fill="#395f88" stroke="#adadad"></path><path d="M424.5 540.3L463.3 547.3L456.5 523Z" fill="#4c9ab3" stroke="#adadad"></path><path d="M346.3 591.3L318.8 539.3L299.5 552Z" fill="#36325a" stroke="#adadad"></path><path d="M415.3 590.7L433 571.3L388.5 557.3Z" fill="#3a6b92" stroke="#adadad"></path><path d="M281.8 592.7L346.3 591.3L299.5 552Z" fill="#34274e" stroke="#adadad"></path><path d="M433 571.3L463.3 547.3L424.5 540.3Z" fill="#38547d" stroke="#adadad"></path><path d="M456.5 523L494 516L458.3 468Z" fill="#34274e" stroke="#adadad"></path><path d="M241.3 307.3L220 303L209.8 329.3Z" fill="#384872" stroke="#adadad"></path><path d="M234.3 258L220 303L241.3 307.3Z" fill="#395f88" stroke="#adadad"></path><path d="M234.3 258L241.3 307.3L269.8 288Z" fill="#458eac" stroke="#adadad"></path><path d="M433.8 577.7L433 571.3L415.3 590.7Z" fill="#4c9ab3" stroke="#adadad"></path><path d="M178.5 336.7L210.3 359L209.8 329.3Z" fill="#373d67" stroke="#adadad"></path><path d="M178.5 336.7L181.8 365L210.3 359Z" fill="#458eac" stroke="#adadad"></path><path d="M188.3 405.3L141.8 427.7L187.3 435.7Z" fill="#458eac" stroke="#adadad"></path><path d="M478.5 540.7L494 516L456.5 523Z" fill="#3a6b92" stroke="#adadad"></path><path d="M500.3 441.7L527.3 424L507.5 415Z" fill="#4c9ab3" stroke="#adadad"></path><path d="M487.8 567.3L478.5 540.7L463.3 547.3Z" fill="#3c769b" stroke="#adadad"></path><path d="M463.3 547.3L478.5 540.7L456.5 523Z" fill="#373d67" stroke="#adadad"></path><path d="M372 232.7L380.3 244L391.8 203Z" fill="#4082a4" stroke="#adadad"></path><path d="M424.5 284.3L380.3 244L395.3 284.3Z" fill="#458eac" stroke="#adadad"></path><path d="M273 201.3L234.3 258L269.8 288Z" fill="#3c769b" stroke="#adadad"></path><path d="M550.8 500.7L527.3 424L500.3 441.7Z" fill="#36325a" stroke="#adadad"></path><path d="M507.5 415L528.3 377.3L503.3 412.7Z" fill="#384872" stroke="#adadad"></path><path d="M494 377.7L527 363L470.5 316.7Z" fill="#395f88" stroke="#adadad"></path><path d="M470.5 316.7L491 292.3L464.5 305Z" fill="#34274e" stroke="#adadad"></path><path d="M415.3 590.7L388.5 557.3L387.5 581.3Z" fill="#34274e" stroke="#adadad"></path><path d="M433 571.3L433.8 577.7L463.3 547.3Z" fill="#36325a" stroke="#adadad"></path><path d="M415.3 590.7L387.5 581.3L387.5 582.7Z" fill="#373d67" stroke="#adadad"></path><path d="M179 539L212.8 543L222.5 513.3Z" fill="#34274e" stroke="#adadad"></path><path d="M222.5 513.3L212.8 543L245 528.3Z" fill="#395f88" stroke="#adadad"></path><path d="M273 591.3L281.8 592.7L299.5 552Z" fill="#384872" stroke="#adadad"></path><path d="M208.5 547L212.8 543L179 539Z" fill="#3c769b" stroke="#adadad"></path><path d="M377.5 627.7L415.3 590.7L387.5 582.7Z" fill="#4082a4" stroke="#adadad"></path><path d="M273 591.3L299.5 552L254 554.7Z" fill="#384872" stroke="#adadad"></path><path d="M346.3 591.3L377.5 627.7L387.5 582.7Z" fill="#3c769b" stroke="#adadad"></path><path d="M534.8 408.7L528.3 377.3L507.5 415Z" fill="#34274e" stroke="#adadad"></path><path d="M158 387L162.8 393.7L181.8 365Z" fill="#4082a4" stroke="#adadad"></path><path d="M181.8 365L162.8 393.7L188.3 405.3Z" fill="#3c769b" stroke="#adadad"></path><path d="M187.3 435.7L140.3 449.7L191.5 458.3Z" fill="#373d67" stroke="#adadad"></path><path d="M179 539L222.5 513.3L210.8 496.3Z" fill="#4c9ab3" stroke="#adadad"></path><path d="M261 587L273 591.3L254 554.7Z" fill="#373d67" stroke="#adadad"></path><path d="M568 402.3L534.8 408.7L527.3 424Z" fill="#3c769b" stroke="#adadad"></path><path d="M527.3 424L534.8 408.7L507.5 415Z" fill="#4c9ab3" stroke="#adadad"></path><path d="M176.5 335L178.5 336.7L177 325.3Z" fill="#3c769b" stroke="#adadad"></path><path d="M536.8 333.3L582.8 350L578.5 338.7Z" fill="#373d67" stroke="#adadad"></path><path d="M528.3 377.3L527 363L494 377.7Z" fill="#458eac" stroke="#adadad"></path><path d="M214.3 554.3L261 587L254 554.7Z" fill="#38547d" stroke="#adadad"></path><path d="M179 539L210.8 496.3L192.8 468.3Z" fill="#36325a" stroke="#adadad"></path><path d="M212.8 543L214.3 554.3L245 528.3Z" fill="#458eac" stroke="#adadad"></path><path d="M418.8 218.7L380.3 244L424.5 284.3Z" fill="#395f88" stroke="#adadad"></path><path d="M380.3 244L351.8 226.3L316 271.7Z" fill="#384872" stroke="#adadad"></path><path d="M208.5 547L214.3 554.3L212.8 543Z" fill="#373d67" stroke="#adadad"></path><path d="M177 325.3L178.5 336.7L209.8 329.3Z" fill="#34274e" stroke="#adadad"></path><path d="M178.5 336.7L176.5 335L181.8 365Z" fill="#458eac" stroke="#adadad"></path><path d="M533.3 313.7L491 292.3L470.5 316.7Z" fill="#4082a4" stroke="#adadad"></path><path d="M464.5 305L452 256L424.5 284.3Z" fill="#34274e" stroke="#adadad"></path><path d="M152.8 329L158 387L181.8 365Z" fill="#3c769b" stroke="#adadad"></path><path d="M162.8 393.7L141.8 427.7L188.3 405.3Z" fill="#34274e" stroke="#adadad"></path><path d="M372 232.7L351.8 226.3L380.3 244Z" fill="#3a6b92" stroke="#adadad"></path><path d="M491 292.3L452 256L464.5 305Z" fill="#4082a4" stroke="#adadad"></path><path d="M372 232.7L391.8 203L351.8 226.3Z" fill="#34274e" stroke="#adadad"></path><path d="M171.5 311.3L177 325.3L182 291Z" fill="#458eac" stroke="#adadad"></path><path d="M176.5 335L152.8 329L181.8 365Z" fill="#458eac" stroke="#adadad"></path><path d="M177 325.3L209.8 329.3L182 291Z" fill="#34274e" stroke="#adadad"></path><path d="M221 235L234.3 258L273 201.3Z" fill="#384872" stroke="#adadad"></path><path d="M286.8 624L281.8 592.7L273 591.3Z" fill="#3c769b" stroke="#adadad"></path><path d="M286.8 624L313 617.7L281.8 592.7Z" fill="#4c9ab3" stroke="#adadad"></path><path d="M281.8 592.7L313 617.7L346.3 591.3Z" fill="#4c9ab3" stroke="#adadad"></path><path d="M463.8 598.3L487.8 567.3L463.3 547.3Z" fill="#4c9ab3" stroke="#adadad"></path><path d="M478.5 540.7L487.8 567.3L494 516Z" fill="#4082a4" stroke="#adadad"></path><path d="M494 516L550.8 500.7L500.3 441.7Z" fill="#458eac" stroke="#adadad"></path><path d="M463.8 598.3L463.3 547.3L433.8 577.7Z" fill="#384872" stroke="#adadad"></path><path d="M110 385.3L141.8 427.7L158 387Z" fill="#395f88" stroke="#adadad"></path><path d="M158 387L141.8 427.7L162.8 393.7Z" fill="#34274e" stroke="#adadad"></path><path d="M138.3 477L179 539L192.8 468.3Z" fill="#384872" stroke="#adadad"></path><path d="M208.5 547L190.8 600.3L214.3 554.3Z" fill="#4082a4" stroke="#adadad"></path><path d="M249.5 616.3L273 591.3L261 587Z" fill="#34274e" stroke="#adadad"></path><path d="M249.5 616.3L286.8 624L273 591.3Z" fill="#38547d" stroke="#adadad"></path><path d="M182 291L209.8 329.3L220 303Z" fill="#3c769b" stroke="#adadad"></path><path d="M177 325.3L152.8 329L176.5 335Z" fill="#395f88" stroke="#adadad"></path><path d="M536.8 333.3L527 363L582.8 350Z" fill="#373d67" stroke="#adadad"></path><path d="M527 363L536.8 333.3L470.5 316.7Z" fill="#34274e" stroke="#adadad"></path><path d="M451.8 210.7L418.8 218.7L452 256Z" fill="#34274e" stroke="#adadad"></path><path d="M141.8 427.7L140.3 449.7L187.3 435.7Z" fill="#3a6b92" stroke="#adadad"></path><path d="M195.3 251.7L182 291L220 303Z" fill="#36325a" stroke="#adadad"></path><path d="M330.3 646L377.5 627.7L346.3 591.3Z" fill="#36325a" stroke="#adadad"></path><path d="M451 611L463.8 598.3L433.8 577.7Z" fill="#4c9ab3" stroke="#adadad"></path><path d="M476.5 227.7L452 256L491 292.3Z" fill="#458eac" stroke="#adadad"></path><path d="M452 256L418.8 218.7L424.5 284.3Z" fill="#395f88" stroke="#adadad"></path><path d="M249.5 616.3L261 587L227.3 620Z" fill="#373d67" stroke="#adadad"></path><path d="M313 617.7L330.3 646L346.3 591.3Z" fill="#3a6b92" stroke="#adadad"></path><path d="M451 611L433.8 577.7L415.3 590.7Z" fill="#458eac" stroke="#adadad"></path><path d="M536.8 333.3L533.3 313.7L470.5 316.7Z" fill="#3c769b" stroke="#adadad"></path><path d="M131 278.7L152.8 329L171.5 311.3Z" fill="#384872" stroke="#adadad"></path><path d="M171.5 311.3L152.8 329L177 325.3Z" fill="#3c769b" stroke="#adadad"></path><path d="M109.5 432.3L138.3 477L140.3 449.7Z" fill="#395f88" stroke="#adadad"></path><path d="M140.3 449.7L138.3 477L191.5 458.3Z" fill="#4082a4" stroke="#adadad"></path><path d="M184.5 251.7L174.8 287.7L182 291Z" fill="#3a6b92" stroke="#adadad"></path><path d="M182 291L174.8 287.7L171.5 311.3Z" fill="#4082a4" stroke="#adadad"></path><path d="M448 650.3L451 611L415.3 590.7Z" fill="#4082a4" stroke="#adadad"></path><path d="M551.8 500.3L550.8 500.7L564.5 513Z" fill="#3c769b" stroke="#adadad"></path><path d="M564.5 513L550.8 500.7L568.5 538.7Z" fill="#373d67" stroke="#adadad"></path><path d="M534.8 408.7L568 402.3L528.3 377.3Z" fill="#4082a4" stroke="#adadad"></path><path d="M207.5 601.7L261 587L214.3 554.3Z" fill="#4c9ab3" stroke="#adadad"></path><path d="M516 582.3L494 516L487.8 567.3Z" fill="#4c9ab3" stroke="#adadad"></path><path d="M550.8 500.7L551.8 500.3L527.3 424Z" fill="#395f88" stroke="#adadad"></path><path d="M418.8 218.7L391.8 203L380.3 244Z" fill="#34274e" stroke="#adadad"></path><path d="M273 201.3L269.8 288L316 271.7Z" fill="#38547d" stroke="#adadad"></path><path d="M579 476.7L568 402.3L527.3 424Z" fill="#373d67" stroke="#adadad"></path><path d="M536.8 333.3L547 314L533.3 313.7Z" fill="#4082a4" stroke="#adadad"></path><path d="M273 201.3L316 271.7L292.5 192Z" fill="#4082a4" stroke="#adadad"></path><path d="M234.3 258L195.3 251.7L220 303Z" fill="#395f88" stroke="#adadad"></path><path d="M578.5 338.7L547 314L536.8 333.3Z" fill="#3c769b" stroke="#adadad"></path><path d="M525.3 255L476.5 227.7L491 292.3Z" fill="#4c9ab3" stroke="#adadad"></path><path d="M221 235L195.3 251.7L234.3 258Z" fill="#38547d" stroke="#adadad"></path><path d="M309.8 671L330.3 646L286.8 624Z" fill="#395f88" stroke="#adadad"></path><path d="M286.8 624L330.3 646L313 617.7Z" fill="#4082a4" stroke="#adadad"></path><path d="M463.5 645L476.8 624L451 611Z" fill="#36325a" stroke="#adadad"></path><path d="M190.8 600.3L208.5 547L156 569.3Z" fill="#373d67" stroke="#adadad"></path><path d="M190.8 600.3L207.5 601.7L214.3 554.3Z" fill="#458eac" stroke="#adadad"></path><path d="M304.8 681.3L309.8 671L259.3 691.7Z" fill="#384872" stroke="#adadad"></path><path d="M484.3 618L483.3 605.7L476.8 624Z" fill="#384872" stroke="#adadad"></path><path d="M463.8 598.3L483.3 605.7L487.8 567.3Z" fill="#3a6b92" stroke="#adadad"></path><path d="M483.3 605.7L463.8 598.3L476.8 624Z" fill="#38547d" stroke="#adadad"></path><path d="M292.5 192L316 271.7L351.8 226.3Z" fill="#384872" stroke="#adadad"></path><path d="M186.3 231.3L184.5 251.7L195.3 251.7Z" fill="#4c9ab3" stroke="#adadad"></path><path d="M370 178L334.5 189.3L351.8 226.3Z" fill="#38547d" stroke="#adadad"></path><path d="M531 274.3L491 292.3L533.3 313.7Z" fill="#458eac" stroke="#adadad"></path><path d="M418.8 218.7L419.3 197.3L391.8 203Z" fill="#395f88" stroke="#adadad"></path><path d="M476.5 227.7L451.8 210.7L452 256Z" fill="#395f88" stroke="#adadad"></path><path d="M391.8 203L370 178L351.8 226.3Z" fill="#34274e" stroke="#adadad"></path><path d="M451.8 210.7L419.3 197.3L418.8 218.7Z" fill="#38547d" stroke="#adadad"></path><path d="M207.5 601.7L227.3 620L261 587Z" fill="#34274e" stroke="#adadad"></path><path d="M208.5 227.3L195.3 251.7L221 235Z" fill="#384872" stroke="#adadad"></path><path d="M195.3 251.7L184.5 251.7L182 291Z" fill="#458eac" stroke="#adadad"></path><path d="M84.3 350.3L107.3 372L84.8 344.3Z" fill="#38547d" stroke="#adadad"></path><path d="M334.5 189.3L292.5 192L351.8 226.3Z" fill="#34274e" stroke="#adadad"></path><path d="M547 314L531 274.3L533.3 313.7Z" fill="#3c769b" stroke="#adadad"></path><path d="M505.3 595.3L516 582.3L487.8 567.3Z" fill="#4c9ab3" stroke="#adadad"></path><path d="M309.8 671L352.3 654.7L330.3 646Z" fill="#395f88" stroke="#adadad"></path><path d="M330.3 646L352.3 654.7L377.5 627.7Z" fill="#458eac" stroke="#adadad"></path><path d="M107.3 372L115.5 375.7L152.8 329Z" fill="#36325a" stroke="#adadad"></path><path d="M152.8 329L115.5 375.7L158 387Z" fill="#3a6b92" stroke="#adadad"></path><path d="M141.8 427.7L109.5 432.3L140.3 449.7Z" fill="#3a6b92" stroke="#adadad"></path><path d="M483.3 605.7L505.3 595.3L487.8 567.3Z" fill="#3c769b" stroke="#adadad"></path><path d="M568.5 538.7L550.8 500.7L494 516Z" fill="#36325a" stroke="#adadad"></path><path d="M551.8 500.3L579 476.7L527.3 424Z" fill="#384872" stroke="#adadad"></path><path d="M209.3 221L208.5 227.3L221 235Z" fill="#458eac" stroke="#adadad"></path><path d="M209.3 221L221 235L223 179.7Z" fill="#38547d" stroke="#adadad"></path><path d="M100 412.7L109.5 432.3L141.8 427.7Z" fill="#395f88" stroke="#adadad"></path><path d="M156 569.3L208.5 547L179 539Z" fill="#373d67" stroke="#adadad"></path><path d="M564.5 513L579 476.7L551.8 500.3Z" fill="#4c9ab3" stroke="#adadad"></path><path d="M207.5 601.7L191.3 607.3L227.3 620Z" fill="#34274e" stroke="#adadad"></path><path d="M120.3 513.3L179 539L138.3 477Z" fill="#4c9ab3" stroke="#adadad"></path><path d="M451.8 210.7L423 192.3L419.3 197.3Z" fill="#34274e" stroke="#adadad"></path><path d="M419.3 197.3L423 192.3L391.8 203Z" fill="#3a6b92" stroke="#adadad"></path><path d="M109.5 432.3L121 498.7L138.3 477Z" fill="#36325a" stroke="#adadad"></path><path d="M107.3 372L110 385.3L115.5 375.7Z" fill="#38547d" stroke="#adadad"></path><path d="M115.5 375.7L110 385.3L158 387Z" fill="#384872" stroke="#adadad"></path><path d="M476.5 227.7L462.8 209.3L451.8 210.7Z" fill="#384872" stroke="#adadad"></path><path d="M451.8 210.7L462.8 209.3L423 192.3Z" fill="#38547d" stroke="#adadad"></path><path d="M521.3 197.7L462.8 209.3L476.5 227.7Z" fill="#384872" stroke="#adadad"></path><path d="M476.8 624L463.8 598.3L451 611Z" fill="#3c769b" stroke="#adadad"></path><path d="M483.3 605.7L484.3 618L505.3 595.3Z" fill="#38547d" stroke="#adadad"></path><path d="M208.5 227.3L186.3 231.3L195.3 251.7Z" fill="#34274e" stroke="#adadad"></path><path d="M192.5 201L209.3 221L223 179.7Z" fill="#36325a" stroke="#adadad"></path><path d="M448 650.3L415.3 590.7L377.5 627.7Z" fill="#395f88" stroke="#adadad"></path><path d="M547.3 234L525.3 255L531 274.3Z" fill="#3a6b92" stroke="#adadad"></path><path d="M531 274.3L525.3 255L491 292.3Z" fill="#4082a4" stroke="#adadad"></path><path d="M423 192.3L370 178L391.8 203Z" fill="#373d67" stroke="#adadad"></path><path d="M318.5 148.7L278.3 172.3L292.5 192Z" fill="#4082a4" stroke="#adadad"></path><path d="M129 535.7L149.8 560.7L179 539Z" fill="#4c9ab3" stroke="#adadad"></path><path d="M149.8 560.7L156 569.3L179 539Z" fill="#38547d" stroke="#adadad"></path><path d="M154 623L191.3 607.3L190.8 600.3Z" fill="#395f88" stroke="#adadad"></path><path d="M190.8 600.3L191.3 607.3L207.5 601.7Z" fill="#4c9ab3" stroke="#adadad"></path><path d="M131 278.7L171.5 311.3L174.8 287.7Z" fill="#4c9ab3" stroke="#adadad"></path><path d="M110 385.3L100 412.7L141.8 427.7Z" fill="#36325a" stroke="#adadad"></path><path d="M582.8 350L527 363L528.3 377.3Z" fill="#384872" stroke="#adadad"></path><path d="M547 314L566.5 298.3L531 274.3Z" fill="#395f88" stroke="#adadad"></path><path d="M582.8 350L528.3 377.3L568 402.3Z" fill="#38547d" stroke="#adadad"></path><path d="M594.5 405L591.3 393L568 402.3Z" fill="#384872" stroke="#adadad"></path><path d="M591.3 393L582.8 350L568 402.3Z" fill="#3c769b" stroke="#adadad"></path><path d="M109.3 526.7L120.3 513.3L121 498.7Z" fill="#4c9ab3" stroke="#adadad"></path><path d="M121 498.7L120.3 513.3L138.3 477Z" fill="#3a6b92" stroke="#adadad"></path><path d="M149.8 560.7L143.8 575L156 569.3Z" fill="#395f88" stroke="#adadad"></path><path d="M120.3 513.3L129 535.7L179 539Z" fill="#373d67" stroke="#adadad"></path><path d="M79.8 420L100 412.7L78.8 416.7Z" fill="#384872" stroke="#adadad"></path><path d="M55.5 480L109.3 526.7L121 498.7Z" fill="#384872" stroke="#adadad"></path><path d="M579 476.7L594.5 405L568 402.3Z" fill="#3c769b" stroke="#adadad"></path><path d="M591.3 393L639.5 351L582.8 350Z" fill="#36325a" stroke="#adadad"></path><path d="M209.3 221L186.3 231.3L208.5 227.3Z" fill="#34274e" stroke="#adadad"></path><path d="M184.5 251.7L131 278.7L174.8 287.7Z" fill="#4082a4" stroke="#adadad"></path><path d="M505.3 595.3L523 596.7L516 582.3Z" fill="#395f88" stroke="#adadad"></path><path d="M516 582.3L568.5 538.7L494 516Z" fill="#34274e" stroke="#adadad"></path><path d="M524 606L523 596.7L505.3 595.3Z" fill="#373d67" stroke="#adadad"></path><path d="M524 606L505.3 595.3L484.3 618Z" fill="#3c769b" stroke="#adadad"></path><path d="M593.8 282.7L566.5 298.3L578.5 338.7Z" fill="#36325a" stroke="#adadad"></path><path d="M578.5 338.7L566.5 298.3L547 314Z" fill="#4c9ab3" stroke="#adadad"></path><path d="M523 596.7L568.5 538.7L516 582.3Z" fill="#458eac" stroke="#adadad"></path><path d="M609.5 485.3L610.8 458L579 476.7Z" fill="#38547d" stroke="#adadad"></path><path d="M579 476.7L610.8 458L594.5 405Z" fill="#373d67" stroke="#adadad"></path><path d="M381.3 672L448 650.3L377.5 627.7Z" fill="#36325a" stroke="#adadad"></path><path d="M476.8 624L522.5 644.3L484.3 618Z" fill="#36325a" stroke="#adadad"></path><path d="M448 650.3L463.5 645L451 611Z" fill="#4c9ab3" stroke="#adadad"></path><path d="M286.8 624L249.5 616.3L259.3 691.7Z" fill="#34274e" stroke="#adadad"></path><path d="M309.8 671L286.8 624L259.3 691.7Z" fill="#4082a4" stroke="#adadad"></path><path d="M352.3 654.7L381.3 672L377.5 627.7Z" fill="#3a6b92" stroke="#adadad"></path><path d="M328.8 703.7L381.3 672L352.3 654.7Z" fill="#36325a" stroke="#adadad"></path><path d="M94.5 579.7L143.8 575L129 535.7Z" fill="#395f88" stroke="#adadad"></path><path d="M129 535.7L143.8 575L149.8 560.7Z" fill="#4082a4" stroke="#adadad"></path><path d="M156 569.3L154 623L190.8 600.3Z" fill="#4c9ab3" stroke="#adadad"></path><path d="M318.5 148.7L292.5 192L334.5 189.3Z" fill="#384872" stroke="#adadad"></path><path d="M292.5 192L278.3 172.3L273 201.3Z" fill="#36325a" stroke="#adadad"></path><path d="M209.3 221L192.5 201L186.3 231.3Z" fill="#458eac" stroke="#adadad"></path><path d="M522.5 644.3L524 606L484.3 618Z" fill="#36325a" stroke="#adadad"></path><path d="M602.8 570.7L599.3 549L568.5 538.7Z" fill="#4c9ab3" stroke="#adadad"></path><path d="M145.8 230.3L131 278.7L184.5 251.7Z" fill="#384872" stroke="#adadad"></path><path d="M448 650.3L454.3 657L463.5 645Z" fill="#36325a" stroke="#adadad"></path><path d="M463.5 645L478.8 670.7L476.8 624Z" fill="#373d67" stroke="#adadad"></path><path d="M413 687.3L454.3 657L448 650.3Z" fill="#458eac" stroke="#adadad"></path><path d="M55.5 480L121 498.7L109.5 432.3Z" fill="#4082a4" stroke="#adadad"></path><path d="M120.3 513.3L109.3 526.7L129 535.7Z" fill="#38547d" stroke="#adadad"></path><path d="M372 157.7L347.3 156.7L370 178Z" fill="#373d67" stroke="#adadad"></path><path d="M370 178L347.3 156.7L334.5 189.3Z" fill="#36325a" stroke="#adadad"></path><path d="M372 157.7L370 178L408 143Z" fill="#4c9ab3" stroke="#adadad"></path><path d="M408 143L370 178L423 192.3Z" fill="#3c769b" stroke="#adadad"></path><path d="M309.8 701.3L304.8 681.3L267 699Z" fill="#3a6b92" stroke="#adadad"></path><path d="M309.8 671L328.8 703.7L352.3 654.7Z" fill="#3c769b" stroke="#adadad"></path><path d="M463.8 693L460.3 659.7L454.3 657Z" fill="#36325a" stroke="#adadad"></path><path d="M454.3 657L460.3 659.7L463.5 645Z" fill="#395f88" stroke="#adadad"></path><path d="M609.5 485.3L579 476.7L564.5 513Z" fill="#4c9ab3" stroke="#adadad"></path><path d="M594.5 405L638.3 389.7L591.3 393Z" fill="#395f88" stroke="#adadad"></path><path d="M78.8 416.7L100 412.7L65.3 385.7Z" fill="#3a6b92" stroke="#adadad"></path><path d="M100 412.7L79.8 420L109.5 432.3Z" fill="#3c769b" stroke="#adadad"></path><path d="M100 412.7L110 385.3L65.3 385.7Z" fill="#3c769b" stroke="#adadad"></path><path d="M223 179.7L221 235L273 201.3Z" fill="#34274e" stroke="#adadad"></path><path d="M186.3 231.3L162 225.3L184.5 251.7Z" fill="#458eac" stroke="#adadad"></path><path d="M181.8 197.7L162 225.3L186.3 231.3Z" fill="#458eac" stroke="#adadad"></path><path d="M610.8 458L615.8 424L594.5 405Z" fill="#36325a" stroke="#adadad"></path><path d="M634.3 291L593.8 282.7L578.5 338.7Z" fill="#3a6b92" stroke="#adadad"></path><path d="M65.3 385.7L110 385.3L107.3 372Z" fill="#34274e" stroke="#adadad"></path><path d="M79.8 420L64.5 437.7L109.5 432.3Z" fill="#3a6b92" stroke="#adadad"></path><path d="M242 158.3L273 201.3L278.3 172.3Z" fill="#384872" stroke="#adadad"></path><path d="M242 158.3L223 179.7L273 201.3Z" fill="#458eac" stroke="#adadad"></path><path d="M599.3 549L609.5 485.3L564.5 513Z" fill="#3a6b92" stroke="#adadad"></path><path d="M610.8 458L624.3 448.7L615.8 424Z" fill="#373d67" stroke="#adadad"></path><path d="M621.8 473.3L609.5 485.3L625.5 480.7Z" fill="#36325a" stroke="#adadad"></path><path d="M346.8 134.3L331.8 148L347.3 156.7Z" fill="#395f88" stroke="#adadad"></path><path d="M347.3 156.7L331.8 148L334.5 189.3Z" fill="#4c9ab3" stroke="#adadad"></path><path d="M84.8 344.3L152.8 329L101.5 300.3Z" fill="#384872" stroke="#adadad"></path><path d="M84.8 344.3L107.3 372L152.8 329Z" fill="#3a6b92" stroke="#adadad"></path><path d="M331.8 148L318.5 148.7L334.5 189.3Z" fill="#3a6b92" stroke="#adadad"></path><path d="M547.3 234L521.5 209.7L525.3 255Z" fill="#384872" stroke="#adadad"></path><path d="M525.3 255L521.5 209.7L476.5 227.7Z" fill="#3c769b" stroke="#adadad"></path><path d="M437.5 139L408 143L423 192.3Z" fill="#34274e" stroke="#adadad"></path><path d="M566.5 298.3L547.3 234L531 274.3Z" fill="#384872" stroke="#adadad"></path><path d="M550 224.7L547.3 234L597.8 270.3Z" fill="#4082a4" stroke="#adadad"></path><path d="M101.5 300.3L152.8 329L131 278.7Z" fill="#36325a" stroke="#adadad"></path><path d="M101.5 276.7L101.5 300.3L131 278.7Z" fill="#4c9ab3" stroke="#adadad"></path><path d="M392.8 693.3L413 687.3L381.3 672Z" fill="#38547d" stroke="#adadad"></path><path d="M381.3 672L413 687.3L448 650.3Z" fill="#395f88" stroke="#adadad"></path><path d="M161 184L145.8 230.3L162 225.3Z" fill="#395f88" stroke="#adadad"></path><path d="M162 225.3L145.8 230.3L184.5 251.7Z" fill="#458eac" stroke="#adadad"></path><path d="M181.8 197.7L186.3 231.3L192.5 201Z" fill="#395f88" stroke="#adadad"></path><path d="M190.8 165L181.8 197.7L192.5 201Z" fill="#36325a" stroke="#adadad"></path><path d="M328.8 703.7L392.8 693.3L381.3 672Z" fill="#4c9ab3" stroke="#adadad"></path><path d="M621.8 473.3L624.3 448.7L610.8 458Z" fill="#458eac" stroke="#adadad"></path><path d="M599.3 549L564.5 513L568.5 538.7Z" fill="#3c769b" stroke="#adadad"></path><path d="M609.5 485.3L621.8 473.3L610.8 458Z" fill="#458eac" stroke="#adadad"></path><path d="M143.8 575L154 623L156 569.3Z" fill="#38547d" stroke="#adadad"></path><path d="M191.3 607.3L175.5 655.7L227.3 620Z" fill="#458eac" stroke="#adadad"></path><path d="M127.3 610L154 623L143.8 575Z" fill="#4082a4" stroke="#adadad"></path><path d="M597.8 270.3L547.3 234L566.5 298.3Z" fill="#38547d" stroke="#adadad"></path><path d="M547.3 234L550 224.7L521.5 209.7Z" fill="#384872" stroke="#adadad"></path><path d="M578.5 338.7L582.8 350L639.5 351Z" fill="#373d67" stroke="#adadad"></path><path d="M621.8 473.3L627.5 446.3L624.3 448.7Z" fill="#373d67" stroke="#adadad"></path><path d="M624.3 448.7L627.5 446.3L615.8 424Z" fill="#38547d" stroke="#adadad"></path><path d="M271.8 137.7L242 158.3L278.3 172.3Z" fill="#34274e" stroke="#adadad"></path><path d="M223 179.7L190.8 165L192.5 201Z" fill="#3a6b92" stroke="#adadad"></path><path d="M550 224.7L524.3 200.3L521.5 209.7Z" fill="#4082a4" stroke="#adadad"></path><path d="M521.5 209.7L521.3 197.7L476.5 227.7Z" fill="#38547d" stroke="#adadad"></path><path d="M597.8 270.3L593.8 282.7L634.3 291Z" fill="#36325a" stroke="#adadad"></path><path d="M524.3 200.3L521.3 197.7L521.5 209.7Z" fill="#458eac" stroke="#adadad"></path><path d="M242 158.3L226.5 164.3L223 179.7Z" fill="#384872" stroke="#adadad"></path><path d="M437.5 139L423 192.3L462.8 209.3Z" fill="#458eac" stroke="#adadad"></path><path d="M372 157.7L346.8 134.3L347.3 156.7Z" fill="#38547d" stroke="#adadad"></path><path d="M331.8 148L313.5 117.3L318.5 148.7Z" fill="#458eac" stroke="#adadad"></path><path d="M568.5 538.7L523 596.7L603.5 581.3Z" fill="#34274e" stroke="#adadad"></path><path d="M602.8 570.7L568.5 538.7L603.5 581.3Z" fill="#34274e" stroke="#adadad"></path><path d="M63.3 422.3L79.8 420L78.8 416.7Z" fill="#38547d" stroke="#adadad"></path><path d="M63.3 422.3L64.5 437.7L79.8 420Z" fill="#38547d" stroke="#adadad"></path><path d="M94.5 579.7L127.3 610L143.8 575Z" fill="#38547d" stroke="#adadad"></path><path d="M63.3 422.3L78.8 416.7L65.3 385.7Z" fill="#3c769b" stroke="#adadad"></path><path d="M463.8 693L478.8 670.7L460.3 659.7Z" fill="#395f88" stroke="#adadad"></path><path d="M460.3 659.7L478.8 670.7L463.5 645Z" fill="#38547d" stroke="#adadad"></path><path d="M463.8 693L454.3 657L413 687.3Z" fill="#373d67" stroke="#adadad"></path><path d="M65.3 385.7L107.3 372L84.3 350.3Z" fill="#4082a4" stroke="#adadad"></path><path d="M36.5 351L84.3 350.3L84.8 344.3Z" fill="#373d67" stroke="#adadad"></path><path d="M36.5 351L65.3 385.7L84.3 350.3Z" fill="#36325a" stroke="#adadad"></path><path d="M259.3 691.7L249.5 616.3L227.3 620Z" fill="#34274e" stroke="#adadad"></path><path d="M304.8 681.3L328.8 703.7L309.8 671Z" fill="#38547d" stroke="#adadad"></path><path d="M104.5 270L101.5 276.7L131 278.7Z" fill="#36325a" stroke="#adadad"></path><path d="M101.5 300.3L73.3 284.7L84.8 344.3Z" fill="#395f88" stroke="#adadad"></path><path d="M309.8 701.3L328.8 703.7L304.8 681.3Z" fill="#458eac" stroke="#adadad"></path><path d="M621.8 473.3L625.5 480.7L627.5 446.3Z" fill="#4c9ab3" stroke="#adadad"></path><path d="M599.3 549L625.5 480.7L609.5 485.3Z" fill="#36325a" stroke="#adadad"></path><path d="M478.8 670.7L522.5 644.3L476.8 624Z" fill="#34274e" stroke="#adadad"></path><path d="M111.5 251.3L104.5 270L131 278.7Z" fill="#3a6b92" stroke="#adadad"></path><path d="M369.3 127.3L346.8 134.3L372 157.7Z" fill="#458eac" stroke="#adadad"></path><path d="M318.5 148.7L271.8 137.7L278.3 172.3Z" fill="#3a6b92" stroke="#adadad"></path><path d="M175.5 655.7L259.3 691.7L227.3 620Z" fill="#458eac" stroke="#adadad"></path><path d="M145.8 230.3L111.5 251.3L131 278.7Z" fill="#3c769b" stroke="#adadad"></path><path d="M81.3 251L73.3 284.7L101.5 276.7Z" fill="#38547d" stroke="#adadad"></path><path d="M81.3 251L111.5 251.3L89.3 234.3Z" fill="#384872" stroke="#adadad"></path><path d="M261.3 701.3L267 699L259.3 691.7Z" fill="#38547d" stroke="#adadad"></path><path d="M259.3 691.7L267 699L304.8 681.3Z" fill="#3c769b" stroke="#adadad"></path><path d="M309.8 701.3L310.5 727.7L328.8 703.7Z" fill="#34274e" stroke="#adadad"></path><path d="M94.5 579.7L129 535.7L109.3 526.7Z" fill="#4c9ab3" stroke="#adadad"></path><path d="M154 623L175.5 655.7L191.3 607.3Z" fill="#34274e" stroke="#adadad"></path><path d="M638.3 389.7L594.5 405L615.8 424Z" fill="#458eac" stroke="#adadad"></path><path d="M593.8 282.7L597.8 270.3L566.5 298.3Z" fill="#395f88" stroke="#adadad"></path><path d="M313.5 117.3L271.8 137.7L318.5 148.7Z" fill="#373d67" stroke="#adadad"></path><path d="M242 158.3L203.8 145.3L226.5 164.3Z" fill="#384872" stroke="#adadad"></path><path d="M151 649L175.5 655.7L154 623Z" fill="#384872" stroke="#adadad"></path><path d="M651.3 406.3L615.8 424L627.5 446.3Z" fill="#38547d" stroke="#adadad"></path><path d="M651.3 406.3L638.3 389.7L615.8 424Z" fill="#3a6b92" stroke="#adadad"></path><path d="M408 143L369.3 127.3L372 157.7Z" fill="#38547d" stroke="#adadad"></path><path d="M346.8 134.3L313.5 117.3L331.8 148Z" fill="#4082a4" stroke="#adadad"></path><path d="M235.5 743L261.3 701.3L259.3 691.7Z" fill="#3a6b92" stroke="#adadad"></path><path d="M267 699L296.5 723L309.8 701.3Z" fill="#36325a" stroke="#adadad"></path><path d="M493.5 154L437.5 139L462.8 209.3Z" fill="#3c769b" stroke="#adadad"></path><path d="M408 143L422 120.3L369.3 127.3Z" fill="#384872" stroke="#adadad"></path><path d="M550 224.7L534 190L524.3 200.3Z" fill="#36325a" stroke="#adadad"></path><path d="M524.3 200.3L534 190L521.3 197.7Z" fill="#395f88" stroke="#adadad"></path><path d="M521.3 197.7L493.5 154L462.8 209.3Z" fill="#38547d" stroke="#adadad"></path><path d="M604.8 207L534 190L550 224.7Z" fill="#36325a" stroke="#adadad"></path><path d="M603.5 581.3L523 596.7L524 606Z" fill="#4c9ab3" stroke="#adadad"></path><path d="M675 492.7L675 480L625.5 480.7Z" fill="#395f88" stroke="#adadad"></path><path d="M478.8 670.7L526 684.3L522.5 644.3Z" fill="#3c769b" stroke="#adadad"></path><path d="M429.5 710.7L463.8 693L413 687.3Z" fill="#3c769b" stroke="#adadad"></path><path d="M429.5 710.7L413 687.3L392.8 693.3Z" fill="#36325a" stroke="#adadad"></path><path d="M222.3 92L252.3 137.7L271.8 137.7Z" fill="#395f88" stroke="#adadad"></path><path d="M271.8 137.7L252.3 137.7L242 158.3Z" fill="#34274e" stroke="#adadad"></path><path d="M226.5 164.3L190.8 165L223 179.7Z" fill="#4082a4" stroke="#adadad"></path><path d="M181.8 197.7L161 184L162 225.3Z" fill="#4c9ab3" stroke="#adadad"></path><path d="M0 463.7L55.5 480L64.5 437.7Z" fill="#4c9ab3" stroke="#adadad"></path><path d="M64.5 437.7L55.5 480L109.5 432.3Z" fill="#38547d" stroke="#adadad"></path><path d="M0 437.3L64.5 437.7L63.3 422.3Z" fill="#373d67" stroke="#adadad"></path><path d="M203.8 145.3L190.8 165L226.5 164.3Z" fill="#3c769b" stroke="#adadad"></path><path d="M72.5 571.3L94.5 579.7L109.3 526.7Z" fill="#4082a4" stroke="#adadad"></path><path d="M127.3 610L151 649L154 623Z" fill="#458eac" stroke="#adadad"></path><path d="M638.3 389.7L639.5 351L591.3 393Z" fill="#373d67" stroke="#adadad"></path><path d="M190.8 165L161 184L181.8 197.7Z" fill="#38547d" stroke="#adadad"></path><path d="M151.3 664.7L151 649L88 647.3Z" fill="#34274e" stroke="#adadad"></path><path d="M175.5 655.7L176.8 700.7L259.3 691.7Z" fill="#458eac" stroke="#adadad"></path><path d="M151.3 664.7L151.5 650L151 649Z" fill="#38547d" stroke="#adadad"></path><path d="M151 649L151.5 650L175.5 655.7Z" fill="#3c769b" stroke="#adadad"></path><path d="M383 736.7L392.8 693.3L328.8 703.7Z" fill="#395f88" stroke="#adadad"></path><path d="M424 734L429.5 710.7L392.8 693.3Z" fill="#3c769b" stroke="#adadad"></path><path d="M610.8 590L603.5 581.3L606.3 602.3Z" fill="#36325a" stroke="#adadad"></path><path d="M675 492.7L625.5 480.7L675 512.3Z" fill="#4082a4" stroke="#adadad"></path><path d="M603.5 581.3L524 606L606.3 602.3Z" fill="#34274e" stroke="#adadad"></path><path d="M527.8 158.3L493.5 154L521.3 197.7Z" fill="#3c769b" stroke="#adadad"></path><path d="M313.5 117.3L346.8 134.3L336.8 106Z" fill="#395f88" stroke="#adadad"></path><path d="M319.3 108.7L313.5 117.3L336.8 106Z" fill="#34274e" stroke="#adadad"></path><path d="M651.3 406.3L627.5 446.3L675 446.3Z" fill="#395f88" stroke="#adadad"></path><path d="M675 409L651.3 406.3L675 446.3Z" fill="#395f88" stroke="#adadad"></path><path d="M638.3 389.7L675 378.3L639.5 351Z" fill="#395f88" stroke="#adadad"></path><path d="M81.3 251L104.5 270L111.5 251.3Z" fill="#4082a4" stroke="#adadad"></path><path d="M81.3 251L101.5 276.7L104.5 270Z" fill="#458eac" stroke="#adadad"></path><path d="M101.5 276.7L73.3 284.7L101.5 300.3Z" fill="#3c769b" stroke="#adadad"></path><path d="M65.3 385.7L14.8 401.3L63.3 422.3Z" fill="#373d67" stroke="#adadad"></path><path d="M72.5 571.3L92.3 589.3L94.5 579.7Z" fill="#4c9ab3" stroke="#adadad"></path><path d="M94.5 579.7L92.3 589.3L127.3 610Z" fill="#4082a4" stroke="#adadad"></path><path d="M272.3 739L267 699L261.3 701.3Z" fill="#384872" stroke="#adadad"></path><path d="M272.3 739L296.5 723L267 699Z" fill="#373d67" stroke="#adadad"></path><path d="M465.8 121L422 120.3L437.5 139Z" fill="#38547d" stroke="#adadad"></path><path d="M437.5 139L422 120.3L408 143Z" fill="#3c769b" stroke="#adadad"></path><path d="M181.5 141.7L203.8 145.3L215.3 87.7Z" fill="#4082a4" stroke="#adadad"></path><path d="M252.3 137.7L203.8 145.3L242 158.3Z" fill="#395f88" stroke="#adadad"></path><path d="M190.8 165L152.3 145.7L161 184Z" fill="#458eac" stroke="#adadad"></path><path d="M296.5 723L310.5 727.7L309.8 701.3Z" fill="#38547d" stroke="#adadad"></path><path d="M336.8 106L346.8 134.3L369.3 127.3Z" fill="#458eac" stroke="#adadad"></path><path d="M313.5 117.3L281 58L271.8 137.7Z" fill="#34274e" stroke="#adadad"></path><path d="M385.5 65.3L336.8 106L369.3 127.3Z" fill="#373d67" stroke="#adadad"></path><path d="M606.3 602.3L524 606L575 657.7Z" fill="#38547d" stroke="#adadad"></path><path d="M603.5 581.3L610.8 590L602.8 570.7Z" fill="#373d67" stroke="#adadad"></path><path d="M99.5 625.3L151 649L127.3 610Z" fill="#38547d" stroke="#adadad"></path><path d="M151.5 650L151.3 664.7L175.5 655.7Z" fill="#384872" stroke="#adadad"></path><path d="M45.8 556.3L72.5 571.3L109.3 526.7Z" fill="#3a6b92" stroke="#adadad"></path><path d="M92.3 589.3L99.5 625.3L127.3 610Z" fill="#3a6b92" stroke="#adadad"></path><path d="M639.5 351L634.3 291L578.5 338.7Z" fill="#36325a" stroke="#adadad"></path><path d="M585.5 139.3L527.8 158.3L534 190Z" fill="#38547d" stroke="#adadad"></path><path d="M640.5 289.7L634.3 291L639.5 351Z" fill="#384872" stroke="#adadad"></path><path d="M89.3 234.3L111.5 251.3L145.8 230.3Z" fill="#4082a4" stroke="#adadad"></path><path d="M89.3 234.3L145.8 230.3L87 182.7Z" fill="#4082a4" stroke="#adadad"></path><path d="M512 141.7L493 139.3L493.5 154Z" fill="#4082a4" stroke="#adadad"></path><path d="M493.5 154L465.8 121L437.5 139Z" fill="#38547d" stroke="#adadad"></path><path d="M527.8 158.3L521.3 197.7L534 190Z" fill="#395f88" stroke="#adadad"></path><path d="M424 734L452 717.7L429.5 710.7Z" fill="#4082a4" stroke="#adadad"></path><path d="M429.5 710.7L452 717.7L463.8 693Z" fill="#34274e" stroke="#adadad"></path><path d="M518.5 699L526 684.3L478.8 670.7Z" fill="#4c9ab3" stroke="#adadad"></path><path d="M575 657.7L524 606L522.5 644.3Z" fill="#36325a" stroke="#adadad"></path><path d="M604.8 207L550 224.7L597.8 270.3Z" fill="#36325a" stroke="#adadad"></path><path d="M70.8 217.7L89.3 234.3L71.5 213.7Z" fill="#34274e" stroke="#adadad"></path><path d="M19.8 332L36.5 351L73.3 284.7Z" fill="#3c769b" stroke="#adadad"></path><path d="M73.3 284.7L36.5 351L84.8 344.3Z" fill="#4082a4" stroke="#adadad"></path><path d="M377.3 744.3L383 736.7L328.8 703.7Z" fill="#4082a4" stroke="#adadad"></path><path d="M518.5 699L478.8 670.7L463.8 693Z" fill="#34274e" stroke="#adadad"></path><path d="M512 141.7L522.8 151.7L539.3 117.3Z" fill="#34274e" stroke="#adadad"></path><path d="M527.8 158.3L522.8 151.7L493.5 154Z" fill="#36325a" stroke="#adadad"></path><path d="M688.3 360.3L640.5 289.7L639.5 351Z" fill="#395f88" stroke="#adadad"></path><path d="M634.3 291L632.3 251.7L597.8 270.3Z" fill="#373d67" stroke="#adadad"></path><path d="M513.3 111L465.8 121L493 139.3Z" fill="#373d67" stroke="#adadad"></path><path d="M493 139.3L465.8 121L493.5 154Z" fill="#373d67" stroke="#adadad"></path><path d="M422 120.3L418.8 95.3L369.3 127.3Z" fill="#384872" stroke="#adadad"></path><path d="M83.5 610L99.5 625.3L92.3 589.3Z" fill="#373d67" stroke="#adadad"></path><path d="M522.8 151.7L512 141.7L493.5 154Z" fill="#38547d" stroke="#adadad"></path><path d="M222.3 92L203.8 145.3L252.3 137.7Z" fill="#373d67" stroke="#adadad"></path><path d="M203.8 145.3L181.5 141.7L190.8 165Z" fill="#384872" stroke="#adadad"></path><path d="M383 736.7L424 734L392.8 693.3Z" fill="#4c9ab3" stroke="#adadad"></path><path d="M452 717.7L463.5 724.3L463.8 693Z" fill="#34274e" stroke="#adadad"></path><path d="M72.5 571.3L83.5 610L92.3 589.3Z" fill="#395f88" stroke="#adadad"></path><path d="M346.5 766L377.3 744.3L328.8 703.7Z" fill="#4082a4" stroke="#adadad"></path><path d="M383 736.7L398.3 750.7L424 734Z" fill="#36325a" stroke="#adadad"></path><path d="M458.3 759.3L463.5 724.3L452 717.7Z" fill="#4082a4" stroke="#adadad"></path><path d="M491.3 730.7L518.5 699L463.8 693Z" fill="#3a6b92" stroke="#adadad"></path><path d="M526 684.3L575 657.7L522.5 644.3Z" fill="#36325a" stroke="#adadad"></path><path d="M675 446.3L627.5 446.3L675 480Z" fill="#38547d" stroke="#adadad"></path><path d="M651.3 406.3L675 378.3L638.3 389.7Z" fill="#373d67" stroke="#adadad"></path><path d="M675 409L675 404.7L651.3 406.3Z" fill="#3c769b" stroke="#adadad"></path><path d="M296.5 723L286.5 749.3L310.5 727.7Z" fill="#36325a" stroke="#adadad"></path><path d="M310.5 727.7L346.5 766L328.8 703.7Z" fill="#38547d" stroke="#adadad"></path><path d="M267 738.7L272.3 739L261.3 701.3Z" fill="#458eac" stroke="#adadad"></path><path d="M675 480L627.5 446.3L625.5 480.7Z" fill="#3a6b92" stroke="#adadad"></path><path d="M599.3 549L675 512.3L625.5 480.7Z" fill="#384872" stroke="#adadad"></path><path d="M154 692.3L175.5 655.7L151.3 664.7Z" fill="#38547d" stroke="#adadad"></path><path d="M154 692.3L176.8 700.7L175.5 655.7Z" fill="#34274e" stroke="#adadad"></path><path d="M154 692.3L104 689.7L139.8 709Z" fill="#373d67" stroke="#adadad"></path><path d="M235.5 743L267 738.7L261.3 701.3Z" fill="#38547d" stroke="#adadad"></path><path d="M575.8 667L575 657.7L526 684.3Z" fill="#34274e" stroke="#adadad"></path><path d="M675 404.7L675 378.3L651.3 406.3Z" fill="#4c9ab3" stroke="#adadad"></path><path d="M642.5 222.3L632.3 251.7L675 244.7Z" fill="#38547d" stroke="#adadad"></path><path d="M640.5 289.7L632.3 251.7L634.3 291Z" fill="#384872" stroke="#adadad"></path><path d="M539.3 117.3L513.3 111L512 141.7Z" fill="#4082a4" stroke="#adadad"></path><path d="M70.8 217.7L51.3 272L81.3 251Z" fill="#458eac" stroke="#adadad"></path><path d="M81.3 251L51.3 272L73.3 284.7Z" fill="#395f88" stroke="#adadad"></path><path d="M70.8 217.7L81.3 251L89.3 234.3Z" fill="#38547d" stroke="#adadad"></path><path d="M41.8 563L45.8 556.3L0 541.3Z" fill="#34274e" stroke="#adadad"></path><path d="M55.5 480L45.8 556.3L109.3 526.7Z" fill="#458eac" stroke="#adadad"></path><path d="M72.5 571.3L43.8 567.7L83.5 610Z" fill="#373d67" stroke="#adadad"></path><path d="M445.5 94.3L422 120.3L465.8 121Z" fill="#38547d" stroke="#adadad"></path><path d="M445.5 94.3L418.8 95.3L422 120.3Z" fill="#36325a" stroke="#adadad"></path><path d="M0 364L14.8 401.3L36.5 351Z" fill="#384872" stroke="#adadad"></path><path d="M36.5 351L14.8 401.3L65.3 385.7Z" fill="#34274e" stroke="#adadad"></path><path d="M599.3 549L675 545.7L675 512.3Z" fill="#384872" stroke="#adadad"></path><path d="M267 738.7L267.8 743.7L272.3 739Z" fill="#34274e" stroke="#adadad"></path><path d="M272.3 739L286.5 749.3L296.5 723Z" fill="#4c9ab3" stroke="#adadad"></path><path d="M235.5 743L267.8 743.7L267 738.7Z" fill="#395f88" stroke="#adadad"></path><path d="M632.3 251.7L604.8 207L597.8 270.3Z" fill="#458eac" stroke="#adadad"></path><path d="M88 647.3L151 649L99.5 625.3Z" fill="#395f88" stroke="#adadad"></path><path d="M176.8 700.7L235.5 743L259.3 691.7Z" fill="#4c9ab3" stroke="#adadad"></path><path d="M492 744.7L491.3 730.7L463.5 724.3Z" fill="#38547d" stroke="#adadad"></path><path d="M377.3 744.3L398.3 750.7L383 736.7Z" fill="#458eac" stroke="#adadad"></path><path d="M371 782L398.3 750.7L377.3 744.3Z" fill="#3a6b92" stroke="#adadad"></path><path d="M267.8 743.7L286.5 749.3L272.3 739Z" fill="#3c769b" stroke="#adadad"></path><path d="M599.3 549L602.8 570.7L643.5 589Z" fill="#373d67" stroke="#adadad"></path><path d="M643.5 589L610.8 590L606.3 602.3Z" fill="#3c769b" stroke="#adadad"></path><path d="M151 83.7L152.3 145.7L181.5 141.7Z" fill="#3a6b92" stroke="#adadad"></path><path d="M181.5 141.7L152.3 145.7L190.8 165Z" fill="#36325a" stroke="#adadad"></path><path d="M575.8 667L604.8 636.7L575 657.7Z" fill="#3a6b92" stroke="#adadad"></path><path d="M575 657.7L604.8 636.7L606.3 602.3Z" fill="#4c9ab3" stroke="#adadad"></path><path d="M577.5 698.3L575.8 667L526 684.3Z" fill="#4c9ab3" stroke="#adadad"></path><path d="M0 513L45.8 556.3L55.5 480Z" fill="#373d67" stroke="#adadad"></path><path d="M45.8 556.3L43.8 567.7L72.5 571.3Z" fill="#34274e" stroke="#adadad"></path><path d="M83.5 610L88 647.3L99.5 625.3Z" fill="#34274e" stroke="#adadad"></path><path d="M41.8 563L43.8 567.7L45.8 556.3Z" fill="#395f88" stroke="#adadad"></path><path d="M51.3 272L19.8 332L73.3 284.7Z" fill="#3a6b92" stroke="#adadad"></path><path d="M463.5 65.7L445.5 94.3L465.8 121Z" fill="#3a6b92" stroke="#adadad"></path><path d="M513.3 111L493 139.3L512 141.7Z" fill="#36325a" stroke="#adadad"></path><path d="M643.5 589L602.8 570.7L610.8 590Z" fill="#373d67" stroke="#adadad"></path><path d="M613.8 634.3L643.5 589L606.3 602.3Z" fill="#384872" stroke="#adadad"></path><path d="M597.3 704.3L613.8 634.3L604.8 636.7Z" fill="#3c769b" stroke="#adadad"></path><path d="M604.8 636.7L613.8 634.3L606.3 602.3Z" fill="#3a6b92" stroke="#adadad"></path><path d="M193.5 749L235.5 743L176.8 700.7Z" fill="#38547d" stroke="#adadad"></path><path d="M273.8 770L308 763.3L286.5 749.3Z" fill="#4c9ab3" stroke="#adadad"></path><path d="M71.5 213.7L89.3 234.3L87 182.7Z" fill="#38547d" stroke="#adadad"></path><path d="M0 290.3L0.8 333.7L19.8 332Z" fill="#395f88" stroke="#adadad"></path><path d="M463.5 724.3L491.3 730.7L463.8 693Z" fill="#384872" stroke="#adadad"></path><path d="M543.8 731.3L577.5 698.3L526 684.3Z" fill="#36325a" stroke="#adadad"></path><path d="M492 744.7L463.5 724.3L458.3 759.3Z" fill="#38547d" stroke="#adadad"></path><path d="M87 182.7L145.8 230.3L161 184Z" fill="#34274e" stroke="#adadad"></path><path d="M0 287L0 290.3L51.3 272Z" fill="#34274e" stroke="#adadad"></path><path d="M34.5 632.7L88 647.3L83.5 610Z" fill="#3a6b92" stroke="#adadad"></path><path d="M675 404.7L688.3 360.3L675 378.3Z" fill="#3c769b" stroke="#adadad"></path><path d="M675 378.3L688.3 360.3L639.5 351Z" fill="#458eac" stroke="#adadad"></path><path d="M675 409L688.3 360.3L675 404.7Z" fill="#458eac" stroke="#adadad"></path><path d="M675 446.3L688.3 360.3L675 409Z" fill="#395f88" stroke="#adadad"></path><path d="M692.3 538.3L688.3 360.3L675 446.3Z" fill="#38547d" stroke="#adadad"></path><path d="M692.3 538.3L675 446.3L675 480Z" fill="#384872" stroke="#adadad"></path><path d="M692.3 538.3L675 480L675 492.7Z" fill="#3c769b" stroke="#adadad"></path><path d="M273.8 770L286.5 749.3L267.8 743.7Z" fill="#4082a4" stroke="#adadad"></path><path d="M286.5 749.3L308 763.3L310.5 727.7Z" fill="#36325a" stroke="#adadad"></path><path d="M308 763.3L346.5 766L310.5 727.7Z" fill="#3c769b" stroke="#adadad"></path><path d="M458.3 759.3L452 717.7L424 734Z" fill="#34274e" stroke="#adadad"></path><path d="M336.8 106L321.3 73L319.3 108.7Z" fill="#458eac" stroke="#adadad"></path><path d="M319.3 108.7L281 58L313.5 117.3Z" fill="#3c769b" stroke="#adadad"></path><path d="M328.5 64.7L321.3 73L336.8 106Z" fill="#395f88" stroke="#adadad"></path><path d="M328.5 64.7L336.8 106L347.5 50Z" fill="#4082a4" stroke="#adadad"></path><path d="M0 364L0 437.3L14.8 401.3Z" fill="#3c769b" stroke="#adadad"></path><path d="M14.8 401.3L0 437.3L63.3 422.3Z" fill="#395f88" stroke="#adadad"></path><path d="M0 437.3L0 463.7L64.5 437.7Z" fill="#34274e" stroke="#adadad"></path><path d="M539.3 117.3L522.8 151.7L527.8 158.3Z" fill="#3c769b" stroke="#adadad"></path><path d="M281 58L222.3 92L271.8 137.7Z" fill="#3a6b92" stroke="#adadad"></path><path d="M675 556L599.3 549L643.5 589Z" fill="#36325a" stroke="#adadad"></path><path d="M675 556L675 545.7L599.3 549Z" fill="#458eac" stroke="#adadad"></path><path d="M675 512.3L692.3 538.3L675 492.7Z" fill="#4082a4" stroke="#adadad"></path><path d="M0 361.7L36.5 351L19.8 332Z" fill="#34274e" stroke="#adadad"></path><path d="M0 361.7L0 364L36.5 351Z" fill="#3a6b92" stroke="#adadad"></path><path d="M152.3 145.7L87 182.7L161 184Z" fill="#34274e" stroke="#adadad"></path><path d="M49.8 185.3L87 182.7L63.3 115.3Z" fill="#4c9ab3" stroke="#adadad"></path><path d="M0.8 333.7L0 361.7L19.8 332Z" fill="#38547d" stroke="#adadad"></path><path d="M0 463.7L0.8 484L55.5 480Z" fill="#34274e" stroke="#adadad"></path><path d="M41.8 563L12.8 588.3L43.8 567.7Z" fill="#395f88" stroke="#adadad"></path><path d="M675 583.3L675 556L643.5 589Z" fill="#395f88" stroke="#adadad"></path><path d="M675 545.7L692.3 538.3L675 512.3Z" fill="#3a6b92" stroke="#adadad"></path><path d="M632.3 251.7L642.5 222.3L604.8 207Z" fill="#3a6b92" stroke="#adadad"></path><path d="M574.5 128.7L539.3 117.3L527.8 158.3Z" fill="#458eac" stroke="#adadad"></path><path d="M675 248L632.3 251.7L640.5 289.7Z" fill="#373d67" stroke="#adadad"></path><path d="M385.5 65.3L369.3 127.3L418.8 95.3Z" fill="#373d67" stroke="#adadad"></path><path d="M255.3 17.3L215.3 87.7L222.3 92Z" fill="#373d67" stroke="#adadad"></path><path d="M385.5 65.3L418.8 95.3L444.8 42.3Z" fill="#373d67" stroke="#adadad"></path><path d="M458.3 759.3L424 734L425.8 781.7Z" fill="#4c9ab3" stroke="#adadad"></path><path d="M491.3 730.7L543.8 731.3L518.5 699Z" fill="#36325a" stroke="#adadad"></path><path d="M575.8 667L597.3 704.3L604.8 636.7Z" fill="#458eac" stroke="#adadad"></path><path d="M104 689.7L154 692.3L151.3 664.7Z" fill="#458eac" stroke="#adadad"></path><path d="M154 692.3L147.3 723L176.8 700.7Z" fill="#384872" stroke="#adadad"></path><path d="M444.8 42.3L418.8 95.3L445.5 94.3Z" fill="#3c769b" stroke="#adadad"></path><path d="M51.3 272L0 241L0 287Z" fill="#36325a" stroke="#adadad"></path><path d="M0 290.3L19.8 332L51.3 272Z" fill="#36325a" stroke="#adadad"></path><path d="M281 58L319.3 108.7L321.3 73Z" fill="#458eac" stroke="#adadad"></path><path d="M222.3 92L215.3 87.7L203.8 145.3Z" fill="#4c9ab3" stroke="#adadad"></path><path d="M425.8 781.7L424 734L398.3 750.7Z" fill="#4c9ab3" stroke="#adadad"></path><path d="M585.5 139.3L534 190L604.8 207Z" fill="#395f88" stroke="#adadad"></path><path d="M513.3 111L463.5 65.7L465.8 121Z" fill="#373d67" stroke="#adadad"></path><path d="M241.3 770.7L273.8 770L267.8 743.7Z" fill="#458eac" stroke="#adadad"></path><path d="M326.3 791.3L371 782L346.5 766Z" fill="#4082a4" stroke="#adadad"></path><path d="M241.3 770.7L267.8 743.7L235.5 743Z" fill="#3c769b" stroke="#adadad"></path><path d="M0 463.7L0 513L0.8 484Z" fill="#458eac" stroke="#adadad"></path><path d="M0.8 484L0 513L55.5 480Z" fill="#4082a4" stroke="#adadad"></path><path d="M47.5 714L104 689.7L88 647.3Z" fill="#38547d" stroke="#adadad"></path><path d="M543.8 731.3L526 684.3L518.5 699Z" fill="#373d67" stroke="#adadad"></path><path d="M690.3 562.7L675 545.7L675 556Z" fill="#38547d" stroke="#adadad"></path><path d="M326.3 791.3L346.5 766L308 763.3Z" fill="#4c9ab3" stroke="#adadad"></path><path d="M346.5 766L371 782L377.3 744.3Z" fill="#38547d" stroke="#adadad"></path><path d="M121.3 711.3L147.3 723L139.8 709Z" fill="#3a6b92" stroke="#adadad"></path><path d="M139.8 709L147.3 723L154 692.3Z" fill="#373d67" stroke="#adadad"></path><path d="M88 647.3L104 689.7L151.3 664.7Z" fill="#3c769b" stroke="#adadad"></path><path d="M34.5 632.7L83.5 610L43.8 567.7Z" fill="#34274e" stroke="#adadad"></path><path d="M170.8 754.7L193.5 749L176.8 700.7Z" fill="#36325a" stroke="#adadad"></path><path d="M675 583.3L643.5 589L683.3 633Z" fill="#4c9ab3" stroke="#adadad"></path><path d="M690.3 562.7L692.3 538.3L675 545.7Z" fill="#3c769b" stroke="#adadad"></path><path d="M656.5 652.7L643.5 589L613.8 634.3Z" fill="#4082a4" stroke="#adadad"></path><path d="M204.5 758.3L241.3 770.7L235.5 743Z" fill="#373d67" stroke="#adadad"></path><path d="M319.3 809L326.3 791.3L308 763.3Z" fill="#395f88" stroke="#adadad"></path><path d="M280.8 46.7L281 58L328.5 64.7Z" fill="#384872" stroke="#adadad"></path><path d="M328.5 64.7L281 58L321.3 73Z" fill="#458eac" stroke="#adadad"></path><path d="M202.3 780L204.5 758.3L179.5 779.7Z" fill="#34274e" stroke="#adadad"></path><path d="M193.5 749L204.5 758.3L235.5 743Z" fill="#3c769b" stroke="#adadad"></path><path d="M669.3 211.7L644.5 203L642.5 222.3Z" fill="#395f88" stroke="#adadad"></path><path d="M642.5 222.3L644.5 203L604.8 207Z" fill="#3a6b92" stroke="#adadad"></path><path d="M628.5 151L585.5 139.3L604.8 207Z" fill="#34274e" stroke="#adadad"></path><path d="M0 513L0 541.3L45.8 556.3Z" fill="#4c9ab3" stroke="#adadad"></path><path d="M553 732.3L543.8 731.3L558 751Z" fill="#38547d" stroke="#adadad"></path><path d="M492 744.7L543.8 731.3L491.3 730.7Z" fill="#395f88" stroke="#adadad"></path><path d="M585.5 139.3L574.5 128.7L527.8 158.3Z" fill="#4c9ab3" stroke="#adadad"></path><path d="M352.3 27.3L347.5 50L385.5 65.3Z" fill="#458eac" stroke="#adadad"></path><path d="M104 689.7L121.3 711.3L139.8 709Z" fill="#384872" stroke="#adadad"></path><path d="M147.3 723L170.8 754.7L176.8 700.7Z" fill="#373d67" stroke="#adadad"></path><path d="M463.5 65.7L513.3 111L519 68Z" fill="#34274e" stroke="#adadad"></path><path d="M385.5 65.3L347.5 50L336.8 106Z" fill="#34274e" stroke="#adadad"></path><path d="M688.3 360.3L675 248L640.5 289.7Z" fill="#36325a" stroke="#adadad"></path><path d="M371 782L425.8 781.7L398.3 750.7Z" fill="#34274e" stroke="#adadad"></path><path d="M458.3 759.3L490.5 791L492 744.7Z" fill="#38547d" stroke="#adadad"></path><path d="M51.3 272L70.8 217.7L0 241Z" fill="#395f88" stroke="#adadad"></path><path d="M0.8 333.7L0 290.3L0 361.7Z" fill="#4082a4" stroke="#adadad"></path><path d="M688.3 360.3L675.3 246L675 248Z" fill="#395f88" stroke="#adadad"></path><path d="M675 248L675 244.7L632.3 251.7Z" fill="#36325a" stroke="#adadad"></path><path d="M675.3 246L675 244.7L675 248Z" fill="#3c769b" stroke="#adadad"></path><path d="M675 583.3L690.3 562.7L675 556Z" fill="#3c769b" stroke="#adadad"></path><path d="M49.8 185.3L70.8 217.7L71.5 213.7Z" fill="#34274e" stroke="#adadad"></path><path d="M319.3 809L308 763.3L273.8 770Z" fill="#38547d" stroke="#adadad"></path><path d="M403 830.3L451.5 787.7L425.8 781.7Z" fill="#38547d" stroke="#adadad"></path><path d="M536 82.3L513.3 111L539.3 117.3Z" fill="#38547d" stroke="#adadad"></path><path d="M612.3 101.7L580.8 128L585.5 139.3Z" fill="#458eac" stroke="#adadad"></path><path d="M585.5 139.3L580.8 128L574.5 128.7Z" fill="#3a6b92" stroke="#adadad"></path><path d="M574.8 73.7L536 82.3L539.3 117.3Z" fill="#373d67" stroke="#adadad"></path><path d="M558 751L543.8 731.3L532 775Z" fill="#3a6b92" stroke="#adadad"></path><path d="M543.8 731.3L553 732.3L577.5 698.3Z" fill="#458eac" stroke="#adadad"></path><path d="M577.5 698.3L597.3 704.3L575.8 667Z" fill="#384872" stroke="#adadad"></path><path d="M0 541.3L12.8 588.3L41.8 563Z" fill="#3c769b" stroke="#adadad"></path><path d="M94.5 743.3L120.8 755.3L121.3 711.3Z" fill="#373d67" stroke="#adadad"></path><path d="M191.8 70L186.5 77L215.3 87.7Z" fill="#373d67" stroke="#adadad"></path><path d="M215.3 87.7L186.5 77L181.5 141.7Z" fill="#3a6b92" stroke="#adadad"></path><path d="M12.8 588.3L34.5 632.7L43.8 567.7Z" fill="#36325a" stroke="#adadad"></path><path d="M86 113.3L87 182.7L152.3 145.7Z" fill="#458eac" stroke="#adadad"></path><path d="M87 182.7L49.8 185.3L71.5 213.7Z" fill="#4082a4" stroke="#adadad"></path><path d="M319 15.7L280.8 46.7L328.5 64.7Z" fill="#3a6b92" stroke="#adadad"></path><path d="M281 58L255.3 17.3L222.3 92Z" fill="#36325a" stroke="#adadad"></path><path d="M204.5 758.3L202.3 780L241.3 770.7Z" fill="#4082a4" stroke="#adadad"></path><path d="M302 821L319.3 809L273.8 770Z" fill="#34274e" stroke="#adadad"></path><path d="M129.8 763L170.8 754.7L147.3 723Z" fill="#38547d" stroke="#adadad"></path><path d="M553 732.3L597.3 704.3L577.5 698.3Z" fill="#3a6b92" stroke="#adadad"></path><path d="M675 583.3L683.3 633L690.3 562.7Z" fill="#3a6b92" stroke="#adadad"></path><path d="M675.3 217.3L675 225.3L675.3 246Z" fill="#38547d" stroke="#adadad"></path><path d="M675.3 246L675 225.3L675 244.7Z" fill="#36325a" stroke="#adadad"></path><path d="M675 244.7L675 225.3L642.5 222.3Z" fill="#36325a" stroke="#adadad"></path><path d="M644.5 203L628.5 151L604.8 207Z" fill="#34274e" stroke="#adadad"></path><path d="M378.5 801.3L425.8 781.7L371 782Z" fill="#36325a" stroke="#adadad"></path><path d="M425.8 781.7L451.5 787.7L458.3 759.3Z" fill="#395f88" stroke="#adadad"></path><path d="M214.5 11.3L191.8 70L215.3 87.7Z" fill="#38547d" stroke="#adadad"></path><path d="M186.5 77L151 83.7L181.5 141.7Z" fill="#3c769b" stroke="#adadad"></path><path d="M355.3 819.7L378.5 801.3L371 782Z" fill="#395f88" stroke="#adadad"></path><path d="M675 225.3L669.3 211.7L642.5 222.3Z" fill="#36325a" stroke="#adadad"></path><path d="M688.3 360.3L675.3 217.3L675.3 246Z" fill="#38547d" stroke="#adadad"></path><path d="M675 225.3L675.3 217.3L669.3 211.7Z" fill="#34274e" stroke="#adadad"></path><path d="M528.3 69.3L536 82.3L548.3 63.7Z" fill="#384872" stroke="#adadad"></path><path d="M628.5 151L644.5 203L675 163Z" fill="#373d67" stroke="#adadad"></path><path d="M548.3 63.7L536 82.3L574.8 73.7Z" fill="#34274e" stroke="#adadad"></path><path d="M597.3 704.3L656.5 652.7L613.8 634.3Z" fill="#458eac" stroke="#adadad"></path><path d="M0 541.3L0 593.7L12.8 588.3Z" fill="#373d67" stroke="#adadad"></path><path d="M12.8 588.3L0 599L34.5 632.7Z" fill="#395f88" stroke="#adadad"></path><path d="M179.5 779.7L204.5 758.3L193.5 749Z" fill="#384872" stroke="#adadad"></path><path d="M326.3 791.3L355.3 819.7L371 782Z" fill="#373d67" stroke="#adadad"></path><path d="M675 163L644.5 203L669.3 211.7Z" fill="#4c9ab3" stroke="#adadad"></path><path d="M166.5 64.7L151 83.7L186.5 77Z" fill="#36325a" stroke="#adadad"></path><path d="M446.8 36.7L444.8 42.3L463.5 65.7Z" fill="#4082a4" stroke="#adadad"></path><path d="M463.5 65.7L444.8 42.3L445.5 94.3Z" fill="#3c769b" stroke="#adadad"></path><path d="M347.5 50L319 15.7L328.5 64.7Z" fill="#4c9ab3" stroke="#adadad"></path><path d="M302 821L273.8 770L297 827.7Z" fill="#384872" stroke="#adadad"></path><path d="M0 221.7L0 241L70.8 217.7Z" fill="#3c769b" stroke="#adadad"></path><path d="M0 593.7L0 599L12.8 588.3Z" fill="#34274e" stroke="#adadad"></path><path d="M528.3 69.3L519 68L536 82.3Z" fill="#373d67" stroke="#adadad"></path><path d="M536 82.3L519 68L513.3 111Z" fill="#4c9ab3" stroke="#adadad"></path><path d="M392.3 0L352.3 27.3L385.5 65.3Z" fill="#4c9ab3" stroke="#adadad"></path><path d="M177 56L186.5 77L191.8 70Z" fill="#458eac" stroke="#adadad"></path><path d="M532 775L543.8 731.3L492 744.7Z" fill="#3c769b" stroke="#adadad"></path><path d="M553 732.3L558 751L597.3 704.3Z" fill="#395f88" stroke="#adadad"></path><path d="M675 687.7L689.3 643.7L656.5 652.7Z" fill="#3c769b" stroke="#adadad"></path><path d="M539.3 117.3L574.5 128.7L574.8 73.7Z" fill="#34274e" stroke="#adadad"></path><path d="M488.8 0L446.8 36.7L463.5 65.7Z" fill="#395f88" stroke="#adadad"></path><path d="M429.5 0L446.8 36.7L488.8 0Z" fill="#458eac" stroke="#adadad"></path><path d="M444.8 42.3L418 23.7L385.5 65.3Z" fill="#3a6b92" stroke="#adadad"></path><path d="M170.8 754.7L179.5 779.7L193.5 749Z" fill="#458eac" stroke="#adadad"></path><path d="M217.3 809.3L273.8 770L241.3 770.7Z" fill="#4082a4" stroke="#adadad"></path><path d="M129.8 763L179.5 779.7L170.8 754.7Z" fill="#3a6b92" stroke="#adadad"></path><path d="M120.8 755.3L147.3 723L121.3 711.3Z" fill="#34274e" stroke="#adadad"></path><path d="M121.3 711.3L104 689.7L94.5 743.3Z" fill="#34274e" stroke="#adadad"></path><path d="M689.3 643.7L683.3 633L656.5 652.7Z" fill="#3c769b" stroke="#adadad"></path><path d="M656.5 652.7L683.3 633L643.5 589Z" fill="#4082a4" stroke="#adadad"></path><path d="M478.8 821.7L490.5 791L451.5 787.7Z" fill="#4082a4" stroke="#adadad"></path><path d="M451.5 787.7L490.5 791L458.3 759.3Z" fill="#4c9ab3" stroke="#adadad"></path><path d="M403 830.3L425.8 781.7L378.5 801.3Z" fill="#395f88" stroke="#adadad"></path><path d="M177 56L191.8 70L196.8 16.3Z" fill="#4c9ab3" stroke="#adadad"></path><path d="M177 56L166.5 64.7L186.5 77Z" fill="#373d67" stroke="#adadad"></path><path d="M0 184.3L0 221.7L49.8 185.3Z" fill="#36325a" stroke="#adadad"></path><path d="M86 113.3L152.3 145.7L115.5 84.3Z" fill="#4c9ab3" stroke="#adadad"></path><path d="M49.8 185.3L0 221.7L70.8 217.7Z" fill="#3c769b" stroke="#adadad"></path><path d="M307.5 828.7L355.3 819.7L319.3 809Z" fill="#4c9ab3" stroke="#adadad"></path><path d="M319.3 809L355.3 819.7L326.3 791.3Z" fill="#3a6b92" stroke="#adadad"></path><path d="M490.5 791L532 775L492 744.7Z" fill="#34274e" stroke="#adadad"></path><path d="M255.3 17.3L281 58L280.8 46.7Z" fill="#3a6b92" stroke="#adadad"></path><path d="M392.3 0L418 23.7L429.5 0Z" fill="#373d67" stroke="#adadad"></path><path d="M446.8 36.7L418 23.7L444.8 42.3Z" fill="#373d67" stroke="#adadad"></path><path d="M142.3 67.7L151 83.7L166.5 64.7Z" fill="#384872" stroke="#adadad"></path><path d="M115.5 84.3L152.3 145.7L151 83.7Z" fill="#458eac" stroke="#adadad"></path><path d="M217.3 809.3L241.3 770.7L202.3 780Z" fill="#34274e" stroke="#adadad"></path><path d="M332.8 0L319 15.7L352.3 27.3Z" fill="#38547d" stroke="#adadad"></path><path d="M352.3 27.3L319 15.7L347.5 50Z" fill="#373d67" stroke="#adadad"></path><path d="M94.5 743.3L104 689.7L60.8 728Z" fill="#373d67" stroke="#adadad"></path><path d="M120.8 755.3L129.8 763L147.3 723Z" fill="#4c9ab3" stroke="#adadad"></path><path d="M181 829L217.3 809.3L202.3 780Z" fill="#4c9ab3" stroke="#adadad"></path><path d="M156.8 19.7L142.3 67.7L166.5 64.7Z" fill="#4c9ab3" stroke="#adadad"></path><path d="M142.3 67.7L115.5 84.3L151 83.7Z" fill="#3a6b92" stroke="#adadad"></path><path d="M574.8 73.7L574.5 128.7L580.8 128Z" fill="#3a6b92" stroke="#adadad"></path><path d="M528.3 69.3L525.3 0L519 68Z" fill="#384872" stroke="#adadad"></path><path d="M638.5 713L656.5 652.7L597.3 704.3Z" fill="#373d67" stroke="#adadad"></path><path d="M683.3 633L689.3 643.7L690.3 562.7Z" fill="#36325a" stroke="#adadad"></path><path d="M690.3 562.7L689.3 643.7L692.3 538.3Z" fill="#38547d" stroke="#adadad"></path><path d="M638.5 713L597.3 704.3L642.3 772.7Z" fill="#34274e" stroke="#adadad"></path><path d="M47.5 714L88 647.3L34.5 632.7Z" fill="#384872" stroke="#adadad"></path><path d="M120.8 755.3L107 769.7L129.8 763Z" fill="#3a6b92" stroke="#adadad"></path><path d="M211.3 827.7L217.3 809.3L181 829Z" fill="#395f88" stroke="#adadad"></path><path d="M297 827.7L307.5 828.7L302 821Z" fill="#3c769b" stroke="#adadad"></path><path d="M302 821L307.5 828.7L319.3 809Z" fill="#3c769b" stroke="#adadad"></path><path d="M217.3 809.3L297 827.7L273.8 770Z" fill="#34274e" stroke="#adadad"></path><path d="M278 0L255.3 17.3L280.8 46.7Z" fill="#3c769b" stroke="#adadad"></path><path d="M114 0L104.3 71L142.3 67.7Z" fill="#384872" stroke="#adadad"></path><path d="M0 599L9.8 657.7L34.5 632.7Z" fill="#3c769b" stroke="#adadad"></path><path d="M364.5 0L354.8 6.3L369 0Z" fill="#3c769b" stroke="#adadad"></path><path d="M319 15.7L279.3 0L280.8 46.7Z" fill="#384872" stroke="#adadad"></path><path d="M600.3 786.3L597.3 704.3L558 751Z" fill="#4082a4" stroke="#adadad"></path><path d="M637.3 102.3L612.3 101.7L628.5 151Z" fill="#4c9ab3" stroke="#adadad"></path><path d="M628.5 151L612.3 101.7L585.5 139.3Z" fill="#4082a4" stroke="#adadad"></path><path d="M612.3 101.7L574.8 73.7L580.8 128Z" fill="#38547d" stroke="#adadad"></path><path d="M402.8 832L403 830.3L355.3 819.7Z" fill="#4082a4" stroke="#adadad"></path><path d="M355.3 819.7L403 830.3L378.5 801.3Z" fill="#3a6b92" stroke="#adadad"></path><path d="M529.8 808.7L546.3 793.3L532 775Z" fill="#373d67" stroke="#adadad"></path><path d="M675.3 217.3L675 163L669.3 211.7Z" fill="#34274e" stroke="#adadad"></path><path d="M688.3 360.3L675 163L675.3 217.3Z" fill="#3a6b92" stroke="#adadad"></path><path d="M396.8 866.3L402.8 832L355.3 819.7Z" fill="#3a6b92" stroke="#adadad"></path><path d="M403 830.3L478.8 821.7L451.5 787.7Z" fill="#3a6b92" stroke="#adadad"></path><path d="M104.3 71L86 113.3L115.5 84.3Z" fill="#3a6b92" stroke="#adadad"></path><path d="M41.5 90L63.3 115.3L86 113.3Z" fill="#3a6b92" stroke="#adadad"></path><path d="M86 113.3L63.3 115.3L87 182.7Z" fill="#395f88" stroke="#adadad"></path><path d="M41.8 119.7L22.5 158L49.8 185.3Z" fill="#458eac" stroke="#adadad"></path><path d="M22.5 158L0 184.3L49.8 185.3Z" fill="#3c769b" stroke="#adadad"></path><path d="M364.5 0L332.8 0L354.8 6.3Z" fill="#3a6b92" stroke="#adadad"></path><path d="M354.8 6.3L332.8 0L352.3 27.3Z" fill="#38547d" stroke="#adadad"></path><path d="M369 0L354.8 6.3L352.3 27.3Z" fill="#3c769b" stroke="#adadad"></path><path d="M369 0L352.3 27.3L392.3 0Z" fill="#395f88" stroke="#adadad"></path><path d="M392.3 0L385.5 65.3L418 23.7Z" fill="#458eac" stroke="#adadad"></path><path d="M9.8 657.7L47.5 714L34.5 632.7Z" fill="#4c9ab3" stroke="#adadad"></path><path d="M47.5 714L60.8 728L104 689.7Z" fill="#38547d" stroke="#adadad"></path><path d="M94.5 743.3L107 769.7L120.8 755.3Z" fill="#3a6b92" stroke="#adadad"></path><path d="M153 833.3L181 829L179.5 779.7Z" fill="#4082a4" stroke="#adadad"></path><path d="M429.5 0L418 23.7L446.8 36.7Z" fill="#3a6b92" stroke="#adadad"></path><path d="M463.5 65.7L519 68L488.8 0Z" fill="#3a6b92" stroke="#adadad"></path><path d="M421.5 867.7L478.8 821.7L403 830.3Z" fill="#34274e" stroke="#adadad"></path><path d="M532 775L562.5 786.7L558 751Z" fill="#384872" stroke="#adadad"></path><path d="M0 599L0 661.3L9.8 657.7Z" fill="#458eac" stroke="#adadad"></path><path d="M9.8 657.7L12.8 712.3L47.5 714Z" fill="#4c9ab3" stroke="#adadad"></path><path d="M638.5 713L675 687.7L656.5 652.7Z" fill="#36325a" stroke="#adadad"></path><path d="M509 811.3L532 775L490.5 791Z" fill="#458eac" stroke="#adadad"></path><path d="M638.5 713L663.3 717L675 687.7Z" fill="#3a6b92" stroke="#adadad"></path><path d="M478.8 821.7L509 811.3L490.5 791Z" fill="#38547d" stroke="#adadad"></path><path d="M79.5 774L107 769.7L94.5 743.3Z" fill="#3a6b92" stroke="#adadad"></path><path d="M142.3 67.7L104.3 71L115.5 84.3Z" fill="#373d67" stroke="#adadad"></path><path d="M41.8 119.7L17.8 148.3L22.5 158Z" fill="#3c769b" stroke="#adadad"></path><path d="M156.8 19.7L166.5 64.7L177 56Z" fill="#3a6b92" stroke="#adadad"></path><path d="M332.8 0L279.3 0L319 15.7Z" fill="#4c9ab3" stroke="#adadad"></path><path d="M255.3 17.3L214.5 11.3L215.3 87.7Z" fill="#4082a4" stroke="#adadad"></path><path d="M279.3 0L278 0L280.8 46.7Z" fill="#458eac" stroke="#adadad"></path><path d="M544.3 836L562.5 786.7L546.3 793.3Z" fill="#3a6b92" stroke="#adadad"></path><path d="M546.3 793.3L562.5 786.7L532 775Z" fill="#3a6b92" stroke="#adadad"></path><path d="M41.8 119.7L49.8 185.3L63.3 115.3Z" fill="#3c769b" stroke="#adadad"></path><path d="M22.5 158L17.8 148.3L0 184.3Z" fill="#4082a4" stroke="#adadad"></path><path d="M488.8 0L519 68L525.3 0Z" fill="#4c9ab3" stroke="#adadad"></path><path d="M0 661.3L0 669.7L9.8 657.7Z" fill="#384872" stroke="#adadad"></path><path d="M58.8 785.3L79.5 774L60.8 728Z" fill="#34274e" stroke="#adadad"></path><path d="M41.5 90L41.8 119.7L63.3 115.3Z" fill="#3a6b92" stroke="#adadad"></path><path d="M221 -5.7L214.5 11.3L255.3 17.3Z" fill="#38547d" stroke="#adadad"></path><path d="M649.3 99L637.3 102.3L675 125Z" fill="#395f88" stroke="#adadad"></path><path d="M612.3 101.7L597.8 69.3L574.8 73.7Z" fill="#4c9ab3" stroke="#adadad"></path><path d="M574.8 73.7L580 55.7L548.3 63.7Z" fill="#3a6b92" stroke="#adadad"></path><path d="M532.8 838L529.8 808.7L509 811.3Z" fill="#36325a" stroke="#adadad"></path><path d="M509 811.3L529.8 808.7L532 775Z" fill="#38547d" stroke="#adadad"></path><path d="M181 829L202.3 780L179.5 779.7Z" fill="#458eac" stroke="#adadad"></path><path d="M217.3 809.3L280.8 848.7L297 827.7Z" fill="#38547d" stroke="#adadad"></path><path d="M297 827.7L280.8 848.7L307.5 828.7Z" fill="#3c769b" stroke="#adadad"></path><path d="M341.3 900L396.8 866.3L355.3 819.7Z" fill="#3a6b92" stroke="#adadad"></path><path d="M214.5 11.3L196.8 16.3L191.8 70Z" fill="#38547d" stroke="#adadad"></path><path d="M616.3 68.3L597.8 69.3L612.3 101.7Z" fill="#4082a4" stroke="#adadad"></path><path d="M421.5 867.7L486.5 828.3L478.8 821.7Z" fill="#395f88" stroke="#adadad"></path><path d="M478.8 821.7L486.5 828.3L509 811.3Z" fill="#395f88" stroke="#adadad"></path><path d="M597.8 69.3L580 55.7L574.8 73.7Z" fill="#3a6b92" stroke="#adadad"></path><path d="M364.5 0L394 -11.7L332.8 0Z" fill="#458eac" stroke="#adadad"></path><path d="M332.8 0L394 -11.7L279.3 0Z" fill="#38547d" stroke="#adadad"></path><path d="M279.3 0L221 -5.7L278 0Z" fill="#395f88" stroke="#adadad"></path><path d="M369 0L394 -11.7L364.5 0Z" fill="#36325a" stroke="#adadad"></path><path d="M392.3 0L394 -11.7L369 0Z" fill="#36325a" stroke="#adadad"></path><path d="M429.5 0L394 -11.7L392.3 0Z" fill="#373d67" stroke="#adadad"></path><path d="M675 731.7L663.3 717L675 745.3Z" fill="#458eac" stroke="#adadad"></path><path d="M211.3 827.7L280.8 848.7L217.3 809.3Z" fill="#34274e" stroke="#adadad"></path><path d="M402.8 832L421.5 867.7L403 830.3Z" fill="#3c769b" stroke="#adadad"></path><path d="M675 731.7L675 713L663.3 717Z" fill="#3c769b" stroke="#adadad"></path><path d="M663.3 717L675 713L675 687.7Z" fill="#3a6b92" stroke="#adadad"></path><path d="M675 687.7L675 713L689.3 643.7Z" fill="#4c9ab3" stroke="#adadad"></path><path d="M600.3 786.3L558 751L562.5 786.7Z" fill="#3a6b92" stroke="#adadad"></path><path d="M675 125L637.3 102.3L628.5 151Z" fill="#395f88" stroke="#adadad"></path><path d="M637.3 102.3L616.3 68.3L612.3 101.7Z" fill="#395f88" stroke="#adadad"></path><path d="M597.8 69.3L609.5 54.7L580 55.7Z" fill="#384872" stroke="#adadad"></path><path d="M688.3 360.3L675 125L675 163Z" fill="#458eac" stroke="#adadad"></path><path d="M675 163L675 125L628.5 151Z" fill="#4c9ab3" stroke="#adadad"></path><path d="M153 833.3L179.5 779.7L129.8 763Z" fill="#38547d" stroke="#adadad"></path><path d="M254 881.3L285.8 882.3L280.8 848.7Z" fill="#34274e" stroke="#adadad"></path><path d="M649.3 99L616.3 68.3L637.3 102.3Z" fill="#38547d" stroke="#adadad"></path><path d="M525.3 0L528.3 69.3L548.3 63.7Z" fill="#395f88" stroke="#adadad"></path><path d="M525.3 0L548.3 63.7L546 0Z" fill="#3c769b" stroke="#adadad"></path><path d="M429.5 0L479.5 -18.7L394 -11.7Z" fill="#4082a4" stroke="#adadad"></path><path d="M198.8 0L196.8 16.3L214.5 11.3Z" fill="#3a6b92" stroke="#adadad"></path><path d="M155.5 0L156.8 19.7L196.8 16.3Z" fill="#373d67" stroke="#adadad"></path><path d="M196.8 16.3L156.8 19.7L177 56Z" fill="#3a6b92" stroke="#adadad"></path><path d="M104.3 71L41.5 90L86 113.3Z" fill="#3c769b" stroke="#adadad"></path><path d="M278 0L221 -5.7L255.3 17.3Z" fill="#395f88" stroke="#adadad"></path><path d="M394 -11.7L221 -5.7L279.3 0Z" fill="#395f88" stroke="#adadad"></path><path d="M60.8 728L79.5 774L94.5 743.3Z" fill="#373d67" stroke="#adadad"></path><path d="M130.3 830.7L153 833.3L129.8 763Z" fill="#34274e" stroke="#adadad"></path><path d="M0 747.3L60.8 728L47.5 714Z" fill="#395f88" stroke="#adadad"></path><path d="M0 669.7L12.8 712.3L9.8 657.7Z" fill="#384872" stroke="#adadad"></path><path d="M221 -5.7L198.8 0L214.5 11.3Z" fill="#384872" stroke="#adadad"></path><path d="M544.3 836L546.3 793.3L529.8 808.7Z" fill="#38547d" stroke="#adadad"></path><path d="M600.5 810.3L600.3 786.3L562.5 786.7Z" fill="#395f88" stroke="#adadad"></path><path d="M155.5 0L154 17.3L156.8 19.7Z" fill="#384872" stroke="#adadad"></path><path d="M156.8 19.7L154 17.3L142.3 67.7Z" fill="#395f88" stroke="#adadad"></path><path d="M675 125L675 115.7L649.3 99Z" fill="#3c769b" stroke="#adadad"></path><path d="M610.5 28.3L609.5 54.7L675 28.3Z" fill="#4c9ab3" stroke="#adadad"></path><path d="M688.3 360.3L675 115.7L675 125Z" fill="#36325a" stroke="#adadad"></path><path d="M675 82.3L616.3 68.3L649.3 99Z" fill="#3c769b" stroke="#adadad"></path><path d="M616.3 68.3L609.5 54.7L597.8 69.3Z" fill="#4082a4" stroke="#adadad"></path><path d="M341.3 900L355.3 819.7L336.8 900Z" fill="#458eac" stroke="#adadad"></path><path d="M486.5 828.3L532.8 838L509 811.3Z" fill="#373d67" stroke="#adadad"></path><path d="M41.8 63L41.5 90L104.3 71Z" fill="#4082a4" stroke="#adadad"></path><path d="M0 128.7L0 133.3L17.8 148.3Z" fill="#395f88" stroke="#adadad"></path><path d="M17.8 148.3L-15.2 148L0 184.3Z" fill="#395f88" stroke="#adadad"></path><path d="M0 128.7L17.8 148.3L41.8 119.7Z" fill="#384872" stroke="#adadad"></path><path d="M675 745.3L663.3 717L638.5 713Z" fill="#34274e" stroke="#adadad"></path><path d="M675 713L675 731.7L689.3 643.7Z" fill="#38547d" stroke="#adadad"></path><path d="M0 128.7L-15.2 148L0 133.3Z" fill="#36325a" stroke="#adadad"></path><path d="M0 133.3L-15.2 148L17.8 148.3Z" fill="#384872" stroke="#adadad"></path><path d="M0 184.3L-15.2 148L0 221.7Z" fill="#34274e" stroke="#adadad"></path><path d="M0 221.7L-15.2 148L0 241Z" fill="#3a6b92" stroke="#adadad"></path><path d="M0 241L-15.2 148L0 287Z" fill="#34274e" stroke="#adadad"></path><path d="M0 287L-15.2 148L0 290.3Z" fill="#3a6b92" stroke="#adadad"></path><path d="M0 290.3L-15.2 148L0 361.7Z" fill="#34274e" stroke="#adadad"></path><path d="M0 361.7L-15.2 148L0 364Z" fill="#38547d" stroke="#adadad"></path><path d="M0 364L-15.2 148L0 437.3Z" fill="#38547d" stroke="#adadad"></path><path d="M0 437.3L-15.2 148L0 463.7Z" fill="#3c769b" stroke="#adadad"></path><path d="M0 463.7L-15.2 148L0 513Z" fill="#4082a4" stroke="#adadad"></path><path d="M0 513L-15.2 148L0 541.3Z" fill="#36325a" stroke="#adadad"></path><path d="M0 541.3L-15.2 148L0 593.7Z" fill="#373d67" stroke="#adadad"></path><path d="M0 593.7L-15.2 148L0 599Z" fill="#38547d" stroke="#adadad"></path><path d="M0 599L-15.2 148L0 661.3Z" fill="#384872" stroke="#adadad"></path><path d="M0 661.3L-3.2 900L0 669.7Z" fill="#38547d" stroke="#adadad"></path><path d="M0 113.7L0 128.7L41.8 119.7Z" fill="#395f88" stroke="#adadad"></path><path d="M396.8 866.3L421.5 867.7L402.8 832Z" fill="#384872" stroke="#adadad"></path><path d="M160.8 842.3L183.5 844.3L181 829Z" fill="#38547d" stroke="#adadad"></path><path d="M181 829L183.5 844.3L211.3 827.7Z" fill="#4082a4" stroke="#adadad"></path><path d="M280.8 848.7L285.8 882.3L307.5 828.7Z" fill="#38547d" stroke="#adadad"></path><path d="M546 0L548.3 63.7L580 55.7Z" fill="#373d67" stroke="#adadad"></path><path d="M488.8 0L479.5 -18.7L429.5 0Z" fill="#38547d" stroke="#adadad"></path><path d="M130.3 830.7L129.8 763L107 769.7Z" fill="#3a6b92" stroke="#adadad"></path><path d="M507.5 900L532.8 838L486.5 828.3Z" fill="#4082a4" stroke="#adadad"></path><path d="M600.3 786.3L642.3 772.7L597.3 704.3Z" fill="#38547d" stroke="#adadad"></path><path d="M525.3 0L479.5 -18.7L488.8 0Z" fill="#3a6b92" stroke="#adadad"></path><path d="M394 -11.7L479.5 -18.7L221 -5.7Z" fill="#458eac" stroke="#adadad"></path><path d="M617.5 816L642.3 772.7L600.3 786.3Z" fill="#3c769b" stroke="#adadad"></path><path d="M591.3 834.7L544.3 836L582.8 845.3Z" fill="#458eac" stroke="#adadad"></path><path d="M532.8 838L544.3 836L529.8 808.7Z" fill="#36325a" stroke="#adadad"></path><path d="M198.8 0L155.5 0L196.8 16.3Z" fill="#3c769b" stroke="#adadad"></path><path d="M154 17.3L114 0L142.3 67.7Z" fill="#34274e" stroke="#adadad"></path><path d="M221 -5.7L155.5 0L198.8 0Z" fill="#3a6b92" stroke="#adadad"></path><path d="M642.3 772.7L675 745.3L638.5 713Z" fill="#38547d" stroke="#adadad"></path><path d="M675 731.7L675 745.3L689.3 643.7Z" fill="#4c9ab3" stroke="#adadad"></path><path d="M138 855.7L160.8 842.3L153 833.3Z" fill="#38547d" stroke="#adadad"></path><path d="M153 833.3L160.8 842.3L181 829Z" fill="#34274e" stroke="#adadad"></path><path d="M254 881.3L280.8 848.7L211.3 827.7Z" fill="#395f88" stroke="#adadad"></path><path d="M41.5 90L0 113.7L41.8 119.7Z" fill="#3a6b92" stroke="#adadad"></path><path d="M0 128.7L-18.2 101.7L-15.2 148Z" fill="#3a6b92" stroke="#adadad"></path><path d="M-18.2 101.7L0 113.7L0 64Z" fill="#38547d" stroke="#adadad"></path><path d="M688.3 360.3L675 91.7L675 115.7Z" fill="#384872" stroke="#adadad"></path><path d="M675 115.7L675 91.7L649.3 99Z" fill="#4c9ab3" stroke="#adadad"></path><path d="M568.8 0L546 0L580 55.7Z" fill="#4082a4" stroke="#adadad"></path><path d="M-3.2 900L0 726.7L0 669.7Z" fill="#4082a4" stroke="#adadad"></path><path d="M0 669.7L0 726.7L12.8 712.3Z" fill="#4c9ab3" stroke="#adadad"></path><path d="M12.8 712.3L0 734L47.5 714Z" fill="#4082a4" stroke="#adadad"></path><path d="M121.3 831.3L130.3 830.7L107 769.7Z" fill="#4c9ab3" stroke="#adadad"></path><path d="M610.5 28.3L580 55.7L609.5 54.7Z" fill="#395f88" stroke="#adadad"></path><path d="M525.3 0L546 0L479.5 -18.7Z" fill="#3a6b92" stroke="#adadad"></path><path d="M221 -5.7L147.3 0L155.5 0Z" fill="#4082a4" stroke="#adadad"></path><path d="M155.5 0L147.3 0L154 17.3Z" fill="#36325a" stroke="#adadad"></path><path d="M79.3 801.7L107 769.7L79.5 774Z" fill="#3a6b92" stroke="#adadad"></path><path d="M591.3 834.7L600.5 810.3L562.5 786.7Z" fill="#4082a4" stroke="#adadad"></path><path d="M642.3 772.7L675 814.3L675 745.3Z" fill="#3a6b92" stroke="#adadad"></path><path d="M19.5 781.3L58.8 785.3L60.8 728Z" fill="#373d67" stroke="#adadad"></path><path d="M75.8 801.7L79.3 801.7L79.5 774Z" fill="#384872" stroke="#adadad"></path><path d="M254 881.3L211.3 827.7L231.5 900Z" fill="#4082a4" stroke="#adadad"></path><path d="M396.8 866.3L413.8 900L421.5 867.7Z" fill="#395f88" stroke="#adadad"></path><path d="M-3.2 900L0 734L0 726.7Z" fill="#3a6b92" stroke="#adadad"></path><path d="M0 726.7L0 734L12.8 712.3Z" fill="#4c9ab3" stroke="#adadad"></path><path d="M57.5 803.7L75.8 801.7L58.8 785.3Z" fill="#3a6b92" stroke="#adadad"></path><path d="M58.8 785.3L75.8 801.7L79.5 774Z" fill="#373d67" stroke="#adadad"></path><path d="M79.3 801.7L121.3 831.3L107 769.7Z" fill="#3c769b" stroke="#adadad"></path><path d="M47.5 45.3L41.8 63L104.3 71Z" fill="#373d67" stroke="#adadad"></path><path d="M130.3 830.7L138 855.7L153 833.3Z" fill="#458eac" stroke="#adadad"></path><path d="M231.5 900L211.3 827.7L207.3 900Z" fill="#395f88" stroke="#adadad"></path><path d="M86.3 832L121.3 831.3L79.3 801.7Z" fill="#36325a" stroke="#adadad"></path><path d="M688.3 360.3L675 82.3L675 91.7Z" fill="#38547d" stroke="#adadad"></path><path d="M675 91.7L675 82.3L649.3 99Z" fill="#3c769b" stroke="#adadad"></path><path d="M178.5 877.7L183.5 844.3L160.8 842.3Z" fill="#373d67" stroke="#adadad"></path><path d="M675 28.3L609.5 54.7L616.3 68.3Z" fill="#34274e" stroke="#adadad"></path><path d="M610.5 28.3L568.8 0L580 55.7Z" fill="#4082a4" stroke="#adadad"></path><path d="M546 0L568.8 0L479.5 -18.7Z" fill="#395f88" stroke="#adadad"></path><path d="M0 734L0 747.3L47.5 714Z" fill="#384872" stroke="#adadad"></path><path d="M-3.2 900L0 747.3L0 734Z" fill="#36325a" stroke="#adadad"></path><path d="M79.5 0L47.5 45.3L104.3 71Z" fill="#4082a4" stroke="#adadad"></path><path d="M41.8 63L0 64L41.5 90Z" fill="#4082a4" stroke="#adadad"></path><path d="M591.3 834.7L617.5 816L600.5 810.3Z" fill="#4082a4" stroke="#adadad"></path><path d="M600.5 810.3L617.5 816L600.3 786.3Z" fill="#384872" stroke="#adadad"></path><path d="M51.3 -7.7L114 0L147.3 0Z" fill="#458eac" stroke="#adadad"></path><path d="M147.3 0L114 0L154 17.3Z" fill="#36325a" stroke="#adadad"></path><path d="M-3.2 900L0 751L0 747.3Z" fill="#3c769b" stroke="#adadad"></path><path d="M0 747.3L0 751L60.8 728Z" fill="#4c9ab3" stroke="#adadad"></path><path d="M336.8 900L307.5 828.7L335.5 900Z" fill="#3c769b" stroke="#adadad"></path><path d="M336.8 900L355.3 819.7L307.5 828.7Z" fill="#3c769b" stroke="#adadad"></path><path d="M421.5 867.7L456.3 900L486.5 828.3Z" fill="#36325a" stroke="#adadad"></path><path d="M544.3 836L591.3 834.7L562.5 786.7Z" fill="#458eac" stroke="#adadad"></path><path d="M335.5 900L307.5 828.7L305 900Z" fill="#36325a" stroke="#adadad"></path><path d="M305 900L307.5 828.7L285.8 882.3Z" fill="#34274e" stroke="#adadad"></path><path d="M19.5 781.3L57.5 803.7L58.8 785.3Z" fill="#4c9ab3" stroke="#adadad"></path><path d="M75.8 801.7L86.3 832L79.3 801.7Z" fill="#458eac" stroke="#adadad"></path><path d="M341.3 900L375 900L396.8 866.3Z" fill="#3a6b92" stroke="#adadad"></path><path d="M582.8 845.3L544.3 836L556.3 874.7Z" fill="#34274e" stroke="#adadad"></path><path d="M254 881.3L305 900L285.8 882.3Z" fill="#3c769b" stroke="#adadad"></path><path d="M117.5 869.7L138 855.7L121.3 831.3Z" fill="#36325a" stroke="#adadad"></path><path d="M121.3 831.3L138 855.7L130.3 830.7Z" fill="#395f88" stroke="#adadad"></path><path d="M254 881.3L231.5 900L305 900Z" fill="#4082a4" stroke="#adadad"></path><path d="M15.8 -7.7L31.5 52.7L47.5 45.3Z" fill="#395f88" stroke="#adadad"></path><path d="M47.5 45.3L31.5 52.7L41.8 63Z" fill="#384872" stroke="#adadad"></path><path d="M0 113.7L-18.2 101.7L0 128.7Z" fill="#3c769b" stroke="#adadad"></path><path d="M-15.2 148L-18.2 101.7L0 661.3Z" fill="#373d67" stroke="#adadad"></path><path d="M0 64L0 113.7L41.5 90Z" fill="#458eac" stroke="#adadad"></path><path d="M375 900L413.8 900L396.8 866.3Z" fill="#384872" stroke="#adadad"></path><path d="M556.3 874.7L544.3 836L532.8 838Z" fill="#38547d" stroke="#adadad"></path><path d="M662.3 900L659.3 821L617.5 816Z" fill="#458eac" stroke="#adadad"></path><path d="M68.8 851.7L86.3 832L57.5 803.7Z" fill="#458eac" stroke="#adadad"></path><path d="M57.5 803.7L86.3 832L75.8 801.7Z" fill="#395f88" stroke="#adadad"></path><path d="M0 751L19.5 781.3L60.8 728Z" fill="#38547d" stroke="#adadad"></path><path d="M207.3 900L178.5 877.7L173.8 914.7Z" fill="#458eac" stroke="#adadad"></path><path d="M138 855.7L178.5 877.7L160.8 842.3Z" fill="#36325a" stroke="#adadad"></path><path d="M375 900L435 901.7L413.8 900Z" fill="#384872" stroke="#adadad"></path><path d="M413.8 900L435 901.7L421.5 867.7Z" fill="#38547d" stroke="#adadad"></path><path d="M173.8 914.7L435 901.7L375 900Z" fill="#38547d" stroke="#adadad"></path><path d="M498 904.7L435 901.7L173.8 914.7Z" fill="#373d67" stroke="#adadad"></path><path d="M375 900L341.3 900L173.8 914.7Z" fill="#3a6b92" stroke="#adadad"></path><path d="M341.3 900L336.8 900L173.8 914.7Z" fill="#3c769b" stroke="#adadad"></path><path d="M435 901.7L456.3 900L421.5 867.7Z" fill="#3c769b" stroke="#adadad"></path><path d="M207.3 900L211.3 827.7L183.5 844.3Z" fill="#36325a" stroke="#adadad"></path><path d="M173.8 914.7L336.8 900L335.5 900Z" fill="#4c9ab3" stroke="#adadad"></path><path d="M0 3.3L0 64L31.5 52.7Z" fill="#384872" stroke="#adadad"></path><path d="M31.5 52.7L0 64L41.8 63Z" fill="#34274e" stroke="#adadad"></path><path d="M114 0L79.5 0L104.3 71Z" fill="#3a6b92" stroke="#adadad"></path><path d="M51.3 -7.7L79.5 0L114 0Z" fill="#38547d" stroke="#adadad"></path><path d="M51.3 -7.7L147.3 0L221 -5.7Z" fill="#4c9ab3" stroke="#adadad"></path><path d="M675 28.3L618.5 0L610.5 28.3Z" fill="#4082a4" stroke="#adadad"></path><path d="M610.5 28.3L618.5 0L568.8 0Z" fill="#4c9ab3" stroke="#adadad"></path><path d="M568.8 0L618.5 0L479.5 -18.7Z" fill="#3c769b" stroke="#adadad"></path><path d="M162 900L178.5 877.7L138 855.7Z" fill="#3a6b92" stroke="#adadad"></path><path d="M178.5 877.7L207.3 900L183.5 844.3Z" fill="#36325a" stroke="#adadad"></path><path d="M173.8 914.7L335.5 900L305 900Z" fill="#395f88" stroke="#adadad"></path><path d="M507.5 900L556.3 874.7L532.8 838Z" fill="#34274e" stroke="#adadad"></path><path d="M662.3 900L617.5 816L591.3 834.7Z" fill="#34274e" stroke="#adadad"></path><path d="M86.3 832L117.5 869.7L121.3 831.3Z" fill="#3a6b92" stroke="#adadad"></path><path d="M68.8 851.7L117.5 869.7L86.3 832Z" fill="#4082a4" stroke="#adadad"></path><path d="M498 904.7L486.5 828.3L456.3 900Z" fill="#3a6b92" stroke="#adadad"></path><path d="M498 904.7L507.5 900L486.5 828.3Z" fill="#395f88" stroke="#adadad"></path><path d="M0 751L0 788.3L19.5 781.3Z" fill="#3c769b" stroke="#adadad"></path><path d="M19.5 781.3L9.8 806L57.5 803.7Z" fill="#36325a" stroke="#adadad"></path><path d="M-3.2 900L0 788.3L0 751Z" fill="#38547d" stroke="#adadad"></path><path d="M173.8 914.7L305 900L231.5 900Z" fill="#373d67" stroke="#adadad"></path><path d="M435 901.7L498 904.7L456.3 900Z" fill="#458eac" stroke="#adadad"></path><path d="M675 825L659.3 821L662.3 900Z" fill="#3a6b92" stroke="#adadad"></path><path d="M617.5 816L659.3 821L642.3 772.7Z" fill="#3a6b92" stroke="#adadad"></path><path d="M688.3 360.3L675 28.3L675 82.3Z" fill="#395f88" stroke="#adadad"></path><path d="M675 82.3L675 28.3L616.3 68.3Z" fill="#34274e" stroke="#adadad"></path><path d="M591.3 834.7L582.8 845.3L662.3 900Z" fill="#36325a" stroke="#adadad"></path><path d="M675 825L675 814.3L659.3 821Z" fill="#395f88" stroke="#adadad"></path><path d="M659.3 821L675 814.3L642.3 772.7Z" fill="#458eac" stroke="#adadad"></path><path d="M675 745.3L675 814.3L689.3 643.7Z" fill="#373d67" stroke="#adadad"></path><path d="M0 788.3L9.8 806L19.5 781.3Z" fill="#36325a" stroke="#adadad"></path><path d="M9.8 806L68.8 851.7L57.5 803.7Z" fill="#4c9ab3" stroke="#adadad"></path><path d="M130.8 900L162 900L138 855.7Z" fill="#38547d" stroke="#adadad"></path><path d="M207.3 900L173.8 914.7L231.5 900Z" fill="#373d67" stroke="#adadad"></path><path d="M173.8 914.7L162 900L130.8 900Z" fill="#4082a4" stroke="#adadad"></path><path d="M479.5 -18.7L51.3 -7.7L221 -5.7Z" fill="#373d67" stroke="#adadad"></path><path d="M79.5 0L51.3 -7.7L47.5 45.3Z" fill="#4c9ab3" stroke="#adadad"></path><path d="M580.5 897.7L582.8 845.3L556.3 874.7Z" fill="#3a6b92" stroke="#adadad"></path><path d="M675 814.3L675 825L689.3 643.7Z" fill="#3a6b92" stroke="#adadad"></path><path d="M535.8 905.7L556.3 874.7L507.5 900Z" fill="#4082a4" stroke="#adadad"></path><path d="M173.8 914.7L535.8 905.7L498 904.7Z" fill="#395f88" stroke="#adadad"></path><path d="M498 904.7L535.8 905.7L507.5 900Z" fill="#36325a" stroke="#adadad"></path><path d="M535.8 905.7L554.8 900L556.3 874.7Z" fill="#34274e" stroke="#adadad"></path><path d="M130.8 900L138 855.7L117.5 869.7Z" fill="#36325a" stroke="#adadad"></path><path d="M162 900L173.8 914.7L178.5 877.7Z" fill="#3a6b92" stroke="#adadad"></path><path d="M535.8 905.7L559 900L554.8 900Z" fill="#4c9ab3" stroke="#adadad"></path><path d="M554.8 900L559 900L556.3 874.7Z" fill="#3c769b" stroke="#adadad"></path><path d="M103.3 900L130.8 900L117.5 869.7Z" fill="#4082a4" stroke="#adadad"></path><path d="M103.3 900L117.5 869.7L68.8 851.7Z" fill="#38547d" stroke="#adadad"></path><path d="M675 28.3L667.3 0L618.5 0Z" fill="#458eac" stroke="#adadad"></path><path d="M618.5 0L667.3 0L479.5 -18.7Z" fill="#4082a4" stroke="#adadad"></path><path d="M535.8 905.7L568.5 900L559 900Z" fill="#38547d" stroke="#adadad"></path><path d="M559 900L568.5 900L556.3 874.7Z" fill="#36325a" stroke="#adadad"></path><path d="M568.5 900L580.5 897.7L556.3 874.7Z" fill="#384872" stroke="#adadad"></path><path d="M675 28.3L675 0L667.3 0Z" fill="#395f88" stroke="#adadad"></path><path d="M667.3 0L675 0L479.5 -18.7Z" fill="#3a6b92" stroke="#adadad"></path><path d="M688.3 360.3L675 0L675 28.3Z" fill="#34274e" stroke="#adadad"></path><path d="M50.5 900L103.3 900L68.8 851.7Z" fill="#4c9ab3" stroke="#adadad"></path><path d="M130.8 900L103.3 900L173.8 914.7Z" fill="#4082a4" stroke="#adadad"></path><path d="M479.5 -18.7L15.8 -7.7L51.3 -7.7Z" fill="#373d67" stroke="#adadad"></path><path d="M51.3 -7.7L15.8 -7.7L47.5 45.3Z" fill="#34274e" stroke="#adadad"></path><path d="M0 64L-6.2 0L-18.2 101.7Z" fill="#4c9ab3" stroke="#adadad"></path><path d="M15.8 -7.7L0 3.3L31.5 52.7Z" fill="#36325a" stroke="#adadad"></path><path d="M15.8 -7.7L0 0L0 3.3Z" fill="#3c769b" stroke="#adadad"></path><path d="M0 3.3L-6.2 0L0 64Z" fill="#4c9ab3" stroke="#adadad"></path><path d="M15.8 -7.7L-6.2 0L0 0Z" fill="#3a6b92" stroke="#adadad"></path><path d="M0 0L-6.2 0L0 3.3Z" fill="#4082a4" stroke="#adadad"></path><path d="M0 900L68.8 851.7L9.8 806Z" fill="#3a6b92" stroke="#adadad"></path><path d="M0 900L50.5 900L68.8 851.7Z" fill="#34274e" stroke="#adadad"></path><path d="M103.3 900L0 916.7L173.8 914.7Z" fill="#4082a4" stroke="#adadad"></path><path d="M675 906.7L580.5 897.7L568.5 900Z" fill="#4082a4" stroke="#adadad"></path><path d="M675 906.7L662.3 900L580.5 897.7Z" fill="#384872" stroke="#adadad"></path><path d="M580.5 897.7L662.3 900L582.8 845.3Z" fill="#395f88" stroke="#adadad"></path><path d="M675 906.7L675 900L662.3 900Z" fill="#3a6b92" stroke="#adadad"></path><path d="M662.3 900L675 900L675 825Z" fill="#4082a4" stroke="#adadad"></path><path d="M675 825L675 900L689.3 643.7Z" fill="#384872" stroke="#adadad"></path><path d="M535.8 905.7L675 906.7L568.5 900Z" fill="#373d67" stroke="#adadad"></path><path d="M675 900L675 906.7L689.3 643.7Z" fill="#4c9ab3" stroke="#adadad"></path><path d="M173.8 914.7L675 906.7L535.8 905.7Z" fill="#373d67" stroke="#adadad"></path><path d="M-3.2 900L9.8 806L0 788.3Z" fill="#4082a4" stroke="#adadad"></path><path d="M-3.2 900L0 900L9.8 806Z" fill="#458eac" stroke="#adadad"></path><path d="M50.5 900L0 916.7L103.3 900Z" fill="#4082a4" stroke="#adadad"></path><path d="M-18.2 101.7L-3.2 900L0 661.3Z" fill="#395f88" stroke="#adadad"></path><path d="M0 900L0 916.7L50.5 900Z" fill="#4082a4" stroke="#adadad"></path><path d="M-3.2 900L0 916.7L0 900Z" fill="#384872" stroke="#adadad"></path></g></svg>