<svg id="visual" viewBox="0 0 675 900" width="675" height="900" xmlns="http://www.w3.org/2000/svg" xmlns:xlink="http://www.w3.org/1999/xlink" version="1.1"><g stroke-width="1" stroke-linejoin="bevel"><path d="M365.5 469L379 499L378.5 476.3Z" fill="#31294d" stroke="#adadad"></path><path d="M365.5 469L330.3 508.3L379 499Z" fill="#f99048" stroke="#adadad"></path><path d="M378.5 476.3L370.5 434.7L365.5 469Z" fill="#001122" stroke="#adadad"></path><path d="M300.5 449L291 481L330.3 508.3Z" fill="#52325d" stroke="#adadad"></path><path d="M330.3 508.3L374.3 543L379 499Z" fill="#001122" stroke="#adadad"></path><path d="M442.8 544.3L431 471.7L379 499Z" fill="#fcaf3c" stroke="#adadad"></path><path d="M379 499L431 471.7L378.5 476.3Z" fill="#fcaf3c" stroke="#adadad"></path><path d="M378.5 476.3L394 423L370.5 434.7Z" fill="#ba4d69" stroke="#adadad"></path><path d="M321.8 547.3L364 559.3L374.3 543Z" fill="#31294d" stroke="#adadad"></path><path d="M374.3 543L442.8 544.3L379 499Z" fill="#001122" stroke="#adadad"></path><path d="M363.3 407.3L354.3 417L370.5 434.7Z" fill="#753a67" stroke="#adadad"></path><path d="M370.5 434.7L354.3 417L365.5 469Z" fill="#52325d" stroke="#adadad"></path><path d="M431 471.7L394 423L378.5 476.3Z" fill="#753a67" stroke="#adadad"></path><path d="M330.3 508.3L321.8 547.3L374.3 543Z" fill="#ba4d69" stroke="#adadad"></path><path d="M300.5 449L330.3 508.3L365.5 469Z" fill="#753a67" stroke="#adadad"></path><path d="M330.3 508.3L278 513.7L321.8 547.3Z" fill="#151e38" stroke="#adadad"></path><path d="M291 481L290.8 495L330.3 508.3Z" fill="#31294d" stroke="#adadad"></path><path d="M332.5 413.7L300.5 449L365.5 469Z" fill="#52325d" stroke="#adadad"></path><path d="M339.8 394.3L332.5 413.7L354.3 417Z" fill="#99426b" stroke="#adadad"></path><path d="M354.3 417L332.5 413.7L365.5 469Z" fill="#31294d" stroke="#adadad"></path><path d="M394 423L363.3 407.3L370.5 434.7Z" fill="#99426b" stroke="#adadad"></path><path d="M321.8 547.3L332.5 565.3L364 559.3Z" fill="#31294d" stroke="#adadad"></path><path d="M300.5 449L279.3 482.3L291 481Z" fill="#001122" stroke="#adadad"></path><path d="M291 481L279.3 482.3L290.8 495Z" fill="#f99048" stroke="#adadad"></path><path d="M290.8 495L278 513.7L330.3 508.3Z" fill="#f99048" stroke="#adadad"></path><path d="M321.8 547.3L323.8 578L332.5 565.3Z" fill="#d65e61" stroke="#adadad"></path><path d="M431 471.7L420.3 424.7L394 423Z" fill="#f99048" stroke="#adadad"></path><path d="M394 423L393.8 397.3L363.3 407.3Z" fill="#d65e61" stroke="#adadad"></path><path d="M420.3 424.7L401.8 409L394 423Z" fill="#d65e61" stroke="#adadad"></path><path d="M270.8 497.7L278 513.7L290.8 495Z" fill="#fcaf3c" stroke="#adadad"></path><path d="M387.5 575.7L374.3 543L364 559.3Z" fill="#001122" stroke="#adadad"></path><path d="M387.5 575.7L402 569L374.3 543Z" fill="#f99048" stroke="#adadad"></path><path d="M369.3 606L387.5 575.7L364 559.3Z" fill="#d65e61" stroke="#adadad"></path><path d="M279.3 482.3L270.8 497.7L290.8 495Z" fill="#151e38" stroke="#adadad"></path><path d="M300.5 449L270.3 478.7L279.3 482.3Z" fill="#31294d" stroke="#adadad"></path><path d="M279.3 482.3L270.3 478.7L270.8 497.7Z" fill="#753a67" stroke="#adadad"></path><path d="M282.3 439L270.3 478.7L300.5 449Z" fill="#ba4d69" stroke="#adadad"></path><path d="M287.3 422.3L282.3 439L300.5 449Z" fill="#31294d" stroke="#adadad"></path><path d="M432.5 380.3L393.8 397.3L401.8 409Z" fill="#52325d" stroke="#adadad"></path><path d="M401.8 409L393.8 397.3L394 423Z" fill="#d65e61" stroke="#adadad"></path><path d="M363.3 407.3L339.8 394.3L354.3 417Z" fill="#151e38" stroke="#adadad"></path><path d="M346.3 384.3L339.8 394.3L363.3 407.3Z" fill="#151e38" stroke="#adadad"></path><path d="M332.5 413.7L287.3 422.3L300.5 449Z" fill="#ba4d69" stroke="#adadad"></path><path d="M402 569L442.8 544.3L374.3 543Z" fill="#99426b" stroke="#adadad"></path><path d="M293 600.3L323.8 578L268.8 586.7Z" fill="#d65e61" stroke="#adadad"></path><path d="M332.5 565.3L369.3 606L364 559.3Z" fill="#f99048" stroke="#adadad"></path><path d="M292.8 396L287.3 422.3L332.5 413.7Z" fill="#99426b" stroke="#adadad"></path><path d="M231 470.3L270.8 497.7L270.3 478.7Z" fill="#31294d" stroke="#adadad"></path><path d="M431 471.7L435 416.3L420.3 424.7Z" fill="#ec7556" stroke="#adadad"></path><path d="M420.3 424.7L435 416.3L401.8 409Z" fill="#753a67" stroke="#adadad"></path><path d="M507 449L435 416.3L431 471.7Z" fill="#151e38" stroke="#adadad"></path><path d="M371 357.7L346.3 384.3L363.3 407.3Z" fill="#ba4d69" stroke="#adadad"></path><path d="M339.8 394.3L292.8 396L332.5 413.7Z" fill="#99426b" stroke="#adadad"></path><path d="M442.8 544.3L476.8 500.7L431 471.7Z" fill="#31294d" stroke="#adadad"></path><path d="M290.8 385.7L292.8 396L339.8 394.3Z" fill="#fcaf3c" stroke="#adadad"></path><path d="M287.3 422.3L261 416L282.3 439Z" fill="#001122" stroke="#adadad"></path><path d="M270.8 497.7L252 524.7L278 513.7Z" fill="#52325d" stroke="#adadad"></path><path d="M278 513.7L268.8 586.7L321.8 547.3Z" fill="#fcaf3c" stroke="#adadad"></path><path d="M227.5 505.7L252 524.7L270.8 497.7Z" fill="#99426b" stroke="#adadad"></path><path d="M231 470.3L270.3 478.7L282.3 439Z" fill="#001122" stroke="#adadad"></path><path d="M345.8 613.3L369.3 606L332.5 565.3Z" fill="#753a67" stroke="#adadad"></path><path d="M409.3 603.7L427.8 593.7L402 569Z" fill="#ec7556" stroke="#adadad"></path><path d="M402 569L442 587.7L442.8 544.3Z" fill="#ec7556" stroke="#adadad"></path><path d="M488.8 501L482.5 493.7L476.8 500.7Z" fill="#151e38" stroke="#adadad"></path><path d="M476.8 500.7L482.5 493.7L431 471.7Z" fill="#fcaf3c" stroke="#adadad"></path><path d="M409.3 603.7L402 569L387.5 575.7Z" fill="#753a67" stroke="#adadad"></path><path d="M497 523.3L488.8 501L476.8 500.7Z" fill="#31294d" stroke="#adadad"></path><path d="M369.3 606L409.3 603.7L387.5 575.7Z" fill="#753a67" stroke="#adadad"></path><path d="M292.8 396L261 416L287.3 422.3Z" fill="#52325d" stroke="#adadad"></path><path d="M346.3 384.3L290.8 385.7L339.8 394.3Z" fill="#52325d" stroke="#adadad"></path><path d="M292.8 396L251.5 403.3L261 416Z" fill="#f99048" stroke="#adadad"></path><path d="M497 523.3L476.8 500.7L442.8 544.3Z" fill="#ec7556" stroke="#adadad"></path><path d="M463.5 396L432.5 380.3L435 416.3Z" fill="#fcaf3c" stroke="#adadad"></path><path d="M293 600.3L345.8 613.3L323.8 578Z" fill="#151e38" stroke="#adadad"></path><path d="M323.8 578L345.8 613.3L332.5 565.3Z" fill="#f99048" stroke="#adadad"></path><path d="M369.3 606L402.8 626L409.3 603.7Z" fill="#52325d" stroke="#adadad"></path><path d="M456.3 597.7L442 587.7L432 616.7Z" fill="#753a67" stroke="#adadad"></path><path d="M427.8 593.7L442 587.7L402 569Z" fill="#31294d" stroke="#adadad"></path><path d="M463.5 396L435 416.3L507 449Z" fill="#fcaf3c" stroke="#adadad"></path><path d="M435 416.3L432.5 380.3L401.8 409Z" fill="#d65e61" stroke="#adadad"></path><path d="M393.8 397.3L371 357.7L363.3 407.3Z" fill="#52325d" stroke="#adadad"></path><path d="M346.3 384.3L284.3 362.3L290.8 385.7Z" fill="#31294d" stroke="#adadad"></path><path d="M380 348L371 357.7L393.8 397.3Z" fill="#d65e61" stroke="#adadad"></path><path d="M268.8 586.7L323.8 578L321.8 547.3Z" fill="#d65e61" stroke="#adadad"></path><path d="M261 416L231 470.3L282.3 439Z" fill="#52325d" stroke="#adadad"></path><path d="M507 449L431 471.7L482.5 493.7Z" fill="#f99048" stroke="#adadad"></path><path d="M380 348L368.3 351.7L371 357.7Z" fill="#52325d" stroke="#adadad"></path><path d="M371 357.7L368.3 351.7L346.3 384.3Z" fill="#fcaf3c" stroke="#adadad"></path><path d="M252 524.7L268.8 586.7L278 513.7Z" fill="#52325d" stroke="#adadad"></path><path d="M232 545.3L268.8 586.7L252 524.7Z" fill="#52325d" stroke="#adadad"></path><path d="M231 470.3L227.5 505.7L270.8 497.7Z" fill="#52325d" stroke="#adadad"></path><path d="M478.3 573.3L497 523.3L442.8 544.3Z" fill="#151e38" stroke="#adadad"></path><path d="M488.8 501L510.5 504.3L482.5 493.7Z" fill="#fcaf3c" stroke="#adadad"></path><path d="M290.8 385.7L251.5 403.3L292.8 396Z" fill="#d65e61" stroke="#adadad"></path><path d="M261 416L251.5 403.3L231 470.3Z" fill="#151e38" stroke="#adadad"></path><path d="M432.5 380.3L380 348L393.8 397.3Z" fill="#99426b" stroke="#adadad"></path><path d="M360.5 338.3L380 348L365 314.3Z" fill="#ba4d69" stroke="#adadad"></path><path d="M456.3 597.7L478.3 573.3L442 587.7Z" fill="#31294d" stroke="#adadad"></path><path d="M442 587.7L478.3 573.3L442.8 544.3Z" fill="#fcaf3c" stroke="#adadad"></path><path d="M227.5 505.7L232 545.3L252 524.7Z" fill="#31294d" stroke="#adadad"></path><path d="M360 654.3L402.8 626L369.3 606Z" fill="#753a67" stroke="#adadad"></path><path d="M409.3 603.7L432 616.7L427.8 593.7Z" fill="#fcaf3c" stroke="#adadad"></path><path d="M432 616.7L442 587.7L427.8 593.7Z" fill="#001122" stroke="#adadad"></path><path d="M402.8 626L432 616.7L409.3 603.7Z" fill="#ec7556" stroke="#adadad"></path><path d="M478.3 573.3L505.5 527L497 523.3Z" fill="#31294d" stroke="#adadad"></path><path d="M497 523.3L510.5 504.3L488.8 501Z" fill="#52325d" stroke="#adadad"></path><path d="M505.5 527L510.5 504.3L497 523.3Z" fill="#f99048" stroke="#adadad"></path><path d="M360.5 338.3L284.3 362.3L346.3 384.3Z" fill="#f99048" stroke="#adadad"></path><path d="M290.8 385.7L284.3 362.3L251.5 403.3Z" fill="#99426b" stroke="#adadad"></path><path d="M360.5 338.3L346.3 384.3L368.3 351.7Z" fill="#ec7556" stroke="#adadad"></path><path d="M510.5 460.3L507 449L482.5 493.7Z" fill="#753a67" stroke="#adadad"></path><path d="M380 348L360.5 338.3L368.3 351.7Z" fill="#753a67" stroke="#adadad"></path><path d="M510.5 504.3L510.5 460.3L482.5 493.7Z" fill="#ec7556" stroke="#adadad"></path><path d="M558.8 460.3L511 452.7L510.5 460.3Z" fill="#753a67" stroke="#adadad"></path><path d="M510.5 460.3L511 452.7L507 449Z" fill="#31294d" stroke="#adadad"></path><path d="M507 449L480.8 384.7L463.5 396Z" fill="#31294d" stroke="#adadad"></path><path d="M557.3 414.3L480.8 384.7L507 449Z" fill="#f99048" stroke="#adadad"></path><path d="M463.5 396L477.8 352.3L432.5 380.3Z" fill="#d65e61" stroke="#adadad"></path><path d="M365 314.3L360.3 318L360.5 338.3Z" fill="#753a67" stroke="#adadad"></path><path d="M293 600.3L332.5 644L345.8 613.3Z" fill="#ba4d69" stroke="#adadad"></path><path d="M345.8 613.3L360 654.3L369.3 606Z" fill="#f99048" stroke="#adadad"></path><path d="M245.3 649.7L332.5 644L293 600.3Z" fill="#753a67" stroke="#adadad"></path><path d="M381.5 659.3L415.3 639.7L402.8 626Z" fill="#753a67" stroke="#adadad"></path><path d="M402.8 626L415.3 639.7L432 616.7Z" fill="#f99048" stroke="#adadad"></path><path d="M482.8 630.3L492 583.7L456.3 597.7Z" fill="#d65e61" stroke="#adadad"></path><path d="M456.3 597.7L492 583.7L478.3 573.3Z" fill="#ec7556" stroke="#adadad"></path><path d="M478.3 573.3L499.5 584.7L505.5 527Z" fill="#f99048" stroke="#adadad"></path><path d="M499.5 584.7L492 583.7L482.8 630.3Z" fill="#ec7556" stroke="#adadad"></path><path d="M179.8 531.3L217.5 559.7L232 545.3Z" fill="#753a67" stroke="#adadad"></path><path d="M232 545.3L243.3 598.7L268.8 586.7Z" fill="#52325d" stroke="#adadad"></path><path d="M268.8 586.7L243.3 598.7L293 600.3Z" fill="#fcaf3c" stroke="#adadad"></path><path d="M179.8 531.3L232 545.3L227.5 505.7Z" fill="#fcaf3c" stroke="#adadad"></path><path d="M188.8 413.3L201.5 467L231 470.3Z" fill="#753a67" stroke="#adadad"></path><path d="M231 470.3L197.3 496L227.5 505.7Z" fill="#753a67" stroke="#adadad"></path><path d="M332.5 644L349.5 650.7L345.8 613.3Z" fill="#52325d" stroke="#adadad"></path><path d="M218 563L243.3 598.7L232 545.3Z" fill="#001122" stroke="#adadad"></path><path d="M163.5 570.3L218 563L217.5 559.7Z" fill="#d65e61" stroke="#adadad"></path><path d="M217.5 559.7L218 563L232 545.3Z" fill="#52325d" stroke="#adadad"></path><path d="M201.5 467L197.3 496L231 470.3Z" fill="#151e38" stroke="#adadad"></path><path d="M349.5 650.7L360 654.3L345.8 613.3Z" fill="#753a67" stroke="#adadad"></path><path d="M332.5 644L338.8 652.7L349.5 650.7Z" fill="#001122" stroke="#adadad"></path><path d="M349.5 650.7L346.3 666.3L360 654.3Z" fill="#753a67" stroke="#adadad"></path><path d="M346.3 666.3L338.8 652.7L338.8 692Z" fill="#fcaf3c" stroke="#adadad"></path><path d="M457.8 642.7L456.3 597.7L432 616.7Z" fill="#99426b" stroke="#adadad"></path><path d="M492 583.7L499.5 584.7L478.3 573.3Z" fill="#ba4d69" stroke="#adadad"></path><path d="M540 500L537 483.3L510.5 504.3Z" fill="#f99048" stroke="#adadad"></path><path d="M360.5 338.3L284.8 339L284.3 362.3Z" fill="#52325d" stroke="#adadad"></path><path d="M284.3 362.3L234.5 372L251.5 403.3Z" fill="#151e38" stroke="#adadad"></path><path d="M251.5 403.3L188.8 413.3L231 470.3Z" fill="#31294d" stroke="#adadad"></path><path d="M365 314.3L380 348L419.8 303.7Z" fill="#753a67" stroke="#adadad"></path><path d="M360.5 338.3L330.5 304L284.8 339Z" fill="#151e38" stroke="#adadad"></path><path d="M218 563L231.3 597.3L243.3 598.7Z" fill="#fcaf3c" stroke="#adadad"></path><path d="M338.8 692L338.8 652.7L295 688.3Z" fill="#ec7556" stroke="#adadad"></path><path d="M360.3 318L351.8 316.7L360.5 338.3Z" fill="#31294d" stroke="#adadad"></path><path d="M346.3 666.3L381.5 659.3L360 654.3Z" fill="#ba4d69" stroke="#adadad"></path><path d="M360 654.3L381.5 659.3L402.8 626Z" fill="#ec7556" stroke="#adadad"></path><path d="M266 343.7L234.5 372L284.3 362.3Z" fill="#52325d" stroke="#adadad"></path><path d="M419.8 303.7L380 348L432.5 380.3Z" fill="#001122" stroke="#adadad"></path><path d="M360.3 318L365 314.3L351.8 316.7Z" fill="#52325d" stroke="#adadad"></path><path d="M540 500L510.5 504.3L505.5 527Z" fill="#99426b" stroke="#adadad"></path><path d="M510.5 504.3L537 483.3L510.5 460.3Z" fill="#52325d" stroke="#adadad"></path><path d="M485.5 328.7L477.8 352.3L540.3 351Z" fill="#ec7556" stroke="#adadad"></path><path d="M269 320.3L266 343.7L284.8 339Z" fill="#31294d" stroke="#adadad"></path><path d="M284.8 339L266 343.7L284.3 362.3Z" fill="#001122" stroke="#adadad"></path><path d="M541.3 548L540 500L505.5 527Z" fill="#ba4d69" stroke="#adadad"></path><path d="M557.3 414.3L507 449L511 452.7Z" fill="#f99048" stroke="#adadad"></path><path d="M480.8 384.7L477.8 352.3L463.5 396Z" fill="#d65e61" stroke="#adadad"></path><path d="M185.8 607.3L221.3 595L218 563Z" fill="#753a67" stroke="#adadad"></path><path d="M218 563L221.3 595L231.3 597.3Z" fill="#151e38" stroke="#adadad"></path><path d="M245.3 649.7L293 600.3L243.3 598.7Z" fill="#ec7556" stroke="#adadad"></path><path d="M221.5 612.3L243.3 598.7L231.3 597.3Z" fill="#fcaf3c" stroke="#adadad"></path><path d="M338.8 652.7L346.3 666.3L349.5 650.7Z" fill="#ec7556" stroke="#adadad"></path><path d="M465.5 662.7L457.8 642.7L415.3 639.7Z" fill="#151e38" stroke="#adadad"></path><path d="M415.3 639.7L457.8 642.7L432 616.7Z" fill="#52325d" stroke="#adadad"></path><path d="M477.8 352.3L458.5 331L432.5 380.3Z" fill="#151e38" stroke="#adadad"></path><path d="M365 314.3L343.8 305.3L351.8 316.7Z" fill="#ba4d69" stroke="#adadad"></path><path d="M351.8 316.7L330.5 304L360.5 338.3Z" fill="#f99048" stroke="#adadad"></path><path d="M367.5 263.7L343.8 305.3L365 314.3Z" fill="#52325d" stroke="#adadad"></path><path d="M457.8 642.7L482.8 630.3L456.3 597.7Z" fill="#753a67" stroke="#adadad"></path><path d="M499.5 584.7L541.3 548L505.5 527Z" fill="#52325d" stroke="#adadad"></path><path d="M343.8 305.3L330.5 304L351.8 316.7Z" fill="#52325d" stroke="#adadad"></path><path d="M550 555L541.3 548L547.3 588Z" fill="#f99048" stroke="#adadad"></path><path d="M185.8 607.3L221.5 612.3L221.3 595Z" fill="#99426b" stroke="#adadad"></path><path d="M221.3 595L221.5 612.3L231.3 597.3Z" fill="#151e38" stroke="#adadad"></path><path d="M164 518L179.8 531.3L197.3 496Z" fill="#ba4d69" stroke="#adadad"></path><path d="M197.3 496L179.8 531.3L227.5 505.7Z" fill="#99426b" stroke="#adadad"></path><path d="M234.5 372L188.8 413.3L251.5 403.3Z" fill="#151e38" stroke="#adadad"></path><path d="M201.5 467L164 469.7L197.3 496Z" fill="#99426b" stroke="#adadad"></path><path d="M541.3 548L554.3 507.7L540 500Z" fill="#f99048" stroke="#adadad"></path><path d="M540 500L559.8 486L537 483.3Z" fill="#fcaf3c" stroke="#adadad"></path><path d="M537 483.3L558.8 460.3L510.5 460.3Z" fill="#001122" stroke="#adadad"></path><path d="M273 309L269 320.3L284.8 339Z" fill="#52325d" stroke="#adadad"></path><path d="M266 343.7L238.3 330L234.5 372Z" fill="#52325d" stroke="#adadad"></path><path d="M167 408L184 416.3L188.8 413.3Z" fill="#31294d" stroke="#adadad"></path><path d="M458.5 331L419.8 303.7L432.5 380.3Z" fill="#ec7556" stroke="#adadad"></path><path d="M343.8 305.3L310.8 273.3L330.5 304Z" fill="#753a67" stroke="#adadad"></path><path d="M186 373.3L188.8 413.3L234.5 372Z" fill="#99426b" stroke="#adadad"></path><path d="M188.8 413.3L184 416.3L201.5 467Z" fill="#753a67" stroke="#adadad"></path><path d="M457.8 642.7L487.5 636L482.8 630.3Z" fill="#753a67" stroke="#adadad"></path><path d="M482.8 630.3L520.3 631.3L499.5 584.7Z" fill="#001122" stroke="#adadad"></path><path d="M554.3 507.7L559.8 486L540 500Z" fill="#001122" stroke="#adadad"></path><path d="M559.8 486L558.8 460.3L537 483.3Z" fill="#f99048" stroke="#adadad"></path><path d="M547.3 588L541.3 548L499.5 584.7Z" fill="#52325d" stroke="#adadad"></path><path d="M541.3 548L569.8 513.3L554.3 507.7Z" fill="#753a67" stroke="#adadad"></path><path d="M554.3 507.7L569.8 513.3L559.8 486Z" fill="#ba4d69" stroke="#adadad"></path><path d="M579.8 393.7L558.8 446.7L629.5 416Z" fill="#99426b" stroke="#adadad"></path><path d="M558.8 460.3L558.8 446.7L511 452.7Z" fill="#fcaf3c" stroke="#adadad"></path><path d="M184 416.3L164 469.7L201.5 467Z" fill="#31294d" stroke="#adadad"></path><path d="M226.5 641L245.3 649.7L243.3 598.7Z" fill="#52325d" stroke="#adadad"></path><path d="M330.5 304L273 309L284.8 339Z" fill="#151e38" stroke="#adadad"></path><path d="M246.5 317.7L238.3 330L266 343.7Z" fill="#ec7556" stroke="#adadad"></path><path d="M477.8 352.3L485.5 328.7L458.5 331Z" fill="#151e38" stroke="#adadad"></path><path d="M431.5 276.3L415 282.3L419.8 303.7Z" fill="#52325d" stroke="#adadad"></path><path d="M540.3 351L477.8 352.3L480.8 384.7Z" fill="#ba4d69" stroke="#adadad"></path><path d="M246.5 317.7L266 343.7L269 320.3Z" fill="#753a67" stroke="#adadad"></path><path d="M155.8 475.7L164 518L197.3 496Z" fill="#d65e61" stroke="#adadad"></path><path d="M162.8 577L185.8 607.3L218 563Z" fill="#753a67" stroke="#adadad"></path><path d="M431.5 734.7L465.5 662.7L415.3 639.7Z" fill="#99426b" stroke="#adadad"></path><path d="M457.8 642.7L465.5 662.7L487.5 636Z" fill="#99426b" stroke="#adadad"></path><path d="M431.5 734.7L415.3 639.7L381.5 659.3Z" fill="#99426b" stroke="#adadad"></path><path d="M221.5 612.3L226.5 641L243.3 598.7Z" fill="#fcaf3c" stroke="#adadad"></path><path d="M195.5 633.7L226.5 641L221.5 612.3Z" fill="#753a67" stroke="#adadad"></path><path d="M295 688.3L338.8 652.7L332.5 644Z" fill="#31294d" stroke="#adadad"></path><path d="M346.3 666.3L338.8 692L381.5 659.3Z" fill="#753a67" stroke="#adadad"></path><path d="M273 309L246.5 317.7L269 320.3Z" fill="#fcaf3c" stroke="#adadad"></path><path d="M558.8 446.7L557.3 414.3L511 452.7Z" fill="#52325d" stroke="#adadad"></path><path d="M566.8 550L569.8 513.3L541.3 548Z" fill="#ba4d69" stroke="#adadad"></path><path d="M559.8 486L605.5 495.7L558.8 460.3Z" fill="#ec7556" stroke="#adadad"></path><path d="M579.8 393.7L560.5 398.3L557.3 414.3Z" fill="#ec7556" stroke="#adadad"></path><path d="M132.3 453.7L155.8 475.7L164 469.7Z" fill="#31294d" stroke="#adadad"></path><path d="M164 469.7L155.8 475.7L197.3 496Z" fill="#ec7556" stroke="#adadad"></path><path d="M524.3 630.7L547.3 588L499.5 584.7Z" fill="#d65e61" stroke="#adadad"></path><path d="M550 555L566.8 550L541.3 548Z" fill="#99426b" stroke="#adadad"></path><path d="M520.3 631.3L482.8 630.3L487.5 636Z" fill="#f99048" stroke="#adadad"></path><path d="M131.3 535.3L157.8 531L164 518Z" fill="#31294d" stroke="#adadad"></path><path d="M164 518L157.8 531L179.8 531.3Z" fill="#151e38" stroke="#adadad"></path><path d="M226.5 641L230 650.7L245.3 649.7Z" fill="#ba4d69" stroke="#adadad"></path><path d="M245.3 649.7L295 688.3L332.5 644Z" fill="#fcaf3c" stroke="#adadad"></path><path d="M206.5 651L230 650.7L226.5 641Z" fill="#753a67" stroke="#adadad"></path><path d="M465.5 662.7L508.5 640.3L487.5 636Z" fill="#52325d" stroke="#adadad"></path><path d="M184.8 361L197.5 358.3L199.3 329.7Z" fill="#001122" stroke="#adadad"></path><path d="M238.3 330L197.5 358.3L234.5 372Z" fill="#001122" stroke="#adadad"></path><path d="M184 416.3L167 408L164 469.7Z" fill="#ba4d69" stroke="#adadad"></path><path d="M197.5 358.3L186 373.3L234.5 372Z" fill="#99426b" stroke="#adadad"></path><path d="M280.3 689L295 688.3L245.3 649.7Z" fill="#31294d" stroke="#adadad"></path><path d="M186 373.3L167 408L188.8 413.3Z" fill="#52325d" stroke="#adadad"></path><path d="M431.5 276.3L419.8 303.7L458.5 331Z" fill="#99426b" stroke="#adadad"></path><path d="M419.8 303.7L415 282.3L365 314.3Z" fill="#753a67" stroke="#adadad"></path><path d="M310.8 273.3L271 290.7L273 309Z" fill="#fcaf3c" stroke="#adadad"></path><path d="M508.5 640.3L520.3 631.3L487.5 636Z" fill="#52325d" stroke="#adadad"></path><path d="M569.5 573.7L566.8 550L550 555Z" fill="#d65e61" stroke="#adadad"></path><path d="M163.5 570.3L217.5 559.7L179.8 531.3Z" fill="#31294d" stroke="#adadad"></path><path d="M508.5 640.3L522 631.7L520.3 631.3Z" fill="#753a67" stroke="#adadad"></path><path d="M520.3 631.3L524.3 630.7L499.5 584.7Z" fill="#f99048" stroke="#adadad"></path><path d="M560.5 398.3L557.3 396.7L557.3 414.3Z" fill="#753a67" stroke="#adadad"></path><path d="M557.3 414.3L557.3 396.7L480.8 384.7Z" fill="#52325d" stroke="#adadad"></path><path d="M563.8 662.7L524.3 630.7L522 631.7Z" fill="#ba4d69" stroke="#adadad"></path><path d="M522 631.7L524.3 630.7L520.3 631.3Z" fill="#99426b" stroke="#adadad"></path><path d="M157.8 531L163.5 570.3L179.8 531.3Z" fill="#fcaf3c" stroke="#adadad"></path><path d="M565 374.7L560.5 398.3L579.8 393.7Z" fill="#d65e61" stroke="#adadad"></path><path d="M557.3 396.7L540.3 351L480.8 384.7Z" fill="#d65e61" stroke="#adadad"></path><path d="M248.5 719.3L280.3 689L245.3 649.7Z" fill="#151e38" stroke="#adadad"></path><path d="M295 688.3L335.3 704L338.8 692Z" fill="#ec7556" stroke="#adadad"></path><path d="M307.8 725.3L335.3 704L295 688.3Z" fill="#31294d" stroke="#adadad"></path><path d="M393.8 747L431.5 734.7L381.5 659.3Z" fill="#31294d" stroke="#adadad"></path><path d="M310.8 273.3L273 309L330.5 304Z" fill="#753a67" stroke="#adadad"></path><path d="M273 309L271 290.7L246.5 317.7Z" fill="#31294d" stroke="#adadad"></path><path d="M199.3 329.7L197.5 358.3L238.3 330Z" fill="#99426b" stroke="#adadad"></path><path d="M162.8 577L163 574L150 583.3Z" fill="#99426b" stroke="#adadad"></path><path d="M163.5 570.3L163 574L218 563Z" fill="#31294d" stroke="#adadad"></path><path d="M197.5 358.3L184.8 361L186 373.3Z" fill="#31294d" stroke="#adadad"></path><path d="M152 376.7L139.8 408.7L167 408Z" fill="#31294d" stroke="#adadad"></path><path d="M199.3 329.7L238.3 330L246.5 317.7Z" fill="#fcaf3c" stroke="#adadad"></path><path d="M155.8 587.7L162.8 577L150 583.3Z" fill="#f99048" stroke="#adadad"></path><path d="M163 574L162.8 577L218 563Z" fill="#ba4d69" stroke="#adadad"></path><path d="M367.5 263.7L310.8 273.3L343.8 305.3Z" fill="#fcaf3c" stroke="#adadad"></path><path d="M177 650.7L195.5 633.7L185.8 607.3Z" fill="#f99048" stroke="#adadad"></path><path d="M185.8 607.3L195.5 633.7L221.5 612.3Z" fill="#d65e61" stroke="#adadad"></path><path d="M230 650.7L248.5 719.3L245.3 649.7Z" fill="#31294d" stroke="#adadad"></path><path d="M493.3 301L431.5 276.3L458.5 331Z" fill="#ba4d69" stroke="#adadad"></path><path d="M415 282.3L367.5 263.7L365 314.3Z" fill="#151e38" stroke="#adadad"></path><path d="M493.3 301L458.5 331L485.5 328.7Z" fill="#99426b" stroke="#adadad"></path><path d="M524.3 630.7L558.8 595.7L547.3 588Z" fill="#ba4d69" stroke="#adadad"></path><path d="M547.3 588L569.5 573.7L550 555Z" fill="#d65e61" stroke="#adadad"></path><path d="M558.8 595.7L569.5 573.7L547.3 588Z" fill="#99426b" stroke="#adadad"></path><path d="M607.5 566.3L605.5 495.7L569.8 513.3Z" fill="#151e38" stroke="#adadad"></path><path d="M565 374.7L540.3 351L557.3 396.7Z" fill="#f99048" stroke="#adadad"></path><path d="M384.3 254.7L367.5 263.7L415 282.3Z" fill="#31294d" stroke="#adadad"></path><path d="M195.5 633.7L206.5 651L226.5 641Z" fill="#99426b" stroke="#adadad"></path><path d="M519 301.7L493.3 301L485.5 328.7Z" fill="#ba4d69" stroke="#adadad"></path><path d="M176.5 309.7L199.3 329.7L190.8 280.3Z" fill="#d65e61" stroke="#adadad"></path><path d="M162.8 577L155.8 587.7L185.8 607.3Z" fill="#f99048" stroke="#adadad"></path><path d="M195.5 633.7L177 650.7L206.5 651Z" fill="#753a67" stroke="#adadad"></path><path d="M150 583.3L163 574L163.5 570.3Z" fill="#f99048" stroke="#adadad"></path><path d="M150 583.3L163.5 570.3L131.3 535.3Z" fill="#f99048" stroke="#adadad"></path><path d="M579.8 393.7L557.3 414.3L558.8 446.7Z" fill="#99426b" stroke="#adadad"></path><path d="M560.5 398.3L565 374.7L557.3 396.7Z" fill="#52325d" stroke="#adadad"></path><path d="M540.3 351L519 301.7L485.5 328.7Z" fill="#753a67" stroke="#adadad"></path><path d="M167 408L132.3 453.7L164 469.7Z" fill="#ec7556" stroke="#adadad"></path><path d="M155.8 475.7L131.3 535.3L164 518Z" fill="#ec7556" stroke="#adadad"></path><path d="M139.8 408.7L132.3 453.7L167 408Z" fill="#fcaf3c" stroke="#adadad"></path><path d="M167 408L186 373.3L152 376.7Z" fill="#99426b" stroke="#adadad"></path><path d="M131.3 535.3L163.5 570.3L157.8 531Z" fill="#151e38" stroke="#adadad"></path><path d="M155.8 587.7L155 609.7L185.8 607.3Z" fill="#fcaf3c" stroke="#adadad"></path><path d="M431.5 276.3L384.3 254.7L415 282.3Z" fill="#151e38" stroke="#adadad"></path><path d="M367.5 263.7L308.5 229.3L310.8 273.3Z" fill="#fcaf3c" stroke="#adadad"></path><path d="M369 233.7L384.3 254.7L385.3 226.3Z" fill="#52325d" stroke="#adadad"></path><path d="M605.5 495.7L558.8 446.7L558.8 460.3Z" fill="#52325d" stroke="#adadad"></path><path d="M605.5 495.7L559.8 486L569.8 513.3Z" fill="#f99048" stroke="#adadad"></path><path d="M116.3 531.7L131.3 535.3L155.8 475.7Z" fill="#f99048" stroke="#adadad"></path><path d="M152 376.7L186 373.3L184.8 361Z" fill="#d65e61" stroke="#adadad"></path><path d="M170 340L152 376.7L184.8 361Z" fill="#ba4d69" stroke="#adadad"></path><path d="M558.8 595.7L589.3 571.3L569.5 573.7Z" fill="#d65e61" stroke="#adadad"></path><path d="M569.5 573.7L589.3 571.3L566.8 550Z" fill="#ba4d69" stroke="#adadad"></path><path d="M607.5 566.3L589.3 571.3L605.3 602.3Z" fill="#ec7556" stroke="#adadad"></path><path d="M106.3 571L155 609.7L150 583.3Z" fill="#ba4d69" stroke="#adadad"></path><path d="M150 583.3L155 609.7L155.8 587.7Z" fill="#001122" stroke="#adadad"></path><path d="M607.5 566.3L569.8 513.3L566.8 550Z" fill="#753a67" stroke="#adadad"></path><path d="M519 301.7L540.3 351L565 311.3Z" fill="#f99048" stroke="#adadad"></path><path d="M521.3 283.3L519 301.7L548.8 274.7Z" fill="#001122" stroke="#adadad"></path><path d="M481.8 248L454.3 236.3L431.5 276.3Z" fill="#31294d" stroke="#adadad"></path><path d="M199.3 329.7L170 340L184.8 361Z" fill="#f99048" stroke="#adadad"></path><path d="M164.8 325L170 340L199.3 329.7Z" fill="#151e38" stroke="#adadad"></path><path d="M280.3 689L307.8 725.3L295 688.3Z" fill="#151e38" stroke="#adadad"></path><path d="M367 744L381.5 659.3L338.8 692Z" fill="#99426b" stroke="#adadad"></path><path d="M295.5 735.3L307.8 725.3L280.3 689Z" fill="#52325d" stroke="#adadad"></path><path d="M155 609.7L177 650.7L185.8 607.3Z" fill="#f99048" stroke="#adadad"></path><path d="M206.5 651L200.8 680L230 650.7Z" fill="#31294d" stroke="#adadad"></path><path d="M310.8 273.3L253.5 266L271 290.7Z" fill="#ba4d69" stroke="#adadad"></path><path d="M271 290.7L253.5 266L246.5 317.7Z" fill="#d65e61" stroke="#adadad"></path><path d="M278.3 223.3L253.5 266L310.8 273.3Z" fill="#d65e61" stroke="#adadad"></path><path d="M90.5 508.3L155.8 475.7L132.3 453.7Z" fill="#52325d" stroke="#adadad"></path><path d="M90.5 508.3L116.3 531.7L155.8 475.7Z" fill="#99426b" stroke="#adadad"></path><path d="M131.3 535.3L106.3 571L150 583.3Z" fill="#99426b" stroke="#adadad"></path><path d="M177 650.7L200.8 680L206.5 651Z" fill="#f99048" stroke="#adadad"></path><path d="M152 376.7L133.3 386L139.8 408.7Z" fill="#d65e61" stroke="#adadad"></path><path d="M78.3 429.3L80.5 483.7L132.3 453.7Z" fill="#31294d" stroke="#adadad"></path><path d="M137.8 327.3L133.3 386L152 376.7Z" fill="#001122" stroke="#adadad"></path><path d="M295.5 735.3L313.5 737L307.8 725.3Z" fill="#52325d" stroke="#adadad"></path><path d="M307.8 725.3L313.5 737L335.3 704Z" fill="#753a67" stroke="#adadad"></path><path d="M385.3 226.3L384.3 254.7L454.3 236.3Z" fill="#151e38" stroke="#adadad"></path><path d="M384.3 254.7L369 233.7L367.5 263.7Z" fill="#99426b" stroke="#adadad"></path><path d="M367 744L338.8 692L335.3 704Z" fill="#ba4d69" stroke="#adadad"></path><path d="M465.5 662.7L519 691.3L508.5 640.3Z" fill="#ba4d69" stroke="#adadad"></path><path d="M508.5 640.3L563.8 662.7L522 631.7Z" fill="#ec7556" stroke="#adadad"></path><path d="M524.3 630.7L563.8 662.7L558.8 595.7Z" fill="#151e38" stroke="#adadad"></path><path d="M313.5 737L367 744L335.3 704Z" fill="#001122" stroke="#adadad"></path><path d="M500.3 714L519 691.3L465.5 662.7Z" fill="#753a67" stroke="#adadad"></path><path d="M605.3 602.3L589.3 571.3L558.8 595.7Z" fill="#ec7556" stroke="#adadad"></path><path d="M589.3 571.3L607.5 566.3L566.8 550Z" fill="#753a67" stroke="#adadad"></path><path d="M269 739L295.5 735.3L280.3 689Z" fill="#f99048" stroke="#adadad"></path><path d="M360.3 773.3L387.8 750.7L367 744Z" fill="#753a67" stroke="#adadad"></path><path d="M176.5 309.7L164.8 325L199.3 329.7Z" fill="#d65e61" stroke="#adadad"></path><path d="M170 340L137.8 327.3L152 376.7Z" fill="#d65e61" stroke="#adadad"></path><path d="M200.8 680L248.5 719.3L230 650.7Z" fill="#f99048" stroke="#adadad"></path><path d="M190.8 280.3L199.3 329.7L246.5 317.7Z" fill="#99426b" stroke="#adadad"></path><path d="M583.5 350L540.3 351L565 374.7Z" fill="#753a67" stroke="#adadad"></path><path d="M519 301.7L521.3 283.3L493.3 301Z" fill="#d65e61" stroke="#adadad"></path><path d="M596.3 360.3L565 374.7L579.8 393.7Z" fill="#52325d" stroke="#adadad"></path><path d="M596.3 360.3L583.5 350L565 374.7Z" fill="#52325d" stroke="#adadad"></path><path d="M367 744L393.8 747L381.5 659.3Z" fill="#52325d" stroke="#adadad"></path><path d="M431.5 734.7L479.8 722.3L465.5 662.7Z" fill="#f99048" stroke="#adadad"></path><path d="M500.3 714L479.8 722.3L491.3 746.7Z" fill="#ba4d69" stroke="#adadad"></path><path d="M454.3 236.3L384.3 254.7L431.5 276.3Z" fill="#31294d" stroke="#adadad"></path><path d="M369 233.7L308.5 229.3L367.5 263.7Z" fill="#d65e61" stroke="#adadad"></path><path d="M367 744L387.8 750.7L393.8 747Z" fill="#d65e61" stroke="#adadad"></path><path d="M476.3 759.3L479.8 722.3L431.5 734.7Z" fill="#f99048" stroke="#adadad"></path><path d="M360.3 773.3L367 744L341.5 776.7Z" fill="#ec7556" stroke="#adadad"></path><path d="M479.8 722.3L500.3 714L465.5 662.7Z" fill="#fcaf3c" stroke="#adadad"></path><path d="M290.8 216.7L308.5 229.3L309.8 205Z" fill="#ec7556" stroke="#adadad"></path><path d="M253.5 266L190.8 280.3L246.5 317.7Z" fill="#753a67" stroke="#adadad"></path><path d="M622.8 393L596.3 360.3L579.8 393.7Z" fill="#ba4d69" stroke="#adadad"></path><path d="M583.5 350L565 311.3L540.3 351Z" fill="#ba4d69" stroke="#adadad"></path><path d="M564 714L563.8 662.7L519 691.3Z" fill="#99426b" stroke="#adadad"></path><path d="M519 691.3L563.8 662.7L508.5 640.3Z" fill="#52325d" stroke="#adadad"></path><path d="M593.8 644.3L605.3 602.3L558.8 595.7Z" fill="#99426b" stroke="#adadad"></path><path d="M481.8 248L431.5 276.3L493.3 301Z" fill="#ba4d69" stroke="#adadad"></path><path d="M521.3 283.3L481.8 248L493.3 301Z" fill="#753a67" stroke="#adadad"></path><path d="M599.8 291L565 311.3L583.5 350Z" fill="#ba4d69" stroke="#adadad"></path><path d="M508.3 241.7L480.5 240.7L481.8 248Z" fill="#151e38" stroke="#adadad"></path><path d="M248.5 719.3L269 739L280.3 689Z" fill="#d65e61" stroke="#adadad"></path><path d="M341.5 776.7L367 744L313.5 737Z" fill="#d65e61" stroke="#adadad"></path><path d="M221.3 750.3L269 739L248.5 719.3Z" fill="#753a67" stroke="#adadad"></path><path d="M192.3 264.7L190.8 280.3L253.5 266Z" fill="#d65e61" stroke="#adadad"></path><path d="M176.5 309.7L137.8 327.3L164.8 325Z" fill="#52325d" stroke="#adadad"></path><path d="M86.3 549L106.3 571L116.3 531.7Z" fill="#ec7556" stroke="#adadad"></path><path d="M116.3 531.7L106.3 571L131.3 535.3Z" fill="#ec7556" stroke="#adadad"></path><path d="M127.3 653.3L149.3 676.7L177 650.7Z" fill="#ec7556" stroke="#adadad"></path><path d="M156.8 705.7L221.3 719.7L200.8 680Z" fill="#fcaf3c" stroke="#adadad"></path><path d="M149.3 676.7L200.8 680L177 650.7Z" fill="#fcaf3c" stroke="#adadad"></path><path d="M200.8 680L221.3 719.7L248.5 719.3Z" fill="#fcaf3c" stroke="#adadad"></path><path d="M513.5 722.3L521.8 710.3L500.3 714Z" fill="#753a67" stroke="#adadad"></path><path d="M500.3 714L521.8 710.3L519 691.3Z" fill="#d65e61" stroke="#adadad"></path><path d="M513.5 722.3L500.3 714L491.3 746.7Z" fill="#f99048" stroke="#adadad"></path><path d="M80.5 483.7L90.5 508.3L132.3 453.7Z" fill="#f99048" stroke="#adadad"></path><path d="M508.3 241.7L481.8 248L521.3 283.3Z" fill="#151e38" stroke="#adadad"></path><path d="M481.8 248L480.5 240.7L454.3 236.3Z" fill="#753a67" stroke="#adadad"></path><path d="M590.5 656.7L584 651.3L563.8 662.7Z" fill="#001122" stroke="#adadad"></path><path d="M563.8 662.7L584 651.3L558.8 595.7Z" fill="#99426b" stroke="#adadad"></path><path d="M653.5 487L629.5 416L605.5 495.7Z" fill="#151e38" stroke="#adadad"></path><path d="M605.5 495.7L629.5 416L558.8 446.7Z" fill="#52325d" stroke="#adadad"></path><path d="M653.5 487L605.5 495.7L676.3 508Z" fill="#753a67" stroke="#adadad"></path><path d="M629.5 416L622.8 393L579.8 393.7Z" fill="#151e38" stroke="#adadad"></path><path d="M565 288L519 301.7L565 311.3Z" fill="#001122" stroke="#adadad"></path><path d="M141.8 258.7L137.8 327.3L176.5 309.7Z" fill="#99426b" stroke="#adadad"></path><path d="M164.8 325L137.8 327.3L170 340Z" fill="#fcaf3c" stroke="#adadad"></path><path d="M78.3 429.3L132.3 453.7L139.8 408.7Z" fill="#ec7556" stroke="#adadad"></path><path d="M290.8 216.7L278.3 223.3L308.5 229.3Z" fill="#99426b" stroke="#adadad"></path><path d="M308.5 229.3L278.3 223.3L310.8 273.3Z" fill="#f99048" stroke="#adadad"></path><path d="M491.3 746.7L479.8 722.3L476.3 759.3Z" fill="#ec7556" stroke="#adadad"></path><path d="M607.5 659.3L590.5 656.7L564 714Z" fill="#151e38" stroke="#adadad"></path><path d="M590.5 656.7L593.8 644.3L584 651.3Z" fill="#753a67" stroke="#adadad"></path><path d="M584 651.3L593.8 644.3L558.8 595.7Z" fill="#d65e61" stroke="#adadad"></path><path d="M309.8 205L308.5 229.3L333.3 192Z" fill="#ec7556" stroke="#adadad"></path><path d="M216.8 201L192.3 264.7L253.5 266Z" fill="#fcaf3c" stroke="#adadad"></path><path d="M190.8 280.3L150 258.7L176.5 309.7Z" fill="#753a67" stroke="#adadad"></path><path d="M260 217.3L253.5 266L278.3 223.3Z" fill="#ba4d69" stroke="#adadad"></path><path d="M565 288L565 311.3L599.8 291Z" fill="#99426b" stroke="#adadad"></path><path d="M565 288L548.8 274.7L519 301.7Z" fill="#151e38" stroke="#adadad"></path><path d="M78.3 429.3L139.8 408.7L133.3 386Z" fill="#d65e61" stroke="#adadad"></path><path d="M90.5 508.3L86.3 549L116.3 531.7Z" fill="#f99048" stroke="#adadad"></path><path d="M590.5 656.7L563.8 662.7L564 714Z" fill="#001122" stroke="#adadad"></path><path d="M593.8 644.3L624.5 604L605.3 602.3Z" fill="#151e38" stroke="#adadad"></path><path d="M45.5 537.7L86.3 549L90.5 508.3Z" fill="#d65e61" stroke="#adadad"></path><path d="M127.3 653.3L177 650.7L155 609.7Z" fill="#d65e61" stroke="#adadad"></path><path d="M627.5 332.3L583.5 350L596.3 360.3Z" fill="#52325d" stroke="#adadad"></path><path d="M341.5 776.7L313.5 737L293.8 786.3Z" fill="#52325d" stroke="#adadad"></path><path d="M413 776.3L431.5 734.7L393.8 747Z" fill="#001122" stroke="#adadad"></path><path d="M127.3 653.3L155 609.7L118 639.3Z" fill="#753a67" stroke="#adadad"></path><path d="M626.5 652L624.5 604L593.8 644.3Z" fill="#52325d" stroke="#adadad"></path><path d="M605.3 602.3L624.5 604L607.5 566.3Z" fill="#d65e61" stroke="#adadad"></path><path d="M533.3 251L508.3 241.7L521.3 283.3Z" fill="#ec7556" stroke="#adadad"></path><path d="M436.5 177.3L391.8 197.3L454.3 236.3Z" fill="#151e38" stroke="#adadad"></path><path d="M391.8 197.3L370.3 201.7L385.3 226.3Z" fill="#151e38" stroke="#adadad"></path><path d="M391.8 197.3L385.3 226.3L454.3 236.3Z" fill="#f99048" stroke="#adadad"></path><path d="M385.3 226.3L370.3 201.7L369 233.7Z" fill="#31294d" stroke="#adadad"></path><path d="M333.3 192L308.5 229.3L369 233.7Z" fill="#753a67" stroke="#adadad"></path><path d="M279.3 195.7L260 217.3L278.3 223.3Z" fill="#ec7556" stroke="#adadad"></path><path d="M118 639.3L155 609.7L106.3 571Z" fill="#52325d" stroke="#adadad"></path><path d="M60.8 627.7L118 639.3L106.3 571Z" fill="#ba4d69" stroke="#adadad"></path><path d="M413 776.3L393.8 747L387.8 750.7Z" fill="#31294d" stroke="#adadad"></path><path d="M533.8 751L564 714L521.8 710.3Z" fill="#31294d" stroke="#adadad"></path><path d="M293.8 786.3L295.5 735.3L269 739Z" fill="#f99048" stroke="#adadad"></path><path d="M293.8 786.3L313.5 737L295.5 735.3Z" fill="#d65e61" stroke="#adadad"></path><path d="M279.3 195.7L278.3 223.3L290.8 216.7Z" fill="#151e38" stroke="#adadad"></path><path d="M675.3 482.7L653.5 487L675 502.3Z" fill="#52325d" stroke="#adadad"></path><path d="M629.5 416L651.3 402L622.8 393Z" fill="#99426b" stroke="#adadad"></path><path d="M71.3 387.7L78.3 429.3L133.3 386Z" fill="#52325d" stroke="#adadad"></path><path d="M548.8 274.7L533.3 251L521.3 283.3Z" fill="#f99048" stroke="#adadad"></path><path d="M553 210L533.3 251L563.5 209Z" fill="#753a67" stroke="#adadad"></path><path d="M475.5 204L454.3 236.3L480.5 240.7Z" fill="#ba4d69" stroke="#adadad"></path><path d="M370.3 201.7L333.3 192L369 233.7Z" fill="#ba4d69" stroke="#adadad"></path><path d="M475.5 204L480.5 240.7L508.3 241.7Z" fill="#ec7556" stroke="#adadad"></path><path d="M375 798.7L387.8 750.7L360.3 773.3Z" fill="#52325d" stroke="#adadad"></path><path d="M375 798.7L413 776.3L387.8 750.7Z" fill="#151e38" stroke="#adadad"></path><path d="M444.5 789.3L476.3 759.3L431.5 734.7Z" fill="#ba4d69" stroke="#adadad"></path><path d="M149.3 676.7L153 695L200.8 680Z" fill="#fcaf3c" stroke="#adadad"></path><path d="M221.3 719.7L221.3 750.3L248.5 719.3Z" fill="#52325d" stroke="#adadad"></path><path d="M79.5 699.7L153 695L149.3 676.7Z" fill="#151e38" stroke="#adadad"></path><path d="M156.8 705.7L153 695L104.5 749.3Z" fill="#ba4d69" stroke="#adadad"></path><path d="M476.3 759.3L505.5 748L491.3 746.7Z" fill="#151e38" stroke="#adadad"></path><path d="M491.3 746.7L505.5 748L513.5 722.3Z" fill="#31294d" stroke="#adadad"></path><path d="M362.5 186.7L333.3 192L370.3 201.7Z" fill="#52325d" stroke="#adadad"></path><path d="M309.8 205L283 196L290.8 216.7Z" fill="#001122" stroke="#adadad"></path><path d="M564 714L519 691.3L521.8 710.3Z" fill="#001122" stroke="#adadad"></path><path d="M590.5 656.7L607.5 659.3L593.8 644.3Z" fill="#31294d" stroke="#adadad"></path><path d="M177.5 751L221.3 750.3L221.3 719.7Z" fill="#99426b" stroke="#adadad"></path><path d="M168.8 745.7L156.8 705.7L137.8 764Z" fill="#52325d" stroke="#adadad"></path><path d="M153 695L156.8 705.7L200.8 680Z" fill="#fcaf3c" stroke="#adadad"></path><path d="M675 450.3L651.3 402L629.5 416Z" fill="#31294d" stroke="#adadad"></path><path d="M622.8 393L640.5 362.7L596.3 360.3Z" fill="#99426b" stroke="#adadad"></path><path d="M391.8 197.3L362.5 186.7L370.3 201.7Z" fill="#99426b" stroke="#adadad"></path><path d="M533.8 751L521.8 710.3L513.5 722.3Z" fill="#99426b" stroke="#adadad"></path><path d="M319.5 150L283 196L309.8 205Z" fill="#ba4d69" stroke="#adadad"></path><path d="M260 217.3L216.8 201L253.5 266Z" fill="#151e38" stroke="#adadad"></path><path d="M279.3 195.7L258.3 156L244 174.7Z" fill="#31294d" stroke="#adadad"></path><path d="M651.3 402L640.5 362.7L622.8 393Z" fill="#31294d" stroke="#adadad"></path><path d="M565 288L598.3 276.3L548.8 274.7Z" fill="#ec7556" stroke="#adadad"></path><path d="M319.5 150L309.8 205L333.3 192Z" fill="#f99048" stroke="#adadad"></path><path d="M283 196L279.3 195.7L290.8 216.7Z" fill="#151e38" stroke="#adadad"></path><path d="M528 221.3L475.5 204L508.3 241.7Z" fill="#001122" stroke="#adadad"></path><path d="M380.3 168.3L356 170L362.5 186.7Z" fill="#ba4d69" stroke="#adadad"></path><path d="M290.5 788L293.8 786.3L269 739Z" fill="#ba4d69" stroke="#adadad"></path><path d="M341.5 776.7L375 798.7L360.3 773.3Z" fill="#d65e61" stroke="#adadad"></path><path d="M640.5 362.7L627.5 332.3L596.3 360.3Z" fill="#31294d" stroke="#adadad"></path><path d="M177.5 751L222.3 761L221.3 750.3Z" fill="#fcaf3c" stroke="#adadad"></path><path d="M221.3 750.3L222.3 761L269 739Z" fill="#ba4d69" stroke="#adadad"></path><path d="M621.8 307.3L599.8 291L583.5 350Z" fill="#151e38" stroke="#adadad"></path><path d="M533.3 251L528 221.3L508.3 241.7Z" fill="#ba4d69" stroke="#adadad"></path><path d="M233 775.7L290.5 788L269 739Z" fill="#ec7556" stroke="#adadad"></path><path d="M360.5 818.3L375 798.7L341.5 776.7Z" fill="#99426b" stroke="#adadad"></path><path d="M87.3 339L71.3 387.7L133.3 386Z" fill="#fcaf3c" stroke="#adadad"></path><path d="M41.5 453L39.8 484.3L80.5 483.7Z" fill="#fcaf3c" stroke="#adadad"></path><path d="M80.5 483.7L45.8 508.7L90.5 508.3Z" fill="#fcaf3c" stroke="#adadad"></path><path d="M87.3 339L133.3 386L137.8 327.3Z" fill="#151e38" stroke="#adadad"></path><path d="M279.3 195.7L243.5 202.3L260 217.3Z" fill="#52325d" stroke="#adadad"></path><path d="M192.3 264.7L150 258.7L190.8 280.3Z" fill="#fcaf3c" stroke="#adadad"></path><path d="M607.5 659.3L626.5 652L593.8 644.3Z" fill="#151e38" stroke="#adadad"></path><path d="M675 502.3L653.5 487L676.3 508Z" fill="#ba4d69" stroke="#adadad"></path><path d="M646.3 696.3L626.5 652L607.5 659.3Z" fill="#ec7556" stroke="#adadad"></path><path d="M329.3 803L341.5 776.7L293.8 786.3Z" fill="#d65e61" stroke="#adadad"></path><path d="M413 776.3L444.5 789.3L431.5 734.7Z" fill="#753a67" stroke="#adadad"></path><path d="M554 765L533.8 751L489 820.7Z" fill="#ba4d69" stroke="#adadad"></path><path d="M605.5 495.7L607.5 566.3L676.3 508Z" fill="#151e38" stroke="#adadad"></path><path d="M653.5 487L675 451L629.5 416Z" fill="#d65e61" stroke="#adadad"></path><path d="M651.3 402L675 376.7L640.5 362.7Z" fill="#001122" stroke="#adadad"></path><path d="M676.3 508L607.5 566.3L675 584.7Z" fill="#753a67" stroke="#adadad"></path><path d="M71.3 387.7L58.8 420.3L78.3 429.3Z" fill="#ba4d69" stroke="#adadad"></path><path d="M426 826L444.5 789.3L413 776.3Z" fill="#753a67" stroke="#adadad"></path><path d="M505.5 748L533.8 751L513.5 722.3Z" fill="#753a67" stroke="#adadad"></path><path d="M675.3 482.7L675 461.7L653.5 487Z" fill="#99426b" stroke="#adadad"></path><path d="M154 236.3L150 258.7L192.3 264.7Z" fill="#151e38" stroke="#adadad"></path><path d="M552 760.7L533.8 751L554 765Z" fill="#52325d" stroke="#adadad"></path><path d="M564 714L611.8 736L607.5 659.3Z" fill="#99426b" stroke="#adadad"></path><path d="M553 210L528 221.3L533.3 251Z" fill="#151e38" stroke="#adadad"></path><path d="M675 502.3L676.3 508L675.3 482.7Z" fill="#151e38" stroke="#adadad"></path><path d="M675.3 482.7L680.3 467.3L675 461.7Z" fill="#ba4d69" stroke="#adadad"></path><path d="M660.3 601.7L607.5 566.3L624.5 604Z" fill="#99426b" stroke="#adadad"></path><path d="M98.3 310.7L87.3 339L137.8 327.3Z" fill="#ec7556" stroke="#adadad"></path><path d="M71.3 387.7L49.5 417.7L58.8 420.3Z" fill="#52325d" stroke="#adadad"></path><path d="M680.3 467.3L675 451L675 461.7Z" fill="#fcaf3c" stroke="#adadad"></path><path d="M675 461.7L675 451L653.5 487Z" fill="#d65e61" stroke="#adadad"></path><path d="M680.3 467.3L675 450.3L675 451Z" fill="#99426b" stroke="#adadad"></path><path d="M675 451L675 450.3L629.5 416Z" fill="#f99048" stroke="#adadad"></path><path d="M627.5 332.3L621.8 307.3L583.5 350Z" fill="#31294d" stroke="#adadad"></path><path d="M599.8 291L598.3 276.3L565 288Z" fill="#99426b" stroke="#adadad"></path><path d="M661.3 291L621.8 307.3L627.5 332.3Z" fill="#99426b" stroke="#adadad"></path><path d="M675 325L627.5 332.3L640.5 362.7Z" fill="#d65e61" stroke="#adadad"></path><path d="M172 803.7L233 775.7L222.3 761Z" fill="#d65e61" stroke="#adadad"></path><path d="M222.3 761L233 775.7L269 739Z" fill="#52325d" stroke="#adadad"></path><path d="M615.8 265.3L598.3 276.3L599.8 291Z" fill="#99426b" stroke="#adadad"></path><path d="M284.8 799.7L293.8 786.3L290.5 788Z" fill="#001122" stroke="#adadad"></path><path d="M303 826.7L329.3 803L293.8 786.3Z" fill="#52325d" stroke="#adadad"></path><path d="M676.3 508L680.3 467.3L675.3 482.7Z" fill="#f99048" stroke="#adadad"></path><path d="M653.3 625L660.3 601.7L624.5 604Z" fill="#753a67" stroke="#adadad"></path><path d="M380.3 168.3L362.5 186.7L391.8 197.3Z" fill="#52325d" stroke="#adadad"></path><path d="M362.5 186.7L356 170L333.3 192Z" fill="#99426b" stroke="#adadad"></path><path d="M244 174.7L216.8 201L243.5 202.3Z" fill="#31294d" stroke="#adadad"></path><path d="M39.8 484.3L45.8 508.7L80.5 483.7Z" fill="#753a67" stroke="#adadad"></path><path d="M86.3 549L53.5 592L106.3 571Z" fill="#f99048" stroke="#adadad"></path><path d="M154 236.3L141.8 258.7L150 258.7Z" fill="#d65e61" stroke="#adadad"></path><path d="M150 258.7L141.8 258.7L176.5 309.7Z" fill="#52325d" stroke="#adadad"></path><path d="M97.5 297L98.3 310.7L137.8 327.3Z" fill="#99426b" stroke="#adadad"></path><path d="M456.8 176L436.5 177.3L475.5 204Z" fill="#52325d" stroke="#adadad"></path><path d="M475.5 204L436.5 177.3L454.3 236.3Z" fill="#31294d" stroke="#adadad"></path><path d="M360.5 818.3L379.3 807.7L375 798.7Z" fill="#f99048" stroke="#adadad"></path><path d="M375 798.7L379.3 807.7L413 776.3Z" fill="#151e38" stroke="#adadad"></path><path d="M436.5 177.3L380.3 168.3L391.8 197.3Z" fill="#753a67" stroke="#adadad"></path><path d="M675 609L653.3 625L671.3 635.7Z" fill="#f99048" stroke="#adadad"></path><path d="M626.5 652L653.3 625L624.5 604Z" fill="#99426b" stroke="#adadad"></path><path d="M680.3 467.3L675 410L675 450.3Z" fill="#f99048" stroke="#adadad"></path><path d="M675 450.3L675 410L651.3 402Z" fill="#52325d" stroke="#adadad"></path><path d="M233 775.7L284.8 799.7L290.5 788Z" fill="#52325d" stroke="#adadad"></path><path d="M329.3 803L360.5 818.3L341.5 776.7Z" fill="#ec7556" stroke="#adadad"></path><path d="M24.5 422.3L49.5 417.7L29.5 378.3Z" fill="#ba4d69" stroke="#adadad"></path><path d="M41.5 453L80.5 483.7L78.3 429.3Z" fill="#ec7556" stroke="#adadad"></path><path d="M60.3 332.3L71.3 387.7L87.3 339Z" fill="#31294d" stroke="#adadad"></path><path d="M45.8 508.7L45.5 537.7L90.5 508.3Z" fill="#753a67" stroke="#adadad"></path><path d="M168.8 745.7L221.3 719.7L156.8 705.7Z" fill="#151e38" stroke="#adadad"></path><path d="M149.3 676.7L127.3 653.3L79.5 699.7Z" fill="#fcaf3c" stroke="#adadad"></path><path d="M168.8 745.7L177.5 751L221.3 719.7Z" fill="#52325d" stroke="#adadad"></path><path d="M281.8 850L303 826.7L284.8 799.7Z" fill="#151e38" stroke="#adadad"></path><path d="M244 174.7L243.5 202.3L279.3 195.7Z" fill="#52325d" stroke="#adadad"></path><path d="M243.5 202.3L216.8 201L260 217.3Z" fill="#f99048" stroke="#adadad"></path><path d="M79.3 659L127.3 653.3L118 639.3Z" fill="#753a67" stroke="#adadad"></path><path d="M41.5 453L78.3 429.3L58.8 420.3Z" fill="#753a67" stroke="#adadad"></path><path d="M45.8 508.7L40.8 518L45.5 537.7Z" fill="#99426b" stroke="#adadad"></path><path d="M49.5 417.7L41.5 453L58.8 420.3Z" fill="#ba4d69" stroke="#adadad"></path><path d="M0 497.3L40.8 518L45.8 508.7Z" fill="#f99048" stroke="#adadad"></path><path d="M506.5 148L456.8 176L475.5 204Z" fill="#31294d" stroke="#adadad"></path><path d="M412.8 121.7L401.8 122.3L380.3 168.3Z" fill="#31294d" stroke="#adadad"></path><path d="M675 609L675 584.7L660.3 601.7Z" fill="#ba4d69" stroke="#adadad"></path><path d="M660.3 601.7L675 584.7L607.5 566.3Z" fill="#ec7556" stroke="#adadad"></path><path d="M676.3 508L675 584.7L680.3 467.3Z" fill="#ba4d69" stroke="#adadad"></path><path d="M7.8 564L53.5 592L45.5 537.7Z" fill="#99426b" stroke="#adadad"></path><path d="M45.5 537.7L53.5 592L86.3 549Z" fill="#ec7556" stroke="#adadad"></path><path d="M113.3 269.3L97.5 297L137.8 327.3Z" fill="#99426b" stroke="#adadad"></path><path d="M98.3 310.7L60.3 332.3L87.3 339Z" fill="#ec7556" stroke="#adadad"></path><path d="M165 215.7L154 236.3L192.3 264.7Z" fill="#31294d" stroke="#adadad"></path><path d="M141.8 258.7L113.3 269.3L137.8 327.3Z" fill="#ba4d69" stroke="#adadad"></path><path d="M303 826.7L360.5 818.3L329.3 803Z" fill="#99426b" stroke="#adadad"></path><path d="M379.3 807.7L394 826.3L413 776.3Z" fill="#fcaf3c" stroke="#adadad"></path><path d="M691.3 323.7L675 376.7L675 410Z" fill="#ec7556" stroke="#adadad"></path><path d="M675 410L675 376.7L651.3 402Z" fill="#ba4d69" stroke="#adadad"></path><path d="M621.8 307.3L615.8 265.3L599.8 291Z" fill="#ba4d69" stroke="#adadad"></path><path d="M533.8 751L505.5 748L489 820.7Z" fill="#ec7556" stroke="#adadad"></path><path d="M533.8 751L552 760.7L564 714Z" fill="#52325d" stroke="#adadad"></path><path d="M554 765L489 820.7L559.5 770Z" fill="#d65e61" stroke="#adadad"></path><path d="M60.8 627.7L79.3 659L118 639.3Z" fill="#753a67" stroke="#adadad"></path><path d="M92.3 227L113.3 269.3L141.8 258.7Z" fill="#ec7556" stroke="#adadad"></path><path d="M53.5 592L60.8 627.7L106.3 571Z" fill="#99426b" stroke="#adadad"></path><path d="M671.3 635.7L653.3 625L626.5 652Z" fill="#fcaf3c" stroke="#adadad"></path><path d="M653.3 625L675 609L660.3 601.7Z" fill="#31294d" stroke="#adadad"></path><path d="M675 584.7L675 609L680.3 467.3Z" fill="#52325d" stroke="#adadad"></path><path d="M279.8 156.3L279.3 195.7L283 196Z" fill="#151e38" stroke="#adadad"></path><path d="M216.8 201L165 215.7L192.3 264.7Z" fill="#ba4d69" stroke="#adadad"></path><path d="M319.5 150L333.3 192L356 170Z" fill="#753a67" stroke="#adadad"></path><path d="M505.5 748L476.3 759.3L489 820.7Z" fill="#f99048" stroke="#adadad"></path><path d="M552 760.7L611.8 736L564 714Z" fill="#753a67" stroke="#adadad"></path><path d="M691.3 323.7L675 361.3L675 376.7Z" fill="#f99048" stroke="#adadad"></path><path d="M675 376.7L675 361.3L640.5 362.7Z" fill="#ec7556" stroke="#adadad"></path><path d="M563.5 209L533.3 251L548.8 274.7Z" fill="#d65e61" stroke="#adadad"></path><path d="M528 221.3L506.5 148L475.5 204Z" fill="#f99048" stroke="#adadad"></path><path d="M563.5 209L548.8 274.7L598.3 276.3Z" fill="#753a67" stroke="#adadad"></path><path d="M648.5 263.7L615.8 265.3L621.8 307.3Z" fill="#d65e61" stroke="#adadad"></path><path d="M202.5 190L165 215.7L216.8 201Z" fill="#151e38" stroke="#adadad"></path><path d="M154 236.3L92.3 227L141.8 258.7Z" fill="#753a67" stroke="#adadad"></path><path d="M201.5 176.3L202.5 190L216.8 201Z" fill="#31294d" stroke="#adadad"></path><path d="M381.3 849.7L387.8 826.7L360.5 818.3Z" fill="#99426b" stroke="#adadad"></path><path d="M360.5 818.3L387.8 826.7L379.3 807.7Z" fill="#d65e61" stroke="#adadad"></path><path d="M387.8 826.7L394 826.3L379.3 807.7Z" fill="#ba4d69" stroke="#adadad"></path><path d="M60.3 332.3L98.3 310.7L70.8 294.7Z" fill="#31294d" stroke="#adadad"></path><path d="M57.8 329.3L60.3 332.3L70.8 294.7Z" fill="#753a67" stroke="#adadad"></path><path d="M49.5 417.7L24.5 422.3L41.5 453Z" fill="#f99048" stroke="#adadad"></path><path d="M379.3 119L356 170L380.3 168.3Z" fill="#753a67" stroke="#adadad"></path><path d="M379.3 119L319.5 150L356 170Z" fill="#151e38" stroke="#adadad"></path><path d="M675 637.7L671.3 635.7L675 674.3Z" fill="#52325d" stroke="#adadad"></path><path d="M60.8 627.7L63.5 652L79.3 659Z" fill="#ec7556" stroke="#adadad"></path><path d="M79.3 659L79.5 699.7L127.3 653.3Z" fill="#ba4d69" stroke="#adadad"></path><path d="M33.5 676.3L63.5 652L60.8 627.7Z" fill="#52325d" stroke="#adadad"></path><path d="M0 631.7L60.8 627.7L53.5 592Z" fill="#f99048" stroke="#adadad"></path><path d="M319.5 150L279.8 156.3L283 196Z" fill="#52325d" stroke="#adadad"></path><path d="M244 174.7L201.5 176.3L216.8 201Z" fill="#fcaf3c" stroke="#adadad"></path><path d="M593.3 207.7L563.5 209L598.3 276.3Z" fill="#99426b" stroke="#adadad"></path><path d="M506.5 148L449 140.7L456.8 176Z" fill="#52325d" stroke="#adadad"></path><path d="M489 820.7L476.3 759.3L444.5 789.3Z" fill="#753a67" stroke="#adadad"></path><path d="M554 765L559.5 770L552 760.7Z" fill="#f99048" stroke="#adadad"></path><path d="M439.5 842L426 826L384.5 863.7Z" fill="#f99048" stroke="#adadad"></path><path d="M394 826.3L426 826L413 776.3Z" fill="#ec7556" stroke="#adadad"></path><path d="M250 839L284.8 799.7L233 775.7Z" fill="#001122" stroke="#adadad"></path><path d="M284.8 799.7L303 826.7L293.8 786.3Z" fill="#001122" stroke="#adadad"></path><path d="M70.8 294.7L98.3 310.7L97.5 297Z" fill="#001122" stroke="#adadad"></path><path d="M29.5 378.3L49.5 417.7L71.3 387.7Z" fill="#ba4d69" stroke="#adadad"></path><path d="M38.5 360L71.3 387.7L38.8 356.7Z" fill="#ec7556" stroke="#adadad"></path><path d="M41.5 453L0 497.3L39.8 484.3Z" fill="#753a67" stroke="#adadad"></path><path d="M39.8 484.3L0 497.3L45.8 508.7Z" fill="#f99048" stroke="#adadad"></path><path d="M0 547L7.8 564L45.5 537.7Z" fill="#99426b" stroke="#adadad"></path><path d="M675 674.3L671.3 635.7L626.5 652Z" fill="#52325d" stroke="#adadad"></path><path d="M671.3 635.7L675 637.7L675 609Z" fill="#001122" stroke="#adadad"></path><path d="M675 609L675 637.7L680.3 467.3Z" fill="#001122" stroke="#adadad"></path><path d="M264 149L258.3 156L279.8 156.3Z" fill="#31294d" stroke="#adadad"></path><path d="M279.8 156.3L258.3 156L279.3 195.7Z" fill="#ec7556" stroke="#adadad"></path><path d="M38.8 356.7L71.3 387.7L60.3 332.3Z" fill="#99426b" stroke="#adadad"></path><path d="M57.8 329.3L38.8 356.7L60.3 332.3Z" fill="#ec7556" stroke="#adadad"></path><path d="M38.5 360L29.5 378.3L71.3 387.7Z" fill="#f99048" stroke="#adadad"></path><path d="M113.3 269.3L70.8 294.7L97.5 297Z" fill="#ba4d69" stroke="#adadad"></path><path d="M-1.2 358L38.5 360L38.8 356.7Z" fill="#99426b" stroke="#adadad"></path><path d="M77.5 231.7L70.8 294.7L113.3 269.3Z" fill="#31294d" stroke="#adadad"></path><path d="M603.5 766.3L611.8 736L552 760.7Z" fill="#ba4d69" stroke="#adadad"></path><path d="M258.3 156L244.5 157.7L244 174.7Z" fill="#99426b" stroke="#adadad"></path><path d="M202.5 190L165.8 163.7L165 215.7Z" fill="#753a67" stroke="#adadad"></path><path d="M244.5 157.7L201.5 176.3L244 174.7Z" fill="#fcaf3c" stroke="#adadad"></path><path d="M103.5 188.7L92.3 227L154 236.3Z" fill="#99426b" stroke="#adadad"></path><path d="M611.8 736L646.3 696.3L607.5 659.3Z" fill="#001122" stroke="#adadad"></path><path d="M0 368.7L29.5 378.3L38.5 360Z" fill="#151e38" stroke="#adadad"></path><path d="M691.3 323.7L675 325L675 361.3Z" fill="#52325d" stroke="#adadad"></path><path d="M675 361.3L675 325L640.5 362.7Z" fill="#31294d" stroke="#adadad"></path><path d="M607.8 217L593.3 207.7L598.3 276.3Z" fill="#99426b" stroke="#adadad"></path><path d="M258.3 156L264 149L244.5 157.7Z" fill="#753a67" stroke="#adadad"></path><path d="M186.8 120L165.8 163.7L201.5 176.3Z" fill="#31294d" stroke="#adadad"></path><path d="M287 127.3L264 149L279.8 156.3Z" fill="#753a67" stroke="#adadad"></path><path d="M33.5 676.3L79.5 699.7L79.3 659Z" fill="#001122" stroke="#adadad"></path><path d="M168.8 745.7L160.5 780.7L177.5 751Z" fill="#f99048" stroke="#adadad"></path><path d="M177.5 751L172 803.7L222.3 761Z" fill="#ba4d69" stroke="#adadad"></path><path d="M426 826L472.8 825L444.5 789.3Z" fill="#99426b" stroke="#adadad"></path><path d="M472.8 825L489 820.7L444.5 789.3Z" fill="#f99048" stroke="#adadad"></path><path d="M559.5 770L603.5 766.3L552 760.7Z" fill="#001122" stroke="#adadad"></path><path d="M137.8 764L160.5 780.7L168.8 745.7Z" fill="#151e38" stroke="#adadad"></path><path d="M104.5 749.3L137.8 764L156.8 705.7Z" fill="#151e38" stroke="#adadad"></path><path d="M675 325L661.3 291L627.5 332.3Z" fill="#ba4d69" stroke="#adadad"></path><path d="M506.5 148L528 221.3L553 210Z" fill="#52325d" stroke="#adadad"></path><path d="M456.8 176L449 140.7L436.5 177.3Z" fill="#52325d" stroke="#adadad"></path><path d="M319.5 150L287 127.3L279.8 156.3Z" fill="#d65e61" stroke="#adadad"></path><path d="M149 783.3L158.8 782.3L160.5 780.7Z" fill="#52325d" stroke="#adadad"></path><path d="M173.5 816.3L250 839L233 775.7Z" fill="#fcaf3c" stroke="#adadad"></path><path d="M426 826L439.5 842L472.8 825Z" fill="#001122" stroke="#adadad"></path><path d="M472.8 825L470.3 848.3L489 820.7Z" fill="#ba4d69" stroke="#adadad"></path><path d="M384.5 863.7L426 826L394 826.3Z" fill="#753a67" stroke="#adadad"></path><path d="M381.3 849.7L394 826.3L387.8 826.7Z" fill="#ec7556" stroke="#adadad"></path><path d="M335.3 866.3L381.3 849.7L360.5 818.3Z" fill="#ec7556" stroke="#adadad"></path><path d="M607.8 217L598.3 276.3L615.8 265.3Z" fill="#fcaf3c" stroke="#adadad"></path><path d="M508 147L506.5 148L553 210Z" fill="#ec7556" stroke="#adadad"></path><path d="M661.3 291L648.5 263.7L621.8 307.3Z" fill="#d65e61" stroke="#adadad"></path><path d="M630.3 241.7L629.5 241.3L615.8 265.3Z" fill="#f99048" stroke="#adadad"></path><path d="M646.3 696.3L675 674.3L626.5 652Z" fill="#31294d" stroke="#adadad"></path><path d="M675 637.7L675 674.3L680.3 467.3Z" fill="#ba4d69" stroke="#adadad"></path><path d="M675 690.3L675 674.3L646.3 696.3Z" fill="#d65e61" stroke="#adadad"></path><path d="M648.5 263.7L630.3 241.7L615.8 265.3Z" fill="#f99048" stroke="#adadad"></path><path d="M629.5 241.3L607.8 217L615.8 265.3Z" fill="#f99048" stroke="#adadad"></path><path d="M0 428.7L41.5 453L24.5 422.3Z" fill="#31294d" stroke="#adadad"></path><path d="M0 428.7L0 497.3L41.5 453Z" fill="#f99048" stroke="#adadad"></path><path d="M63.5 652L33.5 676.3L79.3 659Z" fill="#ba4d69" stroke="#adadad"></path><path d="M0 547L45.5 537.7L40.8 518Z" fill="#99426b" stroke="#adadad"></path><path d="M142 780L149 783.3L137.8 764Z" fill="#ec7556" stroke="#adadad"></path><path d="M137.8 764L149 783.3L160.5 780.7Z" fill="#ec7556" stroke="#adadad"></path><path d="M172 803.7L177.5 751L160.5 780.7Z" fill="#001122" stroke="#adadad"></path><path d="M335.3 866.3L384.5 863.7L381.3 849.7Z" fill="#ba4d69" stroke="#adadad"></path><path d="M649.3 179.3L607.8 217L667.3 196Z" fill="#52325d" stroke="#adadad"></path><path d="M87 771.3L142 780L137.8 764Z" fill="#fcaf3c" stroke="#adadad"></path><path d="M675 325L675 294.7L661.3 291Z" fill="#fcaf3c" stroke="#adadad"></path><path d="M661.3 291L675 294.7L648.5 263.7Z" fill="#ec7556" stroke="#adadad"></path><path d="M607.8 217L629.5 241.3L667.3 196Z" fill="#99426b" stroke="#adadad"></path><path d="M691.3 323.7L675 294.7L675 325Z" fill="#99426b" stroke="#adadad"></path><path d="M680.3 467.3L691.3 323.7L675 410Z" fill="#151e38" stroke="#adadad"></path><path d="M675 674.3L691.3 323.7L680.3 467.3Z" fill="#fcaf3c" stroke="#adadad"></path><path d="M604.3 790L603.5 766.3L559.5 770Z" fill="#ba4d69" stroke="#adadad"></path><path d="M675 691L675 690.3L646.3 696.3Z" fill="#fcaf3c" stroke="#adadad"></path><path d="M412.8 121.7L380.3 168.3L436.5 177.3Z" fill="#ec7556" stroke="#adadad"></path><path d="M79.5 699.7L104.5 749.3L153 695Z" fill="#151e38" stroke="#adadad"></path><path d="M93.5 747.7L104.5 749.3L79.5 699.7Z" fill="#753a67" stroke="#adadad"></path><path d="M0 497.3L0 547L40.8 518Z" fill="#ba4d69" stroke="#adadad"></path><path d="M0 412.3L24.5 422.3L0 401Z" fill="#151e38" stroke="#adadad"></path><path d="M0 412.3L0 428.7L24.5 422.3Z" fill="#fcaf3c" stroke="#adadad"></path><path d="M24.5 422.3L29.5 378.3L0 401Z" fill="#ec7556" stroke="#adadad"></path><path d="M302.8 103L287 127.3L319.5 150Z" fill="#fcaf3c" stroke="#adadad"></path><path d="M264 149L226.3 113.3L244.5 157.7Z" fill="#001122" stroke="#adadad"></path><path d="M172 803.7L158.8 782.3L149 783.3Z" fill="#fcaf3c" stroke="#adadad"></path><path d="M172 803.7L160.5 780.7L158.8 782.3Z" fill="#151e38" stroke="#adadad"></path><path d="M553 210L563.5 209L554.3 142.7Z" fill="#f99048" stroke="#adadad"></path><path d="M508 147L553 210L554.3 142.7Z" fill="#ec7556" stroke="#adadad"></path><path d="M449 140.7L412.8 121.7L436.5 177.3Z" fill="#ba4d69" stroke="#adadad"></path><path d="M0 547L0 553L7.8 564Z" fill="#753a67" stroke="#adadad"></path><path d="M7.8 564L5.8 580.7L53.5 592Z" fill="#31294d" stroke="#adadad"></path><path d="M162.8 823.3L172 803.7L149 783.3Z" fill="#151e38" stroke="#adadad"></path><path d="M401.8 122.3L379.3 119L380.3 168.3Z" fill="#f99048" stroke="#adadad"></path><path d="M0 586.7L5.8 580.7L7.8 564Z" fill="#ec7556" stroke="#adadad"></path><path d="M444.5 122.7L412.8 121.7L449 140.7Z" fill="#31294d" stroke="#adadad"></path><path d="M401.8 122.3L386.5 100.3L379.3 119Z" fill="#f99048" stroke="#adadad"></path><path d="M87 771.3L142.3 784.3L142 780Z" fill="#ec7556" stroke="#adadad"></path><path d="M142 780L142.3 784.3L149 783.3Z" fill="#151e38" stroke="#adadad"></path><path d="M498 129.7L508 147L521 121.3Z" fill="#ec7556" stroke="#adadad"></path><path d="M498 129.7L452 126L449 140.7Z" fill="#001122" stroke="#adadad"></path><path d="M250 839L281.8 850L284.8 799.7Z" fill="#31294d" stroke="#adadad"></path><path d="M0 401L29.5 378.3L0 368.7Z" fill="#f99048" stroke="#adadad"></path><path d="M675 691L646.3 696.3L661.3 744Z" fill="#99426b" stroke="#adadad"></path><path d="M675 674.3L675 690.3L691.3 323.7Z" fill="#99426b" stroke="#adadad"></path><path d="M661.3 744L646.3 696.3L611.8 736Z" fill="#99426b" stroke="#adadad"></path><path d="M675 690.3L675 691L691.3 323.7Z" fill="#31294d" stroke="#adadad"></path><path d="M439.5 842L458.3 848L472.8 825Z" fill="#ba4d69" stroke="#adadad"></path><path d="M604.3 790L613.5 766.7L603.5 766.3Z" fill="#31294d" stroke="#adadad"></path><path d="M434.8 900L458.3 848L439.5 842Z" fill="#753a67" stroke="#adadad"></path><path d="M498 129.7L449 140.7L506.5 148Z" fill="#99426b" stroke="#adadad"></path><path d="M0 368.7L38.5 360L-1.2 358Z" fill="#31294d" stroke="#adadad"></path><path d="M436.5 89.7L444.5 122.7L469.3 87.3Z" fill="#fcaf3c" stroke="#adadad"></path><path d="M452 126L444.5 122.7L449 140.7Z" fill="#ba4d69" stroke="#adadad"></path><path d="M412.8 121.7L386.5 100.3L401.8 122.3Z" fill="#f99048" stroke="#adadad"></path><path d="M604.3 790L559.5 770L587.5 829.7Z" fill="#d65e61" stroke="#adadad"></path><path d="M603.5 766.3L613.5 766.7L611.8 736Z" fill="#d65e61" stroke="#adadad"></path><path d="M28.8 739L93.5 747.7L79.5 699.7Z" fill="#001122" stroke="#adadad"></path><path d="M104.5 749.3L92.3 759.7L137.8 764Z" fill="#99426b" stroke="#adadad"></path><path d="M485.8 872.3L470.3 848.3L458.3 848Z" fill="#f99048" stroke="#adadad"></path><path d="M458.3 848L470.3 848.3L472.8 825Z" fill="#d65e61" stroke="#adadad"></path><path d="M335.3 866.3L360.5 818.3L303 826.7Z" fill="#f99048" stroke="#adadad"></path><path d="M381.3 849.7L384.5 863.7L394 826.3Z" fill="#ec7556" stroke="#adadad"></path><path d="M165.8 163.7L202.5 190L201.5 176.3Z" fill="#52325d" stroke="#adadad"></path><path d="M103.5 188.7L154 236.3L165 215.7Z" fill="#ba4d69" stroke="#adadad"></path><path d="M-1.2 358L38.8 356.7L0 345Z" fill="#151e38" stroke="#adadad"></path><path d="M0 553L0 586.7L7.8 564Z" fill="#99426b" stroke="#adadad"></path><path d="M5.8 580.7L0 588.3L53.5 592Z" fill="#001122" stroke="#adadad"></path><path d="M0 586.7L0 588.3L5.8 580.7Z" fill="#753a67" stroke="#adadad"></path><path d="M436.5 89.7L423 114.3L444.5 122.7Z" fill="#ec7556" stroke="#adadad"></path><path d="M444.5 122.7L423 114.3L412.8 121.7Z" fill="#ba4d69" stroke="#adadad"></path><path d="M379.3 119L302.8 103L319.5 150Z" fill="#31294d" stroke="#adadad"></path><path d="M162.8 823.3L149 783.3L142.3 784.3Z" fill="#151e38" stroke="#adadad"></path><path d="M162.8 823.3L173.5 816.3L172 803.7Z" fill="#d65e61" stroke="#adadad"></path><path d="M172 803.7L173.5 816.3L233 775.7Z" fill="#f99048" stroke="#adadad"></path><path d="M256.3 881.3L300.8 869.7L281.8 850Z" fill="#f99048" stroke="#adadad"></path><path d="M300.8 869.7L335.3 866.3L303 826.7Z" fill="#753a67" stroke="#adadad"></path><path d="M212.5 111L201.5 176.3L244.5 157.7Z" fill="#ba4d69" stroke="#adadad"></path><path d="M0 631.7L33.5 676.3L60.8 627.7Z" fill="#001122" stroke="#adadad"></path><path d="M38.8 356.7L0 327.3L0 345Z" fill="#fcaf3c" stroke="#adadad"></path><path d="M508 147L498 129.7L506.5 148Z" fill="#001122" stroke="#adadad"></path><path d="M554.3 142.7L563.5 209L591.8 150Z" fill="#31294d" stroke="#adadad"></path><path d="M87 771.3L92.3 759.7L54.3 772.3Z" fill="#31294d" stroke="#adadad"></path><path d="M93.5 747.7L92.3 759.7L104.5 749.3Z" fill="#52325d" stroke="#adadad"></path><path d="M83.5 221L77.5 231.7L92.3 227Z" fill="#52325d" stroke="#adadad"></path><path d="M92.3 227L77.5 231.7L113.3 269.3Z" fill="#151e38" stroke="#adadad"></path><path d="M165.8 163.7L140 174L165 215.7Z" fill="#753a67" stroke="#adadad"></path><path d="M587.5 829.7L559.5 770L489 820.7Z" fill="#31294d" stroke="#adadad"></path><path d="M613.5 766.7L661.3 744L611.8 736Z" fill="#f99048" stroke="#adadad"></path><path d="M252 863.3L281.8 850L250 839Z" fill="#001122" stroke="#adadad"></path><path d="M281.8 850L300.8 869.7L303 826.7Z" fill="#31294d" stroke="#adadad"></path><path d="M335.3 866.3L382 880.7L384.5 863.7Z" fill="#ba4d69" stroke="#adadad"></path><path d="M103.5 188.7L83.5 221L92.3 227Z" fill="#99426b" stroke="#adadad"></path><path d="M38.8 356.7L57.8 329.3L0 327.3Z" fill="#99426b" stroke="#adadad"></path><path d="M57.8 329.3L6.8 307L0 327.3Z" fill="#ba4d69" stroke="#adadad"></path><path d="M0 368.7L-1.2 358L0 401Z" fill="#ba4d69" stroke="#adadad"></path><path d="M0 401L-1.2 358L0 412.3Z" fill="#31294d" stroke="#adadad"></path><path d="M0 412.3L-1.2 358L0 428.7Z" fill="#99426b" stroke="#adadad"></path><path d="M0 428.7L-1.2 358L0 497.3Z" fill="#ec7556" stroke="#adadad"></path><path d="M0 497.3L-14.2 900L0 547Z" fill="#753a67" stroke="#adadad"></path><path d="M0 547L-14.2 900L0 553Z" fill="#31294d" stroke="#adadad"></path><path d="M0 553L-14.2 900L0 586.7Z" fill="#f99048" stroke="#adadad"></path><path d="M0 586.7L-14.2 900L0 588.3Z" fill="#31294d" stroke="#adadad"></path><path d="M421.8 81L386.5 100.3L423 114.3Z" fill="#52325d" stroke="#adadad"></path><path d="M423 114.3L386.5 100.3L412.8 121.7Z" fill="#151e38" stroke="#adadad"></path><path d="M386.5 100.3L302.8 103L379.3 119Z" fill="#d65e61" stroke="#adadad"></path><path d="M287 127.3L226.3 113.3L264 149Z" fill="#001122" stroke="#adadad"></path><path d="M165.8 163.7L128 134L140 174Z" fill="#ec7556" stroke="#adadad"></path><path d="M57.8 329.3L70.8 294.7L6.8 307Z" fill="#52325d" stroke="#adadad"></path><path d="M-14.2 900L0 631.7L0 588.3Z" fill="#52325d" stroke="#adadad"></path><path d="M0 588.3L0 631.7L53.5 592Z" fill="#f99048" stroke="#adadad"></path><path d="M33.5 676.3L28.8 739L79.5 699.7Z" fill="#001122" stroke="#adadad"></path><path d="M136.8 859.7L162.8 823.3L121.3 851.7Z" fill="#31294d" stroke="#adadad"></path><path d="M214.5 887.7L252 863.3L250 839Z" fill="#ba4d69" stroke="#adadad"></path><path d="M214.5 887.7L250 839L173.5 816.3Z" fill="#753a67" stroke="#adadad"></path><path d="M647.3 795.7L661.3 744L613.5 766.7Z" fill="#99426b" stroke="#adadad"></path><path d="M380 900L382 880.7L335.3 866.3Z" fill="#fcaf3c" stroke="#adadad"></path><path d="M384.5 863.7L434.8 900L439.5 842Z" fill="#f99048" stroke="#adadad"></path><path d="M380 900L335.3 866.3L327.5 900Z" fill="#31294d" stroke="#adadad"></path><path d="M563.5 209L593.3 207.7L591.8 150Z" fill="#001122" stroke="#adadad"></path><path d="M556.5 131.3L554.3 142.7L591.8 150Z" fill="#001122" stroke="#adadad"></path><path d="M469.3 87.3L444.5 122.7L452 126Z" fill="#d65e61" stroke="#adadad"></path><path d="M675 230L630.3 241.7L648.5 263.7Z" fill="#f99048" stroke="#adadad"></path><path d="M0 631.7L18.8 682.3L33.5 676.3Z" fill="#f99048" stroke="#adadad"></path><path d="M92.3 759.7L87 771.3L137.8 764Z" fill="#99426b" stroke="#adadad"></path><path d="M54.3 772.3L92.3 759.7L93.5 747.7Z" fill="#001122" stroke="#adadad"></path><path d="M140 174L103.5 188.7L165 215.7Z" fill="#d65e61" stroke="#adadad"></path><path d="M6.8 307L70.8 294.7L18.8 240.3Z" fill="#99426b" stroke="#adadad"></path><path d="M77.5 174.3L103.5 188.7L90.5 150Z" fill="#151e38" stroke="#adadad"></path><path d="M0 345L0 327.3L-1.2 358Z" fill="#001122" stroke="#adadad"></path><path d="M70.8 294.7L77.5 231.7L18.8 240.3Z" fill="#31294d" stroke="#adadad"></path><path d="M587.5 829.7L618.8 793.7L604.3 790Z" fill="#d65e61" stroke="#adadad"></path><path d="M604.3 790L618.8 793.7L613.5 766.7Z" fill="#ec7556" stroke="#adadad"></path><path d="M223.5 105.7L226.3 113.3L287 127.3Z" fill="#f99048" stroke="#adadad"></path><path d="M554.3 142.7L521 121.3L508 147Z" fill="#753a67" stroke="#adadad"></path><path d="M43.5 209.3L77.5 231.7L83.5 221Z" fill="#d65e61" stroke="#adadad"></path><path d="M434.8 900L485.8 872.3L458.3 848Z" fill="#001122" stroke="#adadad"></path><path d="M470.3 848.3L485.8 872.3L489 820.7Z" fill="#99426b" stroke="#adadad"></path><path d="M691.3 323.7L675 230L675 294.7Z" fill="#ba4d69" stroke="#adadad"></path><path d="M675 294.7L675 230L648.5 263.7Z" fill="#99426b" stroke="#adadad"></path><path d="M469.3 87.3L452 126L498 129.7Z" fill="#fcaf3c" stroke="#adadad"></path><path d="M386.5 100.3L310.5 68L302.8 103Z" fill="#31294d" stroke="#adadad"></path><path d="M554.3 142.7L556.5 131.3L521 121.3Z" fill="#99426b" stroke="#adadad"></path><path d="M456.3 58.3L421.8 81L436.5 89.7Z" fill="#99426b" stroke="#adadad"></path><path d="M591.8 150L593.3 207.7L649.3 179.3Z" fill="#d65e61" stroke="#adadad"></path><path d="M223.5 105.7L212.5 111L226.3 113.3Z" fill="#52325d" stroke="#adadad"></path><path d="M226.3 113.3L212.5 111L244.5 157.7Z" fill="#99426b" stroke="#adadad"></path><path d="M223.5 105.7L287 127.3L302.8 103Z" fill="#ec7556" stroke="#adadad"></path><path d="M292 57.3L223.5 105.7L302.8 103Z" fill="#fcaf3c" stroke="#adadad"></path><path d="M214.5 887.7L256.3 881.3L252 863.3Z" fill="#753a67" stroke="#adadad"></path><path d="M252 863.3L256.3 881.3L281.8 850Z" fill="#fcaf3c" stroke="#adadad"></path><path d="M649.3 179.3L593.3 207.7L607.8 217Z" fill="#ec7556" stroke="#adadad"></path><path d="M202.3 91L186.8 120L212.5 111Z" fill="#31294d" stroke="#adadad"></path><path d="M212.5 111L186.8 120L201.5 176.3Z" fill="#99426b" stroke="#adadad"></path><path d="M556 867.3L587.5 829.7L489 820.7Z" fill="#d65e61" stroke="#adadad"></path><path d="M691.3 323.7L675 220.3L675 230Z" fill="#001122" stroke="#adadad"></path><path d="M675 230L675 220.3L630.3 241.7Z" fill="#753a67" stroke="#adadad"></path><path d="M469.3 87.3L498 129.7L498.3 92.7Z" fill="#001122" stroke="#adadad"></path><path d="M436.5 89.7L421.8 81L423 114.3Z" fill="#ec7556" stroke="#adadad"></path><path d="M327.5 900L335.3 866.3L300.8 869.7Z" fill="#151e38" stroke="#adadad"></path><path d="M382 880.7L397.3 900L384.5 863.7Z" fill="#151e38" stroke="#adadad"></path><path d="M380 900L397.3 900L382 880.7Z" fill="#f99048" stroke="#adadad"></path><path d="M278 900L327.5 900L300.8 869.7Z" fill="#31294d" stroke="#adadad"></path><path d="M498.3 92.7L498 129.7L521 121.3Z" fill="#99426b" stroke="#adadad"></path><path d="M434.8 900L490.3 884.7L485.8 872.3Z" fill="#753a67" stroke="#adadad"></path><path d="M485.8 872.3L556 867.3L489 820.7Z" fill="#ec7556" stroke="#adadad"></path><path d="M87 771.3L77.5 791.3L142.3 784.3Z" fill="#001122" stroke="#adadad"></path><path d="M277.8 900L278 900L256.3 881.3Z" fill="#31294d" stroke="#adadad"></path><path d="M54.3 772.3L77.5 791.3L87 771.3Z" fill="#001122" stroke="#adadad"></path><path d="M545.3 73L498.3 92.7L521 121.3Z" fill="#f99048" stroke="#adadad"></path><path d="M552.8 82.3L521 121.3L556.5 131.3Z" fill="#fcaf3c" stroke="#adadad"></path><path d="M397.3 900L434.8 900L384.5 863.7Z" fill="#31294d" stroke="#adadad"></path><path d="M0 728.3L28.8 739L18.8 682.3Z" fill="#d65e61" stroke="#adadad"></path><path d="M18.8 682.3L28.8 739L33.5 676.3Z" fill="#151e38" stroke="#adadad"></path><path d="M657.3 824.3L647.3 795.7L642.3 837.7Z" fill="#fcaf3c" stroke="#adadad"></path><path d="M618.8 793.7L647.3 795.7L613.5 766.7Z" fill="#ba4d69" stroke="#adadad"></path><path d="M28.8 739L54.3 772.3L93.5 747.7Z" fill="#001122" stroke="#adadad"></path><path d="M667.3 196L629.5 241.3L630.3 241.7Z" fill="#001122" stroke="#adadad"></path><path d="M591.8 150L586.8 122.7L556.5 131.3Z" fill="#ec7556" stroke="#adadad"></path><path d="M256.3 881.3L278 900L300.8 869.7Z" fill="#fcaf3c" stroke="#adadad"></path><path d="M277.8 900L256.3 881.3L207.3 895.7Z" fill="#ec7556" stroke="#adadad"></path><path d="M214.5 887.7L173.5 816.3L162.8 823.3Z" fill="#151e38" stroke="#adadad"></path><path d="M675 220.3L667.3 196L630.3 241.7Z" fill="#ec7556" stroke="#adadad"></path><path d="M54.3 772.3L73.3 795L77.5 791.3Z" fill="#31294d" stroke="#adadad"></path><path d="M121.3 851.7L162.8 823.3L142.3 784.3Z" fill="#99426b" stroke="#adadad"></path><path d="M77.5 174.3L60.8 193L103.5 188.7Z" fill="#753a67" stroke="#adadad"></path><path d="M103.5 188.7L60.8 193L83.5 221Z" fill="#151e38" stroke="#adadad"></path><path d="M384.3 57.3L310.5 68L386.5 100.3Z" fill="#151e38" stroke="#adadad"></path><path d="M136.8 117.3L165.8 163.7L186.8 120Z" fill="#753a67" stroke="#adadad"></path><path d="M60.8 193L43.5 209.3L83.5 221Z" fill="#52325d" stroke="#adadad"></path><path d="M43.5 209.3L18.8 240.3L77.5 231.7Z" fill="#001122" stroke="#adadad"></path><path d="M6.8 307L0 252.3L0 327.3Z" fill="#ba4d69" stroke="#adadad"></path><path d="M90.5 150L103.5 188.7L140 174Z" fill="#fcaf3c" stroke="#adadad"></path><path d="M0 180L0 195.7L43.5 209.3Z" fill="#99426b" stroke="#adadad"></path><path d="M136.8 117.3L128 134L165.8 163.7Z" fill="#f99048" stroke="#adadad"></path><path d="M202.3 91L212.5 111L223.5 105.7Z" fill="#fcaf3c" stroke="#adadad"></path><path d="M523 900L556 867.3L485.8 872.3Z" fill="#f99048" stroke="#adadad"></path><path d="M657.3 824.3L656.5 799.3L647.3 795.7Z" fill="#fcaf3c" stroke="#adadad"></path><path d="M523 900L485.8 872.3L490.3 884.7Z" fill="#f99048" stroke="#adadad"></path><path d="M620.5 139L591.8 150L649.3 179.3Z" fill="#ba4d69" stroke="#adadad"></path><path d="M620.5 139L607.8 139.3L591.8 150Z" fill="#001122" stroke="#adadad"></path><path d="M186.3 900L214.5 887.7L162.8 823.3Z" fill="#753a67" stroke="#adadad"></path><path d="M675 220.3L675 195.7L667.3 196Z" fill="#ba4d69" stroke="#adadad"></path><path d="M667.3 196L675 165.3L649.3 179.3Z" fill="#001122" stroke="#adadad"></path><path d="M691.3 323.7L675 195.7L675 220.3Z" fill="#ba4d69" stroke="#adadad"></path><path d="M612.8 840.3L618.8 793.7L587.5 829.7Z" fill="#f99048" stroke="#adadad"></path><path d="M647.3 795.7L656.5 799.3L661.3 744Z" fill="#ba4d69" stroke="#adadad"></path><path d="M661.3 744L675 803.7L675 691Z" fill="#ec7556" stroke="#adadad"></path><path d="M607.8 139.3L586.8 122.7L591.8 150Z" fill="#001122" stroke="#adadad"></path><path d="M245 47.7L202.3 91L223.5 105.7Z" fill="#d65e61" stroke="#adadad"></path><path d="M90.5 150L66.3 177.3L77.5 174.3Z" fill="#151e38" stroke="#adadad"></path><path d="M77.5 174.3L66.3 177.3L60.8 193Z" fill="#f99048" stroke="#adadad"></path><path d="M0 228.7L0 252.3L18.8 240.3Z" fill="#001122" stroke="#adadad"></path><path d="M434.8 33.7L386 57.7L421.8 81Z" fill="#f99048" stroke="#adadad"></path><path d="M421.8 81L386 57.7L386.5 100.3Z" fill="#fcaf3c" stroke="#adadad"></path><path d="M456.3 58.3L436.5 89.7L469.3 87.3Z" fill="#ba4d69" stroke="#adadad"></path><path d="M386 57.7L384.3 57.3L386.5 100.3Z" fill="#31294d" stroke="#adadad"></path><path d="M556 867.3L612.8 840.3L587.5 829.7Z" fill="#001122" stroke="#adadad"></path><path d="M0 228.7L18.8 240.3L43.5 209.3Z" fill="#f99048" stroke="#adadad"></path><path d="M18.8 240.3L0 252.3L6.8 307Z" fill="#ba4d69" stroke="#adadad"></path><path d="M0 327.3L0 252.3L-1.2 358Z" fill="#001122" stroke="#adadad"></path><path d="M650.5 123.7L620.5 139L649.3 179.3Z" fill="#fcaf3c" stroke="#adadad"></path><path d="M607.8 139.3L603.3 112.7L586.8 122.7Z" fill="#753a67" stroke="#adadad"></path><path d="M128 134L90.5 150L140 174Z" fill="#fcaf3c" stroke="#adadad"></path><path d="M102 134.3L90.5 150L128 134Z" fill="#fcaf3c" stroke="#adadad"></path><path d="M202.3 91L136.8 117.3L186.8 120Z" fill="#ba4d69" stroke="#adadad"></path><path d="M121.3 851.7L142.3 784.3L77.5 791.3Z" fill="#31294d" stroke="#adadad"></path><path d="M28.8 739L24.8 788.3L54.3 772.3Z" fill="#d65e61" stroke="#adadad"></path><path d="M54.3 772.3L47.8 798L73.3 795Z" fill="#fcaf3c" stroke="#adadad"></path><path d="M73.3 795L121.3 851.7L77.5 791.3Z" fill="#ba4d69" stroke="#adadad"></path><path d="M0 631.7L0 728.3L18.8 682.3Z" fill="#fcaf3c" stroke="#adadad"></path><path d="M-14.2 900L0 728.3L0 631.7Z" fill="#31294d" stroke="#adadad"></path><path d="M0 728.3L7.8 740.7L28.8 739Z" fill="#f99048" stroke="#adadad"></path><path d="M7.8 740.7L11.8 746.3L28.8 739Z" fill="#151e38" stroke="#adadad"></path><path d="M186.3 900L207.3 895.7L214.5 887.7Z" fill="#52325d" stroke="#adadad"></path><path d="M214.5 887.7L207.3 895.7L256.3 881.3Z" fill="#d65e61" stroke="#adadad"></path><path d="M326.5 31.3L292 57.3L310.5 68Z" fill="#ba4d69" stroke="#adadad"></path><path d="M310.5 68L292 57.3L302.8 103Z" fill="#ec7556" stroke="#adadad"></path><path d="M107.5 871.7L121.3 851.7L45.5 828Z" fill="#31294d" stroke="#adadad"></path><path d="M510.5 908.7L509.5 900L490.3 884.7Z" fill="#151e38" stroke="#adadad"></path><path d="M650.5 900L642.3 837.7L612.8 840.3Z" fill="#f99048" stroke="#adadad"></path><path d="M501.5 20.3L456.3 58.3L498.3 92.7Z" fill="#001122" stroke="#adadad"></path><path d="M498.3 92.7L456.3 58.3L469.3 87.3Z" fill="#31294d" stroke="#adadad"></path><path d="M343.8 22.3L338.5 34.7L380.3 20.7Z" fill="#ba4d69" stroke="#adadad"></path><path d="M552.8 82.3L556.5 131.3L586.8 122.7Z" fill="#ec7556" stroke="#adadad"></path><path d="M121.3 114.7L102 134.3L128 134Z" fill="#31294d" stroke="#adadad"></path><path d="M0 180L60.8 193L66.3 177.3Z" fill="#52325d" stroke="#adadad"></path><path d="M0 195.7L0 228.7L43.5 209.3Z" fill="#fcaf3c" stroke="#adadad"></path><path d="M509.5 900L523 900L490.3 884.7Z" fill="#31294d" stroke="#adadad"></path><path d="M24.8 788.3L47.8 798L54.3 772.3Z" fill="#99426b" stroke="#adadad"></path><path d="M24.8 788.3L28.8 739L11.8 746.3Z" fill="#99426b" stroke="#adadad"></path><path d="M675 804.3L675 803.7L656.5 799.3Z" fill="#753a67" stroke="#adadad"></path><path d="M656.5 799.3L675 803.7L661.3 744Z" fill="#001122" stroke="#adadad"></path><path d="M675 691L675 803.7L691.3 323.7Z" fill="#753a67" stroke="#adadad"></path><path d="M675 804.3L656.5 799.3L657.3 824.3Z" fill="#31294d" stroke="#adadad"></path><path d="M647.3 795.7L618.8 793.7L642.3 837.7Z" fill="#753a67" stroke="#adadad"></path><path d="M675 803.7L675 804.3L691.3 323.7Z" fill="#151e38" stroke="#adadad"></path><path d="M117.3 75.7L121.3 114.7L136.8 117.3Z" fill="#d65e61" stroke="#adadad"></path><path d="M136.8 117.3L121.3 114.7L128 134Z" fill="#31294d" stroke="#adadad"></path><path d="M117.3 75.7L136.8 117.3L135.8 46.7Z" fill="#d65e61" stroke="#adadad"></path><path d="M650.5 123.7L603.3 112.7L620.5 139Z" fill="#52325d" stroke="#adadad"></path><path d="M620.5 139L603.3 112.7L607.8 139.3Z" fill="#52325d" stroke="#adadad"></path><path d="M0 728.3L0 746L7.8 740.7Z" fill="#001122" stroke="#adadad"></path><path d="M7.8 740.7L0 746L11.8 746.3Z" fill="#151e38" stroke="#adadad"></path><path d="M-14.2 900L0 746L0 728.3Z" fill="#151e38" stroke="#adadad"></path><path d="M509.5 900L510.5 908.7L523 900Z" fill="#001122" stroke="#adadad"></path><path d="M642.3 837.7L618.8 793.7L612.8 840.3Z" fill="#fcaf3c" stroke="#adadad"></path><path d="M434.8 900L510.5 908.7L490.3 884.7Z" fill="#001122" stroke="#adadad"></path><path d="M397.3 900L510.5 908.7L434.8 900Z" fill="#fcaf3c" stroke="#adadad"></path><path d="M380 900L510.5 908.7L397.3 900Z" fill="#753a67" stroke="#adadad"></path><path d="M327.5 900L510.5 908.7L380 900Z" fill="#99426b" stroke="#adadad"></path><path d="M93 913.7L510.5 908.7L327.5 900Z" fill="#d65e61" stroke="#adadad"></path><path d="M93 913.7L327.5 900L278 900Z" fill="#d65e61" stroke="#adadad"></path><path d="M43.5 209.3L60.8 193L0 180Z" fill="#fcaf3c" stroke="#adadad"></path><path d="M0 252.3L-1.2 123.7L-1.2 358Z" fill="#ec7556" stroke="#adadad"></path><path d="M66.3 177.3L90.5 150L60.8 124Z" fill="#753a67" stroke="#adadad"></path><path d="M612.8 840.3L556 867.3L599.8 894.7Z" fill="#001122" stroke="#adadad"></path><path d="M540.3 900L556 867.3L523 900Z" fill="#31294d" stroke="#adadad"></path><path d="M604.5 87.7L552.8 82.3L586.8 122.7Z" fill="#151e38" stroke="#adadad"></path><path d="M510.5 908.7L540.3 900L523 900Z" fill="#f99048" stroke="#adadad"></path><path d="M174 900L186.3 900L162.8 823.3Z" fill="#ba4d69" stroke="#adadad"></path><path d="M207.3 895.7L186.3 900L277.8 900Z" fill="#151e38" stroke="#adadad"></path><path d="M277.8 900L93 913.7L278 900Z" fill="#753a67" stroke="#adadad"></path><path d="M174 900L162.8 823.3L136.8 859.7Z" fill="#753a67" stroke="#adadad"></path><path d="M174 900L136.8 859.7L169.5 900Z" fill="#f99048" stroke="#adadad"></path><path d="M688.3 51.3L675 165.3L675 195.7Z" fill="#52325d" stroke="#adadad"></path><path d="M675 195.7L675 165.3L667.3 196Z" fill="#ba4d69" stroke="#adadad"></path><path d="M0 746L24.8 788.3L11.8 746.3Z" fill="#f99048" stroke="#adadad"></path><path d="M45.5 828L121.3 851.7L73.3 795Z" fill="#d65e61" stroke="#adadad"></path><path d="M562 35.7L545.3 73L552.8 82.3Z" fill="#ba4d69" stroke="#adadad"></path><path d="M552.8 82.3L545.3 73L521 121.3Z" fill="#753a67" stroke="#adadad"></path><path d="M169.5 900L136.8 859.7L168.8 900Z" fill="#001122" stroke="#adadad"></path><path d="M186.3 900L93 913.7L277.8 900Z" fill="#ba4d69" stroke="#adadad"></path><path d="M384.3 57.3L338.5 34.7L310.5 68Z" fill="#31294d" stroke="#adadad"></path><path d="M292 57.3L245 47.7L223.5 105.7Z" fill="#fcaf3c" stroke="#adadad"></path><path d="M400.8 23.3L384.3 57.3L386 57.7Z" fill="#31294d" stroke="#adadad"></path><path d="M326.5 31.3L338.5 34.7L343.8 22.3Z" fill="#99426b" stroke="#adadad"></path><path d="M168.8 900L136.8 859.7L105.3 900Z" fill="#31294d" stroke="#adadad"></path><path d="M174 900L93 913.7L186.3 900Z" fill="#d65e61" stroke="#adadad"></path><path d="M107.5 871.7L136.8 859.7L121.3 851.7Z" fill="#99426b" stroke="#adadad"></path><path d="M169.5 900L93 913.7L174 900Z" fill="#99426b" stroke="#adadad"></path><path d="M278.8 21.7L245 47.7L292 57.3Z" fill="#151e38" stroke="#adadad"></path><path d="M434.8 33.7L421.8 81L456.3 58.3Z" fill="#52325d" stroke="#adadad"></path><path d="M338.5 34.7L326.5 31.3L310.5 68Z" fill="#d65e61" stroke="#adadad"></path><path d="M510.5 908.7L565.8 900L540.3 900Z" fill="#151e38" stroke="#adadad"></path><path d="M540.3 900L565.8 900L556 867.3Z" fill="#001122" stroke="#adadad"></path><path d="M484.8 0L434.8 33.7L456.3 58.3Z" fill="#f99048" stroke="#adadad"></path><path d="M45.5 828L73.3 795L47.8 798Z" fill="#ba4d69" stroke="#adadad"></path><path d="M675 165.3L650.5 123.7L649.3 179.3Z" fill="#ec7556" stroke="#adadad"></path><path d="M603.3 112.7L604.5 87.7L586.8 122.7Z" fill="#31294d" stroke="#adadad"></path><path d="M24.8 788.3L45.5 828L47.8 798Z" fill="#151e38" stroke="#adadad"></path><path d="M0 808.7L45.5 828L24.8 788.3Z" fill="#151e38" stroke="#adadad"></path><path d="M380.3 20.7L338.5 34.7L384.3 57.3Z" fill="#fcaf3c" stroke="#adadad"></path><path d="M242.5 0L229.3 35.7L245 47.7Z" fill="#ba4d69" stroke="#adadad"></path><path d="M434.8 33.7L400.8 23.3L386 57.7Z" fill="#ec7556" stroke="#adadad"></path><path d="M81.5 115.7L90.5 150L102 134.3Z" fill="#fcaf3c" stroke="#adadad"></path><path d="M0 228.7L-1.2 123.7L0 252.3Z" fill="#52325d" stroke="#adadad"></path><path d="M99.3 78L81.5 115.7L121.3 114.7Z" fill="#ec7556" stroke="#adadad"></path><path d="M121.3 114.7L81.5 115.7L102 134.3Z" fill="#001122" stroke="#adadad"></path><path d="M611.3 84L604.5 87.7L603.3 112.7Z" fill="#99426b" stroke="#adadad"></path><path d="M545.3 73L501.5 20.3L498.3 92.7Z" fill="#001122" stroke="#adadad"></path><path d="M400.8 23.3L380.3 20.7L384.3 57.3Z" fill="#001122" stroke="#adadad"></path><path d="M591.3 900L599.8 894.7L556 867.3Z" fill="#d65e61" stroke="#adadad"></path><path d="M642.3 837.7L675 844L657.3 824.3Z" fill="#753a67" stroke="#adadad"></path><path d="M657.3 824.3L675 844L675 804.3Z" fill="#151e38" stroke="#adadad"></path><path d="M510.5 908.7L591.3 900L565.8 900Z" fill="#f99048" stroke="#adadad"></path><path d="M565.8 900L591.3 900L556 867.3Z" fill="#ba4d69" stroke="#adadad"></path><path d="M278.8 21.7L292 57.3L326.5 31.3Z" fill="#151e38" stroke="#adadad"></path><path d="M245 47.7L216.5 34.3L202.3 91Z" fill="#ec7556" stroke="#adadad"></path><path d="M650.5 900L675 844L642.3 837.7Z" fill="#fcaf3c" stroke="#adadad"></path><path d="M675 804.3L675 844L691.3 323.7Z" fill="#f99048" stroke="#adadad"></path><path d="M99.3 78L60.8 124L81.5 115.7Z" fill="#ba4d69" stroke="#adadad"></path><path d="M81.5 115.7L60.8 124L90.5 150Z" fill="#99426b" stroke="#adadad"></path><path d="M291 0L326.5 31.3L343.8 22.3Z" fill="#ba4d69" stroke="#adadad"></path><path d="M291 0L278.8 21.7L326.5 31.3Z" fill="#d65e61" stroke="#adadad"></path><path d="M650.5 123.7L611.3 84L603.3 112.7Z" fill="#151e38" stroke="#adadad"></path><path d="M604.5 87.7L562 35.7L552.8 82.3Z" fill="#f99048" stroke="#adadad"></path><path d="M407.3 0L387 0L400.8 23.3Z" fill="#151e38" stroke="#adadad"></path><path d="M18.8 130.3L0 180L66.3 177.3Z" fill="#52325d" stroke="#adadad"></path><path d="M0 195.7L-1.2 123.7L0 228.7Z" fill="#753a67" stroke="#adadad"></path><path d="M208.3 0L216.5 34.3L229.3 35.7Z" fill="#753a67" stroke="#adadad"></path><path d="M229.3 35.7L216.5 34.3L245 47.7Z" fill="#001122" stroke="#adadad"></path><path d="M135.8 46.7L136.8 117.3L202.3 91Z" fill="#ba4d69" stroke="#adadad"></path><path d="M-14.2 900L0 806L0 746Z" fill="#52325d" stroke="#adadad"></path><path d="M0 746L0 806L24.8 788.3Z" fill="#ec7556" stroke="#adadad"></path><path d="M93 913.7L105.3 900L64.5 900Z" fill="#f99048" stroke="#adadad"></path><path d="M-14.2 900L0 808.7L0 806Z" fill="#151e38" stroke="#adadad"></path><path d="M0 806L0 808.7L24.8 788.3Z" fill="#fcaf3c" stroke="#adadad"></path><path d="M105.3 900L107.5 871.7L64.5 900Z" fill="#753a67" stroke="#adadad"></path><path d="M107.5 871.7L105.3 900L136.8 859.7Z" fill="#151e38" stroke="#adadad"></path><path d="M168.8 900L93 913.7L169.5 900Z" fill="#ba4d69" stroke="#adadad"></path><path d="M522 20.3L501.5 20.3L545.3 73Z" fill="#001122" stroke="#adadad"></path><path d="M400.8 23.3L387 0L380.3 20.7Z" fill="#52325d" stroke="#adadad"></path><path d="M112.3 57.3L99.3 78L117.3 75.7Z" fill="#52325d" stroke="#adadad"></path><path d="M117.3 75.7L99.3 78L121.3 114.7Z" fill="#fcaf3c" stroke="#adadad"></path><path d="M60.8 124L18.8 130.3L66.3 177.3Z" fill="#52325d" stroke="#adadad"></path><path d="M407.3 0L400.8 23.3L434.8 33.7Z" fill="#52325d" stroke="#adadad"></path><path d="M380.3 20.7L387 0L343.8 22.3Z" fill="#52325d" stroke="#adadad"></path><path d="M447 -10.7L407.3 0L434.8 33.7Z" fill="#001122" stroke="#adadad"></path><path d="M675 165.3L675 106.7L650.5 123.7Z" fill="#52325d" stroke="#adadad"></path><path d="M650.5 123.7L675 74L611.3 84Z" fill="#31294d" stroke="#adadad"></path><path d="M562 35.7L522 20.3L545.3 73Z" fill="#31294d" stroke="#adadad"></path><path d="M688.3 51.3L675 106.7L675 165.3Z" fill="#f99048" stroke="#adadad"></path><path d="M387 0L291 0L343.8 22.3Z" fill="#ec7556" stroke="#adadad"></path><path d="M278.8 21.7L260.8 0L245 47.7Z" fill="#52325d" stroke="#adadad"></path><path d="M164 23.3L135.8 46.7L202.3 91Z" fill="#99426b" stroke="#adadad"></path><path d="M562 35.7L604.5 87.7L573.8 30.7Z" fill="#52325d" stroke="#adadad"></path><path d="M501.5 20.3L484.8 0L456.3 58.3Z" fill="#d65e61" stroke="#adadad"></path><path d="M573.8 30.7L604.5 87.7L605.5 38.3Z" fill="#151e38" stroke="#adadad"></path><path d="M291 0L285.5 0L278.8 21.7Z" fill="#151e38" stroke="#adadad"></path><path d="M447 -10.7L283.3 -0.7L291 0Z" fill="#f99048" stroke="#adadad"></path><path d="M291 0L283.3 -0.7L285.5 0Z" fill="#753a67" stroke="#adadad"></path><path d="M285.5 0L283.3 -0.7L278.8 21.7Z" fill="#151e38" stroke="#adadad"></path><path d="M447 -10.7L291 0L387 0Z" fill="#fcaf3c" stroke="#adadad"></path><path d="M164 23.3L202.3 91L216.5 34.3Z" fill="#99426b" stroke="#adadad"></path><path d="M0 131L18.8 130.3L-1.2 123.7Z" fill="#001122" stroke="#adadad"></path><path d="M-1.2 123.7L18.8 130.3L11.8 71.7Z" fill="#001122" stroke="#adadad"></path><path d="M135.8 46.7L112.3 57.3L117.3 75.7Z" fill="#ba4d69" stroke="#adadad"></path><path d="M283.3 -0.7L260.8 0L278.8 21.7Z" fill="#ba4d69" stroke="#adadad"></path><path d="M591.3 900L650.5 900L599.8 894.7Z" fill="#fcaf3c" stroke="#adadad"></path><path d="M599.8 894.7L650.5 900L612.8 840.3Z" fill="#ec7556" stroke="#adadad"></path><path d="M510.5 908.7L650.5 900L591.3 900Z" fill="#99426b" stroke="#adadad"></path><path d="M283.3 -0.7L242.5 0L260.8 0Z" fill="#001122" stroke="#adadad"></path><path d="M260.8 0L242.5 0L245 47.7Z" fill="#ba4d69" stroke="#adadad"></path><path d="M497.5 0L501.5 20.3L504 0Z" fill="#31294d" stroke="#adadad"></path><path d="M497.5 0L484.8 0L501.5 20.3Z" fill="#52325d" stroke="#adadad"></path><path d="M407.3 0L447 -10.7L387 0Z" fill="#fcaf3c" stroke="#adadad"></path><path d="M605.5 38.3L604.5 87.7L611.3 84Z" fill="#ba4d69" stroke="#adadad"></path><path d="M544.3 0L529.8 0L522 20.3Z" fill="#d65e61" stroke="#adadad"></path><path d="M64.5 900L107.5 871.7L45.5 828Z" fill="#001122" stroke="#adadad"></path><path d="M105.3 900L93 913.7L168.8 900Z" fill="#ec7556" stroke="#adadad"></path><path d="M0 808.7L0 839.3L45.5 828Z" fill="#52325d" stroke="#adadad"></path><path d="M-14.2 900L0 839.3L0 808.7Z" fill="#d65e61" stroke="#adadad"></path><path d="M208.3 0L164 23.3L216.5 34.3Z" fill="#ba4d69" stroke="#adadad"></path><path d="M135.8 46.7L93 38.7L112.3 57.3Z" fill="#52325d" stroke="#adadad"></path><path d="M484.8 0L447 -10.7L434.8 33.7Z" fill="#99426b" stroke="#adadad"></path><path d="M283.3 -0.7L208.3 0L242.5 0Z" fill="#fcaf3c" stroke="#adadad"></path><path d="M0 131L0 136.3L18.8 130.3Z" fill="#d65e61" stroke="#adadad"></path><path d="M18.8 130.3L0 136.3L0 180Z" fill="#f99048" stroke="#adadad"></path><path d="M0 180L-1.2 123.7L0 195.7Z" fill="#52325d" stroke="#adadad"></path><path d="M504 0L501.5 20.3L522 20.3Z" fill="#753a67" stroke="#adadad"></path><path d="M484.8 0L497.5 0L447 -10.7Z" fill="#001122" stroke="#adadad"></path><path d="M529.8 0L504 0L522 20.3Z" fill="#fcaf3c" stroke="#adadad"></path><path d="M497.5 0L504 0L447 -10.7Z" fill="#31294d" stroke="#adadad"></path><path d="M0 875.7L64.5 900L45.5 828Z" fill="#fcaf3c" stroke="#adadad"></path><path d="M60.8 124L99.3 78L11.8 71.7Z" fill="#31294d" stroke="#adadad"></path><path d="M18.8 130.3L60.8 124L11.8 71.7Z" fill="#fcaf3c" stroke="#adadad"></path><path d="M0 136.3L-1.2 123.7L0 180Z" fill="#d65e61" stroke="#adadad"></path><path d="M675 46.3L605.5 38.3L611.3 84Z" fill="#f99048" stroke="#adadad"></path><path d="M544.3 0L522 20.3L562 35.7Z" fill="#ec7556" stroke="#adadad"></path><path d="M242.5 0L208.3 0L229.3 35.7Z" fill="#fcaf3c" stroke="#adadad"></path><path d="M447 -10.7L208.3 0L283.3 -0.7Z" fill="#99426b" stroke="#adadad"></path><path d="M166.8 0L156.8 17.3L164 23.3Z" fill="#001122" stroke="#adadad"></path><path d="M164 23.3L156.8 17.3L135.8 46.7Z" fill="#ba4d69" stroke="#adadad"></path><path d="M93 38.7L99.3 78L112.3 57.3Z" fill="#001122" stroke="#adadad"></path><path d="M0 131L-1.2 123.7L0 136.3Z" fill="#753a67" stroke="#adadad"></path><path d="M675 900L675 898.7L650.5 900Z" fill="#99426b" stroke="#adadad"></path><path d="M650.5 900L675 898.7L675 844Z" fill="#fcaf3c" stroke="#adadad"></path><path d="M675 844L675 898.7L691.3 323.7Z" fill="#31294d" stroke="#adadad"></path><path d="M504 0L529.8 0L447 -10.7Z" fill="#151e38" stroke="#adadad"></path><path d="M544.3 0L562 35.7L573.8 30.7Z" fill="#ba4d69" stroke="#adadad"></path><path d="M510.5 908.7L675 900L650.5 900Z" fill="#d65e61" stroke="#adadad"></path><path d="M675 898.7L675 900L691.3 323.7Z" fill="#31294d" stroke="#adadad"></path><path d="M675 106.7L675 74L650.5 123.7Z" fill="#f99048" stroke="#adadad"></path><path d="M688.3 51.3L675 74L675 106.7Z" fill="#f99048" stroke="#adadad"></path><path d="M577.5 0L544.3 0L573.8 30.7Z" fill="#753a67" stroke="#adadad"></path><path d="M529.8 0L544.3 0L447 -10.7Z" fill="#d65e61" stroke="#adadad"></path><path d="M577.5 0L573.8 30.7L605.5 38.3Z" fill="#d65e61" stroke="#adadad"></path><path d="M117.5 0L93 38.7L135.8 46.7Z" fill="#151e38" stroke="#adadad"></path><path d="M131 0L135.8 46.7L156.8 17.3Z" fill="#ec7556" stroke="#adadad"></path><path d="M57.5 -3.7L166.8 0L208.3 0Z" fill="#99426b" stroke="#adadad"></path><path d="M208.3 0L166.8 0L164 23.3Z" fill="#001122" stroke="#adadad"></path><path d="M-14.2 900L0 875.7L0 839.3Z" fill="#d65e61" stroke="#adadad"></path><path d="M0 839.3L0 875.7L45.5 828Z" fill="#ba4d69" stroke="#adadad"></path><path d="M64.5 900L38.8 909.7L93 913.7Z" fill="#f99048" stroke="#adadad"></path><path d="M0 875.7L38.8 909.7L64.5 900Z" fill="#ec7556" stroke="#adadad"></path><path d="M618.3 0L577.5 0L605.5 38.3Z" fill="#52325d" stroke="#adadad"></path><path d="M544.3 0L577.5 0L447 -10.7Z" fill="#31294d" stroke="#adadad"></path><path d="M57.5 -3.7L131 0L166.8 0Z" fill="#ba4d69" stroke="#adadad"></path><path d="M166.8 0L131 0L156.8 17.3Z" fill="#52325d" stroke="#adadad"></path><path d="M93 38.7L11.8 71.7L99.3 78Z" fill="#f99048" stroke="#adadad"></path><path d="M688.3 51.3L675 46.3L675 74Z" fill="#52325d" stroke="#adadad"></path><path d="M675 74L675 46.3L611.3 84Z" fill="#151e38" stroke="#adadad"></path><path d="M691.3 323.7L688.3 51.3L675 195.7Z" fill="#52325d" stroke="#adadad"></path><path d="M675 46.3L618.3 0L605.5 38.3Z" fill="#52325d" stroke="#adadad"></path><path d="M0 44.7L11.8 71.7L36.8 6.3Z" fill="#753a67" stroke="#adadad"></path><path d="M57.5 -3.7L117.5 0L131 0Z" fill="#ec7556" stroke="#adadad"></path><path d="M131 0L117.5 0L135.8 46.7Z" fill="#31294d" stroke="#adadad"></path><path d="M-14.2 900L0 900L0 875.7Z" fill="#ba4d69" stroke="#adadad"></path><path d="M0 875.7L0 900L38.8 909.7Z" fill="#001122" stroke="#adadad"></path><path d="M675 0L618.3 0L675 46.3Z" fill="#151e38" stroke="#adadad"></path><path d="M577.5 0L618.3 0L447 -10.7Z" fill="#151e38" stroke="#adadad"></path><path d="M0 44.7L0 74.3L11.8 71.7Z" fill="#151e38" stroke="#adadad"></path><path d="M11.8 71.7L0 74.3L-1.2 123.7Z" fill="#ba4d69" stroke="#adadad"></path><path d="M-1.2 358L-14.2 900L0 497.3Z" fill="#151e38" stroke="#adadad"></path><path d="M0 900L-14.2 900L38.8 909.7Z" fill="#ba4d69" stroke="#adadad"></path><path d="M-1.2 123.7L-14.2 900L-1.2 358Z" fill="#fcaf3c" stroke="#adadad"></path><path d="M0 74.3L0 44.7L-1.2 123.7Z" fill="#001122" stroke="#adadad"></path><path d="M-1.2 123.7L0 0L-14.2 900Z" fill="#52325d" stroke="#adadad"></path><path d="M36.8 6.3L11.8 71.7L93 38.7Z" fill="#753a67" stroke="#adadad"></path><path d="M57.5 -3.7L52.3 0L93 38.7Z" fill="#52325d" stroke="#adadad"></path><path d="M57.5 -3.7L93 38.7L117.5 0Z" fill="#d65e61" stroke="#adadad"></path><path d="M688.3 51.3L675 0L675 46.3Z" fill="#fcaf3c" stroke="#adadad"></path><path d="M618.3 0L675 0L447 -10.7Z" fill="#52325d" stroke="#adadad"></path><path d="M447 -10.7L57.5 -3.7L208.3 0Z" fill="#001122" stroke="#adadad"></path><path d="M21.8 0L36.8 6.3L52.3 0Z" fill="#ec7556" stroke="#adadad"></path><path d="M52.3 0L36.8 6.3L93 38.7Z" fill="#d65e61" stroke="#adadad"></path><path d="M57.5 -3.7L21.8 0L52.3 0Z" fill="#99426b" stroke="#adadad"></path><path d="M36.8 6.3L21.8 0L0 44.7Z" fill="#151e38" stroke="#adadad"></path><path d="M57.5 -3.7L0 0L21.8 0Z" fill="#151e38" stroke="#adadad"></path><path d="M21.8 0L0 0L0 44.7Z" fill="#d65e61" stroke="#adadad"></path><path d="M0 44.7L0 0L-1.2 123.7Z" fill="#001122" stroke="#adadad"></path></g></svg>