<svg id="visual" viewBox="0 0 675 900" width="675" height="900" xmlns="http://www.w3.org/2000/svg" xmlns:xlink="http://www.w3.org/1999/xlink" version="1.1"><g stroke-width="1" stroke-linejoin="bevel"><path d="M338.8 434L354.5 461.7L377 422.7Z" fill="#87297d" stroke="#adadad"></path><path d="M354.5 461.7L378.5 461.3L377 422.7Z" fill="#17224a" stroke="#adadad"></path><path d="M378.5 461.3L388 453.3L377 422.7Z" fill="#ff0066" stroke="#adadad"></path><path d="M378.5 461.3L392.3 456.7L388 453.3Z" fill="#e50173" stroke="#adadad"></path><path d="M388 453.3L409.3 437L377 422.7Z" fill="#87297d" stroke="#adadad"></path><path d="M308.8 460L340.8 478.3L354.5 461.7Z" fill="#c7147b" stroke="#adadad"></path><path d="M354.5 461.7L365.5 503L378.5 461.3Z" fill="#061b36" stroke="#adadad"></path><path d="M365.5 503L417.8 459.3L392.3 456.7Z" fill="#672c76" stroke="#adadad"></path><path d="M392.3 456.7L409.3 437L388 453.3Z" fill="#a7217e" stroke="#adadad"></path><path d="M374 388L331.3 401.3L377 422.7Z" fill="#001122" stroke="#adadad"></path><path d="M377 422.7L331.3 401.3L338.8 434Z" fill="#492c6b" stroke="#adadad"></path><path d="M338.8 434L308.8 460L354.5 461.7Z" fill="#e50173" stroke="#adadad"></path><path d="M417.8 400L374 388L377 422.7Z" fill="#17224a" stroke="#adadad"></path><path d="M291.8 439.7L308.8 460L338.8 434Z" fill="#672c76" stroke="#adadad"></path><path d="M365.5 503L392.3 456.7L378.5 461.3Z" fill="#87297d" stroke="#adadad"></path><path d="M392.3 456.7L417.8 459.3L409.3 437Z" fill="#001122" stroke="#adadad"></path><path d="M356.3 524.7L365.5 503L340.8 478.3Z" fill="#e50173" stroke="#adadad"></path><path d="M340.8 478.3L365.5 503L354.5 461.7Z" fill="#e50173" stroke="#adadad"></path><path d="M331.3 401.3L302.8 410.7L338.8 434Z" fill="#492c6b" stroke="#adadad"></path><path d="M448.5 430.3L417.8 400L409.3 437Z" fill="#001122" stroke="#adadad"></path><path d="M409.3 437L417.8 400L377 422.7Z" fill="#2e285c" stroke="#adadad"></path><path d="M267 477.3L305 480L308.8 460Z" fill="#672c76" stroke="#adadad"></path><path d="M308.8 460L305 480L340.8 478.3Z" fill="#2e285c" stroke="#adadad"></path><path d="M302.8 410.7L291.8 439.7L338.8 434Z" fill="#ff0066" stroke="#adadad"></path><path d="M305 480L307 484.3L340.8 478.3Z" fill="#87297d" stroke="#adadad"></path><path d="M395.8 362.3L370.5 367L374 388Z" fill="#2e285c" stroke="#adadad"></path><path d="M374 388L370.5 367L331.3 401.3Z" fill="#2e285c" stroke="#adadad"></path><path d="M331.3 401.3L316.5 350.7L302.8 410.7Z" fill="#a7217e" stroke="#adadad"></path><path d="M417.8 400L395.8 362.3L374 388Z" fill="#672c76" stroke="#adadad"></path><path d="M307 484.3L356.3 524.7L340.8 478.3Z" fill="#c7147b" stroke="#adadad"></path><path d="M434.8 519.3L443 493L417.8 459.3Z" fill="#e50173" stroke="#adadad"></path><path d="M302.8 410.7L274 434L291.8 439.7Z" fill="#492c6b" stroke="#adadad"></path><path d="M291.8 439.7L267 477.3L308.8 460Z" fill="#ff0066" stroke="#adadad"></path><path d="M305 480L267 477.3L307 484.3Z" fill="#e50173" stroke="#adadad"></path><path d="M448.5 483L448.5 430.3L417.8 459.3Z" fill="#e50173" stroke="#adadad"></path><path d="M417.8 459.3L448.5 430.3L409.3 437Z" fill="#ff0066" stroke="#adadad"></path><path d="M414 326L394 341.3L395.8 362.3Z" fill="#001122" stroke="#adadad"></path><path d="M395.8 362.3L366 350.7L370.5 367Z" fill="#a7217e" stroke="#adadad"></path><path d="M370.5 367L316.5 350.7L331.3 401.3Z" fill="#c7147b" stroke="#adadad"></path><path d="M302.8 410.7L260 376.7L274 434Z" fill="#2e285c" stroke="#adadad"></path><path d="M356.3 524.7L388.3 532L365.5 503Z" fill="#17224a" stroke="#adadad"></path><path d="M321 568L358 536.3L356.3 524.7Z" fill="#e50173" stroke="#adadad"></path><path d="M356.3 524.7L358 536.3L388.3 532Z" fill="#a7217e" stroke="#adadad"></path><path d="M443 493L448.5 483L417.8 459.3Z" fill="#2e285c" stroke="#adadad"></path><path d="M434.8 519.3L417.8 459.3L365.5 503Z" fill="#672c76" stroke="#adadad"></path><path d="M366 350.7L316.5 350.7L370.5 367Z" fill="#a7217e" stroke="#adadad"></path><path d="M274 434L267 477.3L291.8 439.7Z" fill="#ff0066" stroke="#adadad"></path><path d="M302.8 565.3L321 568L356.3 524.7Z" fill="#001122" stroke="#adadad"></path><path d="M440.5 358L395.8 362.3L417.8 400Z" fill="#672c76" stroke="#adadad"></path><path d="M395.8 362.3L394 341.3L366 350.7Z" fill="#87297d" stroke="#adadad"></path><path d="M366 350.7L319.8 343.3L316.5 350.7Z" fill="#a7217e" stroke="#adadad"></path><path d="M378.5 323.3L319.8 343.3L366 350.7Z" fill="#87297d" stroke="#adadad"></path><path d="M316.5 350.7L260 376.7L302.8 410.7Z" fill="#001122" stroke="#adadad"></path><path d="M388.3 532L434.8 519.3L365.5 503Z" fill="#a7217e" stroke="#adadad"></path><path d="M443 493L460.5 496.3L448.5 483Z" fill="#c7147b" stroke="#adadad"></path><path d="M471.5 481.7L470.8 445.7L448.5 483Z" fill="#492c6b" stroke="#adadad"></path><path d="M448.5 483L470.8 445.7L448.5 430.3Z" fill="#c7147b" stroke="#adadad"></path><path d="M448.5 430.3L453.8 378.7L417.8 400Z" fill="#ff0066" stroke="#adadad"></path><path d="M503 427.3L453.8 378.7L448.5 430.3Z" fill="#ff0066" stroke="#adadad"></path><path d="M392.3 315.7L382.3 328.3L394 341.3Z" fill="#a7217e" stroke="#adadad"></path><path d="M394 341.3L382.3 328.3L366 350.7Z" fill="#ff0066" stroke="#adadad"></path><path d="M453.8 378.7L440.5 358L417.8 400Z" fill="#a7217e" stroke="#adadad"></path><path d="M434.8 519.3L446.8 515L443 493Z" fill="#492c6b" stroke="#adadad"></path><path d="M242.3 484.3L262.3 496.7L267 477.3Z" fill="#001122" stroke="#adadad"></path><path d="M267 477.3L262.3 496.7L307 484.3Z" fill="#a7217e" stroke="#adadad"></path><path d="M446.8 515L460.5 496.3L443 493Z" fill="#672c76" stroke="#adadad"></path><path d="M379.3 574L422.3 538.3L388.3 532Z" fill="#2e285c" stroke="#adadad"></path><path d="M388.3 532L422.3 538.3L434.8 519.3Z" fill="#87297d" stroke="#adadad"></path><path d="M434.8 519.3L438.8 531.7L446.8 515Z" fill="#001122" stroke="#adadad"></path><path d="M392.3 315.7L378.5 323.3L382.3 328.3Z" fill="#17224a" stroke="#adadad"></path><path d="M382.3 328.3L378.5 323.3L366 350.7Z" fill="#ff0066" stroke="#adadad"></path><path d="M486.3 484.7L471.5 481.7L460.5 496.3Z" fill="#c7147b" stroke="#adadad"></path><path d="M460.5 496.3L471.5 481.7L448.5 483Z" fill="#87297d" stroke="#adadad"></path><path d="M288.8 335L260 376.7L316.5 350.7Z" fill="#a7217e" stroke="#adadad"></path><path d="M274 434L242.3 484.3L267 477.3Z" fill="#a7217e" stroke="#adadad"></path><path d="M422.3 538.3L438.8 531.7L434.8 519.3Z" fill="#c7147b" stroke="#adadad"></path><path d="M513 522.7L486.3 484.7L460.5 496.3Z" fill="#ff0066" stroke="#adadad"></path><path d="M440.5 358L414 326L395.8 362.3Z" fill="#a7217e" stroke="#adadad"></path><path d="M215.5 484L242.3 484.3L209.3 410.7Z" fill="#87297d" stroke="#adadad"></path><path d="M292 311.7L288.8 335L319.8 343.3Z" fill="#ff0066" stroke="#adadad"></path><path d="M319.8 343.3L288.8 335L316.5 350.7Z" fill="#ff0066" stroke="#adadad"></path><path d="M414 326L392.3 315.7L394 341.3Z" fill="#a7217e" stroke="#adadad"></path><path d="M302.8 274.7L292 311.7L319.8 343.3Z" fill="#c7147b" stroke="#adadad"></path><path d="M513 522.7L460.5 496.3L446.8 515Z" fill="#492c6b" stroke="#adadad"></path><path d="M471.5 481.7L486.3 484.7L470.8 445.7Z" fill="#87297d" stroke="#adadad"></path><path d="M470.8 445.7L503 427.3L448.5 430.3Z" fill="#001122" stroke="#adadad"></path><path d="M242.3 484.3L251 515.7L262.3 496.7Z" fill="#2e285c" stroke="#adadad"></path><path d="M295.8 562.7L302.8 565.3L307 484.3Z" fill="#061b36" stroke="#adadad"></path><path d="M302.8 565.3L356.3 524.7L307 484.3Z" fill="#061b36" stroke="#adadad"></path><path d="M358 536.3L379.3 574L388.3 532Z" fill="#c7147b" stroke="#adadad"></path><path d="M321 568L334.5 572.3L358 536.3Z" fill="#672c76" stroke="#adadad"></path><path d="M358 584.3L379.3 574L358 536.3Z" fill="#a7217e" stroke="#adadad"></path><path d="M422.3 538.3L457.8 567L438.8 531.7Z" fill="#a7217e" stroke="#adadad"></path><path d="M295.8 562.7L307 484.3L280.3 558Z" fill="#17224a" stroke="#adadad"></path><path d="M321 568L312.5 605.7L334.5 572.3Z" fill="#ff0066" stroke="#adadad"></path><path d="M292 311.7L271 334L288.8 335Z" fill="#87297d" stroke="#adadad"></path><path d="M288.8 335L271 334L260 376.7Z" fill="#87297d" stroke="#adadad"></path><path d="M280.3 558L307 484.3L262.3 496.7Z" fill="#061b36" stroke="#adadad"></path><path d="M515.3 455L503 427.3L470.8 445.7Z" fill="#17224a" stroke="#adadad"></path><path d="M453.8 378.7L458.5 335.7L440.5 358Z" fill="#ff0066" stroke="#adadad"></path><path d="M440.5 358L441.8 320L414 326Z" fill="#2e285c" stroke="#adadad"></path><path d="M505.3 348.7L458.5 335.7L453.8 378.7Z" fill="#2e285c" stroke="#adadad"></path><path d="M386.5 285L382 294.7L394 283.3Z" fill="#ff0066" stroke="#adadad"></path><path d="M251 515.7L280.3 558L262.3 496.7Z" fill="#492c6b" stroke="#adadad"></path><path d="M289 606.3L312.5 605.7L302.8 565.3Z" fill="#492c6b" stroke="#adadad"></path><path d="M458.5 335.7L441.8 320L440.5 358Z" fill="#17224a" stroke="#adadad"></path><path d="M334.5 572.3L358 584.3L358 536.3Z" fill="#492c6b" stroke="#adadad"></path><path d="M312.5 605.7L358 584.3L334.5 572.3Z" fill="#492c6b" stroke="#adadad"></path><path d="M391 607.7L358 584.3L364 630Z" fill="#061b36" stroke="#adadad"></path><path d="M382 294.7L319.8 343.3L378.5 323.3Z" fill="#001122" stroke="#adadad"></path><path d="M434.5 304.3L392.3 315.7L414 326Z" fill="#061b36" stroke="#adadad"></path><path d="M392.3 315.7L382 294.7L378.5 323.3Z" fill="#492c6b" stroke="#adadad"></path><path d="M209.3 410.7L242.3 484.3L274 434Z" fill="#672c76" stroke="#adadad"></path><path d="M242.3 484.3L215.5 484L251 515.7Z" fill="#492c6b" stroke="#adadad"></path><path d="M249.3 604.7L266.8 596.3L236 603.7Z" fill="#87297d" stroke="#adadad"></path><path d="M209.3 410.7L274 434L260 376.7Z" fill="#061b36" stroke="#adadad"></path><path d="M499.3 304.3L434.5 304.3L441.8 320Z" fill="#ff0066" stroke="#adadad"></path><path d="M441.8 320L434.5 304.3L414 326Z" fill="#001122" stroke="#adadad"></path><path d="M211.5 368L209.3 410.7L260 376.7Z" fill="#492c6b" stroke="#adadad"></path><path d="M486.3 484.7L515.3 455L470.8 445.7Z" fill="#ff0066" stroke="#adadad"></path><path d="M394 283.3L382 294.7L392.3 315.7Z" fill="#061b36" stroke="#adadad"></path><path d="M343.3 258L302.8 274.7L319.8 343.3Z" fill="#e50173" stroke="#adadad"></path><path d="M244.5 301.7L245.5 334L271 334Z" fill="#492c6b" stroke="#adadad"></path><path d="M271 334L245.5 334L260 376.7Z" fill="#17224a" stroke="#adadad"></path><path d="M434.5 304.3L394 283.3L392.3 315.7Z" fill="#17224a" stroke="#adadad"></path><path d="M423.5 587.7L422.3 538.3L379.3 574Z" fill="#ff0066" stroke="#adadad"></path><path d="M423.5 587.7L457.8 567L422.3 538.3Z" fill="#e50173" stroke="#adadad"></path><path d="M438.8 531.7L457.8 567L446.8 515Z" fill="#ff0066" stroke="#adadad"></path><path d="M486.3 484.7L536 459L515.3 455Z" fill="#672c76" stroke="#adadad"></path><path d="M391 607.7L423.5 587.7L379.3 574Z" fill="#672c76" stroke="#adadad"></path><path d="M217.5 347.7L211.5 368L260 376.7Z" fill="#c7147b" stroke="#adadad"></path><path d="M211.5 368L200.3 395L209.3 410.7Z" fill="#2e285c" stroke="#adadad"></path><path d="M187.5 461.7L200.5 495.3L215.5 484Z" fill="#c7147b" stroke="#adadad"></path><path d="M187.5 461.7L215.5 484L209.3 410.7Z" fill="#87297d" stroke="#adadad"></path><path d="M215.5 484L200.5 495.3L251 515.7Z" fill="#492c6b" stroke="#adadad"></path><path d="M537.3 371L505.3 348.7L503 427.3Z" fill="#e50173" stroke="#adadad"></path><path d="M503 427.3L505.3 348.7L453.8 378.7Z" fill="#061b36" stroke="#adadad"></path><path d="M458.5 335.7L499.3 304.3L441.8 320Z" fill="#2e285c" stroke="#adadad"></path><path d="M245.5 334L217.5 347.7L260 376.7Z" fill="#2e285c" stroke="#adadad"></path><path d="M188.8 404L191.5 408.3L200.3 395Z" fill="#a7217e" stroke="#adadad"></path><path d="M312.5 605.7L321 568L302.8 565.3Z" fill="#672c76" stroke="#adadad"></path><path d="M358 584.3L391 607.7L379.3 574Z" fill="#e50173" stroke="#adadad"></path><path d="M495 617.7L513 587L457.8 567Z" fill="#061b36" stroke="#adadad"></path><path d="M188.8 404L200.3 395L186.8 390.3Z" fill="#17224a" stroke="#adadad"></path><path d="M200.3 395L191.5 408.3L209.3 410.7Z" fill="#ff0066" stroke="#adadad"></path><path d="M419.8 276.7L378.5 267.7L394 283.3Z" fill="#061b36" stroke="#adadad"></path><path d="M394 283.3L378.5 267.7L386.5 285Z" fill="#e50173" stroke="#adadad"></path><path d="M386.5 285L378.5 267.7L382 294.7Z" fill="#a7217e" stroke="#adadad"></path><path d="M292 311.7L244.5 301.7L271 334Z" fill="#a7217e" stroke="#adadad"></path><path d="M245.5 334L213.8 306.3L217.5 347.7Z" fill="#e50173" stroke="#adadad"></path><path d="M419.8 276.7L394 283.3L434.5 304.3Z" fill="#ff0066" stroke="#adadad"></path><path d="M457.8 567L513 522.7L446.8 515Z" fill="#061b36" stroke="#adadad"></path><path d="M501.5 285.7L419.8 276.7L434.5 304.3Z" fill="#061b36" stroke="#adadad"></path><path d="M289 606.3L295.8 562.7L266.8 596.3Z" fill="#672c76" stroke="#adadad"></path><path d="M289 606.3L302.8 565.3L295.8 562.7Z" fill="#ff0066" stroke="#adadad"></path><path d="M343.3 258L319.8 343.3L382 294.7Z" fill="#2e285c" stroke="#adadad"></path><path d="M191.5 408.3L187.5 461.7L209.3 410.7Z" fill="#87297d" stroke="#adadad"></path><path d="M532.3 520.7L536 459L486.3 484.7Z" fill="#001122" stroke="#adadad"></path><path d="M515.3 455L543.3 451.3L503 427.3Z" fill="#a7217e" stroke="#adadad"></path><path d="M186.8 390.3L200.3 395L211.5 368Z" fill="#061b36" stroke="#adadad"></path><path d="M191.5 408.3L155.8 421.7L187.5 461.7Z" fill="#c7147b" stroke="#adadad"></path><path d="M526.3 324L505 333.7L505.3 348.7Z" fill="#ff0066" stroke="#adadad"></path><path d="M505.3 348.7L505 333.7L458.5 335.7Z" fill="#17224a" stroke="#adadad"></path><path d="M364 630L398.3 615.7L391 607.7Z" fill="#17224a" stroke="#adadad"></path><path d="M391 607.7L398.3 615.7L423.5 587.7Z" fill="#ff0066" stroke="#adadad"></path><path d="M529.3 580.3L532.3 520.7L513 522.7Z" fill="#492c6b" stroke="#adadad"></path><path d="M263 284.3L244.5 301.7L292 311.7Z" fill="#672c76" stroke="#adadad"></path><path d="M189.8 344.7L186.8 390.3L211.5 368Z" fill="#87297d" stroke="#adadad"></path><path d="M164.8 490.3L172 484.3L155.8 421.7Z" fill="#2e285c" stroke="#adadad"></path><path d="M189.8 344.7L211.5 368L217.5 347.7Z" fill="#87297d" stroke="#adadad"></path><path d="M266.8 596.3L295.8 562.7L280.3 558Z" fill="#2e285c" stroke="#adadad"></path><path d="M312.5 605.7L315.5 617.7L358 584.3Z" fill="#17224a" stroke="#adadad"></path><path d="M376.3 256.3L343.3 258L378.5 267.7Z" fill="#ff0066" stroke="#adadad"></path><path d="M378.5 267.7L343.3 258L382 294.7Z" fill="#492c6b" stroke="#adadad"></path><path d="M554.8 460L543.3 451.3L536 459Z" fill="#17224a" stroke="#adadad"></path><path d="M536 459L543.3 451.3L515.3 455Z" fill="#a7217e" stroke="#adadad"></path><path d="M266.8 596.3L280.3 558L236 603.7Z" fill="#e50173" stroke="#adadad"></path><path d="M172 484.3L188.3 500L200.5 495.3Z" fill="#672c76" stroke="#adadad"></path><path d="M200.5 495.3L186.5 538.7L251 515.7Z" fill="#492c6b" stroke="#adadad"></path><path d="M302.8 274.7L263 284.3L292 311.7Z" fill="#492c6b" stroke="#adadad"></path><path d="M243.3 274L263 284.3L247 255.3Z" fill="#2e285c" stroke="#adadad"></path><path d="M419.8 276.7L376.3 256.3L378.5 267.7Z" fill="#2e285c" stroke="#adadad"></path><path d="M297.5 616L315.5 617.7L312.5 605.7Z" fill="#001122" stroke="#adadad"></path><path d="M265.3 630.3L297.5 616L289 606.3Z" fill="#001122" stroke="#adadad"></path><path d="M289 606.3L297.5 616L312.5 605.7Z" fill="#672c76" stroke="#adadad"></path><path d="M550.8 383.7L537.3 371L503 427.3Z" fill="#87297d" stroke="#adadad"></path><path d="M513 587L513 522.7L457.8 567Z" fill="#c7147b" stroke="#adadad"></path><path d="M513 522.7L532.3 520.7L486.3 484.7Z" fill="#001122" stroke="#adadad"></path><path d="M328.8 641L364 630L315.5 617.7Z" fill="#c7147b" stroke="#adadad"></path><path d="M315.5 617.7L364 630L358 584.3Z" fill="#492c6b" stroke="#adadad"></path><path d="M383 227L331.3 250.7L343.3 258Z" fill="#17224a" stroke="#adadad"></path><path d="M343.3 258L331.3 250.7L302.8 274.7Z" fill="#492c6b" stroke="#adadad"></path><path d="M526.3 324L499.3 304.3L505 333.7Z" fill="#492c6b" stroke="#adadad"></path><path d="M505 333.7L499.3 304.3L458.5 335.7Z" fill="#672c76" stroke="#adadad"></path><path d="M419.8 276.7L383 227L376.3 256.3Z" fill="#2e285c" stroke="#adadad"></path><path d="M550.8 383.7L542.8 370L537.3 371Z" fill="#001122" stroke="#adadad"></path><path d="M537.3 371L526.3 324L505.3 348.7Z" fill="#17224a" stroke="#adadad"></path><path d="M187.5 461.7L172 484.3L200.5 495.3Z" fill="#c7147b" stroke="#adadad"></path><path d="M236 603.7L280.3 558L202.3 571.3Z" fill="#672c76" stroke="#adadad"></path><path d="M172 484.3L187.5 461.7L155.8 421.7Z" fill="#c7147b" stroke="#adadad"></path><path d="M532.3 520.7L554.8 460L536 459Z" fill="#87297d" stroke="#adadad"></path><path d="M543.3 451.3L550.8 383.7L503 427.3Z" fill="#ff0066" stroke="#adadad"></path><path d="M213.8 306.3L245.5 334L244.5 301.7Z" fill="#001122" stroke="#adadad"></path><path d="M213.8 306.3L189.8 344.7L217.5 347.7Z" fill="#ff0066" stroke="#adadad"></path><path d="M155.8 421.7L191.5 408.3L188.8 404Z" fill="#c7147b" stroke="#adadad"></path><path d="M564.8 452.3L550.8 383.7L543.3 451.3Z" fill="#001122" stroke="#adadad"></path><path d="M243.3 274L213.8 306.3L244.5 301.7Z" fill="#c7147b" stroke="#adadad"></path><path d="M243.3 274L244.5 301.7L263 284.3Z" fill="#001122" stroke="#adadad"></path><path d="M186.5 538.7L200.5 495.3L184 535.7Z" fill="#061b36" stroke="#adadad"></path><path d="M266.8 596.3L265.3 630.3L289 606.3Z" fill="#001122" stroke="#adadad"></path><path d="M184 535.7L200.5 495.3L188.3 500Z" fill="#2e285c" stroke="#adadad"></path><path d="M542.8 370L526.3 324L537.3 371Z" fill="#a7217e" stroke="#adadad"></path><path d="M532.3 310.7L526.3 324L560.5 304.3Z" fill="#e50173" stroke="#adadad"></path><path d="M164.8 490.3L184 535.7L188.3 500Z" fill="#2e285c" stroke="#adadad"></path><path d="M155.8 421.7L188.8 404L186.8 390.3Z" fill="#17224a" stroke="#adadad"></path><path d="M172 484.3L164.8 490.3L188.3 500Z" fill="#672c76" stroke="#adadad"></path><path d="M290.8 242.3L263 284.3L302.8 274.7Z" fill="#492c6b" stroke="#adadad"></path><path d="M571 465.7L564.8 452.3L554.8 460Z" fill="#a7217e" stroke="#adadad"></path><path d="M554.8 460L564.8 452.3L543.3 451.3Z" fill="#001122" stroke="#adadad"></path><path d="M283.3 642.7L315.5 617.7L297.5 616Z" fill="#17224a" stroke="#adadad"></path><path d="M283.3 642.7L328.8 641L315.5 617.7Z" fill="#17224a" stroke="#adadad"></path><path d="M339.3 201.7L315 239L331.3 250.7Z" fill="#001122" stroke="#adadad"></path><path d="M331.3 250.7L315 239L302.8 274.7Z" fill="#001122" stroke="#adadad"></path><path d="M150 373L155.8 421.7L186.8 390.3Z" fill="#2e285c" stroke="#adadad"></path><path d="M202.3 571.3L280.3 558L251 515.7Z" fill="#ff0066" stroke="#adadad"></path><path d="M249.3 604.7L265.3 630.3L266.8 596.3Z" fill="#672c76" stroke="#adadad"></path><path d="M202.3 571.3L251 515.7L186.5 538.7Z" fill="#061b36" stroke="#adadad"></path><path d="M137.3 560.7L202.3 571.3L186.5 538.7Z" fill="#87297d" stroke="#adadad"></path><path d="M369.5 667L381.5 646.3L364 630Z" fill="#001122" stroke="#adadad"></path><path d="M364 630L381.5 646.3L398.3 615.7Z" fill="#672c76" stroke="#adadad"></path><path d="M469.3 622L457.8 567L423.5 587.7Z" fill="#c7147b" stroke="#adadad"></path><path d="M532.3 310.7L501.5 285.7L499.3 304.3Z" fill="#492c6b" stroke="#adadad"></path><path d="M499.3 304.3L501.5 285.7L434.5 304.3Z" fill="#a7217e" stroke="#adadad"></path><path d="M376.3 256.3L383 227L343.3 258Z" fill="#2e285c" stroke="#adadad"></path><path d="M315 239L290.8 242.3L302.8 274.7Z" fill="#2e285c" stroke="#adadad"></path><path d="M532.3 520.7L571 465.7L554.8 460Z" fill="#e50173" stroke="#adadad"></path><path d="M564.8 452.3L583 379L550.8 383.7Z" fill="#001122" stroke="#adadad"></path><path d="M469.3 622L423.5 587.7L451.5 649Z" fill="#17224a" stroke="#adadad"></path><path d="M589 503.3L589.5 480.7L571 465.7Z" fill="#2e285c" stroke="#adadad"></path><path d="M464.3 641.7L469.3 622L451.5 649Z" fill="#87297d" stroke="#adadad"></path><path d="M231 642.7L265.3 630.3L249.3 604.7Z" fill="#2e285c" stroke="#adadad"></path><path d="M397 194.7L451.8 190.3L422 182.3Z" fill="#c7147b" stroke="#adadad"></path><path d="M315 239L300.5 228L290.8 242.3Z" fill="#2e285c" stroke="#adadad"></path><path d="M213.8 306.3L177 330.3L189.8 344.7Z" fill="#a7217e" stroke="#adadad"></path><path d="M189.8 344.7L150 373L186.8 390.3Z" fill="#c7147b" stroke="#adadad"></path><path d="M187.3 296.3L177 330.3L213.8 306.3Z" fill="#a7217e" stroke="#adadad"></path><path d="M526.3 324L532.3 310.7L499.3 304.3Z" fill="#672c76" stroke="#adadad"></path><path d="M539 301.3L532.3 310.7L560.5 304.3Z" fill="#c7147b" stroke="#adadad"></path><path d="M165.5 314.3L173 333.7L177 330.3Z" fill="#492c6b" stroke="#adadad"></path><path d="M177 330.3L173 333.7L189.8 344.7Z" fill="#a7217e" stroke="#adadad"></path><path d="M290.8 242.3L247 255.3L263 284.3Z" fill="#001122" stroke="#adadad"></path><path d="M243.3 274L187.3 296.3L213.8 306.3Z" fill="#061b36" stroke="#adadad"></path><path d="M265.3 630.3L283.3 642.7L297.5 616Z" fill="#2e285c" stroke="#adadad"></path><path d="M328.8 641L369.5 667L364 630Z" fill="#a7217e" stroke="#adadad"></path><path d="M553.8 621L529.3 580.3L513 587Z" fill="#17224a" stroke="#adadad"></path><path d="M513 587L529.3 580.3L513 522.7Z" fill="#492c6b" stroke="#adadad"></path><path d="M303.5 225.3L300.5 228L315 239Z" fill="#a7217e" stroke="#adadad"></path><path d="M232.5 227L225.3 243.7L247 255.3Z" fill="#061b36" stroke="#adadad"></path><path d="M202.3 571.3L216.8 605.7L236 603.7Z" fill="#001122" stroke="#adadad"></path><path d="M236 603.7L231 642.7L249.3 604.7Z" fill="#2e285c" stroke="#adadad"></path><path d="M265.3 630.3L231 642.7L283.3 642.7Z" fill="#ff0066" stroke="#adadad"></path><path d="M216.5 615L216.8 605.7L165.5 605.3Z" fill="#672c76" stroke="#adadad"></path><path d="M173 333.7L150 373L189.8 344.7Z" fill="#061b36" stroke="#adadad"></path><path d="M339.3 201.7L303.5 225.3L315 239Z" fill="#87297d" stroke="#adadad"></path><path d="M259.8 221L247 255.3L290.8 242.3Z" fill="#492c6b" stroke="#adadad"></path><path d="M464.3 641.7L495 617.7L469.3 622Z" fill="#001122" stroke="#adadad"></path><path d="M469.3 622L495 617.7L457.8 567Z" fill="#87297d" stroke="#adadad"></path><path d="M560.5 304.3L526.3 324L542.8 370Z" fill="#87297d" stroke="#adadad"></path><path d="M532.3 310.7L539 301.3L501.5 285.7Z" fill="#672c76" stroke="#adadad"></path><path d="M501.5 285.7L507.5 231.3L419.8 276.7Z" fill="#001122" stroke="#adadad"></path><path d="M583 379L542.8 370L550.8 383.7Z" fill="#001122" stroke="#adadad"></path><path d="M225.3 243.7L187.3 296.3L243.3 274Z" fill="#492c6b" stroke="#adadad"></path><path d="M173 333.7L136 345L150 373Z" fill="#2e285c" stroke="#adadad"></path><path d="M451.5 649L423.5 587.7L398.3 615.7Z" fill="#672c76" stroke="#adadad"></path><path d="M165.5 605.3L216.8 605.7L202.3 571.3Z" fill="#87297d" stroke="#adadad"></path><path d="M216.8 605.7L216.5 615L236 603.7Z" fill="#a7217e" stroke="#adadad"></path><path d="M138.3 552L186.5 538.7L184 535.7Z" fill="#a7217e" stroke="#adadad"></path><path d="M325.3 676.3L369.5 667L328.8 641Z" fill="#061b36" stroke="#adadad"></path><path d="M381.5 646.3L451.5 649L398.3 615.7Z" fill="#2e285c" stroke="#adadad"></path><path d="M435.5 680.3L451.5 649L381.5 646.3Z" fill="#001122" stroke="#adadad"></path><path d="M598.5 465.3L583 379L564.8 452.3Z" fill="#17224a" stroke="#adadad"></path><path d="M589 503.3L571 465.7L532.3 520.7Z" fill="#061b36" stroke="#adadad"></path><path d="M571 465.7L598.5 465.3L564.8 452.3Z" fill="#c7147b" stroke="#adadad"></path><path d="M187.3 296.3L165.5 314.3L177 330.3Z" fill="#c7147b" stroke="#adadad"></path><path d="M539 301.3L517.5 265L501.5 285.7Z" fill="#e50173" stroke="#adadad"></path><path d="M573.5 574.7L589 503.3L532.3 520.7Z" fill="#a7217e" stroke="#adadad"></path><path d="M589 503.3L592.8 489.7L589.5 480.7Z" fill="#492c6b" stroke="#adadad"></path><path d="M589.5 480.7L598.5 465.3L571 465.7Z" fill="#2e285c" stroke="#adadad"></path><path d="M259.8 221L290.8 242.3L300.5 228Z" fill="#672c76" stroke="#adadad"></path><path d="M247 255.3L225.3 243.7L243.3 274Z" fill="#ff0066" stroke="#adadad"></path><path d="M187.3 296.3L176.8 272.7L165.5 314.3Z" fill="#87297d" stroke="#adadad"></path><path d="M592.8 489.7L598.5 465.3L589.5 480.7Z" fill="#492c6b" stroke="#adadad"></path><path d="M397 194.7L339.3 201.7L383 227Z" fill="#061b36" stroke="#adadad"></path><path d="M383 227L339.3 201.7L331.3 250.7Z" fill="#492c6b" stroke="#adadad"></path><path d="M301.8 189.7L259.8 221L300.5 228Z" fill="#87297d" stroke="#adadad"></path><path d="M322.3 703L325.3 676.3L252.3 700.3Z" fill="#2e285c" stroke="#adadad"></path><path d="M283.3 642.7L325.3 676.3L328.8 641Z" fill="#a7217e" stroke="#adadad"></path><path d="M539 301.3L538 266L517.5 265Z" fill="#2e285c" stroke="#adadad"></path><path d="M583 379L560.5 304.3L542.8 370Z" fill="#e50173" stroke="#adadad"></path><path d="M301.8 189.7L300.5 228L303.5 225.3Z" fill="#2e285c" stroke="#adadad"></path><path d="M216.5 615L231 642.7L236 603.7Z" fill="#061b36" stroke="#adadad"></path><path d="M165.5 314.3L136 345L173 333.7Z" fill="#492c6b" stroke="#adadad"></path><path d="M150 373L110 419.7L155.8 421.7Z" fill="#87297d" stroke="#adadad"></path><path d="M108 513L134.8 532L164.8 490.3Z" fill="#c7147b" stroke="#adadad"></path><path d="M105.3 335.7L136 345L122.3 283Z" fill="#ff0066" stroke="#adadad"></path><path d="M106.3 451L164.8 490.3L155.8 421.7Z" fill="#e50173" stroke="#adadad"></path><path d="M164.8 490.3L134.8 532L184 535.7Z" fill="#17224a" stroke="#adadad"></path><path d="M216.5 615L213.5 654.7L231 642.7Z" fill="#001122" stroke="#adadad"></path><path d="M356.3 706.3L397 681.7L369.5 667Z" fill="#17224a" stroke="#adadad"></path><path d="M369.5 667L397 681.7L381.5 646.3Z" fill="#492c6b" stroke="#adadad"></path><path d="M451.5 649L480.5 669L464.3 641.7Z" fill="#2e285c" stroke="#adadad"></path><path d="M325.3 168L322.5 195.7L339.3 201.7Z" fill="#e50173" stroke="#adadad"></path><path d="M339.3 201.7L322.5 195.7L303.5 225.3Z" fill="#ff0066" stroke="#adadad"></path><path d="M397 194.7L383 227L451.8 190.3Z" fill="#2e285c" stroke="#adadad"></path><path d="M574.5 281.3L538 266L539 301.3Z" fill="#17224a" stroke="#adadad"></path><path d="M517.5 265L507.5 231.3L501.5 285.7Z" fill="#a7217e" stroke="#adadad"></path><path d="M259.8 221L232.5 227L247 255.3Z" fill="#17224a" stroke="#adadad"></path><path d="M225.3 243.7L176.8 272.7L187.3 296.3Z" fill="#e50173" stroke="#adadad"></path><path d="M236.3 209L232.5 227L259.8 221Z" fill="#061b36" stroke="#adadad"></path><path d="M158.8 259L176.8 272.7L225.3 243.7Z" fill="#ff0066" stroke="#adadad"></path><path d="M134.8 532L138.3 552L184 535.7Z" fill="#492c6b" stroke="#adadad"></path><path d="M322.3 703L335.8 689.7L325.3 676.3Z" fill="#ff0066" stroke="#adadad"></path><path d="M325.3 676.3L335.8 689.7L369.5 667Z" fill="#ff0066" stroke="#adadad"></path><path d="M553.8 621L573.5 574.7L529.3 580.3Z" fill="#2e285c" stroke="#adadad"></path><path d="M529.3 580.3L573.5 574.7L532.3 520.7Z" fill="#ff0066" stroke="#adadad"></path><path d="M589 503.3L616.8 513.3L592.8 489.7Z" fill="#a7217e" stroke="#adadad"></path><path d="M592.8 489.7L630.3 499L598.5 465.3Z" fill="#2e285c" stroke="#adadad"></path><path d="M553.8 621L513 587L541 634.3Z" fill="#672c76" stroke="#adadad"></path><path d="M102.3 376.3L110 419.7L150 373Z" fill="#2e285c" stroke="#adadad"></path><path d="M124.3 544.3L137.3 560.7L138.3 552Z" fill="#672c76" stroke="#adadad"></path><path d="M418.8 716.3L435.5 680.3L397 681.7Z" fill="#a7217e" stroke="#adadad"></path><path d="M397 681.7L435.5 680.3L381.5 646.3Z" fill="#ff0066" stroke="#adadad"></path><path d="M464.3 641.7L480.5 669L495 617.7Z" fill="#001122" stroke="#adadad"></path><path d="M518 237.7L507.5 231.3L517.5 265Z" fill="#c7147b" stroke="#adadad"></path><path d="M124.3 544.3L138.3 552L134.8 532Z" fill="#ff0066" stroke="#adadad"></path><path d="M138.3 552L137.3 560.7L186.5 538.7Z" fill="#061b36" stroke="#adadad"></path><path d="M110 419.7L106.3 451L155.8 421.7Z" fill="#17224a" stroke="#adadad"></path><path d="M538 266L518 237.7L517.5 265Z" fill="#87297d" stroke="#adadad"></path><path d="M137.3 560.7L165.5 605.3L202.3 571.3Z" fill="#c7147b" stroke="#adadad"></path><path d="M325.3 168L301.8 189.7L322.5 195.7Z" fill="#001122" stroke="#adadad"></path><path d="M322.5 195.7L301.8 189.7L303.5 225.3Z" fill="#672c76" stroke="#adadad"></path><path d="M435.5 680.3L458.8 677.3L451.5 649Z" fill="#001122" stroke="#adadad"></path><path d="M458.8 677.3L480.5 669L451.5 649Z" fill="#e50173" stroke="#adadad"></path><path d="M108 513L124.3 544.3L134.8 532Z" fill="#672c76" stroke="#adadad"></path><path d="M137.3 560.7L155.8 611L165.5 605.3Z" fill="#672c76" stroke="#adadad"></path><path d="M169.8 658L213.5 654.7L216.5 615Z" fill="#e50173" stroke="#adadad"></path><path d="M231 642.7L252.3 700.3L283.3 642.7Z" fill="#c7147b" stroke="#adadad"></path><path d="M301.8 189.7L251 202.7L259.8 221Z" fill="#672c76" stroke="#adadad"></path><path d="M204.3 202.3L158.8 259L225.3 243.7Z" fill="#672c76" stroke="#adadad"></path><path d="M251 202.7L236.3 209L259.8 221Z" fill="#87297d" stroke="#adadad"></path><path d="M92.5 460.3L102 484.3L106.3 451Z" fill="#492c6b" stroke="#adadad"></path><path d="M106.3 451L102 484.3L164.8 490.3Z" fill="#c7147b" stroke="#adadad"></path><path d="M102 484.3L108 513L164.8 490.3Z" fill="#2e285c" stroke="#adadad"></path><path d="M522.5 193.7L501.3 215.7L507.5 231.3Z" fill="#492c6b" stroke="#adadad"></path><path d="M507.5 231.3L501.3 215.7L419.8 276.7Z" fill="#ff0066" stroke="#adadad"></path><path d="M451.8 190.3L383 227L419.8 276.7Z" fill="#492c6b" stroke="#adadad"></path><path d="M397 194.7L325.3 168L339.3 201.7Z" fill="#a7217e" stroke="#adadad"></path><path d="M541 634.3L513 587L495 617.7Z" fill="#492c6b" stroke="#adadad"></path><path d="M514.5 668.7L541 634.3L495 617.7Z" fill="#a7217e" stroke="#adadad"></path><path d="M501.3 215.7L451.8 190.3L419.8 276.7Z" fill="#17224a" stroke="#adadad"></path><path d="M560.5 304.3L574.5 281.3L539 301.3Z" fill="#061b36" stroke="#adadad"></path><path d="M538 266L547 237L518 237.7Z" fill="#492c6b" stroke="#adadad"></path><path d="M518 237.7L546.3 215.3L507.5 231.3Z" fill="#17224a" stroke="#adadad"></path><path d="M616.3 319.7L574.5 281.3L560.5 304.3Z" fill="#a7217e" stroke="#adadad"></path><path d="M614.8 324.3L560.5 304.3L583 379Z" fill="#492c6b" stroke="#adadad"></path><path d="M615.3 550.3L616.8 513.3L589 503.3Z" fill="#87297d" stroke="#adadad"></path><path d="M598.5 465.3L629.5 451L583 379Z" fill="#672c76" stroke="#adadad"></path><path d="M615.3 550.3L589 503.3L573.5 574.7Z" fill="#061b36" stroke="#adadad"></path><path d="M252.3 700.3L325.3 676.3L283.3 642.7Z" fill="#c7147b" stroke="#adadad"></path><path d="M335.8 689.7L356.3 706.3L369.5 667Z" fill="#001122" stroke="#adadad"></path><path d="M435.5 680.3L425 715.3L458.8 677.3Z" fill="#87297d" stroke="#adadad"></path><path d="M105.3 335.7L102.3 376.3L136 345Z" fill="#001122" stroke="#adadad"></path><path d="M136 345L102.3 376.3L150 373Z" fill="#17224a" stroke="#adadad"></path><path d="M91.3 419.7L92.5 460.3L106.3 451Z" fill="#e50173" stroke="#adadad"></path><path d="M322.3 703L356.3 706.3L335.8 689.7Z" fill="#672c76" stroke="#adadad"></path><path d="M104 572L155.8 611L137.3 560.7Z" fill="#e50173" stroke="#adadad"></path><path d="M165.5 605.3L169.8 658L216.5 615Z" fill="#492c6b" stroke="#adadad"></path><path d="M104 572L137.3 560.7L124.3 544.3Z" fill="#ff0066" stroke="#adadad"></path><path d="M630.3 499L629.5 451L598.5 465.3Z" fill="#a7217e" stroke="#adadad"></path><path d="M91.3 419.7L106.3 451L110 419.7Z" fill="#2e285c" stroke="#adadad"></path><path d="M102 484.3L90.5 527L108 513Z" fill="#87297d" stroke="#adadad"></path><path d="M91.3 416.3L91.3 419.7L110 419.7Z" fill="#672c76" stroke="#adadad"></path><path d="M102.3 376.3L91.3 416.3L110 419.7Z" fill="#17224a" stroke="#adadad"></path><path d="M204.3 202.3L225.3 243.7L232.5 227Z" fill="#87297d" stroke="#adadad"></path><path d="M176.8 272.7L122.3 283L165.5 314.3Z" fill="#672c76" stroke="#adadad"></path><path d="M251 202.7L241.3 193.7L236.3 209Z" fill="#87297d" stroke="#adadad"></path><path d="M236.3 209L204.3 202.3L232.5 227Z" fill="#c7147b" stroke="#adadad"></path><path d="M251.5 163.7L241.3 193.7L251 202.7Z" fill="#001122" stroke="#adadad"></path><path d="M485.8 703.7L506 672L480.5 669Z" fill="#e50173" stroke="#adadad"></path><path d="M480.5 669L506 672L495 617.7Z" fill="#672c76" stroke="#adadad"></path><path d="M541 634.3L549.3 655.3L553.8 621Z" fill="#a7217e" stroke="#adadad"></path><path d="M485.8 703.7L480.5 669L458.8 677.3Z" fill="#c7147b" stroke="#adadad"></path><path d="M367.5 119L325.3 168L397 194.7Z" fill="#2e285c" stroke="#adadad"></path><path d="M301.8 189.7L251.5 163.7L251 202.7Z" fill="#061b36" stroke="#adadad"></path><path d="M574.5 281.3L547 237L538 266Z" fill="#c7147b" stroke="#adadad"></path><path d="M436.5 156.3L422 182.3L451.8 190.3Z" fill="#061b36" stroke="#adadad"></path><path d="M624.5 544L630.3 499L616.8 513.3Z" fill="#492c6b" stroke="#adadad"></path><path d="M616.8 513.3L630.3 499L592.8 489.7Z" fill="#061b36" stroke="#adadad"></path><path d="M506 672L514.5 668.7L495 617.7Z" fill="#c7147b" stroke="#adadad"></path><path d="M122.3 283L136 345L165.5 314.3Z" fill="#492c6b" stroke="#adadad"></path><path d="M102.3 376.3L82.8 410.3L91.3 416.3Z" fill="#87297d" stroke="#adadad"></path><path d="M624.5 544L615.3 550.3L642.3 571.7Z" fill="#001122" stroke="#adadad"></path><path d="M623.5 577.3L615.3 550.3L573.5 574.7Z" fill="#001122" stroke="#adadad"></path><path d="M546.3 215.3L543.3 230L547 237Z" fill="#2e285c" stroke="#adadad"></path><path d="M547 237L543.3 230L518 237.7Z" fill="#c7147b" stroke="#adadad"></path><path d="M626.3 349.3L614.8 324.3L583 379Z" fill="#2e285c" stroke="#adadad"></path><path d="M574.5 281.3L591 272.3L547 237Z" fill="#061b36" stroke="#adadad"></path><path d="M67.5 370.3L82.8 410.3L102.3 376.3Z" fill="#17224a" stroke="#adadad"></path><path d="M91.3 416.3L82.8 410.3L91.3 419.7Z" fill="#492c6b" stroke="#adadad"></path><path d="M91.3 419.7L25.5 434L92.5 460.3Z" fill="#17224a" stroke="#adadad"></path><path d="M646.5 385.7L626.3 349.3L583 379Z" fill="#492c6b" stroke="#adadad"></path><path d="M626.3 349.3L616.3 319.7L614.8 324.3Z" fill="#492c6b" stroke="#adadad"></path><path d="M614.8 324.3L616.3 319.7L560.5 304.3Z" fill="#a7217e" stroke="#adadad"></path><path d="M512 709.3L525.3 669L514.5 668.7Z" fill="#c7147b" stroke="#adadad"></path><path d="M514.5 668.7L525.3 669L541 634.3Z" fill="#87297d" stroke="#adadad"></path><path d="M512 709.3L514.5 668.7L506 672Z" fill="#2e285c" stroke="#adadad"></path><path d="M233 709L252.3 700.3L213.5 654.7Z" fill="#17224a" stroke="#adadad"></path><path d="M213.5 654.7L252.3 700.3L231 642.7Z" fill="#492c6b" stroke="#adadad"></path><path d="M373 728L397 681.7L356.3 706.3Z" fill="#c7147b" stroke="#adadad"></path><path d="M373 728L356.3 706.3L342.3 755.7Z" fill="#87297d" stroke="#adadad"></path><path d="M373 728L418.8 716.3L397 681.7Z" fill="#2e285c" stroke="#adadad"></path><path d="M418.8 716.3L425 715.3L435.5 680.3Z" fill="#061b36" stroke="#adadad"></path><path d="M623.5 577.3L573.5 574.7L619.8 597.7Z" fill="#061b36" stroke="#adadad"></path><path d="M615.3 550.3L624.5 544L616.8 513.3Z" fill="#061b36" stroke="#adadad"></path><path d="M609.8 281.7L591 272.3L574.5 281.3Z" fill="#c7147b" stroke="#adadad"></path><path d="M185.8 178L204.3 202.3L241.3 193.7Z" fill="#ff0066" stroke="#adadad"></path><path d="M241.3 193.7L204.3 202.3L236.3 209Z" fill="#e50173" stroke="#adadad"></path><path d="M436.5 156.3L413.8 160L422 182.3Z" fill="#492c6b" stroke="#adadad"></path><path d="M422 182.3L413.8 160L397 194.7Z" fill="#c7147b" stroke="#adadad"></path><path d="M482.8 173.7L451.8 190.3L501.3 215.7Z" fill="#c7147b" stroke="#adadad"></path><path d="M69.3 537L90.5 527L50.5 507.3Z" fill="#061b36" stroke="#adadad"></path><path d="M108 513L90.5 527L124.3 544.3Z" fill="#2e285c" stroke="#adadad"></path><path d="M90.5 527L102 484.3L50.5 507.3Z" fill="#2e285c" stroke="#adadad"></path><path d="M125 245.7L122.3 283L158.8 259Z" fill="#672c76" stroke="#adadad"></path><path d="M158.8 259L122.3 283L176.8 272.7Z" fill="#061b36" stroke="#adadad"></path><path d="M525.3 669L549.3 655.3L541 634.3Z" fill="#c7147b" stroke="#adadad"></path><path d="M380 755.7L373 728L342.3 755.7Z" fill="#87297d" stroke="#adadad"></path><path d="M418.8 716.3L440.8 733.7L425 715.3Z" fill="#a7217e" stroke="#adadad"></path><path d="M90.5 527L104 572L124.3 544.3Z" fill="#672c76" stroke="#adadad"></path><path d="M155.8 611L169.8 658L165.5 605.3Z" fill="#c7147b" stroke="#adadad"></path><path d="M662.3 382.3L646.5 385.7L675 416.7Z" fill="#ff0066" stroke="#adadad"></path><path d="M629.5 451L646.5 385.7L583 379Z" fill="#ff0066" stroke="#adadad"></path><path d="M675 297.7L609.8 281.7L616.3 319.7Z" fill="#87297d" stroke="#adadad"></path><path d="M646.5 385.7L629.5 451L675 420Z" fill="#061b36" stroke="#adadad"></path><path d="M160 671L169.8 658L118.3 649.3Z" fill="#672c76" stroke="#adadad"></path><path d="M600.5 221.7L546.3 215.3L547 237Z" fill="#2e285c" stroke="#adadad"></path><path d="M543.3 230L546.3 215.3L518 237.7Z" fill="#001122" stroke="#adadad"></path><path d="M440.8 733.7L485.8 703.7L458.8 677.3Z" fill="#001122" stroke="#adadad"></path><path d="M579.5 685.7L582.8 645.7L549.3 655.3Z" fill="#492c6b" stroke="#adadad"></path><path d="M440.8 733.7L458.8 677.3L425 715.3Z" fill="#672c76" stroke="#adadad"></path><path d="M517.5 180L482.8 173.7L501.3 215.7Z" fill="#ff0066" stroke="#adadad"></path><path d="M482.8 173.7L436.5 156.3L451.8 190.3Z" fill="#17224a" stroke="#adadad"></path><path d="M317.5 144.3L301.8 189.7L325.3 168Z" fill="#492c6b" stroke="#adadad"></path><path d="M546.3 215.3L522.5 193.7L507.5 231.3Z" fill="#001122" stroke="#adadad"></path><path d="M612.8 269L609.8 281.7L675 297.7Z" fill="#492c6b" stroke="#adadad"></path><path d="M616.3 319.7L609.8 281.7L574.5 281.3Z" fill="#c7147b" stroke="#adadad"></path><path d="M591 272.3L597.8 263.3L547 237Z" fill="#2e285c" stroke="#adadad"></path><path d="M603.5 269L597.8 263.3L591 272.3Z" fill="#2e285c" stroke="#adadad"></path><path d="M619.8 597.7L573.5 574.7L603.8 636.3Z" fill="#492c6b" stroke="#adadad"></path><path d="M624.5 544L675 522L630.3 499Z" fill="#492c6b" stroke="#adadad"></path><path d="M609.8 281.7L603.5 269L591 272.3Z" fill="#061b36" stroke="#adadad"></path><path d="M317.5 144.3L325.3 168L367.5 119Z" fill="#e50173" stroke="#adadad"></path><path d="M278.8 143.3L251.5 163.7L301.8 189.7Z" fill="#87297d" stroke="#adadad"></path><path d="M202.8 712.7L233 709L213.5 654.7Z" fill="#17224a" stroke="#adadad"></path><path d="M252.3 700.3L267.8 742L322.3 703Z" fill="#17224a" stroke="#adadad"></path><path d="M367.5 119L397 194.7L413.8 160Z" fill="#ff0066" stroke="#adadad"></path><path d="M61.8 364.3L67.5 370.3L66.5 330Z" fill="#17224a" stroke="#adadad"></path><path d="M105.3 335.7L67.5 370.3L102.3 376.3Z" fill="#061b36" stroke="#adadad"></path><path d="M50.5 507.3L102 484.3L45.5 490.7Z" fill="#c7147b" stroke="#adadad"></path><path d="M579.5 685.7L549.3 655.3L525.3 669Z" fill="#87297d" stroke="#adadad"></path><path d="M549.3 655.3L582.8 645.7L553.8 621Z" fill="#672c76" stroke="#adadad"></path><path d="M537.8 165L517.5 180L522.5 193.7Z" fill="#001122" stroke="#adadad"></path><path d="M522.5 193.7L517.5 180L501.3 215.7Z" fill="#001122" stroke="#adadad"></path><path d="M425.8 117.3L407.3 127.3L436.5 156.3Z" fill="#492c6b" stroke="#adadad"></path><path d="M537.8 165L522.5 193.7L546.3 215.3Z" fill="#e50173" stroke="#adadad"></path><path d="M600.5 221.7L547 237L597.8 263.3Z" fill="#17224a" stroke="#adadad"></path><path d="M603.8 636.3L573.5 574.7L553.8 621Z" fill="#87297d" stroke="#adadad"></path><path d="M609.8 281.7L612.8 269L603.5 269Z" fill="#061b36" stroke="#adadad"></path><path d="M603.5 269L609.3 256L597.8 263.3Z" fill="#672c76" stroke="#adadad"></path><path d="M675 334L616.3 319.7L626.3 349.3Z" fill="#672c76" stroke="#adadad"></path><path d="M390 763L440.8 733.7L418.8 716.3Z" fill="#a7217e" stroke="#adadad"></path><path d="M485.8 703.7L512 709.3L506 672Z" fill="#87297d" stroke="#adadad"></path><path d="M143 191L125 245.7L158.8 259Z" fill="#ff0066" stroke="#adadad"></path><path d="M66.5 330L67.5 370.3L105.3 335.7Z" fill="#2e285c" stroke="#adadad"></path><path d="M168.5 186.3L158.8 259L204.3 202.3Z" fill="#17224a" stroke="#adadad"></path><path d="M625.5 607L625.5 594.3L619.8 597.7Z" fill="#2e285c" stroke="#adadad"></path><path d="M619.8 597.7L625.5 594.3L623.5 577.3Z" fill="#061b36" stroke="#adadad"></path><path d="M623.5 577.3L642.3 571.7L615.3 550.3Z" fill="#492c6b" stroke="#adadad"></path><path d="M675 420L629.5 451L685.3 429.7Z" fill="#672c76" stroke="#adadad"></path><path d="M646.5 385.7L662.3 382.3L626.3 349.3Z" fill="#a7217e" stroke="#adadad"></path><path d="M118.3 649.3L169.8 658L155.8 611Z" fill="#c7147b" stroke="#adadad"></path><path d="M169.8 658L202.8 712.7L213.5 654.7Z" fill="#ff0066" stroke="#adadad"></path><path d="M317.5 144.3L278.8 143.3L301.8 189.7Z" fill="#492c6b" stroke="#adadad"></path><path d="M192.8 148.7L185.8 178L241.3 193.7Z" fill="#672c76" stroke="#adadad"></path><path d="M102 484.3L92.5 460.3L45.5 490.7Z" fill="#2e285c" stroke="#adadad"></path><path d="M90.5 527L69.3 537L104 572Z" fill="#ff0066" stroke="#adadad"></path><path d="M96 629.3L118.3 649.3L155.8 611Z" fill="#492c6b" stroke="#adadad"></path><path d="M610.3 229L609.3 256L632.5 214.7Z" fill="#672c76" stroke="#adadad"></path><path d="M612.8 269L609.3 256L603.5 269Z" fill="#492c6b" stroke="#adadad"></path><path d="M66.5 330L105.3 335.7L61.5 298.7Z" fill="#c7147b" stroke="#adadad"></path><path d="M25.5 415.7L25.5 434L82.8 410.3Z" fill="#492c6b" stroke="#adadad"></path><path d="M511.3 727.3L512 709.3L485.8 703.7Z" fill="#a7217e" stroke="#adadad"></path><path d="M625.5 594.3L642.3 571.7L623.5 577.3Z" fill="#2e285c" stroke="#adadad"></path><path d="M608.3 681.3L603.8 636.3L582.8 645.7Z" fill="#492c6b" stroke="#adadad"></path><path d="M582.8 645.7L603.8 636.3L553.8 621Z" fill="#001122" stroke="#adadad"></path><path d="M625.5 594.3L675 585.7L642.3 571.7Z" fill="#2e285c" stroke="#adadad"></path><path d="M603.8 636.3L625.5 607L619.8 597.7Z" fill="#061b36" stroke="#adadad"></path><path d="M61.5 298.7L105.3 335.7L122.3 283Z" fill="#001122" stroke="#adadad"></path><path d="M685.3 429.7L629.5 451L630.3 499Z" fill="#672c76" stroke="#adadad"></path><path d="M675 420L675 416.7L646.5 385.7Z" fill="#492c6b" stroke="#adadad"></path><path d="M192.8 148.7L241.3 193.7L251.5 163.7Z" fill="#672c76" stroke="#adadad"></path><path d="M462.3 137.3L436.5 156.3L482.8 173.7Z" fill="#17224a" stroke="#adadad"></path><path d="M436.5 156.3L407.3 127.3L413.8 160Z" fill="#2e285c" stroke="#adadad"></path><path d="M317.5 144.3L308.8 126L278.8 143.3Z" fill="#87297d" stroke="#adadad"></path><path d="M160 671L202.8 712.7L169.8 658Z" fill="#672c76" stroke="#adadad"></path><path d="M233 709L267.8 742L252.3 700.3Z" fill="#061b36" stroke="#adadad"></path><path d="M254 758.3L267.8 742L233 709Z" fill="#a7217e" stroke="#adadad"></path><path d="M373 728L380 755.7L418.8 716.3Z" fill="#c7147b" stroke="#adadad"></path><path d="M342.3 755.7L356.3 706.3L322.3 703Z" fill="#492c6b" stroke="#adadad"></path><path d="M482.8 746L511.3 727.3L485.8 703.7Z" fill="#17224a" stroke="#adadad"></path><path d="M323.8 762L342.3 755.7L322.3 703Z" fill="#87297d" stroke="#adadad"></path><path d="M202.8 712.7L216.3 722L233 709Z" fill="#ff0066" stroke="#adadad"></path><path d="M267.8 742L294.8 750.3L322.3 703Z" fill="#17224a" stroke="#adadad"></path><path d="M317 122.3L308.8 126L317.5 144.3Z" fill="#a7217e" stroke="#adadad"></path><path d="M208.8 121L192.8 148.7L251.5 163.7Z" fill="#672c76" stroke="#adadad"></path><path d="M45.5 490.7L92.5 460.3L25.5 434Z" fill="#a7217e" stroke="#adadad"></path><path d="M185.8 178L168.5 186.3L204.3 202.3Z" fill="#492c6b" stroke="#adadad"></path><path d="M535 115.7L462.3 137.3L482.8 173.7Z" fill="#17224a" stroke="#adadad"></path><path d="M680.3 393L675 381.3L662.3 382.3Z" fill="#ff0066" stroke="#adadad"></path><path d="M662.3 382.3L675 371.7L626.3 349.3Z" fill="#001122" stroke="#adadad"></path><path d="M25.5 434L91.3 419.7L82.8 410.3Z" fill="#87297d" stroke="#adadad"></path><path d="M367.5 119L317 122.3L317.5 144.3Z" fill="#2e285c" stroke="#adadad"></path><path d="M139.8 187.3L135.3 161L128 169.3Z" fill="#672c76" stroke="#adadad"></path><path d="M398.3 111.7L367.5 119L407.3 127.3Z" fill="#c7147b" stroke="#adadad"></path><path d="M407.3 127.3L367.5 119L413.8 160Z" fill="#c7147b" stroke="#adadad"></path><path d="M96 629.3L104 572L73.5 598.3Z" fill="#a7217e" stroke="#adadad"></path><path d="M96 629.3L155.8 611L104 572Z" fill="#492c6b" stroke="#adadad"></path><path d="M167.5 717.7L192.5 721L202.8 712.7Z" fill="#87297d" stroke="#adadad"></path><path d="M675 381.3L675 371.7L662.3 382.3Z" fill="#672c76" stroke="#adadad"></path><path d="M675 416.7L680.3 393L662.3 382.3Z" fill="#001122" stroke="#adadad"></path><path d="M675 381.3L680.3 393L675 371.7Z" fill="#2e285c" stroke="#adadad"></path><path d="M685.3 429.7L680.3 393L675 416.7Z" fill="#17224a" stroke="#adadad"></path><path d="M610.3 229L600.5 221.7L609.3 256Z" fill="#001122" stroke="#adadad"></path><path d="M609.3 256L600.5 221.7L597.8 263.3Z" fill="#061b36" stroke="#adadad"></path><path d="M517.5 180L537.8 165L482.8 173.7Z" fill="#672c76" stroke="#adadad"></path><path d="M675 522L685.3 429.7L630.3 499Z" fill="#492c6b" stroke="#adadad"></path><path d="M675 420L685.3 429.7L675 416.7Z" fill="#672c76" stroke="#adadad"></path><path d="M45.5 490.7L42.8 501L50.5 507.3Z" fill="#a7217e" stroke="#adadad"></path><path d="M0.8 558.3L41.5 608.7L69.3 537Z" fill="#87297d" stroke="#adadad"></path><path d="M13.8 481.7L42.8 501L45.5 490.7Z" fill="#a7217e" stroke="#adadad"></path><path d="M82.8 410.3L67.5 370.3L25.5 415.7Z" fill="#061b36" stroke="#adadad"></path><path d="M675 541.3L624.5 544L642.3 571.7Z" fill="#2e285c" stroke="#adadad"></path><path d="M675 541.3L675 522L624.5 544Z" fill="#492c6b" stroke="#adadad"></path><path d="M482.8 746L485.8 703.7L440.8 733.7Z" fill="#87297d" stroke="#adadad"></path><path d="M512 709.3L579.5 685.7L525.3 669Z" fill="#c7147b" stroke="#adadad"></path><path d="M324.5 776.3L323.8 762L294.8 750.3Z" fill="#87297d" stroke="#adadad"></path><path d="M294.8 750.3L323.8 762L322.3 703Z" fill="#2e285c" stroke="#adadad"></path><path d="M379.3 788.3L390 763L380 755.7Z" fill="#e50173" stroke="#adadad"></path><path d="M379.3 788.3L380 755.7L370 791.3Z" fill="#87297d" stroke="#adadad"></path><path d="M380 755.7L390 763L418.8 716.3Z" fill="#ff0066" stroke="#adadad"></path><path d="M73.5 598.3L104 572L69.3 537Z" fill="#e50173" stroke="#adadad"></path><path d="M632.5 214.7L609.3 256L666.3 246.7Z" fill="#061b36" stroke="#adadad"></path><path d="M594.3 205.7L546.3 215.3L600.5 221.7Z" fill="#061b36" stroke="#adadad"></path><path d="M594.3 205.7L537.8 165L546.3 215.3Z" fill="#87297d" stroke="#adadad"></path><path d="M167.5 717.7L202.8 712.7L160 671Z" fill="#87297d" stroke="#adadad"></path><path d="M202.8 712.7L212.5 733.3L216.3 722Z" fill="#ff0066" stroke="#adadad"></path><path d="M216.3 722L254 758.3L233 709Z" fill="#2e285c" stroke="#adadad"></path><path d="M267.8 742L274 761.7L294.8 750.3Z" fill="#492c6b" stroke="#adadad"></path><path d="M121.8 674.3L160 671L118.3 649.3Z" fill="#e50173" stroke="#adadad"></path><path d="M420.8 98.7L425.8 117.3L457.5 76Z" fill="#c7147b" stroke="#adadad"></path><path d="M462.3 137.3L425.8 117.3L436.5 156.3Z" fill="#e50173" stroke="#adadad"></path><path d="M50.8 623.7L73.5 598.3L41.5 608.7Z" fill="#c7147b" stroke="#adadad"></path><path d="M573.8 721.3L579.5 685.7L512 709.3Z" fill="#c7147b" stroke="#adadad"></path><path d="M675 585.7L625.5 594.3L625.5 607Z" fill="#061b36" stroke="#adadad"></path><path d="M192.5 721L212.5 733.3L202.8 712.7Z" fill="#2e285c" stroke="#adadad"></path><path d="M473.5 775.7L482.8 746L440.8 733.7Z" fill="#c7147b" stroke="#adadad"></path><path d="M511.3 727.3L573.8 721.3L512 709.3Z" fill="#87297d" stroke="#adadad"></path><path d="M675 557L675 585.7L681.3 569Z" fill="#ff0066" stroke="#adadad"></path><path d="M675 557L675 541.3L642.3 571.7Z" fill="#492c6b" stroke="#adadad"></path><path d="M675 522L681.3 569L685.3 429.7Z" fill="#2e285c" stroke="#adadad"></path><path d="M425.8 117.3L398.3 111.7L407.3 127.3Z" fill="#c7147b" stroke="#adadad"></path><path d="M367.5 119L308.5 76.7L317 122.3Z" fill="#672c76" stroke="#adadad"></path><path d="M632.5 214.7L594.3 205.7L600.5 221.7Z" fill="#87297d" stroke="#adadad"></path><path d="M168.5 186.3L185.8 178L167 134Z" fill="#061b36" stroke="#adadad"></path><path d="M139.8 187.3L143 191L168.5 186.3Z" fill="#061b36" stroke="#adadad"></path><path d="M168.5 186.3L143 191L158.8 259Z" fill="#001122" stroke="#adadad"></path><path d="M84 241.3L61.5 298.7L122.3 283Z" fill="#e50173" stroke="#adadad"></path><path d="M680.3 393L675 334L675 371.7Z" fill="#17224a" stroke="#adadad"></path><path d="M675 371.7L675 334L626.3 349.3Z" fill="#672c76" stroke="#adadad"></path><path d="M675 313.3L675 334L680.3 393Z" fill="#2e285c" stroke="#adadad"></path><path d="M84 241.3L122.3 283L125 245.7Z" fill="#001122" stroke="#adadad"></path><path d="M0 395.7L25.5 415.7L0 389Z" fill="#672c76" stroke="#adadad"></path><path d="M420.8 98.7L388.3 107L398.3 111.7Z" fill="#061b36" stroke="#adadad"></path><path d="M398.3 111.7L388.3 107L367.5 119Z" fill="#672c76" stroke="#adadad"></path><path d="M254 758.3L274 761.7L267.8 742Z" fill="#17224a" stroke="#adadad"></path><path d="M323.8 762L324.5 776.3L342.3 755.7Z" fill="#061b36" stroke="#adadad"></path><path d="M675 557L642.3 571.7L675 585.7Z" fill="#492c6b" stroke="#adadad"></path><path d="M675 541.3L681.3 569L675 522Z" fill="#c7147b" stroke="#adadad"></path><path d="M115.3 687.3L121.8 674.3L84.5 659Z" fill="#ff0066" stroke="#adadad"></path><path d="M121.8 674.3L118.3 649.3L84.5 659Z" fill="#492c6b" stroke="#adadad"></path><path d="M251.5 163.7L278.8 143.3L257 109Z" fill="#492c6b" stroke="#adadad"></path><path d="M143 191L110 214.7L125 245.7Z" fill="#061b36" stroke="#adadad"></path><path d="M25.5 415.7L67.5 370.3L61.8 364.3Z" fill="#ff0066" stroke="#adadad"></path><path d="M283.3 105L278.8 143.3L308.8 126Z" fill="#001122" stroke="#adadad"></path><path d="M283.3 105L308.8 126L317 122.3Z" fill="#492c6b" stroke="#adadad"></path><path d="M212.5 733.3L254 758.3L216.3 722Z" fill="#87297d" stroke="#adadad"></path><path d="M17.8 331.7L61.8 364.3L66.5 330Z" fill="#e50173" stroke="#adadad"></path><path d="M139.8 187.3L110 214.7L143 191Z" fill="#17224a" stroke="#adadad"></path><path d="M675 297.7L675 313.3L680.3 393Z" fill="#2e285c" stroke="#adadad"></path><path d="M675 334L675 313.3L616.3 319.7Z" fill="#ff0066" stroke="#adadad"></path><path d="M610.3 229L632.5 214.7L600.5 221.7Z" fill="#a7217e" stroke="#adadad"></path><path d="M351.5 793.7L324.5 776.3L332.5 825.7Z" fill="#001122" stroke="#adadad"></path><path d="M274 761.7L324.5 776.3L294.8 750.3Z" fill="#a7217e" stroke="#adadad"></path><path d="M506.3 752.7L510.5 745.3L482.8 746Z" fill="#2e285c" stroke="#adadad"></path><path d="M146 716.7L167.5 717.7L160 671Z" fill="#c7147b" stroke="#adadad"></path><path d="M192.5 721L181 753.3L212.5 733.3Z" fill="#672c76" stroke="#adadad"></path><path d="M212.5 733.3L225.3 776.7L254 758.3Z" fill="#ff0066" stroke="#adadad"></path><path d="M506.3 752.7L482.8 746L473.5 775.7Z" fill="#17224a" stroke="#adadad"></path><path d="M482.8 746L510.5 745.3L511.3 727.3Z" fill="#e50173" stroke="#adadad"></path><path d="M89.5 226L84 241.3L125 245.7Z" fill="#e50173" stroke="#adadad"></path><path d="M80.3 168.3L101.3 218.7L110 214.7Z" fill="#17224a" stroke="#adadad"></path><path d="M110 214.7L101.3 218.7L125 245.7Z" fill="#ff0066" stroke="#adadad"></path><path d="M308.5 76.7L283.3 105L317 122.3Z" fill="#17224a" stroke="#adadad"></path><path d="M685.3 429.7L675 297.7L680.3 393Z" fill="#17224a" stroke="#adadad"></path><path d="M675 313.3L675 297.7L616.3 319.7Z" fill="#061b36" stroke="#adadad"></path><path d="M473.5 775.7L440.8 733.7L390 763Z" fill="#2e285c" stroke="#adadad"></path><path d="M598.3 692.3L608.3 681.3L579.5 685.7Z" fill="#672c76" stroke="#adadad"></path><path d="M675 652.7L625.5 607L603.8 636.3Z" fill="#001122" stroke="#adadad"></path><path d="M675 557L681.3 569L675 541.3Z" fill="#e50173" stroke="#adadad"></path><path d="M51.3 205.3L89.5 226L80.3 168.3Z" fill="#672c76" stroke="#adadad"></path><path d="M101.3 218.7L89.5 226L125 245.7Z" fill="#492c6b" stroke="#adadad"></path><path d="M84 241.3L50.8 275L61.5 298.7Z" fill="#492c6b" stroke="#adadad"></path><path d="M598.3 692.3L579.5 685.7L573.8 721.3Z" fill="#001122" stroke="#adadad"></path><path d="M579.5 685.7L608.3 681.3L582.8 645.7Z" fill="#a7217e" stroke="#adadad"></path><path d="M457.5 76L425.8 117.3L462.3 137.3Z" fill="#ff0066" stroke="#adadad"></path><path d="M425.8 117.3L420.8 98.7L398.3 111.7Z" fill="#e50173" stroke="#adadad"></path><path d="M279.3 59.7L257 93.7L283.3 105Z" fill="#e50173" stroke="#adadad"></path><path d="M675 620.3L675 585.7L625.5 607Z" fill="#a7217e" stroke="#adadad"></path><path d="M573.8 721.3L511.3 727.3L510.5 745.3Z" fill="#17224a" stroke="#adadad"></path><path d="M283.3 105L257 109L278.8 143.3Z" fill="#c7147b" stroke="#adadad"></path><path d="M84.5 659L118.3 649.3L96 629.3Z" fill="#e50173" stroke="#adadad"></path><path d="M121.8 674.3L146 716.7L160 671Z" fill="#87297d" stroke="#adadad"></path><path d="M370 791.3L380 755.7L342.3 755.7Z" fill="#001122" stroke="#adadad"></path><path d="M0 440.3L13.8 481.7L25.5 434Z" fill="#672c76" stroke="#adadad"></path><path d="M25.5 434L13.8 481.7L45.5 490.7Z" fill="#492c6b" stroke="#adadad"></path><path d="M41.5 608.7L73.5 598.3L69.3 537Z" fill="#17224a" stroke="#adadad"></path><path d="M73.5 598.3L72.8 642L96 629.3Z" fill="#2e285c" stroke="#adadad"></path><path d="M115.3 687.3L146 716.7L121.8 674.3Z" fill="#061b36" stroke="#adadad"></path><path d="M167.5 717.7L181 753.3L192.5 721Z" fill="#87297d" stroke="#adadad"></path><path d="M64.5 236.3L50.8 275L84 241.3Z" fill="#492c6b" stroke="#adadad"></path><path d="M61.5 298.7L17.8 331.7L66.5 330Z" fill="#001122" stroke="#adadad"></path><path d="M351.5 793.7L370 791.3L342.3 755.7Z" fill="#e50173" stroke="#adadad"></path><path d="M466.8 799L473.5 775.7L390 763Z" fill="#ff0066" stroke="#adadad"></path><path d="M351.5 793.7L342.3 755.7L324.5 776.3Z" fill="#e50173" stroke="#adadad"></path><path d="M666.3 246.7L609.3 256L612.8 269Z" fill="#492c6b" stroke="#adadad"></path><path d="M610.3 123L535 115.7L537.8 165Z" fill="#061b36" stroke="#adadad"></path><path d="M537.8 165L535 115.7L482.8 173.7Z" fill="#87297d" stroke="#adadad"></path><path d="M50.8 623.7L72.8 642L73.5 598.3Z" fill="#492c6b" stroke="#adadad"></path><path d="M578.8 744.7L573.8 721.3L510.5 745.3Z" fill="#001122" stroke="#adadad"></path><path d="M620.8 718L629.3 677L608.3 681.3Z" fill="#87297d" stroke="#adadad"></path><path d="M257 109L208.8 121L251.5 163.7Z" fill="#001122" stroke="#adadad"></path><path d="M135.3 161L139.8 187.3L168.5 186.3Z" fill="#a7217e" stroke="#adadad"></path><path d="M139.8 187.3L128 169.3L110 214.7Z" fill="#87297d" stroke="#adadad"></path><path d="M72.8 642L84.5 659L96 629.3Z" fill="#061b36" stroke="#adadad"></path><path d="M102.3 707.7L145.3 721.7L146 716.7Z" fill="#492c6b" stroke="#adadad"></path><path d="M286.8 811.7L324.5 776.3L274 761.7Z" fill="#001122" stroke="#adadad"></path><path d="M466.8 799L390 763L379.3 788.3Z" fill="#a7217e" stroke="#adadad"></path><path d="M565.5 771.7L578.8 744.7L510.5 745.3Z" fill="#492c6b" stroke="#adadad"></path><path d="M208.8 121L186.3 130.3L192.8 148.7Z" fill="#87297d" stroke="#adadad"></path><path d="M102.3 707.7L146 716.7L115.3 687.3Z" fill="#c7147b" stroke="#adadad"></path><path d="M146 716.7L145.3 721.7L167.5 717.7Z" fill="#001122" stroke="#adadad"></path><path d="M254 758.3L230.3 789L274 761.7Z" fill="#e50173" stroke="#adadad"></path><path d="M135.3 161L168.5 186.3L167 134Z" fill="#672c76" stroke="#adadad"></path><path d="M89.5 226L64.5 236.3L84 241.3Z" fill="#001122" stroke="#adadad"></path><path d="M650.3 680.7L629.3 677L651.5 693Z" fill="#87297d" stroke="#adadad"></path><path d="M608.3 681.3L629.3 677L603.8 636.3Z" fill="#672c76" stroke="#adadad"></path><path d="M167 134L185.8 178L192.8 148.7Z" fill="#061b36" stroke="#adadad"></path><path d="M89.5 226L101.3 218.7L80.3 168.3Z" fill="#e50173" stroke="#adadad"></path><path d="M51.3 205.3L64.5 236.3L89.5 226Z" fill="#c7147b" stroke="#adadad"></path><path d="M0 312.3L61.5 298.7L50.8 275Z" fill="#061b36" stroke="#adadad"></path><path d="M0 312.3L17.8 331.7L61.5 298.7Z" fill="#87297d" stroke="#adadad"></path><path d="M25.5 415.7L0 440.3L25.5 434Z" fill="#a7217e" stroke="#adadad"></path><path d="M675 297.7L666.3 246.7L612.8 269Z" fill="#672c76" stroke="#adadad"></path><path d="M72.8 642L48.5 694.3L84.5 659Z" fill="#e50173" stroke="#adadad"></path><path d="M69.3 537L50.5 507.3L0.8 558.3Z" fill="#672c76" stroke="#adadad"></path><path d="M0 395.7L0 440.3L25.5 415.7Z" fill="#ff0066" stroke="#adadad"></path><path d="M0 514.3L50.5 507.3L42.8 501Z" fill="#672c76" stroke="#adadad"></path><path d="M257 109L202.5 105.3L208.8 121Z" fill="#e50173" stroke="#adadad"></path><path d="M174.5 98L167 134L186.3 130.3Z" fill="#c7147b" stroke="#adadad"></path><path d="M283.3 105L257 93.7L257 109Z" fill="#061b36" stroke="#adadad"></path><path d="M308.5 76.7L367.5 119L342.3 44.3Z" fill="#e50173" stroke="#adadad"></path><path d="M0 507L42.8 501L13.8 481.7Z" fill="#2e285c" stroke="#adadad"></path><path d="M145.3 721.7L181 753.3L167.5 717.7Z" fill="#e50173" stroke="#adadad"></path><path d="M186.3 130.3L167 134L192.8 148.7Z" fill="#2e285c" stroke="#adadad"></path><path d="M202.5 105.3L186.3 130.3L208.8 121Z" fill="#17224a" stroke="#adadad"></path><path d="M675 652.7L675 620.3L625.5 607Z" fill="#2e285c" stroke="#adadad"></path><path d="M675 585.7L675 620.3L681.3 569Z" fill="#001122" stroke="#adadad"></path><path d="M181 753.3L190.8 760.3L212.5 733.3Z" fill="#a7217e" stroke="#adadad"></path><path d="M151 801.3L168 804L181 753.3Z" fill="#e50173" stroke="#adadad"></path><path d="M84.5 659L102.5 694.7L115.3 687.3Z" fill="#492c6b" stroke="#adadad"></path><path d="M102.3 707.7L102.5 694.7L63.3 711Z" fill="#a7217e" stroke="#adadad"></path><path d="M190.8 760.3L225.3 776.7L212.5 733.3Z" fill="#ff0066" stroke="#adadad"></path><path d="M0 389L25.5 415.7L61.8 364.3Z" fill="#c7147b" stroke="#adadad"></path><path d="M0 440.3L0 487.7L13.8 481.7Z" fill="#492c6b" stroke="#adadad"></path><path d="M17.8 331.7L0 389L61.8 364.3Z" fill="#ff0066" stroke="#adadad"></path><path d="M379 50L367.5 119L388.3 107Z" fill="#c7147b" stroke="#adadad"></path><path d="M0 487.7L0 507L13.8 481.7Z" fill="#e50173" stroke="#adadad"></path><path d="M522.3 101L538.3 71.7L518 80Z" fill="#001122" stroke="#adadad"></path><path d="M614.8 149.7L537.8 165L594.3 205.7Z" fill="#2e285c" stroke="#adadad"></path><path d="M420.8 98.7L379 50L388.3 107Z" fill="#17224a" stroke="#adadad"></path><path d="M41.5 608.7L47.5 633L50.8 623.7Z" fill="#492c6b" stroke="#adadad"></path><path d="M50.8 623.7L47.5 633L72.8 642Z" fill="#87297d" stroke="#adadad"></path><path d="M0 618.3L47.5 633L41.5 608.7Z" fill="#c7147b" stroke="#adadad"></path><path d="M0 507L0 514.3L42.8 501Z" fill="#061b36" stroke="#adadad"></path><path d="M210.5 70.3L202.5 105.3L257 93.7Z" fill="#17224a" stroke="#adadad"></path><path d="M257 93.7L202.5 105.3L257 109Z" fill="#87297d" stroke="#adadad"></path><path d="M190.8 760.3L227.5 785.3L225.3 776.7Z" fill="#a7217e" stroke="#adadad"></path><path d="M225.3 776.7L230.3 789L254 758.3Z" fill="#2e285c" stroke="#adadad"></path><path d="M63.3 711L102.5 694.7L84.5 659Z" fill="#492c6b" stroke="#adadad"></path><path d="M102.5 694.7L102.3 707.7L115.3 687.3Z" fill="#492c6b" stroke="#adadad"></path><path d="M246.5 822L242 812L221 865.3Z" fill="#001122" stroke="#adadad"></path><path d="M168 804L230.3 789L227.5 785.3Z" fill="#061b36" stroke="#adadad"></path><path d="M242 812L230.3 789L168 804Z" fill="#a7217e" stroke="#adadad"></path><path d="M227.5 785.3L230.3 789L225.3 776.7Z" fill="#492c6b" stroke="#adadad"></path><path d="M381.5 823.3L466.8 799L379.3 788.3Z" fill="#c7147b" stroke="#adadad"></path><path d="M473.5 775.7L519.3 786.3L506.3 752.7Z" fill="#a7217e" stroke="#adadad"></path><path d="M381.5 823.3L379.3 788.3L370 791.3Z" fill="#492c6b" stroke="#adadad"></path><path d="M381.5 823.3L370 791.3L351.5 793.7Z" fill="#e50173" stroke="#adadad"></path><path d="M543 783.7L510.5 745.3L506.3 752.7Z" fill="#ff0066" stroke="#adadad"></path><path d="M573.8 721.3L620.8 718L598.3 692.3Z" fill="#2e285c" stroke="#adadad"></path><path d="M629.3 677L675 652.7L603.8 636.3Z" fill="#a7217e" stroke="#adadad"></path><path d="M646.3 191.3L594.3 205.7L632.5 214.7Z" fill="#061b36" stroke="#adadad"></path><path d="M535 115.7L522.3 101L462.3 137.3Z" fill="#672c76" stroke="#adadad"></path><path d="M493.3 84.3L457.5 76L462.3 137.3Z" fill="#061b36" stroke="#adadad"></path><path d="M620.8 718L608.3 681.3L598.3 692.3Z" fill="#2e285c" stroke="#adadad"></path><path d="M675 297.7L675 231L666.3 246.7Z" fill="#2e285c" stroke="#adadad"></path><path d="M666.3 246.7L675 231L632.5 214.7Z" fill="#87297d" stroke="#adadad"></path><path d="M682.3 134.3L675 231L675 297.7Z" fill="#e50173" stroke="#adadad"></path><path d="M124.3 138L132.8 139.3L143.3 85.7Z" fill="#87297d" stroke="#adadad"></path><path d="M167 134L132.8 139.3L135.3 161Z" fill="#061b36" stroke="#adadad"></path><path d="M135.3 161L124.3 138L128 169.3Z" fill="#e50173" stroke="#adadad"></path><path d="M675 225.3L646.3 191.3L632.5 214.7Z" fill="#061b36" stroke="#adadad"></path><path d="M522.3 101L493.3 84.3L462.3 137.3Z" fill="#2e285c" stroke="#adadad"></path><path d="M650.3 680.7L675 652.7L629.3 677Z" fill="#17224a" stroke="#adadad"></path><path d="M675 620.3L675 652.7L681.3 569Z" fill="#672c76" stroke="#adadad"></path><path d="M242 812L286.8 811.7L274 761.7Z" fill="#a7217e" stroke="#adadad"></path><path d="M0 514.3L0.8 558.3L50.5 507.3Z" fill="#001122" stroke="#adadad"></path><path d="M675 231L675 225.3L632.5 214.7Z" fill="#001122" stroke="#adadad"></path><path d="M682.3 134.3L675 225.3L675 231Z" fill="#17224a" stroke="#adadad"></path><path d="M51.3 205.3L23.8 264.7L64.5 236.3Z" fill="#c7147b" stroke="#adadad"></path><path d="M64.5 236.3L23.8 264.7L50.8 275Z" fill="#ff0066" stroke="#adadad"></path><path d="M17.8 331.7L-17.2 382L0 389Z" fill="#001122" stroke="#adadad"></path><path d="M650.3 680.7L675 654L675 652.7Z" fill="#a7217e" stroke="#adadad"></path><path d="M675 652.7L675 654L681.3 569Z" fill="#672c76" stroke="#adadad"></path><path d="M578.8 744.7L620.8 718L573.8 721.3Z" fill="#a7217e" stroke="#adadad"></path><path d="M650.3 680.7L675 689.3L675 654Z" fill="#a7217e" stroke="#adadad"></path><path d="M466.8 799L519.3 786.3L473.5 775.7Z" fill="#17224a" stroke="#adadad"></path><path d="M626.5 785.3L647.5 737.3L620.8 718Z" fill="#a7217e" stroke="#adadad"></path><path d="M1.8 581.7L14.8 601.3L41.5 608.7Z" fill="#001122" stroke="#adadad"></path><path d="M48.5 694.3L63.3 711L84.5 659Z" fill="#17224a" stroke="#adadad"></path><path d="M0 312.3L-17.2 382L17.8 331.7Z" fill="#e50173" stroke="#adadad"></path><path d="M0 389L-17.2 382L0 395.7Z" fill="#ff0066" stroke="#adadad"></path><path d="M0 395.7L-17.2 382L0 440.3Z" fill="#17224a" stroke="#adadad"></path><path d="M0 440.3L-17.2 382L0 487.7Z" fill="#672c76" stroke="#adadad"></path><path d="M0 487.7L-17.2 382L0 507Z" fill="#c7147b" stroke="#adadad"></path><path d="M0 507L-17.2 382L0 514.3Z" fill="#e50173" stroke="#adadad"></path><path d="M-14.2 674L0 578.7L0.8 558.3Z" fill="#17224a" stroke="#adadad"></path><path d="M23.8 264.7L0 312.3L50.8 275Z" fill="#492c6b" stroke="#adadad"></path><path d="M143.3 85.7L132.8 139.3L167 134Z" fill="#c7147b" stroke="#adadad"></path><path d="M132.8 139.3L124.3 138L135.3 161Z" fill="#17224a" stroke="#adadad"></path><path d="M346.3 839L381.5 823.3L351.5 793.7Z" fill="#061b36" stroke="#adadad"></path><path d="M525.3 793L543 783.7L519.3 786.3Z" fill="#2e285c" stroke="#adadad"></path><path d="M630.5 158L594.3 205.7L646.3 191.3Z" fill="#17224a" stroke="#adadad"></path><path d="M630.5 158L614.8 149.7L594.3 205.7Z" fill="#a7217e" stroke="#adadad"></path><path d="M522.3 101L518 80L493.3 84.3Z" fill="#c7147b" stroke="#adadad"></path><path d="M443 51.3L427.8 60L457.5 76Z" fill="#a7217e" stroke="#adadad"></path><path d="M457.5 76L427.8 60L420.8 98.7Z" fill="#a7217e" stroke="#adadad"></path><path d="M620.8 718L651.5 693L629.3 677Z" fill="#061b36" stroke="#adadad"></path><path d="M0 578.7L1.8 581.7L0.8 558.3Z" fill="#061b36" stroke="#adadad"></path><path d="M0.8 558.3L1.8 581.7L41.5 608.7Z" fill="#17224a" stroke="#adadad"></path><path d="M-14.2 674L0.8 558.3L0 514.3Z" fill="#a7217e" stroke="#adadad"></path><path d="M286.8 811.7L332.5 825.7L324.5 776.3Z" fill="#17224a" stroke="#adadad"></path><path d="M80.3 168.3L110 214.7L128 169.3Z" fill="#001122" stroke="#adadad"></path><path d="M23.8 264.7L0 277L0 312.3Z" fill="#87297d" stroke="#adadad"></path><path d="M325.5 46.3L279.3 59.7L308.5 76.7Z" fill="#2e285c" stroke="#adadad"></path><path d="M308.5 76.7L279.3 59.7L283.3 105Z" fill="#87297d" stroke="#adadad"></path><path d="M202.5 105.3L174.5 98L186.3 130.3Z" fill="#001122" stroke="#adadad"></path><path d="M525.3 793L504.5 830.7L531 813Z" fill="#e50173" stroke="#adadad"></path><path d="M519.3 786.3L543 783.7L506.3 752.7Z" fill="#e50173" stroke="#adadad"></path><path d="M647.5 737.3L675 689.3L651.5 693Z" fill="#492c6b" stroke="#adadad"></path><path d="M210.5 70.3L174.5 98L202.5 105.3Z" fill="#492c6b" stroke="#adadad"></path><path d="M675 179.7L630.5 158L646.3 191.3Z" fill="#e50173" stroke="#adadad"></path><path d="M566 93.3L522.3 101L535 115.7Z" fill="#a7217e" stroke="#adadad"></path><path d="M525.3 793L519.3 786.3L504.5 830.7Z" fill="#a7217e" stroke="#adadad"></path><path d="M543 783.7L565.5 771.7L510.5 745.3Z" fill="#c7147b" stroke="#adadad"></path><path d="M427.8 60L379 50L420.8 98.7Z" fill="#17224a" stroke="#adadad"></path><path d="M92.3 153.7L128 169.3L124.3 138Z" fill="#e50173" stroke="#adadad"></path><path d="M92.3 153.7L80.3 168.3L128 169.3Z" fill="#87297d" stroke="#adadad"></path><path d="M227.5 785.3L190.8 760.3L168 804Z" fill="#001122" stroke="#adadad"></path><path d="M230.3 789L242 812L274 761.7Z" fill="#a7217e" stroke="#adadad"></path><path d="M325.5 850L346.3 839L332.5 825.7Z" fill="#2e285c" stroke="#adadad"></path><path d="M566 93.3L535 115.7L610.3 123Z" fill="#2e285c" stroke="#adadad"></path><path d="M497 43.3L443 51.3L457.5 76Z" fill="#492c6b" stroke="#adadad"></path><path d="M61.5 149.3L109.5 88L58.5 147.7Z" fill="#672c76" stroke="#adadad"></path><path d="M342.3 44.3L325.5 46.3L308.5 76.7Z" fill="#17224a" stroke="#adadad"></path><path d="M379 50L342.3 44.3L367.5 119Z" fill="#c7147b" stroke="#adadad"></path><path d="M0 214.7L0 277L23.8 264.7Z" fill="#c7147b" stroke="#adadad"></path><path d="M0 312.3L0 277L-17.2 382Z" fill="#ff0066" stroke="#adadad"></path><path d="M497 43.3L457.5 76L493.3 84.3Z" fill="#ff0066" stroke="#adadad"></path><path d="M427.8 60L377 26.7L379 50Z" fill="#87297d" stroke="#adadad"></path><path d="M379 50L377 26.7L342.3 44.3Z" fill="#492c6b" stroke="#adadad"></path><path d="M237 33.3L210.5 70.3L257 93.7Z" fill="#c7147b" stroke="#adadad"></path><path d="M61.5 149.3L80.3 168.3L92.3 153.7Z" fill="#001122" stroke="#adadad"></path><path d="M268.8 46.3L257 93.7L279.3 59.7Z" fill="#492c6b" stroke="#adadad"></path><path d="M168 804L190.8 760.3L181 753.3Z" fill="#87297d" stroke="#adadad"></path><path d="M242 812L246.5 822L286.8 811.7Z" fill="#ff0066" stroke="#adadad"></path><path d="M332.5 825.7L346.3 839L351.5 793.7Z" fill="#87297d" stroke="#adadad"></path><path d="M504.5 830.7L519.3 786.3L466.8 799Z" fill="#a7217e" stroke="#adadad"></path><path d="M325.5 850L332.5 825.7L286.8 811.7Z" fill="#17224a" stroke="#adadad"></path><path d="M80.3 168.3L45.8 192.3L51.3 205.3Z" fill="#17224a" stroke="#adadad"></path><path d="M51.3 205.3L0 214.7L23.8 264.7Z" fill="#e50173" stroke="#adadad"></path><path d="M49.8 172.3L45.8 192.3L80.3 168.3Z" fill="#061b36" stroke="#adadad"></path><path d="M647.5 737.3L651.5 693L620.8 718Z" fill="#061b36" stroke="#adadad"></path><path d="M651.5 693L675 689.3L650.3 680.7Z" fill="#2e285c" stroke="#adadad"></path><path d="M675 654L675 689.3L681.3 569Z" fill="#87297d" stroke="#adadad"></path><path d="M610.3 123L537.8 165L614.8 149.7Z" fill="#2e285c" stroke="#adadad"></path><path d="M518 80L497 43.3L493.3 84.3Z" fill="#87297d" stroke="#adadad"></path><path d="M615.5 123.3L614.8 149.7L630.5 158Z" fill="#87297d" stroke="#adadad"></path><path d="M615.5 123.3L610.3 123L614.8 149.7Z" fill="#061b36" stroke="#adadad"></path><path d="M-14.2 674L0 618.3L0 578.7Z" fill="#672c76" stroke="#adadad"></path><path d="M0 578.7L0 618.3L1.8 581.7Z" fill="#2e285c" stroke="#adadad"></path><path d="M1.8 581.7L0 618.3L14.8 601.3Z" fill="#a7217e" stroke="#adadad"></path><path d="M14.8 601.3L0 618.3L41.5 608.7Z" fill="#c7147b" stroke="#adadad"></path><path d="M48.5 694.3L72.8 642L47.5 633Z" fill="#492c6b" stroke="#adadad"></path><path d="M127.8 781.7L181 753.3L145.3 721.7Z" fill="#a7217e" stroke="#adadad"></path><path d="M0 635L48.5 694.3L47.5 633Z" fill="#a7217e" stroke="#adadad"></path><path d="M278.3 32.3L279.3 59.7L325.5 46.3Z" fill="#e50173" stroke="#adadad"></path><path d="M278.3 32.3L268.8 46.3L279.3 59.7Z" fill="#672c76" stroke="#adadad"></path><path d="M682.3 134.3L675 182.3L675 225.3Z" fill="#001122" stroke="#adadad"></path><path d="M675 225.3L675 182.3L646.3 191.3Z" fill="#a7217e" stroke="#adadad"></path><path d="M675 126L615.5 123.3L630.5 158Z" fill="#672c76" stroke="#adadad"></path><path d="M610.3 123L594.8 82.3L566 93.3Z" fill="#2e285c" stroke="#adadad"></path><path d="M682.3 134.3L675 179.7L675 182.3Z" fill="#c7147b" stroke="#adadad"></path><path d="M675 182.3L675 179.7L646.3 191.3Z" fill="#061b36" stroke="#adadad"></path><path d="M550 51.7L538.3 71.7L566 93.3Z" fill="#061b36" stroke="#adadad"></path><path d="M566 93.3L538.3 71.7L522.3 101Z" fill="#e50173" stroke="#adadad"></path><path d="M282.8 865.3L274.3 839.3L246.3 890.7Z" fill="#87297d" stroke="#adadad"></path><path d="M246.5 822L274.3 839.3L286.8 811.7Z" fill="#492c6b" stroke="#adadad"></path><path d="M543 783.7L582.8 825.3L565.5 771.7Z" fill="#001122" stroke="#adadad"></path><path d="M626.5 785.3L620.8 718L578.8 744.7Z" fill="#001122" stroke="#adadad"></path><path d="M525.3 793L531 813L543 783.7Z" fill="#672c76" stroke="#adadad"></path><path d="M504.5 830.7L466.8 799L497.5 842Z" fill="#87297d" stroke="#adadad"></path><path d="M61.5 149.3L49.8 172.3L80.3 168.3Z" fill="#672c76" stroke="#adadad"></path><path d="M45.8 192.3L0 214.7L51.3 205.3Z" fill="#87297d" stroke="#adadad"></path><path d="M143.3 85.7L167 134L174.5 98Z" fill="#061b36" stroke="#adadad"></path><path d="M-14.2 674L0 635L0 618.3Z" fill="#061b36" stroke="#adadad"></path><path d="M0 618.3L0 635L47.5 633Z" fill="#17224a" stroke="#adadad"></path><path d="M274.3 839.3L325.5 850L286.8 811.7Z" fill="#c7147b" stroke="#adadad"></path><path d="M431.5 857.3L466.8 799L381.5 823.3Z" fill="#ff0066" stroke="#adadad"></path><path d="M127.8 781.7L145.3 721.7L102.3 707.7Z" fill="#672c76" stroke="#adadad"></path><path d="M626.5 785.3L578.8 744.7L565.5 771.7Z" fill="#c7147b" stroke="#adadad"></path><path d="M430.8 14.3L427.8 60L443 51.3Z" fill="#a7217e" stroke="#adadad"></path><path d="M430.8 14.3L377 26.7L427.8 60Z" fill="#e50173" stroke="#adadad"></path><path d="M304.5 0L290.8 15.7L325.5 46.3Z" fill="#001122" stroke="#adadad"></path><path d="M115.3 793L103 788.7L110.5 793.3Z" fill="#c7147b" stroke="#adadad"></path><path d="M290.8 15.7L278.3 32.3L325.5 46.3Z" fill="#e50173" stroke="#adadad"></path><path d="M268.8 46.3L237 33.3L257 93.7Z" fill="#c7147b" stroke="#adadad"></path><path d="M154 73.7L174.5 98L210.5 70.3Z" fill="#ff0066" stroke="#adadad"></path><path d="M154 73.7L143.3 85.7L174.5 98Z" fill="#492c6b" stroke="#adadad"></path><path d="M431.5 857.3L381.5 823.3L400.3 873.7Z" fill="#001122" stroke="#adadad"></path><path d="M612.8 809L626.5 785.3L565.5 771.7Z" fill="#492c6b" stroke="#adadad"></path><path d="M61.5 149.3L92.3 153.7L109.5 88Z" fill="#061b36" stroke="#adadad"></path><path d="M127.8 781.7L151 801.3L181 753.3Z" fill="#17224a" stroke="#adadad"></path><path d="M168 804L221 865.3L242 812Z" fill="#672c76" stroke="#adadad"></path><path d="M513.5 38.3L518 80L538.3 71.7Z" fill="#17224a" stroke="#adadad"></path><path d="M513.5 38.3L497 43.3L518 80Z" fill="#87297d" stroke="#adadad"></path><path d="M179.5 17.7L154 73.7L210.5 70.3Z" fill="#492c6b" stroke="#adadad"></path><path d="M109.5 88L92.3 153.7L124.3 138Z" fill="#672c76" stroke="#adadad"></path><path d="M109.5 88L124.3 138L143.3 85.7Z" fill="#001122" stroke="#adadad"></path><path d="M61.5 149.3L58.5 147.7L49.8 172.3Z" fill="#c7147b" stroke="#adadad"></path><path d="M0 193.3L0 214.7L45.8 192.3Z" fill="#17224a" stroke="#adadad"></path><path d="M400.3 873.7L381.5 823.3L346.3 839Z" fill="#2e285c" stroke="#adadad"></path><path d="M271 0L237 33.3L278.3 32.3Z" fill="#492c6b" stroke="#adadad"></path><path d="M278.3 32.3L237 33.3L268.8 46.3Z" fill="#87297d" stroke="#adadad"></path><path d="M431.5 857.3L497.5 842L466.8 799Z" fill="#2e285c" stroke="#adadad"></path><path d="M504.5 830.7L543 846.7L531 813Z" fill="#ff0066" stroke="#adadad"></path><path d="M0 193.3L45.8 192.3L0 186Z" fill="#a7217e" stroke="#adadad"></path><path d="M0 277L-18.2 193L-17.2 382Z" fill="#e50173" stroke="#adadad"></path><path d="M609.5 59.7L594.8 82.3L632.5 59Z" fill="#e50173" stroke="#adadad"></path><path d="M615.5 123.3L594.8 82.3L610.3 123Z" fill="#672c76" stroke="#adadad"></path><path d="M550 51.7L513.5 38.3L538.3 71.7Z" fill="#001122" stroke="#adadad"></path><path d="M458.3 0L430.8 14.3L443 51.3Z" fill="#ff0066" stroke="#adadad"></path><path d="M594.8 82.3L587.8 75L566 93.3Z" fill="#87297d" stroke="#adadad"></path><path d="M131.8 807L151 801.3L127.8 781.7Z" fill="#87297d" stroke="#adadad"></path><path d="M148 817.7L151.8 814.3L151 801.3Z" fill="#492c6b" stroke="#adadad"></path><path d="M151 801.3L151.8 814.3L168 804Z" fill="#492c6b" stroke="#adadad"></path><path d="M274.3 839.3L282.8 865.3L325.5 850Z" fill="#c7147b" stroke="#adadad"></path><path d="M127.8 781.7L103 788.7L115.3 793Z" fill="#492c6b" stroke="#adadad"></path><path d="M304.5 0L342.3 44.3L377 26.7Z" fill="#ff0066" stroke="#adadad"></path><path d="M304.5 0L325.5 46.3L342.3 44.3Z" fill="#001122" stroke="#adadad"></path><path d="M102.3 707.7L76.5 788L103 788.7Z" fill="#a7217e" stroke="#adadad"></path><path d="M127.8 781.7L102.3 707.7L103 788.7Z" fill="#87297d" stroke="#adadad"></path><path d="M458.3 0L443 51.3L497 43.3Z" fill="#e50173" stroke="#adadad"></path><path d="M587.8 75L550 51.7L566 93.3Z" fill="#001122" stroke="#adadad"></path><path d="M110.5 78.7L109.5 88L143.3 85.7Z" fill="#c7147b" stroke="#adadad"></path><path d="M0 186L45.8 192.3L0 178.7Z" fill="#17224a" stroke="#adadad"></path><path d="M110.5 78.7L143.3 85.7L154 73.7Z" fill="#001122" stroke="#adadad"></path><path d="M221 865.3L274.3 839.3L246.5 822Z" fill="#a7217e" stroke="#adadad"></path><path d="M366.3 900L400.3 873.7L346.3 839Z" fill="#2e285c" stroke="#adadad"></path><path d="M115.3 793L131.8 807L127.8 781.7Z" fill="#2e285c" stroke="#adadad"></path><path d="M151.8 814.3L221 865.3L168 804Z" fill="#ff0066" stroke="#adadad"></path><path d="M102.3 707.7L63.3 711L76.5 788Z" fill="#17224a" stroke="#adadad"></path><path d="M115.3 793L116.5 802.7L131.8 807Z" fill="#c7147b" stroke="#adadad"></path><path d="M141.3 821.7L148 817.7L131.8 807Z" fill="#2e285c" stroke="#adadad"></path><path d="M131.8 807L148 817.7L151 801.3Z" fill="#c7147b" stroke="#adadad"></path><path d="M0 715.7L63.3 711L48.5 694.3Z" fill="#492c6b" stroke="#adadad"></path><path d="M110.5 793.3L116.5 802.7L115.3 793Z" fill="#c7147b" stroke="#adadad"></path><path d="M582.8 825.3L543 783.7L531 813Z" fill="#c7147b" stroke="#adadad"></path><path d="M647.5 737.3L675 752L675 689.3Z" fill="#2e285c" stroke="#adadad"></path><path d="M348.8 897.7L346.3 839L325.5 850Z" fill="#2e285c" stroke="#adadad"></path><path d="M544 858.3L543 846.7L497.5 842Z" fill="#e50173" stroke="#adadad"></path><path d="M45.8 192.3L49.8 172.3L0 178.7Z" fill="#672c76" stroke="#adadad"></path><path d="M0 214.7L-18.2 193L0 277Z" fill="#672c76" stroke="#adadad"></path><path d="M78.8 805.7L116.5 802.7L110.5 793.3Z" fill="#061b36" stroke="#adadad"></path><path d="M104.5 66.3L110.5 78.7L154 73.7Z" fill="#e50173" stroke="#adadad"></path><path d="M109.5 88L89.3 56.3L58.5 147.7Z" fill="#ff0066" stroke="#adadad"></path><path d="M404.8 0L377 26.7L430.8 14.3Z" fill="#001122" stroke="#adadad"></path><path d="M404.8 0L389 0L377 26.7Z" fill="#ff0066" stroke="#adadad"></path><path d="M550 51.7L520.5 28.7L513.5 38.3Z" fill="#2e285c" stroke="#adadad"></path><path d="M513.5 38.3L520.5 28.7L497 43.3Z" fill="#ff0066" stroke="#adadad"></path><path d="M561.8 20.3L520.5 28.7L550 51.7Z" fill="#a7217e" stroke="#adadad"></path><path d="M116.5 802.7L141.3 821.7L131.8 807Z" fill="#17224a" stroke="#adadad"></path><path d="M148 817.7L221 865.3L151.8 814.3Z" fill="#672c76" stroke="#adadad"></path><path d="M0 178.7L49.8 172.3L0 150Z" fill="#ff0066" stroke="#adadad"></path><path d="M0 193.3L-18.2 193L0 214.7Z" fill="#672c76" stroke="#adadad"></path><path d="M412.3 0L404.8 0L430.8 14.3Z" fill="#061b36" stroke="#adadad"></path><path d="M458.3 0L412.3 0L430.8 14.3Z" fill="#e50173" stroke="#adadad"></path><path d="M-17.2 382L-14.2 674L0 514.3Z" fill="#a7217e" stroke="#adadad"></path><path d="M0 635L-14.2 674L48.5 694.3Z" fill="#87297d" stroke="#adadad"></path><path d="M103 788.7L78.8 805.7L110.5 793.3Z" fill="#ff0066" stroke="#adadad"></path><path d="M675 765.7L675 752L647.5 737.3Z" fill="#ff0066" stroke="#adadad"></path><path d="M675 689.3L675 752L681.3 569Z" fill="#492c6b" stroke="#adadad"></path><path d="M685.3 429.7L682.3 134.3L675 297.7Z" fill="#061b36" stroke="#adadad"></path><path d="M675 179.7L682.3 134.3L630.5 158Z" fill="#a7217e" stroke="#adadad"></path><path d="M609.5 59.7L583.8 45.7L587.8 75Z" fill="#c7147b" stroke="#adadad"></path><path d="M587.8 75L583.8 45.7L550 51.7Z" fill="#a7217e" stroke="#adadad"></path><path d="M389 0L304.5 0L377 26.7Z" fill="#e50173" stroke="#adadad"></path><path d="M290.8 15.7L271 0L278.3 32.3Z" fill="#672c76" stroke="#adadad"></path><path d="M140 22.3L104.5 66.3L154 73.7Z" fill="#001122" stroke="#adadad"></path><path d="M682.3 134.3L675 126L630.5 158Z" fill="#001122" stroke="#adadad"></path><path d="M543 846.7L582.8 825.3L531 813Z" fill="#17224a" stroke="#adadad"></path><path d="M626.5 785.3L675 765.7L647.5 737.3Z" fill="#672c76" stroke="#adadad"></path><path d="M543 846.7L504.5 830.7L497.5 842Z" fill="#87297d" stroke="#adadad"></path><path d="M0 150L49.8 172.3L58.5 147.7Z" fill="#e50173" stroke="#adadad"></path><path d="M0 186L-18.2 193L0 193.3Z" fill="#061b36" stroke="#adadad"></path><path d="M474.8 874.3L497.5 842L431.5 857.3Z" fill="#c7147b" stroke="#adadad"></path><path d="M582.8 825.3L612.8 809L565.5 771.7Z" fill="#ff0066" stroke="#adadad"></path><path d="M304.5 0L279.3 0L290.8 15.7Z" fill="#061b36" stroke="#adadad"></path><path d="M279.3 0L277.8 0L290.8 15.7Z" fill="#17224a" stroke="#adadad"></path><path d="M203.8 900L221 865.3L173 900Z" fill="#e50173" stroke="#adadad"></path><path d="M374 900L448 881.7L400.3 873.7Z" fill="#672c76" stroke="#adadad"></path><path d="M277.8 0L271 0L290.8 15.7Z" fill="#17224a" stroke="#adadad"></path><path d="M448 881.7L474.8 874.3L431.5 857.3Z" fill="#001122" stroke="#adadad"></path><path d="M-14.2 674L0 707.3L48.5 694.3Z" fill="#a7217e" stroke="#adadad"></path><path d="M116.5 802.7L129.8 869.7L141.3 821.7Z" fill="#c7147b" stroke="#adadad"></path><path d="M226.3 900L246.3 890.7L221 865.3Z" fill="#492c6b" stroke="#adadad"></path><path d="M0 749L76.5 788L63.3 711Z" fill="#2e285c" stroke="#adadad"></path><path d="M483.5 0L458.3 0L497 43.3Z" fill="#ff0066" stroke="#adadad"></path><path d="M400.3 873.7L448 881.7L431.5 857.3Z" fill="#87297d" stroke="#adadad"></path><path d="M348.8 897.7L325.5 850L306 900Z" fill="#2e285c" stroke="#adadad"></path><path d="M609.5 59.7L587.8 75L594.8 82.3Z" fill="#17224a" stroke="#adadad"></path><path d="M520.5 28.7L483.5 0L497 43.3Z" fill="#492c6b" stroke="#adadad"></path><path d="M0 150L-18.2 193L0 178.7Z" fill="#ff0066" stroke="#adadad"></path><path d="M0 178.7L-18.2 193L0 186Z" fill="#2e285c" stroke="#adadad"></path><path d="M650.3 802.7L675 765.7L626.5 785.3Z" fill="#17224a" stroke="#adadad"></path><path d="M675 752L675 765.7L681.3 569Z" fill="#e50173" stroke="#adadad"></path><path d="M179.5 17.7L210.5 70.3L237 33.3Z" fill="#a7217e" stroke="#adadad"></path><path d="M110.5 78.7L104.5 66.3L109.5 88Z" fill="#ff0066" stroke="#adadad"></path><path d="M632.5 59L594.8 82.3L615.5 123.3Z" fill="#87297d" stroke="#adadad"></path><path d="M-15.2 731.3L0 715.7L0 707.3Z" fill="#17224a" stroke="#adadad"></path><path d="M0 707.3L0 715.7L48.5 694.3Z" fill="#ff0066" stroke="#adadad"></path><path d="M582.8 825.3L587.8 834.7L612.8 809Z" fill="#492c6b" stroke="#adadad"></path><path d="M612.8 809L650.3 802.7L626.5 785.3Z" fill="#672c76" stroke="#adadad"></path><path d="M543 846.7L587.8 834.7L582.8 825.3Z" fill="#ff0066" stroke="#adadad"></path><path d="M544 858.3L587.8 834.7L543 846.7Z" fill="#001122" stroke="#adadad"></path><path d="M521 0L483.5 0L520.5 28.7Z" fill="#492c6b" stroke="#adadad"></path><path d="M682.3 134.3L675 107.7L675 126Z" fill="#17224a" stroke="#adadad"></path><path d="M675 126L675 107.7L615.5 123.3Z" fill="#87297d" stroke="#adadad"></path><path d="M509.3 878.7L544 858.3L497.5 842Z" fill="#17224a" stroke="#adadad"></path><path d="M509.3 878.7L497.5 842L474.8 874.3Z" fill="#c7147b" stroke="#adadad"></path><path d="M306 900L325.5 850L282.8 865.3Z" fill="#a7217e" stroke="#adadad"></path><path d="M169.5 0L179.5 17.7L237 33.3Z" fill="#001122" stroke="#adadad"></path><path d="M348.8 897.7L366.3 900L346.3 839Z" fill="#061b36" stroke="#adadad"></path><path d="M306 900L353.8 900L348.8 897.7Z" fill="#2e285c" stroke="#adadad"></path><path d="M348.8 897.7L353.8 900L366.3 900Z" fill="#2e285c" stroke="#adadad"></path><path d="M366.3 900L369.5 900L400.3 873.7Z" fill="#672c76" stroke="#adadad"></path><path d="M369.5 900L374 900L400.3 873.7Z" fill="#87297d" stroke="#adadad"></path><path d="M494.5 900L509.3 878.7L474.8 874.3Z" fill="#17224a" stroke="#adadad"></path><path d="M0 802L78.8 805.7L76.5 788Z" fill="#c7147b" stroke="#adadad"></path><path d="M76.5 788L78.8 805.7L103 788.7Z" fill="#ff0066" stroke="#adadad"></path><path d="M0 135.3L0 150L58.5 147.7Z" fill="#87297d" stroke="#adadad"></path><path d="M484.8 900L474.8 874.3L448 881.7Z" fill="#c7147b" stroke="#adadad"></path><path d="M642.3 836.7L612.8 809L637.5 843.7Z" fill="#672c76" stroke="#adadad"></path><path d="M246.3 890.7L306 900L282.8 865.3Z" fill="#c7147b" stroke="#adadad"></path><path d="M654.5 815L650.3 802.7L612.8 809Z" fill="#17224a" stroke="#adadad"></path><path d="M654.5 815L612.8 809L642.3 836.7Z" fill="#c7147b" stroke="#adadad"></path><path d="M596.8 0L561.8 20.3L583.8 45.7Z" fill="#a7217e" stroke="#adadad"></path><path d="M583.8 45.7L561.8 20.3L550 51.7Z" fill="#061b36" stroke="#adadad"></path><path d="M596.8 0L583.8 45.7L609.5 59.7Z" fill="#672c76" stroke="#adadad"></path><path d="M226.3 900L221 865.3L203.8 900Z" fill="#c7147b" stroke="#adadad"></path><path d="M221 865.3L246.3 890.7L274.3 839.3Z" fill="#a7217e" stroke="#adadad"></path><path d="M-15.2 731.3L0 734.7L0 715.7Z" fill="#2e285c" stroke="#adadad"></path><path d="M0 715.7L0 734.7L63.3 711Z" fill="#672c76" stroke="#adadad"></path><path d="M675 107.7L632.5 59L615.5 123.3Z" fill="#061b36" stroke="#adadad"></path><path d="M561.8 20.3L521 0L520.5 28.7Z" fill="#ff0066" stroke="#adadad"></path><path d="M169.5 0L160.8 15.7L179.5 17.7Z" fill="#87297d" stroke="#adadad"></path><path d="M179.5 17.7L160.8 15.7L154 73.7Z" fill="#2e285c" stroke="#adadad"></path><path d="M104.5 66.3L89.3 56.3L109.5 88Z" fill="#672c76" stroke="#adadad"></path><path d="M140 22.3L89.3 56.3L104.5 66.3Z" fill="#492c6b" stroke="#adadad"></path><path d="M160.8 15.7L144.8 21.3L154 73.7Z" fill="#e50173" stroke="#adadad"></path><path d="M132.3 0L140 22.3L144.8 21.3Z" fill="#e50173" stroke="#adadad"></path><path d="M144.8 21.3L140 22.3L154 73.7Z" fill="#001122" stroke="#adadad"></path><path d="M18.8 66.7L0 135.3L58.5 147.7Z" fill="#672c76" stroke="#adadad"></path><path d="M0 150L-5.2 137.7L-18.2 193Z" fill="#c7147b" stroke="#adadad"></path><path d="M-11.2 82L-5.2 137.7L0 135.3Z" fill="#001122" stroke="#adadad"></path><path d="M0 135.3L-5.2 137.7L0 150Z" fill="#87297d" stroke="#adadad"></path><path d="M-15.2 731.3L0 749L0 734.7Z" fill="#ff0066" stroke="#adadad"></path><path d="M0 734.7L0 749L63.3 711Z" fill="#e50173" stroke="#adadad"></path><path d="M-17.2 382L-15.2 731.3L-14.2 674Z" fill="#ff0066" stroke="#adadad"></path><path d="M-14.2 674L-15.2 731.3L0 707.3Z" fill="#ff0066" stroke="#adadad"></path><path d="M612.8 809L587.8 834.7L637.5 843.7Z" fill="#17224a" stroke="#adadad"></path><path d="M650.3 802.7L675 828.3L675 765.7Z" fill="#e50173" stroke="#adadad"></path><path d="M472.8 912.7L484.8 900L448 881.7Z" fill="#a7217e" stroke="#adadad"></path><path d="M509.3 878.7L531.8 900L544 858.3Z" fill="#87297d" stroke="#adadad"></path><path d="M484.8 900L494.5 900L474.8 874.3Z" fill="#e50173" stroke="#adadad"></path><path d="M271 0L169.5 0L237 33.3Z" fill="#672c76" stroke="#adadad"></path><path d="M160.8 15.7L161.8 0L144.8 21.3Z" fill="#001122" stroke="#adadad"></path><path d="M140 22.3L106 0L89.3 56.3Z" fill="#a7217e" stroke="#adadad"></path><path d="M221 865.3L148 817.7L173 900Z" fill="#672c76" stroke="#adadad"></path><path d="M246.3 890.7L219 906.7L306 900Z" fill="#87297d" stroke="#adadad"></path><path d="M169.5 0L161.8 0L160.8 15.7Z" fill="#2e285c" stroke="#adadad"></path><path d="M494.5 900L509 900L509.3 878.7Z" fill="#a7217e" stroke="#adadad"></path><path d="M484.8 900L472.8 912.7L494.5 900Z" fill="#061b36" stroke="#adadad"></path><path d="M494.5 900L472.8 912.7L509 900Z" fill="#87297d" stroke="#adadad"></path><path d="M374 900L472.8 912.7L448 881.7Z" fill="#87297d" stroke="#adadad"></path><path d="M369.5 900L472.8 912.7L374 900Z" fill="#ff0066" stroke="#adadad"></path><path d="M366.3 900L472.8 912.7L369.5 900Z" fill="#e50173" stroke="#adadad"></path><path d="M353.8 900L472.8 912.7L366.3 900Z" fill="#492c6b" stroke="#adadad"></path><path d="M306 900L472.8 912.7L353.8 900Z" fill="#87297d" stroke="#adadad"></path><path d="M219 906.7L472.8 912.7L306 900Z" fill="#061b36" stroke="#adadad"></path><path d="M637.5 843.7L587.8 834.7L615.3 868.3Z" fill="#c7147b" stroke="#adadad"></path><path d="M129.8 869.7L148 817.7L141.3 821.7Z" fill="#87297d" stroke="#adadad"></path><path d="M226.3 900L219 906.7L246.3 890.7Z" fill="#672c76" stroke="#adadad"></path><path d="M129.8 869.7L116.5 802.7L78.8 805.7Z" fill="#a7217e" stroke="#adadad"></path><path d="M472.8 912.7L522.3 900L509 900Z" fill="#001122" stroke="#adadad"></path><path d="M509 900L522.3 900L509.3 878.7Z" fill="#c7147b" stroke="#adadad"></path><path d="M203.8 900L219 906.7L226.3 900Z" fill="#17224a" stroke="#adadad"></path><path d="M80.8 881.3L129.8 869.7L78.8 805.7Z" fill="#87297d" stroke="#adadad"></path><path d="M203.8 900L162.5 912.7L219 906.7Z" fill="#ff0066" stroke="#adadad"></path><path d="M615.3 868.3L587.8 834.7L544 858.3Z" fill="#e50173" stroke="#adadad"></path><path d="M637.5 843.7L654.3 832L642.3 836.7Z" fill="#a7217e" stroke="#adadad"></path><path d="M642.3 836.7L654.3 832L654.5 815Z" fill="#001122" stroke="#adadad"></path><path d="M654.5 815L675 828.3L650.3 802.7Z" fill="#87297d" stroke="#adadad"></path><path d="M472.8 912.7L531.8 900L522.3 900Z" fill="#a7217e" stroke="#adadad"></path><path d="M522.3 900L531.8 900L509.3 878.7Z" fill="#c7147b" stroke="#adadad"></path><path d="M161.8 0L132.3 0L144.8 21.3Z" fill="#672c76" stroke="#adadad"></path><path d="M89.3 56.3L18.8 66.7L58.5 147.7Z" fill="#2e285c" stroke="#adadad"></path><path d="M129.8 869.7L173 900L148 817.7Z" fill="#a7217e" stroke="#adadad"></path><path d="M531.8 900L615.3 868.3L544 858.3Z" fill="#001122" stroke="#adadad"></path><path d="M675 900L675 828.3L654.3 832Z" fill="#a7217e" stroke="#adadad"></path><path d="M638.5 2.3L596.8 0L609.5 59.7Z" fill="#17224a" stroke="#adadad"></path><path d="M561.8 20.3L596.8 0L521 0Z" fill="#17224a" stroke="#adadad"></path><path d="M638.5 2.3L609.5 59.7L632.5 59Z" fill="#061b36" stroke="#adadad"></path><path d="M675 900L654.3 832L637.5 843.7Z" fill="#061b36" stroke="#adadad"></path><path d="M654.3 832L675 828.3L654.5 815Z" fill="#a7217e" stroke="#adadad"></path><path d="M675 765.7L678.3 900L681.3 569Z" fill="#17224a" stroke="#adadad"></path><path d="M681.3 569L678.3 900L685.3 429.7Z" fill="#672c76" stroke="#adadad"></path><path d="M129.8 869.7L166.5 900L173 900Z" fill="#061b36" stroke="#adadad"></path><path d="M173 900L162.5 912.7L203.8 900Z" fill="#672c76" stroke="#adadad"></path><path d="M675 107.7L665.3 40.7L632.5 59Z" fill="#ff0066" stroke="#adadad"></path><path d="M675 0L665.3 40.7L675 107.7Z" fill="#a7217e" stroke="#adadad"></path><path d="M38.8 0L18.8 66.7L89.3 56.3Z" fill="#061b36" stroke="#adadad"></path><path d="M132.3 0L106 0L140 22.3Z" fill="#001122" stroke="#adadad"></path><path d="M106 0L102.5 0L89.3 56.3Z" fill="#87297d" stroke="#adadad"></path><path d="M-15.2 731.3L0 802L0 749Z" fill="#ff0066" stroke="#adadad"></path><path d="M0 749L0 802L76.5 788Z" fill="#672c76" stroke="#adadad"></path><path d="M129.8 869.7L162.5 912.7L166.5 900Z" fill="#87297d" stroke="#adadad"></path><path d="M107.5 900L162.5 912.7L129.8 869.7Z" fill="#e50173" stroke="#adadad"></path><path d="M166.5 900L162.5 912.7L173 900Z" fill="#c7147b" stroke="#adadad"></path><path d="M219 906.7L162.5 912.7L472.8 912.7Z" fill="#87297d" stroke="#adadad"></path><path d="M-10.2 820L0 806.3L0 802Z" fill="#672c76" stroke="#adadad"></path><path d="M0 802L0 806.3L78.8 805.7Z" fill="#061b36" stroke="#adadad"></path><path d="M0 66.3L-11.2 82L18.8 66.7Z" fill="#a7217e" stroke="#adadad"></path><path d="M18.8 66.7L-11.2 82L0 135.3Z" fill="#87297d" stroke="#adadad"></path><path d="M-5.2 137.7L-11.2 82L-18.2 193Z" fill="#e50173" stroke="#adadad"></path><path d="M665.3 40.7L638.5 2.3L632.5 59Z" fill="#001122" stroke="#adadad"></path><path d="M0 59.7L0 66.3L18.8 66.7Z" fill="#2e285c" stroke="#adadad"></path><path d="M642.5 0L639.3 0L638.5 2.3Z" fill="#a7217e" stroke="#adadad"></path><path d="M638.5 2.3L631.3 -15.7L596.8 0Z" fill="#ff0066" stroke="#adadad"></path><path d="M0 806.3L59.3 864.3L78.8 805.7Z" fill="#c7147b" stroke="#adadad"></path><path d="M665.3 40.7L642.5 0L638.5 2.3Z" fill="#ff0066" stroke="#adadad"></path><path d="M59.3 864.3L80.8 881.3L78.8 805.7Z" fill="#a7217e" stroke="#adadad"></path><path d="M14.8 16.3L0 59.7L18.8 66.7Z" fill="#492c6b" stroke="#adadad"></path><path d="M0 66.3L0 59.7L-11.2 82Z" fill="#e50173" stroke="#adadad"></path><path d="M80.8 881.3L107.5 900L129.8 869.7Z" fill="#001122" stroke="#adadad"></path><path d="M59.3 864.3L71.5 881.7L80.8 881.3Z" fill="#a7217e" stroke="#adadad"></path><path d="M80.8 881.3L96.3 900L107.5 900Z" fill="#492c6b" stroke="#adadad"></path><path d="M21.8 909.7L71.5 881.7L59.3 864.3Z" fill="#061b36" stroke="#adadad"></path><path d="M642.5 0L631.3 -15.7L639.3 0Z" fill="#a7217e" stroke="#adadad"></path><path d="M639.3 0L631.3 -15.7L638.5 2.3Z" fill="#2e285c" stroke="#adadad"></path><path d="M596.8 0L631.3 -15.7L521 0Z" fill="#2e285c" stroke="#adadad"></path><path d="M521 0L631.3 -15.7L483.5 0Z" fill="#ff0066" stroke="#adadad"></path><path d="M483.5 0L631.3 -15.7L458.3 0Z" fill="#001122" stroke="#adadad"></path><path d="M458.3 0L631.3 -15.7L412.3 0Z" fill="#2e285c" stroke="#adadad"></path><path d="M412.3 0L631.3 -15.7L404.8 0Z" fill="#001122" stroke="#adadad"></path><path d="M404.8 0L631.3 -15.7L389 0Z" fill="#87297d" stroke="#adadad"></path><path d="M389 0L631.3 -15.7L304.5 0Z" fill="#001122" stroke="#adadad"></path><path d="M304.5 0L631.3 -15.7L279.3 0Z" fill="#a7217e" stroke="#adadad"></path><path d="M279.3 0L631.3 -15.7L277.8 0Z" fill="#672c76" stroke="#adadad"></path><path d="M277.8 0L631.3 -15.7L271 0Z" fill="#17224a" stroke="#adadad"></path><path d="M271 0L631.3 -15.7L169.5 0Z" fill="#e50173" stroke="#adadad"></path><path d="M169.5 0L631.3 -15.7L161.8 0Z" fill="#ff0066" stroke="#adadad"></path><path d="M161.8 0L631.3 -15.7L132.3 0Z" fill="#87297d" stroke="#adadad"></path><path d="M132.3 0L631.3 -15.7L106 0Z" fill="#a7217e" stroke="#adadad"></path><path d="M106 0L631.3 -15.7L102.5 0Z" fill="#e50173" stroke="#adadad"></path><path d="M531.8 900L623.5 900L615.3 868.3Z" fill="#492c6b" stroke="#adadad"></path><path d="M615.3 868.3L623.5 900L637.5 843.7Z" fill="#672c76" stroke="#adadad"></path><path d="M675 914.7L623.5 900L531.8 900Z" fill="#492c6b" stroke="#adadad"></path><path d="M71.5 881.7L96.3 900L80.8 881.3Z" fill="#17224a" stroke="#adadad"></path><path d="M107.5 900L96.3 900L162.5 912.7Z" fill="#a7217e" stroke="#adadad"></path><path d="M0 806.3L0 855.7L59.3 864.3Z" fill="#672c76" stroke="#adadad"></path><path d="M-15.2 731.3L-10.2 820L0 802Z" fill="#e50173" stroke="#adadad"></path><path d="M665.3 40.7L675 0L642.5 0Z" fill="#17224a" stroke="#adadad"></path><path d="M642.5 0L675 -3.7L631.3 -15.7Z" fill="#a7217e" stroke="#adadad"></path><path d="M682.3 134.3L675 0L675 107.7Z" fill="#17224a" stroke="#adadad"></path><path d="M682.3 134.3L675 -3.7L675 0Z" fill="#a7217e" stroke="#adadad"></path><path d="M675 0L675 -3.7L642.5 0Z" fill="#87297d" stroke="#adadad"></path><path d="M631.3 -15.7L38.8 0L102.5 0Z" fill="#672c76" stroke="#adadad"></path><path d="M102.5 0L38.8 0L89.3 56.3Z" fill="#87297d" stroke="#adadad"></path><path d="M38.8 0L14.8 16.3L18.8 66.7Z" fill="#001122" stroke="#adadad"></path><path d="M0 59.7L0 0L-11.2 82Z" fill="#e50173" stroke="#adadad"></path><path d="M-10.2 820L0 855.7L0 806.3Z" fill="#672c76" stroke="#adadad"></path><path d="M71.5 881.7L21.8 909.7L96.3 900Z" fill="#c7147b" stroke="#adadad"></path><path d="M675 914.7L675 900L623.5 900Z" fill="#001122" stroke="#adadad"></path><path d="M623.5 900L675 900L637.5 843.7Z" fill="#c7147b" stroke="#adadad"></path><path d="M675 828.3L678.3 900L675 765.7Z" fill="#87297d" stroke="#adadad"></path><path d="M675 914.7L678.3 900L675 900Z" fill="#2e285c" stroke="#adadad"></path><path d="M675 900L678.3 900L675 828.3Z" fill="#17224a" stroke="#adadad"></path><path d="M631.3 -15.7L0 0L38.8 0Z" fill="#87297d" stroke="#adadad"></path><path d="M38.8 0L0 0L14.8 16.3Z" fill="#001122" stroke="#adadad"></path><path d="M14.8 16.3L0 0L0 59.7Z" fill="#001122" stroke="#adadad"></path><path d="M472.8 912.7L675 914.7L531.8 900Z" fill="#2e285c" stroke="#adadad"></path><path d="M162.5 912.7L675 914.7L472.8 912.7Z" fill="#87297d" stroke="#adadad"></path><path d="M0 855.7L21.8 909.7L59.3 864.3Z" fill="#17224a" stroke="#adadad"></path><path d="M96.3 900L21.8 909.7L162.5 912.7Z" fill="#c7147b" stroke="#adadad"></path><path d="M-3.2 900L0 900L0 855.7Z" fill="#17224a" stroke="#adadad"></path><path d="M0 855.7L0 900L21.8 909.7Z" fill="#87297d" stroke="#adadad"></path><path d="M-10.2 820L-3.2 900L0 855.7Z" fill="#c7147b" stroke="#adadad"></path><path d="M0 900L-3.2 900L21.8 909.7Z" fill="#17224a" stroke="#adadad"></path></g></svg>