<svg id="visual" viewBox="0 0 675 900" width="675" height="900" xmlns="http://www.w3.org/2000/svg" xmlns:xlink="http://www.w3.org/1999/xlink" version="1.1"><g stroke-width="1" stroke-linejoin="bevel"><path d="M318.5 446.7L294.8 453L313.5 451.3Z" fill="#3f7328" stroke="#adadad"></path><path d="M318.5 446.7L321 405.3L294.8 453Z" fill="#6a8e1a" stroke="#adadad"></path><path d="M249.3 418.3L253.8 448.7L294.8 453Z" fill="#0f4429" stroke="#adadad"></path><path d="M253.8 448.7L273.8 479.3L294.8 453Z" fill="#3f7328" stroke="#adadad"></path><path d="M294.8 453L304 490.3L313.5 451.3Z" fill="#0a3b26" stroke="#adadad"></path><path d="M284 381.3L249.3 418.3L294.8 453Z" fill="#3f7328" stroke="#adadad"></path><path d="M367 462.3L357 426L318.5 446.7Z" fill="#3f7328" stroke="#adadad"></path><path d="M318.5 446.7L357 426L321 405.3Z" fill="#4c7d25" stroke="#adadad"></path><path d="M338.5 353.7L325.5 350.3L298.5 381Z" fill="#5a8620" stroke="#adadad"></path><path d="M367 462.3L318.5 446.7L313.5 451.3Z" fill="#28612b" stroke="#adadad"></path><path d="M284 381.3L294.8 453L321 405.3Z" fill="#5a8620" stroke="#adadad"></path><path d="M273.8 479.3L304 490.3L294.8 453Z" fill="#4c7d25" stroke="#adadad"></path><path d="M298.5 381L284 381.3L321 405.3Z" fill="#1e572b" stroke="#adadad"></path><path d="M298.5 381L287 377L284 381.3Z" fill="#336a2a" stroke="#adadad"></path><path d="M284 381.3L256.8 393.7L249.3 418.3Z" fill="#0a3b26" stroke="#adadad"></path><path d="M275 367.7L256.8 393.7L284 381.3Z" fill="#154e2a" stroke="#adadad"></path><path d="M246.5 491.3L270.8 487.3L273.8 479.3Z" fill="#1e572b" stroke="#adadad"></path><path d="M273.8 479.3L270.8 487.3L304 490.3Z" fill="#3f7328" stroke="#adadad"></path><path d="M357 426L353.8 391L321 405.3Z" fill="#6a8e1a" stroke="#adadad"></path><path d="M325.5 350.3L275 367.7L287 377Z" fill="#6a8e1a" stroke="#adadad"></path><path d="M304 490.3L367 462.3L313.5 451.3Z" fill="#154e2a" stroke="#adadad"></path><path d="M357 426L392.3 406.3L353.8 391Z" fill="#7a9711" stroke="#adadad"></path><path d="M325.5 350.3L287 377L298.5 381Z" fill="#7a9711" stroke="#adadad"></path><path d="M287 377L275 367.7L284 381.3Z" fill="#3f7328" stroke="#adadad"></path><path d="M273.8 523.7L319.3 511.3L304 490.3Z" fill="#6a8e1a" stroke="#adadad"></path><path d="M304 490.3L346.5 511L367 462.3Z" fill="#7a9711" stroke="#adadad"></path><path d="M253.8 448.7L246.5 491.3L273.8 479.3Z" fill="#154e2a" stroke="#adadad"></path><path d="M270.8 487.3L273.8 523.7L304 490.3Z" fill="#336a2a" stroke="#adadad"></path><path d="M215.3 456.7L246.5 491.3L253.8 448.7Z" fill="#1e572b" stroke="#adadad"></path><path d="M217.3 429L219 436.7L249.3 418.3Z" fill="#3f7328" stroke="#adadad"></path><path d="M249.3 418.3L219 436.7L253.8 448.7Z" fill="#1e572b" stroke="#adadad"></path><path d="M217.3 429L249.3 418.3L202.8 382.3Z" fill="#28612b" stroke="#adadad"></path><path d="M202.8 382.3L249.3 418.3L256.8 393.7Z" fill="#0f4429" stroke="#adadad"></path><path d="M338.5 353.7L298.5 381L321 405.3Z" fill="#336a2a" stroke="#adadad"></path><path d="M319.3 511.3L346.5 511L304 490.3Z" fill="#4c7d25" stroke="#adadad"></path><path d="M353.8 391L338.5 353.7L321 405.3Z" fill="#6a8e1a" stroke="#adadad"></path><path d="M264.8 340.3L252.3 361.7L275 367.7Z" fill="#7a9711" stroke="#adadad"></path><path d="M275 367.7L252.3 361.7L256.8 393.7Z" fill="#0f4429" stroke="#adadad"></path><path d="M201.3 469L215.3 456.7L219 436.7Z" fill="#0f4429" stroke="#adadad"></path><path d="M219 436.7L215.3 456.7L253.8 448.7Z" fill="#154e2a" stroke="#adadad"></path><path d="M235.5 523L251.5 512.7L223 516.7Z" fill="#6a8e1a" stroke="#adadad"></path><path d="M246.5 491.3L251.5 512.7L270.8 487.3Z" fill="#154e2a" stroke="#adadad"></path><path d="M319.3 511.3L328.3 528L346.5 511Z" fill="#154e2a" stroke="#adadad"></path><path d="M411.8 465L394.3 416L367 462.3Z" fill="#336a2a" stroke="#adadad"></path><path d="M367 462.3L394.3 416L357 426Z" fill="#1e572b" stroke="#adadad"></path><path d="M353.8 391L397.3 357.7L338.5 353.7Z" fill="#1e572b" stroke="#adadad"></path><path d="M251.5 512.7L273.8 523.7L270.8 487.3Z" fill="#28612b" stroke="#adadad"></path><path d="M394.3 416L392.3 406.3L357 426Z" fill="#0f4429" stroke="#adadad"></path><path d="M346.5 511L369.3 502.7L367 462.3Z" fill="#0f4429" stroke="#adadad"></path><path d="M201.3 469L212.5 466.3L215.3 456.7Z" fill="#28612b" stroke="#adadad"></path><path d="M215.3 456.7L212.5 466.3L246.5 491.3Z" fill="#7a9711" stroke="#adadad"></path><path d="M235.5 523L275.3 526.3L273.8 523.7Z" fill="#6a8e1a" stroke="#adadad"></path><path d="M273.8 523.7L275.3 526.3L319.3 511.3Z" fill="#7a9711" stroke="#adadad"></path><path d="M309 546L328.3 528L319.3 511.3Z" fill="#336a2a" stroke="#adadad"></path><path d="M346.5 511L369 514.7L369.3 502.7Z" fill="#3f7328" stroke="#adadad"></path><path d="M273.3 329.3L264.8 340.3L275 367.7Z" fill="#3f7328" stroke="#adadad"></path><path d="M328.3 528L369 514.7L346.5 511Z" fill="#7a9711" stroke="#adadad"></path><path d="M369.3 502.7L400 477L367 462.3Z" fill="#6a8e1a" stroke="#adadad"></path><path d="M369 514.7L400 477L369.3 502.7Z" fill="#4c7d25" stroke="#adadad"></path><path d="M217.3 429L201.3 469L219 436.7Z" fill="#336a2a" stroke="#adadad"></path><path d="M223 516.7L251.5 512.7L246.5 491.3Z" fill="#336a2a" stroke="#adadad"></path><path d="M325.5 350.3L273.3 329.3L275 367.7Z" fill="#154e2a" stroke="#adadad"></path><path d="M270.8 308.7L273.3 329.3L302.5 300.7Z" fill="#28612b" stroke="#adadad"></path><path d="M223 516.7L246.5 491.3L212.5 466.3Z" fill="#7a9711" stroke="#adadad"></path><path d="M251.5 512.7L235.5 523L273.8 523.7Z" fill="#4c7d25" stroke="#adadad"></path><path d="M296.5 580L309 546L275.3 526.3Z" fill="#4c7d25" stroke="#adadad"></path><path d="M275.3 526.3L309 546L319.3 511.3Z" fill="#0a3b26" stroke="#adadad"></path><path d="M328.3 528L369.5 563.3L369 514.7Z" fill="#7a9711" stroke="#adadad"></path><path d="M219.3 343L202.8 382.3L252.3 361.7Z" fill="#336a2a" stroke="#adadad"></path><path d="M252.3 361.7L202.8 382.3L256.8 393.7Z" fill="#28612b" stroke="#adadad"></path><path d="M217.3 429L179.5 397L201.3 469Z" fill="#5a8620" stroke="#adadad"></path><path d="M235 336L252.3 361.7L264.8 340.3Z" fill="#4c7d25" stroke="#adadad"></path><path d="M445.5 507.7L411.8 465L400 477Z" fill="#28612b" stroke="#adadad"></path><path d="M400 477L411.8 465L367 462.3Z" fill="#3f7328" stroke="#adadad"></path><path d="M416 369.7L402.8 377L450.5 393Z" fill="#28612b" stroke="#adadad"></path><path d="M201.3 469L223 516.7L212.5 466.3Z" fill="#336a2a" stroke="#adadad"></path><path d="M402.8 377L392.3 406.3L450.5 393Z" fill="#6a8e1a" stroke="#adadad"></path><path d="M392.3 406.3L402.8 377L353.8 391Z" fill="#0a3b26" stroke="#adadad"></path><path d="M302.5 300.7L273.3 329.3L325.5 350.3Z" fill="#7a9711" stroke="#adadad"></path><path d="M273.3 329.3L235 336L264.8 340.3Z" fill="#3f7328" stroke="#adadad"></path><path d="M402.8 377L397.3 357.7L353.8 391Z" fill="#0a3b26" stroke="#adadad"></path><path d="M235 336L219.3 343L252.3 361.7Z" fill="#154e2a" stroke="#adadad"></path><path d="M181 372.3L179.5 397L202.8 382.3Z" fill="#1e572b" stroke="#adadad"></path><path d="M202.8 382.3L179.5 397L217.3 429Z" fill="#5a8620" stroke="#adadad"></path><path d="M302.5 300.7L325.5 350.3L352.5 309Z" fill="#4c7d25" stroke="#adadad"></path><path d="M273.3 329.3L270.8 308.7L235 336Z" fill="#4c7d25" stroke="#adadad"></path><path d="M205.5 335L198.8 348L219.3 343Z" fill="#28612b" stroke="#adadad"></path><path d="M434.8 429.7L392.3 406.3L394.3 416Z" fill="#7a9711" stroke="#adadad"></path><path d="M402.8 377L416 369.7L397.3 357.7Z" fill="#7a9711" stroke="#adadad"></path><path d="M411.8 465L434.8 429.7L394.3 416Z" fill="#4c7d25" stroke="#adadad"></path><path d="M198.8 348L198.5 352.7L219.3 343Z" fill="#5a8620" stroke="#adadad"></path><path d="M219.3 343L198.5 352.7L202.8 382.3Z" fill="#4c7d25" stroke="#adadad"></path><path d="M352.5 309L325.5 350.3L338.5 353.7Z" fill="#1e572b" stroke="#adadad"></path><path d="M296.5 580L328.8 567L309 546Z" fill="#6a8e1a" stroke="#adadad"></path><path d="M309 546L328.8 567L328.3 528Z" fill="#28612b" stroke="#adadad"></path><path d="M369 514.7L445.5 507.7L400 477Z" fill="#1e572b" stroke="#adadad"></path><path d="M370 294.7L352.5 309L397.3 357.7Z" fill="#0a3b26" stroke="#adadad"></path><path d="M397.3 357.7L352.5 309L338.5 353.7Z" fill="#28612b" stroke="#adadad"></path><path d="M205.5 335L219.3 343L235 336Z" fill="#3f7328" stroke="#adadad"></path><path d="M198.5 352.7L181 372.3L202.8 382.3Z" fill="#154e2a" stroke="#adadad"></path><path d="M167 362L181 372.3L198.5 352.7Z" fill="#1e572b" stroke="#adadad"></path><path d="M240.5 284.3L205.5 335L235 336Z" fill="#336a2a" stroke="#adadad"></path><path d="M198.8 348L193.8 339.3L198.5 352.7Z" fill="#0f4429" stroke="#adadad"></path><path d="M207.8 548L229 555L235.5 523Z" fill="#28612b" stroke="#adadad"></path><path d="M235.5 523L229 555L275.3 526.3Z" fill="#154e2a" stroke="#adadad"></path><path d="M207.8 548L235.5 523L223 516.7Z" fill="#0f4429" stroke="#adadad"></path><path d="M142.8 322.7L193.8 339.3L148 304Z" fill="#3f7328" stroke="#adadad"></path><path d="M205.5 335L193.8 339.3L198.8 348Z" fill="#28612b" stroke="#adadad"></path><path d="M328.8 567L369.5 563.3L328.3 528Z" fill="#1e572b" stroke="#adadad"></path><path d="M458.3 488.3L466.3 428.7L434.8 429.7Z" fill="#7a9711" stroke="#adadad"></path><path d="M257.3 596L296.5 580L275.3 526.3Z" fill="#5a8620" stroke="#adadad"></path><path d="M328.8 567L333.5 585.7L369.5 563.3Z" fill="#0a3b26" stroke="#adadad"></path><path d="M134 506L207.8 548L223 516.7Z" fill="#336a2a" stroke="#adadad"></path><path d="M229 555L257.3 596L275.3 526.3Z" fill="#1e572b" stroke="#adadad"></path><path d="M134 506L223 516.7L201.3 469Z" fill="#4c7d25" stroke="#adadad"></path><path d="M434.8 429.7L450.5 393L392.3 406.3Z" fill="#0a3b26" stroke="#adadad"></path><path d="M416 369.7L444.8 338.7L397.3 357.7Z" fill="#28612b" stroke="#adadad"></path><path d="M193.8 339.3L167 362L198.5 352.7Z" fill="#0a3b26" stroke="#adadad"></path><path d="M181 372.3L167 362L179.5 397Z" fill="#154e2a" stroke="#adadad"></path><path d="M121 480.7L134 506L201.3 469Z" fill="#5a8620" stroke="#adadad"></path><path d="M296.5 580L333.5 585.7L328.8 567Z" fill="#336a2a" stroke="#adadad"></path><path d="M450.5 393L446 375.3L416 369.7Z" fill="#4c7d25" stroke="#adadad"></path><path d="M410 295L370 294.7L397.3 357.7Z" fill="#0f4429" stroke="#adadad"></path><path d="M352.5 309L354.3 281.7L302.5 300.7Z" fill="#5a8620" stroke="#adadad"></path><path d="M418.8 567.7L445.5 507.7L369 514.7Z" fill="#1e572b" stroke="#adadad"></path><path d="M434.8 429.7L462.8 409.3L450.5 393Z" fill="#0a3b26" stroke="#adadad"></path><path d="M370 294.7L354.3 281.7L352.5 309Z" fill="#1e572b" stroke="#adadad"></path><path d="M277.3 262.7L240.5 284.3L270.8 308.7Z" fill="#7a9711" stroke="#adadad"></path><path d="M466.3 428.7L462.8 409.3L434.8 429.7Z" fill="#5a8620" stroke="#adadad"></path><path d="M450.5 393L464.3 378.7L446 375.3Z" fill="#0a3b26" stroke="#adadad"></path><path d="M286.8 264L270.8 308.7L302.5 300.7Z" fill="#7a9711" stroke="#adadad"></path><path d="M270.8 308.7L240.5 284.3L235 336Z" fill="#4c7d25" stroke="#adadad"></path><path d="M142.8 322.7L140.3 353.7L167 362Z" fill="#1e572b" stroke="#adadad"></path><path d="M458.3 488.3L434.8 429.7L411.8 465Z" fill="#5a8620" stroke="#adadad"></path><path d="M445.5 507.7L458.3 488.3L411.8 465Z" fill="#5a8620" stroke="#adadad"></path><path d="M158.8 580.3L213.3 574.7L207.8 548Z" fill="#0f4429" stroke="#adadad"></path><path d="M207.8 548L213.3 574.7L229 555Z" fill="#0a3b26" stroke="#adadad"></path><path d="M296.5 580L337.3 609.3L333.5 585.7Z" fill="#5a8620" stroke="#adadad"></path><path d="M450 557.3L451.8 510.3L445.5 507.7Z" fill="#6a8e1a" stroke="#adadad"></path><path d="M445.5 507.7L462.5 501.3L458.3 488.3Z" fill="#28612b" stroke="#adadad"></path><path d="M216.8 591.7L257.3 596L229 555Z" fill="#28612b" stroke="#adadad"></path><path d="M466.3 428.7L470.5 408.7L462.8 409.3Z" fill="#154e2a" stroke="#adadad"></path><path d="M462.8 409.3L470.5 408.7L450.5 393Z" fill="#0a3b26" stroke="#adadad"></path><path d="M504.5 451.3L470.5 408.7L466.3 428.7Z" fill="#154e2a" stroke="#adadad"></path><path d="M470.5 408.7L464.3 378.7L450.5 393Z" fill="#154e2a" stroke="#adadad"></path><path d="M446 375.3L444.8 338.7L416 369.7Z" fill="#28612b" stroke="#adadad"></path><path d="M328.8 261.3L286.8 264L302.5 300.7Z" fill="#3f7328" stroke="#adadad"></path><path d="M452.5 337L444.8 338.7L446 375.3Z" fill="#154e2a" stroke="#adadad"></path><path d="M392.3 259L354.5 254.3L354.3 281.7Z" fill="#1e572b" stroke="#adadad"></path><path d="M451.8 510.3L462.5 501.3L445.5 507.7Z" fill="#7a9711" stroke="#adadad"></path><path d="M458.3 488.3L504.5 451.3L466.3 428.7Z" fill="#154e2a" stroke="#adadad"></path><path d="M286.8 264L277.3 262.7L270.8 308.7Z" fill="#0a3b26" stroke="#adadad"></path><path d="M354.5 254.3L328.8 261.3L354.3 281.7Z" fill="#0f4429" stroke="#adadad"></path><path d="M354.3 281.7L328.8 261.3L302.5 300.7Z" fill="#154e2a" stroke="#adadad"></path><path d="M286.8 264L304 213.3L277.3 262.7Z" fill="#336a2a" stroke="#adadad"></path><path d="M431.8 311.3L410 295L397.3 357.7Z" fill="#0f4429" stroke="#adadad"></path><path d="M415 577.7L418.8 567.7L369.5 563.3Z" fill="#1e572b" stroke="#adadad"></path><path d="M369.5 563.3L418.8 567.7L369 514.7Z" fill="#3f7328" stroke="#adadad"></path><path d="M493 540.3L503.3 511L462.5 501.3Z" fill="#4c7d25" stroke="#adadad"></path><path d="M322.5 631.7L337.3 609.3L296.5 580Z" fill="#0f4429" stroke="#adadad"></path><path d="M333.5 585.7L378.3 602L369.5 563.3Z" fill="#28612b" stroke="#adadad"></path><path d="M452.5 337L431.8 311.3L444.8 338.7Z" fill="#7a9711" stroke="#adadad"></path><path d="M444.8 338.7L431.8 311.3L397.3 357.7Z" fill="#0a3b26" stroke="#adadad"></path><path d="M464.3 378.7L452.5 337L446 375.3Z" fill="#4c7d25" stroke="#adadad"></path><path d="M213.3 574.7L216.8 591.7L229 555Z" fill="#6a8e1a" stroke="#adadad"></path><path d="M257.3 596L259.3 615.3L296.5 580Z" fill="#336a2a" stroke="#adadad"></path><path d="M158.8 580.3L216.8 591.7L213.3 574.7Z" fill="#7a9711" stroke="#adadad"></path><path d="M277.3 262.7L238 266.7L240.5 284.3Z" fill="#7a9711" stroke="#adadad"></path><path d="M240.5 284.3L167.5 291.7L205.5 335Z" fill="#336a2a" stroke="#adadad"></path><path d="M433.5 290.7L412.3 290.3L410 295Z" fill="#6a8e1a" stroke="#adadad"></path><path d="M410 295L412.3 290.3L370 294.7Z" fill="#154e2a" stroke="#adadad"></path><path d="M142.8 322.7L167 362L193.8 339.3Z" fill="#3f7328" stroke="#adadad"></path><path d="M167 362L119.3 403.3L179.5 397Z" fill="#1e572b" stroke="#adadad"></path><path d="M385.3 600.7L415 577.7L369.5 563.3Z" fill="#4c7d25" stroke="#adadad"></path><path d="M418.8 567.7L450 557.3L445.5 507.7Z" fill="#1e572b" stroke="#adadad"></path><path d="M117.8 437.7L201.3 469L179.5 397Z" fill="#0f4429" stroke="#adadad"></path><path d="M337.3 609.3L378.3 602L333.5 585.7Z" fill="#4c7d25" stroke="#adadad"></path><path d="M119.3 403.3L117.8 437.7L179.5 397Z" fill="#154e2a" stroke="#adadad"></path><path d="M378.3 602L385.3 600.7L369.5 563.3Z" fill="#4c7d25" stroke="#adadad"></path><path d="M241 616.3L259.3 615.3L257.3 596Z" fill="#336a2a" stroke="#adadad"></path><path d="M140.3 353.7L119.3 403.3L167 362Z" fill="#4c7d25" stroke="#adadad"></path><path d="M119.3 403.3L116 438.3L117.8 437.7Z" fill="#4c7d25" stroke="#adadad"></path><path d="M117.8 437.7L121 480.7L201.3 469Z" fill="#7a9711" stroke="#adadad"></path><path d="M116 438.3L121 480.7L117.8 437.7Z" fill="#5a8620" stroke="#adadad"></path><path d="M392.3 259L354.3 281.7L370 294.7Z" fill="#0a3b26" stroke="#adadad"></path><path d="M328.8 261.3L318.8 228L286.8 264Z" fill="#4c7d25" stroke="#adadad"></path><path d="M277.3 262.7L232.3 236.3L238 266.7Z" fill="#7a9711" stroke="#adadad"></path><path d="M430.5 599L418.8 567.7L415 577.7Z" fill="#28612b" stroke="#adadad"></path><path d="M430.5 599L450 557.3L418.8 567.7Z" fill="#28612b" stroke="#adadad"></path><path d="M216.8 591.7L241 616.3L257.3 596Z" fill="#5a8620" stroke="#adadad"></path><path d="M452.5 337L433.5 290.7L431.8 311.3Z" fill="#0a3b26" stroke="#adadad"></path><path d="M431.8 311.3L433.5 290.7L410 295Z" fill="#7a9711" stroke="#adadad"></path><path d="M412.3 290.3L392.3 259L370 294.7Z" fill="#0f4429" stroke="#adadad"></path><path d="M385.3 600.7L418 591.3L415 577.7Z" fill="#336a2a" stroke="#adadad"></path><path d="M167.5 291.7L193.8 339.3L205.5 335Z" fill="#0f4429" stroke="#adadad"></path><path d="M140.3 353.7L99.3 385L119.3 403.3Z" fill="#1e572b" stroke="#adadad"></path><path d="M378.3 602L390.8 610.3L385.3 600.7Z" fill="#5a8620" stroke="#adadad"></path><path d="M385.3 600.7L390.8 610.3L418 591.3Z" fill="#0f4429" stroke="#adadad"></path><path d="M348.8 666.3L390.8 610.3L378.3 602Z" fill="#154e2a" stroke="#adadad"></path><path d="M403 636L390.8 610.3L348.8 666.3Z" fill="#0f4429" stroke="#adadad"></path><path d="M322.5 631.7L296.5 580L259.3 615.3Z" fill="#28612b" stroke="#adadad"></path><path d="M192.5 258.3L167.5 291.7L240.5 284.3Z" fill="#0a3b26" stroke="#adadad"></path><path d="M422.8 261L392.3 259L412.3 290.3Z" fill="#6a8e1a" stroke="#adadad"></path><path d="M309.8 649L322.5 631.7L259.3 615.3Z" fill="#28612b" stroke="#adadad"></path><path d="M116 438.3L107.3 487L121 480.7Z" fill="#154e2a" stroke="#adadad"></path><path d="M121 480.7L108.5 505.7L134 506Z" fill="#0a3b26" stroke="#adadad"></path><path d="M134.3 554L158.8 580.3L207.8 548Z" fill="#0f4429" stroke="#adadad"></path><path d="M216.8 591.7L236.5 635L241 616.3Z" fill="#5a8620" stroke="#adadad"></path><path d="M90.3 492.7L107.3 487L68.5 483.3Z" fill="#6a8e1a" stroke="#adadad"></path><path d="M167.5 291.7L148 304L193.8 339.3Z" fill="#1e572b" stroke="#adadad"></path><path d="M142.8 322.7L124 325.7L140.3 353.7Z" fill="#336a2a" stroke="#adadad"></path><path d="M507 452L504.5 451.3L503.3 511Z" fill="#3f7328" stroke="#adadad"></path><path d="M503.3 511L504.5 451.3L458.3 488.3Z" fill="#5a8620" stroke="#adadad"></path><path d="M506.3 351.3L495.3 350L464.3 378.7Z" fill="#154e2a" stroke="#adadad"></path><path d="M464.3 378.7L495.3 350L452.5 337Z" fill="#154e2a" stroke="#adadad"></path><path d="M452.5 337L512.3 329L433.5 290.7Z" fill="#154e2a" stroke="#adadad"></path><path d="M134.3 554L207.8 548L134 506Z" fill="#7a9711" stroke="#adadad"></path><path d="M503.3 511L458.3 488.3L462.5 501.3Z" fill="#336a2a" stroke="#adadad"></path><path d="M504.5 451.3L526.3 411.3L470.5 408.7Z" fill="#0f4429" stroke="#adadad"></path><path d="M118.3 552.3L134.3 554L134 506Z" fill="#154e2a" stroke="#adadad"></path><path d="M107.3 487L108.5 505.7L121 480.7Z" fill="#154e2a" stroke="#adadad"></path><path d="M167.5 291.7L148.3 296.3L148 304Z" fill="#0f4429" stroke="#adadad"></path><path d="M122.8 294L124 325.7L142.8 322.7Z" fill="#154e2a" stroke="#adadad"></path><path d="M165 251.3L148.3 296.3L167.5 291.7Z" fill="#154e2a" stroke="#adadad"></path><path d="M354.3 213.3L318.8 228L354.5 254.3Z" fill="#28612b" stroke="#adadad"></path><path d="M354.5 254.3L318.8 228L328.8 261.3Z" fill="#4c7d25" stroke="#adadad"></path><path d="M238 266.7L192.5 258.3L240.5 284.3Z" fill="#7a9711" stroke="#adadad"></path><path d="M232.3 236.3L192.5 258.3L238 266.7Z" fill="#0f4429" stroke="#adadad"></path><path d="M403 636L430.5 599L390.8 610.3Z" fill="#0f4429" stroke="#adadad"></path><path d="M390.8 610.3L430.5 599L418 591.3Z" fill="#5a8620" stroke="#adadad"></path><path d="M418 591.3L430.5 599L415 577.7Z" fill="#154e2a" stroke="#adadad"></path><path d="M493 540.3L462.5 501.3L451.8 510.3Z" fill="#154e2a" stroke="#adadad"></path><path d="M122.8 294L142.8 322.7L148 304Z" fill="#154e2a" stroke="#adadad"></path><path d="M119.3 403.3L99.3 385L116 438.3Z" fill="#28612b" stroke="#adadad"></path><path d="M124 325.7L99.3 385L140.3 353.7Z" fill="#5a8620" stroke="#adadad"></path><path d="M107.3 487L90.3 492.7L108.5 505.7Z" fill="#28612b" stroke="#adadad"></path><path d="M304 213.3L232.3 236.3L277.3 262.7Z" fill="#3f7328" stroke="#adadad"></path><path d="M506.3 351.3L464.3 378.7L526.3 411.3Z" fill="#28612b" stroke="#adadad"></path><path d="M233.5 641.3L236.5 635L219 649.7Z" fill="#5a8620" stroke="#adadad"></path><path d="M241 616.3L236.5 635L259.3 615.3Z" fill="#28612b" stroke="#adadad"></path><path d="M433.5 290.7L422.8 261L412.3 290.3Z" fill="#28612b" stroke="#adadad"></path><path d="M392.3 259L365.3 225L354.5 254.3Z" fill="#0a3b26" stroke="#adadad"></path><path d="M434.5 226.3L422.8 261L465.8 222.3Z" fill="#336a2a" stroke="#adadad"></path><path d="M283.8 662.7L309.8 649L259.3 615.3Z" fill="#336a2a" stroke="#adadad"></path><path d="M339.5 659.3L378.3 602L337.3 609.3Z" fill="#336a2a" stroke="#adadad"></path><path d="M493 540.3L451.8 510.3L450 557.3Z" fill="#336a2a" stroke="#adadad"></path><path d="M485.8 594L493 540.3L450 557.3Z" fill="#0f4429" stroke="#adadad"></path><path d="M219 649.7L236.5 635L216.8 591.7Z" fill="#0f4429" stroke="#adadad"></path><path d="M236.5 635L283.8 662.7L259.3 615.3Z" fill="#3f7328" stroke="#adadad"></path><path d="M108.5 505.7L118.3 552.3L134 506Z" fill="#7a9711" stroke="#adadad"></path><path d="M134.3 554L114 564.3L158.8 580.3Z" fill="#336a2a" stroke="#adadad"></path><path d="M158.8 580.3L155.5 607.7L216.8 591.7Z" fill="#0a3b26" stroke="#adadad"></path><path d="M396 211.3L365.3 225L392.3 259Z" fill="#1e572b" stroke="#adadad"></path><path d="M526.3 411.3L464.3 378.7L470.5 408.7Z" fill="#3f7328" stroke="#adadad"></path><path d="M495.3 350L512.3 329L452.5 337Z" fill="#1e572b" stroke="#adadad"></path><path d="M76.5 492L90.3 492.7L68.5 483.3Z" fill="#3f7328" stroke="#adadad"></path><path d="M108.5 505.7L89 553.7L118.3 552.3Z" fill="#6a8e1a" stroke="#adadad"></path><path d="M319 206L304 213.3L318.8 228Z" fill="#4c7d25" stroke="#adadad"></path><path d="M318.8 228L304 213.3L286.8 264Z" fill="#1e572b" stroke="#adadad"></path><path d="M480.3 612.7L463.5 591.3L430.5 599Z" fill="#3f7328" stroke="#adadad"></path><path d="M430.5 599L463.5 591.3L450 557.3Z" fill="#4c7d25" stroke="#adadad"></path><path d="M567 421.7L526.3 411.3L507 452Z" fill="#0f4429" stroke="#adadad"></path><path d="M507 452L526.3 411.3L504.5 451.3Z" fill="#336a2a" stroke="#adadad"></path><path d="M339.5 659.3L337.3 609.3L322.5 631.7Z" fill="#28612b" stroke="#adadad"></path><path d="M536 358L509.5 345.3L506.3 351.3Z" fill="#336a2a" stroke="#adadad"></path><path d="M506.3 351.3L509.5 345.3L495.3 350Z" fill="#1e572b" stroke="#adadad"></path><path d="M106 583L155.5 607.7L158.8 580.3Z" fill="#0f4429" stroke="#adadad"></path><path d="M358.5 197.7L354.3 213.3L365.3 225Z" fill="#6a8e1a" stroke="#adadad"></path><path d="M365.3 225L354.3 213.3L354.5 254.3Z" fill="#1e572b" stroke="#adadad"></path><path d="M350.3 681.7L339.5 659.3L312.5 720.7Z" fill="#0f4429" stroke="#adadad"></path><path d="M309.8 649L339.5 659.3L322.5 631.7Z" fill="#28612b" stroke="#adadad"></path><path d="M82.5 327L81.5 378.7L99.3 385Z" fill="#3f7328" stroke="#adadad"></path><path d="M99.3 385L70.5 386L116 438.3Z" fill="#7a9711" stroke="#adadad"></path><path d="M148.3 296.3L122.8 294L148 304Z" fill="#4c7d25" stroke="#adadad"></path><path d="M124 325.7L82.5 327L99.3 385Z" fill="#3f7328" stroke="#adadad"></path><path d="M116 285.7L122.8 294L148.3 296.3Z" fill="#0f4429" stroke="#adadad"></path><path d="M165 251.3L167.5 291.7L192.5 258.3Z" fill="#5a8620" stroke="#adadad"></path><path d="M233.5 641.3L283.8 662.7L236.5 635Z" fill="#7a9711" stroke="#adadad"></path><path d="M89 553.7L114 564.3L118.3 552.3Z" fill="#3f7328" stroke="#adadad"></path><path d="M118.3 552.3L114 564.3L134.3 554Z" fill="#7a9711" stroke="#adadad"></path><path d="M185.3 220L192.5 258.3L232.3 236.3Z" fill="#5a8620" stroke="#adadad"></path><path d="M185.3 220L165 251.3L192.5 258.3Z" fill="#0a3b26" stroke="#adadad"></path><path d="M354.3 213.3L319 206L318.8 228Z" fill="#28612b" stroke="#adadad"></path><path d="M212.8 201.3L185.3 220L232.3 236.3Z" fill="#4c7d25" stroke="#adadad"></path><path d="M493 540.3L517.5 518L503.3 511Z" fill="#1e572b" stroke="#adadad"></path><path d="M503.3 511L557.8 481L507 452Z" fill="#6a8e1a" stroke="#adadad"></path><path d="M510.5 554.7L517.5 518L493 540.3Z" fill="#1e572b" stroke="#adadad"></path><path d="M204.5 655.7L219 649.7L180.8 650Z" fill="#7a9711" stroke="#adadad"></path><path d="M233.5 641.3L237.3 677L283.8 662.7Z" fill="#0f4429" stroke="#adadad"></path><path d="M68.5 483.3L107.3 487L116 438.3Z" fill="#6a8e1a" stroke="#adadad"></path><path d="M60.3 533.7L89 553.7L108.5 505.7Z" fill="#3f7328" stroke="#adadad"></path><path d="M542 341.7L512.3 329L509.5 345.3Z" fill="#5a8620" stroke="#adadad"></path><path d="M509.5 345.3L512.3 329L495.3 350Z" fill="#7a9711" stroke="#adadad"></path><path d="M350.3 681.7L348.8 666.3L339.5 659.3Z" fill="#154e2a" stroke="#adadad"></path><path d="M339.5 659.3L348.8 666.3L378.3 602Z" fill="#0a3b26" stroke="#adadad"></path><path d="M60.8 376.7L70.5 386L81.5 378.7Z" fill="#0a3b26" stroke="#adadad"></path><path d="M81.5 378.7L70.5 386L99.3 385Z" fill="#1e572b" stroke="#adadad"></path><path d="M165 251.3L116 285.7L148.3 296.3Z" fill="#5a8620" stroke="#adadad"></path><path d="M122.8 294L82.5 327L124 325.7Z" fill="#1e572b" stroke="#adadad"></path><path d="M22.8 446.3L68.5 483.3L116 438.3Z" fill="#4c7d25" stroke="#adadad"></path><path d="M60.3 533.7L108.5 505.7L90.3 492.7Z" fill="#7a9711" stroke="#adadad"></path><path d="M485.8 594L510.5 554.7L493 540.3Z" fill="#6a8e1a" stroke="#adadad"></path><path d="M180.8 650L219 649.7L216.8 591.7Z" fill="#154e2a" stroke="#adadad"></path><path d="M219 649.7L237.3 677L233.5 641.3Z" fill="#6a8e1a" stroke="#adadad"></path><path d="M434.5 226.3L392.3 259L422.8 261Z" fill="#6a8e1a" stroke="#adadad"></path><path d="M434.5 226.3L396 211.3L392.3 259Z" fill="#3f7328" stroke="#adadad"></path><path d="M354.3 213.3L358.5 197.7L319 206Z" fill="#6a8e1a" stroke="#adadad"></path><path d="M480.3 612.7L485.8 594L463.5 591.3Z" fill="#0a3b26" stroke="#adadad"></path><path d="M463.5 591.3L485.8 594L450 557.3Z" fill="#154e2a" stroke="#adadad"></path><path d="M480.3 612.7L430.5 599L403 636Z" fill="#7a9711" stroke="#adadad"></path><path d="M396 211.3L358.5 197.7L365.3 225Z" fill="#0f4429" stroke="#adadad"></path><path d="M60.3 533.7L90.3 492.7L76.5 492Z" fill="#0a3b26" stroke="#adadad"></path><path d="M114 564.3L106 583L158.8 580.3Z" fill="#3f7328" stroke="#adadad"></path><path d="M155.5 607.7L180.8 650L216.8 591.7Z" fill="#7a9711" stroke="#adadad"></path><path d="M232.3 236.3L304 213.3L238 188.7Z" fill="#28612b" stroke="#adadad"></path><path d="M212.8 201.3L232.3 236.3L238 188.7Z" fill="#3f7328" stroke="#adadad"></path><path d="M165 251.3L143.8 237.7L116 285.7Z" fill="#28612b" stroke="#adadad"></path><path d="M116 285.7L82.5 327L122.8 294Z" fill="#7a9711" stroke="#adadad"></path><path d="M526.3 411.3L536 358L506.3 351.3Z" fill="#6a8e1a" stroke="#adadad"></path><path d="M553.8 387L536 358L526.3 411.3Z" fill="#28612b" stroke="#adadad"></path><path d="M89 553.7L106 583L114 564.3Z" fill="#336a2a" stroke="#adadad"></path><path d="M465.8 222.3L422.8 261L494 246.3Z" fill="#154e2a" stroke="#adadad"></path><path d="M440.8 213.7L434.5 226.3L465.8 222.3Z" fill="#1e572b" stroke="#adadad"></path><path d="M149.8 666.3L180.8 650L155.5 607.7Z" fill="#28612b" stroke="#adadad"></path><path d="M348.8 666.3L397 664L403 636Z" fill="#4c7d25" stroke="#adadad"></path><path d="M82.5 327L60.8 376.7L81.5 378.7Z" fill="#3f7328" stroke="#adadad"></path><path d="M70.5 386L22.8 446.3L116 438.3Z" fill="#7a9711" stroke="#adadad"></path><path d="M210.3 200.7L212.8 201.3L195.5 179Z" fill="#6a8e1a" stroke="#adadad"></path><path d="M219 675L219 649.7L204.5 655.7Z" fill="#336a2a" stroke="#adadad"></path><path d="M219 675L237.3 677L219 649.7Z" fill="#0f4429" stroke="#adadad"></path><path d="M312.5 720.7L339.5 659.3L309.8 649Z" fill="#0f4429" stroke="#adadad"></path><path d="M348.8 666.3L368.3 692L397 664Z" fill="#5a8620" stroke="#adadad"></path><path d="M238 188.7L304 213.3L273.8 164.3Z" fill="#4c7d25" stroke="#adadad"></path><path d="M212.8 201.3L210.3 200.7L185.3 220Z" fill="#1e572b" stroke="#adadad"></path><path d="M495.5 653L480.3 612.7L460.8 690.7Z" fill="#4c7d25" stroke="#adadad"></path><path d="M485.8 594L549.3 593L510.5 554.7Z" fill="#5a8620" stroke="#adadad"></path><path d="M312.5 720.7L309.8 649L283.8 662.7Z" fill="#1e572b" stroke="#adadad"></path><path d="M237.3 677L269.8 685.3L283.8 662.7Z" fill="#3f7328" stroke="#adadad"></path><path d="M146.3 206L143.8 237.7L185.3 220Z" fill="#0f4429" stroke="#adadad"></path><path d="M185.3 220L143.8 237.7L165 251.3Z" fill="#5a8620" stroke="#adadad"></path><path d="M81.3 277.7L63.3 317L82.5 327Z" fill="#3f7328" stroke="#adadad"></path><path d="M22.8 446.3L57.5 501.3L68.5 483.3Z" fill="#336a2a" stroke="#adadad"></path><path d="M68.5 483.3L57.5 501.3L76.5 492Z" fill="#1e572b" stroke="#adadad"></path><path d="M89 553.7L35.8 602.3L106 583Z" fill="#3f7328" stroke="#adadad"></path><path d="M323.5 169L304 213.3L319 206Z" fill="#0f4429" stroke="#adadad"></path><path d="M196.8 678.7L219 675L204.5 655.7Z" fill="#0f4429" stroke="#adadad"></path><path d="M237.3 677L270.3 699.7L269.8 685.3Z" fill="#154e2a" stroke="#adadad"></path><path d="M557.8 481L503.3 511L517.5 518Z" fill="#4c7d25" stroke="#adadad"></path><path d="M567 421.7L553.8 387L526.3 411.3Z" fill="#6a8e1a" stroke="#adadad"></path><path d="M553.8 387L542 341.7L536 358Z" fill="#5a8620" stroke="#adadad"></path><path d="M536 358L542 341.7L509.5 345.3Z" fill="#4c7d25" stroke="#adadad"></path><path d="M552 547.7L517.5 518L510.5 554.7Z" fill="#7a9711" stroke="#adadad"></path><path d="M552 547.7L557.8 481L517.5 518Z" fill="#154e2a" stroke="#adadad"></path><path d="M422.8 261L433.5 290.7L494 246.3Z" fill="#3f7328" stroke="#adadad"></path><path d="M434.5 226.3L440.8 213.7L396 211.3Z" fill="#6a8e1a" stroke="#adadad"></path><path d="M396 211.3L396 191L358.5 197.7Z" fill="#3f7328" stroke="#adadad"></path><path d="M440.8 213.7L396 191L396 211.3Z" fill="#6a8e1a" stroke="#adadad"></path><path d="M358.5 197.7L323.5 169L319 206Z" fill="#0a3b26" stroke="#adadad"></path><path d="M57.5 501.3L60.3 533.7L76.5 492Z" fill="#1e572b" stroke="#adadad"></path><path d="M577 440.3L567 421.7L507 452Z" fill="#7a9711" stroke="#adadad"></path><path d="M594.5 309L554 303L542 341.7Z" fill="#0a3b26" stroke="#adadad"></path><path d="M375.5 705L368.3 692L312.5 720.7Z" fill="#4c7d25" stroke="#adadad"></path><path d="M350.3 681.7L368.3 692L348.8 666.3Z" fill="#5a8620" stroke="#adadad"></path><path d="M495.5 653L501 621.7L480.3 612.7Z" fill="#6a8e1a" stroke="#adadad"></path><path d="M180.8 650L196.8 678.7L204.5 655.7Z" fill="#5a8620" stroke="#adadad"></path><path d="M248.5 722.7L270.3 699.7L237.3 677Z" fill="#5a8620" stroke="#adadad"></path><path d="M149.8 666.3L196.8 678.7L180.8 650Z" fill="#0f4429" stroke="#adadad"></path><path d="M334.3 159.7L323.5 169L358.5 197.7Z" fill="#3f7328" stroke="#adadad"></path><path d="M81.3 277.7L82.5 327L116 285.7Z" fill="#0a3b26" stroke="#adadad"></path><path d="M82.5 327L63.3 317L60.8 376.7Z" fill="#4c7d25" stroke="#adadad"></path><path d="M248.5 722.7L237.3 677L201.5 720.3Z" fill="#4c7d25" stroke="#adadad"></path><path d="M269.8 685.3L312.5 720.7L283.8 662.7Z" fill="#0f4429" stroke="#adadad"></path><path d="M494 246.3L433.5 290.7L512.3 329Z" fill="#28612b" stroke="#adadad"></path><path d="M440.8 213.7L444.8 169L396 191Z" fill="#336a2a" stroke="#adadad"></path><path d="M554 303L494 246.3L512.3 329Z" fill="#0f4429" stroke="#adadad"></path><path d="M494 246.3L467.8 220.7L465.8 222.3Z" fill="#28612b" stroke="#adadad"></path><path d="M465.8 222.3L467.8 220.7L440.8 213.7Z" fill="#28612b" stroke="#adadad"></path><path d="M143.8 237.7L81.3 277.7L116 285.7Z" fill="#6a8e1a" stroke="#adadad"></path><path d="M323.5 169L273.8 164.3L304 213.3Z" fill="#3f7328" stroke="#adadad"></path><path d="M195.5 179L185.3 220L210.3 200.7Z" fill="#336a2a" stroke="#adadad"></path><path d="M150.3 200.3L146.3 206L185.3 220Z" fill="#5a8620" stroke="#adadad"></path><path d="M375.5 705L385.3 694.3L368.3 692Z" fill="#4c7d25" stroke="#adadad"></path><path d="M368.3 692L385.3 694.3L397 664Z" fill="#5a8620" stroke="#adadad"></path><path d="M480.3 612.7L403 636L460.8 690.7Z" fill="#0a3b26" stroke="#adadad"></path><path d="M480.3 612.7L501 621.7L485.8 594Z" fill="#0f4429" stroke="#adadad"></path><path d="M562.8 565.3L552 547.7L549.3 593Z" fill="#3f7328" stroke="#adadad"></path><path d="M557.8 481L577 440.3L507 452Z" fill="#6a8e1a" stroke="#adadad"></path><path d="M599.5 473.3L577 440.3L557.8 481Z" fill="#1e572b" stroke="#adadad"></path><path d="M591 376.3L542 341.7L553.8 387Z" fill="#5a8620" stroke="#adadad"></path><path d="M346.5 156.3L334.3 159.7L358.5 197.7Z" fill="#6a8e1a" stroke="#adadad"></path><path d="M323.5 169L334.3 159.7L273.8 164.3Z" fill="#6a8e1a" stroke="#adadad"></path><path d="M346.5 156.3L358.5 197.7L359 158.3Z" fill="#6a8e1a" stroke="#adadad"></path><path d="M63.3 317L30.8 382.3L60.8 376.7Z" fill="#0f4429" stroke="#adadad"></path><path d="M60.8 376.7L30.8 382.3L70.5 386Z" fill="#154e2a" stroke="#adadad"></path><path d="M0 527.3L28.5 562.7L60.3 533.7Z" fill="#154e2a" stroke="#adadad"></path><path d="M37.5 308.3L30.8 382.3L63.3 317Z" fill="#4c7d25" stroke="#adadad"></path><path d="M195.5 179L212.8 201.3L238 188.7Z" fill="#7a9711" stroke="#adadad"></path><path d="M143.8 237.7L63.8 256L81.3 277.7Z" fill="#6a8e1a" stroke="#adadad"></path><path d="M241 162.3L195.5 179L238 188.7Z" fill="#4c7d25" stroke="#adadad"></path><path d="M124.3 676.3L155.5 607.7L83 655.3Z" fill="#4c7d25" stroke="#adadad"></path><path d="M124.3 676.3L149.8 666.3L155.5 607.7Z" fill="#3f7328" stroke="#adadad"></path><path d="M296 727.3L312.5 720.7L270.3 699.7Z" fill="#154e2a" stroke="#adadad"></path><path d="M251.5 146.3L241 162.3L273.8 164.3Z" fill="#5a8620" stroke="#adadad"></path><path d="M273.8 164.3L241 162.3L238 188.7Z" fill="#154e2a" stroke="#adadad"></path><path d="M166.5 188.7L150.3 200.3L185.3 220Z" fill="#1e572b" stroke="#adadad"></path><path d="M146.3 206L127.8 199L143.8 237.7Z" fill="#154e2a" stroke="#adadad"></path><path d="M30.8 382.3L22.8 446.3L70.5 386Z" fill="#28612b" stroke="#adadad"></path><path d="M312.5 720.7L368.3 692L350.3 681.7Z" fill="#1e572b" stroke="#adadad"></path><path d="M460.8 690.7L403 636L397 664Z" fill="#4c7d25" stroke="#adadad"></path><path d="M150.3 200.3L166.5 188.7L145 160Z" fill="#6a8e1a" stroke="#adadad"></path><path d="M195.5 179L166.5 188.7L185.3 220Z" fill="#7a9711" stroke="#adadad"></path><path d="M359 158.3L358.5 197.7L396 191Z" fill="#6a8e1a" stroke="#adadad"></path><path d="M252.8 121.7L251.5 146.3L273.8 164.3Z" fill="#5a8620" stroke="#adadad"></path><path d="M384 126.7L359 158.3L396 191Z" fill="#7a9711" stroke="#adadad"></path><path d="M591 376.3L553.8 387L567 421.7Z" fill="#0a3b26" stroke="#adadad"></path><path d="M542 341.7L554 303L512.3 329Z" fill="#336a2a" stroke="#adadad"></path><path d="M494 246.3L504.3 234.3L467.8 220.7Z" fill="#5a8620" stroke="#adadad"></path><path d="M562.5 257.3L504.3 234.3L494 246.3Z" fill="#4c7d25" stroke="#adadad"></path><path d="M467.8 220.7L444.8 169L440.8 213.7Z" fill="#5a8620" stroke="#adadad"></path><path d="M296 727.3L270.3 699.7L248.5 722.7Z" fill="#28612b" stroke="#adadad"></path><path d="M270.3 699.7L312.5 720.7L269.8 685.3Z" fill="#154e2a" stroke="#adadad"></path><path d="M549.3 593L552 547.7L510.5 554.7Z" fill="#0a3b26" stroke="#adadad"></path><path d="M602.5 494.3L599.5 473.3L557.8 481Z" fill="#336a2a" stroke="#adadad"></path><path d="M460.8 690.7L397 664L454 705.7Z" fill="#7a9711" stroke="#adadad"></path><path d="M501 621.7L549.3 593L485.8 594Z" fill="#4c7d25" stroke="#adadad"></path><path d="M252.8 121.7L273.8 164.3L286.3 90.7Z" fill="#154e2a" stroke="#adadad"></path><path d="M241 162.3L193.8 138.7L195.5 179Z" fill="#0f4429" stroke="#adadad"></path><path d="M237.3 677L219 675L201.5 720.3Z" fill="#0f4429" stroke="#adadad"></path><path d="M387.8 726.3L391.3 716.7L375.5 705Z" fill="#7a9711" stroke="#adadad"></path><path d="M201.5 720.3L219 675L196.8 678.7Z" fill="#4c7d25" stroke="#adadad"></path><path d="M529.3 655.3L549.3 593L501 621.7Z" fill="#6a8e1a" stroke="#adadad"></path><path d="M117.5 184.3L127.8 199L135.3 162.3Z" fill="#4c7d25" stroke="#adadad"></path><path d="M150.3 200.3L127.8 199L146.3 206Z" fill="#4c7d25" stroke="#adadad"></path><path d="M127.8 199L150.3 200.3L135.3 162.3Z" fill="#336a2a" stroke="#adadad"></path><path d="M37.5 307.7L63.3 317L81.3 277.7Z" fill="#336a2a" stroke="#adadad"></path><path d="M37.5 307.7L37.5 308.3L63.3 317Z" fill="#0a3b26" stroke="#adadad"></path><path d="M30.8 382.3L7.8 433.7L22.8 446.3Z" fill="#4c7d25" stroke="#adadad"></path><path d="M63.8 256L37.5 307.7L81.3 277.7Z" fill="#336a2a" stroke="#adadad"></path><path d="M0 439.3L7.8 433.7L0 417.7Z" fill="#4c7d25" stroke="#adadad"></path><path d="M622.8 406.3L567 421.7L577 440.3Z" fill="#0f4429" stroke="#adadad"></path><path d="M622.8 406.3L591 376.3L567 421.7Z" fill="#6a8e1a" stroke="#adadad"></path><path d="M7.8 433.7L0 416.7L0 417.7Z" fill="#7a9711" stroke="#adadad"></path><path d="M0 521.7L60.3 533.7L57.5 501.3Z" fill="#1e572b" stroke="#adadad"></path><path d="M387.8 726.3L375.5 705L367.5 756.3Z" fill="#4c7d25" stroke="#adadad"></path><path d="M375.5 705L391.3 716.7L385.3 694.3Z" fill="#1e572b" stroke="#adadad"></path><path d="M127.8 199L63.8 256L143.8 237.7Z" fill="#7a9711" stroke="#adadad"></path><path d="M562.5 257.3L516.3 225.7L504.3 234.3Z" fill="#3f7328" stroke="#adadad"></path><path d="M504.3 234.3L501.5 181.7L467.8 220.7Z" fill="#0a3b26" stroke="#adadad"></path><path d="M562.5 257.3L494 246.3L554 303Z" fill="#336a2a" stroke="#adadad"></path><path d="M602.5 494.3L557.8 481L605.5 501.7Z" fill="#0f4429" stroke="#adadad"></path><path d="M120 677.7L124.3 676.3L83 655.3Z" fill="#0f4429" stroke="#adadad"></path><path d="M149.8 666.3L201.5 720.3L196.8 678.7Z" fill="#6a8e1a" stroke="#adadad"></path><path d="M28.5 562.7L89 553.7L60.3 533.7Z" fill="#3f7328" stroke="#adadad"></path><path d="M454 705.7L397 664L385.3 694.3Z" fill="#154e2a" stroke="#adadad"></path><path d="M501.5 181.7L444.8 169L467.8 220.7Z" fill="#3f7328" stroke="#adadad"></path><path d="M359 158.3L353.8 112L346.5 156.3Z" fill="#0a3b26" stroke="#adadad"></path><path d="M0 456L57.5 501.3L22.8 446.3Z" fill="#1e572b" stroke="#adadad"></path><path d="M7.8 433.7L30.8 382.3L0 416.7Z" fill="#3f7328" stroke="#adadad"></path><path d="M7.8 433.7L0 439.3L22.8 446.3Z" fill="#3f7328" stroke="#adadad"></path><path d="M0 416.7L30.8 382.3L0 384.3Z" fill="#0f4429" stroke="#adadad"></path><path d="M154.8 748L201.5 720.3L149.8 666.3Z" fill="#5a8620" stroke="#adadad"></path><path d="M248.5 722.7L250.3 733.3L296 727.3Z" fill="#336a2a" stroke="#adadad"></path><path d="M0 384.3L30.8 382.3L0 361Z" fill="#336a2a" stroke="#adadad"></path><path d="M201.5 720.3L250.3 733.3L248.5 722.7Z" fill="#5a8620" stroke="#adadad"></path><path d="M367.5 756.3L375.5 705L312.5 720.7Z" fill="#336a2a" stroke="#adadad"></path><path d="M0 439.3L0 456L22.8 446.3Z" fill="#7a9711" stroke="#adadad"></path><path d="M403 730.7L387.8 726.3L367.5 756.3Z" fill="#0f4429" stroke="#adadad"></path><path d="M425.5 728.3L454 705.7L385.3 694.3Z" fill="#3f7328" stroke="#adadad"></path><path d="M83 655.3L155.5 607.7L106 583Z" fill="#3f7328" stroke="#adadad"></path><path d="M124.3 676.3L117.8 700.3L149.8 666.3Z" fill="#1e572b" stroke="#adadad"></path><path d="M605.5 501.7L557.8 481L606.5 515.7Z" fill="#154e2a" stroke="#adadad"></path><path d="M599.5 473.3L613.3 465.3L577 440.3Z" fill="#28612b" stroke="#adadad"></path><path d="M557.8 481L552 547.7L606.5 515.7Z" fill="#5a8620" stroke="#adadad"></path><path d="M0 361L30.8 382.3L37.5 308.3Z" fill="#0f4429" stroke="#adadad"></path><path d="M201.5 720.3L249.5 740L250.3 733.3Z" fill="#0a3b26" stroke="#adadad"></path><path d="M250.3 733.3L249.5 740L296 727.3Z" fill="#154e2a" stroke="#adadad"></path><path d="M606.5 515.7L552 547.7L562.8 565.3Z" fill="#5a8620" stroke="#adadad"></path><path d="M612.3 484.7L613.3 465.3L599.5 473.3Z" fill="#5a8620" stroke="#adadad"></path><path d="M425.5 728.3L385.3 694.3L391.3 716.7Z" fill="#4c7d25" stroke="#adadad"></path><path d="M536 668L529.3 655.3L495.5 653Z" fill="#7a9711" stroke="#adadad"></path><path d="M495.5 653L529.3 655.3L501 621.7Z" fill="#3f7328" stroke="#adadad"></path><path d="M145 160L166.5 188.7L195.5 179Z" fill="#7a9711" stroke="#adadad"></path><path d="M127.8 199L102 186.7L63.8 256Z" fill="#0f4429" stroke="#adadad"></path><path d="M35.8 602.3L83 655.3L106 583Z" fill="#154e2a" stroke="#adadad"></path><path d="M0 277L37.5 308.3L37.5 307.7Z" fill="#4c7d25" stroke="#adadad"></path><path d="M0 277L0 361L37.5 308.3Z" fill="#5a8620" stroke="#adadad"></path><path d="M612.3 484.7L599.5 473.3L602.5 494.3Z" fill="#154e2a" stroke="#adadad"></path><path d="M0 527.3L20.8 569.7L28.5 562.7Z" fill="#6a8e1a" stroke="#adadad"></path><path d="M28.5 562.7L35.8 602.3L89 553.7Z" fill="#5a8620" stroke="#adadad"></path><path d="M367.5 756.3L312.5 720.7L335.5 797Z" fill="#0a3b26" stroke="#adadad"></path><path d="M387.8 726.3L403 730.7L391.3 716.7Z" fill="#0f4429" stroke="#adadad"></path><path d="M605.5 501.7L612.3 484.7L602.5 494.3Z" fill="#6a8e1a" stroke="#adadad"></path><path d="M594.5 309L542 341.7L608.8 328.3Z" fill="#336a2a" stroke="#adadad"></path><path d="M583 266.7L567.8 266L554 303Z" fill="#0a3b26" stroke="#adadad"></path><path d="M460.8 138.3L442.5 153L444.8 169Z" fill="#5a8620" stroke="#adadad"></path><path d="M501.5 181.7L504.3 234.3L516.3 225.7Z" fill="#3f7328" stroke="#adadad"></path><path d="M444.8 169L442.5 153L396 191Z" fill="#3f7328" stroke="#adadad"></path><path d="M256.3 105L252.8 121.7L286.3 90.7Z" fill="#28612b" stroke="#adadad"></path><path d="M619.5 549L606.5 515.7L562.8 565.3Z" fill="#4c7d25" stroke="#adadad"></path><path d="M605.5 501.7L639.3 522L612.3 484.7Z" fill="#3f7328" stroke="#adadad"></path><path d="M567.8 266L562.5 257.3L554 303Z" fill="#4c7d25" stroke="#adadad"></path><path d="M441.8 724L457.3 708.7L454 705.7Z" fill="#0a3b26" stroke="#adadad"></path><path d="M454 705.7L457.3 708.7L460.8 690.7Z" fill="#0a3b26" stroke="#adadad"></path><path d="M0 456L0 521.7L57.5 501.3Z" fill="#1e572b" stroke="#adadad"></path><path d="M20.8 569.7L35.8 602.3L28.5 562.7Z" fill="#336a2a" stroke="#adadad"></path><path d="M230.5 115.7L241 162.3L251.5 146.3Z" fill="#1e572b" stroke="#adadad"></path><path d="M230.5 115.7L193.8 138.7L241 162.3Z" fill="#7a9711" stroke="#adadad"></path><path d="M536 668L495.5 653L499.5 712.7Z" fill="#6a8e1a" stroke="#adadad"></path><path d="M549.3 593L572.8 603L562.8 565.3Z" fill="#4c7d25" stroke="#adadad"></path><path d="M0 521.7L0 527.3L60.3 533.7Z" fill="#5a8620" stroke="#adadad"></path><path d="M20.8 569.7L0 592L35.8 602.3Z" fill="#28612b" stroke="#adadad"></path><path d="M186.3 134.3L145 160L195.5 179Z" fill="#0a3b26" stroke="#adadad"></path><path d="M353.8 112L334.3 159.7L346.5 156.3Z" fill="#3f7328" stroke="#adadad"></path><path d="M608.8 328.3L542 341.7L591 376.3Z" fill="#6a8e1a" stroke="#adadad"></path><path d="M537.8 209.7L539 215L587.8 180.3Z" fill="#0f4429" stroke="#adadad"></path><path d="M0 439.3L-15.2 442L0 456Z" fill="#3f7328" stroke="#adadad"></path><path d="M0 456L-15.2 524.3L0 521.7Z" fill="#0f4429" stroke="#adadad"></path><path d="M0 521.7L-15.2 524.3L0 527.3Z" fill="#154e2a" stroke="#adadad"></path><path d="M0 417.7L-15.2 442L0 439.3Z" fill="#28612b" stroke="#adadad"></path><path d="M0 416.7L-15.2 442L0 417.7Z" fill="#28612b" stroke="#adadad"></path><path d="M0 384.3L-15.2 442L0 416.7Z" fill="#154e2a" stroke="#adadad"></path><path d="M0 361L-15.2 442L0 384.3Z" fill="#3f7328" stroke="#adadad"></path><path d="M577.5 620.7L572.8 603L549.3 593Z" fill="#154e2a" stroke="#adadad"></path><path d="M403 730.7L425.5 728.3L391.3 716.7Z" fill="#3f7328" stroke="#adadad"></path><path d="M427.8 136L384 126.7L396 191Z" fill="#28612b" stroke="#adadad"></path><path d="M675 459L620.8 452.7L613.3 465.3Z" fill="#1e572b" stroke="#adadad"></path><path d="M613.3 465.3L620.8 452.7L577 440.3Z" fill="#7a9711" stroke="#adadad"></path><path d="M675 442.7L620.8 452.7L675 459Z" fill="#4c7d25" stroke="#adadad"></path><path d="M84.5 173L102 186.7L89 161.3Z" fill="#4c7d25" stroke="#adadad"></path><path d="M117.5 184.3L102 186.7L127.8 199Z" fill="#28612b" stroke="#adadad"></path><path d="M0 271.7L0 277L37.5 307.7Z" fill="#0a3b26" stroke="#adadad"></path><path d="M113.5 143.7L135.3 162.3L145 160Z" fill="#3f7328" stroke="#adadad"></path><path d="M145 160L135.3 162.3L150.3 200.3Z" fill="#1e572b" stroke="#adadad"></path><path d="M425.5 728.3L441.8 724L454 705.7Z" fill="#7a9711" stroke="#adadad"></path><path d="M499.5 712.7L495.5 653L460.8 690.7Z" fill="#336a2a" stroke="#adadad"></path><path d="M620.8 452.7L622.8 406.3L577 440.3Z" fill="#3f7328" stroke="#adadad"></path><path d="M537.8 209.7L501.5 181.7L516.3 225.7Z" fill="#4c7d25" stroke="#adadad"></path><path d="M197.8 117L186.3 134.3L193.8 138.7Z" fill="#4c7d25" stroke="#adadad"></path><path d="M193.8 138.7L186.3 134.3L195.5 179Z" fill="#4c7d25" stroke="#adadad"></path><path d="M539 215L562.5 257.3L595.8 238Z" fill="#3f7328" stroke="#adadad"></path><path d="M562.5 257.3L539 215L516.3 225.7Z" fill="#154e2a" stroke="#adadad"></path><path d="M79.3 670L102.5 688.7L83 655.3Z" fill="#0a3b26" stroke="#adadad"></path><path d="M83 655.3L102.5 688.7L120 677.7Z" fill="#28612b" stroke="#adadad"></path><path d="M120 677.7L117.8 700.3L124.3 676.3Z" fill="#7a9711" stroke="#adadad"></path><path d="M201.5 720.3L235.3 771.7L249.5 740Z" fill="#1e572b" stroke="#adadad"></path><path d="M112.3 698.7L117.8 700.3L120 677.7Z" fill="#28612b" stroke="#adadad"></path><path d="M460.8 138.3L427.8 136L442.5 153Z" fill="#5a8620" stroke="#adadad"></path><path d="M442.5 153L427.8 136L396 191Z" fill="#3f7328" stroke="#adadad"></path><path d="M634.5 345.7L608.8 328.3L591 376.3Z" fill="#4c7d25" stroke="#adadad"></path><path d="M594.5 309L583 266.7L554 303Z" fill="#336a2a" stroke="#adadad"></path><path d="M44.5 649L79.3 670L83 655.3Z" fill="#4c7d25" stroke="#adadad"></path><path d="M539 215L537.8 209.7L516.3 225.7Z" fill="#3f7328" stroke="#adadad"></path><path d="M583 266.7L562.5 257.3L567.8 266Z" fill="#0f4429" stroke="#adadad"></path><path d="M115 734L112.3 698.7L71.8 712Z" fill="#4c7d25" stroke="#adadad"></path><path d="M102.5 688.7L112.3 698.7L120 677.7Z" fill="#1e572b" stroke="#adadad"></path><path d="M608.8 328.3L605.8 315.7L594.5 309Z" fill="#28612b" stroke="#adadad"></path><path d="M620.8 452.7L627.5 409L622.8 406.3Z" fill="#4c7d25" stroke="#adadad"></path><path d="M634.5 345.7L618.5 319.3L608.8 328.3Z" fill="#7a9711" stroke="#adadad"></path><path d="M577.5 620.7L583 601L572.8 603Z" fill="#154e2a" stroke="#adadad"></path><path d="M572.8 603L583 601L562.8 565.3Z" fill="#1e572b" stroke="#adadad"></path><path d="M339.5 93L353.8 112L357 79Z" fill="#154e2a" stroke="#adadad"></path><path d="M384 126.7L353.8 112L359 158.3Z" fill="#5a8620" stroke="#adadad"></path><path d="M615.8 280.7L583 266.7L594.5 309Z" fill="#336a2a" stroke="#adadad"></path><path d="M256.3 105L230.5 115.7L252.8 121.7Z" fill="#28612b" stroke="#adadad"></path><path d="M252.8 121.7L230.5 115.7L251.5 146.3Z" fill="#4c7d25" stroke="#adadad"></path><path d="M335.5 797L312.5 720.7L296 727.3Z" fill="#336a2a" stroke="#adadad"></path><path d="M451 779.3L459.5 756.7L425.5 728.3Z" fill="#5a8620" stroke="#adadad"></path><path d="M425.5 728.3L459.5 756.7L441.8 724Z" fill="#4c7d25" stroke="#adadad"></path><path d="M583 601L596.3 581.3L562.8 565.3Z" fill="#1e572b" stroke="#adadad"></path><path d="M606.5 515.7L639.3 522L605.5 501.7Z" fill="#1e572b" stroke="#adadad"></path><path d="M499.5 712.7L460.8 690.7L457.3 708.7Z" fill="#0f4429" stroke="#adadad"></path><path d="M556 651.3L577.5 620.7L549.3 593Z" fill="#28612b" stroke="#adadad"></path><path d="M-15.2 442L-15.2 524.3L0 456Z" fill="#1e572b" stroke="#adadad"></path><path d="M0 527.3L-17.2 536L20.8 569.7Z" fill="#7a9711" stroke="#adadad"></path><path d="M35.8 602.3L44.5 649L83 655.3Z" fill="#7a9711" stroke="#adadad"></path><path d="M556 651.3L549.3 593L529.3 655.3Z" fill="#0a3b26" stroke="#adadad"></path><path d="M583 601L606.8 602.7L596.3 581.3Z" fill="#0a3b26" stroke="#adadad"></path><path d="M331.8 101.7L273.8 164.3L334.3 159.7Z" fill="#4c7d25" stroke="#adadad"></path><path d="M84.5 173L44.5 224.3L102 186.7Z" fill="#6a8e1a" stroke="#adadad"></path><path d="M102 186.7L44.5 224.3L63.8 256Z" fill="#336a2a" stroke="#adadad"></path><path d="M536 668L556 651.3L529.3 655.3Z" fill="#28612b" stroke="#adadad"></path><path d="M608.8 328.3L615.3 316.7L605.8 315.7Z" fill="#154e2a" stroke="#adadad"></path><path d="M605.8 315.7L615.8 280.7L594.5 309Z" fill="#336a2a" stroke="#adadad"></path><path d="M618.5 319.3L615.3 316.7L608.8 328.3Z" fill="#28612b" stroke="#adadad"></path><path d="M339.5 93L331.8 101.7L353.8 112Z" fill="#0a3b26" stroke="#adadad"></path><path d="M353.8 112L331.8 101.7L334.3 159.7Z" fill="#3f7328" stroke="#adadad"></path><path d="M230.5 115.7L197.8 117L193.8 138.7Z" fill="#5a8620" stroke="#adadad"></path><path d="M133.3 114.7L113.5 143.7L145 160Z" fill="#0a3b26" stroke="#adadad"></path><path d="M89 161.3L102 186.7L117.5 184.3Z" fill="#4c7d25" stroke="#adadad"></path><path d="M243 83L197.8 117L230.5 115.7Z" fill="#1e572b" stroke="#adadad"></path><path d="M-15.2 442L-17.2 536L-15.2 524.3Z" fill="#4c7d25" stroke="#adadad"></path><path d="M-15.2 524.3L-17.2 536L0 527.3Z" fill="#154e2a" stroke="#adadad"></path><path d="M0 602.3L44.5 649L35.8 602.3Z" fill="#0f4429" stroke="#adadad"></path><path d="M79.3 670L71.8 712L102.5 688.7Z" fill="#6a8e1a" stroke="#adadad"></path><path d="M497.3 155.7L460.8 138.3L444.8 169Z" fill="#4c7d25" stroke="#adadad"></path><path d="M384.5 86.7L353.8 112L384 126.7Z" fill="#28612b" stroke="#adadad"></path><path d="M497.3 155.7L444.8 169L501.5 181.7Z" fill="#6a8e1a" stroke="#adadad"></path><path d="M634.5 345.7L591 376.3L622.8 406.3Z" fill="#1e572b" stroke="#adadad"></path><path d="M615.3 316.7L615.8 280.7L605.8 315.7Z" fill="#4c7d25" stroke="#adadad"></path><path d="M606.8 602.7L619.5 549L596.3 581.3Z" fill="#0a3b26" stroke="#adadad"></path><path d="M596.3 581.3L619.5 549L562.8 565.3Z" fill="#3f7328" stroke="#adadad"></path><path d="M620.8 452.7L666.3 417L627.5 409Z" fill="#28612b" stroke="#adadad"></path><path d="M532.3 178L497.3 155.7L501.5 181.7Z" fill="#6a8e1a" stroke="#adadad"></path><path d="M532.3 178L501.5 181.7L537.8 209.7Z" fill="#4c7d25" stroke="#adadad"></path><path d="M89 161.3L117.5 184.3L113.5 143.7Z" fill="#28612b" stroke="#adadad"></path><path d="M459.5 756.7L457.3 708.7L441.8 724Z" fill="#3f7328" stroke="#adadad"></path><path d="M459.5 756.7L499.5 712.7L457.3 708.7Z" fill="#1e572b" stroke="#adadad"></path><path d="M536 668L555.3 680L556 651.3Z" fill="#336a2a" stroke="#adadad"></path><path d="M-8.2 589L0 592L20.8 569.7Z" fill="#1e572b" stroke="#adadad"></path><path d="M0 271.7L63.8 256L44.5 224.3Z" fill="#28612b" stroke="#adadad"></path><path d="M0 271.7L37.5 307.7L63.8 256Z" fill="#154e2a" stroke="#adadad"></path><path d="M0 361L-15.2 269.3L-15.2 442Z" fill="#6a8e1a" stroke="#adadad"></path><path d="M384.5 86.7L384 126.7L407.3 87.3Z" fill="#6a8e1a" stroke="#adadad"></path><path d="M331.8 101.7L286.3 90.7L273.8 164.3Z" fill="#0f4429" stroke="#adadad"></path><path d="M675 387.3L634.5 345.7L627.5 409Z" fill="#28612b" stroke="#adadad"></path><path d="M627.5 409L634.5 345.7L622.8 406.3Z" fill="#4c7d25" stroke="#adadad"></path><path d="M32.8 217.7L0 271.7L44.5 224.3Z" fill="#336a2a" stroke="#adadad"></path><path d="M0 277L-15.2 269.3L0 361Z" fill="#154e2a" stroke="#adadad"></path><path d="M154.8 748L235.3 771.7L201.5 720.3Z" fill="#6a8e1a" stroke="#adadad"></path><path d="M249.5 740L259 789.7L296 727.3Z" fill="#28612b" stroke="#adadad"></path><path d="M154.8 748L149.8 666.3L117.8 700.3Z" fill="#154e2a" stroke="#adadad"></path><path d="M294 73.3L286.3 90.7L331.8 101.7Z" fill="#336a2a" stroke="#adadad"></path><path d="M256.3 105L243 83L230.5 115.7Z" fill="#4c7d25" stroke="#adadad"></path><path d="M595.8 238L562.5 257.3L583 266.7Z" fill="#336a2a" stroke="#adadad"></path><path d="M587.8 180.3L532.3 178L537.8 209.7Z" fill="#6a8e1a" stroke="#adadad"></path><path d="M-8.2 589L0 602.3L0 592Z" fill="#6a8e1a" stroke="#adadad"></path><path d="M0 592L0 602.3L35.8 602.3Z" fill="#3f7328" stroke="#adadad"></path><path d="M84.5 173L32.8 217.7L44.5 224.3Z" fill="#336a2a" stroke="#adadad"></path><path d="M115 734L117.8 700.3L112.3 698.7Z" fill="#7a9711" stroke="#adadad"></path><path d="M115 734L154.8 748L117.8 700.3Z" fill="#5a8620" stroke="#adadad"></path><path d="M113.5 143.7L117.5 184.3L135.3 162.3Z" fill="#6a8e1a" stroke="#adadad"></path><path d="M0 195L0 220.3L32.8 217.7Z" fill="#0f4429" stroke="#adadad"></path><path d="M133.3 114.7L145 160L186.3 134.3Z" fill="#7a9711" stroke="#adadad"></path><path d="M-17.2 536L-8.2 589L20.8 569.7Z" fill="#336a2a" stroke="#adadad"></path><path d="M577.5 620.7L606.8 602.7L583 601Z" fill="#28612b" stroke="#adadad"></path><path d="M604.3 629.7L606.8 602.7L577.5 620.7Z" fill="#28612b" stroke="#adadad"></path><path d="M594.5 651.3L577.5 620.7L556 651.3Z" fill="#7a9711" stroke="#adadad"></path><path d="M657.3 523.7L639.3 522L619.5 549Z" fill="#5a8620" stroke="#adadad"></path><path d="M619.5 549L639.3 522L606.5 515.7Z" fill="#7a9711" stroke="#adadad"></path><path d="M661.3 305.7L615.8 280.7L618.5 319.3Z" fill="#7a9711" stroke="#adadad"></path><path d="M618.5 319.3L615.8 280.7L615.3 316.7Z" fill="#4c7d25" stroke="#adadad"></path><path d="M22.5 694L55.5 682.3L44.5 649Z" fill="#28612b" stroke="#adadad"></path><path d="M44.5 649L55.5 682.3L79.3 670Z" fill="#7a9711" stroke="#adadad"></path><path d="M529.3 720.3L555.3 680L536 668Z" fill="#0a3b26" stroke="#adadad"></path><path d="M615.8 280.7L595.8 238L583 266.7Z" fill="#4c7d25" stroke="#adadad"></path><path d="M71.8 712L112.3 698.7L102.5 688.7Z" fill="#4c7d25" stroke="#adadad"></path><path d="M294 73.3L243 83L286.3 90.7Z" fill="#0f4429" stroke="#adadad"></path><path d="M286.3 90.7L243 83L256.3 105Z" fill="#28612b" stroke="#adadad"></path><path d="M197.8 117L133.3 114.7L186.3 134.3Z" fill="#5a8620" stroke="#adadad"></path><path d="M425.8 95.7L427.8 136L460.8 138.3Z" fill="#6a8e1a" stroke="#adadad"></path><path d="M425.8 95.7L384 126.7L427.8 136Z" fill="#336a2a" stroke="#adadad"></path><path d="M339.5 93L294 73.3L331.8 101.7Z" fill="#336a2a" stroke="#adadad"></path><path d="M587.8 705.7L570.8 671L555.3 680Z" fill="#28612b" stroke="#adadad"></path><path d="M555.3 680L570.8 671L556 651.3Z" fill="#5a8620" stroke="#adadad"></path><path d="M268.3 821L256.3 836.3L267 824.3Z" fill="#0f4429" stroke="#adadad"></path><path d="M235.3 771.7L259 789.7L249.5 740Z" fill="#0a3b26" stroke="#adadad"></path><path d="M154 781.3L235.3 771.7L154.8 748Z" fill="#6a8e1a" stroke="#adadad"></path><path d="M0 220.3L-15.2 269.3L0 271.7Z" fill="#5a8620" stroke="#adadad"></path><path d="M0 271.7L-15.2 269.3L0 277Z" fill="#154e2a" stroke="#adadad"></path><path d="M-15.2 442L-17.2 175.7L-17.2 536Z" fill="#28612b" stroke="#adadad"></path><path d="M451 779.3L425.5 728.3L423.5 796.3Z" fill="#28612b" stroke="#adadad"></path><path d="M499.5 712.7L529.3 720.3L536 668Z" fill="#7a9711" stroke="#adadad"></path><path d="M391.8 794.7L403 730.7L367.5 756.3Z" fill="#5a8620" stroke="#adadad"></path><path d="M613.5 235.7L599.3 233L595.8 238Z" fill="#0f4429" stroke="#adadad"></path><path d="M595.8 238L599.3 233L539 215Z" fill="#4c7d25" stroke="#adadad"></path><path d="M594.5 651.3L604.3 629.7L577.5 620.7Z" fill="#0f4429" stroke="#adadad"></path><path d="M675 540.3L657.3 523.7L619.5 549Z" fill="#0f4429" stroke="#adadad"></path><path d="M384.5 86.7L357 79L353.8 112Z" fill="#336a2a" stroke="#adadad"></path><path d="M472.5 100L425.8 95.7L460.8 138.3Z" fill="#0a3b26" stroke="#adadad"></path><path d="M384.5 86.7L358.5 65.3L357 79Z" fill="#3f7328" stroke="#adadad"></path><path d="M508 133.7L460.8 138.3L497.3 155.7Z" fill="#336a2a" stroke="#adadad"></path><path d="M55.5 682.3L71.8 712L79.3 670Z" fill="#7a9711" stroke="#adadad"></path><path d="M22.5 694L71.8 712L55.5 682.3Z" fill="#4c7d25" stroke="#adadad"></path><path d="M329.3 46.7L294 73.3L339.5 93Z" fill="#3f7328" stroke="#adadad"></path><path d="M128.8 107.3L133.3 114.7L160.5 69.3Z" fill="#154e2a" stroke="#adadad"></path><path d="M113.5 143.7L101.3 118.7L89 161.3Z" fill="#0a3b26" stroke="#adadad"></path><path d="M0 195L32.8 217.7L41.5 131Z" fill="#3f7328" stroke="#adadad"></path><path d="M425.8 95.7L407.3 87.3L384 126.7Z" fill="#5a8620" stroke="#adadad"></path><path d="M570.8 671L594.5 651.3L556 651.3Z" fill="#336a2a" stroke="#adadad"></path><path d="M312.8 811.7L335.5 797L296 727.3Z" fill="#28612b" stroke="#adadad"></path><path d="M675 442.7L666.3 417L620.8 452.7Z" fill="#6a8e1a" stroke="#adadad"></path><path d="M638.3 243.3L613.5 235.7L615.8 280.7Z" fill="#0f4429" stroke="#adadad"></path><path d="M615.8 280.7L613.5 235.7L595.8 238Z" fill="#3f7328" stroke="#adadad"></path><path d="M568 128L508 133.7L532.3 178Z" fill="#0f4429" stroke="#adadad"></path><path d="M532.3 178L508 133.7L497.3 155.7Z" fill="#6a8e1a" stroke="#adadad"></path><path d="M511 750.3L529.3 720.3L499.5 712.7Z" fill="#336a2a" stroke="#adadad"></path><path d="M570.8 671L603.3 702L594.5 651.3Z" fill="#7a9711" stroke="#adadad"></path><path d="M675 540.3L619.5 549L675 571Z" fill="#154e2a" stroke="#adadad"></path><path d="M639.3 522L675 459L612.3 484.7Z" fill="#28612b" stroke="#adadad"></path><path d="M611.8 635.3L606.8 602.7L604.3 629.7Z" fill="#4c7d25" stroke="#adadad"></path><path d="M-8.2 589L-14.2 618.7L0 602.3Z" fill="#28612b" stroke="#adadad"></path><path d="M0 602.3L-14.2 618.7L44.5 649Z" fill="#154e2a" stroke="#adadad"></path><path d="M-17.2 536L-14.2 618.7L-8.2 589Z" fill="#0a3b26" stroke="#adadad"></path><path d="M644.3 621L611.8 635.3L652.3 623.3Z" fill="#3f7328" stroke="#adadad"></path><path d="M594.5 651.3L611.8 635.3L604.3 629.7Z" fill="#28612b" stroke="#adadad"></path><path d="M661.3 305.7L618.5 319.3L634.5 345.7Z" fill="#0f4429" stroke="#adadad"></path><path d="M599.3 233L587.8 180.3L539 215Z" fill="#4c7d25" stroke="#adadad"></path><path d="M160.5 69.3L133.3 114.7L197.8 117Z" fill="#5a8620" stroke="#adadad"></path><path d="M133.3 114.7L101.3 118.7L113.5 143.7Z" fill="#154e2a" stroke="#adadad"></path><path d="M32.8 217.7L0 220.3L0 271.7Z" fill="#0f4429" stroke="#adadad"></path><path d="M32.8 217.7L84.5 173L41.5 131Z" fill="#0f4429" stroke="#adadad"></path><path d="M381 797.3L391.8 794.7L367.5 756.3Z" fill="#6a8e1a" stroke="#adadad"></path><path d="M459.5 756.7L511 750.3L499.5 712.7Z" fill="#336a2a" stroke="#adadad"></path><path d="M335.5 797L381 797.3L367.5 756.3Z" fill="#4c7d25" stroke="#adadad"></path><path d="M675 459L613.3 465.3L612.3 484.7Z" fill="#154e2a" stroke="#adadad"></path><path d="M666.3 417L675 399L627.5 409Z" fill="#5a8620" stroke="#adadad"></path><path d="M657.3 523.7L675 459L639.3 522Z" fill="#3f7328" stroke="#adadad"></path><path d="M365.3 57L384.5 86.7L405 54.7Z" fill="#0f4429" stroke="#adadad"></path><path d="M365.3 57L358.5 65.3L384.5 86.7Z" fill="#0f4429" stroke="#adadad"></path><path d="M357 79L358.5 65.3L339.5 93Z" fill="#0f4429" stroke="#adadad"></path><path d="M675 442.7L675 403.7L666.3 417Z" fill="#1e572b" stroke="#adadad"></path><path d="M675 403.7L675 399L666.3 417Z" fill="#28612b" stroke="#adadad"></path><path d="M128.8 107.3L101.3 118.7L133.3 114.7Z" fill="#28612b" stroke="#adadad"></path><path d="M312.8 811.7L344.3 807L335.5 797Z" fill="#154e2a" stroke="#adadad"></path><path d="M335.5 797L344.3 807L381 797.3Z" fill="#0f4429" stroke="#adadad"></path><path d="M401.8 811.3L423.5 796.3L391.8 794.7Z" fill="#336a2a" stroke="#adadad"></path><path d="M508 133.7L472.5 100L460.8 138.3Z" fill="#5a8620" stroke="#adadad"></path><path d="M425.8 95.7L405 54.7L407.3 87.3Z" fill="#1e572b" stroke="#adadad"></path><path d="M423.5 796.3L403 730.7L391.8 794.7Z" fill="#1e572b" stroke="#adadad"></path><path d="M423.5 796.3L425.5 728.3L403 730.7Z" fill="#154e2a" stroke="#adadad"></path><path d="M675 399L675 387.3L627.5 409Z" fill="#28612b" stroke="#adadad"></path><path d="M259 789.7L312.8 811.7L296 727.3Z" fill="#5a8620" stroke="#adadad"></path><path d="M303.5 818.7L312.8 811.7L259 789.7Z" fill="#3f7328" stroke="#adadad"></path><path d="M125.3 783L154.8 748L115 734Z" fill="#154e2a" stroke="#adadad"></path><path d="M125.3 783L154 781.3L154.8 748Z" fill="#28612b" stroke="#adadad"></path><path d="M72.5 761.3L93 748.7L71.8 712Z" fill="#28612b" stroke="#adadad"></path><path d="M71.8 712L93 748.7L115 734Z" fill="#3f7328" stroke="#adadad"></path><path d="M474.3 799.3L511 750.3L459.5 756.7Z" fill="#1e572b" stroke="#adadad"></path><path d="M624.5 707L611.8 635.3L594.5 651.3Z" fill="#7a9711" stroke="#adadad"></path><path d="M675 343L661.3 305.7L634.5 345.7Z" fill="#1e572b" stroke="#adadad"></path><path d="M675 540.3L675 516.7L657.3 523.7Z" fill="#28612b" stroke="#adadad"></path><path d="M657.3 523.7L675 516.7L675 459Z" fill="#4c7d25" stroke="#adadad"></path><path d="M401.8 811.3L381 797.3L398 835Z" fill="#0a3b26" stroke="#adadad"></path><path d="M401.8 811.3L391.8 794.7L381 797.3Z" fill="#7a9711" stroke="#adadad"></path><path d="M530 769.7L542.3 750L511 750.3Z" fill="#0f4429" stroke="#adadad"></path><path d="M0 685.7L22.5 694L44.5 649Z" fill="#0f4429" stroke="#adadad"></path><path d="M243 83L185.5 71L197.8 117Z" fill="#1e572b" stroke="#adadad"></path><path d="M128.8 107.3L121.3 97L101.3 118.7Z" fill="#1e572b" stroke="#adadad"></path><path d="M187.8 53.3L185.5 71L243 83Z" fill="#6a8e1a" stroke="#adadad"></path><path d="M252.8 43.3L243 83L294 73.3Z" fill="#154e2a" stroke="#adadad"></path><path d="M612.8 210.3L599.3 233L613.5 235.7Z" fill="#1e572b" stroke="#adadad"></path><path d="M612.8 210.3L587.8 180.3L599.3 233Z" fill="#7a9711" stroke="#adadad"></path><path d="M508 133.7L510.5 86.3L472.5 100Z" fill="#7a9711" stroke="#adadad"></path><path d="M639.5 216L612.8 210.3L613.5 235.7Z" fill="#7a9711" stroke="#adadad"></path><path d="M405 54.7L384.5 86.7L407.3 87.3Z" fill="#154e2a" stroke="#adadad"></path><path d="M358.5 65.3L329.3 46.7L339.5 93Z" fill="#154e2a" stroke="#adadad"></path><path d="M160.5 69.3L121.3 97L128.8 107.3Z" fill="#336a2a" stroke="#adadad"></path><path d="M41.5 131L84.5 173L89 161.3Z" fill="#154e2a" stroke="#adadad"></path><path d="M675 387.3L675 343L634.5 345.7Z" fill="#3f7328" stroke="#adadad"></path><path d="M291 824L303.5 818.7L259 789.7Z" fill="#0a3b26" stroke="#adadad"></path><path d="M312.8 811.7L345.3 835.3L344.3 807Z" fill="#6a8e1a" stroke="#adadad"></path><path d="M41.5 131L89 161.3L101.3 118.7Z" fill="#0f4429" stroke="#adadad"></path><path d="M0 220.3L-11.2 202L-15.2 269.3Z" fill="#4c7d25" stroke="#adadad"></path><path d="M667.3 293.3L638.3 243.3L615.8 280.7Z" fill="#1e572b" stroke="#adadad"></path><path d="M651.5 611L619.5 549L606.8 602.7Z" fill="#0a3b26" stroke="#adadad"></path><path d="M268.3 821L259 789.7L256.3 836.3Z" fill="#4c7d25" stroke="#adadad"></path><path d="M365.3 57L329.3 46.7L358.5 65.3Z" fill="#3f7328" stroke="#adadad"></path><path d="M587.8 705.7L555.3 680L576.5 726.3Z" fill="#0a3b26" stroke="#adadad"></path><path d="M611.8 635.3L644.3 621L606.8 602.7Z" fill="#336a2a" stroke="#adadad"></path><path d="M345.3 835.3L381 797.3L344.3 807Z" fill="#0a3b26" stroke="#adadad"></path><path d="M474.3 799.3L459.5 756.7L451 779.3Z" fill="#336a2a" stroke="#adadad"></path><path d="M268.3 821L291 824L259 789.7Z" fill="#336a2a" stroke="#adadad"></path><path d="M303.5 818.7L345.3 835.3L312.8 811.7Z" fill="#1e572b" stroke="#adadad"></path><path d="M-17.2 175.7L-11.2 202L0 195Z" fill="#4c7d25" stroke="#adadad"></path><path d="M0 195L-11.2 202L0 220.3Z" fill="#6a8e1a" stroke="#adadad"></path><path d="M107 780L125.3 783L115 734Z" fill="#1e572b" stroke="#adadad"></path><path d="M206.8 834.3L259 789.7L235.3 771.7Z" fill="#7a9711" stroke="#adadad"></path><path d="M107 780L115 734L93 748.7Z" fill="#5a8620" stroke="#adadad"></path><path d="M644.3 621L651.5 611L606.8 602.7Z" fill="#6a8e1a" stroke="#adadad"></path><path d="M675 310.3L667.3 293.3L661.3 305.7Z" fill="#5a8620" stroke="#adadad"></path><path d="M661.3 305.7L667.3 293.3L615.8 280.7Z" fill="#0a3b26" stroke="#adadad"></path><path d="M267 824.3L276.8 825L268.3 821Z" fill="#3f7328" stroke="#adadad"></path><path d="M268.3 821L276.8 825L291 824Z" fill="#28612b" stroke="#adadad"></path><path d="M193.5 820.7L235.3 771.7L154 781.3Z" fill="#0a3b26" stroke="#adadad"></path><path d="M150.8 797.7L158.5 799L154 781.3Z" fill="#4c7d25" stroke="#adadad"></path><path d="M185.5 71L160.5 69.3L197.8 117Z" fill="#4c7d25" stroke="#adadad"></path><path d="M187.8 53.3L160.5 69.3L185.5 71Z" fill="#0a3b26" stroke="#adadad"></path><path d="M675 343L675 310.3L661.3 305.7Z" fill="#0a3b26" stroke="#adadad"></path><path d="M-14.2 618.7L0 685.7L44.5 649Z" fill="#28612b" stroke="#adadad"></path><path d="M72.5 761.3L107 780L93 748.7Z" fill="#7a9711" stroke="#adadad"></path><path d="M576.5 726.3L555.3 680L529.3 720.3Z" fill="#3f7328" stroke="#adadad"></path><path d="M644.3 621L652.3 623.3L651.5 611Z" fill="#3f7328" stroke="#adadad"></path><path d="M466.8 57.3L405 54.7L425.8 95.7Z" fill="#4c7d25" stroke="#adadad"></path><path d="M365.3 57L373 31.3L329.3 46.7Z" fill="#0a3b26" stroke="#adadad"></path><path d="M125.3 783L150.8 797.7L154 781.3Z" fill="#5a8620" stroke="#adadad"></path><path d="M158.5 799L193.5 820.7L154 781.3Z" fill="#336a2a" stroke="#adadad"></path><path d="M298 34.7L252.8 43.3L294 73.3Z" fill="#154e2a" stroke="#adadad"></path><path d="M252.8 43.3L243.3 43.3L243 83Z" fill="#0a3b26" stroke="#adadad"></path><path d="M474.3 799.3L451 779.3L441.8 823Z" fill="#7a9711" stroke="#adadad"></path><path d="M511 750.3L542.3 750L529.3 720.3Z" fill="#0a3b26" stroke="#adadad"></path><path d="M651.5 611L675 571L619.5 549Z" fill="#6a8e1a" stroke="#adadad"></path><path d="M72.5 761.3L71.8 712L27.8 733.3Z" fill="#5a8620" stroke="#adadad"></path><path d="M125.3 783L114.5 796.3L150.8 797.7Z" fill="#154e2a" stroke="#adadad"></path><path d="M675 690.7L652.3 623.3L611.8 635.3Z" fill="#6a8e1a" stroke="#adadad"></path><path d="M651.5 611L675 603.3L675 571Z" fill="#0a3b26" stroke="#adadad"></path><path d="M639.5 216L604.3 175.7L612.8 210.3Z" fill="#336a2a" stroke="#adadad"></path><path d="M612.8 210.3L604.3 175.7L587.8 180.3Z" fill="#336a2a" stroke="#adadad"></path><path d="M587.8 180.3L568 128L532.3 178Z" fill="#0a3b26" stroke="#adadad"></path><path d="M472.5 100L466.8 57.3L425.8 95.7Z" fill="#336a2a" stroke="#adadad"></path><path d="M639.5 216L613.5 235.7L638.3 243.3Z" fill="#28612b" stroke="#adadad"></path><path d="M243.3 43.3L187.8 53.3L243 83Z" fill="#1e572b" stroke="#adadad"></path><path d="M-14.2 618.7L0 694.3L0 685.7Z" fill="#154e2a" stroke="#adadad"></path><path d="M0 685.7L0 694.3L22.5 694Z" fill="#7a9711" stroke="#adadad"></path><path d="M27.8 733.3L71.8 712L22.5 694Z" fill="#154e2a" stroke="#adadad"></path><path d="M356.3 0L298 34.7L329.3 46.7Z" fill="#28612b" stroke="#adadad"></path><path d="M329.3 46.7L298 34.7L294 73.3Z" fill="#336a2a" stroke="#adadad"></path><path d="M252.8 43.3L251.8 0L243.3 43.3Z" fill="#0a3b26" stroke="#adadad"></path><path d="M542.3 750L576.5 726.3L529.3 720.3Z" fill="#4c7d25" stroke="#adadad"></path><path d="M587.8 705.7L603.3 702L570.8 671Z" fill="#7a9711" stroke="#adadad"></path><path d="M105 74.7L121.3 97L160.5 69.3Z" fill="#154e2a" stroke="#adadad"></path><path d="M105 74.7L101.3 118.7L121.3 97Z" fill="#5a8620" stroke="#adadad"></path><path d="M41.8 74.7L41.5 131L101.3 118.7Z" fill="#154e2a" stroke="#adadad"></path><path d="M-16.2 775L0 698L0 694.3Z" fill="#3f7328" stroke="#adadad"></path><path d="M0 694.3L0 698L22.5 694Z" fill="#336a2a" stroke="#adadad"></path><path d="M128.8 825L158.5 799L150.8 797.7Z" fill="#5a8620" stroke="#adadad"></path><path d="M133.3 844.7L193.5 820.7L158.5 799Z" fill="#336a2a" stroke="#adadad"></path><path d="M258.8 847.7L291 824L276.8 825Z" fill="#0f4429" stroke="#adadad"></path><path d="M675 248.7L638.3 243.3L667.3 293.3Z" fill="#0a3b26" stroke="#adadad"></path><path d="M675 248.7L639.5 216L638.3 243.3Z" fill="#6a8e1a" stroke="#adadad"></path><path d="M576.5 726.3L603.3 702L587.8 705.7Z" fill="#0a3b26" stroke="#adadad"></path><path d="M325.8 863.3L303.5 818.7L320.3 865.7Z" fill="#0a3b26" stroke="#adadad"></path><path d="M325.8 863.3L345.3 835.3L303.5 818.7Z" fill="#6a8e1a" stroke="#adadad"></path><path d="M256.3 836.3L276.8 825L267 824.3Z" fill="#7a9711" stroke="#adadad"></path><path d="M441.8 823L451 779.3L423.5 796.3Z" fill="#4c7d25" stroke="#adadad"></path><path d="M542.3 750L552.8 755L576.5 726.3Z" fill="#28612b" stroke="#adadad"></path><path d="M441.8 823L423.5 796.3L401.8 811.3Z" fill="#0a3b26" stroke="#adadad"></path><path d="M206.8 834.3L256.3 836.3L259 789.7Z" fill="#336a2a" stroke="#adadad"></path><path d="M522.8 780.3L530 769.7L511 750.3Z" fill="#3f7328" stroke="#adadad"></path><path d="M619.3 743.7L624.5 707L603.3 702Z" fill="#154e2a" stroke="#adadad"></path><path d="M552.3 101.7L568 128L556.5 102.3Z" fill="#336a2a" stroke="#adadad"></path><path d="M582 125.3L568 128L587.8 180.3Z" fill="#7a9711" stroke="#adadad"></path><path d="M536.3 92.3L510.5 86.3L508 133.7Z" fill="#7a9711" stroke="#adadad"></path><path d="M0 698L27.8 733.3L22.5 694Z" fill="#28612b" stroke="#adadad"></path><path d="M530 769.7L552.8 755L542.3 750Z" fill="#7a9711" stroke="#adadad"></path><path d="M107 780L114.5 796.3L125.3 783Z" fill="#28612b" stroke="#adadad"></path><path d="M93 804.3L114.5 796.3L107 780Z" fill="#336a2a" stroke="#adadad"></path><path d="M70.3 771.3L107 780L72.5 761.3Z" fill="#0a3b26" stroke="#adadad"></path><path d="M675 690.7L675 603.3L652.3 623.3Z" fill="#0a3b26" stroke="#adadad"></path><path d="M652.3 623.3L675 603.3L651.5 611Z" fill="#0a3b26" stroke="#adadad"></path><path d="M30.5 783.7L70.3 771.3L72.5 761.3Z" fill="#336a2a" stroke="#adadad"></path><path d="M360.3 11.3L367.5 0L356.3 0Z" fill="#6a8e1a" stroke="#adadad"></path><path d="M405 54.7L373 31.3L365.3 57Z" fill="#336a2a" stroke="#adadad"></path><path d="M514.3 790.7L522.8 780.3L511 750.3Z" fill="#28612b" stroke="#adadad"></path><path d="M530 769.7L564.5 808L552.8 755Z" fill="#1e572b" stroke="#adadad"></path><path d="M106 63L105 74.7L160.5 69.3Z" fill="#7a9711" stroke="#adadad"></path><path d="M193.5 820.7L206.8 834.3L235.3 771.7Z" fill="#0a3b26" stroke="#adadad"></path><path d="M201.5 872.3L206.8 834.3L193.5 820.7Z" fill="#1e572b" stroke="#adadad"></path><path d="M510.5 86.3L466.8 57.3L472.5 100Z" fill="#336a2a" stroke="#adadad"></path><path d="M0 148.7L-17.2 175.7L0 195Z" fill="#4c7d25" stroke="#adadad"></path><path d="M-11.2 202L-17.2 175.7L-15.2 269.3Z" fill="#336a2a" stroke="#adadad"></path><path d="M-15.2 269.3L-17.2 175.7L-15.2 442Z" fill="#5a8620" stroke="#adadad"></path><path d="M0 148.7L0 195L41.5 131Z" fill="#5a8620" stroke="#adadad"></path><path d="M411.8 854.7L398 835L365.5 900Z" fill="#5a8620" stroke="#adadad"></path><path d="M345.3 835.3L398 835L381 797.3Z" fill="#3f7328" stroke="#adadad"></path><path d="M474.3 799.3L514.3 790.7L511 750.3Z" fill="#7a9711" stroke="#adadad"></path><path d="M398 835L441.8 823L401.8 811.3Z" fill="#5a8620" stroke="#adadad"></path><path d="M501 831L514.3 790.7L474.3 799.3Z" fill="#0f4429" stroke="#adadad"></path><path d="M619.3 743.7L576.5 726.3L592.8 791.3Z" fill="#3f7328" stroke="#adadad"></path><path d="M552.3 101.7L536.3 92.3L508 133.7Z" fill="#336a2a" stroke="#adadad"></path><path d="M510.5 86.3L507.5 58.3L466.8 57.3Z" fill="#6a8e1a" stroke="#adadad"></path><path d="M206.8 834.3L258.8 847.7L256.3 836.3Z" fill="#4c7d25" stroke="#adadad"></path><path d="M256.3 836.3L258.8 847.7L276.8 825Z" fill="#154e2a" stroke="#adadad"></path><path d="M568 128L552.3 101.7L508 133.7Z" fill="#7a9711" stroke="#adadad"></path><path d="M582 125.3L587.8 180.3L592.5 125Z" fill="#28612b" stroke="#adadad"></path><path d="M688.3 266L675 248.7L667.3 293.3Z" fill="#28612b" stroke="#adadad"></path><path d="M592.5 125L587.8 180.3L604.3 175.7Z" fill="#0a3b26" stroke="#adadad"></path><path d="M7.8 128.3L0 148.7L41.5 131Z" fill="#28612b" stroke="#adadad"></path><path d="M592.5 125L609.5 115.7L599.3 118Z" fill="#0f4429" stroke="#adadad"></path><path d="M582 125.3L556.5 102.3L568 128Z" fill="#5a8620" stroke="#adadad"></path><path d="M555.3 78L529.3 71.3L536.3 92.3Z" fill="#28612b" stroke="#adadad"></path><path d="M536.3 92.3L529.3 71.3L510.5 86.3Z" fill="#3f7328" stroke="#adadad"></path><path d="M144.3 36.3L106 63L160.5 69.3Z" fill="#7a9711" stroke="#adadad"></path><path d="M105 74.7L41.8 74.7L101.3 118.7Z" fill="#6a8e1a" stroke="#adadad"></path><path d="M144.3 36.3L160.5 69.3L187.8 53.3Z" fill="#4c7d25" stroke="#adadad"></path><path d="M144.3 36.3L187.8 53.3L148.8 15.7Z" fill="#154e2a" stroke="#adadad"></path><path d="M675 310.3L688.3 266L667.3 293.3Z" fill="#0f4429" stroke="#adadad"></path><path d="M592.5 125L604.3 175.7L609.5 115.7Z" fill="#3f7328" stroke="#adadad"></path><path d="M675 343L688.3 266L675 310.3Z" fill="#6a8e1a" stroke="#adadad"></path><path d="M675 387.3L688.3 266L675 343Z" fill="#154e2a" stroke="#adadad"></path><path d="M675 399L688.3 266L675 387.3Z" fill="#28612b" stroke="#adadad"></path><path d="M675 403.7L688.3 266L675 399Z" fill="#28612b" stroke="#adadad"></path><path d="M675 442.7L688.3 266L675 403.7Z" fill="#7a9711" stroke="#adadad"></path><path d="M675 459L688.3 266L675 442.7Z" fill="#0a3b26" stroke="#adadad"></path><path d="M675 516.7L688.3 266L675 459Z" fill="#6a8e1a" stroke="#adadad"></path><path d="M675 540.3L688.3 266L675 516.7Z" fill="#0f4429" stroke="#adadad"></path><path d="M675 571L688.3 266L675 540.3Z" fill="#5a8620" stroke="#adadad"></path><path d="M681.3 786L688.3 266L675 571Z" fill="#1e572b" stroke="#adadad"></path><path d="M619.3 743.7L603.3 702L576.5 726.3Z" fill="#6a8e1a" stroke="#adadad"></path><path d="M603.3 702L624.5 707L594.5 651.3Z" fill="#0a3b26" stroke="#adadad"></path><path d="M619.3 743.7L592.8 791.3L622.8 755.7Z" fill="#0f4429" stroke="#adadad"></path><path d="M604.3 175.7L639.5 216L675 193.7Z" fill="#6a8e1a" stroke="#adadad"></path><path d="M582 125.3L599.3 118L556.5 102.3Z" fill="#0a3b26" stroke="#adadad"></path><path d="M441.8 823L459.5 829L474.3 799.3Z" fill="#336a2a" stroke="#adadad"></path><path d="M411.8 854.7L459.5 829L441.8 823Z" fill="#3f7328" stroke="#adadad"></path><path d="M82.5 806L93 804.3L70.3 771.3Z" fill="#3f7328" stroke="#adadad"></path><path d="M70.3 771.3L93 804.3L107 780Z" fill="#4c7d25" stroke="#adadad"></path><path d="M114.5 796.3L128.8 825L150.8 797.7Z" fill="#0f4429" stroke="#adadad"></path><path d="M0 100.3L7.8 128.3L41.5 131Z" fill="#0a3b26" stroke="#adadad"></path><path d="M0 148.7L0 100.3L-17.2 175.7Z" fill="#0a3b26" stroke="#adadad"></path><path d="M373 31.3L360.3 11.3L329.3 46.7Z" fill="#7a9711" stroke="#adadad"></path><path d="M298 34.7L273.3 0L252.8 43.3Z" fill="#4c7d25" stroke="#adadad"></path><path d="M360.3 11.3L373 31.3L367.5 0Z" fill="#3f7328" stroke="#adadad"></path><path d="M93 804.3L128.8 825L114.5 796.3Z" fill="#3f7328" stroke="#adadad"></path><path d="M201.5 872.3L256 877.7L258.8 847.7Z" fill="#28612b" stroke="#adadad"></path><path d="M555.3 78L536.3 92.3L552.3 101.7Z" fill="#3f7328" stroke="#adadad"></path><path d="M367.5 0L373 31.3L394.8 0Z" fill="#6a8e1a" stroke="#adadad"></path><path d="M555.3 78L552.3 101.7L556.5 102.3Z" fill="#7a9711" stroke="#adadad"></path><path d="M529.3 71.3L507.5 58.3L510.5 86.3Z" fill="#7a9711" stroke="#adadad"></path><path d="M224 0L187.8 53.3L243.3 43.3Z" fill="#154e2a" stroke="#adadad"></path><path d="M106 63L93.5 50.7L105 74.7Z" fill="#4c7d25" stroke="#adadad"></path><path d="M320.3 865.7L291 824L292.5 880.3Z" fill="#1e572b" stroke="#adadad"></path><path d="M320.3 865.7L303.5 818.7L291 824Z" fill="#5a8620" stroke="#adadad"></path><path d="M398 835L411.8 854.7L441.8 823Z" fill="#4c7d25" stroke="#adadad"></path><path d="M27.8 733.3L30.5 783.7L72.5 761.3Z" fill="#3f7328" stroke="#adadad"></path><path d="M0 698L0 741.7L27.8 733.3Z" fill="#1e572b" stroke="#adadad"></path><path d="M-16.2 775L0 741.7L0 698Z" fill="#4c7d25" stroke="#adadad"></path><path d="M292.5 880.3L291 824L258.8 847.7Z" fill="#1e572b" stroke="#adadad"></path><path d="M365.5 900L398 835L345.3 835.3Z" fill="#3f7328" stroke="#adadad"></path><path d="M30.5 783.7L82.5 806L70.3 771.3Z" fill="#3f7328" stroke="#adadad"></path><path d="M93 804.3L125.3 831.3L128.8 825Z" fill="#4c7d25" stroke="#adadad"></path><path d="M550 31.3L496.5 48.7L507.5 58.3Z" fill="#3f7328" stroke="#adadad"></path><path d="M507.5 58.3L496.5 48.7L466.8 57.3Z" fill="#0a3b26" stroke="#adadad"></path><path d="M675 201L639.5 216L675 248.7Z" fill="#0a3b26" stroke="#adadad"></path><path d="M592.5 125L599.3 118L582 125.3Z" fill="#4c7d25" stroke="#adadad"></path><path d="M529.3 71.3L549.8 51L507.5 58.3Z" fill="#154e2a" stroke="#adadad"></path><path d="M23.8 841.7L84.3 809.7L82.5 806Z" fill="#154e2a" stroke="#adadad"></path><path d="M82.5 806L84.3 809.7L93 804.3Z" fill="#0f4429" stroke="#adadad"></path><path d="M355.3 900L345.3 835.3L325.8 863.3Z" fill="#28612b" stroke="#adadad"></path><path d="M84.3 809.7L125.3 831.3L93 804.3Z" fill="#336a2a" stroke="#adadad"></path><path d="M128.8 825L133.3 844.7L158.5 799Z" fill="#4c7d25" stroke="#adadad"></path><path d="M356.3 0L273.3 0L298 34.7Z" fill="#1e572b" stroke="#adadad"></path><path d="M597.8 74.3L555.3 78L556.5 102.3Z" fill="#336a2a" stroke="#adadad"></path><path d="M144.3 36.3L93.5 50.7L106 63Z" fill="#0a3b26" stroke="#adadad"></path><path d="M273.3 0L251.8 0L252.8 43.3Z" fill="#6a8e1a" stroke="#adadad"></path><path d="M144.3 36.3L108 0L93.5 50.7Z" fill="#4c7d25" stroke="#adadad"></path><path d="M373 31.3L405 54.7L394.8 0Z" fill="#0a3b26" stroke="#adadad"></path><path d="M360.3 11.3L356.3 0L329.3 46.7Z" fill="#0f4429" stroke="#adadad"></path><path d="M394.8 0L405 54.7L423 0Z" fill="#0a3b26" stroke="#adadad"></path><path d="M688.3 266L675 201L675 248.7Z" fill="#0f4429" stroke="#adadad"></path><path d="M251.8 0L232.5 0L243.3 43.3Z" fill="#336a2a" stroke="#adadad"></path><path d="M232.5 0L224 0L243.3 43.3Z" fill="#6a8e1a" stroke="#adadad"></path><path d="M576.5 726.3L552.8 755L592.8 791.3Z" fill="#28612b" stroke="#adadad"></path><path d="M624.5 707L675 690.7L611.8 635.3Z" fill="#0a3b26" stroke="#adadad"></path><path d="M564.5 808L522.8 780.3L514.3 790.7Z" fill="#28612b" stroke="#adadad"></path><path d="M501 831L474.3 799.3L459.5 829Z" fill="#154e2a" stroke="#adadad"></path><path d="M0 741.7L30.5 783.7L27.8 733.3Z" fill="#336a2a" stroke="#adadad"></path><path d="M127.8 900L133.3 844.7L101 900Z" fill="#336a2a" stroke="#adadad"></path><path d="M651.3 127.3L609.5 115.7L604.3 175.7Z" fill="#0f4429" stroke="#adadad"></path><path d="M599.3 118L597.8 74.3L556.5 102.3Z" fill="#0a3b26" stroke="#adadad"></path><path d="M688.3 266L675 194.3L675 201Z" fill="#5a8620" stroke="#adadad"></path><path d="M675 201L675 194.3L639.5 216Z" fill="#1e572b" stroke="#adadad"></path><path d="M517 847.3L501 831L477.8 900Z" fill="#5a8620" stroke="#adadad"></path><path d="M688.3 266L675 193.7L675 194.3Z" fill="#154e2a" stroke="#adadad"></path><path d="M675 194.3L675 193.7L639.5 216Z" fill="#5a8620" stroke="#adadad"></path><path d="M133.3 844.7L125.3 831.3L101 900Z" fill="#7a9711" stroke="#adadad"></path><path d="M125.3 831.3L133.3 844.7L128.8 825Z" fill="#7a9711" stroke="#adadad"></path><path d="M423 0L405 54.7L448.5 0Z" fill="#7a9711" stroke="#adadad"></path><path d="M63.8 49L41.8 74.7L105 74.7Z" fill="#0f4429" stroke="#adadad"></path><path d="M201.5 872.3L258.8 847.7L206.8 834.3Z" fill="#3f7328" stroke="#adadad"></path><path d="M320.3 865.7L320 900L325.8 863.3Z" fill="#0a3b26" stroke="#adadad"></path><path d="M256 877.7L292.5 880.3L258.8 847.7Z" fill="#6a8e1a" stroke="#adadad"></path><path d="M189.8 0L148.8 15.7L187.8 53.3Z" fill="#5a8620" stroke="#adadad"></path><path d="M93.5 50.7L63.8 49L105 74.7Z" fill="#5a8620" stroke="#adadad"></path><path d="M224 0L189.8 0L187.8 53.3Z" fill="#28612b" stroke="#adadad"></path><path d="M133.3 844.7L201.5 872.3L193.5 820.7Z" fill="#7a9711" stroke="#adadad"></path><path d="M41.8 74.7L0 100.3L41.5 131Z" fill="#28612b" stroke="#adadad"></path><path d="M7.8 128.3L0 100.3L0 148.7Z" fill="#154e2a" stroke="#adadad"></path><path d="M448.5 0L405 54.7L466.8 57.3Z" fill="#0a3b26" stroke="#adadad"></path><path d="M448.5 0L466.8 57.3L488.3 0Z" fill="#0f4429" stroke="#adadad"></path><path d="M675 706L675 690.7L624.5 707Z" fill="#0a3b26" stroke="#adadad"></path><path d="M675 603.3L681.3 786L675 571Z" fill="#154e2a" stroke="#adadad"></path><path d="M564.5 808L530 769.7L522.8 780.3Z" fill="#0f4429" stroke="#adadad"></path><path d="M675 710.3L675 706L624.5 707Z" fill="#154e2a" stroke="#adadad"></path><path d="M63.5 0L63.8 49L93.5 50.7Z" fill="#4c7d25" stroke="#adadad"></path><path d="M41.8 74.7L0 83L0 100.3Z" fill="#0f4429" stroke="#adadad"></path><path d="M517 847.3L564.5 808L514.3 790.7Z" fill="#1e572b" stroke="#adadad"></path><path d="M597.8 74.3L549.8 51L555.3 78Z" fill="#4c7d25" stroke="#adadad"></path><path d="M555.3 78L549.8 51L529.3 71.3Z" fill="#4c7d25" stroke="#adadad"></path><path d="M0 741.7L0.8 778.7L30.5 783.7Z" fill="#6a8e1a" stroke="#adadad"></path><path d="M30.5 783.7L23.8 841.7L82.5 806Z" fill="#5a8620" stroke="#adadad"></path><path d="M0 783L0.8 778.7L-16.2 775Z" fill="#336a2a" stroke="#adadad"></path><path d="M488.3 0L466.8 57.3L496.5 48.7Z" fill="#154e2a" stroke="#adadad"></path><path d="M564.5 808L592.8 791.3L552.8 755Z" fill="#336a2a" stroke="#adadad"></path><path d="M675 710.3L619.3 743.7L675 765.7Z" fill="#4c7d25" stroke="#adadad"></path><path d="M675 710.3L624.5 707L619.3 743.7Z" fill="#28612b" stroke="#adadad"></path><path d="M675 690.7L681.3 786L675 603.3Z" fill="#154e2a" stroke="#adadad"></path><path d="M-16.2 775L0.8 778.7L0 741.7Z" fill="#154e2a" stroke="#adadad"></path><path d="M0.8 778.7L0 783L30.5 783.7Z" fill="#7a9711" stroke="#adadad"></path><path d="M189.8 0L144.3 0L148.8 15.7Z" fill="#4c7d25" stroke="#adadad"></path><path d="M148.8 15.7L108 0L144.3 36.3Z" fill="#4c7d25" stroke="#adadad"></path><path d="M675 765.7L619.3 743.7L622.8 755.7Z" fill="#336a2a" stroke="#adadad"></path><path d="M675 706L681.3 786L675 690.7Z" fill="#4c7d25" stroke="#adadad"></path><path d="M0 47.3L41.8 74.7L63.8 49Z" fill="#28612b" stroke="#adadad"></path><path d="M0 47.3L0 83L41.8 74.7Z" fill="#4c7d25" stroke="#adadad"></path><path d="M0 100.3L0 83L-17.2 175.7Z" fill="#6a8e1a" stroke="#adadad"></path><path d="M675 193.7L651.3 127.3L604.3 175.7Z" fill="#5a8620" stroke="#adadad"></path><path d="M609.5 115.7L597.8 74.3L599.3 118Z" fill="#7a9711" stroke="#adadad"></path><path d="M501 831L517 847.3L514.3 790.7Z" fill="#28612b" stroke="#adadad"></path><path d="M633.5 826.7L635.5 784.7L592.8 791.3Z" fill="#6a8e1a" stroke="#adadad"></path><path d="M477.8 900L501 831L459.5 829Z" fill="#5a8620" stroke="#adadad"></path><path d="M446 883.7L459.5 829L411.8 854.7Z" fill="#4c7d25" stroke="#adadad"></path><path d="M238.3 901.7L310.8 900L292.5 880.3Z" fill="#0f4429" stroke="#adadad"></path><path d="M292.5 880.3L310.8 900L320.3 865.7Z" fill="#7a9711" stroke="#adadad"></path><path d="M238.3 901.7L292.5 880.3L256 877.7Z" fill="#336a2a" stroke="#adadad"></path><path d="M310.8 900L320 900L320.3 865.7Z" fill="#3f7328" stroke="#adadad"></path><path d="M640.3 112.7L597.8 74.3L609.5 115.7Z" fill="#4c7d25" stroke="#adadad"></path><path d="M550 31.3L488.3 0L496.5 48.7Z" fill="#28612b" stroke="#adadad"></path><path d="M-14.2 618.7L-16.2 775L0 694.3Z" fill="#0a3b26" stroke="#adadad"></path><path d="M-17.2 536L-16.2 775L-14.2 618.7Z" fill="#0f4429" stroke="#adadad"></path><path d="M651.3 127.3L640.3 112.7L609.5 115.7Z" fill="#7a9711" stroke="#adadad"></path><path d="M320 900L355.3 900L325.8 863.3Z" fill="#336a2a" stroke="#adadad"></path><path d="M635.5 784.7L624.3 775.3L592.8 791.3Z" fill="#336a2a" stroke="#adadad"></path><path d="M592.8 791.3L624.3 775.3L622.8 755.7Z" fill="#4c7d25" stroke="#adadad"></path><path d="M-16.2 775L5.8 797.3L0 783Z" fill="#4c7d25" stroke="#adadad"></path><path d="M0 783L5.8 797.3L30.5 783.7Z" fill="#7a9711" stroke="#adadad"></path><path d="M214.3 900L238.3 901.7L201.5 872.3Z" fill="#1e572b" stroke="#adadad"></path><path d="M355.3 900L365.5 900L345.3 835.3Z" fill="#28612b" stroke="#adadad"></path><path d="M431 900L446 883.7L411.8 854.7Z" fill="#1e572b" stroke="#adadad"></path><path d="M200.8 896.7L201.5 872.3L132 901.7Z" fill="#336a2a" stroke="#adadad"></path><path d="M201.5 872.3L238.3 901.7L256 877.7Z" fill="#1e572b" stroke="#adadad"></path><path d="M310.8 900L82.5 917.7L320 900Z" fill="#5a8620" stroke="#adadad"></path><path d="M320 900L82.5 917.7L355.3 900Z" fill="#3f7328" stroke="#adadad"></path><path d="M82.5 917.7L513.5 904.7L365.5 900Z" fill="#154e2a" stroke="#adadad"></path><path d="M550 31.3L507.5 58.3L549.8 51Z" fill="#3f7328" stroke="#adadad"></path><path d="M598.8 38.7L550 31.3L549.8 51Z" fill="#154e2a" stroke="#adadad"></path><path d="M202.5 900L200.8 896.7L132 901.7Z" fill="#336a2a" stroke="#adadad"></path><path d="M200.8 896.7L214.3 900L201.5 872.3Z" fill="#336a2a" stroke="#adadad"></path><path d="M649.5 64.7L598.8 38.7L597.8 74.3Z" fill="#3f7328" stroke="#adadad"></path><path d="M597.8 74.3L598.8 38.7L549.8 51Z" fill="#336a2a" stroke="#adadad"></path><path d="M651.3 127.3L675 108L640.3 112.7Z" fill="#3f7328" stroke="#adadad"></path><path d="M675 193.7L675 138.3L651.3 127.3Z" fill="#0f4429" stroke="#adadad"></path><path d="M688.3 266L675 138.3L675 193.7Z" fill="#28612b" stroke="#adadad"></path><path d="M132 901.7L201.5 872.3L133.3 844.7Z" fill="#4c7d25" stroke="#adadad"></path><path d="M200.8 896.7L202.5 900L214.3 900Z" fill="#5a8620" stroke="#adadad"></path><path d="M214.3 900L202.5 900L238.3 901.7Z" fill="#28612b" stroke="#adadad"></path><path d="M144.3 0L108 0L148.8 15.7Z" fill="#154e2a" stroke="#adadad"></path><path d="M189.8 0L107 -0.7L144.3 0Z" fill="#3f7328" stroke="#adadad"></path><path d="M144.3 0L107 -0.7L108 0Z" fill="#3f7328" stroke="#adadad"></path><path d="M108 0L107 -0.7L93.5 50.7Z" fill="#154e2a" stroke="#adadad"></path><path d="M587.5 -18.7L107 -0.7L189.8 0Z" fill="#0a3b26" stroke="#adadad"></path><path d="M587.5 -18.7L189.8 0L224 0Z" fill="#4c7d25" stroke="#adadad"></path><path d="M587.5 -18.7L224 0L232.5 0Z" fill="#336a2a" stroke="#adadad"></path><path d="M587.5 -18.7L232.5 0L251.8 0Z" fill="#6a8e1a" stroke="#adadad"></path><path d="M587.5 -18.7L251.8 0L273.3 0Z" fill="#4c7d25" stroke="#adadad"></path><path d="M587.5 -18.7L273.3 0L356.3 0Z" fill="#0a3b26" stroke="#adadad"></path><path d="M587.5 -18.7L356.3 0L367.5 0Z" fill="#1e572b" stroke="#adadad"></path><path d="M587.5 -18.7L367.5 0L394.8 0Z" fill="#4c7d25" stroke="#adadad"></path><path d="M587.5 -18.7L394.8 0L423 0Z" fill="#336a2a" stroke="#adadad"></path><path d="M587.5 -18.7L423 0L448.5 0Z" fill="#0a3b26" stroke="#adadad"></path><path d="M365.5 900L431 900L411.8 854.7Z" fill="#5a8620" stroke="#adadad"></path><path d="M446 883.7L477.8 900L459.5 829Z" fill="#4c7d25" stroke="#adadad"></path><path d="M513.5 904.7L431 900L365.5 900Z" fill="#7a9711" stroke="#adadad"></path><path d="M606.3 832.3L592.8 791.3L564.5 808Z" fill="#0a3b26" stroke="#adadad"></path><path d="M624.3 775.3L635.5 784.7L622.8 755.7Z" fill="#6a8e1a" stroke="#adadad"></path><path d="M528.3 871.7L564.5 808L517 847.3Z" fill="#7a9711" stroke="#adadad"></path><path d="M513.5 904.7L459.5 900L431 900Z" fill="#336a2a" stroke="#adadad"></path><path d="M431 900L459.5 900L446 883.7Z" fill="#0a3b26" stroke="#adadad"></path><path d="M20.8 7.3L0 47.3L63.8 49Z" fill="#4c7d25" stroke="#adadad"></path><path d="M0 83L0 47.3L-17.2 175.7Z" fill="#0a3b26" stroke="#adadad"></path><path d="M477.8 900L528.3 871.7L517 847.3Z" fill="#154e2a" stroke="#adadad"></path><path d="M0 862.3L23.8 841.7L5.8 797.3Z" fill="#1e572b" stroke="#adadad"></path><path d="M5.8 797.3L23.8 841.7L30.5 783.7Z" fill="#0f4429" stroke="#adadad"></path><path d="M550 31.3L568 0L488.3 0Z" fill="#4c7d25" stroke="#adadad"></path><path d="M649.5 64.7L597.8 74.3L640.3 112.7Z" fill="#5a8620" stroke="#adadad"></path><path d="M686.3 71.3L675 108L675 138.3Z" fill="#7a9711" stroke="#adadad"></path><path d="M675 138.3L675 108L651.3 127.3Z" fill="#3f7328" stroke="#adadad"></path><path d="M107 -0.7L63.5 0L93.5 50.7Z" fill="#336a2a" stroke="#adadad"></path><path d="M101 900L125.3 831.3L84.3 809.7Z" fill="#0f4429" stroke="#adadad"></path><path d="M202.5 900L82.5 917.7L238.3 901.7Z" fill="#28612b" stroke="#adadad"></path><path d="M127.8 900L132 901.7L133.3 844.7Z" fill="#6a8e1a" stroke="#adadad"></path><path d="M513.5 904.7L477.8 900L459.5 900Z" fill="#7a9711" stroke="#adadad"></path><path d="M459.5 900L477.8 900L446 883.7Z" fill="#28612b" stroke="#adadad"></path><path d="M675 788L675 765.7L635.5 784.7Z" fill="#336a2a" stroke="#adadad"></path><path d="M635.5 784.7L675 765.7L622.8 755.7Z" fill="#7a9711" stroke="#adadad"></path><path d="M675 710.3L681.3 786L675 706Z" fill="#7a9711" stroke="#adadad"></path><path d="M63.5 0L48.5 5.3L63.8 49Z" fill="#1e572b" stroke="#adadad"></path><path d="M633.5 826.7L606.3 832.3L625.5 855.3Z" fill="#28612b" stroke="#adadad"></path><path d="M528.3 871.7L606.3 832.3L564.5 808Z" fill="#4c7d25" stroke="#adadad"></path><path d="M601.8 0L591 21.7L615.5 0Z" fill="#28612b" stroke="#adadad"></path><path d="M598.8 38.7L591 21.7L550 31.3Z" fill="#1e572b" stroke="#adadad"></path><path d="M675 81.7L649.5 64.7L640.3 112.7Z" fill="#1e572b" stroke="#adadad"></path><path d="M62.3 900L101 900L84.3 809.7Z" fill="#28612b" stroke="#adadad"></path><path d="M127.8 900L82.5 917.7L132 901.7Z" fill="#3f7328" stroke="#adadad"></path><path d="M601.8 0L568 0L591 21.7Z" fill="#5a8620" stroke="#adadad"></path><path d="M591 21.7L568 0L550 31.3Z" fill="#28612b" stroke="#adadad"></path><path d="M488.3 0L587.5 -18.7L448.5 0Z" fill="#28612b" stroke="#adadad"></path><path d="M15.8 0L20.8 7.3L48.5 5.3Z" fill="#28612b" stroke="#adadad"></path><path d="M48.5 5.3L20.8 7.3L63.8 49Z" fill="#0f4429" stroke="#adadad"></path><path d="M606.3 832.3L633.5 826.7L592.8 791.3Z" fill="#0a3b26" stroke="#adadad"></path><path d="M568.8 900L606.3 832.3L528.3 871.7Z" fill="#4c7d25" stroke="#adadad"></path><path d="M675 108L675 81.7L640.3 112.7Z" fill="#154e2a" stroke="#adadad"></path><path d="M615.5 0L591 21.7L598.8 38.7Z" fill="#0a3b26" stroke="#adadad"></path><path d="M686.3 71.3L675 81.7L675 108Z" fill="#4c7d25" stroke="#adadad"></path><path d="M675 820.7L675 788L635.5 784.7Z" fill="#28612b" stroke="#adadad"></path><path d="M675 765.7L681.3 786L675 710.3Z" fill="#336a2a" stroke="#adadad"></path><path d="M82.5 917.7L365.5 900L355.3 900Z" fill="#154e2a" stroke="#adadad"></path><path d="M477.8 900L513.5 904.7L528.3 871.7Z" fill="#7a9711" stroke="#adadad"></path><path d="M82.5 917.7L310.8 900L238.3 901.7Z" fill="#1e572b" stroke="#adadad"></path><path d="M675 820.7L681.3 786L675 788Z" fill="#7a9711" stroke="#adadad"></path><path d="M675 788L681.3 786L675 765.7Z" fill="#6a8e1a" stroke="#adadad"></path><path d="M20.8 7.3L0 15.7L0 47.3Z" fill="#0a3b26" stroke="#adadad"></path><path d="M0 47.3L0 15.7L-17.2 175.7Z" fill="#0a3b26" stroke="#adadad"></path><path d="M513.5 904.7L525 902.7L528.3 871.7Z" fill="#4c7d25" stroke="#adadad"></path><path d="M525 902.7L534.3 900L528.3 871.7Z" fill="#336a2a" stroke="#adadad"></path><path d="M63.5 0L15.8 0L48.5 5.3Z" fill="#0f4429" stroke="#adadad"></path><path d="M20.8 7.3L15.8 0L0 15.7Z" fill="#154e2a" stroke="#adadad"></path><path d="M107 -0.7L15.8 0L63.5 0Z" fill="#3f7328" stroke="#adadad"></path><path d="M101 900L82.5 917.7L127.8 900Z" fill="#154e2a" stroke="#adadad"></path><path d="M23.8 841.7L62.3 900L84.3 809.7Z" fill="#6a8e1a" stroke="#adadad"></path><path d="M-16.2 775L0 862.3L5.8 797.3Z" fill="#0f4429" stroke="#adadad"></path><path d="M23.8 841.7L32.8 900L62.3 900Z" fill="#0a3b26" stroke="#adadad"></path><path d="M615.5 0L598.8 38.7L653.3 0Z" fill="#154e2a" stroke="#adadad"></path><path d="M568 0L587.5 -18.7L488.3 0Z" fill="#4c7d25" stroke="#adadad"></path><path d="M688.3 266L686.3 71.3L675 138.3Z" fill="#3f7328" stroke="#adadad"></path><path d="M675 81.7L686.3 71.3L649.5 64.7Z" fill="#5a8620" stroke="#adadad"></path><path d="M568.8 900L554 900L525 902.7Z" fill="#154e2a" stroke="#adadad"></path><path d="M525 902.7L554 900L534.3 900Z" fill="#4c7d25" stroke="#adadad"></path><path d="M534.3 900L554 900L528.3 871.7Z" fill="#154e2a" stroke="#adadad"></path><path d="M633.5 826.7L675 820.7L635.5 784.7Z" fill="#28612b" stroke="#adadad"></path><path d="M107 -0.7L0 0L15.8 0Z" fill="#4c7d25" stroke="#adadad"></path><path d="M15.8 0L0 0L0 15.7Z" fill="#336a2a" stroke="#adadad"></path><path d="M0 15.7L0 0L-17.2 175.7Z" fill="#28612b" stroke="#adadad"></path><path d="M618.8 867.7L625.5 855.3L606.3 832.3Z" fill="#6a8e1a" stroke="#adadad"></path><path d="M32.8 900L82.5 917.7L62.3 900Z" fill="#28612b" stroke="#adadad"></path><path d="M62.3 900L82.5 917.7L101 900Z" fill="#7a9711" stroke="#adadad"></path><path d="M132 901.7L82.5 917.7L202.5 900Z" fill="#3f7328" stroke="#adadad"></path><path d="M615.5 0L587.5 -18.7L601.8 0Z" fill="#3f7328" stroke="#adadad"></path><path d="M601.8 0L587.5 -18.7L568 0Z" fill="#4c7d25" stroke="#adadad"></path><path d="M107 -0.7L587.5 -18.7L0 0Z" fill="#7a9711" stroke="#adadad"></path><path d="M653.3 0L598.8 38.7L649.5 64.7Z" fill="#7a9711" stroke="#adadad"></path><path d="M513.5 904.7L568.8 900L525 902.7Z" fill="#154e2a" stroke="#adadad"></path><path d="M554 900L568.8 900L528.3 871.7Z" fill="#336a2a" stroke="#adadad"></path><path d="M568.8 900L618.8 867.7L606.3 832.3Z" fill="#3f7328" stroke="#adadad"></path><path d="M658.3 836.7L675 820.7L633.5 826.7Z" fill="#4c7d25" stroke="#adadad"></path><path d="M658.3 836.7L633.5 826.7L625.5 855.3Z" fill="#28612b" stroke="#adadad"></path><path d="M675 852.3L658.3 836.7L625.5 855.3Z" fill="#3f7328" stroke="#adadad"></path><path d="M32.5 900L32.8 900L23.8 841.7Z" fill="#4c7d25" stroke="#adadad"></path><path d="M0 862.3L32.5 900L23.8 841.7Z" fill="#0a3b26" stroke="#adadad"></path><path d="M32.8 900L32.5 900L82.5 917.7Z" fill="#3f7328" stroke="#adadad"></path><path d="M-16.2 775L0 900L0 862.3Z" fill="#0f4429" stroke="#adadad"></path><path d="M0 862.3L0 900L32.5 900Z" fill="#5a8620" stroke="#adadad"></path><path d="M32.5 900L0 903.7L82.5 917.7Z" fill="#6a8e1a" stroke="#adadad"></path><path d="M-16.2 775L0 903.7L0 900Z" fill="#154e2a" stroke="#adadad"></path><path d="M0 900L0 903.7L32.5 900Z" fill="#0f4429" stroke="#adadad"></path><path d="M675 4.3L653.3 0L649.5 64.7Z" fill="#154e2a" stroke="#adadad"></path><path d="M615.5 0L653.3 0L587.5 -18.7Z" fill="#1e572b" stroke="#adadad"></path><path d="M568.8 900L611.3 900L618.8 867.7Z" fill="#3f7328" stroke="#adadad"></path><path d="M675 900L675 852.3L625.5 855.3Z" fill="#7a9711" stroke="#adadad"></path><path d="M658.3 836.7L675 852.3L675 820.7Z" fill="#7a9711" stroke="#adadad"></path><path d="M513.5 904.7L611.3 900L568.8 900Z" fill="#5a8620" stroke="#adadad"></path><path d="M513.5 904.7L612.5 900L611.3 900Z" fill="#1e572b" stroke="#adadad"></path><path d="M611.3 900L612.5 900L618.8 867.7Z" fill="#6a8e1a" stroke="#adadad"></path><path d="M675 900L625.5 855.3L618.8 867.7Z" fill="#5a8620" stroke="#adadad"></path><path d="M675 820.7L675 852.3L681.3 786Z" fill="#6a8e1a" stroke="#adadad"></path><path d="M686.3 71.3L675 4.3L649.5 64.7Z" fill="#0a3b26" stroke="#adadad"></path><path d="M653.3 0L675 0L587.5 -18.7Z" fill="#154e2a" stroke="#adadad"></path><path d="M686.3 71.3L675 0L675 4.3Z" fill="#6a8e1a" stroke="#adadad"></path><path d="M675 4.3L675 0L653.3 0Z" fill="#6a8e1a" stroke="#adadad"></path><path d="M612.5 900L675 900L618.8 867.7Z" fill="#3f7328" stroke="#adadad"></path><path d="M675 852.3L675 900L681.3 786Z" fill="#154e2a" stroke="#adadad"></path><path d="M513.5 904.7L675 900L612.5 900Z" fill="#4c7d25" stroke="#adadad"></path><path d="M82.5 917.7L675 900L513.5 904.7Z" fill="#3f7328" stroke="#adadad"></path></g></svg>