<svg id="visual" viewBox="0 0 675 900" width="675" height="900" xmlns="http://www.w3.org/2000/svg" xmlns:xlink="http://www.w3.org/1999/xlink" version="1.1"><g stroke-width="1" stroke-linejoin="bevel"><path d="M331.5 450.7L283.8 428.7L323.3 467Z" fill="#37a562" stroke="#adadad"></path><path d="M283.8 428.7L278 438L323.3 467Z" fill="#29301c" stroke="#adadad"></path><path d="M331.5 450.7L299.5 419.3L283.8 428.7Z" fill="#212417" stroke="#adadad"></path><path d="M266 437.3L269.3 444L278 438Z" fill="#28b671" stroke="#adadad"></path><path d="M279.3 479L311 485L323.3 467Z" fill="#28b671" stroke="#adadad"></path><path d="M279.3 479L323.3 467L278 438Z" fill="#37a562" stroke="#adadad"></path><path d="M245.5 432.3L266 437.3L283.8 428.7Z" fill="#313d21" stroke="#adadad"></path><path d="M283.8 428.7L266 437.3L278 438Z" fill="#212417" stroke="#adadad"></path><path d="M261.8 475.3L279.3 479L269.3 444Z" fill="#37a562" stroke="#adadad"></path><path d="M269.3 444L279.3 479L278 438Z" fill="#3c582e" stroke="#adadad"></path><path d="M331.5 450.7L341.5 416L299.5 419.3Z" fill="#42763f" stroke="#adadad"></path><path d="M250 474.7L261.8 475.3L269.3 444Z" fill="#374a27" stroke="#adadad"></path><path d="M334.5 525.7L330.8 492.3L311 485Z" fill="#28b671" stroke="#adadad"></path><path d="M311 485L330.8 492.3L323.3 467Z" fill="#3f9555" stroke="#adadad"></path><path d="M323.3 467L383 476.3L331.5 450.7Z" fill="#3f9555" stroke="#adadad"></path><path d="M383.5 449L349.8 412L341.5 416Z" fill="#212417" stroke="#adadad"></path><path d="M334.5 525.7L311 485L291.8 530.7Z" fill="#37a562" stroke="#adadad"></path><path d="M383.5 449L341.5 416L331.5 450.7Z" fill="#406736" stroke="#adadad"></path><path d="M341.5 416L291.5 379.7L299.5 419.3Z" fill="#3f9555" stroke="#adadad"></path><path d="M232.3 419.3L245.5 432.3L283.8 428.7Z" fill="#428549" stroke="#adadad"></path><path d="M266 437.3L245.5 432.3L269.3 444Z" fill="#212417" stroke="#adadad"></path><path d="M245.5 432.3L250 474.7L269.3 444Z" fill="#3f9555" stroke="#adadad"></path><path d="M261.8 475.3L241 494.3L279.3 479Z" fill="#212417" stroke="#adadad"></path><path d="M349.8 412L291.5 379.7L341.5 416Z" fill="#406736" stroke="#adadad"></path><path d="M299.5 419.3L291.5 379.7L283.8 428.7Z" fill="#406736" stroke="#adadad"></path><path d="M232.3 419.3L231.3 428.7L245.5 432.3Z" fill="#42763f" stroke="#adadad"></path><path d="M245.5 432.3L227.5 471.7L250 474.7Z" fill="#29301c" stroke="#adadad"></path><path d="M236.5 377L232.3 419.3L283.8 428.7Z" fill="#37a562" stroke="#adadad"></path><path d="M227.5 471.7L241 494.3L250 474.7Z" fill="#428549" stroke="#adadad"></path><path d="M250 474.7L241 494.3L261.8 475.3Z" fill="#29301c" stroke="#adadad"></path><path d="M383 476.3L383.5 449L331.5 450.7Z" fill="#428549" stroke="#adadad"></path><path d="M231.3 428.7L227.5 471.7L245.5 432.3Z" fill="#374a27" stroke="#adadad"></path><path d="M330.8 492.3L383 476.3L323.3 467Z" fill="#3f9555" stroke="#adadad"></path><path d="M291.8 530.7L311 485L279.3 479Z" fill="#42763f" stroke="#adadad"></path><path d="M330.8 492.3L334.5 525.7L383 476.3Z" fill="#37a562" stroke="#adadad"></path><path d="M251.5 523.3L291.8 530.7L279.3 479Z" fill="#3f9555" stroke="#adadad"></path><path d="M402.3 424.7L384.3 409.3L383.5 449Z" fill="#212417" stroke="#adadad"></path><path d="M383.5 449L384.3 409.3L349.8 412Z" fill="#3f9555" stroke="#adadad"></path><path d="M349.8 412L334.8 338L291.5 379.7Z" fill="#428549" stroke="#adadad"></path><path d="M253.8 548L251.5 523.3L224.3 537.3Z" fill="#374a27" stroke="#adadad"></path><path d="M241 494.3L251.5 523.3L279.3 479Z" fill="#428549" stroke="#adadad"></path><path d="M291.5 379.7L236.5 377L283.8 428.7Z" fill="#313d21" stroke="#adadad"></path><path d="M232.3 419.3L195.8 445.3L231.3 428.7Z" fill="#3c582e" stroke="#adadad"></path><path d="M236.5 377L223 392.7L232.3 419.3Z" fill="#42763f" stroke="#adadad"></path><path d="M231.3 428.7L195.8 445.3L227.5 471.7Z" fill="#3c582e" stroke="#adadad"></path><path d="M421.3 437L402.3 424.7L383.5 449Z" fill="#374a27" stroke="#adadad"></path><path d="M223 392.7L195.8 445.3L232.3 419.3Z" fill="#406736" stroke="#adadad"></path><path d="M169 528.3L224.3 537.3L241 494.3Z" fill="#428549" stroke="#adadad"></path><path d="M402.3 424.7L400 394.7L384.3 409.3Z" fill="#313d21" stroke="#adadad"></path><path d="M357 337L344.8 338.7L349.8 412Z" fill="#3c582e" stroke="#adadad"></path><path d="M404 511L406.8 492.7L383 476.3Z" fill="#406736" stroke="#adadad"></path><path d="M383 476.3L421.3 437L383.5 449Z" fill="#37a562" stroke="#adadad"></path><path d="M281.3 312.3L249.3 348.7L291.5 379.7Z" fill="#374a27" stroke="#adadad"></path><path d="M291.5 379.7L249.3 348.7L236.5 377Z" fill="#37a562" stroke="#adadad"></path><path d="M236.5 377L207.8 362.7L223 392.7Z" fill="#212417" stroke="#adadad"></path><path d="M224.3 537.3L251.5 523.3L241 494.3Z" fill="#428549" stroke="#adadad"></path><path d="M251.5 523.3L253.8 548L291.8 530.7Z" fill="#406736" stroke="#adadad"></path><path d="M291.8 530.7L354.5 552.3L334.5 525.7Z" fill="#28b671" stroke="#adadad"></path><path d="M344.8 338.7L334.8 338L349.8 412Z" fill="#29301c" stroke="#adadad"></path><path d="M396.8 368L349.8 412L384.3 409.3Z" fill="#3c582e" stroke="#adadad"></path><path d="M276 566L354.5 552.3L291.8 530.7Z" fill="#212417" stroke="#adadad"></path><path d="M334.5 525.7L404 511L383 476.3Z" fill="#3f9555" stroke="#adadad"></path><path d="M406.8 492.7L421.3 437L383 476.3Z" fill="#28b671" stroke="#adadad"></path><path d="M402.3 424.7L418.3 415.7L400 394.7Z" fill="#313d21" stroke="#adadad"></path><path d="M421.3 437L418.3 415.7L402.3 424.7Z" fill="#3c582e" stroke="#adadad"></path><path d="M354.5 552.3L404 511L334.5 525.7Z" fill="#3c582e" stroke="#adadad"></path><path d="M406.8 492.7L457.3 501.3L421.3 437Z" fill="#37a562" stroke="#adadad"></path><path d="M169 528.3L241 494.3L227.5 471.7Z" fill="#37a562" stroke="#adadad"></path><path d="M428.5 378.7L396.8 368L400 394.7Z" fill="#374a27" stroke="#adadad"></path><path d="M400 394.7L396.8 368L384.3 409.3Z" fill="#3c582e" stroke="#adadad"></path><path d="M396.8 368L357 337L349.8 412Z" fill="#313d21" stroke="#adadad"></path><path d="M328.8 298.3L307 304.3L334.8 338Z" fill="#406736" stroke="#adadad"></path><path d="M287.8 594.3L276 566L252 589.7Z" fill="#374a27" stroke="#adadad"></path><path d="M253.8 548L276 566L291.8 530.7Z" fill="#28b671" stroke="#adadad"></path><path d="M249.3 348.7L207.8 362.7L236.5 377Z" fill="#428549" stroke="#adadad"></path><path d="M223 392.7L143.8 376.3L195.8 445.3Z" fill="#3f9555" stroke="#adadad"></path><path d="M396.8 368L382.5 337L357 337Z" fill="#313d21" stroke="#adadad"></path><path d="M421.3 437L433.5 404.3L418.3 415.7Z" fill="#28b671" stroke="#adadad"></path><path d="M418.3 415.7L433.5 404.3L400 394.7Z" fill="#428549" stroke="#adadad"></path><path d="M396.8 368L400 333.3L382.5 337Z" fill="#28b671" stroke="#adadad"></path><path d="M472.5 435.7L433.5 404.3L421.3 437Z" fill="#428549" stroke="#adadad"></path><path d="M334.8 338L344.8 338.7L328.8 298.3Z" fill="#406736" stroke="#adadad"></path><path d="M307 304.3L281.3 312.3L334.8 338Z" fill="#3f9555" stroke="#adadad"></path><path d="M334.8 338L281.3 312.3L291.5 379.7Z" fill="#3c582e" stroke="#adadad"></path><path d="M249.3 348.7L184.5 308.7L207.8 362.7Z" fill="#42763f" stroke="#adadad"></path><path d="M287.8 594.3L355.3 577.3L354.5 552.3Z" fill="#428549" stroke="#adadad"></path><path d="M354.5 552.3L415.8 549L404 511Z" fill="#406736" stroke="#adadad"></path><path d="M433.5 404.3L434 391L400 394.7Z" fill="#29301c" stroke="#adadad"></path><path d="M434 391L428.5 378.7L400 394.7Z" fill="#28b671" stroke="#adadad"></path><path d="M328.8 298.3L344.8 338.7L357 337Z" fill="#406736" stroke="#adadad"></path><path d="M415.8 549L431 513.7L404 511Z" fill="#212417" stroke="#adadad"></path><path d="M404 511L431 513.7L406.8 492.7Z" fill="#212417" stroke="#adadad"></path><path d="M480.3 378.3L441.8 364.3L434 391Z" fill="#313d21" stroke="#adadad"></path><path d="M252 589.7L276 566L253.8 548Z" fill="#29301c" stroke="#adadad"></path><path d="M276 566L287.8 594.3L354.5 552.3Z" fill="#3f9555" stroke="#adadad"></path><path d="M441.8 364.3L400 333.3L396.8 368Z" fill="#37a562" stroke="#adadad"></path><path d="M376.3 297L328.8 298.3L357 337Z" fill="#3f9555" stroke="#adadad"></path><path d="M129 411L155.8 471.7L195.8 445.3Z" fill="#42763f" stroke="#adadad"></path><path d="M195.8 445.3L155.8 471.7L227.5 471.7Z" fill="#406736" stroke="#adadad"></path><path d="M376.3 297L357 337L382.5 337Z" fill="#313d21" stroke="#adadad"></path><path d="M372.3 584.7L415.8 549L354.5 552.3Z" fill="#3f9555" stroke="#adadad"></path><path d="M338.8 600L361.5 587L355.3 577.3Z" fill="#428549" stroke="#adadad"></path><path d="M355.3 577.3L372.3 584.7L354.5 552.3Z" fill="#313d21" stroke="#adadad"></path><path d="M195.5 574L252 589.7L224.3 537.3Z" fill="#313d21" stroke="#adadad"></path><path d="M224.3 537.3L252 589.7L253.8 548Z" fill="#374a27" stroke="#adadad"></path><path d="M361.5 587L372.3 584.7L355.3 577.3Z" fill="#42763f" stroke="#adadad"></path><path d="M287.8 594.3L338.8 600L355.3 577.3Z" fill="#406736" stroke="#adadad"></path><path d="M361.5 587L370.3 620.3L372.3 584.7Z" fill="#313d21" stroke="#adadad"></path><path d="M159.5 510L169 528.3L227.5 471.7Z" fill="#406736" stroke="#adadad"></path><path d="M155.8 471.7L159.5 510L227.5 471.7Z" fill="#3c582e" stroke="#adadad"></path><path d="M328.8 298.3L322.3 288.3L307 304.3Z" fill="#406736" stroke="#adadad"></path><path d="M307 304.3L262.3 269L281.3 312.3Z" fill="#406736" stroke="#adadad"></path><path d="M322.5 282.3L322.3 288.3L328.8 298.3Z" fill="#28b671" stroke="#adadad"></path><path d="M434 391L441.8 364.3L428.5 378.7Z" fill="#374a27" stroke="#adadad"></path><path d="M428.5 378.7L441.8 364.3L396.8 368Z" fill="#3c582e" stroke="#adadad"></path><path d="M472.8 403.3L434 391L433.5 404.3Z" fill="#37a562" stroke="#adadad"></path><path d="M453.5 520L457.3 501.3L431 513.7Z" fill="#42763f" stroke="#adadad"></path><path d="M431 513.7L457.3 501.3L406.8 492.7Z" fill="#313d21" stroke="#adadad"></path><path d="M159.5 510L156.8 518.3L169 528.3Z" fill="#3f9555" stroke="#adadad"></path><path d="M146.8 530L156.8 518.3L126 489Z" fill="#313d21" stroke="#adadad"></path><path d="M376 284.3L322.5 282.3L328.8 298.3Z" fill="#428549" stroke="#adadad"></path><path d="M322.3 288.3L322.5 282.3L307 304.3Z" fill="#3f9555" stroke="#adadad"></path><path d="M137.8 367L143.8 376.3L169.5 315.7Z" fill="#374a27" stroke="#adadad"></path><path d="M438.8 553.7L453.5 520L431 513.7Z" fill="#29301c" stroke="#adadad"></path><path d="M438.8 553.7L431 513.7L415.8 549Z" fill="#313d21" stroke="#adadad"></path><path d="M376 284.3L376.3 297L447 270.7Z" fill="#37a562" stroke="#adadad"></path><path d="M400 333.3L376.3 297L382.5 337Z" fill="#3c582e" stroke="#adadad"></path><path d="M162.8 536.7L195.5 574L169 528.3Z" fill="#428549" stroke="#adadad"></path><path d="M169 528.3L195.5 574L224.3 537.3Z" fill="#29301c" stroke="#adadad"></path><path d="M418 581.7L415.8 549L372.3 584.7Z" fill="#3c582e" stroke="#adadad"></path><path d="M418 581.7L422.5 565.3L415.8 549Z" fill="#374a27" stroke="#adadad"></path><path d="M156.8 518.3L162.8 536.7L169 528.3Z" fill="#29301c" stroke="#adadad"></path><path d="M480.3 484L421.3 437L457.3 501.3Z" fill="#29301c" stroke="#adadad"></path><path d="M480.3 484L472.5 435.7L421.3 437Z" fill="#29301c" stroke="#adadad"></path><path d="M422.5 565.3L438.8 553.7L415.8 549Z" fill="#3f9555" stroke="#adadad"></path><path d="M472.5 435.7L472.8 403.3L433.5 404.3Z" fill="#406736" stroke="#adadad"></path><path d="M223 278L249.3 348.7L281.3 312.3Z" fill="#406736" stroke="#adadad"></path><path d="M207.8 362.7L143.8 376.3L223 392.7Z" fill="#406736" stroke="#adadad"></path><path d="M126 489L156.8 518.3L159.5 510Z" fill="#313d21" stroke="#adadad"></path><path d="M376.5 622.7L418 581.7L372.3 584.7Z" fill="#212417" stroke="#adadad"></path><path d="M422.5 565.3L444.8 566.3L438.8 553.7Z" fill="#406736" stroke="#adadad"></path><path d="M280 656.3L314.8 623.7L287.8 594.3Z" fill="#37a562" stroke="#adadad"></path><path d="M287.8 594.3L314.8 623.7L338.8 600Z" fill="#28b671" stroke="#adadad"></path><path d="M338.8 600L359 620.3L361.5 587Z" fill="#37a562" stroke="#adadad"></path><path d="M247.3 617.7L287.8 594.3L252 589.7Z" fill="#3f9555" stroke="#adadad"></path><path d="M126 489L159.5 510L155.8 471.7Z" fill="#374a27" stroke="#adadad"></path><path d="M156.8 518.3L146.8 530L162.8 536.7Z" fill="#428549" stroke="#adadad"></path><path d="M162.8 536.7L161.5 572.7L195.5 574Z" fill="#29301c" stroke="#adadad"></path><path d="M447 270.7L376.3 297L400 333.3Z" fill="#428549" stroke="#adadad"></path><path d="M376.3 297L376 284.3L328.8 298.3Z" fill="#374a27" stroke="#adadad"></path><path d="M143.8 376.3L129 411L195.8 445.3Z" fill="#28b671" stroke="#adadad"></path><path d="M195.5 574L247.3 617.7L252 589.7Z" fill="#28b671" stroke="#adadad"></path><path d="M465.5 539.7L457.3 501.3L453.5 520Z" fill="#37a562" stroke="#adadad"></path><path d="M465.5 539.7L480.3 484L457.3 501.3Z" fill="#28b671" stroke="#adadad"></path><path d="M472.5 435.7L506.3 446L472.8 403.3Z" fill="#374a27" stroke="#adadad"></path><path d="M350.3 631L359 620.3L338.8 600Z" fill="#28b671" stroke="#adadad"></path><path d="M116 421.3L124.3 418.3L129 411Z" fill="#37a562" stroke="#adadad"></path><path d="M129 411L124.3 418.3L155.8 471.7Z" fill="#3f9555" stroke="#adadad"></path><path d="M266 262.7L307 304.3L322.5 282.3Z" fill="#406736" stroke="#adadad"></path><path d="M266 262.7L262.3 269L307 304.3Z" fill="#28b671" stroke="#adadad"></path><path d="M223 278L184.5 308.7L249.3 348.7Z" fill="#428549" stroke="#adadad"></path><path d="M112.5 464L126 489L155.8 471.7Z" fill="#28b671" stroke="#adadad"></path><path d="M480.3 484L487.3 466.3L472.5 435.7Z" fill="#313d21" stroke="#adadad"></path><path d="M434.5 583.3L444.8 566.3L422.5 565.3Z" fill="#212417" stroke="#adadad"></path><path d="M438.8 553.7L465.5 539.7L453.5 520Z" fill="#212417" stroke="#adadad"></path><path d="M434.5 583.3L422.5 565.3L418 581.7Z" fill="#3f9555" stroke="#adadad"></path><path d="M169.5 315.7L143.8 376.3L207.8 362.7Z" fill="#42763f" stroke="#adadad"></path><path d="M143.8 376.3L137.8 367L129 411Z" fill="#212417" stroke="#adadad"></path><path d="M369 646L370.3 620.3L359 620.3Z" fill="#428549" stroke="#adadad"></path><path d="M359 620.3L370.3 620.3L361.5 587Z" fill="#37a562" stroke="#adadad"></path><path d="M444.8 566.3L465.5 539.7L438.8 553.7Z" fill="#406736" stroke="#adadad"></path><path d="M480.3 484L493.3 480.7L487.3 466.3Z" fill="#406736" stroke="#adadad"></path><path d="M314.8 623.7L329.5 632.3L338.8 600Z" fill="#28b671" stroke="#adadad"></path><path d="M280 656.3L329.5 632.3L314.8 623.7Z" fill="#37a562" stroke="#adadad"></path><path d="M262.3 269L223 278L281.3 312.3Z" fill="#3f9555" stroke="#adadad"></path><path d="M168.5 296.3L169.5 315.7L184.5 308.7Z" fill="#3c582e" stroke="#adadad"></path><path d="M184.5 308.7L169.5 315.7L207.8 362.7Z" fill="#37a562" stroke="#adadad"></path><path d="M327.5 259.7L266 262.7L322.5 282.3Z" fill="#28b671" stroke="#adadad"></path><path d="M262.3 269L257.3 263.7L223 278Z" fill="#374a27" stroke="#adadad"></path><path d="M433.8 622.7L434.5 583.3L418 581.7Z" fill="#374a27" stroke="#adadad"></path><path d="M444.8 566.3L491.3 557.7L465.5 539.7Z" fill="#37a562" stroke="#adadad"></path><path d="M376 284.3L327.5 259.7L322.5 282.3Z" fill="#374a27" stroke="#adadad"></path><path d="M472.8 403.3L480.3 378.3L434 391Z" fill="#406736" stroke="#adadad"></path><path d="M441.8 364.3L462.8 330.7L400 333.3Z" fill="#37a562" stroke="#adadad"></path><path d="M535 413L480.3 378.3L472.8 403.3Z" fill="#428549" stroke="#adadad"></path><path d="M266 262.7L257.3 263.7L262.3 269Z" fill="#28b671" stroke="#adadad"></path><path d="M329.5 632.3L350.3 631L338.8 600Z" fill="#212417" stroke="#adadad"></path><path d="M369 646L376.5 622.7L370.3 620.3Z" fill="#3c582e" stroke="#adadad"></path><path d="M370.3 620.3L376.5 622.7L372.3 584.7Z" fill="#374a27" stroke="#adadad"></path><path d="M80.5 423L116 421.3L85 360.7Z" fill="#3f9555" stroke="#adadad"></path><path d="M124.3 418.3L112.5 464L155.8 471.7Z" fill="#374a27" stroke="#adadad"></path><path d="M119.8 568L161.5 572.7L146.8 530Z" fill="#42763f" stroke="#adadad"></path><path d="M146.8 530L161.5 572.7L162.8 536.7Z" fill="#406736" stroke="#adadad"></path><path d="M195.5 574L203.5 644.7L247.3 617.7Z" fill="#313d21" stroke="#adadad"></path><path d="M433.8 622.7L437 583.3L434.5 583.3Z" fill="#3f9555" stroke="#adadad"></path><path d="M434.5 583.3L437 583.3L444.8 566.3Z" fill="#3f9555" stroke="#adadad"></path><path d="M465.5 539.7L493.3 480.7L480.3 484Z" fill="#313d21" stroke="#adadad"></path><path d="M487.3 466.3L506.3 446L472.5 435.7Z" fill="#428549" stroke="#adadad"></path><path d="M116 421.3L112.5 464L124.3 418.3Z" fill="#3f9555" stroke="#adadad"></path><path d="M126 489L117.3 539L146.8 530Z" fill="#406736" stroke="#adadad"></path><path d="M480.3 378.3L462.8 330.7L441.8 364.3Z" fill="#42763f" stroke="#adadad"></path><path d="M266 262.7L255.8 255.7L257.3 263.7Z" fill="#29301c" stroke="#adadad"></path><path d="M257.3 263.7L255.8 255.7L223 278Z" fill="#28b671" stroke="#adadad"></path><path d="M300.5 214L255.8 255.7L266 262.7Z" fill="#28b671" stroke="#adadad"></path><path d="M105.5 494.3L109.5 480.7L86 481.7Z" fill="#428549" stroke="#adadad"></path><path d="M112.5 464L109.5 480.7L126 489Z" fill="#406736" stroke="#adadad"></path><path d="M515.5 451L506.3 446L487.3 466.3Z" fill="#3c582e" stroke="#adadad"></path><path d="M475.5 315L457.8 295L462.8 330.7Z" fill="#406736" stroke="#adadad"></path><path d="M176.8 264.7L168.5 296.3L184.5 308.7Z" fill="#3f9555" stroke="#adadad"></path><path d="M169.5 315.7L134 331.3L137.8 367Z" fill="#37a562" stroke="#adadad"></path><path d="M176.8 264.7L184.5 308.7L223 278Z" fill="#37a562" stroke="#adadad"></path><path d="M86 481.7L109.5 480.7L112.5 464Z" fill="#29301c" stroke="#adadad"></path><path d="M109.5 480.7L105.5 494.3L126 489Z" fill="#37a562" stroke="#adadad"></path><path d="M130.3 610.7L166 598.3L161.5 572.7Z" fill="#3f9555" stroke="#adadad"></path><path d="M161.5 572.7L166 598.3L195.5 574Z" fill="#42763f" stroke="#adadad"></path><path d="M168.5 296.3L134 331.3L169.5 315.7Z" fill="#37a562" stroke="#adadad"></path><path d="M85 360.7L116 421.3L129 411Z" fill="#3c582e" stroke="#adadad"></path><path d="M105.5 494.3L117.3 539L126 489Z" fill="#374a27" stroke="#adadad"></path><path d="M320.3 679.7L369 646L350.3 631Z" fill="#212417" stroke="#adadad"></path><path d="M350.3 631L369 646L359 620.3Z" fill="#406736" stroke="#adadad"></path><path d="M376.5 622.7L433.8 622.7L418 581.7Z" fill="#428549" stroke="#adadad"></path><path d="M320.3 679.7L350.3 631L329.5 632.3Z" fill="#29301c" stroke="#adadad"></path><path d="M237.3 649.3L250.5 650.3L247.3 617.7Z" fill="#29301c" stroke="#adadad"></path><path d="M247.3 617.7L280 656.3L287.8 594.3Z" fill="#313d21" stroke="#adadad"></path><path d="M250.5 650.3L280 656.3L247.3 617.7Z" fill="#29301c" stroke="#adadad"></path><path d="M522.8 469L515.5 451L487.3 466.3Z" fill="#406736" stroke="#adadad"></path><path d="M545 381.3L505 344.7L480.3 378.3Z" fill="#374a27" stroke="#adadad"></path><path d="M522.8 469L487.3 466.3L493.3 480.7Z" fill="#212417" stroke="#adadad"></path><path d="M203.5 644.7L237.3 649.3L247.3 617.7Z" fill="#3c582e" stroke="#adadad"></path><path d="M271.8 712L320.3 679.7L280 656.3Z" fill="#28b671" stroke="#adadad"></path><path d="M475.5 315L462.8 330.7L504.3 340.7Z" fill="#3f9555" stroke="#adadad"></path><path d="M462.8 330.7L457.8 295L400 333.3Z" fill="#28b671" stroke="#adadad"></path><path d="M344.3 216.7L300.5 214L327.5 259.7Z" fill="#374a27" stroke="#adadad"></path><path d="M505 344.7L462.8 330.7L480.3 378.3Z" fill="#3c582e" stroke="#adadad"></path><path d="M480.8 606.3L491.3 557.7L444.8 566.3Z" fill="#28b671" stroke="#adadad"></path><path d="M465.5 539.7L491.3 557.7L493.3 480.7Z" fill="#428549" stroke="#adadad"></path><path d="M480.8 606.3L444.8 566.3L437 583.3Z" fill="#212417" stroke="#adadad"></path><path d="M429.8 642L433.8 622.7L376.5 622.7Z" fill="#29301c" stroke="#adadad"></path><path d="M80.5 423L85.3 458.7L116 421.3Z" fill="#406736" stroke="#adadad"></path><path d="M116 421.3L85.3 458.7L112.5 464Z" fill="#428549" stroke="#adadad"></path><path d="M105.5 494.3L100 530.7L117.3 539Z" fill="#3f9555" stroke="#adadad"></path><path d="M536.8 478.7L522.8 469L493.3 480.7Z" fill="#3c582e" stroke="#adadad"></path><path d="M535 413L472.8 403.3L506.3 446Z" fill="#406736" stroke="#adadad"></path><path d="M105.5 553.7L119.8 568L117.3 539Z" fill="#313d21" stroke="#adadad"></path><path d="M117.3 539L119.8 568L146.8 530Z" fill="#37a562" stroke="#adadad"></path><path d="M166 598.3L203.5 644.7L195.5 574Z" fill="#29301c" stroke="#adadad"></path><path d="M86 481.7L100 530.7L105.5 494.3Z" fill="#374a27" stroke="#adadad"></path><path d="M85.3 458.7L86 481.7L112.5 464Z" fill="#406736" stroke="#adadad"></path><path d="M186.3 650L203.5 644.7L166 598.3Z" fill="#428549" stroke="#adadad"></path><path d="M254 693.7L280 656.3L250.5 650.3Z" fill="#28b671" stroke="#adadad"></path><path d="M201.3 248L176.8 264.7L223 278Z" fill="#28b671" stroke="#adadad"></path><path d="M168.5 296.3L145.8 280L134 331.3Z" fill="#3f9555" stroke="#adadad"></path><path d="M223 236.3L223 278L255.8 255.7Z" fill="#29301c" stroke="#adadad"></path><path d="M223 236.3L205.5 246L223 278Z" fill="#406736" stroke="#adadad"></path><path d="M205.5 246L201.3 248L223 278Z" fill="#212417" stroke="#adadad"></path><path d="M151.5 272L166 270.3L139.3 236.3Z" fill="#3c582e" stroke="#adadad"></path><path d="M176.8 264.7L166 270.3L168.5 296.3Z" fill="#3f9555" stroke="#adadad"></path><path d="M100 335L137.8 367L134 331.3Z" fill="#374a27" stroke="#adadad"></path><path d="M85 360.7L129 411L137.8 367Z" fill="#428549" stroke="#adadad"></path><path d="M85.3 458.7L19.8 466L86 481.7Z" fill="#29301c" stroke="#adadad"></path><path d="M433.8 622.7L455.3 614.3L437 583.3Z" fill="#428549" stroke="#adadad"></path><path d="M535 413L506.3 446L515.5 451Z" fill="#406736" stroke="#adadad"></path><path d="M462.5 239.3L447 270.7L494 255.7Z" fill="#3c582e" stroke="#adadad"></path><path d="M100 530.7L105.5 553.7L117.3 539Z" fill="#374a27" stroke="#adadad"></path><path d="M76.3 572.3L105.5 553.7L100 530.7Z" fill="#313d21" stroke="#adadad"></path><path d="M202.8 209.3L172 227.7L201.3 248Z" fill="#3c582e" stroke="#adadad"></path><path d="M260.8 201.3L223 236.3L255.8 255.7Z" fill="#374a27" stroke="#adadad"></path><path d="M505 344.7L504.3 340.7L462.8 330.7Z" fill="#374a27" stroke="#adadad"></path><path d="M494 255.7L457.8 295L475.5 315Z" fill="#313d21" stroke="#adadad"></path><path d="M457.8 295L447 270.7L400 333.3Z" fill="#406736" stroke="#adadad"></path><path d="M327.5 259.7L300.5 214L266 262.7Z" fill="#28b671" stroke="#adadad"></path><path d="M151.5 272L168.5 296.3L166 270.3Z" fill="#42763f" stroke="#adadad"></path><path d="M151.5 272L145.8 280L168.5 296.3Z" fill="#3f9555" stroke="#adadad"></path><path d="M408 662.7L429.8 642L376.5 622.7Z" fill="#42763f" stroke="#adadad"></path><path d="M433.8 622.7L462.3 648L455.3 614.3Z" fill="#37a562" stroke="#adadad"></path><path d="M408 662.7L376.5 622.7L369 646Z" fill="#428549" stroke="#adadad"></path><path d="M172 227.7L166 270.3L176.8 264.7Z" fill="#428549" stroke="#adadad"></path><path d="M172 227.7L176.8 264.7L201.3 248Z" fill="#374a27" stroke="#adadad"></path><path d="M91.3 332.3L100 335L80.8 292.7Z" fill="#28b671" stroke="#adadad"></path><path d="M80.8 292.7L100 335L134 331.3Z" fill="#42763f" stroke="#adadad"></path><path d="M221.3 675.7L250.5 650.3L237.3 649.3Z" fill="#3f9555" stroke="#adadad"></path><path d="M280 656.3L320.3 679.7L329.5 632.3Z" fill="#3f9555" stroke="#adadad"></path><path d="M344.3 216.7L327.5 259.7L376 284.3Z" fill="#3c582e" stroke="#adadad"></path><path d="M546.8 447.3L535 413L515.5 451Z" fill="#42763f" stroke="#adadad"></path><path d="M538 343L516.5 313.3L504.3 340.7Z" fill="#28b671" stroke="#adadad"></path><path d="M409.3 214.7L344.3 216.7L376 284.3Z" fill="#428549" stroke="#adadad"></path><path d="M130.3 610.7L161.5 572.7L119.3 602Z" fill="#212417" stroke="#adadad"></path><path d="M153 649L186.3 650L166 598.3Z" fill="#428549" stroke="#adadad"></path><path d="M203.5 644.7L205.5 665L237.3 649.3Z" fill="#406736" stroke="#adadad"></path><path d="M556.8 508.3L536.8 478.7L493.3 480.7Z" fill="#29301c" stroke="#adadad"></path><path d="M522.8 469L546.8 447.3L515.5 451Z" fill="#37a562" stroke="#adadad"></path><path d="M47.8 409.7L70.3 426L80.5 423Z" fill="#406736" stroke="#adadad"></path><path d="M80.5 423L70.3 426L85.3 458.7Z" fill="#37a562" stroke="#adadad"></path><path d="M31.8 539.3L76.3 572.3L100 530.7Z" fill="#29301c" stroke="#adadad"></path><path d="M100 335L85 360.7L137.8 367Z" fill="#29301c" stroke="#adadad"></path><path d="M482.5 620L480.8 606.3L455.3 614.3Z" fill="#406736" stroke="#adadad"></path><path d="M455.3 614.3L480.8 606.3L437 583.3Z" fill="#374a27" stroke="#adadad"></path><path d="M556.8 508.3L554 478.7L536.8 478.7Z" fill="#212417" stroke="#adadad"></path><path d="M119.3 602L161.5 572.7L119.8 568Z" fill="#406736" stroke="#adadad"></path><path d="M162.8 680.3L205.5 665L186.3 650Z" fill="#3f9555" stroke="#adadad"></path><path d="M186.3 650L205.5 665L203.5 644.7Z" fill="#3f9555" stroke="#adadad"></path><path d="M379.3 698.3L408 662.7L369 646Z" fill="#212417" stroke="#adadad"></path><path d="M429.8 642L462.3 648L433.8 622.7Z" fill="#29301c" stroke="#adadad"></path><path d="M76.3 572.3L119.3 602L119.8 568Z" fill="#212417" stroke="#adadad"></path><path d="M83.5 336.3L91.3 332.3L73.8 326.3Z" fill="#42763f" stroke="#adadad"></path><path d="M100 335L83.5 336.3L85 360.7Z" fill="#428549" stroke="#adadad"></path><path d="M85 360.7L57.5 384.7L80.5 423Z" fill="#37a562" stroke="#adadad"></path><path d="M536.8 478.7L546.8 447.3L522.8 469Z" fill="#3f9555" stroke="#adadad"></path><path d="M205.5 665L221.3 675.7L237.3 649.3Z" fill="#313d21" stroke="#adadad"></path><path d="M344.3 216.7L335.5 205.3L300.5 214Z" fill="#3c582e" stroke="#adadad"></path><path d="M352.3 192L335.5 205.3L344.3 216.7Z" fill="#313d21" stroke="#adadad"></path><path d="M408 662.7L437 652L429.8 642Z" fill="#29301c" stroke="#adadad"></path><path d="M73.8 326.3L91.3 332.3L80.8 292.7Z" fill="#3f9555" stroke="#adadad"></path><path d="M91.3 332.3L83.5 336.3L100 335Z" fill="#406736" stroke="#adadad"></path><path d="M462.3 648L482.5 620L455.3 614.3Z" fill="#428549" stroke="#adadad"></path><path d="M526.8 600.7L537 570.7L491.3 557.7Z" fill="#313d21" stroke="#adadad"></path><path d="M272.8 175L260.8 201.3L300.5 214Z" fill="#406736" stroke="#adadad"></path><path d="M300.5 214L260.8 201.3L255.8 255.7Z" fill="#28b671" stroke="#adadad"></path><path d="M202.8 209.3L201.3 248L205.5 246Z" fill="#29301c" stroke="#adadad"></path><path d="M569.8 367.3L545 381.3L596.5 378.7Z" fill="#313d21" stroke="#adadad"></path><path d="M535 413L545 381.3L480.3 378.3Z" fill="#406736" stroke="#adadad"></path><path d="M504.3 340.7L516.5 313.3L475.5 315Z" fill="#37a562" stroke="#adadad"></path><path d="M538 343L504.3 340.7L505 344.7Z" fill="#29301c" stroke="#adadad"></path><path d="M221.3 675.7L254 693.7L250.5 650.3Z" fill="#37a562" stroke="#adadad"></path><path d="M320.3 679.7L340.5 697.3L369 646Z" fill="#374a27" stroke="#adadad"></path><path d="M556.8 508.3L493.3 480.7L491.3 557.7Z" fill="#428549" stroke="#adadad"></path><path d="M536.8 478.7L554 478.7L546.8 447.3Z" fill="#29301c" stroke="#adadad"></path><path d="M596.5 378.7L545 381.3L535 413Z" fill="#29301c" stroke="#adadad"></path><path d="M130.3 648L153 649L130.3 610.7Z" fill="#406736" stroke="#adadad"></path><path d="M130.3 610.7L153 649L166 598.3Z" fill="#212417" stroke="#adadad"></path><path d="M205.5 665L177.8 704.7L221.3 675.7Z" fill="#42763f" stroke="#adadad"></path><path d="M251.5 733.3L256.3 695L254 693.7Z" fill="#3f9555" stroke="#adadad"></path><path d="M271.8 712L256.3 695L251.5 733.3Z" fill="#29301c" stroke="#adadad"></path><path d="M254 693.7L256.3 695L280 656.3Z" fill="#29301c" stroke="#adadad"></path><path d="M305.5 726L340.5 697.3L320.3 679.7Z" fill="#374a27" stroke="#adadad"></path><path d="M499.5 663.7L462.3 648L500.5 671Z" fill="#37a562" stroke="#adadad"></path><path d="M59.3 325.7L57.5 384.7L85 360.7Z" fill="#428549" stroke="#adadad"></path><path d="M70.3 426L19.8 466L85.3 458.7Z" fill="#212417" stroke="#adadad"></path><path d="M462.5 239.3L409.3 214.7L447 270.7Z" fill="#406736" stroke="#adadad"></path><path d="M447 270.7L409.3 214.7L376 284.3Z" fill="#29301c" stroke="#adadad"></path><path d="M437 652L462.3 648L429.8 642Z" fill="#313d21" stroke="#adadad"></path><path d="M455.8 733.3L437 652L408 662.7Z" fill="#313d21" stroke="#adadad"></path><path d="M545 381.3L538 343L505 344.7Z" fill="#42763f" stroke="#adadad"></path><path d="M202.8 209.3L205.5 246L223 236.3Z" fill="#212417" stroke="#adadad"></path><path d="M80.8 292.7L134 331.3L145.8 280Z" fill="#37a562" stroke="#adadad"></path><path d="M227.3 198.3L202.8 209.3L223 236.3Z" fill="#28b671" stroke="#adadad"></path><path d="M57.5 384.7L47.8 409.7L80.5 423Z" fill="#37a562" stroke="#adadad"></path><path d="M105.5 553.7L76.3 572.3L119.8 568Z" fill="#28b671" stroke="#adadad"></path><path d="M402.3 204.3L352.3 192L344.3 216.7Z" fill="#212417" stroke="#adadad"></path><path d="M319 151L272.8 175L300.5 214Z" fill="#406736" stroke="#adadad"></path><path d="M537 570.7L556.8 508.3L491.3 557.7Z" fill="#28b671" stroke="#adadad"></path><path d="M554 478.7L566 473.3L546.8 447.3Z" fill="#42763f" stroke="#adadad"></path><path d="M31.8 539.3L100 530.7L86 481.7Z" fill="#428549" stroke="#adadad"></path><path d="M87.3 639.3L130.3 648L130.3 610.7Z" fill="#3f9555" stroke="#adadad"></path><path d="M139.3 236.3L145.8 280L151.5 272Z" fill="#37a562" stroke="#adadad"></path><path d="M83.5 336.3L59.3 325.7L85 360.7Z" fill="#212417" stroke="#adadad"></path><path d="M57.5 384.7L39.8 385L47.8 409.7Z" fill="#406736" stroke="#adadad"></path><path d="M260.8 201.3L227.3 198.3L223 236.3Z" fill="#428549" stroke="#adadad"></path><path d="M258 164L227.3 198.3L260.8 201.3Z" fill="#37a562" stroke="#adadad"></path><path d="M494 255.7L447 270.7L457.8 295Z" fill="#37a562" stroke="#adadad"></path><path d="M413 208L402.3 204.3L409.3 214.7Z" fill="#428549" stroke="#adadad"></path><path d="M409.3 214.7L402.3 204.3L344.3 216.7Z" fill="#29301c" stroke="#adadad"></path><path d="M340.5 697.3L379.3 698.3L369 646Z" fill="#212417" stroke="#adadad"></path><path d="M459.8 225.7L413 208L409.3 214.7Z" fill="#37a562" stroke="#adadad"></path><path d="M573 490.3L566 473.3L554 478.7Z" fill="#374a27" stroke="#adadad"></path><path d="M545 381.3L569.8 367.3L538 343Z" fill="#3c582e" stroke="#adadad"></path><path d="M526.8 600.7L480.8 606.3L482.5 620Z" fill="#37a562" stroke="#adadad"></path><path d="M526.8 600.7L491.3 557.7L480.8 606.3Z" fill="#313d21" stroke="#adadad"></path><path d="M538 343L533.3 314L516.5 313.3Z" fill="#37a562" stroke="#adadad"></path><path d="M516.5 313.3L494 255.7L475.5 315Z" fill="#3c582e" stroke="#adadad"></path><path d="M566.8 329.7L533.3 314L538 343Z" fill="#3f9555" stroke="#adadad"></path><path d="M87.3 639.3L130.3 610.7L119.3 602Z" fill="#37a562" stroke="#adadad"></path><path d="M153 649L162.8 680.3L186.3 650Z" fill="#428549" stroke="#adadad"></path><path d="M251.5 733.3L254 693.7L228 746Z" fill="#28b671" stroke="#adadad"></path><path d="M256.3 695L271.8 712L280 656.3Z" fill="#37a562" stroke="#adadad"></path><path d="M340.5 697.3L360.3 725L379.3 698.3Z" fill="#28b671" stroke="#adadad"></path><path d="M174.5 208.3L139.3 236.3L172 227.7Z" fill="#374a27" stroke="#adadad"></path><path d="M172 227.7L139.3 236.3L166 270.3Z" fill="#374a27" stroke="#adadad"></path><path d="M174.5 208.3L172 227.7L202.8 209.3Z" fill="#428549" stroke="#adadad"></path><path d="M502.3 242.3L462.5 230L462.5 239.3Z" fill="#3f9555" stroke="#adadad"></path><path d="M462.5 239.3L459.8 225.7L409.3 214.7Z" fill="#29301c" stroke="#adadad"></path><path d="M533.3 314L494 255.7L516.5 313.3Z" fill="#406736" stroke="#adadad"></path><path d="M519.3 634L526.8 600.7L482.5 620Z" fill="#374a27" stroke="#adadad"></path><path d="M470.3 216.7L459.8 225.7L462.5 230Z" fill="#29301c" stroke="#adadad"></path><path d="M462.5 230L459.8 225.7L462.5 239.3Z" fill="#428549" stroke="#adadad"></path><path d="M132.3 233.7L80.8 292.7L145.8 280Z" fill="#212417" stroke="#adadad"></path><path d="M59.3 325.7L39.8 385L57.5 384.7Z" fill="#29301c" stroke="#adadad"></path><path d="M59.3 325.7L83.5 336.3L73.8 326.3Z" fill="#3f9555" stroke="#adadad"></path><path d="M47.8 409.7L21.5 428.3L70.3 426Z" fill="#42763f" stroke="#adadad"></path><path d="M177.8 181L174.5 208.3L202.8 209.3Z" fill="#37a562" stroke="#adadad"></path><path d="M556.8 508.3L573 490.3L554 478.7Z" fill="#3f9555" stroke="#adadad"></path><path d="M596.8 445L535 413L546.8 447.3Z" fill="#406736" stroke="#adadad"></path><path d="M590 534L573 490.3L556.8 508.3Z" fill="#37a562" stroke="#adadad"></path><path d="M590 534L556.8 508.3L537 570.7Z" fill="#3f9555" stroke="#adadad"></path><path d="M148 692.7L162.8 680.3L153 649Z" fill="#3f9555" stroke="#adadad"></path><path d="M459.8 225.7L417.8 199L413 208Z" fill="#406736" stroke="#adadad"></path><path d="M413 208L417.8 199L402.3 204.3Z" fill="#406736" stroke="#adadad"></path><path d="M402.3 204.3L385.5 183.3L352.3 192Z" fill="#29301c" stroke="#adadad"></path><path d="M60.3 313L59.3 325.7L73.8 326.3Z" fill="#313d21" stroke="#adadad"></path><path d="M338.8 170.7L335.5 205.3L352.3 192Z" fill="#28b671" stroke="#adadad"></path><path d="M338.8 170.7L300.5 214L335.5 205.3Z" fill="#313d21" stroke="#adadad"></path><path d="M227.3 198.3L217.8 182.7L202.8 209.3Z" fill="#28b671" stroke="#adadad"></path><path d="M174.5 208.3L132.3 233.7L139.3 236.3Z" fill="#3f9555" stroke="#adadad"></path><path d="M139.3 236.3L132.3 233.7L145.8 280Z" fill="#28b671" stroke="#adadad"></path><path d="M305.5 726L299 721.7L291.5 749.7Z" fill="#37a562" stroke="#adadad"></path><path d="M271.8 712L299 721.7L320.3 679.7Z" fill="#374a27" stroke="#adadad"></path><path d="M412.8 183.3L385.5 183.3L402.3 204.3Z" fill="#212417" stroke="#adadad"></path><path d="M596.8 445L546.8 447.3L566 473.3Z" fill="#406736" stroke="#adadad"></path><path d="M502.3 242.3L462.5 239.3L494 255.7Z" fill="#28b671" stroke="#adadad"></path><path d="M258 164L217.8 182.7L227.3 198.3Z" fill="#3f9555" stroke="#adadad"></path><path d="M70.5 282.7L60.3 313L80.8 292.7Z" fill="#3f9555" stroke="#adadad"></path><path d="M80.8 292.7L60.3 313L73.8 326.3Z" fill="#42763f" stroke="#adadad"></path><path d="M39.8 317L19.8 381.3L39.8 385Z" fill="#3f9555" stroke="#adadad"></path><path d="M385.5 183.3L338.8 170.7L352.3 192Z" fill="#28b671" stroke="#adadad"></path><path d="M291.5 749.7L299 721.7L271.8 712Z" fill="#42763f" stroke="#adadad"></path><path d="M299 721.7L305.5 726L320.3 679.7Z" fill="#3f9555" stroke="#adadad"></path><path d="M19.8 381.3L47.8 409.7L39.8 385Z" fill="#28b671" stroke="#adadad"></path><path d="M19.8 381.3L21.5 428.3L47.8 409.7Z" fill="#374a27" stroke="#adadad"></path><path d="M305.5 726L360.3 725L340.5 697.3Z" fill="#29301c" stroke="#adadad"></path><path d="M500.5 671L462.3 648L455.8 733.3Z" fill="#406736" stroke="#adadad"></path><path d="M499.5 663.7L519.3 634L482.5 620Z" fill="#374a27" stroke="#adadad"></path><path d="M459.8 225.7L467.8 204.7L417.8 199Z" fill="#428549" stroke="#adadad"></path><path d="M417.8 199L412.8 183.3L402.3 204.3Z" fill="#42763f" stroke="#adadad"></path><path d="M502.3 242.3L470.3 216.7L462.5 230Z" fill="#374a27" stroke="#adadad"></path><path d="M502.3 242.3L494 255.7L515.3 238Z" fill="#3c582e" stroke="#adadad"></path><path d="M515.3 238L494 255.7L533.3 314Z" fill="#406736" stroke="#adadad"></path><path d="M499.5 663.7L482.5 620L462.3 648Z" fill="#212417" stroke="#adadad"></path><path d="M587.5 569.7L590 534L537 570.7Z" fill="#3f9555" stroke="#adadad"></path><path d="M21.5 428.3L19.8 466L70.3 426Z" fill="#3f9555" stroke="#adadad"></path><path d="M467.8 204.7L412.8 183.3L417.8 199Z" fill="#374a27" stroke="#adadad"></path><path d="M343.8 147.3L319 151L338.8 170.7Z" fill="#428549" stroke="#adadad"></path><path d="M132.3 233.7L70.5 282.7L80.8 292.7Z" fill="#428549" stroke="#adadad"></path><path d="M275.8 116.7L258 164L272.8 175Z" fill="#212417" stroke="#adadad"></path><path d="M272.8 175L258 164L260.8 201.3Z" fill="#42763f" stroke="#adadad"></path><path d="M148 692.7L177.8 704.7L162.8 680.3Z" fill="#42763f" stroke="#adadad"></path><path d="M162.8 680.3L177.8 704.7L205.5 665Z" fill="#374a27" stroke="#adadad"></path><path d="M19.8 466L31.8 539.3L86 481.7Z" fill="#29301c" stroke="#adadad"></path><path d="M62.5 623L87.3 639.3L119.3 602Z" fill="#374a27" stroke="#adadad"></path><path d="M130.3 648L148 692.7L153 649Z" fill="#212417" stroke="#adadad"></path><path d="M569.8 367.3L566.8 329.7L538 343Z" fill="#42763f" stroke="#adadad"></path><path d="M62.5 623L119.3 602L76.3 572.3Z" fill="#42763f" stroke="#adadad"></path><path d="M110.3 698.3L148 692.7L130.3 648Z" fill="#29301c" stroke="#adadad"></path><path d="M228 746L254 693.7L221.3 675.7Z" fill="#428549" stroke="#adadad"></path><path d="M305.5 726L345.3 754L360.3 725Z" fill="#3f9555" stroke="#adadad"></path><path d="M462.3 648L437 652L455.8 733.3Z" fill="#313d21" stroke="#adadad"></path><path d="M39.8 317L59.3 325.7L60.3 313Z" fill="#29301c" stroke="#adadad"></path><path d="M39.8 317L39.8 385L59.3 325.7Z" fill="#42763f" stroke="#adadad"></path><path d="M21.5 428.3L0 467.3L19.8 466Z" fill="#212417" stroke="#adadad"></path><path d="M476.8 190.3L467.8 204.7L470.3 216.7Z" fill="#428549" stroke="#adadad"></path><path d="M470.3 216.7L467.8 204.7L459.8 225.7Z" fill="#3f9555" stroke="#adadad"></path><path d="M614.5 471.7L566 473.3L573 490.3Z" fill="#212417" stroke="#adadad"></path><path d="M614.5 471.7L596.8 445L566 473.3Z" fill="#29301c" stroke="#adadad"></path><path d="M569.8 367.3L598.8 320L566.8 329.7Z" fill="#3c582e" stroke="#adadad"></path><path d="M186.5 171.3L202.8 209.3L217.8 182.7Z" fill="#28b671" stroke="#adadad"></path><path d="M186.5 171.3L177.8 181L202.8 209.3Z" fill="#428549" stroke="#adadad"></path><path d="M174.5 208.3L128.8 161.3L132.3 233.7Z" fill="#3c582e" stroke="#adadad"></path><path d="M132.3 233.7L86.5 213L70.5 282.7Z" fill="#313d21" stroke="#adadad"></path><path d="M70.5 282.7L39.8 317L60.3 313Z" fill="#212417" stroke="#adadad"></path><path d="M343.8 147.3L338.8 170.7L385.5 183.3Z" fill="#406736" stroke="#adadad"></path><path d="M338.8 170.7L319 151L300.5 214Z" fill="#212417" stroke="#adadad"></path><path d="M193.3 161.7L186.5 171.3L217.8 182.7Z" fill="#3c582e" stroke="#adadad"></path><path d="M538.8 234.7L515.3 238L570 274.3Z" fill="#3c582e" stroke="#adadad"></path><path d="M502.3 242.3L513.5 232.7L470.3 216.7Z" fill="#3c582e" stroke="#adadad"></path><path d="M529.3 668.7L537 637L519.3 634Z" fill="#3c582e" stroke="#adadad"></path><path d="M404 743.3L408 662.7L379.3 698.3Z" fill="#3c582e" stroke="#adadad"></path><path d="M537 637L526.8 600.7L519.3 634Z" fill="#313d21" stroke="#adadad"></path><path d="M587.5 569.7L537 570.7L569.8 606Z" fill="#374a27" stroke="#adadad"></path><path d="M42.8 605.7L62.5 623L76.3 572.3Z" fill="#37a562" stroke="#adadad"></path><path d="M77.5 680.7L110.3 698.3L130.3 648Z" fill="#42763f" stroke="#adadad"></path><path d="M538.8 234.7L513.5 232.7L515.3 238Z" fill="#406736" stroke="#adadad"></path><path d="M515.3 238L513.5 232.7L502.3 242.3Z" fill="#29301c" stroke="#adadad"></path><path d="M193.3 161.7L217.8 182.7L230.5 120.7Z" fill="#42763f" stroke="#adadad"></path><path d="M128.8 161.3L86.5 213L132.3 233.7Z" fill="#374a27" stroke="#adadad"></path><path d="M606.3 432.7L596.5 378.7L535 413Z" fill="#374a27" stroke="#adadad"></path><path d="M570 274.3L515.3 238L533.3 314Z" fill="#29301c" stroke="#adadad"></path><path d="M529.3 668.7L519.3 634L499.5 663.7Z" fill="#42763f" stroke="#adadad"></path><path d="M374.3 131.3L343.8 147.3L385.5 183.3Z" fill="#3c582e" stroke="#adadad"></path><path d="M407 142.3L385.5 183.3L412.8 183.3Z" fill="#28b671" stroke="#adadad"></path><path d="M614.5 471.7L606.3 432.7L596.8 445Z" fill="#428549" stroke="#adadad"></path><path d="M596.8 445L606.3 432.7L535 413Z" fill="#428549" stroke="#adadad"></path><path d="M261.8 754.3L291.5 749.7L251.5 733.3Z" fill="#28b671" stroke="#adadad"></path><path d="M251.5 733.3L291.5 749.7L271.8 712Z" fill="#212417" stroke="#adadad"></path><path d="M0 365L0 467.3L21.5 428.3Z" fill="#29301c" stroke="#adadad"></path><path d="M19.8 466L0 500.3L31.8 539.3Z" fill="#28b671" stroke="#adadad"></path><path d="M31.8 539.3L42.8 605.7L76.3 572.3Z" fill="#28b671" stroke="#adadad"></path><path d="M0 560.7L42.8 605.7L31.8 539.3Z" fill="#3c582e" stroke="#adadad"></path><path d="M230.5 120.7L217.8 182.7L258 164Z" fill="#374a27" stroke="#adadad"></path><path d="M142.8 131L128.8 161.3L177.8 181Z" fill="#3f9555" stroke="#adadad"></path><path d="M307.5 125.7L272.8 175L319 151Z" fill="#374a27" stroke="#adadad"></path><path d="M221.3 747.7L221.3 675.7L177.8 704.7Z" fill="#428549" stroke="#adadad"></path><path d="M221.3 747.7L228 746L221.3 675.7Z" fill="#313d21" stroke="#adadad"></path><path d="M569.8 606L537 570.7L526.8 600.7Z" fill="#406736" stroke="#adadad"></path><path d="M618.3 514.7L614.5 471.7L573 490.3Z" fill="#428549" stroke="#adadad"></path><path d="M0 467.3L0 500.3L19.8 466Z" fill="#212417" stroke="#adadad"></path><path d="M513.5 232.7L476.8 190.3L470.3 216.7Z" fill="#29301c" stroke="#adadad"></path><path d="M467.8 204.7L476.8 190.3L412.8 183.3Z" fill="#28b671" stroke="#adadad"></path><path d="M559.8 631.3L569.8 606L526.8 600.7Z" fill="#3f9555" stroke="#adadad"></path><path d="M305.8 770.7L305.5 726L291.5 749.7Z" fill="#28b671" stroke="#adadad"></path><path d="M305.8 770.7L345.3 754L305.5 726Z" fill="#313d21" stroke="#adadad"></path><path d="M360.3 725L387.3 746.7L379.3 698.3Z" fill="#374a27" stroke="#adadad"></path><path d="M228 746L261.8 754.3L251.5 733.3Z" fill="#313d21" stroke="#adadad"></path><path d="M345.3 754L387.3 746.7L360.3 725Z" fill="#428549" stroke="#adadad"></path><path d="M618.3 514.7L573 490.3L590 534Z" fill="#37a562" stroke="#adadad"></path><path d="M606.3 432.7L613.5 397L596.5 378.7Z" fill="#29301c" stroke="#adadad"></path><path d="M0 500.3L0 514.7L31.8 539.3Z" fill="#42763f" stroke="#adadad"></path><path d="M154 726L221.3 747.7L177.8 704.7Z" fill="#428549" stroke="#adadad"></path><path d="M228 746L227.5 765.7L261.8 754.3Z" fill="#3f9555" stroke="#adadad"></path><path d="M387.3 746.7L404 743.3L379.3 698.3Z" fill="#42763f" stroke="#adadad"></path><path d="M640.5 452.3L613.5 397L606.3 432.7Z" fill="#212417" stroke="#adadad"></path><path d="M598.8 320L570 274.3L566.8 329.7Z" fill="#374a27" stroke="#adadad"></path><path d="M0 514.7L0 525L31.8 539.3Z" fill="#28b671" stroke="#adadad"></path><path d="M0 467.3L-6.2 497.7L0 500.3Z" fill="#374a27" stroke="#adadad"></path><path d="M0 500.3L-6.2 497.7L0 514.7Z" fill="#37a562" stroke="#adadad"></path><path d="M0 514.7L-6.2 497.7L0 525Z" fill="#42763f" stroke="#adadad"></path><path d="M37.5 628.3L70.8 658.3L62.5 623Z" fill="#29301c" stroke="#adadad"></path><path d="M62.5 623L70.8 658.3L87.3 639.3Z" fill="#37a562" stroke="#adadad"></path><path d="M148 692.7L154 726L177.8 704.7Z" fill="#42763f" stroke="#adadad"></path><path d="M539 678.7L559.8 631.3L537 637Z" fill="#374a27" stroke="#adadad"></path><path d="M537 637L559.8 631.3L526.8 600.7Z" fill="#3f9555" stroke="#adadad"></path><path d="M569.8 606L617.3 614L587.5 569.7Z" fill="#28b671" stroke="#adadad"></path><path d="M529.3 668.7L499.5 663.7L500.5 671Z" fill="#42763f" stroke="#adadad"></path><path d="M0 350.7L0 365L19.8 381.3Z" fill="#42763f" stroke="#adadad"></path><path d="M19.8 381.3L0 365L21.5 428.3Z" fill="#374a27" stroke="#adadad"></path><path d="M0 467.3L0 365L-6.2 497.7Z" fill="#42763f" stroke="#adadad"></path><path d="M539 678.7L529.3 668.7L500.5 671Z" fill="#313d21" stroke="#adadad"></path><path d="M570 274.3L533.3 314L566.8 329.7Z" fill="#428549" stroke="#adadad"></path><path d="M513.5 232.7L510.3 182.7L476.8 190.3Z" fill="#29301c" stroke="#adadad"></path><path d="M150 725.3L154 726L148 692.7Z" fill="#212417" stroke="#adadad"></path><path d="M598.8 320L569.8 367.3L596.5 378.7Z" fill="#37a562" stroke="#adadad"></path><path d="M77.5 680.7L130.3 648L87.3 639.3Z" fill="#42763f" stroke="#adadad"></path><path d="M130.3 716.7L150 725.3L148 692.7Z" fill="#212417" stroke="#adadad"></path><path d="M221.3 777.3L227.5 765.7L204.8 775.3Z" fill="#3f9555" stroke="#adadad"></path><path d="M39.8 317L0 350.7L19.8 381.3Z" fill="#29301c" stroke="#adadad"></path><path d="M0 365L-17.2 178.7L-6.2 497.7Z" fill="#28b671" stroke="#adadad"></path><path d="M0 309L0 350.7L39.8 317Z" fill="#3f9555" stroke="#adadad"></path><path d="M16.5 267L39.8 317L70.5 282.7Z" fill="#3c582e" stroke="#adadad"></path><path d="M128.8 161.3L174.5 208.3L177.8 181Z" fill="#313d21" stroke="#adadad"></path><path d="M110.3 698.3L130.3 716.7L148 692.7Z" fill="#313d21" stroke="#adadad"></path><path d="M619.3 382.7L598.8 320L596.5 378.7Z" fill="#3f9555" stroke="#adadad"></path><path d="M639.5 516L618.3 514.7L650.3 554.3Z" fill="#3c582e" stroke="#adadad"></path><path d="M650.3 554.3L618.3 514.7L590 534Z" fill="#428549" stroke="#adadad"></path><path d="M675 375.7L619.3 382.7L681.3 415Z" fill="#212417" stroke="#adadad"></path><path d="M355 111L307.5 125.7L343.8 147.3Z" fill="#37a562" stroke="#adadad"></path><path d="M343.8 147.3L307.5 125.7L319 151Z" fill="#37a562" stroke="#adadad"></path><path d="M640.5 452.3L606.3 432.7L614.5 471.7Z" fill="#406736" stroke="#adadad"></path><path d="M613.5 397L619.3 382.7L596.5 378.7Z" fill="#428549" stroke="#adadad"></path><path d="M438.8 141L407 142.3L412.8 183.3Z" fill="#313d21" stroke="#adadad"></path><path d="M42.8 605.7L37.5 628.3L62.5 623Z" fill="#428549" stroke="#adadad"></path><path d="M70.8 658.3L77.5 680.7L87.3 639.3Z" fill="#3c582e" stroke="#adadad"></path><path d="M6.8 602L37.5 628.3L42.8 605.7Z" fill="#313d21" stroke="#adadad"></path><path d="M407 142.3L374.3 131.3L385.5 183.3Z" fill="#3c582e" stroke="#adadad"></path><path d="M272 779.3L305.8 770.7L291.5 749.7Z" fill="#37a562" stroke="#adadad"></path><path d="M390.8 771L406.8 755.7L387.3 746.7Z" fill="#37a562" stroke="#adadad"></path><path d="M387.3 746.7L406.8 755.7L404 743.3Z" fill="#28b671" stroke="#adadad"></path><path d="M272 779.3L291.5 749.7L261.8 754.3Z" fill="#406736" stroke="#adadad"></path><path d="M406.8 755.7L455.8 733.3L404 743.3Z" fill="#28b671" stroke="#adadad"></path><path d="M404 743.3L455.8 733.3L408 662.7Z" fill="#37a562" stroke="#adadad"></path><path d="M-6.2 497.7L0 560.7L0 525Z" fill="#29301c" stroke="#adadad"></path><path d="M0 525L0 560.7L31.8 539.3Z" fill="#42763f" stroke="#adadad"></path><path d="M390.8 771L387.3 746.7L345.3 754Z" fill="#313d21" stroke="#adadad"></path><path d="M72.5 704.3L77.5 680.7L64.8 711Z" fill="#42763f" stroke="#adadad"></path><path d="M110 727.7L131.8 726L130.3 716.7Z" fill="#37a562" stroke="#adadad"></path><path d="M648.3 349.3L602.5 315L598.8 320Z" fill="#28b671" stroke="#adadad"></path><path d="M598.8 320L602.5 315L570 274.3Z" fill="#428549" stroke="#adadad"></path><path d="M511 174L510.3 182.7L519.5 166.7Z" fill="#3f9555" stroke="#adadad"></path><path d="M86.5 213L40.5 254.3L70.5 282.7Z" fill="#428549" stroke="#adadad"></path><path d="M227.5 765.7L221.3 747.7L204.8 775.3Z" fill="#3c582e" stroke="#adadad"></path><path d="M221.3 747.7L227.5 765.7L228 746Z" fill="#37a562" stroke="#adadad"></path><path d="M149.8 752.7L154 726L150 725.3Z" fill="#374a27" stroke="#adadad"></path><path d="M110 727.7L130.3 716.7L110.3 698.3Z" fill="#29301c" stroke="#adadad"></path><path d="M130.3 716.7L131.8 726L150 725.3Z" fill="#406736" stroke="#adadad"></path><path d="M529.3 668.7L539 678.7L537 637Z" fill="#29301c" stroke="#adadad"></path><path d="M559.8 631.3L587 634.3L569.8 606Z" fill="#28b671" stroke="#adadad"></path><path d="M538.8 716L539 678.7L500.5 671Z" fill="#374a27" stroke="#adadad"></path><path d="M285 115.7L272.8 175L307.5 125.7Z" fill="#28b671" stroke="#adadad"></path><path d="M285 115.7L275.8 116.7L272.8 175Z" fill="#3c582e" stroke="#adadad"></path><path d="M142.8 131L177.8 181L186.5 171.3Z" fill="#374a27" stroke="#adadad"></path><path d="M291.5 106L285 115.7L307.5 125.7Z" fill="#212417" stroke="#adadad"></path><path d="M267.3 788L272 779.3L261.8 754.3Z" fill="#3c582e" stroke="#adadad"></path><path d="M350.5 846L390.8 771L345.3 754Z" fill="#3c582e" stroke="#adadad"></path><path d="M0 291.3L0 309L39.8 317Z" fill="#29301c" stroke="#adadad"></path><path d="M0 350.7L-17.2 178.7L0 365Z" fill="#3f9555" stroke="#adadad"></path><path d="M477.3 148.3L438.8 141L476.8 190.3Z" fill="#28b671" stroke="#adadad"></path><path d="M476.8 190.3L438.8 141L412.8 183.3Z" fill="#374a27" stroke="#adadad"></path><path d="M407 142.3L421 129.7L374.3 131.3Z" fill="#3f9555" stroke="#adadad"></path><path d="M374.3 131.3L355 111L343.8 147.3Z" fill="#42763f" stroke="#adadad"></path><path d="M250.3 103L230.5 120.7L275.8 116.7Z" fill="#37a562" stroke="#adadad"></path><path d="M275.8 116.7L230.5 120.7L258 164Z" fill="#3c582e" stroke="#adadad"></path><path d="M438.8 141L425.5 135L407 142.3Z" fill="#29301c" stroke="#adadad"></path><path d="M298.5 787.3L345.3 754L305.8 770.7Z" fill="#37a562" stroke="#adadad"></path><path d="M493.5 748.3L483.8 734L455.8 733.3Z" fill="#212417" stroke="#adadad"></path><path d="M538.8 234.7L510.3 182.7L513.5 232.7Z" fill="#374a27" stroke="#adadad"></path><path d="M510.3 182.7L554 162.7L519.5 166.7Z" fill="#406736" stroke="#adadad"></path><path d="M142.8 131L186.5 171.3L193.3 161.7Z" fill="#42763f" stroke="#adadad"></path><path d="M0 264.7L16.5 267L0 206Z" fill="#313d21" stroke="#adadad"></path><path d="M0 560.7L6.8 602L42.8 605.7Z" fill="#3c582e" stroke="#adadad"></path><path d="M64.8 711L77.5 680.7L18.5 693Z" fill="#374a27" stroke="#adadad"></path><path d="M642.3 476.3L640.5 452.3L614.5 471.7Z" fill="#29301c" stroke="#adadad"></path><path d="M641.5 302.3L622.3 286L602.5 315Z" fill="#406736" stroke="#adadad"></path><path d="M438.8 141L421 129.7L425.5 135Z" fill="#42763f" stroke="#adadad"></path><path d="M425.5 135L421 129.7L407 142.3Z" fill="#374a27" stroke="#adadad"></path><path d="M423.5 100.3L421 129.7L438.8 141Z" fill="#313d21" stroke="#adadad"></path><path d="M421 791.3L455.8 733.3L406.8 755.7Z" fill="#3c582e" stroke="#adadad"></path><path d="M455.8 733.3L483.8 734L500.5 671Z" fill="#428549" stroke="#adadad"></path><path d="M617.3 614L587 634.3L609.5 645.3Z" fill="#313d21" stroke="#adadad"></path><path d="M539 678.7L587 634.3L559.8 631.3Z" fill="#28b671" stroke="#adadad"></path><path d="M618.3 514.7L642.3 476.3L614.5 471.7Z" fill="#29301c" stroke="#adadad"></path><path d="M639.5 516L642.3 476.3L618.3 514.7Z" fill="#212417" stroke="#adadad"></path><path d="M50.5 203.7L40.5 254.3L86.5 213Z" fill="#28b671" stroke="#adadad"></path><path d="M40.5 254.3L16.5 267L70.5 282.7Z" fill="#406736" stroke="#adadad"></path><path d="M354.3 92L355 111L374.3 131.3Z" fill="#28b671" stroke="#adadad"></path><path d="M272 779.3L298.5 787.3L305.8 770.7Z" fill="#28b671" stroke="#adadad"></path><path d="M187.8 779L221.3 747.7L154 726Z" fill="#29301c" stroke="#adadad"></path><path d="M227.5 765.7L267.3 788L261.8 754.3Z" fill="#406736" stroke="#adadad"></path><path d="M272 779.3L267.3 788L298.5 787.3Z" fill="#313d21" stroke="#adadad"></path><path d="M72.5 704.3L110 727.7L110.3 698.3Z" fill="#428549" stroke="#adadad"></path><path d="M131.8 726L149.8 752.7L150 725.3Z" fill="#37a562" stroke="#adadad"></path><path d="M72.5 704.3L110.3 698.3L77.5 680.7Z" fill="#374a27" stroke="#adadad"></path><path d="M317 91.7L291.5 106L307.5 125.7Z" fill="#428549" stroke="#adadad"></path><path d="M285 115.7L291.5 106L275.8 116.7Z" fill="#29301c" stroke="#adadad"></path><path d="M16.5 267L0 291.3L39.8 317Z" fill="#37a562" stroke="#adadad"></path><path d="M0 309L-17.2 178.7L0 350.7Z" fill="#313d21" stroke="#adadad"></path><path d="M650.3 554.3L590 534L648.5 562.3Z" fill="#3f9555" stroke="#adadad"></path><path d="M140.3 756.7L149.8 752.7L131.8 726Z" fill="#3c582e" stroke="#adadad"></path><path d="M510.3 182.7L538.8 234.7L554 162.7Z" fill="#3c582e" stroke="#adadad"></path><path d="M510.3 182.7L511 174L476.8 190.3Z" fill="#313d21" stroke="#adadad"></path><path d="M221.3 777.3L267.3 788L227.5 765.7Z" fill="#428549" stroke="#adadad"></path><path d="M187.8 779L204.8 775.3L221.3 747.7Z" fill="#313d21" stroke="#adadad"></path><path d="M221.3 777.3L213.5 811.3L267.3 788Z" fill="#37a562" stroke="#adadad"></path><path d="M128.8 161.3L83.8 184.3L86.5 213Z" fill="#374a27" stroke="#adadad"></path><path d="M511 174L477.3 148.3L476.8 190.3Z" fill="#29301c" stroke="#adadad"></path><path d="M77.5 680.7L70.8 658.3L15.8 675.7Z" fill="#212417" stroke="#adadad"></path><path d="M110 727.7L140.3 756.7L131.8 726Z" fill="#428549" stroke="#adadad"></path><path d="M285.3 88.3L250.3 103L275.8 116.7Z" fill="#313d21" stroke="#adadad"></path><path d="M230.5 120.7L142.8 131L193.3 161.7Z" fill="#313d21" stroke="#adadad"></path><path d="M398.3 843.3L407 780L390.8 771Z" fill="#42763f" stroke="#adadad"></path><path d="M390.8 771L407 780L406.8 755.7Z" fill="#3f9555" stroke="#adadad"></path><path d="M114.3 810L140.3 756.7L110 727.7Z" fill="#428549" stroke="#adadad"></path><path d="M149.8 752.7L187.8 779L154 726Z" fill="#212417" stroke="#adadad"></path><path d="M94 157.7L99 163L98.3 148.7Z" fill="#29301c" stroke="#adadad"></path><path d="M128.8 161.3L99 163L83.8 184.3Z" fill="#3f9555" stroke="#adadad"></path><path d="M83.8 184.3L50.5 203.7L86.5 213Z" fill="#28b671" stroke="#adadad"></path><path d="M34.8 184.3L50.5 203.7L83.8 184.3Z" fill="#313d21" stroke="#adadad"></path><path d="M16.5 267L0 264.7L0 291.3Z" fill="#3c582e" stroke="#adadad"></path><path d="M178.5 796L187.8 779L149.8 752.7Z" fill="#428549" stroke="#adadad"></path><path d="M204.8 775.3L213.5 811.3L221.3 777.3Z" fill="#212417" stroke="#adadad"></path><path d="M590.3 229.3L538.8 234.7L570 274.3Z" fill="#3c582e" stroke="#adadad"></path><path d="M511 174L519.5 166.7L477.3 148.3Z" fill="#428549" stroke="#adadad"></path><path d="M31.8 209L16.5 267L40.5 254.3Z" fill="#406736" stroke="#adadad"></path><path d="M0 291.3L-17.2 178.7L0 309Z" fill="#406736" stroke="#adadad"></path><path d="M609.5 645.3L587 634.3L571 698.3Z" fill="#29301c" stroke="#adadad"></path><path d="M587 634.3L617.3 614L569.8 606Z" fill="#428549" stroke="#adadad"></path><path d="M147 79L142.8 131L230.5 120.7Z" fill="#42763f" stroke="#adadad"></path><path d="M355 111L317 91.7L307.5 125.7Z" fill="#374a27" stroke="#adadad"></path><path d="M291.5 106L285.3 88.3L275.8 116.7Z" fill="#42763f" stroke="#adadad"></path><path d="M354.3 92L317 91.7L355 111Z" fill="#42763f" stroke="#adadad"></path><path d="M354.3 92L374.3 131.3L409 71.3Z" fill="#29301c" stroke="#adadad"></path><path d="M440 808.7L493.5 748.3L455.8 733.3Z" fill="#3f9555" stroke="#adadad"></path><path d="M483.8 734L528.3 724.7L500.5 671Z" fill="#374a27" stroke="#adadad"></path><path d="M249 88.3L234.5 98L250.3 103Z" fill="#374a27" stroke="#adadad"></path><path d="M250.3 103L234.5 98L230.5 120.7Z" fill="#428549" stroke="#adadad"></path><path d="M15.8 675.7L70.8 658.3L37.5 628.3Z" fill="#406736" stroke="#adadad"></path><path d="M72.5 704.3L64.8 711L110 727.7Z" fill="#374a27" stroke="#adadad"></path><path d="M0 560.7L0 633L6.8 602Z" fill="#29301c" stroke="#adadad"></path><path d="M6.8 602L0 633L37.5 628.3Z" fill="#28b671" stroke="#adadad"></path><path d="M-6.2 497.7L0 633L0 560.7Z" fill="#406736" stroke="#adadad"></path><path d="M648.3 349.3L598.8 320L619.3 382.7Z" fill="#29301c" stroke="#adadad"></path><path d="M602.5 315L622.3 286L570 274.3Z" fill="#3f9555" stroke="#adadad"></path><path d="M493.5 748.3L528.3 724.7L483.8 734Z" fill="#212417" stroke="#adadad"></path><path d="M528.3 724.7L538.8 716L500.5 671Z" fill="#406736" stroke="#adadad"></path><path d="M681.3 415L613.5 397L640.5 452.3Z" fill="#406736" stroke="#adadad"></path><path d="M675 375.7L648.3 349.3L619.3 382.7Z" fill="#374a27" stroke="#adadad"></path><path d="M99 163L84.3 157L83.8 184.3Z" fill="#374a27" stroke="#adadad"></path><path d="M98.3 148.7L99 163L128.8 161.3Z" fill="#428549" stroke="#adadad"></path><path d="M469.3 121L438.8 141L477.3 148.3Z" fill="#406736" stroke="#adadad"></path><path d="M423.5 100.3L374.3 131.3L421 129.7Z" fill="#42763f" stroke="#adadad"></path><path d="M317 91.7L285.3 88.3L291.5 106Z" fill="#3f9555" stroke="#adadad"></path><path d="M251.8 74L258.8 48.3L246.3 63.7Z" fill="#406736" stroke="#adadad"></path><path d="M601.5 244.3L590.3 229.3L570 274.3Z" fill="#29301c" stroke="#adadad"></path><path d="M622.3 286L601.5 244.3L570 274.3Z" fill="#406736" stroke="#adadad"></path><path d="M50.5 203.7L31.8 209L40.5 254.3Z" fill="#313d21" stroke="#adadad"></path><path d="M34.8 184.3L31.8 209L50.5 203.7Z" fill="#428549" stroke="#adadad"></path><path d="M648.5 562.3L590 534L587.5 569.7Z" fill="#313d21" stroke="#adadad"></path><path d="M675 450L640.5 452.3L675 472.7Z" fill="#374a27" stroke="#adadad"></path><path d="M675 450L675 445.3L640.5 452.3Z" fill="#428549" stroke="#adadad"></path><path d="M142.8 131L98.3 148.7L128.8 161.3Z" fill="#42763f" stroke="#adadad"></path><path d="M94 157.7L84.3 157L99 163Z" fill="#374a27" stroke="#adadad"></path><path d="M285.3 88.3L249 88.3L250.3 103Z" fill="#212417" stroke="#adadad"></path><path d="M234.5 98L218.8 67.7L230.5 120.7Z" fill="#3f9555" stroke="#adadad"></path><path d="M142.8 131L95 141.3L98.3 148.7Z" fill="#313d21" stroke="#adadad"></path><path d="M643.5 581L648.5 562.3L587.5 569.7Z" fill="#406736" stroke="#adadad"></path><path d="M398.3 843.3L421 791.3L407 780Z" fill="#3c582e" stroke="#adadad"></path><path d="M407 780L421 791.3L406.8 755.7Z" fill="#29301c" stroke="#adadad"></path><path d="M440 808.7L423.5 841L442.5 825.3Z" fill="#374a27" stroke="#adadad"></path><path d="M571 698.3L587 634.3L539 678.7Z" fill="#406736" stroke="#adadad"></path><path d="M617.3 614L643.5 581L587.5 569.7Z" fill="#406736" stroke="#adadad"></path><path d="M88.5 143.3L84.3 157L94 157.7Z" fill="#29301c" stroke="#adadad"></path><path d="M675 612.7L643.5 581L617.3 614Z" fill="#42763f" stroke="#adadad"></path><path d="M482.8 112.7L477.3 148.3L508 117.3Z" fill="#28b671" stroke="#adadad"></path><path d="M482.8 112.7L469.3 121L477.3 148.3Z" fill="#3f9555" stroke="#adadad"></path><path d="M571.8 712.7L571 698.3L538.8 716Z" fill="#29301c" stroke="#adadad"></path><path d="M538.8 716L571 698.3L539 678.7Z" fill="#428549" stroke="#adadad"></path><path d="M571.8 712.7L538.8 716L572 749Z" fill="#374a27" stroke="#adadad"></path><path d="M469.3 121L423.5 100.3L438.8 141Z" fill="#406736" stroke="#adadad"></path><path d="M648.3 349.3L641.5 302.3L602.5 315Z" fill="#406736" stroke="#adadad"></path><path d="M622.3 286L624.5 234.7L601.5 244.3Z" fill="#428549" stroke="#adadad"></path><path d="M-6.2 497.7L0 653.3L0 633Z" fill="#29301c" stroke="#adadad"></path><path d="M0 633L0 653.3L37.5 628.3Z" fill="#37a562" stroke="#adadad"></path><path d="M0 653.3L15.8 675.7L37.5 628.3Z" fill="#406736" stroke="#adadad"></path><path d="M87.3 118L95 141.3L142.8 131Z" fill="#28b671" stroke="#adadad"></path><path d="M98.3 148.7L88.5 143.3L94 157.7Z" fill="#212417" stroke="#adadad"></path><path d="M84.3 157L34.8 184.3L83.8 184.3Z" fill="#374a27" stroke="#adadad"></path><path d="M642.3 476.3L675 491.3L675 472.7Z" fill="#29301c" stroke="#adadad"></path><path d="M640.5 452.3L642.3 476.3L675 472.7Z" fill="#313d21" stroke="#adadad"></path><path d="M648.3 349.3L675 315L641.5 302.3Z" fill="#42763f" stroke="#adadad"></path><path d="M642.3 476.3L639.5 516L675 491.3Z" fill="#29301c" stroke="#adadad"></path><path d="M177 804.3L178.5 796L114.3 810Z" fill="#212417" stroke="#adadad"></path><path d="M140.3 756.7L178.5 796L149.8 752.7Z" fill="#29301c" stroke="#adadad"></path><path d="M187.8 779L213.5 811.3L204.8 775.3Z" fill="#29301c" stroke="#adadad"></path><path d="M267.3 788L275.8 848.7L298.5 787.3Z" fill="#29301c" stroke="#adadad"></path><path d="M177 804.3L114.3 810L173 818Z" fill="#428549" stroke="#adadad"></path><path d="M675 491.3L639.5 516L675 513Z" fill="#3c582e" stroke="#adadad"></path><path d="M639.5 516L671.3 549L675 513Z" fill="#28b671" stroke="#adadad"></path><path d="M87.3 118L88.5 143.3L95 141.3Z" fill="#42763f" stroke="#adadad"></path><path d="M95 141.3L88.5 143.3L98.3 148.7Z" fill="#37a562" stroke="#adadad"></path><path d="M639.5 516L650.3 554.3L671.3 549Z" fill="#29301c" stroke="#adadad"></path><path d="M178.5 796L213.5 811.3L187.8 779Z" fill="#29301c" stroke="#adadad"></path><path d="M40.5 144L34.8 184.3L84.3 157Z" fill="#212417" stroke="#adadad"></path><path d="M31.8 209L0 206L16.5 267Z" fill="#374a27" stroke="#adadad"></path><path d="M671.3 549L650.3 554.3L648.5 562.3Z" fill="#212417" stroke="#adadad"></path><path d="M635.3 216.7L588.8 200.3L590.3 229.3Z" fill="#37a562" stroke="#adadad"></path><path d="M590.3 229.3L588.8 200.3L538.8 234.7Z" fill="#212417" stroke="#adadad"></path><path d="M624.5 234.7L590.3 229.3L601.5 244.3Z" fill="#28b671" stroke="#adadad"></path><path d="M285.3 88.3L251.8 74L249 88.3Z" fill="#42763f" stroke="#adadad"></path><path d="M249 88.3L218.8 67.7L234.5 98Z" fill="#406736" stroke="#adadad"></path><path d="M251.8 74L285.3 88.3L258.8 48.3Z" fill="#3c582e" stroke="#adadad"></path><path d="M285.3 88.3L301.5 21.7L258.8 48.3Z" fill="#212417" stroke="#adadad"></path><path d="M0 653.3L0 669.7L15.8 675.7Z" fill="#428549" stroke="#adadad"></path><path d="M15.8 675.7L18.5 693L77.5 680.7Z" fill="#212417" stroke="#adadad"></path><path d="M-6.2 497.7L0 669.7L0 653.3Z" fill="#28b671" stroke="#adadad"></path><path d="M0 685.3L18.5 693L15.8 675.7Z" fill="#29301c" stroke="#adadad"></path><path d="M548.3 754L538.8 716L528.3 724.7Z" fill="#29301c" stroke="#adadad"></path><path d="M641.3 682L641.3 658.7L609.5 645.3Z" fill="#37a562" stroke="#adadad"></path><path d="M548.3 754L528.3 724.7L493.5 748.3Z" fill="#3c582e" stroke="#adadad"></path><path d="M681.3 415L619.3 382.7L613.5 397Z" fill="#212417" stroke="#adadad"></path><path d="M675 450L681.3 415L675 445.3Z" fill="#212417" stroke="#adadad"></path><path d="M675 445.3L681.3 415L640.5 452.3Z" fill="#406736" stroke="#adadad"></path><path d="M675 472.7L681.3 415L675 450Z" fill="#42763f" stroke="#adadad"></path><path d="M675 491.3L681.3 415L675 472.7Z" fill="#42763f" stroke="#adadad"></path><path d="M675 513L681.3 415L675 491.3Z" fill="#374a27" stroke="#adadad"></path><path d="M574.8 171.7L554 162.7L538.8 234.7Z" fill="#37a562" stroke="#adadad"></path><path d="M508 117.3L477.3 148.3L519.5 166.7Z" fill="#3c582e" stroke="#adadad"></path><path d="M469.3 121L485.5 89.7L423.5 100.3Z" fill="#37a562" stroke="#adadad"></path><path d="M36.8 730.7L110 727.7L64.8 711Z" fill="#42763f" stroke="#adadad"></path><path d="M178.5 796L177 804.3L213.5 811.3Z" fill="#28b671" stroke="#adadad"></path><path d="M675 582.3L671.3 549L648.5 562.3Z" fill="#3c582e" stroke="#adadad"></path><path d="M675 582.3L648.5 562.3L643.5 581Z" fill="#42763f" stroke="#adadad"></path><path d="M633.5 638.7L617.3 614L609.5 645.3Z" fill="#406736" stroke="#adadad"></path><path d="M641.3 658.7L633.5 638.7L609.5 645.3Z" fill="#212417" stroke="#adadad"></path><path d="M675 303.3L624.5 234.7L641.5 302.3Z" fill="#212417" stroke="#adadad"></path><path d="M641.5 302.3L624.5 234.7L622.3 286Z" fill="#3f9555" stroke="#adadad"></path><path d="M588.8 200.3L574.8 171.7L538.8 234.7Z" fill="#29301c" stroke="#adadad"></path><path d="M596.8 190L574.8 171.7L588.8 200.3Z" fill="#3c582e" stroke="#adadad"></path><path d="M550.8 136L508 117.3L519.5 166.7Z" fill="#29301c" stroke="#adadad"></path><path d="M350.5 846L345.3 754L298.5 787.3Z" fill="#37a562" stroke="#adadad"></path><path d="M421 791.3L440 808.7L455.8 733.3Z" fill="#406736" stroke="#adadad"></path><path d="M0 669.7L0 685.3L15.8 675.7Z" fill="#313d21" stroke="#adadad"></path><path d="M18.5 693L36.8 730.7L64.8 711Z" fill="#3f9555" stroke="#adadad"></path><path d="M-6.2 497.7L0 685.3L0 669.7Z" fill="#29301c" stroke="#adadad"></path><path d="M-6.2 497.7L0 686L0 685.3Z" fill="#212417" stroke="#adadad"></path><path d="M0 685.3L0 686L18.5 693Z" fill="#212417" stroke="#adadad"></path><path d="M550.8 136L519.5 166.7L554 162.7Z" fill="#313d21" stroke="#adadad"></path><path d="M485.5 89.7L409 71.3L423.5 100.3Z" fill="#3c582e" stroke="#adadad"></path><path d="M285.3 88.3L317 91.7L301.5 21.7Z" fill="#374a27" stroke="#adadad"></path><path d="M251.8 74L218.8 67.7L249 88.3Z" fill="#29301c" stroke="#adadad"></path><path d="M409 71.3L374.3 131.3L423.5 100.3Z" fill="#406736" stroke="#adadad"></path><path d="M0 200.7L31.8 209L0 192.3Z" fill="#374a27" stroke="#adadad"></path><path d="M0 200.7L0 206L31.8 209Z" fill="#374a27" stroke="#adadad"></path><path d="M0 264.7L-17.2 178.7L0 291.3Z" fill="#28b671" stroke="#adadad"></path><path d="M246.3 63.7L218.8 67.7L251.8 74Z" fill="#3c582e" stroke="#adadad"></path><path d="M635.3 216.7L596.8 190L588.8 200.3Z" fill="#428549" stroke="#adadad"></path><path d="M0 737.7L36.8 730.7L18.5 693Z" fill="#406736" stroke="#adadad"></path><path d="M485.5 89.7L469.3 121L482.8 112.7Z" fill="#406736" stroke="#adadad"></path><path d="M0 192.3L31.8 209L34.8 184.3Z" fill="#428549" stroke="#adadad"></path><path d="M0 206L-17.2 178.7L0 264.7Z" fill="#374a27" stroke="#adadad"></path><path d="M546.3 771.3L548.3 754L540 778.7Z" fill="#42763f" stroke="#adadad"></path><path d="M641.3 682L609.5 645.3L571 698.3Z" fill="#212417" stroke="#adadad"></path><path d="M239.3 837.3L239.3 834.7L230 841Z" fill="#313d21" stroke="#adadad"></path><path d="M213.5 811.3L239.3 834.7L267.3 788Z" fill="#374a27" stroke="#adadad"></path><path d="M114.3 810L178.5 796L140.3 756.7Z" fill="#29301c" stroke="#adadad"></path><path d="M177 804.3L173 818L213.5 811.3Z" fill="#42763f" stroke="#adadad"></path><path d="M675 375.7L675 315L648.3 349.3Z" fill="#212417" stroke="#adadad"></path><path d="M590.3 165.7L574.8 171.7L596.8 190Z" fill="#28b671" stroke="#adadad"></path><path d="M681.3 415L675 315L675 375.7Z" fill="#3c582e" stroke="#adadad"></path><path d="M125.3 81.3L87.3 118L142.8 131Z" fill="#28b671" stroke="#adadad"></path><path d="M88.5 143.3L40.5 144L84.3 157Z" fill="#3c582e" stroke="#adadad"></path><path d="M675 612.7L675 582.3L643.5 581Z" fill="#406736" stroke="#adadad"></path><path d="M671.3 549L675 582.3L675 513Z" fill="#37a562" stroke="#adadad"></path><path d="M675 513L675 582.3L681.3 415Z" fill="#3f9555" stroke="#adadad"></path><path d="M230 841L239.3 834.7L213.5 811.3Z" fill="#29301c" stroke="#adadad"></path><path d="M239.3 834.7L275.8 848.7L267.3 788Z" fill="#3c582e" stroke="#adadad"></path><path d="M0 169.3L0 192.3L34.8 184.3Z" fill="#28b671" stroke="#adadad"></path><path d="M0 200.7L-17.2 178.7L0 206Z" fill="#374a27" stroke="#adadad"></path><path d="M590.3 165.7L596.8 190L645.5 155Z" fill="#42763f" stroke="#adadad"></path><path d="M590.3 165.7L580.5 162.3L574.8 171.7Z" fill="#37a562" stroke="#adadad"></path><path d="M574.8 171.7L580.5 162.3L554 162.7Z" fill="#29301c" stroke="#adadad"></path><path d="M580.5 162.3L550.8 136L554 162.7Z" fill="#374a27" stroke="#adadad"></path><path d="M508 117.3L485.5 89.7L482.8 112.7Z" fill="#374a27" stroke="#adadad"></path><path d="M681.3 415L675 303.3L675 315Z" fill="#3c582e" stroke="#adadad"></path><path d="M675 315L675 303.3L641.5 302.3Z" fill="#37a562" stroke="#adadad"></path><path d="M641.3 682L571 698.3L615.5 723Z" fill="#3c582e" stroke="#adadad"></path><path d="M633.5 638.7L675 612.7L617.3 614Z" fill="#29301c" stroke="#adadad"></path><path d="M218.8 67.7L147 79L230.5 120.7Z" fill="#212417" stroke="#adadad"></path><path d="M198.8 850.3L230 841L213.5 811.3Z" fill="#374a27" stroke="#adadad"></path><path d="M342.8 851L350.5 846L298.5 787.3Z" fill="#374a27" stroke="#adadad"></path><path d="M520.3 79.7L485.5 89.7L508 117.3Z" fill="#37a562" stroke="#adadad"></path><path d="M580.5 162.3L561.5 120L550.8 136Z" fill="#3f9555" stroke="#adadad"></path><path d="M635.3 216.7L590.3 229.3L624.5 234.7Z" fill="#37a562" stroke="#adadad"></path><path d="M246.3 63.7L236 38.3L218.8 67.7Z" fill="#428549" stroke="#adadad"></path><path d="M218.8 67.7L196.5 36.7L147 79Z" fill="#28b671" stroke="#adadad"></path><path d="M301.5 21.7L317 91.7L354.3 92Z" fill="#212417" stroke="#adadad"></path><path d="M275.8 848.7L239.3 834.7L239.3 837.3Z" fill="#313d21" stroke="#adadad"></path><path d="M44.5 116.7L88.5 143.3L87.3 118Z" fill="#3c582e" stroke="#adadad"></path><path d="M44.5 116.7L40.5 144L88.5 143.3Z" fill="#37a562" stroke="#adadad"></path><path d="M247 870.3L275.8 848.7L239.3 837.3Z" fill="#406736" stroke="#adadad"></path><path d="M423.5 841L440 808.7L421 791.3Z" fill="#428549" stroke="#adadad"></path><path d="M540 778.7L548.3 754L493.5 748.3Z" fill="#406736" stroke="#adadad"></path><path d="M675 219.7L635.3 216.7L624.5 234.7Z" fill="#42763f" stroke="#adadad"></path><path d="M546.3 771.3L572 749L548.3 754Z" fill="#37a562" stroke="#adadad"></path><path d="M548.3 754L572 749L538.8 716Z" fill="#29301c" stroke="#adadad"></path><path d="M540 778.7L493.5 748.3L524.8 799Z" fill="#406736" stroke="#adadad"></path><path d="M275.8 848.7L342.8 851L298.5 787.3Z" fill="#28b671" stroke="#adadad"></path><path d="M350.5 846L398.3 843.3L390.8 771Z" fill="#3f9555" stroke="#adadad"></path><path d="M675 645L675 612.7L633.5 638.7Z" fill="#37a562" stroke="#adadad"></path><path d="M675 582.3L675 612.7L681.3 415Z" fill="#28b671" stroke="#adadad"></path><path d="M524.8 799L493.5 748.3L503.3 813.3Z" fill="#212417" stroke="#adadad"></path><path d="M546.3 771.3L586.5 768.3L572 749Z" fill="#212417" stroke="#adadad"></path><path d="M147.3 29.7L125.3 81.3L147 79Z" fill="#42763f" stroke="#adadad"></path><path d="M147 79L125.3 81.3L142.8 131Z" fill="#28b671" stroke="#adadad"></path><path d="M347.8 856.3L398.3 843.3L350.5 846Z" fill="#406736" stroke="#adadad"></path><path d="M81.8 812L114.3 810L110 727.7Z" fill="#428549" stroke="#adadad"></path><path d="M198.8 850.3L232 853.7L230 841Z" fill="#428549" stroke="#adadad"></path><path d="M615.5 723L571 698.3L571.8 712.7Z" fill="#28b671" stroke="#adadad"></path><path d="M641.3 658.7L670.3 650.3L633.5 638.7Z" fill="#406736" stroke="#adadad"></path><path d="M331.5 890.7L347.8 856.3L342.8 851Z" fill="#406736" stroke="#adadad"></path><path d="M342.8 851L347.8 856.3L350.5 846Z" fill="#374a27" stroke="#adadad"></path><path d="M394.3 891.7L423.5 841L398.3 843.3Z" fill="#29301c" stroke="#adadad"></path><path d="M398.3 843.3L423.5 841L421 791.3Z" fill="#3c582e" stroke="#adadad"></path><path d="M547.8 788.7L548 780L540 778.7Z" fill="#3c582e" stroke="#adadad"></path><path d="M40.5 144L0 169.3L34.8 184.3Z" fill="#212417" stroke="#adadad"></path><path d="M0 192.3L-17.2 178.7L0 200.7Z" fill="#29301c" stroke="#adadad"></path><path d="M-17.2 178.7L0 169.3L0 144Z" fill="#37a562" stroke="#adadad"></path><path d="M493.5 748.3L440 808.7L494.5 817.7Z" fill="#37a562" stroke="#adadad"></path><path d="M540 778.7L548 780L546.3 771.3Z" fill="#3c582e" stroke="#adadad"></path><path d="M572 749L615.5 723L571.8 712.7Z" fill="#428549" stroke="#adadad"></path><path d="M230 841L232 853.7L239.3 837.3Z" fill="#374a27" stroke="#adadad"></path><path d="M275.8 848.7L331.5 890.7L342.8 851Z" fill="#406736" stroke="#adadad"></path><path d="M198.8 850.3L213.5 811.3L173 818Z" fill="#37a562" stroke="#adadad"></path><path d="M242 0L236 38.3L258.8 48.3Z" fill="#406736" stroke="#adadad"></path><path d="M258.8 48.3L236 38.3L246.3 63.7Z" fill="#3c582e" stroke="#adadad"></path><path d="M494.5 817.7L440 808.7L492.3 821.7Z" fill="#313d21" stroke="#adadad"></path><path d="M622.3 742.7L615.5 723L616.8 755.3Z" fill="#313d21" stroke="#adadad"></path><path d="M561 100L561.5 120L573 94.7Z" fill="#42763f" stroke="#adadad"></path><path d="M590.3 165.7L561.5 120L580.5 162.3Z" fill="#3c582e" stroke="#adadad"></path><path d="M550.8 136L561.5 120L508 117.3Z" fill="#3f9555" stroke="#adadad"></path><path d="M492.3 821.7L440 808.7L442.5 825.3Z" fill="#406736" stroke="#adadad"></path><path d="M137 853.7L198.8 850.3L173 818Z" fill="#37a562" stroke="#adadad"></path><path d="M494.5 817.7L503.3 813.3L493.5 748.3Z" fill="#29301c" stroke="#adadad"></path><path d="M675 696L670.3 650.3L641.3 682Z" fill="#29301c" stroke="#adadad"></path><path d="M641.3 682L670.3 650.3L641.3 658.7Z" fill="#3c582e" stroke="#adadad"></path><path d="M0 144L0 169.3L40.5 144Z" fill="#29301c" stroke="#adadad"></path><path d="M0 169.3L-17.2 178.7L0 192.3Z" fill="#28b671" stroke="#adadad"></path><path d="M-5.2 894.7L0 737.7L0 686Z" fill="#428549" stroke="#adadad"></path><path d="M453.8 839.3L492.3 821.7L442.5 825.3Z" fill="#3c582e" stroke="#adadad"></path><path d="M494.5 817.7L492.3 821.7L503.3 813.3Z" fill="#428549" stroke="#adadad"></path><path d="M553 841.7L547.8 788.7L524.8 799Z" fill="#29301c" stroke="#adadad"></path><path d="M521.5 836.7L524.8 799L503.3 813.3Z" fill="#28b671" stroke="#adadad"></path><path d="M524.8 799L547.8 788.7L540 778.7Z" fill="#3c582e" stroke="#adadad"></path><path d="M548 780L586.5 768.3L546.3 771.3Z" fill="#212417" stroke="#adadad"></path><path d="M428 900L453.8 839.3L423.5 841Z" fill="#29301c" stroke="#adadad"></path><path d="M423.5 841L453.8 839.3L442.5 825.3Z" fill="#3c582e" stroke="#adadad"></path><path d="M236 38.3L203.5 39.3L218.8 67.7Z" fill="#37a562" stroke="#adadad"></path><path d="M74.8 74.3L87.3 118L125.3 81.3Z" fill="#3f9555" stroke="#adadad"></path><path d="M74.8 74.3L44.5 116.7L87.3 118Z" fill="#313d21" stroke="#adadad"></path><path d="M675 696L675 645L670.3 650.3Z" fill="#3f9555" stroke="#adadad"></path><path d="M670.3 650.3L675 645L633.5 638.7Z" fill="#313d21" stroke="#adadad"></path><path d="M675 612.7L675 645L681.3 415Z" fill="#313d21" stroke="#adadad"></path><path d="M0 686L0 737.7L18.5 693Z" fill="#42763f" stroke="#adadad"></path><path d="M36.8 730.7L81.8 812L110 727.7Z" fill="#374a27" stroke="#adadad"></path><path d="M0 758L0 737.7L-5.2 894.7Z" fill="#406736" stroke="#adadad"></path><path d="M485.5 89.7L410 37.7L409 71.3Z" fill="#42763f" stroke="#adadad"></path><path d="M409 71.3L410 37.7L354.3 92Z" fill="#313d21" stroke="#adadad"></path><path d="M410.3 13.3L410 37.7L437 0Z" fill="#3f9555" stroke="#adadad"></path><path d="M214.3 0L196.5 36.7L203.5 39.3Z" fill="#3c582e" stroke="#adadad"></path><path d="M203.5 39.3L196.5 36.7L218.8 67.7Z" fill="#212417" stroke="#adadad"></path><path d="M178 28.3L196.5 36.7L214.3 0Z" fill="#212417" stroke="#adadad"></path><path d="M332.8 0L301.5 21.7L354.3 92Z" fill="#313d21" stroke="#adadad"></path><path d="M534.8 82.3L520.3 79.7L508 117.3Z" fill="#212417" stroke="#adadad"></path><path d="M214.5 892.7L247 870.3L232 853.7Z" fill="#374a27" stroke="#adadad"></path><path d="M232 853.7L247 870.3L239.3 837.3Z" fill="#313d21" stroke="#adadad"></path><path d="M41.5 810.7L81.8 812L36.8 730.7Z" fill="#428549" stroke="#adadad"></path><path d="M114.3 810L137 853.7L173 818Z" fill="#37a562" stroke="#adadad"></path><path d="M198.8 850.3L214.5 892.7L232 853.7Z" fill="#406736" stroke="#adadad"></path><path d="M578.5 803.3L586.5 768.3L548 780Z" fill="#313d21" stroke="#adadad"></path><path d="M615.5 723L653.3 697.3L641.3 682Z" fill="#3f9555" stroke="#adadad"></path><path d="M616.8 755.3L586.5 768.3L623.5 771Z" fill="#374a27" stroke="#adadad"></path><path d="M44.5 116.7L0 144L40.5 144Z" fill="#28b671" stroke="#adadad"></path><path d="M622.3 742.7L653.3 697.3L615.5 723Z" fill="#212417" stroke="#adadad"></path><path d="M561 100L534.8 82.3L508 117.3Z" fill="#37a562" stroke="#adadad"></path><path d="M410.3 13.3L406.3 25.7L410 37.7Z" fill="#42763f" stroke="#adadad"></path><path d="M561 100L508 117.3L561.5 120Z" fill="#212417" stroke="#adadad"></path><path d="M573 94.7L561.5 120L590.3 165.7Z" fill="#428549" stroke="#adadad"></path><path d="M410 37.7L441.8 0L437 0Z" fill="#3c582e" stroke="#adadad"></path><path d="M410 37.7L356.3 0L354.3 92Z" fill="#3c582e" stroke="#adadad"></path><path d="M616.8 755.3L615.5 723L572 749Z" fill="#374a27" stroke="#adadad"></path><path d="M0 811.3L0 758L-5.2 894.7Z" fill="#29301c" stroke="#adadad"></path><path d="M0 737.7L0 758L36.8 730.7Z" fill="#313d21" stroke="#adadad"></path><path d="M681.3 415L675 219.7L675 303.3Z" fill="#374a27" stroke="#adadad"></path><path d="M675 303.3L675 219.7L624.5 234.7Z" fill="#406736" stroke="#adadad"></path><path d="M635.3 216.7L645.5 155L596.8 190Z" fill="#374a27" stroke="#adadad"></path><path d="M332.8 0L304.5 11.3L301.5 21.7Z" fill="#29301c" stroke="#adadad"></path><path d="M301.5 21.7L286.5 0L258.8 48.3Z" fill="#29301c" stroke="#adadad"></path><path d="M221.5 0L203.5 39.3L236 38.3Z" fill="#374a27" stroke="#adadad"></path><path d="M196.5 36.7L178 28.3L147 79Z" fill="#212417" stroke="#adadad"></path><path d="M44.5 116.7L0 43.7L0 144Z" fill="#313d21" stroke="#adadad"></path><path d="M82.3 58.3L74.8 74.3L125.3 81.3Z" fill="#3f9555" stroke="#adadad"></path><path d="M578.5 803.3L548 780L547.8 788.7Z" fill="#3c582e" stroke="#adadad"></path><path d="M586.5 768.3L616.8 755.3L572 749Z" fill="#212417" stroke="#adadad"></path><path d="M675 703.7L675 696L653.3 697.3Z" fill="#28b671" stroke="#adadad"></path><path d="M93.5 844.7L114.3 810L81.8 812Z" fill="#374a27" stroke="#adadad"></path><path d="M93.5 844.7L137 853.7L114.3 810Z" fill="#313d21" stroke="#adadad"></path><path d="M0 758L1.8 766.3L36.8 730.7Z" fill="#428549" stroke="#adadad"></path><path d="M561 100L573 94.7L534.8 82.3Z" fill="#37a562" stroke="#adadad"></path><path d="M523.5 42.3L485.5 89.7L520.3 79.7Z" fill="#3c582e" stroke="#adadad"></path><path d="M622.5 83.7L573 94.7L590.3 165.7Z" fill="#428549" stroke="#adadad"></path><path d="M296.5 900L331.5 890.7L275.8 848.7Z" fill="#28b671" stroke="#adadad"></path><path d="M347.8 856.3L394.3 891.7L398.3 843.3Z" fill="#29301c" stroke="#adadad"></path><path d="M296.5 900L275.8 848.7L260.3 900Z" fill="#428549" stroke="#adadad"></path><path d="M126 20.7L147.3 29.7L130.8 0Z" fill="#374a27" stroke="#adadad"></path><path d="M178 28.3L147.3 29.7L147 79Z" fill="#3f9555" stroke="#adadad"></path><path d="M501 875.3L521.5 836.7L492.3 821.7Z" fill="#3f9555" stroke="#adadad"></path><path d="M492.3 821.7L521.5 836.7L503.3 813.3Z" fill="#3f9555" stroke="#adadad"></path><path d="M501 875.3L492.3 821.7L453.8 839.3Z" fill="#28b671" stroke="#adadad"></path><path d="M523.5 42.3L520.3 79.7L534.8 82.3Z" fill="#428549" stroke="#adadad"></path><path d="M356.3 0L332.8 0L354.3 92Z" fill="#406736" stroke="#adadad"></path><path d="M675 703.7L653.3 697.3L675 734.7Z" fill="#406736" stroke="#adadad"></path><path d="M653.3 697.3L675 696L641.3 682Z" fill="#28b671" stroke="#adadad"></path><path d="M675 645L675 696L681.3 415Z" fill="#374a27" stroke="#adadad"></path><path d="M332.8 0L286.5 0L304.5 11.3Z" fill="#42763f" stroke="#adadad"></path><path d="M304.5 11.3L286.5 0L301.5 21.7Z" fill="#3f9555" stroke="#adadad"></path><path d="M126 20.7L82.3 58.3L125.3 81.3Z" fill="#42763f" stroke="#adadad"></path><path d="M74.8 74.3L51.8 53L44.5 116.7Z" fill="#313d21" stroke="#adadad"></path><path d="M356.3 0L410 37.7L406.3 25.7Z" fill="#42763f" stroke="#adadad"></path><path d="M1.8 766.3L41.5 810.7L36.8 730.7Z" fill="#42763f" stroke="#adadad"></path><path d="M658.5 161.7L645.5 155L635.3 216.7Z" fill="#29301c" stroke="#adadad"></path><path d="M553 841.7L578.5 803.3L547.8 788.7Z" fill="#428549" stroke="#adadad"></path><path d="M675 734.7L653.3 697.3L622.3 742.7Z" fill="#42763f" stroke="#adadad"></path><path d="M51.5 849L93.5 844.7L81.8 812Z" fill="#3c582e" stroke="#adadad"></path><path d="M410.3 13.3L356.3 0L406.3 25.7Z" fill="#3f9555" stroke="#adadad"></path><path d="M578.5 803.3L589.8 795.3L586.5 768.3Z" fill="#28b671" stroke="#adadad"></path><path d="M631.5 760.7L622.3 742.7L616.8 755.3Z" fill="#3f9555" stroke="#adadad"></path><path d="M675 696L675 703.7L681.3 415Z" fill="#406736" stroke="#adadad"></path><path d="M286.5 0L242 0L258.8 48.3Z" fill="#428549" stroke="#adadad"></path><path d="M260.3 900L275.8 848.7L247 870.3Z" fill="#313d21" stroke="#adadad"></path><path d="M214.5 892.7L198.8 850.3L184.5 900Z" fill="#3f9555" stroke="#adadad"></path><path d="M623.5 771L631.5 760.7L616.8 755.3Z" fill="#42763f" stroke="#adadad"></path><path d="M296.5 900L328.8 900L331.5 890.7Z" fill="#42763f" stroke="#adadad"></path><path d="M381.3 900L394.3 891.7L347.8 856.3Z" fill="#3f9555" stroke="#adadad"></path><path d="M381.3 900L347.8 856.3L331.5 890.7Z" fill="#313d21" stroke="#adadad"></path><path d="M675 219.7L675 185.3L635.3 216.7Z" fill="#42763f" stroke="#adadad"></path><path d="M681.3 415L675 185.3L675 219.7Z" fill="#428549" stroke="#adadad"></path><path d="M184.5 900L198.8 850.3L137 853.7Z" fill="#406736" stroke="#adadad"></path><path d="M242 0L221.5 0L236 38.3Z" fill="#28b671" stroke="#adadad"></path><path d="M589.8 795.3L623.5 771L586.5 768.3Z" fill="#29301c" stroke="#adadad"></path><path d="M675 185.3L658.5 161.7L635.3 216.7Z" fill="#37a562" stroke="#adadad"></path><path d="M622.5 83.7L580 55.3L573 94.7Z" fill="#3f9555" stroke="#adadad"></path><path d="M247 900L260.3 900L247 870.3Z" fill="#406736" stroke="#adadad"></path><path d="M221.5 0L214.3 0L203.5 39.3Z" fill="#29301c" stroke="#adadad"></path><path d="M147.3 29.7L126 20.7L125.3 81.3Z" fill="#313d21" stroke="#adadad"></path><path d="M214.5 892.7L247 900L247 870.3Z" fill="#313d21" stroke="#adadad"></path><path d="M328.8 900L381.3 900L331.5 890.7Z" fill="#374a27" stroke="#adadad"></path><path d="M501 875.3L553 841.7L521.5 836.7Z" fill="#3f9555" stroke="#adadad"></path><path d="M580 55.3L534.8 82.3L573 94.7Z" fill="#428549" stroke="#adadad"></path><path d="M580 55.3L523.5 42.3L534.8 82.3Z" fill="#313d21" stroke="#adadad"></path><path d="M130.8 0L147.3 29.7L178 28.3Z" fill="#37a562" stroke="#adadad"></path><path d="M441.8 0L410 37.7L451.5 0Z" fill="#428549" stroke="#adadad"></path><path d="M410.3 13.3L412.8 -7.7L356.3 0Z" fill="#28b671" stroke="#adadad"></path><path d="M521.5 836.7L553 841.7L524.8 799Z" fill="#28b671" stroke="#adadad"></path><path d="M675 837.3L675 832L623.8 880.7Z" fill="#28b671" stroke="#adadad"></path><path d="M675 832L675 772.3L623.5 771Z" fill="#428549" stroke="#adadad"></path><path d="M428 900L423.5 841L394.3 891.7Z" fill="#42763f" stroke="#adadad"></path><path d="M437 0L412.8 -7.7L410.3 13.3Z" fill="#406736" stroke="#adadad"></path><path d="M356.3 0L412.8 -7.7L332.8 0Z" fill="#374a27" stroke="#adadad"></path><path d="M227.3 -15.7L242 0L286.5 0Z" fill="#406736" stroke="#adadad"></path><path d="M227.3 -15.7L221.5 0L242 0Z" fill="#28b671" stroke="#adadad"></path><path d="M227.3 -15.7L214.3 0L221.5 0Z" fill="#212417" stroke="#adadad"></path><path d="M227.3 -15.7L202.8 -9.7L214.3 0Z" fill="#406736" stroke="#adadad"></path><path d="M451.5 0L410 37.7L485.5 89.7Z" fill="#428549" stroke="#adadad"></path><path d="M437 0L441.8 0L412.8 -7.7Z" fill="#374a27" stroke="#adadad"></path><path d="M227.3 -15.7L286.5 0L332.8 0Z" fill="#28b671" stroke="#adadad"></path><path d="M214.3 0L202.8 -9.7L178 28.3Z" fill="#42763f" stroke="#adadad"></path><path d="M40.5 42.3L51.8 53L50.3 0Z" fill="#37a562" stroke="#adadad"></path><path d="M82.3 58.3L51.8 53L74.8 74.3Z" fill="#212417" stroke="#adadad"></path><path d="M134.3 885.7L184.5 900L137 853.7Z" fill="#42763f" stroke="#adadad"></path><path d="M214.5 892.7L184.5 900L247 900Z" fill="#28b671" stroke="#adadad"></path><path d="M64.5 881.3L114.3 875.3L93.5 844.7Z" fill="#37a562" stroke="#adadad"></path><path d="M93.5 844.7L114.3 875.3L137 853.7Z" fill="#37a562" stroke="#adadad"></path><path d="M412.8 -7.7L227.3 -15.7L332.8 0Z" fill="#29301c" stroke="#adadad"></path><path d="M675 772.3L631.5 760.7L623.5 771Z" fill="#28b671" stroke="#adadad"></path><path d="M675 772.3L675 734.7L631.5 760.7Z" fill="#42763f" stroke="#adadad"></path><path d="M631.5 760.7L675 734.7L622.3 742.7Z" fill="#3f9555" stroke="#adadad"></path><path d="M675 703.7L675 734.7L681.3 415Z" fill="#28b671" stroke="#adadad"></path><path d="M422.8 902.7L428 900L394.3 891.7Z" fill="#428549" stroke="#adadad"></path><path d="M114.3 875.3L134.3 885.7L137 853.7Z" fill="#3c582e" stroke="#adadad"></path><path d="M395 909.7L394.3 891.7L381.3 900Z" fill="#212417" stroke="#adadad"></path><path d="M395 909.7L422.8 902.7L394.3 891.7Z" fill="#313d21" stroke="#adadad"></path><path d="M484.5 900L501 875.3L453.8 839.3Z" fill="#37a562" stroke="#adadad"></path><path d="M395 909.7L381.3 900L328.8 900Z" fill="#3c582e" stroke="#adadad"></path><path d="M395 909.7L328.8 900L296.5 900Z" fill="#29301c" stroke="#adadad"></path><path d="M395 909.7L296.5 900L260.3 900Z" fill="#37a562" stroke="#adadad"></path><path d="M395 909.7L260.3 900L149.8 910.7Z" fill="#42763f" stroke="#adadad"></path><path d="M441.8 0L451.5 0L412.8 -7.7Z" fill="#3f9555" stroke="#adadad"></path><path d="M469.3 0L451.5 0L485.5 89.7Z" fill="#406736" stroke="#adadad"></path><path d="M484.5 900L453.8 839.3L428 900Z" fill="#374a27" stroke="#adadad"></path><path d="M149.8 910.7L260.3 900L247 900Z" fill="#37a562" stroke="#adadad"></path><path d="M675 185.3L673.3 151L658.5 161.7Z" fill="#374a27" stroke="#adadad"></path><path d="M658.5 161.7L673.3 151L645.5 155Z" fill="#37a562" stroke="#adadad"></path><path d="M1.8 766.3L0 811.3L41.5 810.7Z" fill="#374a27" stroke="#adadad"></path><path d="M41.5 810.7L51.5 849L81.8 812Z" fill="#406736" stroke="#adadad"></path><path d="M0 758L0 811.3L1.8 766.3Z" fill="#37a562" stroke="#adadad"></path><path d="M0 850.7L0 811.3L-5.2 894.7Z" fill="#313d21" stroke="#adadad"></path><path d="M0 850.7L51.5 849L41.5 810.7Z" fill="#3c582e" stroke="#adadad"></path><path d="M132.8 900L134.3 900L134.3 885.7Z" fill="#3c582e" stroke="#adadad"></path><path d="M681.3 415L675 149L675 185.3Z" fill="#212417" stroke="#adadad"></path><path d="M675 185.3L675 149L673.3 151Z" fill="#313d21" stroke="#adadad"></path><path d="M673.3 151L675 138L645.5 155Z" fill="#37a562" stroke="#adadad"></path><path d="M523.5 42.3L469.3 0L485.5 89.7Z" fill="#42763f" stroke="#adadad"></path><path d="M451.5 0L505.3 -16.7L412.8 -7.7Z" fill="#428549" stroke="#adadad"></path><path d="M516 0L469.3 0L523.5 42.3Z" fill="#428549" stroke="#adadad"></path><path d="M648.3 111.7L590.3 165.7L645.5 155Z" fill="#37a562" stroke="#adadad"></path><path d="M202.8 -9.7L130.8 0L178 28.3Z" fill="#29301c" stroke="#adadad"></path><path d="M50.3 0L51.8 53L82.3 58.3Z" fill="#374a27" stroke="#adadad"></path><path d="M103 0L130.8 0L202.8 -9.7Z" fill="#212417" stroke="#adadad"></path><path d="M675 137.3L648.3 111.7L645.5 155Z" fill="#212417" stroke="#adadad"></path><path d="M681.3 415L675 138L675 149Z" fill="#212417" stroke="#adadad"></path><path d="M675 149L675 138L673.3 151Z" fill="#37a562" stroke="#adadad"></path><path d="M103 0L82.3 58.3L126 20.7Z" fill="#42763f" stroke="#adadad"></path><path d="M51.8 53L0 43.7L44.5 116.7Z" fill="#406736" stroke="#adadad"></path><path d="M0 144L0 43.7L-17.2 178.7Z" fill="#29301c" stroke="#adadad"></path><path d="M661.3 78L622.5 83.7L648.3 111.7Z" fill="#3c582e" stroke="#adadad"></path><path d="M648.3 111.7L622.5 83.7L590.3 165.7Z" fill="#37a562" stroke="#adadad"></path><path d="M681.3 415L675 137.3L675 138Z" fill="#313d21" stroke="#adadad"></path><path d="M675 138L675 137.3L645.5 155Z" fill="#406736" stroke="#adadad"></path><path d="M134.3 885.7L149.8 910.7L184.5 900Z" fill="#29301c" stroke="#adadad"></path><path d="M184.5 900L149.8 910.7L247 900Z" fill="#37a562" stroke="#adadad"></path><path d="M132.8 900L134.3 885.7L124 900Z" fill="#3c582e" stroke="#adadad"></path><path d="M124 900L134.3 885.7L114.3 875.3Z" fill="#29301c" stroke="#adadad"></path><path d="M134.3 900L149.8 910.7L134.3 885.7Z" fill="#3f9555" stroke="#adadad"></path><path d="M108.5 900L124 900L114.3 875.3Z" fill="#428549" stroke="#adadad"></path><path d="M132.8 900L149.8 910.7L134.3 900Z" fill="#42763f" stroke="#adadad"></path><path d="M422.8 902.7L484.5 900L428 900Z" fill="#42763f" stroke="#adadad"></path><path d="M501 875.3L581.8 900L553 841.7Z" fill="#42763f" stroke="#adadad"></path><path d="M395 909.7L484.5 900L422.8 902.7Z" fill="#28b671" stroke="#adadad"></path><path d="M124 900L149.8 910.7L132.8 900Z" fill="#428549" stroke="#adadad"></path><path d="M589.5 916.7L489.8 900L484.5 900Z" fill="#3c582e" stroke="#adadad"></path><path d="M484.5 900L489.8 900L501 875.3Z" fill="#428549" stroke="#adadad"></path><path d="M675 832L623.5 771L589.8 795.3Z" fill="#313d21" stroke="#adadad"></path><path d="M589.5 916.7L491.3 900L489.8 900Z" fill="#28b671" stroke="#adadad"></path><path d="M489.8 900L491.3 900L501 875.3Z" fill="#3c582e" stroke="#adadad"></path><path d="M227.3 -15.7L103 0L202.8 -9.7Z" fill="#374a27" stroke="#adadad"></path><path d="M130.8 0L103 0L126 20.7Z" fill="#406736" stroke="#adadad"></path><path d="M623.8 880.7L578.5 803.3L553 841.7Z" fill="#212417" stroke="#adadad"></path><path d="M675 734.7L676.3 881.3L681.3 415Z" fill="#42763f" stroke="#adadad"></path><path d="M64.5 881.3L108.5 900L114.3 875.3Z" fill="#3c582e" stroke="#adadad"></path><path d="M124 900L108.5 900L149.8 910.7Z" fill="#212417" stroke="#adadad"></path><path d="M64.5 881.3L93.5 844.7L51.5 849Z" fill="#3c582e" stroke="#adadad"></path><path d="M505.3 -16.7L516 0L570.8 -17.7Z" fill="#313d21" stroke="#adadad"></path><path d="M579.5 0L516 0L523.5 42.3Z" fill="#3f9555" stroke="#adadad"></path><path d="M469.3 0L505.3 -16.7L451.5 0Z" fill="#29301c" stroke="#adadad"></path><path d="M24.8 900L64.5 881.3L51.5 849Z" fill="#28b671" stroke="#adadad"></path><path d="M675 137.3L675 117.7L648.3 111.7Z" fill="#3f9555" stroke="#adadad"></path><path d="M579.5 0L523.5 42.3L580 55.3Z" fill="#3c582e" stroke="#adadad"></path><path d="M681.3 415L675 117.7L675 137.3Z" fill="#37a562" stroke="#adadad"></path><path d="M0 37.3L0 43.7L16.8 22.7Z" fill="#28b671" stroke="#adadad"></path><path d="M40.5 42.3L0 43.7L51.8 53Z" fill="#37a562" stroke="#adadad"></path><path d="M-5.2 894.7L0 686L-6.2 497.7Z" fill="#42763f" stroke="#adadad"></path><path d="M0 811.3L0 850.7L41.5 810.7Z" fill="#374a27" stroke="#adadad"></path><path d="M599.8 34.7L580 55.3L622.5 83.7Z" fill="#406736" stroke="#adadad"></path><path d="M516 0L505.3 -16.7L469.3 0Z" fill="#3c582e" stroke="#adadad"></path><path d="M412.8 -7.7L505.3 -16.7L227.3 -15.7Z" fill="#42763f" stroke="#adadad"></path><path d="M675 117.7L669.3 96.3L648.3 111.7Z" fill="#28b671" stroke="#adadad"></path><path d="M661.3 78L599.8 34.7L622.5 83.7Z" fill="#406736" stroke="#adadad"></path><path d="M675 117.7L675 98.7L669.3 96.3Z" fill="#406736" stroke="#adadad"></path><path d="M669.3 96.3L661.3 78L648.3 111.7Z" fill="#374a27" stroke="#adadad"></path><path d="M681.3 415L675 98.7L675 117.7Z" fill="#406736" stroke="#adadad"></path><path d="M16.8 22.7L0 43.7L40.5 42.3Z" fill="#212417" stroke="#adadad"></path><path d="M0 43.7L0 37.3L-17.2 178.7Z" fill="#3f9555" stroke="#adadad"></path><path d="M36.5 0L16.8 22.7L40.5 42.3Z" fill="#28b671" stroke="#adadad"></path><path d="M675 98.7L661.3 78L669.3 96.3Z" fill="#428549" stroke="#adadad"></path><path d="M103 0L50.3 0L82.3 58.3Z" fill="#3c582e" stroke="#adadad"></path><path d="M227.3 -15.7L50.3 0L103 0Z" fill="#406736" stroke="#adadad"></path><path d="M0 850.7L7.8 873.3L51.5 849Z" fill="#3c582e" stroke="#adadad"></path><path d="M64.5 881.3L24.8 900L108.5 900Z" fill="#428549" stroke="#adadad"></path><path d="M227.3 -15.7L36.5 0L50.3 0Z" fill="#406736" stroke="#adadad"></path><path d="M50.3 0L36.5 0L40.5 42.3Z" fill="#42763f" stroke="#adadad"></path><path d="M16.8 22.7L0 0L0 37.3Z" fill="#3f9555" stroke="#adadad"></path><path d="M597.3 0L579.5 0L599.8 34.7Z" fill="#29301c" stroke="#adadad"></path><path d="M599.8 34.7L579.5 0L580 55.3Z" fill="#42763f" stroke="#adadad"></path><path d="M589.5 916.7L581.8 900L491.3 900Z" fill="#42763f" stroke="#adadad"></path><path d="M491.3 900L581.8 900L501 875.3Z" fill="#374a27" stroke="#adadad"></path><path d="M7.8 873.3L24.8 900L51.5 849Z" fill="#37a562" stroke="#adadad"></path><path d="M108.5 900L24.8 900L149.8 910.7Z" fill="#28b671" stroke="#adadad"></path><path d="M675 832L589.8 795.3L623.8 880.7Z" fill="#428549" stroke="#adadad"></path><path d="M675 772.3L676.3 881.3L675 734.7Z" fill="#29301c" stroke="#adadad"></path><path d="M603.3 1.3L597.3 0L599.8 34.7Z" fill="#42763f" stroke="#adadad"></path><path d="M579.5 0L570.8 -17.7L516 0Z" fill="#374a27" stroke="#adadad"></path><path d="M597.3 0L570.8 -17.7L579.5 0Z" fill="#313d21" stroke="#adadad"></path><path d="M505.3 -16.7L570.8 -17.7L227.3 -15.7Z" fill="#212417" stroke="#adadad"></path><path d="M589.5 916.7L591 900L581.8 900Z" fill="#212417" stroke="#adadad"></path><path d="M581.8 900L591 900L553 841.7Z" fill="#42763f" stroke="#adadad"></path><path d="M623.8 0L603.3 1.3L599.8 34.7Z" fill="#374a27" stroke="#adadad"></path><path d="M597.3 0L623.8 0L570.8 -17.7Z" fill="#29301c" stroke="#adadad"></path><path d="M227.3 -15.7L4.8 0L36.5 0Z" fill="#28b671" stroke="#adadad"></path><path d="M36.5 0L4.8 0L16.8 22.7Z" fill="#406736" stroke="#adadad"></path><path d="M623.8 880.7L589.8 795.3L578.5 803.3Z" fill="#374a27" stroke="#adadad"></path><path d="M675 832L675.3 845L675 772.3Z" fill="#3f9555" stroke="#adadad"></path><path d="M591 900L623.8 880.7L553 841.7Z" fill="#406736" stroke="#adadad"></path><path d="M227.3 -15.7L0 0L4.8 0Z" fill="#212417" stroke="#adadad"></path><path d="M4.8 0L0 0L16.8 22.7Z" fill="#28b671" stroke="#adadad"></path><path d="M0 37.3L0 0L-17.2 178.7Z" fill="#212417" stroke="#adadad"></path><path d="M589.5 916.7L604.3 900L591 900Z" fill="#28b671" stroke="#adadad"></path><path d="M591 900L604.3 900L623.8 880.7Z" fill="#37a562" stroke="#adadad"></path><path d="M623.8 880.7L675.3 845L675 837.3Z" fill="#313d21" stroke="#adadad"></path><path d="M676.3 881.3L675.3 845L623.8 880.7Z" fill="#428549" stroke="#adadad"></path><path d="M675 837.3L675.3 845L675 832Z" fill="#3f9555" stroke="#adadad"></path><path d="M0 850.7L-5.2 894.7L7.8 873.3Z" fill="#37a562" stroke="#adadad"></path><path d="M7.8 873.3L0 900L24.8 900Z" fill="#406736" stroke="#adadad"></path><path d="M-17.2 178.7L-5.2 894.7L-6.2 497.7Z" fill="#42763f" stroke="#adadad"></path><path d="M-5.2 894.7L0 900L7.8 873.3Z" fill="#3c582e" stroke="#adadad"></path><path d="M24.8 900L0 900L149.8 910.7Z" fill="#212417" stroke="#adadad"></path><path d="M589.5 916.7L610.5 900L604.3 900Z" fill="#3f9555" stroke="#adadad"></path><path d="M604.3 900L610.5 900L623.8 880.7Z" fill="#428549" stroke="#adadad"></path><path d="M395 909.7L589.5 916.7L484.5 900Z" fill="#3f9555" stroke="#adadad"></path><path d="M149.8 910.7L589.5 916.7L395 909.7Z" fill="#313d21" stroke="#adadad"></path><path d="M643.5 1.3L623.8 0L599.8 34.7Z" fill="#428549" stroke="#adadad"></path><path d="M603.3 1.3L623.8 0L597.3 0Z" fill="#37a562" stroke="#adadad"></path><path d="M675 34.3L599.8 34.7L661.3 78Z" fill="#212417" stroke="#adadad"></path><path d="M681.3 415L675 34.3L675 98.7Z" fill="#3c582e" stroke="#adadad"></path><path d="M675 98.7L675 34.3L661.3 78Z" fill="#3c582e" stroke="#adadad"></path><path d="M589.5 916.7L624.3 903.7L610.5 900Z" fill="#313d21" stroke="#adadad"></path><path d="M610.5 900L624.3 903.7L623.8 880.7Z" fill="#37a562" stroke="#adadad"></path><path d="M675 34.3L643.5 1.3L599.8 34.7Z" fill="#42763f" stroke="#adadad"></path><path d="M623.8 0L643.5 1.3L570.8 -17.7Z" fill="#212417" stroke="#adadad"></path><path d="M675 890.7L676.3 881.3L623.8 880.7Z" fill="#29301c" stroke="#adadad"></path><path d="M675.3 845L676.3 881.3L675 772.3Z" fill="#28b671" stroke="#adadad"></path><path d="M624.3 903.7L675 890.7L623.8 880.7Z" fill="#3f9555" stroke="#adadad"></path><path d="M675 900L675 890.7L624.3 903.7Z" fill="#3c582e" stroke="#adadad"></path><path d="M681.3 415L675 0L675 34.3Z" fill="#42763f" stroke="#adadad"></path><path d="M675 34.3L675 0L643.5 1.3Z" fill="#3c582e" stroke="#adadad"></path><path d="M643.5 1.3L675 0L570.8 -17.7Z" fill="#406736" stroke="#adadad"></path><path d="M589.5 916.7L675 900L624.3 903.7Z" fill="#313d21" stroke="#adadad"></path><path d="M675 890.7L675 900L676.3 881.3Z" fill="#29301c" stroke="#adadad"></path></g></svg>